<svg xmlns="http://www.w3.org/2000/svg" viewBox="0 0 100 100">
	<title>Universitas Ahmad Dahlan</title>
	<style>path{fill-rule:evenodd;clip-rule:evenodd;}</style>
	<rect fill="#FFFFFF" x="0" width="100" height="100"/>
	<path fill="#003366" d="M50,22.3c15.3,0,27.7,12.4,27.7,27.7S65.3,77.7,50,77.7S22.3,65.3,22.3,50S34.7,22.3,50,22.3L50,22.3z  M60.7,41.5c-0.1-0.2-0.3-0.4-0.5-0.5c0-0.2,0.3-0.3,0.4-0.3c0.3,0.2,0.4,0.5,0.6,0.8c-0.2,0.2-0.5,0.3-0.6,0.3 c-0.3,0-0.5-0.1-0.9-0.2l0.1-0.2C60.1,41.5,60.5,41.7,60.7,41.5L60.7,41.5z M41.3,38c-0.2,0.1-0.4,0.3-0.5,0.4 c-0.2,0-0.3-0.3-0.3-0.4c0.3-0.3,0.5-0.4,0.8-0.6c0.2,0.3,0.2,0.5,0.3,0.7c0,0.3-0.1,0.5-0.2,0.9l-0.1-0.1 C41.3,38.6,41.5,38.2,41.3,38L41.3,38z M38.5,41.9c-0.1,0.2-0.3,0.4-0.4,0.6c-0.2,0.1-0.4-0.2-0.4-0.3c0.2-0.4,0.4-0.5,0.6-0.7 c0.2,0.2,0.4,0.4,0.4,0.6c0.1,0.2,0.1,0.5,0,0.9l-0.2-0.1C38.7,42.6,38.8,42.2,38.5,41.9L38.5,41.9z M44.4,44.3L44.3,44l0.6-1.3 l0.1,0l0.1,0.4L44.4,44.3L44.4,44.3z M44.9,44.4l-0.1-0.3l0.6-1.3l0.1,0l0.1,0.4L44.9,44.4L44.9,44.4z M45.5,41.3L45.4,41l0.6-1.2 l0.1,0l0.1,0.4L45.5,41.3L45.5,41.3z M48.5,41.1l0-0.3l0.9-1l0.1,0l0,0.4L48.5,41.1L48.5,41.1z M40.4,47L40.4,47 c0.3,0.3,0.6,1.1,1.1,1.2c1,0.1-0.1-1.5-0.1-1.9c0-0.3,0.1-0.6,0.2-0.9c-0.3-0.1-0.5-0.2-0.7-0.4c-0.2-0.2-0.3-0.5-0.1-1.1 c0.1-0.5,0.9,0.1,1.3-0.1c-0.1-0.3-0.2-0.7-0.9-1.1l-2.8-2l0-0.3l0.3,0.1l2.8,1.9c0.1,0.1,0.6,0,0.9-0.2c-0.4,0-0.6-0.2-0.8-0.4 c-0.6-0.5,0-1.7,0.8-1.7c-0.4,0.4-1.1,1-0.6,1.6c0.1,0.2,0.6,0.3,0.8,0.1c0.5-0.3,0.6-0.8,0.6-1.5c0.5,0.9,0.5,1.3-0.1,2.1 c-0.3,0.4-0.7,0.6-1,0.6c0.7,0.7,0.8,2.1,1.4,2c0.4-0.1,0.3-0.4,0.4-1.2c0-0.2,0.4-1.2,0.7-1.6c-0.2-0.3-0.5-1.5-0.8-1.9l-2.2-2.6 c0-0.1,0-0.3,0-0.4c0.1,0,0.1,0,0.1,0c0,0.1,0,0.1,0.1,0.1l2,2.2c0.2,0.2,0.6,0.1,0.9-0.1c0-0.2,0-0.5,0.1-0.6 c-0.4,0.1-0.9,0.2-1.2-0.1c-0.8-0.7,0-1.7,1-1.9c-0.6,0.4-1.3,1.4-0.7,1.6c0.4,0.2,0.7,0,1-0.2c0-0.1,0.4-1.2,0.5-1.3 c0.1,0.1,0.1,0.2,0.2,0.3c-0.1,0.3-0.5,1.8-0.4,2.1c0.2,0,1.1-0.6,1.8-0.8c0.9-0.3,1.4,0.3,1.4,0.9c0.1-0.2,0.4-0.5,0.6-0.6 c-0.3-0.3-0.8-0.6-1.1-0.9l-1.9,0.6l-0.3-0.1c0-0.2,0.1-0.5,0.1-0.7c0.3-0.3,0.9-1.4,1.1-1.9c0.3,0.2,0.4,0.3,0.5,0.4 c0,0.1,0,0.2,0,0.4c-0.2-0.1-0.3-0.1-0.4-0.2c-0.3,0.7-0.5,1.3-0.8,1.7l1.4-0.4c-0.1-0.2-0.2-0.3-0.3-0.4c0-0.1,0-0.3,0-0.4 c0,0,0.1-0.1,0.2-0.1l0.7,0.5l-0.2,0l0.2,0.2l2-0.5c0-0.4,0-0.7,0-1.1c0.1-0.2,0.2-0.4,0.4-0.5l0.1,1.6l1.2,0l-1.2,0.4l0,2.5 c0.6,0.5,1.6,0.9,2.3,1.2c0.1-0.4,0.4-0.6,0.7-0.8c-0.8-0.3-2.4-0.8-2.5-1.3c-0.1-1,2.4-1.1,2.8-1.1c0,0,0,0,0.1,0.1 c0,0.3-0.1,0.4-0.3,0.6c-0.1,0-2.7-0.1-2.1,0.5c0.3,0.4,1.9,0.6,2.7,1c0.2-0.1,0.5-0.2,0.6-0.3c-0.1,0.1-0.2,0.2-0.3,0.3 c0.7,0.2,1.3,0.6,1.6,1.2c0.2,0.4-0.1,1.3-0.7,1.1c-0.2-0.1-1.9-0.5-2.1-0.5c0.1,1.2,1.4,1.4,1.9,1.4c0.2-0.4,1-1.1,1.5-1.1 c-0.2,0.1-1.1,0.7-1.1,1.1c0.6,0.1,1.5,0,2-0.5c-0.3-0.4-0.9-0.7-0.7-1.3c0.1-0.5,0.8-0.6,1.1-0.1c0.3,0.4,0,1.3-0.2,1.6 c-0.7,0.9-1.5,0.8-2.1,0.8c0.2,0.5,0.9,0.9,1.5,0.8c0.3-0.4,0.9-0.6,1.4-0.6c0-0.5,0.1-1,0.7-1c0.3,0,0.5-0.1,0.6,0.5 c0,0.3-0.3,0.7-0.4,0.8c0.2,0.3,0.7,0.7,1.2,0.4c-0.3-0.4-0.4-1.2,0.1-1.5c0.3-0.2,0.7-0.2,0.8,0.2c0.2,0.6,0,1-0.6,1.5 c-0.8,0.6-1.4,0.3-1.9-0.1C58.2,44.8,57.4,45,57,45c0,0.4,0.2,0.7,0.8,1.3c0.4,0.4,1.7,0.6,2.2,0.6c-0.1-0.3-0.3-0.9,0-1.2 c0.2-0.3,0.8-0.2,1.1,0.1c0.5,0.5-0.6,1.2-1,1.3c-0.8,0.2-1.9,0.3-2.7-0.4c-0.7-0.6-0.7-1-0.7-1.8c-1.1-0.3-1.6-0.8-1.8-1.4 c-1.2,0-1.9-0.8-2.1-2c-0.3-0.2-1.9-0.7-2.4-1.1c-0.3,0.7-0.9,1.3-1.6,1.7c-0.7,0.4-2.3,0.5-2.9-0.1c-0.6-0.5-1-1.1-1-2 c-0.2,0.1-0.3,0.1-0.5,0.1c0.1,0.2,0.3,0.5,0.4,0.8c0.2,0.5,0.2,0.7,0.5,0.9c0.1,0.1,0.5,0.4,0.7,0.4c0,0.1,0,0.3,0,0.4 c-0.4,0-0.6-0.1-0.8-0.3c-0.2,0.3-0.6,0.7-0.7,1.3c-0.1,0.5,0,1.6-0.8,1.7c-0.5,0.1-0.8-0.6-1.1-1.2c-0.4,0.2-1-0.1-1.1,0.1 c-0.2,0.2-0.1,0.4,0,0.5c0.2,0.1,0.4,0.2,0.6,0.2c0.1-0.1,0.4-0.3,0.5-0.3c0.2,0.2,0.2,0.2,0.3,0.5c-0.5,0.2-0.6,0.6-0.7,1.2 c0,0.5,1,1.8,0,2.1C41.3,48.8,40.6,47.6,40.4,47L40.4,47z M57.4,42.3c-0.1-0.1-0.3-0.2-0.4-0.4c-0.1-0.1-0.1-0.3-0.1-0.4 c0.2-0.1,0.4,0,0.5,0.2C57.5,41.8,57.5,42.1,57.4,42.3L57.4,42.3z M59,43.9c-0.1-0.1-0.2-0.2-0.2-0.3c0-0.1,0-0.3,0.1-0.4 c0.2,0,0.2,0.1,0.3,0.2C59.2,43.6,59.1,43.8,59,43.9L59,43.9z M60.6,44.3c0-0.1-0.1-0.3-0.1-0.6c0-0.1,0-0.4,0.1-0.4 c0.2,0,0.3,0.2,0.3,0.4C60.9,43.9,60.8,44.2,60.6,44.3L60.6,44.3z M60.3,46.7c0-0.1-0.1-0.3-0.1-0.5c0-0.1,0-0.3,0.1-0.4 c0.2,0,0.3,0.2,0.3,0.4C60.6,46.4,60.5,46.6,60.3,46.7L60.3,46.7z M57.2,44.5c0-0.2,0.9-0.5,1.1-0.5c0,0.1,0.1,0.2,0.2,0.3 C58.1,44.3,57.5,44.5,57.2,44.5L57.2,44.5z M53.2,41.1c0.1-0.2,0.4-0.6,0.7-0.9c0.7,0,2,0.9,1.4,1.4C55.1,41.7,53.5,41.3,53.2,41.1 L53.2,41.1z M48.3,40.1c0.3-0.3,0.6-0.7,0.9-1l0.1-0.3c-0.1-0.4-0.7-0.7-1-0.9l1.7-0.4l0,2.3c0,0.8-1.5,2-2.3,2.3 C48.2,41.6,48.3,40.8,48.3,40.1L48.3,40.1z M45,40c0.5-0.1,1.1-0.5,1.5-0.8c-0.3,0.8-0.4,1.9-0.1,2.7C45.4,42,45.1,40.9,45,40L45,40 z M46.8,40.2c-0.2-0.2-0.2-1,0.4-1.2c0.5-0.1,0.7,0.3,0.7,0.7C47.7,39.9,47.1,40.6,46.8,40.2L46.8,40.2z M47,42 c-0.4,0-0.6-1-0.5-1.6c0.3,0.4,0.9,0.4,1.3,0.1C47.8,41.2,47.6,42,47,42L47,42z M43.3,44.4l-0.2-0.3l0.2-1.3l0.1,0l0.2,0.3 L43.3,44.4L43.3,44.4z M39.9,40.3L39.7,40l0.2-1.5l0.1,0l0.2,0.4L39.9,40.3L39.9,40.3z M61.3,41.7l0.3,0l1.7,1.1l0,0.1l-0.4,0 L61.3,41.7L61.3,41.7z M61.8,44.2l0.3,0l2.2,1.9l0,0.1l-0.4,0L61.8,44.2L61.8,44.2z M55,37.7l0.3-0.2l4.8,1.2l0.1,0.1L59.9,39 L55,37.7L55,37.7z M42.3,46.4l0.5-0.1l0.1,0.5l-0.5,0.1L42.3,46.4L42.3,46.4z M42.6,45.6l0.5,0l0,0.5l-0.5,0L42.6,45.6L42.6,45.6z  M49.2,42.4l0.1-0.3l1.4-0.7l0.1,0.1l-0.2,0.4L49.2,42.4L49.2,42.4z M57.4,40l0.5,0l0,0.5l-0.5,0L57.4,40L57.4,40z M57.9,40.6l0.5,0 l0,0.5l-0.5,0L57.9,40.6L57.9,40.6z M61.2,42.2l0.5,0l0,0.5l-0.5,0L61.2,42.2L61.2,42.2z M47.8,35.6l0.5,0.3L48,36.4l-0.5-0.3 L47.8,35.6L47.8,35.6z M39.4,45.4c0,0.2-0.1,0.2-0.2,0.3c-0.1,0-0.3-0.1-0.3-0.2c0-0.2,0.2-0.3,0.3-0.3c0.2,0,0.6,0,0.8,0.1 l-0.6-0.8c-0.1-0.1-0.1-0.3-0.1-0.4l0.4,0.3l-0.1,0.1l0.7,1c0,0.1,0,0.1,0,0.3C40,45.4,39.7,45.3,39.4,45.4L39.4,45.4z M51.4,35.3 c-0.2,0-0.2,0-0.3-0.1c-0.1-0.1,0-0.3,0.1-0.3c0.2-0.1,0.3,0.1,0.4,0.2c0.1,0.2,0.2,0.6,0.1,0.8l0.7-0.8c0.1-0.1,0.2-0.2,0.4-0.2 l-0.2,0.5l-0.1-0.1l-0.8,1c0,0.1-0.1,0-0.2,0.1C51.5,35.9,51.6,35.6,51.4,35.3L51.4,35.3z M56,39.2c-0.2,0-0.2-0.1-0.2-0.2 c0-0.1,0.1-0.3,0.2-0.3c0.2,0,0.3,0.2,0.3,0.3c0,0.2,0,0.6-0.1,0.8l0.9-0.6c0.1,0,0.3-0.1,0.4-0.1L57,39.6l-0.1-0.1l-1,0.7 c-0.1,0-0.1,0-0.3,0C55.9,39.8,56,39.6,56,39.2L56,39.2z M45.6,35.2l0.1,0.1c0.2,0.1,0.3,0.4,0.3,0.5c-0.1,0.3-0.2,0.4-0.5,0.6 c-0.1-0.1-0.2-0.3-0.2-0.5C45.3,35.7,45.5,35.4,45.6,35.2L45.6,35.2z M45.7,36.1c-0.1-0.1-0.1-0.2-0.1-0.3c0-0.1,0.1-0.2,0.2-0.3 c0.1,0.1,0.1,0.2,0.1,0.3C45.9,35.9,45.8,36,45.7,36.1L45.7,36.1z M57.6,36.8l0,0.1c0,0.2-0.2,0.4-0.3,0.5c-0.3,0.1-0.4,0.1-0.7-0.2 c0.1-0.2,0.2-0.3,0.3-0.5C57.1,36.7,57.4,36.8,57.6,36.8L57.6,36.8z M56.9,37.2c0-0.1,0.1-0.2,0.2-0.2c0.1-0.1,0.3,0,0.4,0 c0,0.1-0.1,0.2-0.2,0.2C57.1,37.3,57,37.3,56.9,37.2L56.9,37.2z M52.3,41.9l0,0.1c0,0.2-0.2,0.4-0.3,0.5c-0.3,0.1-0.4,0.1-0.7-0.2 c0.1-0.2,0.2-0.3,0.3-0.5C51.8,41.8,52.1,41.9,52.3,41.9L52.3,41.9z M51.6,42.4c0-0.1,0.1-0.2,0.2-0.2c0.1-0.1,0.3,0,0.4,0 c0,0.1-0.1,0.2-0.2,0.2C51.9,42.5,51.7,42.4,51.6,42.4L51.6,42.4z M40.7,39.3l0.1,0c0.2,0,0.4,0.1,0.6,0.3c0.1,0.3,0.1,0.4-0.1,0.7 c-0.2-0.1-0.4-0.2-0.5-0.3C40.7,39.8,40.7,39.5,40.7,39.3L40.7,39.3z M41.3,40c-0.1,0-0.2-0.1-0.3-0.2c-0.1-0.1,0-0.3,0-0.4 c0.1,0,0.2,0.1,0.3,0.1C41.3,39.7,41.3,39.8,41.3,40L41.3,40z M62.3,44.9l0,0.1c0,0.2-0.3,0.3-0.5,0.4c-0.3,0-0.4-0.1-0.6-0.4 c0.1-0.1,0.3-0.3,0.5-0.3C61.8,44.6,62.1,44.8,62.3,44.9L62.3,44.9z M61.4,45.1c0.1-0.1,0.2-0.1,0.3-0.2c0.1,0,0.2,0.1,0.3,0.2 c-0.1,0.1-0.2,0.1-0.2,0.2C61.7,45.2,61.6,45.2,61.4,45.1L61.4,45.1z M49,36.2c-0.1,0-0.2-0.1-0.2-0.3c0-0.2,0.1-0.3,0.1-0.5l0.1,0 c0,0.1,0,0.3,0,0.4c0,0,0,0.1,0.1,0.1c0.1,0,0.1,0,0.2-0.1c0-0.1,0-0.2,0-0.4c0,0,0.1,0,0.1-0.1c0,0.2,0,0.3,0,0.4 c0,0.1,0.1,0.1,0.1,0.1c0.1,0,0.1-0.1,0.1-0.1c0-0.2,0-0.2-0.1-0.4l0.1-0.1c0.1,0.2,0.2,0.4,0.2,0.6c0,0.1-0.1,0.3-0.2,0.3 c-0.1,0-0.2-0.1-0.3-0.2C49.2,36,49.1,36.2,49,36.2L49,36.2z M40.3,43.5c-0.5-0.1-0.7-0.8-0.8-1.3l0.2,0.1c0,0.6,0.3,0.8,0.7,1 c0.2,0,0.2-0.1,0.2-0.2l0-0.2c0.1,0.1,0.1,0.1,0.2,0.2C40.8,43.4,40.8,43.6,40.3,43.5L40.3,43.5z M57.4,47.5 c0.5-0.3,1.1,0.2,1.4,0.6l-0.2,0c-0.4-0.5-0.7-0.5-1.1-0.4c-0.1,0.1-0.1,0.2,0,0.3l0.2,0.2c-0.1,0-0.2,0-0.3-0.1 C57.1,47.9,57,47.7,57.4,47.5L57.4,47.5z M61.8,46.2c0.4-0.4,1.1,0,1.5,0.3l-0.2,0.1c-0.5-0.4-0.8-0.3-1.2-0.1 c-0.1,0.1,0,0.2,0.1,0.3l0.2,0.1c-0.1,0-0.2,0-0.3,0C61.6,46.7,61.5,46.5,61.8,46.2L61.8,46.2z M55,36.8c0.1-0.5,0.9-0.7,1.4-0.7 l-0.1,0.2c-0.6,0-0.9,0.2-1,0.6c0,0.2,0.1,0.2,0.2,0.2l0.2,0c-0.1,0.1-0.1,0.1-0.2,0.2C55.2,37.3,54.9,37.2,55,36.8L55,36.8z  M58.4,41.3c0.1-0.2,0.7-0.4,0.9-0.6c0.4-0.4,0.5-0.6,0.7-1.1l0.3-0.1l0.1,0.1c-0.1,0.1-0.3,0.6-0.6,0.9c-0.1,0.2-0.3,0.3-0.5,0.4 c0,0.1,0.1,0.2,0.1,0.3c0,0.3-0.4,0.5-0.6,0.5C58.4,41.8,58.2,41.6,58.4,41.3L58.4,41.3z M58.7,41.5c-0.1-0.2,0.2-0.3,0.3-0.3 c0,0.1,0.1,0.2,0,0.3C58.9,41.5,58.7,41.7,58.7,41.5L58.7,41.5z M38.3,46.8c-0.2-0.1-0.6-0.6-0.8-0.7c-0.5-0.3-0.7-0.4-1.2-0.4 l-0.1-0.2l0.1-0.1c0.1,0,0.6,0.2,1,0.3c0.2,0.1,0.4,0.3,0.5,0.4c0.1,0,0.1-0.1,0.3-0.2c0.3-0.1,0.6,0.3,0.6,0.5 C38.8,46.7,38.6,46.9,38.3,46.8L38.3,46.8z M38.4,46.5c-0.1,0.1-0.3-0.1-0.4-0.2c0.1,0,0.2-0.1,0.3-0.1 C38.4,46.2,38.5,46.4,38.4,46.5L38.4,46.5z M54.8,38.6c0.1-0.2,0-0.4,0-0.6l0.2,0l0.1,0.1c0,0.2,0,0.4-0.1,0.6 c-0.1,0.2-0.7,0.7-1,0.7C54.3,39.2,54.7,38.8,54.8,38.6L54.8,38.6z M52.2,36.6l0.1-0.1c0.4,0,1.3-0.2,1.5-0.4 c-0.2-0.2,0-0.6,0.1-0.6c0.2,0,0.4,0.1,0.4,0.2c0.1,0.2-0.1,0.4-0.3,0.5c0,0,0,0,0,0.1c0,0.1-0.1,0.1-0.1,0.1c0,0,0-0.1,0-0.1 c-0.1,0-0.1,0.1-0.2,0.1C53.4,36.6,53,36.7,52.2,36.6L52.2,36.6z M54.1,35.7c0,0,0.1,0,0.1,0.1c0,0.1-0.1,0.2-0.2,0.2 C54,36,54,35.8,54.1,35.7L54.1,35.7z M38.1,45.4l0-0.1c0-0.4,0-1.3-0.2-1.6c-0.2,0.1-0.6-0.1-0.6-0.2c0-0.2,0.1-0.4,0.2-0.4 c0.2,0,0.4,0.1,0.5,0.3c0,0,0,0,0.1,0c0.1,0,0.1,0.1,0.1,0.1c0,0-0.1,0-0.1,0c0,0.1,0,0.1,0.1,0.2C38.2,44.2,38.3,44.6,38.1,45.4 L38.1,45.4z M37.5,43.4c0,0,0-0.1,0.1-0.1c0.1,0,0.1,0.2,0.2,0.2C37.7,43.5,37.5,43.5,37.5,43.4L37.5,43.4z M37.1,42.5 c0.2-0.1,0.5,0.1,0.6,0.5c-0.1-0.1-0.3-0.2-0.4-0.2c-0.2,0-0.3,0.4-0.2,0.7c0.1,0.4,0.3,0.6,0.6,0.6c0.1,0,0.2-0.1,0.2-0.2 c0,0.3-0.2,0.5-0.4,0.5c-0.3,0.1-0.6-0.3-0.8-0.8C36.7,43.1,36.8,42.6,37.1,42.5L37.1,42.5z M42.9,79.7L42.1,81 c-1.2,0.1-2.4,0.2-3.6,0c-0.5-0.7-2-1.7-3.4-2.4c-5-2.6-9.7-8.6-12.1-13.9c3.9,7.3,12.6,15.6,19.4,13.8L42.9,79.7L42.9,79.7z  M58.7,82.3c1.1,0.1,2.1,0,3.2-0.2c0.8,0.9,2.1,0.7,3.9,0c5.2-1.9,10.6-6.2,14.3-9.5c-4,4.5-10.7,10-16.8,11.2 c-1.3,0.3-2.6,0.1-3.9-0.3L58.7,82.3L58.7,82.3z M57.1,79.7l0.6-1.1c6.8,1.9,15.4-6.5,19.4-13.8c-2.4,5.3-7.1,11.3-12.1,13.9 c-1.4,0.7-2.8,1.7-3.4,2.4c-1.2,0.1-2.4,0.1-3.6,0L57.1,79.7L57.1,79.7z M41.3,82.3l-0.8,1.3c-1.2,0.4-2.6,0.5-3.9,0.3 c-6.1-1.2-12.8-6.7-16.8-11.2c3.8,3.3,9.2,7.6,14.3,9.5c1.8,0.7,3.2,0.8,3.9,0C39.2,82.3,40.3,82.4,41.3,82.3L41.3,82.3z M17.8,54.1 c0.3-0.1,0.6-0.1,0.9,0c0.3,0.1,0.5,0.2,0.8,0.3c0.2,0.2,0.4,0.4,0.5,0.6c0.1,0.3,0.3,0.6,0.3,0.9c0.1,0.3,0.1,0.7,0,1 c0,0.3-0.1,0.5-0.3,0.8c-0.1,0.2-0.3,0.4-0.6,0.5c-0.2,0.1-0.5,0.3-0.9,0.3l-3.3,0.6c0,0-0.1,0-0.1,0c0,0-0.1,0-0.1-0.1 c0,0,0-0.1-0.1-0.2c0-0.1,0-0.2-0.1-0.3c0-0.1,0-0.2,0-0.3c0-0.1,0-0.1,0-0.2c0,0,0-0.1,0-0.1c0,0,0,0,0.1,0l3.2-0.6 c0.2,0,0.4-0.1,0.6-0.2c0.1-0.1,0.3-0.2,0.4-0.3c0.1-0.1,0.1-0.3,0.2-0.4c0-0.1,0-0.3,0-0.5c0-0.2-0.1-0.3-0.2-0.5 c-0.1-0.1-0.2-0.2-0.3-0.3c-0.1-0.1-0.3-0.1-0.4-0.2c-0.2,0-0.3,0-0.5,0l-3.3,0.6c0,0-0.1,0-0.1,0c0,0-0.1,0-0.1-0.1 c0,0,0-0.1-0.1-0.2c0-0.1,0-0.2-0.1-0.3c0-0.1,0-0.2,0-0.3c0-0.1,0-0.1,0-0.2c0,0,0-0.1,0-0.1c0,0,0,0,0.1,0L17.8,54.1L17.8,54.1z  M72.7,25.6c-0.3,0.4-0.6,0.7-1,0.9c-0.3,0.2-0.7,0.3-1,0.3c-0.3,0-0.7,0-1-0.2c-0.3-0.1-0.7-0.4-1.1-0.7l-1-0.8 c-0.1-0.1-0.1-0.1-0.1-0.2c0-0.1,0-0.2,0.1-0.3l3-3.8c0.1-0.1,0.2-0.2,0.2-0.2c0.1,0,0.2,0,0.2,0.1l1.1,0.9c0.4,0.3,0.7,0.6,0.9,0.9 c0.2,0.3,0.3,0.6,0.4,0.9c0,0.3,0,0.7-0.1,1C73.1,25,72.9,25.3,72.7,25.6L72.7,25.6z M71.7,25c0.2-0.2,0.3-0.4,0.4-0.6 c0.1-0.2,0.1-0.4,0.1-0.6c0-0.2-0.1-0.4-0.2-0.6c-0.1-0.2-0.3-0.4-0.6-0.6L71,22.1l-2.3,3l0.5,0.4c0.2,0.2,0.5,0.3,0.7,0.4 c0.2,0.1,0.4,0.1,0.6,0c0.2,0,0.4-0.1,0.6-0.3C71.3,25.4,71.5,25.2,71.7,25L71.7,25z M78,31.9c-0.4,0.3-0.8,0.5-1.1,0.7 c-0.4,0.1-0.7,0.2-1.1,0.1c-0.3,0-0.7-0.2-1-0.4c-0.3-0.2-0.6-0.5-0.9-0.9l-0.8-1C73,30.3,73,30.2,73,30.1c0-0.1,0.1-0.2,0.2-0.2 l3.8-3.1c0.1-0.1,0.2-0.1,0.3-0.1c0.1,0,0.2,0.1,0.2,0.1l0.9,1.1c0.3,0.4,0.5,0.8,0.7,1.1c0.1,0.3,0.2,0.7,0.1,1 c0,0.3-0.1,0.6-0.3,1C78.6,31.3,78.4,31.6,78,31.9L78,31.9z M77.2,31c0.2-0.2,0.4-0.3,0.5-0.5c0.1-0.2,0.2-0.4,0.3-0.6 c0-0.2,0-0.4,0-0.7c-0.1-0.2-0.2-0.5-0.4-0.7L77.2,28l-2.9,2.4l0.4,0.5c0.2,0.2,0.4,0.4,0.6,0.5c0.2,0.1,0.4,0.2,0.6,0.2 c0.2,0,0.4,0,0.7-0.1C76.8,31.4,77,31.2,77.2,31L77.2,31z M78.5,38.2c-0.1,0.1-0.1,0.1-0.2,0.2c0,0-0.1,0-0.1,0c0,0-0.1-0.1-0.1-0.1 c0-0.1-0.1-0.2-0.2-0.3c-0.1-0.1-0.1-0.2-0.2-0.3c0-0.1-0.1-0.1-0.1-0.2c0,0,0-0.1,0-0.1c0,0,0-0.1,0.1-0.1l0.8-0.9l-1-1.8l-1.1,0.2 c0,0-0.1,0-0.1,0c0,0-0.1,0-0.1,0c0,0-0.1-0.1-0.1-0.1c0-0.1-0.1-0.2-0.1-0.3c-0.1-0.1-0.1-0.2-0.1-0.3c0-0.1,0-0.1,0-0.2 c0,0,0.1-0.1,0.1-0.1c0.1,0,0.1,0,0.2-0.1l5.2-0.8c0.1,0,0.1,0,0.1,0c0,0,0.1,0,0.1,0.1c0,0,0.1,0.1,0.1,0.2c0,0.1,0.1,0.2,0.2,0.3 c0.1,0.1,0.1,0.3,0.2,0.4c0,0.1,0.1,0.2,0.1,0.2c0,0.1,0,0.1,0,0.1c0,0,0,0.1-0.1,0.1L78.5,38.2L78.5,38.2z M80.9,34L80.9,34 l-2.5,0.4l0.7,1.4L80.9,34L80.9,34z M79.8,43.3C79.8,43.3,79.7,43.3,79.8,43.3c-0.1,0-0.1,0-0.2-0.1c0,0-0.1-0.1-0.1-0.2 c0-0.1-0.1-0.2-0.1-0.3c0-0.1-0.1-0.2-0.1-0.3c0-0.1,0-0.1,0-0.2c0,0,0-0.1,0-0.1c0,0,0,0,0.1,0l2.2-0.6l-0.6-2l-2.2,0.6 c0,0-0.1,0-0.1,0c0,0-0.1,0-0.1-0.1c0,0-0.1-0.1-0.1-0.2c0-0.1-0.1-0.2-0.1-0.3c0-0.1-0.1-0.2-0.1-0.3c0-0.1,0-0.1,0-0.2 c0,0,0-0.1,0-0.1c0,0,0,0,0.1,0l5.1-1.5c0,0,0.1,0,0.1,0c0,0,0.1,0,0.1,0.1c0,0,0.1,0.1,0.1,0.2c0,0.1,0.1,0.2,0.1,0.3 c0,0.1,0.1,0.2,0.1,0.3c0,0.1,0,0.1,0,0.2c0,0,0,0.1,0,0.1c0,0,0,0-0.1,0l-2,0.6l0.6,2l2-0.6c0,0,0.1,0,0.1,0c0,0,0.1,0,0.1,0.1 c0,0,0.1,0.1,0.1,0.2c0,0.1,0.1,0.2,0.1,0.3c0,0.1,0.1,0.2,0.1,0.3c0,0.1,0,0.1,0,0.2c0,0,0,0.1,0,0.1c0,0,0,0-0.1,0L79.8,43.3 L79.8,43.3z M80.8,47.6c-0.1,0-0.2,0-0.2,0c-0.1,0-0.1,0-0.1,0c0,0-0.1,0-0.1,0c0,0,0,0,0-0.1l-0.4-2.5c0-0.1,0-0.2,0-0.2 c0-0.1,0.1-0.1,0.3-0.1l5-0.7c0,0,0.1,0,0.1,0c0,0,0,0,0.1,0.1c0,0,0,0.1,0.1,0.2c0,0.1,0,0.2,0.1,0.3c0,0.1,0,0.2,0,0.3 c0,0.1,0,0.1,0,0.2c0,0,0,0.1,0,0.1c0,0,0,0-0.1,0L81,45.6l0.2,1.7c0,0,0,0.1,0,0.1c0,0,0,0-0.1,0.1c0,0-0.1,0-0.1,0.1 C80.9,47.5,80.9,47.5,80.8,47.6L80.8,47.6z M80.7,52.9c-0.1,0-0.2,0.1-0.2,0.1c-0.1,0-0.1,0-0.1,0c0,0,0-0.1-0.1-0.2 c0-0.1,0-0.2,0-0.3c0-0.1,0-0.3,0-0.3c0-0.1,0-0.1,0-0.2c0,0,0-0.1,0.1-0.1c0,0,0.1,0,0.1,0l1.1-0.4l0-2.1l-1.1-0.4c0,0-0.1,0-0.1,0 c0,0,0,0-0.1-0.1c0,0,0-0.1,0-0.2c0-0.1,0-0.2,0-0.3c0-0.1,0-0.2,0-0.3c0-0.1,0-0.1,0.1-0.2c0,0,0.1,0,0.1,0c0.1,0,0.1,0,0.2,0.1 l4.9,1.8c0,0,0.1,0,0.1,0.1c0,0,0.1,0.1,0.1,0.1c0,0.1,0,0.1,0,0.2c0,0.1,0,0.2,0,0.4c0,0.2,0,0.3,0,0.4c0,0.1,0,0.2,0,0.2 c0,0.1,0,0.1-0.1,0.1c0,0-0.1,0-0.1,0.1L80.7,52.9L80.7,52.9z M84.8,50.4L84.8,50.4l-2.4-0.8l0,1.6L84.8,50.4L84.8,50.4z M79.7,58.3 c-0.1,0-0.1,0-0.2-0.1c0,0-0.1-0.1-0.1-0.1c0,0,0-0.1-0.1-0.1c0-0.1,0-0.1,0-0.2l0.1-0.5c0-0.1,0-0.2,0.1-0.3c0-0.1,0.1-0.1,0.1-0.2 c0.1-0.1,0.1-0.1,0.2-0.1c0.1,0,0.2-0.1,0.4-0.1l2.8-0.9c0.2-0.1,0.3-0.1,0.5-0.2c0.2,0,0.4-0.1,0.6-0.1l0,0c-0.2,0-0.4-0.1-0.6-0.1 c-0.2,0-0.4-0.1-0.6-0.1l-2.9-0.5c0,0-0.1,0-0.1,0c0,0,0,0,0-0.1c0,0,0-0.1,0-0.2c0-0.1,0-0.2,0-0.3c0-0.1,0-0.2,0.1-0.2 c0-0.1,0-0.1,0.1-0.1c0,0,0-0.1,0.1-0.1c0,0,0.1,0,0.1,0l4.9,0.9c0.1,0,0.2,0.1,0.3,0.2c0.1,0.1,0.1,0.2,0,0.3l-0.1,0.6 c0,0.1,0,0.2-0.1,0.3c0,0.1-0.1,0.1-0.1,0.2c-0.1,0.1-0.1,0.1-0.2,0.1c-0.1,0-0.2,0.1-0.3,0.1L82.5,57c-0.1,0-0.3,0.1-0.4,0.1 c-0.1,0-0.3,0.1-0.4,0.1c-0.1,0-0.3,0.1-0.4,0.1c-0.1,0-0.2,0.1-0.4,0.1l0,0c0.2,0,0.4,0.1,0.6,0.1c0.2,0,0.4,0.1,0.6,0.1l2.6,0.5 c0,0,0.1,0,0.1,0c0,0,0,0.1,0,0.1c0,0,0,0.1,0,0.2c0,0.1,0,0.2,0,0.3c0,0.1,0,0.2-0.1,0.2c0,0.1,0,0.1-0.1,0.1c0,0,0,0.1-0.1,0.1 c0,0-0.1,0-0.1,0L79.7,58.3L79.7,58.3z M19.2,47.9c0.1,0,0.1,0,0.2,0c0.1,0,0.1,0.1,0.1,0.1c0,0,0.1,0.1,0.1,0.1c0,0.1,0,0.1,0,0.2 l0,0.5c0,0.1,0,0.2,0,0.3c0,0.1-0.1,0.1-0.1,0.2c-0.1,0.1-0.1,0.1-0.2,0.2c-0.1,0.1-0.2,0.1-0.3,0.2l-2.6,1.4 c-0.2,0.1-0.3,0.2-0.5,0.3c-0.2,0.1-0.4,0.2-0.5,0.2l0,0c0.2,0,0.4,0,0.6,0c0.2,0,0.4,0,0.6,0l2.9-0.1c0,0,0.1,0,0.1,0 c0,0,0,0,0.1,0.1c0,0,0,0.1,0,0.2c0,0.1,0,0.2,0,0.3c0,0.1,0,0.2,0,0.3c0,0.1,0,0.1,0,0.2c0,0,0,0.1-0.1,0.1c0,0,0,0-0.1,0l-5,0.1 c-0.1,0-0.2,0-0.3-0.1c-0.1-0.1-0.1-0.2-0.1-0.3l0-0.6c0-0.1,0-0.2,0-0.3c0-0.1,0-0.1,0.1-0.2c0-0.1,0.1-0.1,0.2-0.2 c0.1-0.1,0.2-0.1,0.3-0.2l2-1.1c0.1-0.1,0.2-0.1,0.4-0.2c0.1-0.1,0.2-0.1,0.4-0.2c0.1-0.1,0.2-0.1,0.3-0.2c0.1-0.1,0.2-0.1,0.3-0.2 v0c-0.2,0-0.4,0-0.6,0c-0.2,0-0.4,0-0.6,0l-2.6,0c0,0-0.1,0-0.1,0c0,0,0,0-0.1-0.1c0,0,0-0.1,0-0.2c0-0.1,0-0.2,0-0.3 c0-0.1,0-0.2,0-0.2c0-0.1,0-0.1,0-0.2c0,0,0-0.1,0.1-0.1c0,0,0,0,0.1,0L19.2,47.9L19.2,47.9z M19.9,45.5 C19.9,45.5,20,45.5,19.9,45.5c0.1,0.1,0.1,0.1,0.1,0.1c0,0,0,0.1,0,0.2c0,0.1,0,0.2,0,0.3c0,0.1,0,0.2-0.1,0.3c0,0.1,0,0.1-0.1,0.2 c0,0,0,0.1-0.1,0.1c0,0-0.1,0-0.1,0l-5.2-0.7c0,0-0.1,0-0.1,0c0,0,0-0.1,0-0.1c0,0,0-0.1,0-0.2c0-0.1,0-0.2,0-0.3 c0-0.1,0-0.2,0.1-0.3c0-0.1,0-0.1,0.1-0.2c0,0,0-0.1,0.1-0.1c0,0,0.1,0,0.1,0L19.9,45.5L19.9,45.5z M20.7,41.6 C20.8,41.6,20.8,41.6,20.7,41.6c0.1,0.1,0.1,0.2,0.1,0.2c0,0.1,0,0.1,0,0.2c0,0.1,0,0.2-0.1,0.3c0,0.1-0.1,0.2-0.1,0.3 c0,0.1,0,0.1-0.1,0.2c0,0.1,0,0.1-0.1,0.1c0,0,0,0.1-0.1,0.1c0,0,0,0-0.1,0c0,0-0.1,0-0.1,0l-5.2,0.2c-0.1,0-0.2,0-0.3,0 c-0.1,0-0.1,0-0.1-0.1c0,0,0-0.1,0-0.2c0-0.1,0-0.2,0.1-0.4c0-0.1,0.1-0.2,0.1-0.3c0-0.1,0.1-0.1,0.1-0.2c0,0,0.1-0.1,0.1-0.1 c0,0,0.1,0,0.1,0l4.5-0.1l0,0l-3.7-2.5c0,0-0.1,0-0.1-0.1c0,0,0-0.1,0-0.1c0,0,0-0.1,0-0.2c0-0.1,0-0.2,0.1-0.3 c0-0.1,0.1-0.2,0.1-0.3c0-0.1,0.1-0.1,0.1-0.1c0,0,0.1,0,0.1,0c0.1,0,0.1,0.1,0.2,0.1L20.7,41.6L20.7,41.6z M22.6,36.1 c0.1,0,0.1,0.1,0.2,0.1c0,0,0.1,0.1,0.1,0.1c0,0,0,0.1,0,0.1c0,0,0,0.1,0,0.1L21.7,39c0,0.1-0.1,0.1-0.2,0.2c-0.1,0-0.2,0-0.3,0 l-4.4-2.1c-0.1-0.1-0.2-0.1-0.2-0.2c0-0.1,0-0.2,0-0.3l1.2-2.5c0,0,0,0,0-0.1c0,0,0.1,0,0.1,0c0,0,0.1,0,0.1,0c0.1,0,0.1,0,0.2,0.1 c0.1,0,0.1,0.1,0.2,0.1c0,0,0.1,0.1,0.1,0.1c0,0,0,0.1,0,0.1c0,0,0,0,0,0.1l-0.8,1.8l1.2,0.6l0.7-1.5c0,0,0,0,0.1-0.1 c0,0,0.1,0,0.1,0c0,0,0.1,0,0.1,0c0.1,0,0.1,0,0.2,0.1c0.1,0,0.1,0.1,0.2,0.1c0,0,0.1,0.1,0.1,0.1c0,0,0,0.1,0,0.1c0,0,0,0.1,0,0.1 l-0.7,1.5l1.4,0.7l0.8-1.8c0,0,0,0,0.1-0.1c0,0,0.1,0,0.1,0c0,0,0.1,0,0.1,0C22.4,36.1,22.5,36.1,22.6,36.1L22.6,36.1z M25.5,31.8 C25.6,31.8,25.6,31.9,25.5,31.8c0.1,0.1,0.1,0.1,0.1,0.2c0,0,0,0.1-0.1,0.2c0,0.1-0.1,0.2-0.2,0.3c-0.1,0.1-0.1,0.2-0.2,0.2 c0,0.1-0.1,0.1-0.1,0.1c0,0-0.1,0-0.1,0c0,0-0.1,0-0.1,0l-1.3-0.3c-0.2,0-0.3,0-0.4-0.1c-0.1,0-0.2,0-0.3,0c-0.1,0-0.2,0.1-0.3,0.1 c-0.1,0.1-0.2,0.1-0.2,0.2l-0.2,0.3l1.8,1.2c0,0,0,0,0,0.1c0,0,0,0.1,0,0.1c0,0,0,0.1-0.1,0.2c0,0.1-0.1,0.1-0.1,0.2 c-0.1,0.1-0.1,0.2-0.2,0.2c0,0.1-0.1,0.1-0.1,0.1c0,0-0.1,0-0.1,0c0,0-0.1,0-0.1,0L19,32.5c-0.1-0.1-0.2-0.1-0.2-0.2 c0-0.1,0-0.2,0.1-0.2l0.8-1.2c0.1-0.1,0.1-0.2,0.2-0.3c0.1-0.1,0.1-0.1,0.2-0.2c0.1-0.2,0.3-0.3,0.5-0.4c0.2-0.1,0.3-0.2,0.5-0.2 c0.2,0,0.3,0,0.5,0c0.2,0,0.4,0.1,0.5,0.2c0.2,0.1,0.3,0.2,0.4,0.3c0.1,0.1,0.2,0.3,0.2,0.4c0.1,0.1,0.1,0.3,0.1,0.5 c0,0.2,0,0.3-0.1,0.5c0.1,0,0.2-0.1,0.3-0.1c0.1,0,0.2,0,0.3-0.1c0.1,0,0.2,0,0.3,0c0.1,0,0.2,0,0.4,0.1l1.2,0.2 c0.1,0,0.2,0,0.2,0.1C25.5,31.8,25.5,31.8,25.5,31.8L25.5,31.8z M21.6,31c-0.2-0.1-0.3-0.1-0.5-0.1c-0.2,0-0.3,0.1-0.4,0.2 c0,0-0.1,0.1-0.1,0.1c0,0.1-0.1,0.1-0.2,0.2l-0.3,0.4l1.3,0.9l0.3-0.5c0.1-0.1,0.1-0.3,0.2-0.4c0-0.1,0-0.2,0-0.3 c0-0.1-0.1-0.2-0.1-0.3C21.7,31.1,21.7,31.1,21.6,31L21.6,31z M27.1,27.7c0.2,0.2,0.4,0.4,0.5,0.6c0.1,0.2,0.1,0.5,0.1,0.7 c0,0.2-0.1,0.5-0.2,0.7c-0.1,0.2-0.3,0.5-0.4,0.7c-0.1,0.1-0.3,0.3-0.4,0.4c-0.1,0.1-0.3,0.2-0.4,0.3c-0.1,0.1-0.2,0.1-0.3,0.1 c-0.1,0-0.2,0.1-0.2,0.1c-0.1,0-0.1,0-0.2,0c-0.1,0-0.1-0.1-0.2-0.2c-0.1-0.1-0.1-0.1-0.2-0.2c0,0-0.1-0.1-0.1-0.1c0,0,0-0.1,0-0.1 c0,0,0,0,0-0.1c0,0,0.1-0.1,0.2-0.1c0.1,0,0.2-0.1,0.3-0.1c0.1,0,0.2-0.1,0.4-0.2c0.1-0.1,0.3-0.2,0.4-0.4c0.1-0.1,0.2-0.2,0.2-0.3 c0-0.1,0.1-0.2,0.1-0.3c0-0.1,0-0.2-0.1-0.3c0-0.1-0.1-0.2-0.2-0.2c-0.1-0.1-0.2-0.1-0.3-0.1c-0.1,0-0.2,0-0.4,0 c-0.1,0-0.3,0.1-0.4,0.2c-0.1,0.1-0.3,0.1-0.4,0.2c-0.2,0.1-0.3,0.1-0.5,0.2c-0.2,0-0.3,0.1-0.5,0.1c-0.2,0-0.3,0-0.5-0.1 c-0.2-0.1-0.3-0.2-0.5-0.3c-0.2-0.2-0.3-0.4-0.4-0.6c-0.1-0.2-0.1-0.4-0.1-0.6c0-0.2,0.1-0.4,0.2-0.6c0.1-0.2,0.2-0.4,0.4-0.6 c0.1-0.1,0.2-0.2,0.3-0.3c0.1-0.1,0.2-0.2,0.3-0.2c0.1-0.1,0.2-0.1,0.3-0.2c0.1,0,0.2-0.1,0.2-0.1c0,0,0.1,0,0.1,0c0,0,0,0,0.1,0 c0,0,0.1,0,0.1,0.1c0,0,0.1,0.1,0.1,0.1c0.1,0.1,0.1,0.1,0.2,0.1c0,0,0.1,0.1,0.1,0.1c0,0,0,0.1,0,0.1c0,0,0,0.1,0,0.1 c0,0-0.1,0-0.1,0.1c-0.1,0-0.2,0.1-0.3,0.1c-0.1,0-0.2,0.1-0.3,0.2c-0.1,0.1-0.2,0.2-0.3,0.3c-0.1,0.1-0.1,0.2-0.2,0.3 c0,0.1-0.1,0.2-0.1,0.3c0,0.1,0,0.2,0.1,0.2c0,0.1,0.1,0.1,0.1,0.2c0.1,0.1,0.2,0.1,0.3,0.1c0.1,0,0.2,0,0.4,0 c0.1,0,0.3-0.1,0.4-0.2c0.1-0.1,0.3-0.1,0.4-0.2c0.1-0.1,0.3-0.1,0.5-0.2c0.2,0,0.3-0.1,0.5-0.1c0.2,0,0.3,0,0.5,0.1 C26.7,27.4,26.9,27.5,27.1,27.7L27.1,27.7z M29.7,27.3C29.7,27.4,29.7,27.4,29.7,27.3c0,0.1,0,0.1,0,0.2c0,0-0.1,0.1-0.1,0.1 c0,0.1-0.1,0.1-0.2,0.2c-0.1,0.1-0.1,0.1-0.2,0.2c-0.1,0-0.1,0.1-0.2,0.1c0,0-0.1,0-0.1,0c0,0-0.1,0-0.1,0l-3.6-3.8c0,0,0,0,0-0.1 c0,0,0-0.1,0-0.1c0,0,0.1-0.1,0.1-0.1c0-0.1,0.1-0.1,0.2-0.2c0.1-0.1,0.2-0.1,0.2-0.2c0.1,0,0.1-0.1,0.1-0.1c0,0,0.1,0,0.1,0 c0,0,0.1,0,0.1,0L29.7,27.3L29.7,27.3z M30.4,20.3c0.1,0.1,0.1,0.1,0.1,0.2c0,0.1,0.1,0.1,0.1,0.1c0,0,0,0.1,0,0.1c0,0,0,0,0,0.1 l-1.1,0.9l2.8,3.5c0,0,0,0,0,0.1c0,0,0,0.1,0,0.1c0,0-0.1,0.1-0.1,0.1c-0.1,0.1-0.1,0.1-0.2,0.2c-0.1,0.1-0.2,0.1-0.2,0.2 c-0.1,0-0.1,0.1-0.2,0.1c0,0-0.1,0-0.1,0c0,0-0.1,0-0.1,0l-2.8-3.5l-1.1,0.9c0,0,0,0-0.1,0c0,0-0.1,0-0.1,0c0,0-0.1-0.1-0.1-0.1 c0,0-0.1-0.1-0.1-0.2C27,22.9,27,22.8,27,22.7c0-0.1-0.1-0.1-0.1-0.1c0,0,0-0.1,0-0.1c0,0,0,0,0-0.1L30,20c0,0,0,0,0.1,0 c0,0,0.1,0,0.1,0c0,0,0.1,0.1,0.1,0.1C30.3,20.2,30.4,20.2,30.4,20.3L30.4,20.3z M37.4,21.8c0.1,0.1,0.1,0.1,0.2,0.2 c0,0,0,0.1,0,0.1c0,0-0.1,0.1-0.1,0.1c-0.1,0-0.2,0.1-0.3,0.2c-0.1,0.1-0.2,0.1-0.3,0.2c-0.1,0-0.1,0.1-0.2,0.1c0,0-0.1,0-0.1,0 c0,0-0.1,0-0.1-0.1l-0.9-0.8l-1.8,1l0.2,1.1c0,0,0,0.1,0,0.1c0,0,0,0.1,0,0.1c0,0-0.1,0.1-0.1,0.1c-0.1,0-0.1,0.1-0.3,0.2 c-0.1,0.1-0.2,0.1-0.3,0.1c-0.1,0-0.1,0-0.2,0c0,0-0.1-0.1-0.1-0.1c0-0.1,0-0.1-0.1-0.2l-0.9-5.2c0-0.1,0-0.1,0-0.1 c0,0,0-0.1,0.1-0.1c0,0,0.1-0.1,0.2-0.1c0.1,0,0.2-0.1,0.3-0.2c0.1-0.1,0.3-0.1,0.4-0.2c0.1,0,0.2-0.1,0.2-0.1c0.1,0,0.1,0,0.1,0 c0,0,0.1,0,0.1,0.1L37.4,21.8L37.4,21.8z M33.2,19.5L33.2,19.5l0.5,2.5l1.4-0.8L33.2,19.5L33.2,19.5z M41,19.3 c0.1,0.3,0.1,0.5,0.1,0.8c0,0.2-0.1,0.5-0.3,0.7c-0.1,0.2-0.3,0.4-0.5,0.5c-0.2,0.1-0.5,0.3-0.7,0.4c-0.2,0.1-0.4,0.1-0.5,0.1 c-0.2,0-0.3,0-0.5,0c-0.1,0-0.2,0-0.3,0c-0.1,0-0.2,0-0.2-0.1c0,0-0.1-0.1-0.1-0.1c0-0.1-0.1-0.2-0.1-0.3c0-0.1,0-0.2-0.1-0.2 c0-0.1,0-0.1,0-0.1c0,0,0-0.1,0-0.1c0,0,0,0,0.1,0c0,0,0.1,0,0.2,0c0.1,0,0.2,0,0.3,0.1c0.1,0,0.3,0,0.4,0c0.2,0,0.3,0,0.5-0.1 c0.1,0,0.2-0.1,0.3-0.2c0.1-0.1,0.2-0.1,0.2-0.2c0.1-0.1,0.1-0.2,0.1-0.3c0-0.1,0-0.2,0-0.3c0-0.1-0.1-0.2-0.2-0.3 c-0.1-0.1-0.2-0.1-0.3-0.1c-0.1,0-0.3-0.1-0.4-0.1c-0.2,0-0.3,0-0.5-0.1c-0.2,0-0.3,0-0.5-0.1c-0.2,0-0.3-0.1-0.5-0.2 c-0.1-0.1-0.3-0.2-0.4-0.3c-0.1-0.1-0.2-0.3-0.3-0.5c-0.1-0.3-0.1-0.5-0.1-0.7c0-0.2,0.1-0.4,0.2-0.6c0.1-0.2,0.3-0.3,0.5-0.5 c0.2-0.1,0.4-0.2,0.7-0.3c0.1,0,0.3-0.1,0.4-0.1c0.1,0,0.3,0,0.4,0c0.1,0,0.2,0,0.3,0c0.1,0,0.2,0,0.2,0c0,0,0.1,0,0.1,0.1 c0,0,0,0,0,0.1c0,0,0,0.1,0.1,0.1c0,0,0,0.1,0.1,0.2c0,0.1,0,0.1,0.1,0.2c0,0.1,0,0.1,0,0.1c0,0,0,0.1,0,0.1c0,0,0,0-0.1,0 c0,0-0.1,0-0.2,0c-0.1,0-0.2,0-0.3,0c-0.1,0-0.2,0-0.4,0c-0.1,0-0.3,0-0.4,0.1c-0.1,0-0.2,0.1-0.3,0.1c-0.1,0.1-0.1,0.1-0.2,0.2 c0,0.1-0.1,0.1-0.1,0.2c0,0.1,0,0.2,0,0.2c0,0.1,0.1,0.2,0.2,0.3c0.1,0.1,0.2,0.1,0.3,0.1c0.1,0,0.3,0.1,0.4,0.1 c0.2,0,0.3,0,0.5,0.1c0.2,0,0.3,0,0.5,0.1c0.2,0,0.3,0.1,0.5,0.2c0.1,0.1,0.3,0.2,0.4,0.3C40.9,18.9,41,19.1,41,19.3L41,19.3z  M48.8,19.1c0,0.1,0.1,0.2,0.1,0.2c0,0.1,0,0.1,0,0.1c0,0-0.1,0.1-0.2,0.1c-0.1,0-0.2,0-0.3,0.1c-0.1,0-0.3,0-0.3,0 c-0.1,0-0.1,0-0.2,0c0,0-0.1,0-0.1,0c0,0,0,0-0.1-0.1l-0.5-1.1l-2.1,0.3l-0.2,1.1c0,0,0,0.1,0,0.1c0,0,0,0.1-0.1,0.1 c0,0-0.1,0-0.2,0.1c-0.1,0-0.2,0-0.3,0c-0.1,0-0.2,0-0.3,0c-0.1,0-0.1,0-0.2,0c0,0,0-0.1,0-0.1c0-0.1,0-0.1,0-0.2l1.1-5.1 c0-0.1,0-0.1,0-0.1c0,0,0.1-0.1,0.1-0.1c0,0,0.1,0,0.2-0.1c0.1,0,0.2,0,0.3-0.1c0.2,0,0.3,0,0.4,0c0.1,0,0.2,0,0.2,0 c0.1,0,0.1,0,0.1,0.1c0,0,0.1,0.1,0.1,0.1L48.8,19.1L48.8,19.1z M45.8,15.4L45.8,15.4l-0.5,2.4l1.6-0.2L45.8,15.4L45.8,15.4z  M54,19.8C54,19.8,54,19.8,54,19.8c-0.1,0.1-0.1,0.1-0.1,0.1c0,0-0.1,0-0.2,0c-0.1,0-0.2,0-0.3,0c-0.1,0-0.2,0-0.3,0 c-0.1,0-0.1,0-0.2,0c0,0-0.1,0-0.1-0.1c0,0,0-0.1,0-0.1l0.2-2.2L51,17.3l-0.2,2.2c0,0,0,0.1,0,0.1c0,0,0,0-0.1,0c0,0-0.1,0-0.2,0 c-0.1,0-0.2,0-0.3,0c-0.1,0-0.2,0-0.3,0c-0.1,0-0.1,0-0.2,0c0,0-0.1,0-0.1-0.1c0,0,0-0.1,0-0.1l0.4-5.2c0,0,0-0.1,0-0.1 c0,0,0.1,0,0.1,0c0,0,0.1,0,0.2,0c0.1,0,0.2,0,0.3,0c0.1,0,0.2,0,0.3,0c0.1,0,0.1,0,0.2,0c0,0,0.1,0,0.1,0.1c0,0,0,0.1,0,0.1l-0.1,2 l2.1,0.1l0.1-2c0,0,0-0.1,0-0.1c0,0,0.1,0,0.1,0c0,0,0.1,0,0.2,0c0.1,0,0.2,0,0.3,0c0.1,0,0.2,0,0.3,0c0.1,0,0.1,0,0.2,0 c0,0,0.1,0,0.1,0.1c0,0,0,0.1,0,0.1L54,19.8L54,19.8z M61.6,21.5C61.6,21.5,61.5,21.6,61.6,21.5c-0.1,0.1-0.1,0.1-0.1,0.1 c0,0-0.1,0-0.2,0c-0.1,0-0.2,0-0.3-0.1c-0.1,0-0.2-0.1-0.2-0.1c-0.1,0-0.1-0.1-0.1-0.1c0,0-0.1,0-0.1-0.1c0,0,0-0.1,0-0.1l1.2-4.4 l0,0l-2.7,4c0,0,0,0.1-0.1,0.1c0,0-0.1,0-0.1,0c0,0-0.1,0-0.2,0c-0.1,0-0.1,0-0.2-0.1c-0.1,0-0.2-0.1-0.2-0.1c-0.1,0-0.1,0-0.2-0.1 c0,0-0.1-0.1-0.1-0.1c0,0,0-0.1,0-0.1l-0.3-4.8l0,0l-1.2,4.4c0,0,0,0.1,0,0.1c0,0-0.1,0-0.1,0c0,0-0.1,0-0.2,0c-0.1,0-0.2,0-0.3-0.1 c-0.1,0-0.2-0.1-0.2-0.1c-0.1,0-0.1-0.1-0.2-0.1c0,0-0.1,0-0.1-0.1c0,0,0-0.1,0-0.1l1.3-4.8c0-0.1,0.1-0.2,0.2-0.3 c0.1-0.1,0.2-0.1,0.3,0l0.7,0.2c0.1,0,0.2,0.1,0.3,0.1c0.1,0,0.2,0.1,0.2,0.2c0.1,0.1,0.1,0.1,0.1,0.2c0,0.1,0,0.2,0,0.3l0.3,3.5 l0,0l2.1-2.9c0.1-0.1,0.1-0.2,0.2-0.3c0.1-0.1,0.1-0.1,0.2-0.2c0.1,0,0.1-0.1,0.2-0.1c0.1,0,0.2,0,0.3,0l0.7,0.2 c0.1,0,0.1,0,0.2,0.1c0,0,0.1,0.1,0.1,0.1c0,0,0,0.1,0,0.2c0,0.1,0,0.1,0,0.2L61.6,21.5L61.6,21.5z M66.8,24.1c0,0.1,0,0.2-0.1,0.2 c0,0.1-0.1,0.1-0.1,0.1c0,0-0.1,0-0.2,0c-0.1,0-0.2-0.1-0.3-0.1c-0.1-0.1-0.2-0.1-0.3-0.2c-0.1,0-0.1-0.1-0.2-0.1 c0,0-0.1-0.1-0.1-0.1c0,0,0-0.1,0-0.1l0.2-1.2l-1.9-1l-0.8,0.8c0,0-0.1,0.1-0.1,0.1c0,0-0.1,0-0.1,0c0,0-0.1,0-0.2-0.1 c-0.1,0-0.2-0.1-0.3-0.1c-0.1-0.1-0.2-0.1-0.3-0.2c-0.1,0-0.1-0.1-0.1-0.1c0,0,0-0.1,0-0.1c0,0,0.1-0.1,0.2-0.2l3.8-3.6 c0,0,0.1-0.1,0.1-0.1c0,0,0.1,0,0.1,0c0.1,0,0.1,0,0.2,0.1c0.1,0,0.2,0.1,0.3,0.2c0.2,0.1,0.3,0.1,0.4,0.2c0.1,0,0.2,0.1,0.2,0.1 c0,0,0.1,0.1,0.1,0.1c0,0,0,0.1,0,0.1L66.8,24.1L66.8,24.1z M66.4,19.3L66.4,19.3L64.6,21l1.4,0.7L66.4,19.3L66.4,19.3z M45,81.1 c1.1-0.4,2.2-1.1,3.4-2l-0.1,1.2c-3.1,2.7-3.6,3.4-3.4,4.3c0.1,0.4,0.7,1,1.5,0.9c0.3,0,1.3-0.4,1.7-1.3c0.1,0.1,0.3,0.2,0.4,0.2 c-0.5,1-1.3,1.9-2.4,2.1c-0.9,0.1-1.5-0.2-1.7-1.5c-0.2-1,0.4-2.2,2.1-3.7c-0.6,0.3-1.1,0.4-1.6,0.6L45,81.1L45,81.1z M47.9,87.6v-1 h-0.3v-0.2c0.1,0,0.3,0,0.3-0.2h0.3v1.5H47.9L47.9,87.6z M49.7,86.8c0,0.3-0.1,0.7-0.4,0.8c-0.2,0.1-0.4,0.1-0.6,0v-0.3h0 c0.1,0.1,0.2,0.1,0.3,0c0.1,0,0.2-0.2,0.2-0.3c-0.1,0-0.1,0.1-0.1,0.1c-0.1,0-0.2,0-0.3,0c-0.2-0.1-0.3-0.2-0.3-0.5 c0-0.3,0.2-0.5,0.5-0.5C49.6,86.1,49.7,86.4,49.7,86.8L49.7,86.8z M49.4,86.7c0-0.2,0-0.4-0.2-0.4c-0.1,0-0.2,0.1-0.2,0.3 c0,0.2,0.1,0.2,0.2,0.2C49.3,86.8,49.3,86.8,49.4,86.7C49.4,86.8,49.4,86.8,49.4,86.7L49.4,86.7z M51,87.1c0,0.3-0.2,0.5-0.5,0.5 c-0.2,0-0.4-0.1-0.5-0.4c0-0.1,0-0.2,0-0.3c0-0.5,0.3-0.8,0.7-0.8c0.1,0,0.2,0,0.2,0v0.3h0c-0.1,0-0.1,0-0.2,0 c-0.2,0-0.4,0.1-0.4,0.4c0,0,0.1-0.1,0.1-0.1c0.1,0,0.1,0,0.2,0c0.1,0,0.2,0,0.3,0.1C51,86.8,51,86.9,51,87.1L51,87.1z M50.7,87.1 c0-0.2-0.1-0.2-0.2-0.2c-0.1,0-0.1,0-0.2,0c0,0.1,0,0.2,0,0.3c0,0.1,0.1,0.2,0.2,0.2C50.6,87.4,50.7,87.2,50.7,87.1L50.7,87.1z  M52.3,86.9c0,0.4-0.1,0.8-0.5,0.8c-0.4,0-0.5-0.3-0.5-0.8c0-0.4,0.1-0.8,0.5-0.8C52.2,86.1,52.3,86.4,52.3,86.9L52.3,86.9z  M52,86.9c0-0.2,0-0.5-0.2-0.5c-0.2,0-0.2,0.3-0.2,0.5c0,0.2,0,0.5,0.2,0.5C52,87.4,52,87,52,86.9L52,86.9z M47.4,83.6l0.3-0.8 c1,0.8,2.2,1.5,3.5,1c0.1,0.2,0.1,0.4,0.2,0.6C50,85.1,48.6,84.6,47.4,83.6L47.4,83.6z M48.5,83.2c0.2-0.9,0.1-1.9,0.4-2.9 c0.2-0.5,0.6-0.9,1.1-1c0.5,0,1.3,0.5,1.4,1c0.1,1.1,0.2,2.4,0.5,3.5c0.2,0.8,1,1.9,1.9,1.9c1,0.1,1.8-0.8,1.7-1.8 c0-1-0.5-1.9-1.1-2.6c-0.4-0.5-1.1-0.8-1.7-1.2c0.1,0.8,0.1,1.5,0.1,2.1c-0.1,0.8-0.4,1.3-0.7,1.8c-0.1-0.3-0.2-0.5-0.2-0.7 c0.6-1,0.8-2-0.2-3.4l0.1-1.1c1.2,0.2,2.4,0.9,3.2,1.9c0.7,0.9,1.1,2,1,3.3c-0.1,1.9-1.4,2.9-2.6,2.6c-1-0.2-1.6-1.5-1.9-2.4 c-0.4-1.1-0.5-2.3-0.6-3.5c0-0.3-0.6-0.5-0.9-0.5c-0.3,0-0.7,0.2-0.8,0.5c-0.2,0.7-0.1,2-0.2,2.8C48.8,83.3,48.6,83.2,48.5,83.2 L48.5,83.2z M49.4,60.7c0,0.5-0.2,1.5-0.8,1.6l-7,0.5L38.7,59c0.5-0.8,0.5-2.2-0.2-2.9l0.8,0l-0.4-0.5c0.2,0.1,0.5,0.1,0.7,0.1 l-0.5-0.6c0.1,0,0.4,0.1,0.8,0.3l-0.6-0.8c0.3,0.1,0.6,0.3,1,0.5l-0.8-0.9c0.3,0.2,0.8,0.5,1.2,0.7l-1.1-1.3c0.9,0.7,2.3,1.8,3.3,2 l1.4,0.4l4.8,3.5C49.3,59.8,49.4,60.4,49.4,60.7L49.4,60.7z M50.6,60.7c0-0.3,0.1-0.9,0.3-1l4.8-3.5l1.4-0.4c1-0.2,2.4-1.4,3.3-2 L59.3,55c0.4-0.3,0.9-0.6,1.2-0.7l-0.8,0.9c0.4-0.2,0.7-0.3,1-0.5l-0.6,0.8c0.4-0.1,0.7-0.2,0.8-0.3l-0.5,0.6c0.2,0,0.5-0.1,0.7-0.1 l-0.4,0.5l0.8,0c-0.6,0.8-0.7,2.1-0.2,2.9l-2.9,3.7l-7-0.5C50.7,62.2,50.6,61.2,50.6,60.7L50.6,60.7z M50,43.3c3.7,0,6.7,3,6.7,6.7 c0,3.7-3,6.7-6.7,6.7c-3.7,0-6.7-3-6.7-6.7C43.3,46.3,46.3,43.3,50,43.3L50,43.3z M52.8,69.9l-0.5-3.7c0.4-0.1,0.7-0.1,1-0.2 l0.8,3.7l-0.5,0.9L52.8,69.9L52.8,69.9z M57.5,31.3l-1.4,3.5c-0.3-0.1-0.7-0.3-1-0.4l1.2-3.6l0.9-0.5L57.5,31.3L57.5,31.3z M36.6,65 l2.5-2.8c0.3,0.2,0.5,0.5,0.8,0.7l-2.3,3l-1,0.2L36.6,65L36.6,65z M36.5,69.3l0-1.3l3.7-4.9c0.3,0.2,0.6,0.4,0.9,0.6l-3.3,5.1 L36.5,69.3L36.5,69.3z M62.3,31.2l1.2-0.5l0,1.3l-3.7,4.9c-0.3-0.2-0.6-0.4-0.9-0.6L62.3,31.2L62.3,31.2z M62.4,34.2l1-0.2l0,1.1 l-2.5,2.8c-0.3-0.2-0.5-0.5-0.8-0.7L62.4,34.2L62.4,34.2z M36.5,73.4l0-1.7l4.9-7.8c0.3,0.2,0.6,0.4,0.9,0.5L38,72.6L36.5,73.4 L36.5,73.4z M62,27.4l1.5-0.9l0,1.7l-4.9,7.8c-0.3-0.2-0.6-0.4-0.9-0.5L62,27.4L62,27.4z M60.1,30l-2.8,5.4c-0.3-0.2-0.6-0.3-1-0.5 l2.4-5.6l1.1-0.7L60.1,30L60.1,30z M40.1,71.3L39.9,70l2.8-5.4c0.3,0.2,0.6,0.3,1,0.5l-2.4,5.6L40.1,71.3L40.1,71.3z M55.7,31.2 l-1,3.1c-0.3-0.1-0.7-0.2-1-0.3l0.7-3.2l0.5,0.8L55.7,31.2L55.7,31.2z M45.6,69.1l-0.5-0.8l-0.8,0.5l1-3.1c0.3,0.1,0.7,0.2,1,0.3 L45.6,69.1L45.6,69.1z M43.8,69.1l-0.9,0.5l-0.3-1l1.4-3.5c0.3,0.1,0.7,0.3,1,0.4L43.8,69.1L43.8,69.1z M65.8,37.6l-3,2.3 c-0.2-0.3-0.4-0.6-0.7-0.8l2.8-2.5l1.1,0L65.8,37.6L65.8,37.6z M30.9,56.2l3.6-1.2c0.1,0.3,0.2,0.7,0.4,1l-3.5,1.4l-1-0.3L30.9,56.2 L30.9,56.2z M28.7,59.9l0.7-1.1l5.6-2.4c0.1,0.3,0.3,0.6,0.5,1L30,60.1L28.7,59.9L28.7,59.9z M70,39.9l1.3,0.2l-0.7,1.1L65,43.6 c-0.1-0.3-0.3-0.6-0.5-1L70,39.9L70,39.9z M68.7,42.5l1,0.3l-0.5,0.9l-3.6,1.2c-0.1-0.3-0.2-0.7-0.4-1L68.7,42.5L68.7,42.5z  M26.6,63.5l0.9-1.5l8.2-4.3c0.2,0.3,0.3,0.6,0.5,0.9l-7.8,4.9L26.6,63.5L26.6,63.5z M71.7,36.5l1.7,0L72.6,38l-8.2,4.3 c-0.2-0.3-0.3-0.6-0.5-0.9L71.7,36.5L71.7,36.5z M68.8,37.7l-5.1,3.3c-0.2-0.3-0.4-0.6-0.6-0.9l4.9-3.7l1.3,0L68.8,37.7L68.8,37.7z  M30.7,63.5l0.5-1.2l5.1-3.3c0.2,0.3,0.4,0.6,0.6,0.9l-4.9,3.7L30.7,63.5L30.7,63.5z M64.3,36.6l-2.4,2.2c-0.2-0.3-0.5-0.5-0.8-0.8 l2.3-2.4l0,0.9L64.3,36.6L64.3,36.6z M36.6,64.3l0-0.9l-0.9,0l2.4-2.2c0.2,0.3,0.5,0.5,0.8,0.8L36.6,64.3L36.6,64.3z M35,63.4 l-1.1,0l0.2-1l3-2.3c0.2,0.3,0.4,0.6,0.7,0.8L35,63.4L35,63.4z M69.9,47.2l-3.7,0.5c-0.1-0.4-0.1-0.7-0.2-1l3.7-0.8l0.9,0.5 L69.9,47.2L69.9,47.2z M30.3,45.9l3.7,0.8c-0.1,0.3-0.1,0.7-0.2,1l-3.7-0.5l-0.7-0.8L30.3,45.9L30.3,45.9z M26.6,48l1.2-0.6l6,0.7 c0,0.4-0.1,0.7-0.1,1.1l-6.1-0.3L26.6,48L26.6,48z M72.4,51.2l1,0.8l-1.2,0.6l-6-0.7c0-0.4,0.1-0.7,0.1-1.1L72.4,51.2L72.4,51.2z  M69.9,52.8l0.7,0.8l-0.9,0.5L66,53.4c0.1-0.3,0.1-0.7,0.2-1L69.9,52.8L69.9,52.8z M22.9,50l1.5-0.8l9.2,0.3c0,0.2,0,0.3,0,0.5 c0,0.2,0,0.4,0,0.5l-9.2,0.3L22.9,50L22.9,50z M75.6,49.1l1.5,0.9l-1.5,0.8l-9.2-0.3c0-0.2,0-0.3,0-0.5c0-0.2,0-0.4,0-0.5L75.6,49.1 L75.6,49.1z M72.4,48.8l-6.1,0.3c0-0.4-0.1-0.7-0.1-1.1l6-0.7l1.2,0.6L72.4,48.8L72.4,48.8z M26.6,52l1-0.8l6.1-0.3 c0,0.4,0.1,0.7,0.1,1.1l-6,0.7L26.6,52L26.6,52z M69.1,45.5l-3.2,0.7c-0.1-0.3-0.2-0.7-0.3-1l3.1-1l-0.5,0.8L69.1,45.5L69.1,45.5z  M31.2,55.7l0.5-0.8l-0.8-0.4l3.2-0.7c0.1,0.3,0.2,0.7,0.3,1L31.2,55.7L31.2,55.7z M30.3,54.1l-0.9-0.5l0.7-0.8l3.7-0.5 c0.1,0.4,0.1,0.7,0.2,1L30.3,54.1L30.3,54.1z M68.7,57.5l-3.5-1.4c0.1-0.3,0.3-0.7,0.4-1l3.6,1.2l0.5,0.9L68.7,57.5L68.7,57.5z  M35,36.6l2.8,2.5c-0.2,0.3-0.5,0.5-0.7,0.8l-3-2.3l-0.2-1L35,36.6L35,36.6z M30.7,36.5l1.3,0l4.9,3.7c-0.2,0.3-0.4,0.6-0.6,0.9 l-5.1-3.3L30.7,36.5L30.7,36.5z M68.8,62.3l0.5,1.2l-1.3,0l-4.9-3.7c0.2-0.3,0.4-0.6,0.6-0.9L68.8,62.3L68.8,62.3z M65.8,62.4l0.2,1 l-1.1,0l-2.8-2.5c0.2-0.3,0.5-0.5,0.7-0.8L65.8,62.4L65.8,62.4z M26.6,36.5l1.7,0l7.8,4.9c-0.2,0.3-0.4,0.6-0.5,0.9L27.4,38 L26.6,36.5L26.6,36.5z M72.6,62l0.9,1.5l-1.7,0l-7.8-4.9c0.2-0.3,0.4-0.6,0.5-0.9L72.6,62L72.6,62z M70,60.1l-5.4-2.8 c0.2-0.3,0.3-0.6,0.5-1l5.6,2.4l0.7,1.1L70,60.1L70,60.1z M28.7,40.1l1.3-0.2l5.4,2.8c-0.2,0.3-0.3,0.6-0.5,1l-5.6-2.4L28.7,40.1 L28.7,40.1z M68.8,55.7l-3.1-1c0.1-0.3,0.2-0.7,0.3-1l3.2,0.7l-0.8,0.5L68.8,55.7L68.8,55.7z M30.9,45.6l0.8-0.5l-0.5-0.8l3.1,1 c-0.1,0.3-0.2,0.7-0.3,1L30.9,45.6L30.9,45.6z M30.9,43.8l-0.5-0.9l1-0.3l3.5,1.4c-0.1,0.3-0.3,0.7-0.4,1L30.9,43.8L30.9,43.8z  M62.4,65.8l-2.3-3c0.3-0.2,0.6-0.4,0.8-0.7l2.5,2.8l0,1.1L62.4,65.8L62.4,65.8z M43.8,30.9l1.2,3.6c-0.3,0.1-0.7,0.2-1,0.4 l-1.4-3.5l0.3-1L43.8,30.9L43.8,30.9z M40.1,28.7l1.1,0.7l2.4,5.6c-0.3,0.1-0.6,0.3-1,0.5L39.9,30L40.1,28.7L40.1,28.7z M60.1,70 l-0.2,1.3l-1.1-0.7L56.4,65c0.3-0.1,0.6-0.3,1-0.5L60.1,70L60.1,70z M57.5,68.7l-0.3,1l-0.9-0.5l-1.2-3.6c0.3-0.1,0.7-0.2,1-0.4 L57.5,68.7L57.5,68.7z M36.5,26.6l1.5,0.9l4.3,8.2c-0.3,0.2-0.6,0.3-0.9,0.5l-4.9-7.8L36.5,26.6L36.5,26.6z M63.5,71.7l0,1.7 L62,72.6l-4.3-8.2c0.3-0.2,0.6-0.3,0.9-0.5L63.5,71.7L63.5,71.7z M62.3,68.8l-3.3-5.1c0.3-0.2,0.6-0.4,0.9-0.6l3.7,4.9l0,1.3 L62.3,68.8L62.3,68.8z M36.5,30.7l1.2,0.5l3.3,5.1c-0.3,0.2-0.6,0.4-0.9,0.6l-3.7-4.9L36.5,30.7L36.5,30.7z M63.4,64.3l-2.2-2.4 c0.3-0.2,0.5-0.5,0.8-0.8l2.4,2.3l-0.9,0L63.4,64.3L63.4,64.3z M35.7,36.6l0.9,0l0-0.9l2.2,2.4c-0.3,0.2-0.5,0.5-0.8,0.8L35.7,36.6 L35.7,36.6z M36.6,35l0-1.1l1,0.2l2.3,3c-0.3,0.2-0.6,0.4-0.8,0.7L36.6,35L36.6,35z M54.1,30.3L53.4,34c-0.3-0.1-0.7-0.1-1-0.2 l0.5-3.7l0.8-0.7L54.1,30.3L54.1,30.3z M52,26.6l0.6,1.2l-0.7,6c-0.4,0-0.7-0.1-1.1-0.1l0.3-6.1L52,26.6L52,26.6z M48.8,72.4l-0.8,1 l-0.6-1.2l0.7-6c0.4,0,0.7,0.1,1.1,0.1L48.8,72.4L48.8,72.4z M47.2,69.9l-0.8,0.7l-0.5-0.9l0.8-3.7c0.3,0.1,0.7,0.1,1,0.2L47.2,69.9 L47.2,69.9z M50,22.9l0.8,1.5l-0.3,9.2c-0.2,0-0.3,0-0.5,0c-0.2,0-0.4,0-0.5,0l-0.3-9.2L50,22.9L50,22.9z M50.9,75.6L50,77.1 l-0.8-1.5l0.3-9.2c0.2,0,0.3,0,0.5,0c0.2,0,0.4,0,0.5,0L50.9,75.6L50.9,75.6z M51.2,72.4l-0.3-6.1c0.4,0,0.7-0.1,1.1-0.1l0.7,6 L52,73.4L51.2,72.4L51.2,72.4z M48,26.6l0.8,1l0.3,6.1c-0.4,0-0.7,0.1-1.1,0.1l-0.7-6L48,26.6L48,26.6z M54.5,69.1l-0.7-3.2 c0.3-0.1,0.7-0.2,1-0.3l1,3.1l-0.8-0.5L54.5,69.1L54.5,69.1z M44.3,31.2l0.8,0.5l0.4-0.8l0.7,3.2c-0.3,0.1-0.7,0.2-1,0.3L44.3,31.2 L44.3,31.2z M45.9,30.3l0.5-0.9l0.8,0.7l0.5,3.7c-0.4,0.1-0.7,0.1-1,0.2L45.9,30.3L45.9,30.3z"/>
	<path fill="#FFFFFF" d="M50,12.1c20.9,0,37.9,17,37.9,37.9S70.9,87.9,50,87.9S12.1,70.9,12.1,50S29.1,12.1,50,12.1L50,12.1z M60.7,41.5 c-0.1-0.2-0.3-0.4-0.5-0.5c0-0.2,0.3-0.3,0.4-0.3c0.3,0.2,0.4,0.5,0.6,0.8c-0.2,0.2-0.5,0.3-0.6,0.3c-0.3,0-0.5-0.1-0.9-0.2l0.1-0.2 C60.1,41.5,60.5,41.7,60.7,41.5L60.7,41.5z M37.1,42.5c0.2-0.1,0.5,0.1,0.6,0.5c-0.1-0.1-0.3-0.2-0.4-0.2c-0.2,0-0.3,0.4-0.2,0.7 c0.1,0.4,0.3,0.6,0.6,0.6c0.1,0,0.2-0.1,0.2-0.2c0,0.3-0.2,0.5-0.4,0.5c-0.3,0.1-0.6-0.3-0.8-0.8C36.7,43.1,36.8,42.6,37.1,42.5 L37.1,42.5z M38.1,45.4l0-0.1c0-0.4,0-1.3-0.2-1.6c-0.2,0.1-0.6-0.1-0.6-0.2c0-0.2,0.1-0.4,0.2-0.4c0.2,0,0.4,0.1,0.5,0.3 c0,0,0,0,0.1,0c0.1,0,0.1,0.1,0.1,0.1c0,0-0.1,0-0.1,0c0,0.1,0,0.1,0.1,0.2C38.2,44.2,38.3,44.6,38.1,45.4L38.1,45.4z M37.5,43.4 c0,0,0-0.1,0.1-0.1c0.1,0,0.1,0.2,0.2,0.2C37.7,43.5,37.5,43.5,37.5,43.4L37.5,43.4z M52.2,36.6l0.1-0.1c0.4,0,1.3-0.2,1.5-0.4 c-0.2-0.2,0-0.6,0.1-0.6c0.2,0,0.4,0.1,0.4,0.2c0.1,0.2-0.1,0.4-0.3,0.5c0,0,0,0,0,0.1c0,0.1-0.1,0.1-0.1,0.1c0,0,0-0.1,0-0.1 c-0.1,0-0.1,0.1-0.2,0.1C53.4,36.6,53,36.7,52.2,36.6L52.2,36.6z M54.1,35.7c0,0,0.1,0,0.1,0.1c0,0.1-0.1,0.2-0.2,0.2 C54,36,54,35.8,54.1,35.7L54.1,35.7z M54.8,38.6c0.1-0.2,0-0.4,0-0.6l0.2,0l0.1,0.1c0,0.2,0,0.4-0.1,0.6c-0.1,0.2-0.7,0.7-1,0.7 C54.3,39.2,54.7,38.8,54.8,38.6L54.8,38.6z M38.3,46.8c-0.2-0.1-0.6-0.6-0.8-0.7c-0.5-0.3-0.7-0.4-1.2-0.4l-0.1-0.2l0.1-0.1 c0.1,0,0.6,0.2,1,0.3c0.2,0.1,0.4,0.3,0.5,0.4c0.1,0,0.1-0.1,0.3-0.2c0.3-0.1,0.6,0.3,0.6,0.5C38.8,46.7,38.6,46.9,38.3,46.8 L38.3,46.8z M38.4,46.5c-0.1,0.1-0.3-0.1-0.4-0.2c0.1,0,0.2-0.1,0.3-0.1C38.4,46.2,38.5,46.4,38.4,46.5L38.4,46.5z M58.4,41.3 c0.1-0.2,0.7-0.4,0.9-0.6c0.4-0.4,0.5-0.6,0.7-1.1l0.3-0.1l0.1,0.1c-0.1,0.1-0.3,0.6-0.6,0.9c-0.1,0.2-0.3,0.3-0.5,0.4 c0,0.1,0.1,0.2,0.1,0.3c0,0.3-0.4,0.5-0.6,0.5C58.4,41.8,58.2,41.6,58.4,41.3L58.4,41.3z M58.7,41.5c-0.1-0.2,0.2-0.3,0.3-0.3 c0,0.1,0.1,0.2,0,0.3C58.9,41.5,58.7,41.7,58.7,41.5L58.7,41.5z M55,36.8c0.1-0.5,0.9-0.7,1.4-0.7l-0.1,0.2c-0.6,0-0.9,0.2-1,0.6 c0,0.2,0.1,0.2,0.2,0.2l0.2,0c-0.1,0.1-0.1,0.1-0.2,0.2C55.2,37.3,54.9,37.2,55,36.8L55,36.8z M61.8,46.2c0.4-0.4,1.1,0,1.5,0.3 l-0.2,0.1c-0.5-0.4-0.8-0.3-1.2-0.1c-0.1,0.1,0,0.2,0.1,0.3l0.2,0.1c-0.1,0-0.2,0-0.3,0C61.6,46.7,61.5,46.5,61.8,46.2L61.8,46.2z  M57.4,47.5c0.5-0.3,1.1,0.2,1.4,0.6l-0.2,0c-0.4-0.5-0.7-0.5-1.1-0.4c-0.1,0.1-0.1,0.2,0,0.3l0.2,0.2c-0.1,0-0.2,0-0.3-0.1 C57.1,47.9,57,47.7,57.4,47.5L57.4,47.5z M40.3,43.5c-0.5-0.1-0.7-0.8-0.8-1.3l0.2,0.1c0,0.6,0.3,0.8,0.7,1c0.2,0,0.2-0.1,0.2-0.2 l0-0.2c0.1,0.1,0.1,0.1,0.2,0.2C40.8,43.4,40.8,43.6,40.3,43.5L40.3,43.5z M49,36.2c-0.1,0-0.2-0.1-0.2-0.3c0-0.2,0.1-0.3,0.1-0.5 l0.1,0c0,0.1,0,0.3,0,0.4c0,0,0,0.1,0.1,0.1c0.1,0,0.1,0,0.2-0.1c0-0.1,0-0.2,0-0.4c0,0,0.1,0,0.1-0.1c0,0.2,0,0.3,0,0.4 c0,0.1,0.1,0.1,0.1,0.1c0.1,0,0.1-0.1,0.1-0.1c0-0.2,0-0.2-0.1-0.4l0.1-0.1c0.1,0.2,0.2,0.4,0.2,0.6c0,0.1-0.1,0.3-0.2,0.3 c-0.1,0-0.2-0.1-0.3-0.2C49.2,36,49.1,36.2,49,36.2L49,36.2z M62.3,44.9l0,0.1c0,0.2-0.3,0.3-0.5,0.4c-0.3,0-0.4-0.1-0.6-0.4 c0.1-0.1,0.3-0.3,0.5-0.3C61.8,44.6,62.1,44.8,62.3,44.9L62.3,44.9z M61.4,45.1c0.1-0.1,0.2-0.1,0.3-0.2c0.1,0,0.2,0.1,0.3,0.2 c-0.1,0.1-0.2,0.1-0.2,0.2C61.7,45.2,61.6,45.2,61.4,45.1L61.4,45.1z M40.7,39.3l0.1,0c0.2,0,0.4,0.1,0.6,0.3 c0.1,0.3,0.1,0.4-0.1,0.7c-0.2-0.1-0.4-0.2-0.5-0.3C40.7,39.8,40.7,39.5,40.7,39.3L40.7,39.3z M41.3,40c-0.1,0-0.2-0.1-0.3-0.2 c-0.1-0.1,0-0.3,0-0.4c0.1,0,0.2,0.1,0.3,0.1C41.3,39.7,41.3,39.8,41.3,40L41.3,40z M52.3,41.9l0,0.1c0,0.2-0.2,0.4-0.3,0.5 c-0.3,0.1-0.4,0.1-0.7-0.2c0.1-0.2,0.2-0.3,0.3-0.5C51.8,41.8,52.1,41.9,52.3,41.9L52.3,41.9z M51.6,42.4c0-0.1,0.1-0.2,0.2-0.2 c0.1-0.1,0.3,0,0.4,0c0,0.1-0.1,0.2-0.2,0.2C51.9,42.5,51.7,42.4,51.6,42.4L51.6,42.4z M57.6,36.8l0,0.1c0,0.2-0.2,0.4-0.3,0.5 c-0.3,0.1-0.4,0.1-0.7-0.2c0.1-0.2,0.2-0.3,0.3-0.5C57.1,36.7,57.4,36.8,57.6,36.8L57.6,36.8z M56.9,37.2c0-0.1,0.1-0.2,0.2-0.2 c0.1-0.1,0.3,0,0.4,0c0,0.1-0.1,0.2-0.2,0.2C57.1,37.3,57,37.3,56.9,37.2L56.9,37.2z M45.6,35.2l0.1,0.1c0.2,0.1,0.3,0.4,0.3,0.5 c-0.1,0.3-0.2,0.4-0.5,0.6c-0.1-0.1-0.2-0.3-0.2-0.5C45.3,35.7,45.5,35.4,45.6,35.2L45.6,35.2z M45.7,36.1c-0.1-0.1-0.1-0.2-0.1-0.3 c0-0.1,0.1-0.2,0.2-0.3c0.1,0.1,0.1,0.2,0.1,0.3C45.9,35.9,45.8,36,45.7,36.1L45.7,36.1z M56,39.2c-0.2,0-0.2-0.1-0.2-0.2 c0-0.1,0.1-0.3,0.2-0.3c0.2,0,0.3,0.2,0.3,0.3c0,0.2,0,0.6-0.1,0.8l0.9-0.6c0.1,0,0.3-0.1,0.4-0.1L57,39.6l-0.1-0.1l-1,0.7 c-0.1,0-0.1,0-0.3,0C55.9,39.8,56,39.6,56,39.2L56,39.2z M51.4,35.3c-0.2,0-0.2,0-0.3-0.1c-0.1-0.1,0-0.3,0.1-0.3 c0.2-0.1,0.3,0.1,0.4,0.2c0.1,0.2,0.2,0.6,0.1,0.8l0.7-0.8c0.1-0.1,0.2-0.2,0.4-0.2l-0.2,0.5l-0.1-0.1l-0.8,1c0,0.1-0.1,0-0.2,0.1 C51.5,35.9,51.6,35.6,51.4,35.3L51.4,35.3z M39.4,45.4c0,0.2-0.1,0.2-0.2,0.3c-0.1,0-0.3-0.1-0.3-0.2c0-0.2,0.2-0.3,0.3-0.3 c0.2,0,0.6,0,0.8,0.1l-0.6-0.8c-0.1-0.1-0.1-0.3-0.1-0.4l0.4,0.3l-0.1,0.1l0.7,1c0,0.1,0,0.1,0,0.3C40,45.4,39.7,45.3,39.4,45.4 L39.4,45.4z M47.8,35.6l0.5,0.3L48,36.4l-0.5-0.3L47.8,35.6L47.8,35.6z M61.2,42.2l0.5,0l0,0.5l-0.5,0L61.2,42.2L61.2,42.2z  M57.9,40.6l0.5,0l0,0.5l-0.5,0L57.9,40.6L57.9,40.6z M57.4,40l0.5,0l0,0.5l-0.5,0L57.4,40L57.4,40z M49.2,42.4l0.1-0.3l1.4-0.7 l0.1,0.1l-0.2,0.4L49.2,42.4L49.2,42.4z M42.6,45.6l0.5,0l0,0.5l-0.5,0L42.6,45.6L42.6,45.6z M42.3,46.4l0.5-0.1l0.1,0.5l-0.5,0.1 L42.3,46.4L42.3,46.4z M55,37.7l0.3-0.2l4.8,1.2l0.1,0.1L59.9,39L55,37.7L55,37.7z M61.8,44.2l0.3,0l2.2,1.9l0,0.1l-0.4,0L61.8,44.2 L61.8,44.2z M61.3,41.7l0.3,0l1.7,1.1l0,0.1l-0.4,0L61.3,41.7L61.3,41.7z M39.9,40.3L39.7,40l0.2-1.5l0.1,0l0.2,0.4L39.9,40.3 L39.9,40.3z M43.3,44.4l-0.2-0.3l0.2-1.3l0.1,0l0.2,0.3L43.3,44.4L43.3,44.4z M40.4,47L40.4,47c0.3,0.3,0.6,1.1,1.1,1.2 c1,0.1-0.1-1.5-0.1-1.9c0-0.3,0.1-0.6,0.2-0.9c-0.3-0.1-0.5-0.2-0.7-0.4c-0.2-0.2-0.3-0.5-0.1-1.1c0.1-0.5,0.9,0.1,1.3-0.1 c-0.1-0.3-0.2-0.7-0.9-1.1l-2.8-2l0-0.3l0.3,0.1l2.8,1.9c0.1,0.1,0.6,0,0.9-0.2c-0.4,0-0.6-0.2-0.8-0.4c-0.6-0.5,0-1.7,0.8-1.7 c-0.4,0.4-1.1,1-0.6,1.6c0.1,0.2,0.6,0.3,0.8,0.1c0.5-0.3,0.6-0.8,0.6-1.5c0.5,0.9,0.5,1.3-0.1,2.1c-0.3,0.4-0.7,0.6-1,0.6 c0.7,0.7,0.8,2.1,1.4,2c0.4-0.1,0.3-0.4,0.4-1.2c0-0.2,0.4-1.2,0.7-1.6c-0.2-0.3-0.5-1.5-0.8-1.9l-2.2-2.6c0-0.1,0-0.3,0-0.4 c0.1,0,0.1,0,0.1,0c0,0.1,0,0.1,0.1,0.1l2,2.2c0.2,0.2,0.6,0.1,0.9-0.1c0-0.2,0-0.5,0.1-0.6c-0.4,0.1-0.9,0.2-1.2-0.1 c-0.8-0.7,0-1.7,1-1.9c-0.6,0.4-1.3,1.4-0.7,1.6c0.4,0.2,0.7,0,1-0.2c0-0.1,0.4-1.2,0.5-1.3c0.1,0.1,0.1,0.2,0.2,0.3 c-0.1,0.3-0.5,1.8-0.4,2.1c0.2,0,1.1-0.6,1.8-0.8c0.9-0.3,1.4,0.3,1.4,0.9c0.1-0.2,0.4-0.5,0.6-0.6c-0.3-0.3-0.8-0.6-1.1-0.9 l-1.9,0.6l-0.3-0.1c0-0.2,0.1-0.5,0.1-0.7c0.3-0.3,0.9-1.4,1.1-1.9c0.3,0.2,0.4,0.3,0.5,0.4c0,0.1,0,0.2,0,0.4 c-0.2-0.1-0.3-0.1-0.4-0.2c-0.3,0.7-0.5,1.3-0.8,1.7l1.4-0.4c-0.1-0.2-0.2-0.3-0.3-0.4c0-0.1,0-0.3,0-0.4c0,0,0.1-0.1,0.2-0.1 l0.7,0.5l-0.2,0l0.2,0.2l2-0.5c0-0.4,0-0.7,0-1.1c0.1-0.2,0.2-0.4,0.4-0.5l0.1,1.6l1.2,0l-1.2,0.4l0,2.5c0.6,0.5,1.6,0.9,2.3,1.2 c0.1-0.4,0.4-0.6,0.7-0.8c-0.8-0.3-2.4-0.8-2.5-1.3c-0.1-1,2.4-1.1,2.8-1.1c0,0,0,0,0.1,0.1c0,0.3-0.1,0.4-0.3,0.6 c-0.1,0-2.7-0.1-2.1,0.5c0.3,0.4,1.9,0.6,2.7,1c0.2-0.1,0.5-0.2,0.6-0.3c-0.1,0.1-0.2,0.2-0.3,0.3c0.7,0.2,1.3,0.6,1.6,1.2 c0.2,0.4-0.1,1.3-0.7,1.1c-0.2-0.1-1.9-0.5-2.1-0.5c0.1,1.2,1.4,1.4,1.9,1.4c0.2-0.4,1-1.1,1.5-1.1c-0.2,0.1-1.1,0.7-1.1,1.1 c0.6,0.1,1.5,0,2-0.5c-0.3-0.4-0.9-0.7-0.7-1.3c0.1-0.5,0.8-0.6,1.1-0.1c0.3,0.4,0,1.3-0.2,1.6c-0.7,0.9-1.5,0.8-2.1,0.8 c0.2,0.5,0.9,0.9,1.5,0.8c0.3-0.4,0.9-0.6,1.4-0.6c0-0.5,0.1-1,0.7-1c0.3,0,0.5-0.1,0.6,0.5c0,0.3-0.3,0.7-0.4,0.8 c0.2,0.3,0.7,0.7,1.2,0.4c-0.3-0.4-0.4-1.2,0.1-1.5c0.3-0.2,0.7-0.2,0.8,0.2c0.2,0.6,0,1-0.6,1.5c-0.8,0.6-1.4,0.3-1.9-0.1 C58.2,44.8,57.4,45,57,45c0,0.4,0.2,0.7,0.8,1.3c0.4,0.4,1.7,0.6,2.2,0.6c-0.1-0.3-0.3-0.9,0-1.2c0.2-0.3,0.8-0.2,1.1,0.1 c0.5,0.5-0.6,1.2-1,1.3c-0.8,0.2-1.9,0.3-2.7-0.4c-0.7-0.6-0.7-1-0.7-1.8c-1.1-0.3-1.6-0.8-1.8-1.4c-1.2,0-1.9-0.8-2.1-2 c-0.3-0.2-1.9-0.7-2.4-1.1c-0.3,0.7-0.9,1.3-1.6,1.7c-0.7,0.4-2.3,0.5-2.9-0.1c-0.6-0.5-1-1.1-1-2c-0.2,0.1-0.3,0.1-0.5,0.1 c0.1,0.2,0.3,0.5,0.4,0.8c0.2,0.5,0.2,0.7,0.5,0.9c0.1,0.1,0.5,0.4,0.7,0.4c0,0.1,0,0.3,0,0.4c-0.4,0-0.6-0.1-0.8-0.3 c-0.2,0.3-0.6,0.7-0.7,1.3c-0.1,0.5,0,1.6-0.8,1.7c-0.5,0.1-0.8-0.6-1.1-1.2c-0.4,0.2-1-0.1-1.1,0.1c-0.2,0.2-0.1,0.4,0,0.5 c0.2,0.1,0.4,0.2,0.6,0.2c0.1-0.1,0.4-0.3,0.5-0.3c0.2,0.2,0.2,0.2,0.3,0.5c-0.5,0.2-0.6,0.6-0.7,1.2c0,0.5,1,1.8,0,2.1 C41.3,48.8,40.6,47.6,40.4,47L40.4,47z M57.4,42.3c-0.1-0.1-0.3-0.2-0.4-0.4c-0.1-0.1-0.1-0.3-0.1-0.4c0.2-0.1,0.4,0,0.5,0.2 C57.5,41.8,57.5,42.1,57.4,42.3L57.4,42.3z M59,43.9c-0.1-0.1-0.2-0.2-0.2-0.3c0-0.1,0-0.3,0.1-0.4c0.2,0,0.2,0.1,0.3,0.2 C59.2,43.6,59.1,43.8,59,43.9L59,43.9z M60.6,44.3c0-0.1-0.1-0.3-0.1-0.6c0-0.1,0-0.4,0.1-0.4c0.2,0,0.3,0.2,0.3,0.4 C60.9,43.9,60.8,44.2,60.6,44.3L60.6,44.3z M60.3,46.7c0-0.1-0.1-0.3-0.1-0.5c0-0.1,0-0.3,0.1-0.4c0.2,0,0.3,0.2,0.3,0.4 C60.6,46.4,60.5,46.6,60.3,46.7L60.3,46.7z M57.2,44.5c0-0.2,0.9-0.5,1.1-0.5c0,0.1,0.1,0.2,0.2,0.3C58.1,44.3,57.5,44.5,57.2,44.5 L57.2,44.5z M53.2,41.1c0.1-0.2,0.4-0.6,0.7-0.9c0.7,0,2,0.9,1.4,1.4C55.1,41.7,53.5,41.3,53.2,41.1L53.2,41.1z M48.3,40.1 c0.3-0.3,0.6-0.7,0.9-1l0.1-0.3c-0.1-0.4-0.7-0.7-1-0.9l1.7-0.4l0,2.3c0,0.8-1.5,2-2.3,2.3C48.2,41.6,48.3,40.8,48.3,40.1L48.3,40.1 z M45,40c0.5-0.1,1.1-0.5,1.5-0.8c-0.3,0.8-0.4,1.9-0.1,2.7C45.4,42,45.1,40.9,45,40L45,40z M46.8,40.2c-0.2-0.2-0.2-1,0.4-1.2 c0.5-0.1,0.7,0.3,0.7,0.7C47.7,39.9,47.1,40.6,46.8,40.2L46.8,40.2z M47,42c-0.4,0-0.6-1-0.5-1.6c0.3,0.4,0.9,0.4,1.3,0.1 C47.8,41.2,47.6,42,47,42L47,42z M48.5,41.1l0-0.3l0.9-1l0.1,0l0,0.4L48.5,41.1L48.5,41.1z M45.5,41.3L45.4,41l0.6-1.2l0.1,0 l0.1,0.4L45.5,41.3L45.5,41.3z M44.9,44.4l-0.1-0.3l0.6-1.3l0.1,0l0.1,0.4L44.9,44.4L44.9,44.4z M44.4,44.3L44.3,44l0.6-1.3l0.1,0 l0.1,0.4L44.4,44.3L44.4,44.3z M38.5,41.9c-0.1,0.2-0.3,0.4-0.4,0.6c-0.2,0.1-0.4-0.2-0.4-0.3c0.2-0.4,0.4-0.5,0.6-0.7 c0.2,0.2,0.4,0.4,0.4,0.6c0.1,0.2,0.1,0.5,0,0.9l-0.2-0.1C38.7,42.6,38.8,42.2,38.5,41.9L38.5,41.9z M41.3,38 c-0.2,0.1-0.4,0.3-0.5,0.4c-0.2,0-0.3-0.3-0.3-0.4c0.3-0.3,0.5-0.4,0.8-0.6c0.2,0.3,0.2,0.5,0.3,0.7c0,0.3-0.1,0.5-0.2,0.9l-0.1-0.1 C41.3,38.6,41.5,38.2,41.3,38L41.3,38z M39.2,55.8c0.9,1.1,1.9,2.2,2.8,3.4c1,0.2,2.1,0.3,3.2,0.4c-1-0.1-2-0.3-3-0.7l-2.5-2.9 C39.6,55.9,39.4,55.8,39.2,55.8L39.2,55.8z M39.4,55.4c1,1.1,1.9,2.2,2.9,3.4c1,0.4,2.2,0.7,3.3,0.8c-1.1-0.1-2.3-0.6-3.2-1.1 L40,55.6C39.8,55.5,39.6,55.4,39.4,55.4L39.4,55.4z M39.6,54.9c1,1.1,1.9,2.2,2.9,3.4c0.8,0.5,2,1,3,1.1c-1-0.2-2.1-0.8-2.8-1.5 l-2.2-2.6C40.1,55.2,39.8,55.1,39.6,54.9L39.6,54.9z M40,54.1l2.9,3.4c0.8,1,2.5,1.9,3.6,2l2.1,0.1l-4.5-3.4L43,55.9 C42.1,55.7,40.8,54.8,40,54.1L40,54.1z M39.8,54.5c1,1.1,1.9,2.2,2.9,3.4c0.9,0.8,2.3,1.5,3.5,1.6c-1.2-0.2-2.3-0.8-3.3-1.8 l-2.1-2.5C40.4,54.9,40.1,54.7,39.8,54.5L39.8,54.5z M61.2,56.2l-0.6,0l-2.6,3c-0.9,0.2-1.7,0.3-2.5,0.3h2.7L61.2,56.2L61.2,56.2z  M60.2,54.5c-0.3,0.2-0.7,0.4-1,0.6l-2.1,2.5c-1,1-2.1,1.7-3.3,1.8c1.2-0.1,2.6-0.8,3.5-1.6C58.3,56.7,59.3,55.6,60.2,54.5 L60.2,54.5z M60,54.1c-0.9,0.7-2.1,1.6-3,1.8l-1.2,0.3l-4.5,3.4l2.1-0.1c1.2,0,2.8-1,3.6-2L60,54.1L60,54.1z M60.4,54.9 c-0.2,0.1-0.5,0.3-0.8,0.4L57.4,58c-0.8,0.7-1.9,1.2-2.8,1.5c1-0.2,2.2-0.6,3-1.1C58.5,57.2,59.5,56,60.4,54.9L60.4,54.9z  M60.6,55.4c-0.2,0.1-0.4,0.1-0.7,0.2l-2.4,2.8c-0.9,0.5-2.1,1-3.2,1.1c1.1-0.1,2.4-0.4,3.3-0.8C58.7,57.6,59.7,56.5,60.6,55.4 L60.6,55.4z M60.8,55.8c-0.2,0-0.4,0.1-0.5,0.1l-2.5,2.9c-1,0.4-2,0.6-3,0.7c1.1,0,2.2-0.2,3.2-0.4C58.9,58,59.9,56.9,60.8,55.8 L60.8,55.8z M38.8,56.2l3,3.3h2.7c-0.8-0.1-1.6-0.1-2.5-0.3l-2.6-3L38.8,56.2L38.8,56.2z M39.1,57.1l2.8,3.1 c0.2,0.8,0.1,1.6-0.2,2.2L38.9,59C39.2,58.3,39.2,57.7,39.1,57.1L39.1,57.1z M42.1,60.4l6.2-0.1c0.4,0,0.5,1.1,0.2,1.8l-6.6,0.4 C42.2,61.8,42.2,61.1,42.1,60.4L42.1,60.4z M51.5,62c-0.3-0.7-0.1-1.8,0.2-1.8l6.2,0.1c-0.2,0.8-0.1,1.4,0.2,2.1L51.5,62L51.5,62z  M58.1,60.2l2.8-3.1c-0.1,0.6,0,1.1,0.2,1.8l-2.8,3.5C58,61.8,57.9,61,58.1,60.2L58.1,60.2z M42.9,79.7c-0.8,1.3-1.6,2.6-2.4,3.9 c-1.2,0.4-2.6,0.5-3.9,0.3c-6.1-1.2-12.8-6.7-16.8-11.2c3.3,2.8,7.7,6.4,12.2,8.6c-4.4-2.4-8.2-6.6-11-10.1c4,4.5,9,9.1,15,10.5 c-0.3-0.1-0.7-0.2-1-0.3c-5.6-2.1-10.3-7.6-13.6-11.9c3.1,3.7,8.4,9,13.7,11c0.4,0.1,0.8,0.3,1.2,0.4c-5.9-2.4-10.3-7.9-13.9-12.9 c3.1,3.9,8.4,9.5,13.7,11.8c0.3,0.1,0.7,0.3,1,0.4c0,0,0,0,0,0c-0.6-0.5-1.5-0.9-2.2-1.4c-5-2.6-9.7-8.6-12.1-13.9 c3.9,7.3,12.6,15.6,19.4,13.8L42.9,79.7L42.9,79.7z M57.1,79.7l0.6-1.1c6.8,1.9,15.4-6.5,19.4-13.8c-2.4,5.3-7.1,11.3-12.1,13.9 c-0.8,0.4-1.6,0.9-2.2,1.4c0,0,0,0,0,0c0.3-0.1,0.7-0.2,1-0.4c5.4-2.3,10.6-7.9,13.7-11.8c-3.6,5-8,10.5-13.9,12.9 c0.4-0.1,0.8-0.2,1.2-0.4c5.4-2,10.6-7.3,13.7-11c-3.3,4.3-8,9.9-13.6,11.9c-0.3,0.1-0.7,0.2-1,0.3c6-1.4,11-6,15-10.5 c-2.8,3.5-6.5,7.7-11,10.1c4.5-2.2,9-5.8,12.2-8.6c-4,4.5-10.7,10-16.8,11.2c-1.3,0.3-2.6,0.1-3.9-0.3C58.7,82.3,57.9,81,57.1,79.7 L57.1,79.7z M45,81.1c1.1-0.4,2.2-1.1,3.4-2l-0.1,1.2c-3.1,2.7-3.6,3.4-3.4,4.3c0.1,0.4,0.7,1,1.5,0.9c0.3,0,1.3-0.4,1.7-1.3 c0.1,0.1,0.3,0.2,0.4,0.2c-0.5,1-1.3,1.9-2.4,2.1c-0.9,0.1-1.5-0.2-1.7-1.5c-0.2-1,0.4-2.2,2.1-3.7c-0.6,0.3-1.1,0.4-1.6,0.6 L45,81.1L45,81.1z M47.9,87.6v-1h-0.3v-0.2c0.1,0,0.3,0,0.3-0.2h0.3v1.5H47.9L47.9,87.6z M49.7,86.8c0,0.3-0.1,0.7-0.4,0.8 c-0.2,0.1-0.4,0.1-0.6,0v-0.3h0c0.1,0.1,0.2,0.1,0.3,0c0.1,0,0.2-0.2,0.2-0.3c-0.1,0-0.1,0.1-0.1,0.1c-0.1,0-0.2,0-0.3,0 c-0.2-0.1-0.3-0.2-0.3-0.5c0-0.3,0.2-0.5,0.5-0.5C49.6,86.1,49.7,86.4,49.7,86.8L49.7,86.8z M49.4,86.7c0-0.2,0-0.4-0.2-0.4 c-0.1,0-0.2,0.1-0.2,0.3c0,0.2,0.1,0.2,0.2,0.2C49.3,86.8,49.3,86.8,49.4,86.7C49.4,86.8,49.4,86.8,49.4,86.7L49.4,86.7z M51,87.1 c0,0.3-0.2,0.5-0.5,0.5c-0.2,0-0.4-0.1-0.5-0.4c0-0.1,0-0.2,0-0.3c0-0.5,0.3-0.8,0.7-0.8c0.1,0,0.2,0,0.2,0v0.3h0 c-0.1,0-0.1,0-0.2,0c-0.2,0-0.4,0.1-0.4,0.4c0,0,0.1-0.1,0.1-0.1c0.1,0,0.1,0,0.2,0c0.1,0,0.2,0,0.3,0.1C51,86.8,51,86.9,51,87.1 L51,87.1z M50.7,87.1c0-0.2-0.1-0.2-0.2-0.2c-0.1,0-0.1,0-0.2,0c0,0.1,0,0.2,0,0.3c0,0.1,0.1,0.2,0.2,0.2 C50.6,87.4,50.7,87.2,50.7,87.1L50.7,87.1z M52.3,86.9c0,0.4-0.1,0.8-0.5,0.8c-0.4,0-0.5-0.3-0.5-0.8c0-0.4,0.1-0.8,0.5-0.8 C52.2,86.1,52.3,86.4,52.3,86.9L52.3,86.9z M52,86.9c0-0.2,0-0.5-0.2-0.5c-0.2,0-0.2,0.3-0.2,0.5c0,0.2,0,0.5,0.2,0.5 C52,87.4,52,87,52,86.9L52,86.9z M47.4,83.6l0.3-0.8c1,0.8,2.2,1.5,3.5,1c0.1,0.2,0.1,0.4,0.2,0.6C50,85.1,48.6,84.6,47.4,83.6 L47.4,83.6z M48.5,83.2c0.2-0.9,0.1-1.9,0.4-2.9c0.2-0.5,0.6-0.9,1.1-1c0.5,0,1.3,0.5,1.4,1c0.1,1.1,0.2,2.4,0.5,3.5 c0.2,0.8,1,1.9,1.9,1.9c1,0.1,1.8-0.8,1.7-1.8c0-1-0.5-1.9-1.1-2.6c-0.4-0.5-1.1-0.8-1.7-1.2c0.1,0.8,0.1,1.5,0.1,2.1 c-0.1,0.8-0.4,1.3-0.7,1.8c-0.1-0.3-0.2-0.5-0.2-0.7c0.6-1,0.8-2-0.2-3.4l0.1-0.8c-0.6,0-1.1,0.1-1.7,0.1 c-16.1,0-29.2-13.1-29.2-29.2S33.9,20.8,50,20.8S79.2,33.9,79.2,50c0,15.1-11.6,27.6-26.4,29c0.8,0.3,1.6,0.9,2.1,1.6 c0.7,0.9,1.1,2,1,3.3c-0.1,1.9-1.4,2.9-2.6,2.6c-1-0.2-1.6-1.5-1.9-2.4c-0.4-1.1-0.5-2.3-0.6-3.5c0-0.3-0.6-0.5-0.9-0.5 c-0.3,0-0.7,0.2-0.8,0.5c-0.2,0.7-0.1,2-0.2,2.8C48.8,83.3,48.6,83.2,48.5,83.2L48.5,83.2z M17.8,54.1c0.3-0.1,0.6-0.1,0.9,0 c0.3,0.1,0.5,0.2,0.8,0.3c0.2,0.2,0.4,0.4,0.5,0.6c0.1,0.3,0.3,0.6,0.3,0.9c0.1,0.3,0.1,0.7,0,1c0,0.3-0.1,0.5-0.3,0.8 c-0.1,0.2-0.3,0.4-0.6,0.5c-0.2,0.1-0.5,0.3-0.9,0.3l-3.3,0.6c0,0-0.1,0-0.1,0c0,0-0.1,0-0.1-0.1c0,0,0-0.1-0.1-0.2 c0-0.1,0-0.2-0.1-0.3c0-0.1,0-0.2,0-0.3c0-0.1,0-0.1,0-0.2c0,0,0-0.1,0-0.1c0,0,0,0,0.1,0l3.2-0.6c0.2,0,0.4-0.1,0.6-0.2 c0.1-0.1,0.3-0.2,0.4-0.3c0.1-0.1,0.1-0.3,0.2-0.4c0-0.1,0-0.3,0-0.5c0-0.2-0.1-0.3-0.2-0.5c-0.1-0.1-0.2-0.2-0.3-0.3 c-0.1-0.1-0.3-0.1-0.4-0.2c-0.2,0-0.3,0-0.5,0l-3.3,0.6c0,0-0.1,0-0.1,0c0,0-0.1,0-0.1-0.1c0,0,0-0.1-0.1-0.2c0-0.1,0-0.2-0.1-0.3 c0-0.1,0-0.2,0-0.3c0-0.1,0-0.1,0-0.2c0,0,0-0.1,0-0.1c0,0,0,0,0.1,0L17.8,54.1L17.8,54.1z M72.7,25.6c-0.3,0.4-0.6,0.7-1,0.9 c-0.3,0.2-0.7,0.3-1,0.3c-0.3,0-0.7,0-1-0.2c-0.3-0.1-0.7-0.4-1.1-0.7l-1-0.8c-0.1-0.1-0.1-0.1-0.1-0.2c0-0.1,0-0.2,0.1-0.3l3-3.8 c0.1-0.1,0.2-0.2,0.2-0.2c0.1,0,0.2,0,0.2,0.1l1.1,0.9c0.4,0.3,0.7,0.6,0.9,0.9c0.2,0.3,0.3,0.6,0.4,0.9c0,0.3,0,0.7-0.1,1 C73.1,25,72.9,25.3,72.7,25.6L72.7,25.6z M71.7,25c0.2-0.2,0.3-0.4,0.4-0.6c0.1-0.2,0.1-0.4,0.1-0.6c0-0.2-0.1-0.4-0.2-0.6 c-0.1-0.2-0.3-0.4-0.6-0.6L71,22.1l-2.3,3l0.5,0.4c0.2,0.2,0.5,0.3,0.7,0.4c0.2,0.1,0.4,0.1,0.6,0c0.2,0,0.4-0.1,0.6-0.3 C71.3,25.4,71.5,25.2,71.7,25L71.7,25z M78,31.9c-0.4,0.3-0.8,0.5-1.1,0.7c-0.4,0.1-0.7,0.2-1.1,0.1c-0.3,0-0.7-0.2-1-0.4 c-0.3-0.2-0.6-0.5-0.9-0.9l-0.8-1C73,30.3,73,30.2,73,30.1c0-0.1,0.1-0.2,0.2-0.2l3.8-3.1c0.1-0.1,0.2-0.1,0.3-0.1 c0.1,0,0.2,0.1,0.2,0.1l0.9,1.1c0.3,0.4,0.5,0.8,0.7,1.1c0.1,0.3,0.2,0.7,0.1,1c0,0.3-0.1,0.6-0.3,1C78.6,31.3,78.4,31.6,78,31.9 L78,31.9z M77.2,31c0.2-0.2,0.4-0.3,0.5-0.5c0.1-0.2,0.2-0.4,0.3-0.6c0-0.2,0-0.4,0-0.7c-0.1-0.2-0.2-0.5-0.4-0.7L77.2,28l-2.9,2.4 l0.4,0.5c0.2,0.2,0.4,0.4,0.6,0.5c0.2,0.1,0.4,0.2,0.6,0.2c0.2,0,0.4,0,0.7-0.1C76.8,31.4,77,31.2,77.2,31L77.2,31z M78.5,38.2 c-0.1,0.1-0.1,0.1-0.2,0.2c0,0-0.1,0-0.1,0c0,0-0.1-0.1-0.1-0.1c0-0.1-0.1-0.2-0.2-0.3c-0.1-0.1-0.1-0.2-0.2-0.3 c0-0.1-0.1-0.1-0.1-0.2c0,0,0-0.1,0-0.1c0,0,0-0.1,0.1-0.1l0.8-0.9l-1-1.8l-1.1,0.2c0,0-0.1,0-0.1,0c0,0-0.1,0-0.1,0 c0,0-0.1-0.1-0.1-0.1c0-0.1-0.1-0.2-0.1-0.3c-0.1-0.1-0.1-0.2-0.1-0.3c0-0.1,0-0.1,0-0.2c0,0,0.1-0.1,0.1-0.1c0.1,0,0.1,0,0.2-0.1 l5.2-0.8c0.1,0,0.1,0,0.1,0c0,0,0.1,0,0.1,0.1c0,0,0.1,0.1,0.1,0.2c0,0.1,0.1,0.2,0.2,0.3c0.1,0.1,0.1,0.3,0.2,0.4 c0,0.1,0.1,0.2,0.1,0.2c0,0.1,0,0.1,0,0.1c0,0,0,0.1-0.1,0.1L78.5,38.2L78.5,38.2z M80.9,34L80.9,34l-2.5,0.4l0.7,1.4L80.9,34 L80.9,34z M79.8,43.3C79.8,43.3,79.7,43.3,79.8,43.3c-0.1,0-0.1,0-0.2-0.1c0,0-0.1-0.1-0.1-0.2c0-0.1-0.1-0.2-0.1-0.3 c0-0.1-0.1-0.2-0.1-0.3c0-0.1,0-0.1,0-0.2c0,0,0-0.1,0-0.1c0,0,0,0,0.1,0l2.2-0.6l-0.6-2l-2.2,0.6c0,0-0.1,0-0.1,0 c0,0-0.1,0-0.1-0.1c0,0-0.1-0.1-0.1-0.2c0-0.1-0.1-0.2-0.1-0.3c0-0.1-0.1-0.2-0.1-0.3c0-0.1,0-0.1,0-0.2c0,0,0-0.1,0-0.1 c0,0,0,0,0.1,0l5.1-1.5c0,0,0.1,0,0.1,0c0,0,0.1,0,0.1,0.1c0,0,0.1,0.1,0.1,0.2c0,0.1,0.1,0.2,0.1,0.3c0,0.1,0.1,0.2,0.1,0.3 c0,0.1,0,0.1,0,0.2c0,0,0,0.1,0,0.1c0,0,0,0-0.1,0l-2,0.6l0.6,2l2-0.6c0,0,0.1,0,0.1,0c0,0,0.1,0,0.1,0.1c0,0,0.1,0.1,0.1,0.2 c0,0.1,0.1,0.2,0.1,0.3c0,0.1,0.1,0.2,0.1,0.3c0,0.1,0,0.1,0,0.2c0,0,0,0.1,0,0.1c0,0,0,0-0.1,0L79.8,43.3L79.8,43.3z M80.8,47.6 c-0.1,0-0.2,0-0.2,0c-0.1,0-0.1,0-0.1,0c0,0-0.1,0-0.1,0c0,0,0,0,0-0.1l-0.4-2.5c0-0.1,0-0.2,0-0.2c0-0.1,0.1-0.1,0.3-0.1l5-0.7 c0,0,0.1,0,0.1,0c0,0,0,0,0.1,0.1c0,0,0,0.1,0.1,0.2c0,0.1,0,0.2,0.1,0.3c0,0.1,0,0.2,0,0.3c0,0.1,0,0.1,0,0.2c0,0,0,0.1,0,0.1 c0,0,0,0-0.1,0L81,45.6l0.2,1.7c0,0,0,0.1,0,0.1c0,0,0,0-0.1,0.1c0,0-0.1,0-0.1,0.1C80.9,47.5,80.9,47.5,80.8,47.6L80.8,47.6z  M80.7,52.9c-0.1,0-0.2,0.1-0.2,0.1c-0.1,0-0.1,0-0.1,0c0,0,0-0.1-0.1-0.2c0-0.1,0-0.2,0-0.3c0-0.1,0-0.3,0-0.3c0-0.1,0-0.1,0-0.2 c0,0,0-0.1,0.1-0.1c0,0,0.1,0,0.1,0l1.1-0.4l0-2.1l-1.1-0.4c0,0-0.1,0-0.1,0c0,0,0,0-0.1-0.1c0,0,0-0.1,0-0.2c0-0.1,0-0.2,0-0.3 c0-0.1,0-0.2,0-0.3c0-0.1,0-0.1,0.1-0.2c0,0,0.1,0,0.1,0c0.1,0,0.1,0,0.2,0.1l4.9,1.8c0,0,0.1,0,0.1,0.1c0,0,0.1,0.1,0.1,0.1 c0,0.1,0,0.1,0,0.2c0,0.1,0,0.2,0,0.4c0,0.2,0,0.3,0,0.4c0,0.1,0,0.2,0,0.2c0,0.1,0,0.1-0.1,0.1c0,0-0.1,0-0.1,0.1L80.7,52.9 L80.7,52.9z M84.8,50.4L84.8,50.4l-2.4-0.8l0,1.6L84.8,50.4L84.8,50.4z M79.7,58.3c-0.1,0-0.1,0-0.2-0.1c0,0-0.1-0.1-0.1-0.1 c0,0,0-0.1-0.1-0.1c0-0.1,0-0.1,0-0.2l0.1-0.5c0-0.1,0-0.2,0.1-0.3c0-0.1,0.1-0.1,0.1-0.2c0.1-0.1,0.1-0.1,0.2-0.1 c0.1,0,0.2-0.1,0.4-0.1l2.8-0.9c0.2-0.1,0.3-0.1,0.5-0.2c0.2,0,0.4-0.1,0.6-0.1l0,0c-0.2,0-0.4-0.1-0.6-0.1c-0.2,0-0.4-0.1-0.6-0.1 l-2.9-0.5c0,0-0.1,0-0.1,0c0,0,0,0,0-0.1c0,0,0-0.1,0-0.2c0-0.1,0-0.2,0-0.3c0-0.1,0-0.2,0.1-0.2c0-0.1,0-0.1,0.1-0.1 c0,0,0-0.1,0.1-0.1c0,0,0.1,0,0.1,0l4.9,0.9c0.1,0,0.2,0.1,0.3,0.2c0.1,0.1,0.1,0.2,0,0.3l-0.1,0.6c0,0.1,0,0.2-0.1,0.3 c0,0.1-0.1,0.1-0.1,0.2c-0.1,0.1-0.1,0.1-0.2,0.1c-0.1,0-0.2,0.1-0.3,0.1L82.5,57c-0.1,0-0.3,0.1-0.4,0.1c-0.1,0-0.3,0.1-0.4,0.1 c-0.1,0-0.3,0.1-0.4,0.1c-0.1,0-0.2,0.1-0.4,0.1l0,0c0.2,0,0.4,0.1,0.6,0.1c0.2,0,0.4,0.1,0.6,0.1l2.6,0.5c0,0,0.1,0,0.1,0 c0,0,0,0.1,0,0.1c0,0,0,0.1,0,0.2c0,0.1,0,0.2,0,0.3c0,0.1,0,0.2-0.1,0.2c0,0.1,0,0.1-0.1,0.1c0,0,0,0.1-0.1,0.1c0,0-0.1,0-0.1,0 L79.7,58.3L79.7,58.3z M19.2,47.9c0.1,0,0.1,0,0.2,0c0.1,0,0.1,0.1,0.1,0.1c0,0,0.1,0.1,0.1,0.1c0,0.1,0,0.1,0,0.2l0,0.5 c0,0.1,0,0.2,0,0.3c0,0.1-0.1,0.1-0.1,0.2c-0.1,0.1-0.1,0.1-0.2,0.2c-0.1,0.1-0.2,0.1-0.3,0.2l-2.6,1.4c-0.2,0.1-0.3,0.2-0.5,0.3 c-0.2,0.1-0.4,0.2-0.5,0.2l0,0c0.2,0,0.4,0,0.6,0c0.2,0,0.4,0,0.6,0l2.9-0.1c0,0,0.1,0,0.1,0c0,0,0,0,0.1,0.1c0,0,0,0.1,0,0.2 c0,0.1,0,0.2,0,0.3c0,0.1,0,0.2,0,0.3c0,0.1,0,0.1,0,0.2c0,0,0,0.1-0.1,0.1c0,0,0,0-0.1,0l-5,0.1c-0.1,0-0.2,0-0.3-0.1 c-0.1-0.1-0.1-0.2-0.1-0.3l0-0.6c0-0.1,0-0.2,0-0.3c0-0.1,0-0.1,0.1-0.2c0-0.1,0.1-0.1,0.2-0.2c0.1-0.1,0.2-0.1,0.3-0.2l2-1.1 c0.1-0.1,0.2-0.1,0.4-0.2c0.1-0.1,0.2-0.1,0.4-0.2c0.1-0.1,0.2-0.1,0.3-0.2c0.1-0.1,0.2-0.1,0.3-0.2v0c-0.2,0-0.4,0-0.6,0 c-0.2,0-0.4,0-0.6,0l-2.6,0c0,0-0.1,0-0.1,0c0,0,0,0-0.1-0.1c0,0,0-0.1,0-0.2c0-0.1,0-0.2,0-0.3c0-0.1,0-0.2,0-0.2 c0-0.1,0-0.1,0-0.2c0,0,0-0.1,0.1-0.1c0,0,0,0,0.1,0L19.2,47.9L19.2,47.9z M19.9,45.5C19.9,45.5,20,45.5,19.9,45.5 c0.1,0.1,0.1,0.1,0.1,0.1c0,0,0,0.1,0,0.2c0,0.1,0,0.2,0,0.3c0,0.1,0,0.2-0.1,0.3c0,0.1,0,0.1-0.1,0.2c0,0,0,0.1-0.1,0.1 c0,0-0.1,0-0.1,0l-5.2-0.7c0,0-0.1,0-0.1,0c0,0,0-0.1,0-0.1c0,0,0-0.1,0-0.2c0-0.1,0-0.2,0-0.3c0-0.1,0-0.2,0.1-0.3 c0-0.1,0-0.1,0.1-0.2c0,0,0-0.1,0.1-0.1c0,0,0.1,0,0.1,0L19.9,45.5L19.9,45.5z M20.7,41.6C20.8,41.6,20.8,41.6,20.7,41.6 c0.1,0.1,0.1,0.2,0.1,0.2c0,0.1,0,0.1,0,0.2c0,0.1,0,0.2-0.1,0.3c0,0.1-0.1,0.2-0.1,0.3c0,0.1,0,0.1-0.1,0.2c0,0.1,0,0.1-0.1,0.1 c0,0,0,0.1-0.1,0.1c0,0,0,0-0.1,0c0,0-0.1,0-0.1,0l-5.2,0.2c-0.1,0-0.2,0-0.3,0c-0.1,0-0.1,0-0.1-0.1c0,0,0-0.1,0-0.2 c0-0.1,0-0.2,0.1-0.4c0-0.1,0.1-0.2,0.1-0.3c0-0.1,0.1-0.1,0.1-0.2c0,0,0.1-0.1,0.1-0.1c0,0,0.1,0,0.1,0l4.5-0.1l0,0l-3.7-2.5 c0,0-0.1,0-0.1-0.1c0,0,0-0.1,0-0.1c0,0,0-0.1,0-0.2c0-0.1,0-0.2,0.1-0.3c0-0.1,0.1-0.2,0.1-0.3c0-0.1,0.1-0.1,0.1-0.1 c0,0,0.1,0,0.1,0c0.1,0,0.1,0.1,0.2,0.1L20.7,41.6L20.7,41.6z M22.6,36.1c0.1,0,0.1,0.1,0.2,0.1c0,0,0.1,0.1,0.1,0.1 c0,0,0,0.1,0,0.1c0,0,0,0.1,0,0.1L21.7,39c0,0.1-0.1,0.1-0.2,0.2c-0.1,0-0.2,0-0.3,0l-4.4-2.1c-0.1-0.1-0.2-0.1-0.2-0.2 c0-0.1,0-0.2,0-0.3l1.2-2.5c0,0,0,0,0-0.1c0,0,0.1,0,0.1,0c0,0,0.1,0,0.1,0c0.1,0,0.1,0,0.2,0.1c0.1,0,0.1,0.1,0.2,0.1 c0,0,0.1,0.1,0.1,0.1c0,0,0,0.1,0,0.1c0,0,0,0,0,0.1l-0.8,1.8l1.2,0.6l0.7-1.5c0,0,0,0,0.1-0.1c0,0,0.1,0,0.1,0c0,0,0.1,0,0.1,0 c0.1,0,0.1,0,0.2,0.1c0.1,0,0.1,0.1,0.2,0.1c0,0,0.1,0.1,0.1,0.1c0,0,0,0.1,0,0.1c0,0,0,0.1,0,0.1l-0.7,1.5l1.4,0.7l0.8-1.8 c0,0,0,0,0.1-0.1c0,0,0.1,0,0.1,0c0,0,0.1,0,0.1,0C22.4,36.1,22.5,36.1,22.6,36.1L22.6,36.1z M25.5,31.8 C25.6,31.8,25.6,31.9,25.5,31.8c0.1,0.1,0.1,0.1,0.1,0.2c0,0,0,0.1-0.1,0.2c0,0.1-0.1,0.2-0.2,0.3c-0.1,0.1-0.1,0.2-0.2,0.2 c0,0.1-0.1,0.1-0.1,0.1c0,0-0.1,0-0.1,0c0,0-0.1,0-0.1,0l-1.3-0.3c-0.2,0-0.3,0-0.4-0.1c-0.1,0-0.2,0-0.3,0c-0.1,0-0.2,0.1-0.3,0.1 c-0.1,0.1-0.2,0.1-0.2,0.2l-0.2,0.3l1.8,1.2c0,0,0,0,0,0.1c0,0,0,0.1,0,0.1c0,0,0,0.1-0.1,0.2c0,0.1-0.1,0.1-0.1,0.2 c-0.1,0.1-0.1,0.2-0.2,0.2c0,0.1-0.1,0.1-0.1,0.1c0,0-0.1,0-0.1,0c0,0-0.1,0-0.1,0L19,32.5c-0.1-0.1-0.2-0.1-0.2-0.2 c0-0.1,0-0.2,0.1-0.2l0.8-1.2c0.1-0.1,0.1-0.2,0.2-0.3c0.1-0.1,0.1-0.1,0.2-0.2c0.1-0.2,0.3-0.3,0.5-0.4c0.2-0.1,0.3-0.2,0.5-0.2 c0.2,0,0.3,0,0.5,0c0.2,0,0.4,0.1,0.5,0.2c0.2,0.1,0.3,0.2,0.4,0.3c0.1,0.1,0.2,0.3,0.2,0.4c0.1,0.1,0.1,0.3,0.1,0.5 c0,0.2,0,0.3-0.1,0.5c0.1,0,0.2-0.1,0.3-0.1c0.1,0,0.2,0,0.3-0.1c0.1,0,0.2,0,0.3,0c0.1,0,0.2,0,0.4,0.1l1.2,0.2 c0.1,0,0.2,0,0.2,0.1C25.5,31.8,25.5,31.8,25.5,31.8L25.5,31.8z M21.6,31c-0.2-0.1-0.3-0.1-0.5-0.1c-0.2,0-0.3,0.1-0.4,0.2 c0,0-0.1,0.1-0.1,0.1c0,0.1-0.1,0.1-0.2,0.2l-0.3,0.4l1.3,0.9l0.3-0.5c0.1-0.1,0.1-0.3,0.2-0.4c0-0.1,0-0.2,0-0.3 c0-0.1-0.1-0.2-0.1-0.3C21.7,31.1,21.7,31.1,21.6,31L21.6,31z M27.1,27.7c0.2,0.2,0.4,0.4,0.5,0.6c0.1,0.2,0.1,0.5,0.1,0.7 c0,0.2-0.1,0.5-0.2,0.7c-0.1,0.2-0.3,0.5-0.4,0.7c-0.1,0.1-0.3,0.3-0.4,0.4c-0.1,0.1-0.3,0.2-0.4,0.3c-0.1,0.1-0.2,0.1-0.3,0.1 c-0.1,0-0.2,0.1-0.2,0.1c-0.1,0-0.1,0-0.2,0c-0.1,0-0.1-0.1-0.2-0.2c-0.1-0.1-0.1-0.1-0.2-0.2c0,0-0.1-0.1-0.1-0.1c0,0,0-0.1,0-0.1 c0,0,0,0,0-0.1c0,0,0.1-0.1,0.2-0.1c0.1,0,0.2-0.1,0.3-0.1c0.1,0,0.2-0.1,0.4-0.2c0.1-0.1,0.3-0.2,0.4-0.4c0.1-0.1,0.2-0.2,0.2-0.3 c0-0.1,0.1-0.2,0.1-0.3c0-0.1,0-0.2-0.1-0.3c0-0.1-0.1-0.2-0.2-0.2c-0.1-0.1-0.2-0.1-0.3-0.1c-0.1,0-0.2,0-0.4,0 c-0.1,0-0.3,0.1-0.4,0.2c-0.1,0.1-0.3,0.1-0.4,0.2c-0.2,0.1-0.3,0.1-0.5,0.2c-0.2,0-0.3,0.1-0.5,0.1c-0.2,0-0.3,0-0.5-0.1 c-0.2-0.1-0.3-0.2-0.5-0.3c-0.2-0.2-0.3-0.4-0.4-0.6c-0.1-0.2-0.1-0.4-0.1-0.6c0-0.2,0.1-0.4,0.2-0.6c0.1-0.2,0.2-0.4,0.4-0.6 c0.1-0.1,0.2-0.2,0.3-0.3c0.1-0.1,0.2-0.2,0.3-0.2c0.1-0.1,0.2-0.1,0.3-0.2c0.1,0,0.2-0.1,0.2-0.1c0,0,0.1,0,0.1,0c0,0,0,0,0.1,0 c0,0,0.1,0,0.1,0.1c0,0,0.1,0.1,0.1,0.1c0.1,0.1,0.1,0.1,0.2,0.1c0,0,0.1,0.1,0.1,0.1c0,0,0,0.1,0,0.1c0,0,0,0.1,0,0.1 c0,0-0.1,0-0.1,0.1c-0.1,0-0.2,0.1-0.3,0.1c-0.1,0-0.2,0.1-0.3,0.2c-0.1,0.1-0.2,0.2-0.3,0.3c-0.1,0.1-0.1,0.2-0.2,0.3 c0,0.1-0.1,0.2-0.1,0.3c0,0.1,0,0.2,0.1,0.2c0,0.1,0.1,0.1,0.1,0.2c0.1,0.1,0.2,0.1,0.3,0.1c0.1,0,0.2,0,0.4,0 c0.1,0,0.3-0.1,0.4-0.2c0.1-0.1,0.3-0.1,0.4-0.2c0.1-0.1,0.3-0.1,0.5-0.2c0.2,0,0.3-0.1,0.5-0.1c0.2,0,0.3,0,0.5,0.1 C26.7,27.4,26.9,27.5,27.1,27.7L27.1,27.7z M29.7,27.3C29.7,27.4,29.7,27.4,29.7,27.3c0,0.1,0,0.1,0,0.2c0,0-0.1,0.1-0.1,0.1 c0,0.1-0.1,0.1-0.2,0.2c-0.1,0.1-0.1,0.1-0.2,0.2c-0.1,0-0.1,0.1-0.2,0.1c0,0-0.1,0-0.1,0c0,0-0.1,0-0.1,0l-3.6-3.8c0,0,0,0,0-0.1 c0,0,0-0.1,0-0.1c0,0,0.1-0.1,0.1-0.1c0-0.1,0.1-0.1,0.2-0.2c0.1-0.1,0.2-0.1,0.2-0.2c0.1,0,0.1-0.1,0.1-0.1c0,0,0.1,0,0.1,0 c0,0,0.1,0,0.1,0L29.7,27.3L29.7,27.3z M30.4,20.3c0.1,0.1,0.1,0.1,0.1,0.2c0,0.1,0.1,0.1,0.1,0.1c0,0,0,0.1,0,0.1c0,0,0,0,0,0.1 l-1.1,0.9l2.8,3.5c0,0,0,0,0,0.1c0,0,0,0.1,0,0.1c0,0-0.1,0.1-0.1,0.1c-0.1,0.1-0.1,0.1-0.2,0.2c-0.1,0.1-0.2,0.1-0.2,0.2 c-0.1,0-0.1,0.1-0.2,0.1c0,0-0.1,0-0.1,0c0,0-0.1,0-0.1,0l-2.8-3.5l-1.1,0.9c0,0,0,0-0.1,0c0,0-0.1,0-0.1,0c0,0-0.1-0.1-0.1-0.1 c0,0-0.1-0.1-0.1-0.2C27,22.9,27,22.8,27,22.7c0-0.1-0.1-0.1-0.1-0.1c0,0,0-0.1,0-0.1c0,0,0,0,0-0.1L30,20c0,0,0,0,0.1,0 c0,0,0.1,0,0.1,0c0,0,0.1,0.1,0.1,0.1C30.3,20.2,30.4,20.2,30.4,20.3L30.4,20.3z M37.4,21.8c0.1,0.1,0.1,0.1,0.2,0.2 c0,0,0,0.1,0,0.1c0,0-0.1,0.1-0.1,0.1c-0.1,0-0.2,0.1-0.3,0.2c-0.1,0.1-0.2,0.1-0.3,0.2c-0.1,0-0.1,0.1-0.2,0.1c0,0-0.1,0-0.1,0 c0,0-0.1,0-0.1-0.1l-0.9-0.8l-1.8,1l0.2,1.1c0,0,0,0.1,0,0.1c0,0,0,0.1,0,0.1c0,0-0.1,0.1-0.1,0.1c-0.1,0-0.1,0.1-0.3,0.2 c-0.1,0.1-0.2,0.1-0.3,0.1c-0.1,0-0.1,0-0.2,0c0,0-0.1-0.1-0.1-0.1c0-0.1,0-0.1-0.1-0.2l-0.9-5.2c0-0.1,0-0.1,0-0.1 c0,0,0-0.1,0.1-0.1c0,0,0.1-0.1,0.2-0.1c0.1,0,0.2-0.1,0.3-0.2c0.1-0.1,0.3-0.1,0.4-0.2c0.1,0,0.2-0.1,0.2-0.1c0.1,0,0.1,0,0.1,0 c0,0,0.1,0,0.1,0.1L37.4,21.8L37.4,21.8z M33.2,19.5L33.2,19.5l0.5,2.5l1.4-0.8L33.2,19.5L33.2,19.5z M41,19.3 c0.1,0.3,0.1,0.5,0.1,0.8c0,0.2-0.1,0.5-0.3,0.7c-0.1,0.2-0.3,0.4-0.5,0.5c-0.2,0.1-0.5,0.3-0.7,0.4c-0.2,0.1-0.4,0.1-0.5,0.1 c-0.2,0-0.3,0-0.5,0c-0.1,0-0.2,0-0.3,0c-0.1,0-0.2,0-0.2-0.1c0,0-0.1-0.1-0.1-0.1c0-0.1-0.1-0.2-0.1-0.3c0-0.1,0-0.2-0.1-0.2 c0-0.1,0-0.1,0-0.1c0,0,0-0.1,0-0.1c0,0,0,0,0.1,0c0,0,0.1,0,0.2,0c0.1,0,0.2,0,0.3,0.1c0.1,0,0.3,0,0.4,0c0.2,0,0.3,0,0.5-0.1 c0.1,0,0.2-0.1,0.3-0.2c0.1-0.1,0.2-0.1,0.2-0.2c0.1-0.1,0.1-0.2,0.1-0.3c0-0.1,0-0.2,0-0.3c0-0.1-0.1-0.2-0.2-0.3 c-0.1-0.1-0.2-0.1-0.3-0.1c-0.1,0-0.3-0.1-0.4-0.1c-0.2,0-0.3,0-0.5-0.1c-0.2,0-0.3,0-0.5-0.1c-0.2,0-0.3-0.1-0.5-0.2 c-0.1-0.1-0.3-0.2-0.4-0.3c-0.1-0.1-0.2-0.3-0.3-0.5c-0.1-0.3-0.1-0.5-0.1-0.7c0-0.2,0.1-0.4,0.2-0.6c0.1-0.2,0.3-0.3,0.5-0.5 c0.2-0.1,0.4-0.2,0.7-0.3c0.1,0,0.3-0.1,0.4-0.1c0.1,0,0.3,0,0.4,0c0.1,0,0.2,0,0.3,0c0.1,0,0.2,0,0.2,0c0,0,0.1,0,0.1,0.1 c0,0,0,0,0,0.1c0,0,0,0.1,0.1,0.1c0,0,0,0.1,0.1,0.2c0,0.1,0,0.1,0.1,0.2c0,0.1,0,0.1,0,0.1c0,0,0,0.1,0,0.1c0,0,0,0-0.1,0 c0,0-0.1,0-0.2,0c-0.1,0-0.2,0-0.3,0c-0.1,0-0.2,0-0.4,0c-0.1,0-0.3,0-0.4,0.1c-0.1,0-0.2,0.1-0.3,0.1c-0.1,0.1-0.1,0.1-0.2,0.2 c0,0.1-0.1,0.1-0.1,0.2c0,0.1,0,0.2,0,0.2c0,0.1,0.1,0.2,0.2,0.3c0.1,0.1,0.2,0.1,0.3,0.1c0.1,0,0.3,0.1,0.4,0.1 c0.2,0,0.3,0,0.5,0.1c0.2,0,0.3,0,0.5,0.1c0.2,0,0.3,0.1,0.5,0.2c0.1,0.1,0.3,0.2,0.4,0.3C40.9,18.9,41,19.1,41,19.3L41,19.3z  M48.8,19.1c0,0.1,0.1,0.2,0.1,0.2c0,0.1,0,0.1,0,0.1c0,0-0.1,0.1-0.2,0.1c-0.1,0-0.2,0-0.3,0.1c-0.1,0-0.3,0-0.3,0 c-0.1,0-0.1,0-0.2,0c0,0-0.1,0-0.1,0c0,0,0,0-0.1-0.1l-0.5-1.1l-2.1,0.3l-0.2,1.1c0,0,0,0.1,0,0.1c0,0,0,0.1-0.1,0.1 c0,0-0.1,0-0.2,0.1c-0.1,0-0.2,0-0.3,0c-0.1,0-0.2,0-0.3,0c-0.1,0-0.1,0-0.2,0c0,0,0-0.1,0-0.1c0-0.1,0-0.1,0-0.2l1.1-5.1 c0-0.1,0-0.1,0-0.1c0,0,0.1-0.1,0.1-0.1c0,0,0.1,0,0.2-0.1c0.1,0,0.2,0,0.3-0.1c0.2,0,0.3,0,0.4,0c0.1,0,0.2,0,0.2,0 c0.1,0,0.1,0,0.1,0.1c0,0,0.1,0.1,0.1,0.1L48.8,19.1L48.8,19.1z M45.8,15.4L45.8,15.4l-0.5,2.4l1.6-0.2L45.8,15.4L45.8,15.4z  M54,19.8C54,19.8,54,19.8,54,19.8c-0.1,0.1-0.1,0.1-0.1,0.1c0,0-0.1,0-0.2,0c-0.1,0-0.2,0-0.3,0c-0.1,0-0.2,0-0.3,0 c-0.1,0-0.1,0-0.2,0c0,0-0.1,0-0.1-0.1c0,0,0-0.1,0-0.1l0.2-2.2L51,17.3l-0.2,2.2c0,0,0,0.1,0,0.1c0,0,0,0-0.1,0c0,0-0.1,0-0.2,0 c-0.1,0-0.2,0-0.3,0c-0.1,0-0.2,0-0.3,0c-0.1,0-0.1,0-0.2,0c0,0-0.1,0-0.1-0.1c0,0,0-0.1,0-0.1l0.4-5.2c0,0,0-0.1,0-0.1 c0,0,0.1,0,0.1,0c0,0,0.1,0,0.2,0c0.1,0,0.2,0,0.3,0c0.1,0,0.2,0,0.3,0c0.1,0,0.1,0,0.2,0c0,0,0.1,0,0.1,0.1c0,0,0,0.1,0,0.1l-0.1,2 l2.1,0.1l0.1-2c0,0,0-0.1,0-0.1c0,0,0.1,0,0.1,0c0,0,0.1,0,0.2,0c0.1,0,0.2,0,0.3,0c0.1,0,0.2,0,0.3,0c0.1,0,0.1,0,0.2,0 c0,0,0.1,0,0.1,0.1c0,0,0,0.1,0,0.1L54,19.8L54,19.8z M61.6,21.5C61.6,21.5,61.5,21.6,61.6,21.5c-0.1,0.1-0.1,0.1-0.1,0.1 c0,0-0.1,0-0.2,0c-0.1,0-0.2,0-0.3-0.1c-0.1,0-0.2-0.1-0.2-0.1c-0.1,0-0.1-0.1-0.1-0.1c0,0-0.1,0-0.1-0.1c0,0,0-0.1,0-0.1l1.2-4.4 l0,0l-2.7,4c0,0,0,0.1-0.1,0.1c0,0-0.1,0-0.1,0c0,0-0.1,0-0.2,0c-0.1,0-0.1,0-0.2-0.1c-0.1,0-0.2-0.1-0.2-0.1c-0.1,0-0.1,0-0.2-0.1 c0,0-0.1-0.1-0.1-0.1c0,0,0-0.1,0-0.1l-0.3-4.8l0,0l-1.2,4.4c0,0,0,0.1,0,0.1c0,0-0.1,0-0.1,0c0,0-0.1,0-0.2,0c-0.1,0-0.2,0-0.3-0.1 c-0.1,0-0.2-0.1-0.2-0.1c-0.1,0-0.1-0.1-0.2-0.1c0,0-0.1,0-0.1-0.1c0,0,0-0.1,0-0.1l1.3-4.8c0-0.1,0.1-0.2,0.2-0.3 c0.1-0.1,0.2-0.1,0.3,0l0.7,0.2c0.1,0,0.2,0.1,0.3,0.1c0.1,0,0.2,0.1,0.2,0.2c0.1,0.1,0.1,0.1,0.1,0.2c0,0.1,0,0.2,0,0.3l0.3,3.5 l0,0l2.1-2.9c0.1-0.1,0.1-0.2,0.2-0.3c0.1-0.1,0.1-0.1,0.2-0.2c0.1,0,0.1-0.1,0.2-0.1c0.1,0,0.2,0,0.3,0l0.7,0.2 c0.1,0,0.1,0,0.2,0.1c0,0,0.1,0.1,0.1,0.1c0,0,0,0.1,0,0.2c0,0.1,0,0.1,0,0.2L61.6,21.5L61.6,21.5z M66.8,24.1c0,0.1,0,0.2-0.1,0.2 c0,0.1-0.1,0.1-0.1,0.1c0,0-0.1,0-0.2,0c-0.1,0-0.2-0.1-0.3-0.1c-0.1-0.1-0.2-0.1-0.3-0.2c-0.1,0-0.1-0.1-0.2-0.1 c0,0-0.1-0.1-0.1-0.1c0,0,0-0.1,0-0.1l0.2-1.2l-1.9-1l-0.8,0.8c0,0-0.1,0.1-0.1,0.1c0,0-0.1,0-0.1,0c0,0-0.1,0-0.2-0.1 c-0.1,0-0.2-0.1-0.3-0.1c-0.1-0.1-0.2-0.1-0.3-0.2c-0.1,0-0.1-0.1-0.1-0.1c0,0,0-0.1,0-0.1c0,0,0.1-0.1,0.2-0.2l3.8-3.6 c0,0,0.1-0.1,0.1-0.1c0,0,0.1,0,0.1,0c0.1,0,0.1,0,0.2,0.1c0.1,0,0.2,0.1,0.3,0.2c0.2,0.1,0.3,0.1,0.4,0.2c0.1,0,0.2,0.1,0.2,0.1 c0,0,0.1,0.1,0.1,0.1c0,0,0,0.1,0,0.1L66.8,24.1L66.8,24.1z M66.4,19.3L66.4,19.3L64.6,21l1.4,0.7L66.4,19.3L66.4,19.3z"/>
	<path fill="#EDEDED" d="M50,12.1c20.9,0,37.9,17,37.9,37.9S70.9,87.9,50,87.9S12.1,70.9,12.1,50S29.1,12.1,50,12.1L50,12.1z M50,20.8 c16.1,0,29.2,13.1,29.2,29.2c0,15.1-11.6,27.6-26.4,29c-0.3-0.1-0.7-0.2-1-0.3l0,0.4c-0.6,0-1.1,0.1-1.7,0.1 c-16.1,0-29.2-13.1-29.2-29.2S33.9,20.8,50,20.8L50,20.8z M50,21.9c15.5,0,28.1,12.6,28.1,28.1S65.5,78.1,50,78.1S21.9,65.5,21.9,50 S34.5,21.9,50,21.9L50,21.9z M41.9,60.2c0-0.2-0.1-0.4-0.2-0.6l-2.8-3.2c0.1,0.2,0.1,0.5,0.2,0.7L41.9,60.2L41.9,60.2z M41.9,59.7 c0.1,0.2,0.1,0.4,0.2,0.7l6.2-0.1c0.4,0,0.5,1.1,0.2,1.8l0.1,0c0.7,0,0.9-2.3,0-2.3L41.9,59.7L41.9,59.7z M58.1,59.7l-6.7,0 c-0.9,0-0.7,2.3,0,2.3l0.1,0c-0.3-0.7-0.1-1.8,0.2-1.8l6.2,0.1C58,60.1,58,59.9,58.1,59.7L58.1,59.7z M60.9,57.1 c0-0.2,0.1-0.5,0.2-0.7l-2.8,3.2c-0.1,0.2-0.1,0.4-0.2,0.6L60.9,57.1L60.9,57.1z M50,11.3c21.3,0,38.7,17.4,38.7,38.7 S71.3,88.7,50,88.7S11.3,71.3,11.3,50S28.7,11.3,50,11.3L50,11.3z"/>
	<path d="M53.7,49.6l0.2,0.6c-0.1-0.2-0.3-0.3-0.4-0.5c-1.2,0.2-2,0.5-2.1,0.9l4,0.5L55,51.6c-1.1,0.4-3.2,0.4-3.1,1.2 c0,0.5,0.7,0.8,1,1.1l-0.2,0.6c-1.1-0.7-2.3-1.6-2.9-2.8c-0.1,0.3-0.4,0.5-0.6,0.7c-1,0.8-1.7,1.6-3,1.5c-1.4-0.1-0.7-1.2-0.6-2.6 c0.1,0.9-0.2,1.9,0.7,2c1.1,0.1,1.9-0.7,2.9-1.3c0.3-0.2,0.6-0.5,0.5-0.8L49.4,50c-0.9,0.2-1.9-1.6-2.6-0.8 c-0.5,0.5-0.5,2.1-1.2,2.2c-1.5,0.2-1.4-1.3-1.1-2.5l0.2-0.6c-0.2,0.8-0.7,2.4,0.9,2.2c0.6-0.1,0.4-1.3,0.8-1.6c1-0.9,2.1,1,3.1,1 c-0.1-0.7-0.1-1.1-0.5-1.6l0.5-0.8c0.4,0.7,0.4,1.5,0.6,2.3c0.6-0.1,0.9-1,1.4-1.4c-0.3-0.3-0.2-0.7-0.1-1.1c0,0.2,0,0.6,0.3,0.6 c0.3,0,0.2-0.4,0.3-0.6c0,0.3,0,0.5,0.3,0.5c0.4-0.1,0.2-0.3,0.4-0.7c0.1,0.6,0.1,0.9-0.4,1.2c-0.1,0-0.2,0-0.3-0.2 c-0.1,0.2-0.3,0.4-0.5,0.3c-0.4,0.5-0.7,1.3-1.3,1.6c0.2,1.5,0.2,2,1.3,3.1c-0.1-0.6,0.8-1.2,2.4-1.4l-3.4-0.6 c0.7-1.2,1.8-1.5,3.1-1.6c-0.2-0.5,0-1.4,0.5-1.6c0.4-0.1,0.7,0.1,0.9,0.6C55,49,54.6,49.2,53.7,49.6L53.7,49.6z M41.3,82.3 c-2.1,0.1-4.2-0.2-6.2-1c-5.6-2.1-10.3-7.6-13.6-11.9c3.1,3.7,8.4,9,13.7,11c2.2,0.8,4.6,1,6.9,0.7L41.3,82.3L41.3,82.3z M58.7,82.3 L57.9,81c2.3,0.3,4.7,0.1,6.9-0.7c5.4-2,10.6-7.3,13.7-11c-3.3,4.3-8,9.9-13.6,11.9C62.8,82.1,60.7,82.4,58.7,82.3L58.7,82.3z  M49.4,60.7c0,0.5-0.2,1.5-0.8,1.6l-7,0.5L38.7,59c0.5-0.8,0.5-2.2-0.2-2.9l0.8,0l-0.4-0.5c0.2,0.1,0.5,0.1,0.7,0.1l-0.5-0.6 c0.1,0,0.4,0.1,0.8,0.3l-0.6-0.8c0.3,0.1,0.6,0.3,1,0.5l-0.8-0.9c0.3,0.2,0.8,0.5,1.2,0.7l-1.1-1.3c0.9,0.7,2.3,1.8,3.3,2l1.4,0.4 l4.8,3.5C49.3,59.8,49.4,60.4,49.4,60.7L49.4,60.7z M39.2,55.8c0.9,1.1,1.9,2.2,2.8,3.4c1,0.2,2.1,0.3,3.2,0.4c-1-0.1-2-0.3-3-0.7 l-2.5-2.9C39.6,55.9,39.4,55.8,39.2,55.8L39.2,55.8z M38.9,59l2.8,3.5c0.3-0.8,0.4-1.8,0-2.8l-2.8-3.2C39.2,57.3,39.3,58,38.9,59 L38.9,59z M41.9,59.7c0.4,1,0.4,1.9,0,2.7l6.7-0.4c0.7,0,0.9-2.3,0-2.3L41.9,59.7L41.9,59.7z M39.4,55.4c1,1.1,1.9,2.2,2.9,3.4 c1,0.4,2.2,0.7,3.3,0.8c-1.1-0.1-2.3-0.6-3.2-1.1L40,55.6C39.8,55.5,39.6,55.4,39.4,55.4L39.4,55.4z M39.6,54.9 c1,1.1,1.9,2.2,2.9,3.4c0.8,0.5,2,1,3,1.1c-1-0.2-2.1-0.8-2.8-1.5l-2.2-2.6C40.1,55.2,39.8,55.1,39.6,54.9L39.6,54.9z M40,54.1 l2.9,3.4c0.8,1,2.5,1.9,3.6,2l2.1,0.1l-4.5-3.4L43,55.9C42.1,55.7,40.8,54.8,40,54.1L40,54.1z M39.8,54.5c1,1.1,1.9,2.2,2.9,3.4 c0.9,0.8,2.3,1.5,3.5,1.6c-1.2-0.2-2.3-0.8-3.3-1.8l-2.1-2.5C40.4,54.9,40.1,54.7,39.8,54.5L39.8,54.5z M61.2,56.2l-0.6,0l-2.6,3 c-0.9,0.2-1.7,0.3-2.5,0.3h2.7L61.2,56.2L61.2,56.2z M60.2,54.5c-0.3,0.2-0.7,0.4-1,0.6l-2.1,2.5c-1,1-2.1,1.7-3.3,1.8 c1.2-0.1,2.6-0.8,3.5-1.6C58.3,56.7,59.3,55.6,60.2,54.5L60.2,54.5z M60,54.1c-0.9,0.7-2.1,1.6-3,1.8l-1.2,0.3l-4.5,3.4l2.1-0.1 c1.2,0,2.8-1,3.6-2L60,54.1L60,54.1z M60.4,54.9c-0.2,0.1-0.5,0.3-0.8,0.4L57.4,58c-0.8,0.7-1.9,1.2-2.8,1.5c1-0.2,2.2-0.6,3-1.1 C58.5,57.2,59.5,56,60.4,54.9L60.4,54.9z M60.6,55.4c-0.2,0.1-0.4,0.1-0.7,0.2l-2.4,2.8c-0.9,0.5-2.1,1-3.2,1.1 c1.1-0.1,2.4-0.4,3.3-0.8C58.7,57.6,59.7,56.5,60.6,55.4L60.6,55.4z M58.1,59.7l-6.7,0c-0.9,0-0.7,2.3,0,2.3l6.7,0.4 C57.8,61.6,57.8,60.7,58.1,59.7L58.1,59.7z M61.1,59c-0.3-1-0.3-1.7,0-2.5l-2.8,3.2c-0.4,1-0.3,2,0,2.8L61.1,59L61.1,59z M60.8,55.8 c-0.2,0-0.4,0.1-0.5,0.1l-2.5,2.9c-1,0.4-2,0.6-3,0.7c1.1,0,2.2-0.2,3.2-0.4C58.9,58,59.9,56.9,60.8,55.8L60.8,55.8z M38.8,56.2 l3,3.3h2.7c-0.8-0.1-1.6-0.1-2.5-0.3l-2.6-3L38.8,56.2L38.8,56.2z M50.6,60.7c0-0.3,0.1-0.9,0.3-1l4.8-3.5l1.4-0.4 c1-0.2,2.4-1.4,3.3-2L59.3,55c0.4-0.3,0.9-0.6,1.2-0.7l-0.8,0.9c0.4-0.2,0.7-0.3,1-0.5l-0.6,0.8c0.4-0.1,0.7-0.2,0.8-0.3l-0.5,0.6 c0.2,0,0.5-0.1,0.7-0.1l-0.4,0.5l0.8,0c-0.6,0.8-0.7,2.1-0.2,2.9l-2.9,3.7l-7-0.5C50.7,62.2,50.6,61.2,50.6,60.7L50.6,60.7z  M49.3,55.9l0.4-1.5l0.2-0.3L50,54l-0.4,1.3L49.3,55.9L49.3,55.9z M46.8,54.4l1.7-0.6l0.3,0l0.2,0.1l-1.6,0.5L46.8,54.4L46.8,54.4z  M51.3,46.9l1.4-0.5l0.3-0.1l0.4,0l0.2,0.1l-0.4,0.1l-0.1,0l-0.7,0.2L52,46.9L51.3,46.9L51.3,46.9z M47.8,45.2l1.9-0.7l0.4-0.3 l0.8,0.2l-2.2,0.7L47.8,45.2L47.8,45.2z M48.2,46.9l3.7-1.4l0.8-0.5l1.3,0.2l-4.2,1.5L48.2,46.9L48.2,46.9z M55.1,47 c-0.1-0.1-0.2-0.2-0.2-0.4c0-0.1,0.2-0.2,0.3-0.2c0.1,0,0.1,0.4,0,0.5c-0.1,0.1-0.3,0.4-0.4,0.5c-0.2,0-0.3,0.1-0.4-0.1 c0,0-0.1-0.1-0.1-0.1c0.2,0.1,0.3,0.1,0.5,0C54.9,47.2,55,47.1,55.1,47L55.1,47z M55.1,46.8c0-0.1,0-0.2-0.1-0.2c0,0-0.1,0-0.1,0.1 C54.9,46.7,55,46.7,55.1,46.8L55.1,46.8z M53.4,53c0.1-0.1,0.2-0.1,0.3-0.2c0,0,0.2,0,0.2,0c-0.3,0.2-0.4,0.4-0.5,0.7 c-0.1,0.5,0.4,0.6,0.8,0.5c0.1-0.1,0.1-0.1,0.2-0.2c-0.3,0.1-0.9,0.2-0.9-0.3c0-0.3,0.4-0.7,0.7-0.7c0-0.1,0-0.1,0-0.2 c-0.2,0-0.3,0-0.5,0c-0.1,0-0.2,0-0.3,0.1C53.5,52.8,53.4,52.9,53.4,53L53.4,53z M46.7,47.9l0.4-0.5l0.4,0.4l-0.4,0.4L46.7,47.9 L46.7,47.9z M46.2,48.4l-0.4-0.4l0.4-0.5l0.4,0.4L46.2,48.4L46.2,48.4z M47.6,51.4l0.4-0.5l0.4,0.4L48,51.8L47.6,51.4L47.6,51.4z  M47,51.9l-0.4-0.4l0.4-0.4l0.4,0.4L47,51.9L47,51.9z M53.5,49.2c0.2-0.1,0.3-0.2,0.5-0.2c0.5-0.2,0.2-0.7-0.1-0.6 C53.6,48.4,53.5,48.8,53.5,49.2L53.5,49.2z"/>
	<path fill="#FFCC00" d="M50,10.8c21.6,0,39.2,17.6,39.2,39.2S71.6,89.2,50,89.2S10.8,71.6,10.8,50S28.4,10.8,50,10.8L50,10.8z  M45.9,30.3l0.5-0.9l0.8,0.7l0.5,3.7c-0.1,0-0.1,0-0.2,0l-0.6-3.5l-0.5-0.4l-0.3,0.6l0.7,3.5c-0.1,0-0.1,0-0.2,0L45.9,30.3 L45.9,30.3z M44.3,31.2l0.8,0.5l0.4-0.8l0.7,3.2c0,0-0.1,0-0.1,0l-0.7-2.6L45.2,32l-0.6-0.3l0.8,2.6c0,0-0.1,0-0.1,0L44.3,31.2 L44.3,31.2z M52.8,69.9l-0.5-3.7c0.1,0,0.1,0,0.2,0l0.6,3.5l0.5,0.4l0.3-0.6L53.2,66c0.1,0,0.1,0,0.2,0l0.8,3.7l-0.5,0.9L52.8,69.9 L52.8,69.9z M57.5,31.3l-1.4,3.5c-0.1,0-0.1,0-0.2-0.1l1.3-3.3L57,30.8l-0.5,0.4l-1.2,3.3c-0.1,0-0.1,0-0.2-0.1l1.2-3.6l0.9-0.5 L57.5,31.3L57.5,31.3z M36.6,65l2.5-2.8c0.1,0,0.1,0.1,0.2,0.1L36.9,65l0,0.7l0.6-0.2l2.2-2.8c0.1,0,0.1,0.1,0.2,0.1l-2.3,3l-1,0.2 L36.6,65L36.6,65z M36.5,69.3l0-1.3l3.7-4.9c0.1,0,0.1,0.1,0.2,0.1l-3.5,4.9l0,0.7l0.7-0.2l3.4-5c0.1,0,0.1,0.1,0.2,0.1l-3.3,5.1 L36.5,69.3L36.5,69.3z M62.3,31.2l1.2-0.5l0,1.3l-3.7,4.9c-0.1,0-0.1-0.1-0.2-0.1l3.5-4.9l0-0.7l-0.7,0.2l-3.4,5 c-0.1,0-0.1-0.1-0.2-0.1L62.3,31.2L62.3,31.2z M62.4,34.2l1-0.2l0,1.1l-2.5,2.8c-0.1,0-0.1-0.1-0.2-0.1l2.3-2.7l0-0.7l-0.6,0.2 l-2.2,2.8c-0.1,0-0.1-0.1-0.2-0.1L62.4,34.2L62.4,34.2z M36.5,73.4l0-1.7l4.9-7.8c0.1,0,0.1,0.1,0.2,0.1l-4.7,7.9l0,1l0.9-0.5l4.5-8 c0.1,0,0.1,0.1,0.2,0.1L38,72.6L36.5,73.4L36.5,73.4z M62,27.4l1.5-0.9l0,1.7l-4.9,7.8c-0.1,0-0.1-0.1-0.2-0.1l4.7-7.9l0-1l-0.9,0.5 l-4.5,8c-0.1,0-0.1-0.1-0.2-0.1L62,27.4L62,27.4z M60.1,30l-2.8,5.4c-0.1,0-0.1-0.1-0.2-0.1l2.6-5.4l-0.2-0.7l-0.6,0.3l-2.5,5.5 c-0.1,0-0.1-0.1-0.2-0.1l2.4-5.6l1.1-0.7L60.1,30L60.1,30z M40.1,71.3L39.9,70l2.8-5.4c0.1,0,0.1,0.1,0.2,0.1l-2.6,5.4l0.2,0.7 l0.6-0.3l2.5-5.5c0.1,0,0.1,0.1,0.2,0.1l-2.4,5.6L40.1,71.3L40.1,71.3z M55.7,31.2l-1,3.1c0,0-0.1,0-0.1,0l0.8-2.6l-0.6,0.3 l-0.3-0.6l-0.7,2.6c0,0-0.1,0-0.1,0l0.7-3.2l0.5,0.8L55.7,31.2L55.7,31.2z M45.6,69.1l-0.5-0.8l-0.8,0.5l1-3.1c0,0,0.1,0,0.1,0 l-0.8,2.6l0.6-0.3l0.3,0.6l0.7-2.6c0,0,0.1,0,0.1,0L45.6,69.1L45.6,69.1z M43.8,69.1l-0.9,0.5l-0.3-1l1.4-3.5c0.1,0,0.1,0,0.2,0.1 l-1.3,3.3l0.2,0.6l0.5-0.4l1.2-3.3c0.1,0,0.1,0,0.2,0.1L43.8,69.1L43.8,69.1z M65.8,37.6l-3,2.3c0-0.1-0.1-0.1-0.1-0.2l2.8-2.2 l0.2-0.6l-0.7,0l-2.7,2.3c0-0.1-0.1-0.1-0.1-0.2l2.8-2.5l1.1,0L65.8,37.6L65.8,37.6z M30.9,56.2l3.6-1.2c0,0.1,0,0.1,0.1,0.2 l-3.3,1.2L30.8,57l0.6,0.2l3.3-1.3c0,0.1,0,0.1,0.1,0.2l-3.5,1.4l-1-0.3L30.9,56.2L30.9,56.2z M28.7,59.9l0.7-1.1l5.6-2.4 c0,0.1,0.1,0.1,0.1,0.2l-5.5,2.5l-0.3,0.6l0.7,0.2l5.4-2.6c0,0.1,0.1,0.1,0.1,0.2L30,60.1L28.7,59.9L28.7,59.9z M70,39.9l1.3,0.2 l-0.7,1.1L65,43.6c0-0.1-0.1-0.1-0.1-0.2l5.5-2.5l0.3-0.6l-0.7-0.2l-5.4,2.6c0-0.1-0.1-0.1-0.1-0.2L70,39.9L70,39.9z M68.7,42.5 l1,0.3l-0.5,0.9l-3.6,1.2c0-0.1,0-0.1-0.1-0.2l3.3-1.2l0.4-0.5l-0.6-0.2l-3.3,1.3c0-0.1,0-0.1-0.1-0.2L68.7,42.5L68.7,42.5z  M26.6,63.5l0.9-1.5l8.2-4.3c0,0.1,0.1,0.1,0.1,0.2l-8,4.5l-0.5,0.8l1,0l7.9-4.7c0,0.1,0.1,0.1,0.1,0.2l-7.8,4.9L26.6,63.5 L26.6,63.5z M71.7,36.5l1.7,0L72.6,38l-8.2,4.3c0-0.1-0.1-0.1-0.1-0.2l8-4.5l0.5-0.8l-1,0L64,41.5c0-0.1-0.1-0.1-0.1-0.2L71.7,36.5 L71.7,36.5z M68.8,37.7l-5.1,3.3c0-0.1-0.1-0.1-0.1-0.2l5-3.4l0.2-0.7l-0.7,0l-4.9,3.5c0-0.1-0.1-0.1-0.1-0.2l4.9-3.7l1.3,0 L68.8,37.7L68.8,37.7z M30.7,63.5l0.5-1.2l5.1-3.3c0,0.1,0.1,0.1,0.1,0.2l-5,3.4l-0.2,0.7l0.7,0l4.9-3.5c0,0.1,0.1,0.1,0.1,0.2 l-4.9,3.7L30.7,63.5L30.7,63.5z M64.3,36.6l-2.4,2.2c0,0-0.1-0.1-0.1-0.1l2-1.9l-0.6,0l0-0.7l-1.9,2c0,0-0.1-0.1-0.1-0.1l2.3-2.4 l0,0.9L64.3,36.6L64.3,36.6z M36.6,64.3l0-0.9l-0.9,0l2.4-2.2c0,0,0.1,0.1,0.1,0.1l-2,1.9l0.6,0l0,0.7l1.9-2c0,0,0.1,0.1,0.1,0.1 L36.6,64.3L36.6,64.3z M35,63.4l-1.1,0l0.2-1l3-2.3c0,0.1,0.1,0.1,0.1,0.2l-2.8,2.2l-0.2,0.6l0.7,0l2.7-2.3c0,0.1,0.1,0.1,0.1,0.2 L35,63.4L35,63.4z M69.9,47.2l-3.7,0.5c0-0.1,0-0.1,0-0.2l3.5-0.6l0.4-0.5l-0.6-0.3L66,46.8c0-0.1,0-0.1,0-0.2l3.7-0.8l0.9,0.5 L69.9,47.2L69.9,47.2z M30.3,45.9l3.7,0.8c0,0.1,0,0.1,0,0.2l-3.5-0.7l-0.6,0.3l0.4,0.5l3.5,0.6c0,0.1,0,0.1,0,0.2l-3.7-0.5 l-0.7-0.8L30.3,45.9L30.3,45.9z M26.6,48l1.2-0.6l6,0.7c0,0.1,0,0.1,0,0.2l-6-0.6L27.2,48l0.5,0.5l6,0.4c0,0.1,0,0.1,0,0.2l-6.1-0.3 L26.6,48L26.6,48z M72.4,51.2l1,0.8l-1.2,0.6l-6-0.7c0-0.1,0-0.1,0-0.2l6,0.6l0.6-0.4l-0.5-0.5l-6-0.4c0-0.1,0-0.1,0-0.2L72.4,51.2 L72.4,51.2z M69.9,52.8l0.7,0.8l-0.9,0.5L66,53.4c0-0.1,0-0.1,0-0.2l3.5,0.7l0.6-0.3l-0.4-0.5l-3.5-0.6c0-0.1,0-0.1,0-0.2L69.9,52.8 L69.9,52.8z M22.9,50l1.5-0.8l9.2,0.3c0,0.1,0,0.1,0,0.2l-9.2-0.2L23.7,50l0.8,0.5l9.2-0.2c0,0.1,0,0.1,0,0.2l-9.2,0.3L22.9,50 L22.9,50z M75.6,49.1l1.5,0.9l-1.5,0.8l-9.2-0.3c0-0.1,0-0.1,0-0.2l9.2,0.2l0.8-0.5l-0.8-0.5l-9.2,0.2c0-0.1,0-0.1,0-0.2L75.6,49.1 L75.6,49.1z M72.4,48.8l-6.1,0.3c0-0.1,0-0.1,0-0.2l6-0.4l0.5-0.5l-0.6-0.4l-6,0.6c0-0.1,0-0.1,0-0.2l6-0.7l1.2,0.6L72.4,48.8 L72.4,48.8z M26.6,52l1-0.8l6.1-0.3c0,0.1,0,0.1,0,0.2l-6,0.4L27.2,52l0.6,0.4l6-0.6c0,0.1,0,0.1,0,0.2l-6,0.7L26.6,52L26.6,52z  M69.1,45.5l-3.2,0.7c0,0,0-0.1,0-0.1l2.6-0.7L68,45.2l0.3-0.6l-2.6,0.8c0,0,0-0.1,0-0.1l3.1-1l-0.5,0.8L69.1,45.5L69.1,45.5z  M31.2,55.7l0.5-0.8l-0.8-0.4l3.2-0.7c0,0,0,0.1,0,0.1l-2.6,0.7l0.6,0.3l-0.3,0.6l2.6-0.8c0,0,0,0.1,0,0.1L31.2,55.7L31.2,55.7z  M30.3,54.1l-0.9-0.5l0.7-0.8l3.7-0.5c0,0.1,0,0.1,0,0.2l-3.5,0.6l-0.4,0.5l0.6,0.3l3.5-0.7c0,0.1,0,0.1,0,0.2L30.3,54.1L30.3,54.1z  M68.7,57.5l-3.5-1.4c0-0.1,0-0.1,0.1-0.2l3.3,1.3l0.6-0.2l-0.4-0.5l-3.3-1.2c0-0.1,0-0.1,0.1-0.2l3.6,1.2l0.5,0.9L68.7,57.5 L68.7,57.5z M35,36.6l2.8,2.5c0,0.1-0.1,0.1-0.1,0.2L35,36.9l-0.7,0l0.2,0.6l2.8,2.2c0,0.1-0.1,0.1-0.1,0.2l-3-2.3l-0.2-1L35,36.6 L35,36.6z M30.7,36.5l1.3,0l4.9,3.7c0,0.1-0.1,0.1-0.1,0.2l-4.9-3.5l-0.7,0l0.2,0.7l5,3.4c0,0.1-0.1,0.1-0.1,0.2l-5.1-3.3L30.7,36.5 L30.7,36.5z M68.8,62.3l0.5,1.2l-1.3,0l-4.9-3.7c0-0.1,0.1-0.1,0.1-0.2l4.9,3.5l0.7,0l-0.2-0.7l-5-3.4c0-0.1,0.1-0.1,0.1-0.2 L68.8,62.3L68.8,62.3z M65.8,62.4l0.2,1l-1.1,0l-2.8-2.5c0-0.1,0.1-0.1,0.1-0.2l2.7,2.3l0.7,0l-0.2-0.6l-2.8-2.2 c0-0.1,0.1-0.1,0.1-0.2L65.8,62.4L65.8,62.4z M26.6,36.5l1.7,0l7.8,4.9c0,0.1-0.1,0.1-0.1,0.2l-7.9-4.7l-1,0l0.5,0.9l8,4.5 c0,0.1-0.1,0.1-0.1,0.2L27.4,38L26.6,36.5L26.6,36.5z M72.6,62l0.9,1.5l-1.7,0l-7.8-4.9c0-0.1,0.1-0.1,0.1-0.2l7.9,4.7l1,0l-0.5-0.9 l-8-4.5c0-0.1,0.1-0.1,0.1-0.2L72.6,62L72.6,62z M70,60.1l-5.4-2.8c0-0.1,0.1-0.1,0.1-0.2l5.4,2.6l0.7-0.2l-0.3-0.6l-5.5-2.5 c0-0.1,0.1-0.1,0.1-0.2l5.6,2.4l0.7,1.1L70,60.1L70,60.1z M28.7,40.1l1.3-0.2l5.4,2.8c0,0.1-0.1,0.1-0.1,0.2l-5.4-2.6l-0.7,0.2 l0.3,0.6l5.5,2.5c0,0.1-0.1,0.1-0.1,0.2l-5.6-2.4L28.7,40.1L28.7,40.1z M68.8,55.7l-3.1-1c0,0,0-0.1,0-0.1l2.6,0.8l-0.3-0.6l0.6-0.3 l-2.6-0.7c0,0,0-0.1,0-0.1l3.2,0.7l-0.8,0.5L68.8,55.7L68.8,55.7z M30.9,45.6l0.8-0.5l-0.5-0.8l3.1,1c0,0,0,0.1,0,0.1l-2.6-0.8 l0.3,0.6l-0.6,0.3l2.6,0.7c0,0,0,0.1,0,0.1L30.9,45.6L30.9,45.6z M30.9,43.8l-0.5-0.9l1-0.3l3.5,1.4c0,0.1,0,0.1-0.1,0.2l-3.3-1.3 L30.8,43l0.4,0.5l3.3,1.2c0,0.1,0,0.1-0.1,0.2L30.9,43.8L30.9,43.8z M62.4,65.8l-2.3-3c0.1,0,0.1-0.1,0.2-0.1l2.2,2.8l0.6,0.2l0-0.7 l-2.3-2.7c0.1,0,0.1-0.1,0.2-0.1l2.5,2.8l0,1.1L62.4,65.8L62.4,65.8z M43.8,30.9l1.2,3.6c-0.1,0-0.1,0-0.2,0.1l-1.2-3.3L43,30.8 l-0.2,0.6l1.3,3.3c-0.1,0-0.1,0-0.2,0.1l-1.4-3.5l0.3-1L43.8,30.9L43.8,30.9z M40.1,28.7l1.1,0.7l2.4,5.6c-0.1,0-0.1,0.1-0.2,0.1 l-2.5-5.5l-0.6-0.3l-0.2,0.7l2.6,5.4c-0.1,0-0.1,0.1-0.2,0.1L39.9,30L40.1,28.7L40.1,28.7z M60.1,70l-0.2,1.3l-1.1-0.7L56.4,65 c0.1,0,0.1-0.1,0.2-0.1l2.5,5.5l0.6,0.3l0.2-0.7l-2.6-5.4c0.1,0,0.1-0.1,0.2-0.1L60.1,70L60.1,70z M57.5,68.7l-0.3,1l-0.9-0.5 l-1.2-3.6c0.1,0,0.1,0,0.2-0.1l1.2,3.3l0.5,0.4l0.2-0.6l-1.3-3.3c0.1,0,0.1,0,0.2-0.1L57.5,68.7L57.5,68.7z M36.5,26.6l1.5,0.9 l4.3,8.2c-0.1,0-0.1,0.1-0.2,0.1l-4.5-8l-0.8-0.5l0,1l4.7,7.9c-0.1,0-0.1,0.1-0.2,0.1l-4.9-7.8L36.5,26.6L36.5,26.6z M63.5,71.7 l0,1.7L62,72.6l-4.3-8.2c0.1,0,0.1-0.1,0.2-0.1l4.5,8l0.8,0.5l0-1L58.5,64c0.1,0,0.1-0.1,0.2-0.1L63.5,71.7L63.5,71.7z M62.3,68.8 l-3.3-5.1c0.1,0,0.1-0.1,0.2-0.1l3.4,5l0.7,0.2l0-0.7l-3.5-4.9c0.1,0,0.1-0.1,0.2-0.1l3.7,4.9l0,1.3L62.3,68.8L62.3,68.8z  M36.5,30.7l1.2,0.5l3.3,5.1c-0.1,0-0.1,0.1-0.2,0.1l-3.4-5l-0.7-0.2l0,0.7l3.5,4.9c-0.1,0-0.1,0.1-0.2,0.1l-3.7-4.9L36.5,30.7 L36.5,30.7z M63.4,64.3l-2.2-2.4c0,0,0.1-0.1,0.1-0.1l1.9,2l0-0.6l0.7,0l-2-1.9c0,0,0.1-0.1,0.1-0.1l2.4,2.3l-0.9,0L63.4,64.3 L63.4,64.3z M35.7,36.6l0.9,0l0-0.9l2.2,2.4c0,0-0.1,0.1-0.1,0.1l-1.9-2l0,0.6l-0.7,0l2,1.9c0,0-0.1,0.1-0.1,0.1L35.7,36.6 L35.7,36.6z M36.6,35l0-1.1l1,0.2l2.3,3c-0.1,0-0.1,0.1-0.2,0.1l-2.2-2.8l-0.6-0.2l0,0.7l2.3,2.7c-0.1,0-0.1,0.1-0.2,0.1L36.6,35 L36.6,35z M54.1,30.3L53.4,34c-0.1,0-0.1,0-0.2,0l0.7-3.5l-0.3-0.6l-0.5,0.4l-0.6,3.5c-0.1,0-0.1,0-0.2,0l0.5-3.7l0.8-0.7L54.1,30.3 L54.1,30.3z M52,26.6l0.6,1.2l-0.7,6c-0.1,0-0.1,0-0.2,0l0.6-6L52,27.2l-0.5,0.5l-0.4,6c-0.1,0-0.1,0-0.2,0l0.3-6.1L52,26.6L52,26.6 z M48.8,72.4l-0.8,1l-0.6-1.2l0.7-6c0.1,0,0.1,0,0.2,0l-0.6,6l0.4,0.6l0.5-0.5l0.4-6c0.1,0,0.1,0,0.2,0L48.8,72.4L48.8,72.4z  M47.2,69.9l-0.8,0.7l-0.5-0.9l0.8-3.7c0.1,0,0.1,0,0.2,0l-0.7,3.5l0.3,0.6l0.5-0.4l0.6-3.5c0.1,0,0.1,0,0.2,0L47.2,69.9L47.2,69.9z  M50,22.9l0.8,1.5l-0.3,9.2c-0.1,0-0.1,0-0.2,0l0.2-9.2L50,23.7l-0.5,0.8l0.2,9.2c-0.1,0-0.1,0-0.2,0l-0.3-9.2L50,22.9L50,22.9z  M50.9,75.6L50,77.1l-0.8-1.5l0.3-9.2c0.1,0,0.1,0,0.2,0l-0.2,9.2l0.5,0.8l0.5-0.8l-0.2-9.2c0.1,0,0.1,0,0.2,0L50.9,75.6L50.9,75.6z  M51.2,72.4l-0.3-6.1c0.1,0,0.1,0,0.2,0l0.4,6l0.5,0.5l0.4-0.6l-0.6-6c0.1,0,0.1,0,0.2,0l0.7,6L52,73.4L51.2,72.4L51.2,72.4z  M48,26.6l0.8,1l0.3,6.1c-0.1,0-0.1,0-0.2,0l-0.4-6L48,27.2l-0.4,0.6l0.6,6c-0.1,0-0.1,0-0.2,0l-0.7-6L48,26.6L48,26.6z M54.5,69.1 l-0.7-3.2c0,0,0.1,0,0.1,0l0.7,2.6l0.3-0.6l0.6,0.3l-0.8-2.6c0,0,0.1,0,0.1,0l1,3.1l-0.8-0.5L54.5,69.1L54.5,69.1z M54.1,50.9 l1.4,0.2L55,51.6c-0.4,0.1-1,0.2-1.5,0.3c-0.4,0.5-0.9,1-1.4,1.3c0.2,0.2,0.6,0.4,0.8,0.7l-0.2,0.6c-0.4-0.3-0.9-0.6-1.3-0.9 c-0.6,0.2-1.2,0.4-1.9,0.4c-0.2,0-0.5,0-0.7-0.1l-1.1,0.3l-0.6,0l1.4-0.5c-0.3-0.1-0.5-0.1-0.8-0.2C47,53.9,46.6,54,46.1,54 c-1.2-0.1-0.9-0.9-0.7-1.9c-0.2-0.3-0.4-0.6-0.6-0.9c-0.5-0.3-0.6-0.9-0.5-1.6c0-0.2,0-0.4,0-0.6c0-2.8,2.3-5.1,5.1-5.1 c1.2,0,2.3,0.4,3.2,1.1l0.1-0.1l1.3,0.2l-0.9,0.3c0.6,0.6,1,1.3,1.2,2.1c0.2,0.1,0.4,0.3,0.5,0.6c0.2,0.5,0.1,0.8-0.3,1 C54.4,49.8,54.3,50.4,54.1,50.9L54.1,50.9z M45.5,52.3c0,0.6,0.1,1.1,0.7,1.1c0.2,0,0.5,0,0.7,0C46.3,53.1,45.9,52.7,45.5,52.3 L45.5,52.3z M49.3,55.9l0.4-1.5l0.2-0.3L50,54l-0.4,1.3L49.3,55.9L49.3,55.9z M55.1,47c-0.1-0.1-0.2-0.2-0.2-0.4 c0-0.1,0.2-0.2,0.3-0.2c0.1,0,0.1,0.4,0,0.5c-0.1,0.1-0.3,0.4-0.4,0.5c-0.2,0-0.3,0.1-0.4-0.1c0,0-0.1-0.1-0.1-0.1 c0.2,0.1,0.3,0.1,0.5,0C54.9,47.2,55,47.1,55.1,47L55.1,47z M55.1,46.8c0-0.1,0-0.2-0.1-0.2c0,0-0.1,0-0.1,0.1 C54.9,46.7,55,46.7,55.1,46.8L55.1,46.8z M53.4,53c0.1-0.1,0.2-0.1,0.3-0.2c0,0,0.2,0,0.2,0c-0.3,0.2-0.4,0.4-0.5,0.7 c-0.1,0.5,0.4,0.6,0.8,0.5c0.1-0.1,0.1-0.1,0.2-0.2c-0.3,0.1-0.9,0.2-0.9-0.3c0-0.3,0.4-0.7,0.7-0.7c0-0.1,0-0.1,0-0.2 c-0.2,0-0.3,0-0.5,0c-0.1,0-0.2,0-0.3,0.1C53.5,52.8,53.4,52.9,53.4,53L53.4,53z M50,43.3c3.7,0,6.7,3,6.7,6.7c0,3.7-3,6.7-6.7,6.7 c-3.7,0-6.7-3-6.7-6.7C43.3,46.3,46.3,43.3,50,43.3L50,43.3z M36.5,80.7c-5.9-2.4-10.3-7.9-13.9-12.9c3.1,3.9,8.4,9.5,13.7,11.8 c0.3,0.1,0.7,0.3,1,0.4c0.5,0.4,0.9,0.7,1.1,1c0,0,0,0,0,0C37.8,81,37.1,80.9,36.5,80.7L36.5,80.7z M61.9,82.1 c0.7-0.1,1.3-0.3,2-0.5c6-1.4,11-6,15-10.5c-2.8,3.5-6.5,7.7-11,10.1c-0.7,0.3-1.4,0.6-2.1,0.9C64,82.8,62.7,83,61.9,82.1 C61.9,82.2,61.9,82.2,61.9,82.1C61.9,82.2,61.9,82.1,61.9,82.1L61.9,82.1z M63.5,80.7c-0.7,0.2-1.3,0.3-2,0.4c0,0,0,0,0,0 c0.2-0.3,0.6-0.7,1.1-1c0.3-0.1,0.7-0.2,1-0.4c5.4-2.3,10.6-7.9,13.7-11.8C73.8,72.8,69.4,78.3,63.5,80.7L63.5,80.7z M38.1,82.1 C38.1,82.1,38.1,82.2,38.1,82.1C38.1,82.2,38.1,82.2,38.1,82.1c-0.8,0.9-2.2,0.7-3.9,0c-0.7-0.3-1.4-0.6-2.1-0.9 c-4.4-2.4-8.2-6.6-11-10.1c4,4.5,9,9.1,15,10.5C36.8,81.9,37.5,82,38.1,82.1L38.1,82.1z M50,21.9c15.5,0,28.1,12.6,28.1,28.1 S65.5,78.1,50,78.1S21.9,65.5,21.9,50S34.5,21.9,50,21.9L50,21.9z M50,22.3c15.3,0,27.7,12.4,27.7,27.7S65.3,77.7,50,77.7 S22.3,65.3,22.3,50S34.7,22.3,50,22.3L50,22.3z M50,11.3c21.3,0,38.7,17.4,38.7,38.7S71.3,88.7,50,88.7S11.3,71.3,11.3,50 S28.7,11.3,50,11.3L50,11.3z"/>
	<path fill="#FFED00" d="M47.5,33.9c-0.2,0-0.4,0.1-0.6,0.1l-0.7-3.5l0.3-0.6l0.5,0.4L47.5,33.9L47.5,33.9z M49.4,43.9 c1.2,0,2.3,0.4,3.2,1.1l-0.7,0.4l-3.7,1.4l1.6-0.2l3.3-1.1c0.6,0.6,1,1.3,1.2,2.1c-0.1-0.1-0.3-0.1-0.4,0c-0.5,0.2-0.7,1.1-0.5,1.6 c-1.3,0.1-2.3,0.4-3.1,1.6l3.4,0.6c-1.6,0.2-2.5,0.8-2.4,1.4c-1.1-1.1-1-1.5-1.3-3.1c0.7-0.3,0.9-1.1,1.3-1.6 c0.2,0.1,0.3-0.1,0.5-0.3c0,0.1,0.2,0.2,0.3,0.2c0.5-0.2,0.4-0.6,0.4-1.2c-0.1,0.4,0,0.6-0.4,0.7c-0.3,0-0.3-0.3-0.3-0.5 c-0.1,0.2-0.1,0.6-0.3,0.6c-0.2,0-0.2-0.4-0.3-0.6c-0.1,0.4-0.2,0.8,0.1,1.1c-0.5,0.4-0.8,1.4-1.4,1.4c-0.1-0.8-0.2-1.6-0.6-2.3 l-0.5,0.8c0.4,0.5,0.4,1,0.5,1.6c-0.9,0-2-1.8-3.1-1c-0.3,0.3-0.2,1.6-0.8,1.6c-1.5,0.2-1.1-1.4-0.9-2.2l-0.2,0.6 c-0.1,0.3-0.1,0.5-0.1,0.8c0-0.2,0-0.4,0-0.6C44.3,46.2,46.6,43.9,49.4,43.9L49.4,43.9z M54.4,49.2c0,0.6-0.2,1.2-0.4,1.7l-2.6-0.4 c0-0.3,0.9-0.7,2.1-0.9c0.1,0.2,0.3,0.3,0.4,0.5l-0.2-0.6C54,49.5,54.2,49.4,54.4,49.2L54.4,49.2z M53.5,52c-0.4,0.5-0.9,1-1.4,1.3 c-0.1-0.1-0.2-0.3-0.2-0.5C51.8,52.3,52.6,52.1,53.5,52L53.5,52z M51.3,53.7c-0.6,0.2-1.2,0.4-1.9,0.4c-0.2,0-0.5,0-0.7-0.1l0.5-0.1 l-0.2-0.1l-0.3,0l-0.4,0.1c-0.3-0.1-0.5-0.1-0.8-0.2c0.6-0.3,1.1-0.7,1.6-1.2c0.2-0.2,0.6-0.4,0.6-0.7 C50.1,52.5,50.6,53.2,51.3,53.7L51.3,53.7z M46.8,53.4c-0.5-0.3-1-0.7-1.3-1.1c0-0.3,0-0.6,0-0.9c0,0.2-0.1,0.5-0.1,0.7 c-0.2-0.3-0.4-0.6-0.6-0.9c0.2,0.1,0.5,0.1,0.8,0.1c0.7-0.1,0.8-1.7,1.2-2.2c0.7-0.7,1.7,1,2.6,0.8l0.2,1.4c0,0.3-0.2,0.6-0.5,0.8 C48.3,52.6,47.6,53.2,46.8,53.4L46.8,53.4z M51.3,46.9l1.4-0.5l0.3-0.1l0.4,0l0.2,0.1l-0.4,0.1l-0.1,0l-0.7,0.2L52,46.9L51.3,46.9 L51.3,46.9z M47.8,45.2l1.9-0.7l0.4-0.3l0.8,0.2l-2.2,0.7L47.8,45.2L47.8,45.2z M46.7,47.9l0.4-0.5l0.4,0.4l-0.4,0.4L46.7,47.9 L46.7,47.9z M46.2,48.4l-0.4-0.4l0.4-0.5l0.4,0.4L46.2,48.4L46.2,48.4z M47.6,51.4l0.4-0.5l0.4,0.4L48,51.8L47.6,51.4L47.6,51.4z  M47,51.9l-0.4-0.4l0.4-0.4l0.4,0.4L47,51.9L47,51.9z M53.5,49.2c0.2-0.1,0.3-0.2,0.5-0.2c0.5-0.2,0.2-0.7-0.1-0.6 C53.6,48.4,53.5,48.8,53.5,49.2L53.5,49.2z M50,23.7l0.5,0.8l-0.2,9.2c-0.1,0-0.2,0-0.3,0c-0.1,0-0.2,0-0.3,0l-0.2-9.2L50,23.7 L50,23.7z M63.2,27.2l0,1L58.5,36c-0.2-0.1-0.4-0.2-0.6-0.3l4.5-8L63.2,27.2L63.2,27.2z M63.1,31.2l0,0.7l-3.5,4.9 c-0.2-0.1-0.4-0.3-0.5-0.4l3.4-5L63.1,31.2L63.1,31.2z M63.1,34.4l0,0.7l-2.3,2.7c-0.2-0.1-0.3-0.3-0.5-0.4l2.2-2.8L63.1,34.4 L63.1,34.4z M54.5,31.5l0.3,0.6l0.6-0.3l-0.8,2.6c-0.3-0.1-0.5-0.1-0.8-0.2L54.5,31.5L54.5,31.5z M57,30.8l0.2,0.6l-1.3,3.3 c-0.2-0.1-0.4-0.2-0.6-0.2l1.2-3.3L57,30.8L57,30.8z M59.7,29.2l0.2,0.7l-2.6,5.4c-0.2-0.1-0.4-0.2-0.6-0.3l2.5-5.5L59.7,29.2 L59.7,29.2z M72.8,36.8l-0.5,0.8l-8,4.5c-0.1-0.2-0.2-0.4-0.3-0.6l7.9-4.7L72.8,36.8L72.8,36.8z M70.8,40.3l-0.3,0.6l-5.5,2.5 c-0.1-0.2-0.2-0.4-0.3-0.6l5.4-2.6L70.8,40.3L70.8,40.3z M69.2,43l-0.4,0.5l-3.3,1.2c-0.1-0.2-0.1-0.4-0.2-0.6l3.3-1.3L69.2,43 L69.2,43z M63.2,36.2l0,0.7l0.6,0l-2,1.9c-0.2-0.2-0.4-0.4-0.6-0.6L63.2,36.2L63.2,36.2z M65.6,36.9l-0.2,0.6l-2.8,2.2 c-0.1-0.2-0.3-0.3-0.4-0.5l2.7-2.3L65.6,36.9L65.6,36.9z M68.8,36.9l-0.2,0.7l-5,3.4c-0.1-0.2-0.3-0.4-0.4-0.5l4.9-3.5L68.8,36.9 L68.8,36.9z M76.3,50l-0.8,0.5l-9.2-0.2c0-0.1,0-0.2,0-0.3c0-0.1,0-0.2,0-0.3l9.2-0.2L76.3,50L76.3,50z M72.8,52l-0.6,0.4l-6-0.6 c0-0.2,0-0.4,0.1-0.7l6,0.4L72.8,52L72.8,52z M70.1,53.5l-0.6,0.3L66,53.2c0-0.2,0.1-0.4,0.1-0.6l3.5,0.6L70.1,53.5L70.1,53.5z  M68.3,44.6L68,45.2l0.6,0.3l-2.6,0.7c-0.1-0.3-0.1-0.5-0.2-0.8L68.3,44.6L68.3,44.6z M70.1,46.5l-0.4,0.5l-3.5,0.6 c0-0.2-0.1-0.4-0.1-0.6l3.5-0.7L70.1,46.5L70.1,46.5z M72.8,48l-0.5,0.5l-6,0.4c0-0.2,0-0.4-0.1-0.7l6-0.6L72.8,48L72.8,48z  M72.8,63.2l-1,0L64,58.5c0.1-0.2,0.2-0.4,0.3-0.6l8,4.5L72.8,63.2L72.8,63.2z M68.8,63.1l-0.7,0l-4.9-3.5c0.1-0.2,0.3-0.4,0.4-0.5 l5,3.4L68.8,63.1L68.8,63.1z M65.6,63.1l-0.7,0l-2.7-2.3c0.1-0.2,0.3-0.3,0.4-0.5l2.8,2.2L65.6,63.1L65.6,63.1z M68.5,54.5l-0.6,0.3 l0.3,0.6l-2.6-0.8c0.1-0.3,0.1-0.5,0.2-0.8L68.5,54.5L68.5,54.5z M69.2,57l-0.6,0.2l-3.3-1.3c0.1-0.2,0.2-0.4,0.2-0.6l3.3,1.2 L69.2,57L69.2,57z M70.8,59.7l-0.7,0.2l-5.4-2.6c0.1-0.2,0.2-0.4,0.3-0.6l5.5,2.5L70.8,59.7L70.8,59.7z M63.2,72.8l-0.8-0.5l-4.5-8 c0.2-0.1,0.4-0.2,0.6-0.3l4.7,7.9L63.2,72.8L63.2,72.8z M59.7,70.8l-0.6-0.3l-2.5-5.5c0.2-0.1,0.4-0.2,0.6-0.3l2.6,5.4L59.7,70.8 L59.7,70.8z M57,69.2l-0.5-0.4l-1.2-3.3c0.2-0.1,0.4-0.1,0.6-0.2l1.3,3.3L57,69.2L57,69.2z M63.8,63.2l-0.7,0l0,0.6l-1.9-2 c0.2-0.2,0.4-0.4,0.6-0.6L63.8,63.2L63.8,63.2z M63.1,65.6l-0.6-0.2l-2.2-2.8c0.2-0.1,0.3-0.3,0.5-0.4l2.3,2.7L63.1,65.6L63.1,65.6z  M63.1,68.8l-0.7-0.2l-3.4-5c0.2-0.1,0.4-0.3,0.5-0.4l3.5,4.9L63.1,68.8L63.1,68.8z M50,76.3l-0.5-0.8l0.2-9.2c0.1,0,0.2,0,0.3,0 c0.1,0,0.2,0,0.3,0l0.2,9.2L50,76.3L50,76.3z M48,72.8l-0.4-0.6l0.6-6c0.2,0,0.4,0,0.7,0.1l-0.4,6L48,72.8L48,72.8z M46.5,70.1 l-0.3-0.6l0.7-3.5c0.2,0,0.4,0.1,0.6,0.1l-0.6,3.5L46.5,70.1L46.5,70.1z M55.4,68.3L54.8,68l-0.3,0.6l-0.7-2.6 c0.3-0.1,0.5-0.1,0.8-0.2L55.4,68.3L55.4,68.3z M53.5,70.1l-0.5-0.4l-0.6-3.5c0.2,0,0.4-0.1,0.6-0.1l0.7,3.5L53.5,70.1L53.5,70.1z  M52,72.8l-0.5-0.5l-0.4-6c0.2,0,0.4,0,0.7-0.1l0.6,6L52,72.8L52,72.8z M36.8,72.8l0-1l4.7-7.9c0.2,0.1,0.4,0.2,0.6,0.3l-4.5,8 L36.8,72.8L36.8,72.8z M36.9,68.8l0-0.7l3.5-4.9c0.2,0.1,0.4,0.3,0.5,0.4l-3.4,5L36.9,68.8L36.9,68.8z M36.9,65.6l0-0.7l2.3-2.7 c0.2,0.1,0.3,0.3,0.5,0.4l-2.2,2.8L36.9,65.6L36.9,65.6z M45.5,68.5l-0.3-0.6l-0.6,0.3l0.8-2.6c0.3,0.1,0.5,0.1,0.8,0.2L45.5,68.5 L45.5,68.5z M43,69.2l-0.2-0.6l1.3-3.3c0.2,0.1,0.4,0.2,0.6,0.2l-1.2,3.3L43,69.2L43,69.2z M40.3,70.8l-0.2-0.7l2.6-5.4 c0.2,0.1,0.4,0.2,0.6,0.3l-2.5,5.5L40.3,70.8L40.3,70.8z M27.2,63.2l0.5-0.8l8-4.5c0.1,0.2,0.2,0.4,0.3,0.6l-7.9,4.7L27.2,63.2 L27.2,63.2z M29.2,59.7l0.3-0.6l5.5-2.5c0.1,0.2,0.2,0.4,0.3,0.6l-5.4,2.6L29.2,59.7L29.2,59.7z M30.8,57l0.4-0.5l3.3-1.2 c0.1,0.2,0.1,0.4,0.2,0.6l-3.3,1.3L30.8,57L30.8,57z M36.8,63.8l0-0.7l-0.6,0l2-1.9c0.2,0.2,0.4,0.4,0.6,0.6L36.8,63.8L36.8,63.8z  M34.4,63.1l0.2-0.6l2.8-2.2c0.1,0.2,0.3,0.3,0.4,0.5L35,63.1L34.4,63.1L34.4,63.1z M31.2,63.1l0.2-0.7l5-3.4 c0.1,0.2,0.3,0.4,0.4,0.5l-4.9,3.5L31.2,63.1L31.2,63.1z M23.7,50l0.8-0.5l9.2,0.2c0,0.1,0,0.2,0,0.3c0,0.1,0,0.2,0,0.3l-9.2,0.2 L23.7,50L23.7,50z M27.2,48l0.6-0.4l6,0.6c0,0.2,0,0.4-0.1,0.7l-6-0.4L27.2,48L27.2,48z M29.9,46.5l0.6-0.3l3.5,0.7 c0,0.2-0.1,0.4-0.1,0.6l-3.5-0.6L29.9,46.5L29.9,46.5z M31.7,55.4l0.3-0.6l-0.6-0.3l2.6-0.7c0.1,0.3,0.1,0.5,0.2,0.8L31.7,55.4 L31.7,55.4z M29.9,53.5l0.4-0.5l3.5-0.6c0,0.2,0.1,0.4,0.1,0.6l-3.5,0.7L29.9,53.5L29.9,53.5z M27.2,52l0.5-0.5l6-0.4 c0,0.2,0,0.4,0.1,0.7l-6,0.6L27.2,52L27.2,52z M27.2,36.8l1,0l7.9,4.7c-0.1,0.2-0.2,0.4-0.3,0.6l-8-4.5L27.2,36.8L27.2,36.8z  M31.2,36.9l0.7,0l4.9,3.5c-0.1,0.2-0.3,0.4-0.4,0.5l-5-3.4L31.2,36.9L31.2,36.9z M34.4,36.9l0.7,0l2.7,2.3 c-0.1,0.2-0.3,0.3-0.4,0.5l-2.8-2.2L34.4,36.9L34.4,36.9z M31.5,45.5l0.6-0.3l-0.3-0.6l2.6,0.8c-0.1,0.3-0.1,0.5-0.2,0.8L31.5,45.5 L31.5,45.5z M30.8,43l0.6-0.2l3.3,1.3c-0.1,0.2-0.2,0.4-0.2,0.6l-3.3-1.2L30.8,43L30.8,43z M29.2,40.3l0.7-0.2l5.4,2.6 c-0.1,0.2-0.2,0.4-0.3,0.6l-5.5-2.5L29.2,40.3L29.2,40.3z M36.8,27.2l0.8,0.5l4.5,8c-0.2,0.1-0.4,0.2-0.6,0.3l-4.7-7.9L36.8,27.2 L36.8,27.2z M40.3,29.2l0.6,0.3l2.5,5.5c-0.2,0.1-0.4,0.2-0.6,0.3l-2.6-5.4L40.3,29.2L40.3,29.2z M43,30.8l0.5,0.4l1.2,3.3 c-0.2,0.1-0.4,0.1-0.6,0.2l-1.3-3.3L43,30.8L43,30.8z M36.2,36.8l0.7,0l0-0.6l1.9,2c-0.2,0.2-0.4,0.4-0.6,0.6L36.2,36.8L36.2,36.8z  M36.9,34.4l0.6,0.2l2.2,2.8c-0.2,0.1-0.3,0.3-0.5,0.4L36.9,35L36.9,34.4L36.9,34.4z M36.9,31.2l0.7,0.2l3.4,5 c-0.2,0.1-0.4,0.3-0.5,0.4l-3.5-4.9L36.9,31.2L36.9,31.2z M52,27.2l0.4,0.6l-0.6,6c-0.2,0-0.4,0-0.7-0.1l0.4-6L52,27.2L52,27.2z  M53.5,29.9l0.3,0.6L53.2,34c-0.2,0-0.4-0.1-0.6-0.1l0.6-3.5L53.5,29.9L53.5,29.9z M44.6,31.7l0.6,0.3l0.3-0.6l0.7,2.6 c-0.3,0.1-0.5,0.1-0.8,0.2L44.6,31.7L44.6,31.7z M48,27.2l0.5,0.5l0.4,6c-0.2,0-0.4,0-0.7,0.1l-0.6-6L48,27.2L48,27.2z"/>
</svg>