<svg xmlns="http://www.w3.org/2000/svg" viewBox="0 0 30 30">
	<title>Image Default</title>
	<rect fill="#f9f9f9" width="30" height="30"/>
	<path fill="#eee" d="M13.6,13.7h0.5l0.4-0.4h1.1l0.4,0.4h0.5c0.2,0,0.4,0.2,0.4,0.4v2.1c0,0.2-0.2,0.4-0.4,0.4h-2.9 c-0.2,0-0.4-0.2-0.4-0.4v-2.1C13.2,13.9,13.4,13.7,13.6,13.7 M15,14.3c-0.5,0-0.9,0.4-0.9,0.9c0,0.5,0.4,0.9,0.9,0.9 s0.9-0.4,0.9-0.9C15.9,14.7,15.5,14.3,15,14.3 M15,14.6c0.3,0,0.5,0.2,0.5,0.5c0,0.3-0.2,0.5-0.5,0.5s-0.5-0.2-0.5-0.5 C14.5,14.9,14.7,14.6,15,14.6z"/>
</svg>