<svg xmlns="http://www.w3.org/2000/svg" viewBox="0 0 24 24">
	<title>Adobe Illustrator</title>
	<path fill="#1c0a00" d="M5.5,2l12.9,0c2,0 3.5,1.6 3.5,3.6l0,12.7c0,2 -1.6,3.6 -3.5,3.6l-12.9,-0c-2,-0 -3.5,-1.6 -3.5,-3.6l0,-12.7c0,-2 1.6,-3.6 3.5,-3.6Z"/>
	<path fill="#ff7f18" d="M14.777,10.081c-0,-0.062 0.023,-0.093 0.092,-0.093l1.214,0c0.061,0 0.092,0.023 0.092,0.093l-0,6.097c-0,0.062 -0.015,0.093 -0.092,0.093l-1.198,0c-0.077,0 -0.101,-0.039 -0.101,-0.101l-0,-6.089l-0.007,0Zm-0.085,-1.755c-0,-0.494 0.347,-0.788 0.788,-0.788c0.471,0 0.788,0.317 0.788,0.788c-0,0.51 -0.332,0.789 -0.804,0.789c-0.448,0 -0.772,-0.279 -0.772,-0.789Zm-3.478,4.297c-0.216,-0.858 -0.726,-2.728 -0.92,-3.632l-0.015,0c-0.162,0.904 -0.572,2.434 -0.897,3.632l1.832,0Zm-2.148,1.252l-0.611,2.319c-0.015,0.061 -0.039,0.077 -0.116,0.077l-1.136,0c-0.077,0 -0.093,-0.023 -0.077,-0.116l2.195,-7.682c0.038,-0.139 0.061,-0.263 0.077,-0.641c-0,-0.054 0.023,-0.078 0.062,-0.078l1.623,0c0.054,0 0.077,0.016 0.092,0.078l2.458,8.338c0.015,0.062 -0,0.101 -0.062,0.101l-1.283,-0c-0.062,-0 -0.1,-0.016 -0.116,-0.07l-0.633,-2.326l-2.473,-0Z"/>
</svg>