<svg xmlns="http://www.w3.org/2000/svg" viewBox="0 0 24 24">
	<title>Adobe Photoshop</title>
	<path fill="#0c0824" d="M5.5,2l12.9,0c2,0 3.5,1.6 3.5,3.6l0,12.7c0,2 -1.6,3.6 -3.5,3.6l-12.9,-0c-2,-0 -3.5,-1.6 -3.5,-3.6l0,-12.7c0,-2 1.6,-3.6 3.5,-3.6Z"/>
	<path fill="#31c5f0" d="M15.104,11.001c-0.603,-0 -0.808,0.305 -0.808,0.557c-0,0.274 0.137,0.465 0.945,0.884c1.198,0.58 1.571,1.137 1.571,1.953c0,1.22 -0.93,1.876 -2.188,1.876c-0.664,-0 -1.236,-0.137 -1.564,-0.328c-0.053,-0.023 -0.061,-0.061 -0.061,-0.122l0,-1.121c0,-0.076 0.038,-0.099 0.092,-0.061c0.48,0.313 1.029,0.45 1.533,0.45c0.602,-0 0.854,-0.252 0.854,-0.595c-0,-0.275 -0.176,-0.519 -0.946,-0.915c-1.083,-0.519 -1.533,-1.045 -1.533,-1.922c0,-0.984 0.77,-1.8 2.105,-1.8c0.656,-0 1.113,0.099 1.365,0.214c0.061,0.038 0.076,0.099 0.076,0.152l0,1.045c0,0.061 -0.038,0.099 -0.114,0.076c-0.336,-0.213 -0.831,-0.343 -1.327,-0.343Zm-6.559,0.907c0.176,0.016 0.313,0.016 0.618,0.016c0.892,-0 1.731,-0.313 1.731,-1.526c0,-0.968 -0.602,-1.456 -1.617,-1.456c-0.305,-0 -0.595,0.015 -0.732,0.023l0,2.943Zm-1.357,-4.049c-0,-0.054 0.106,-0.092 0.167,-0.092c0.489,-0.023 1.213,-0.038 1.968,-0.038c2.113,0 2.936,1.159 2.936,2.639c0,1.937 -1.403,2.768 -3.127,2.768c-0.289,0 -0.389,-0.015 -0.594,-0.015l-0,2.929c-0,0.061 -0.023,0.091 -0.092,0.091l-1.167,0c-0.061,0 -0.091,-0.023 -0.091,-0.091l-0,-8.191l-0,-0Z"/>
</svg>