<svg xmlns="http://www.w3.org/2000/svg" viewBox="0 0 24 24">
	<title>Affinity Designer</title>
	<path fill="#1B72BE" d="M5.5,2h12.9c2,0,3.5,1.6,3.5,3.6v12.7c0,2-1.6,3.6-3.5,3.6H5.5c-2,0-3.5-1.6-3.5-3.6V5.6C2,3.6,3.6,2,5.5,2z"/>
	<path fill="#52CFFB" d="M22,18.4c0,2-1.6,3.6-3.5,3.6h-6.6l-3.9-6.8H22V18.4z M9.7,14.4h3.4l-2.6-4.6c0,0-1,1.7-1.7,3 c-0.2,0.3-0.2,0.7,0,1.1C9,14.2,9.3,14.4,9.7,14.4z M18.5,2H15l-4,7l3.1,5.4h8V5.6C22,3.6,20.4,2,18.5,2z M5.5,22h5.4l-4.2-7.3 L14.1,2h-3.4L2,17.1v1.3C2,20.4,3.6,22,5.5,22z"/>
</svg>