<svg xmlns="http://www.w3.org/2000/svg" viewBox="0 0 24 24">
	<title>Affinity Photo</title>
	<path fill="#7E4DD2" d="M5.5,2l12.9,0c2,0 3.5,1.6 3.5,3.6l0,12.7c0,2 -1.6,3.6 -3.5,3.6l-12.9,-0c-2,-0 -3.5,-1.6 -3.5,-3.6l0,-12.7c0,-2 1.6,-3.6 3.5,-3.6Z"/>
	<path fill="#EA73FF" d="M21.9,15.094l-0,3.206c-0,1.987 -1.579,3.579 -3.463,3.6l-3.455,-0l-3.93,-6.806l10.848,0Zm-18.183,6.325l5.049,-8.734l5.32,9.215l-8.626,-0c-0.645,-0.007 -1.238,-0.181 -1.743,-0.481Zm-0.618,-0.47c-0.667,-0.64 -1.078,-1.55 -1.098,-2.57l-0.001,-1.386l4.328,-7.496l3.383,-0l-6.612,11.452Zm9.706,-11.466c0.295,0.001 0.577,0.174 0.729,0.431l0.907,1.57c0.146,0.256 0.152,0.578 0.006,0.838c-0.3,0.525 -0.605,1.047 -0.907,1.571c-0.148,0.254 -0.429,0.42 -0.728,0.424c-0.57,0.002 -1.712,0.001 -1.713,0.001c-0.295,-0.001 -0.582,-0.158 -0.734,-0.415l-0.907,-1.57c-0.146,-0.256 -0.146,-0.587 0,-0.847l0.905,-1.57c0.149,-0.255 0.43,-0.43 0.729,-0.434l1.713,0.001Zm7.965,-6.561c0.697,0.652 1.124,1.596 1.13,2.654l0,8.742c0,-0 -7.709,-0 -7.709,-0l6.579,-11.396Zm-2.37,-0.922c0.644,0 1.236,0.166 1.743,0.458l-5.009,8.676l-4.876,-8.445l0.398,-0.689l7.744,0Zm-5.555,6.721l-6.069,0l3.035,-5.256l3.034,5.256Z"/>
</svg>