<svg xmlns="http://www.w3.org/2000/svg" viewBox="0 0 24 24">
	<title>Figma</title>
	<path fill="#0acf83" d="M8.683,21.95c1.831,0 3.317,-1.486 3.317,-3.317l0,-3.316l-3.317,-0c-1.831,-0 -3.316,1.485 -3.316,3.316c-0,1.831 1.485,3.317 3.316,3.317Z"/>
	<path fill="#a259ff" d="M5.367,12c-0,-1.831 1.485,-3.317 3.316,-3.317l3.317,0l0,6.634l-3.317,-0c-1.831,-0 -3.316,-1.486 -3.316,-3.317Z"/>
	<path fill="#f24e1e" d="M5.367,5.367c-0,-1.831 1.485,-3.317 3.316,-3.317l3.317,-0l0,6.633l-3.317,0c-1.831,0 -3.316,-1.485 -3.316,-3.316Z"/>
	<path fill="#ff7262" d="M12,2.05l3.317,-0c1.831,-0 3.316,1.486 3.316,3.317c0,1.831 -1.485,3.316 -3.316,3.316l-3.317,0l0,-6.633Z"/>
	<path fill="#1abcfe" d="M18.633,12c0,1.831 -1.485,3.317 -3.316,3.317c-1.831,-0 -3.317,-1.486 -3.317,-3.317c0,-1.831 1.486,-3.317 3.317,-3.317c1.831,0 3.316,1.486 3.316,3.317Z"/>
</svg>