<svg xmlns="http://www.w3.org/2000/svg" viewBox="0 0 24 24">
	<title>jQuery</title>
	<path fill="#0868ac" d="M2.983,6.724c-1.828,2.628 -1.601,6.048 -0.204,8.841c0.034,0.067 0.068,0.133 0.103,0.199c0.022,0.042 0.042,0.085 0.065,0.126l0.114,0.202c0.043,0.077 0.087,0.153 0.133,0.229c0.025,0.042 0.05,0.084 0.076,0.126c0.05,0.081 0.102,0.161 0.155,0.242c0.022,0.034 0.043,0.068 0.066,0.101c0.073,0.109 0.147,0.217 0.224,0.324c0.002,0.003 0.004,0.006 0.006,0.009c0.012,0.017 0.026,0.033 0.038,0.05c0.067,0.092 0.135,0.183 0.205,0.272c0.025,0.033 0.051,0.065 0.076,0.098c0.062,0.078 0.125,0.155 0.189,0.232c0.024,0.029 0.048,0.058 0.072,0.086c0.086,0.102 0.174,0.202 0.263,0.301c0.002,0.001 0.004,0.004 0.006,0.005c0.003,0.004 0.007,0.007 0.01,0.011c0.087,0.096 0.177,0.189 0.267,0.282c0.028,0.029 0.057,0.058 0.086,0.086c0.07,0.071 0.141,0.141 0.213,0.21c0.03,0.028 0.058,0.056 0.088,0.083c0.096,0.09 0.193,0.179 0.292,0.266c0.002,0.002 0.003,0.003 0.005,0.004c0.017,0.015 0.034,0.029 0.051,0.043c0.087,0.076 0.176,0.151 0.265,0.225c0.037,0.029 0.074,0.058 0.11,0.088c0.073,0.058 0.147,0.116 0.222,0.173c0.039,0.03 0.079,0.06 0.118,0.09c0.082,0.06 0.165,0.12 0.249,0.178l0.115,0.082c0.08,0.055 0.161,0.107 0.242,0.16c0.034,0.023 0.069,0.047 0.104,0.069c0.124,0.079 0.25,0.157 0.378,0.232c0.035,0.02 0.07,0.039 0.104,0.059c0.094,0.054 0.188,0.107 0.284,0.159c0.052,0.028 0.105,0.054 0.157,0.081c0.068,0.035 0.135,0.071 0.203,0.105l0.13,0.063c0.106,0.051 0.213,0.101 0.322,0.149c0.023,0.01 0.045,0.02 0.068,0.03c0.124,0.054 0.249,0.106 0.375,0.156c0.03,0.012 0.061,0.024 0.091,0.036c0.117,0.045 0.235,0.09 0.354,0.131c0.015,0.006 0.03,0.011 0.045,0.016c0.13,0.045 0.262,0.088 0.395,0.129c0.031,0.009 0.063,0.019 0.095,0.028c0.135,0.041 0.268,0.09 0.408,0.116c8.845,1.612 11.414,-5.316 11.414,-5.316c-2.158,2.811 -5.988,3.553 -9.617,2.727c-0.138,-0.031 -0.271,-0.073 -0.405,-0.113c-0.034,-0.01 -0.068,-0.02 -0.101,-0.031c-0.131,-0.04 -0.261,-0.082 -0.39,-0.127c-0.018,-0.006 -0.036,-0.012 -0.054,-0.019c-0.115,-0.041 -0.23,-0.083 -0.344,-0.127c-0.032,-0.013 -0.064,-0.026 -0.096,-0.038c-0.125,-0.05 -0.249,-0.101 -0.371,-0.155c-0.026,-0.01 -0.05,-0.022 -0.075,-0.032c-0.105,-0.048 -0.209,-0.096 -0.313,-0.146c-0.03,-0.015 -0.06,-0.028 -0.09,-0.043c-0.082,-0.04 -0.162,-0.083 -0.242,-0.124c-0.054,-0.028 -0.109,-0.055 -0.162,-0.085c-0.098,-0.052 -0.195,-0.107 -0.29,-0.162c-0.033,-0.019 -0.066,-0.036 -0.099,-0.055c-0.127,-0.075 -0.253,-0.153 -0.378,-0.231c-0.034,-0.022 -0.068,-0.046 -0.102,-0.068c-0.09,-0.059 -0.18,-0.118 -0.269,-0.179c-0.029,-0.02 -0.057,-0.042 -0.086,-0.061c-0.086,-0.061 -0.171,-0.122 -0.255,-0.184c-0.038,-0.028 -0.075,-0.057 -0.112,-0.085c-0.077,-0.059 -0.154,-0.119 -0.23,-0.18c-0.034,-0.027 -0.068,-0.054 -0.102,-0.082c-0.097,-0.079 -0.192,-0.159 -0.286,-0.241c-0.01,-0.008 -0.021,-0.017 -0.031,-0.026c-0.102,-0.09 -0.202,-0.181 -0.301,-0.273c-0.029,-0.028 -0.056,-0.054 -0.085,-0.082c-0.073,-0.069 -0.145,-0.139 -0.215,-0.211c-0.029,-0.029 -0.057,-0.057 -0.085,-0.085c-0.09,-0.092 -0.178,-0.185 -0.265,-0.28c-0.004,-0.005 -0.009,-0.009 -0.013,-0.014c-0.092,-0.1 -0.181,-0.203 -0.269,-0.306c-0.024,-0.028 -0.047,-0.056 -0.07,-0.083c-0.066,-0.079 -0.13,-0.159 -0.194,-0.239c-0.023,-0.029 -0.047,-0.059 -0.07,-0.089c-0.077,-0.099 -0.151,-0.197 -0.224,-0.297c-2.015,-2.748 -2.738,-6.539 -1.128,-9.652l-1.428,1.811Zm5.678,-2.215c-1.323,1.903 -1.251,4.451 -0.219,6.464c0.173,0.338 0.367,0.665 0.585,0.977c0.198,0.284 0.417,0.622 0.68,0.85c0.096,0.105 0.195,0.207 0.297,0.308c0.026,0.026 0.052,0.051 0.078,0.077c0.099,0.096 0.2,0.19 0.304,0.282c0.004,0.003 0.008,0.007 0.012,0.011c0.001,0.001 0.002,0.001 0.003,0.002c0.115,0.101 0.233,0.198 0.354,0.293c0.027,0.021 0.053,0.042 0.08,0.063c0.121,0.093 0.244,0.184 0.371,0.271c0.003,0.002 0.007,0.005 0.01,0.008c0.056,0.038 0.113,0.074 0.169,0.111c0.027,0.018 0.053,0.037 0.081,0.053c0.09,0.058 0.181,0.114 0.274,0.168c0.013,0.008 0.026,0.015 0.039,0.023c0.08,0.046 0.161,0.091 0.243,0.135c0.028,0.016 0.057,0.03 0.086,0.045c0.056,0.03 0.112,0.06 0.17,0.088c0.008,0.005 0.017,0.008 0.025,0.012c0.117,0.057 0.234,0.113 0.354,0.165c0.026,0.011 0.053,0.021 0.079,0.032c0.096,0.041 0.193,0.081 0.29,0.118c0.041,0.016 0.083,0.031 0.124,0.046c0.089,0.032 0.177,0.062 0.267,0.092c0.04,0.013 0.08,0.026 0.12,0.039c0.128,0.039 0.253,0.089 0.386,0.111c6.829,1.132 8.405,-4.126 8.405,-4.126c-1.421,2.047 -4.173,3.023 -7.11,2.261c-0.13,-0.034 -0.259,-0.072 -0.387,-0.112c-0.039,-0.012 -0.077,-0.025 -0.116,-0.038c-0.091,-0.029 -0.181,-0.06 -0.271,-0.093c-0.041,-0.015 -0.082,-0.03 -0.122,-0.045c-0.098,-0.038 -0.195,-0.077 -0.291,-0.118c-0.026,-0.011 -0.053,-0.021 -0.078,-0.033c-0.121,-0.052 -0.24,-0.107 -0.357,-0.165c-0.06,-0.03 -0.119,-0.061 -0.178,-0.091c-0.034,-0.018 -0.069,-0.036 -0.103,-0.053c-0.076,-0.042 -0.152,-0.085 -0.226,-0.128c-0.018,-0.01 -0.037,-0.02 -0.055,-0.03c-0.092,-0.055 -0.183,-0.11 -0.273,-0.168c-0.028,-0.017 -0.055,-0.037 -0.083,-0.055c-0.059,-0.038 -0.119,-0.077 -0.177,-0.117c-0.126,-0.087 -0.248,-0.178 -0.369,-0.27c-0.028,-0.022 -0.056,-0.043 -0.083,-0.065c-1.286,-1.015 -2.305,-2.402 -2.789,-3.975c-0.508,-1.631 -0.398,-3.462 0.481,-4.948l-1.08,1.525Zm4.774,-1.654c-0.779,1.147 -0.856,2.572 -0.315,3.839c0.571,1.346 1.74,2.401 3.104,2.901c0.057,0.021 0.113,0.04 0.17,0.059c0.025,0.008 0.049,0.016 0.075,0.024c0.08,0.025 0.16,0.054 0.243,0.07c3.771,0.728 4.793,-1.935 5.066,-2.327c-0.896,1.29 -2.402,1.599 -4.249,1.151c-0.146,-0.035 -0.307,-0.088 -0.447,-0.138c-0.181,-0.064 -0.358,-0.138 -0.531,-0.22c-0.328,-0.158 -0.641,-0.349 -0.931,-0.568c-1.653,-1.255 -2.68,-3.647 -1.601,-5.596l-0.584,0.805Z"/>
</svg>