<svg xmlns="http://www.w3.org/2000/svg" viewBox="0 0 24 24">
	<title>JavaScript</title>
	<path fill="#ffe11d" d="M5.5,2l12.9,0c2,0 3.5,1.6 3.5,3.6l0,12.7c0,2 -1.6,3.6 -3.5,3.6l-12.9,-0c-2,-0 -3.5,-1.6 -3.5,-3.6l0,-12.7c0,-2 1.6,-3.6 3.5,-3.6Zm2.23,16.04c0.4,0.85 1.19,1.55 2.54,1.55c1.5,0 2.53,-0.8 2.53,-2.55l-0,-5.78l-1.7,0l-0,5.74c-0,0.86 -0.35,1.08 -0.9,1.08c-0.58,0 -0.82,-0.4 -1.09,-0.87l-1.38,0.83Zm5.98,-0.18c0.5,0.98 1.51,1.73 3.09,1.73c1.6,0 2.8,-0.83 2.8,-2.36c0,-1.41 -0.81,-2.04 -2.25,-2.66l-0.42,-0.18c-0.73,-0.31 -1.04,-0.52 -1.04,-1.02c0,-0.41 0.31,-0.73 0.81,-0.73c0.48,0 0.8,0.21 1.09,0.73l1.31,-0.87c-0.55,-0.96 -1.33,-1.33 -2.4,-1.33c-1.51,0 -2.48,0.96 -2.48,2.23c0,1.38 0.81,2.03 2.03,2.55l0.42,0.18c0.78,0.34 1.24,0.55 1.24,1.13c0,0.48 -0.45,0.83 -1.15,0.83c-0.83,-0 -1.31,-0.43 -1.67,-1.03l-1.38,0.8Z"/>
</svg>