<svg xmlns="http://www.w3.org/2000/svg" viewBox="0 0 24 24">
	<title>Milligram</title>
	<path fill="#9b4dca" d="M11.964,2.077c-0.033,0.038 -0.172,0.265 -1.17,1.867c-0.382,0.614 -0.736,1.183 -0.79,1.267c-0.053,0.079 -0.253,0.401 -0.447,0.714c-0.193,0.31 -0.837,1.344 -1.429,2.294c-1.067,1.713 -1.8,2.889 -1.909,3.073c-0.03,0.054 -0.135,0.221 -0.227,0.376c-0.14,0.232 -0.315,0.578 -0.319,0.632c-0.002,0.009 -0.032,0.077 -0.071,0.157c-0.179,0.352 -0.393,1.209 -0.468,1.856c-0.056,0.471 -0.024,1.462 0.06,1.933c0.244,1.377 0.867,2.597 1.843,3.613c0.572,0.593 1.154,1.012 1.925,1.391c0.998,0.492 1.901,0.7 3.038,0.7c1.137,0 2.04,-0.208 3.038,-0.7c0.771,-0.379 1.353,-0.798 1.925,-1.391c0.976,-1.016 1.599,-2.236 1.843,-3.613c0.084,-0.471 0.116,-1.462 0.06,-1.933c-0.075,-0.647 -0.289,-1.504 -0.468,-1.856c-0.039,-0.08 -0.069,-0.148 -0.069,-0.157c0,-0.049 -0.169,-0.379 -0.319,-0.626c-0.094,-0.155 -0.199,-0.328 -0.229,-0.382c-0.11,-0.184 -0.842,-1.36 -1.909,-3.073c-0.592,-0.95 -1.236,-1.984 -1.429,-2.294c-0.195,-0.313 -0.394,-0.635 -0.447,-0.714c-0.054,-0.084 -0.408,-0.653 -0.79,-1.267c-1.054,-1.698 -1.17,-1.876 -1.191,-1.891c-0.012,-0.009 -0.036,0.003 -0.051,0.024Zm0.411,2.693c0.351,0.568 1.948,3.127 3.616,5.802c0.441,0.703 0.807,1.311 0.813,1.346c0.007,0.039 0.024,0.069 0.033,0.069c0.042,-0 0.214,0.294 0.372,0.631c0.274,0.581 0.435,1.144 0.51,1.781c0.345,2.901 -1.567,5.612 -4.432,6.285c-2.586,0.611 -5.299,-0.697 -6.473,-3.115c-0.753,-1.556 -0.765,-3.348 -0.03,-4.942c0.135,-0.289 0.322,-0.625 0.375,-0.67c0.013,-0.009 0.028,-0.039 0.039,-0.066c0.01,-0.026 0.376,-0.623 0.813,-1.325c2.187,-3.503 3.283,-5.261 3.614,-5.796c0.199,-0.322 0.369,-0.587 0.375,-0.587c0.006,-0 0.176,0.265 0.375,0.587Zm-4.054,7.58c-0.223,0.051 -0.34,0.2 -0.565,0.723c-0.272,0.632 -0.382,1.097 -0.409,1.728c-0.101,2.3 1.48,4.323 3.736,4.781c0.229,0.045 0.333,0.054 0.425,0.033c0.462,-0.104 0.632,-0.635 0.316,-0.98c-0.096,-0.107 -0.184,-0.143 -0.539,-0.224c-0.664,-0.148 -1.167,-0.416 -1.644,-0.866c-0.343,-0.325 -0.53,-0.573 -0.721,-0.941c-0.301,-0.587 -0.405,-1.058 -0.381,-1.728c0.009,-0.33 0.029,-0.497 0.089,-0.718c0.09,-0.336 0.239,-0.706 0.319,-0.796c0.032,-0.035 0.06,-0.077 0.06,-0.094c-0,-0.019 0.023,-0.066 0.05,-0.107c0.078,-0.123 0.08,-0.296 0.009,-0.439c-0.16,-0.313 -0.423,-0.443 -0.745,-0.372Z"/>
</svg>