<svg xmlns="http://www.w3.org/2000/svg" viewBox="0 0 24 24" fill="#0379C4">
	<title>Progressive Web Application</title>
	<path fill="#fb8c00" d="M15.502,16.509l3.643,-9.018l-2.415,0l-2.492,5.828l-1.773,-5.828l-1.856,0l-1.903,5.828l-1.341,-2.656l-1.215,3.734l1.233,2.112l2.377,-0l1.719,-5.226l1.64,5.226l2.383,-0Z"/>
	<path fill="#616161" d="M2.287,13.413l1.484,0c0.449,0 0.849,-0.05 1.2,-0.15l0.384,-1.183l1.073,-3.306c-0.083,-0.131 -0.176,-0.254 -0.28,-0.368c-0.551,-0.61 -1.357,-0.915 -2.417,-0.915l-3.731,0l0,9.018l2.287,-0l-0,-3.096Zm1.964,-3.847c0.215,0.216 0.323,0.506 0.323,0.869c-0,0.366 -0.095,0.656 -0.284,0.871c-0.208,0.238 -0.589,0.357 -1.146,0.357l-0.857,0l-0,-2.422l0.864,-0c0.518,-0 0.885,0.108 1.1,0.325l-0,-0Zm13.414,5.328l0.693,-1.75l2.001,-0l-0.949,-2.654l1.188,-2.999l3.402,9.018l-2.509,-0l-0.582,-1.615l-3.244,-0Z"/>
</svg>