<svg xmlns="http://www.w3.org/2000/svg" viewBox="0 0 24 24">
	<title>Stisla</title>
	<path fill="#6777ef" d="M11.555,14.111c0,0 -3.658,-3.147 -4.292,-4.113c-0.634,-0.966 -0.954,-1.929 -0.954,-2.89c0,-1.387 0.529,-2.576 1.586,-3.569c1.058,-0.993 2.362,-1.489 3.914,-1.489c0.993,-0.002 1.971,0.236 2.853,0.693c0.657,0.337 2.851,2.372 4.401,3.926c0.346,0.346 0.541,0.816 0.541,1.306c0,0.529 -0.228,1.034 -0.625,1.384c-0.732,0.647 -1.858,0.605 -2.541,-0.094c-1.542,-1.572 -3.914,-3.571 -4.687,-3.571c-0.499,0 -0.908,0.134 -1.226,0.401c-0.318,0.268 -0.477,0.57 -0.477,0.905c-0,0.336 0.113,0.653 0.34,0.953c0.309,0.398 2.793,2.64 2.793,2.64c-0,-0 2.92,2.443 3.556,3.409c0.636,0.966 0.954,1.929 0.954,2.89c-0,1.387 -0.529,2.576 -1.586,3.569c-1.058,0.993 -2.362,1.489 -3.914,1.489c-0.993,0.002 -1.971,-0.236 -2.853,-0.693c-0.657,-0.337 -2.851,-2.372 -4.401,-3.926c-0.346,-0.346 -0.541,-0.816 -0.541,-1.306c-0,-0.529 0.228,-1.034 0.625,-1.384c0.732,-0.647 1.858,-0.605 2.541,0.094c1.541,1.573 3.911,3.57 4.686,3.57c0.5,-0 0.908,-0.134 1.226,-0.401c0.318,-0.268 0.476,-0.57 0.476,-0.905c0,-0.336 -0.113,-0.653 -0.34,-0.953c-0.309,-0.396 -2.055,-1.935 -2.055,-1.935Z"/>
</svg>