<svg xmlns="http://www.w3.org/2000/svg" viewBox="0 0 535 135">
	<title>Aksara Digital</title>
	<path fill="#D60303" d="M191.4,78.4v19.1H182v-60h9.4v23.1l12-23.1h9.4 M339.7,77.6L335.5,48h-0.2l-4.2,29.7h4.8l1.1,8.1h-7v-0.2l-1.7,11.9h-9.4l9.8-60h12.8l9.8,60h-8.7l-1.7-11.7L339.7,77.6z M285.1,37.5H299c4.7,0,8.2,1.3,10.5,3.8c2.3,2.5,3.5,6.2,3.5,11.1v5.9c0,4.9-1.2,8.5-3.5,11.1c-2.3,2.5-5.9,3.8-10.5,3.8h-4.5v24.4h-9.4V37.5z M299,64.5c1.5,0,2.7-0.4,3.5-1.3c0.8-0.9,1.2-2.3,1.2-4.4v-7.1c0-2.1-0.4-3.5-1.2-4.4s-1.9-1.3-3.5-1.3h-4.5v18.4H299z M315.9,97.5l-6.8-24.4c-2.1,1.8-5,2.8-8.7,2.9l5.9,21.4H315.9z M268.5,77.6L264.4,48h-0.2l-4.2,29.7h4.8l1.1,8.1h-7v-0.2l-1.7,11.9h-9.4l9.8-60h12.8l9.8,60h-8.7l-1.7-11.7L268.5,77.6z M219.7,94.5c-2.3-2.6-3.5-6.3-3.5-11.2v-3.4h8.9V84c0,3.9,1.6,5.8,4.9,5.8c1.6,0,2.8-0.5,3.6-1.4c0.8-0.9,1.2-2.5,1.2-4.6c0-2.5-0.6-4.7-1.7-6.6c-1.1-1.9-3.3-4.2-6.3-6.9c-3.9-3.4-6.6-6.5-8.1-9.3c-1.5-2.8-2.3-5.9-2.3-9.4c0-4.7,1.2-8.4,3.6-11c2.4-2.6,5.9-3.9,10.5-3.9c4.5,0,7.9,1.3,10.2,3.9c2.3,2.6,3.5,6.3,3.5,11.2v2.5h-8.9v-3.1c0-2.1-0.4-3.6-1.2-4.5c-0.8-0.9-2-1.4-3.5-1.4c-3.1,0-4.7,1.9-4.7,5.7c0,2.2,0.6,4.2,1.8,6.1c1.2,1.9,3.3,4.2,6.4,6.9c3.9,3.4,6.7,6.5,8.1,9.3c1.5,2.8,2.2,6.1,2.2,9.9c0,4.9-1.2,8.7-3.6,11.3c-2.4,2.6-6,3.9-10.6,3.9C225.5,98.4,222,97.1,219.7,94.5z M196.8,74.6l6.5,22.9h9.8l-9.9-34.6L196.8,74.6z M165.9,77.6L161.8,48h-0.2l-4.2,29.7h4.8l1.1,8.1h-7v-0.2l-1.7,11.9h-9.4l9.8-60h12.8l9.8,60h-8.7L167,85.8L165.9,77.6z"/>
	<path fill="#777777" d="M401.4,94.5c-2.4-2.6-3.6-6.3-3.6-11.2V51.7c0-4.9,1.2-8.6,3.6-11.2c2.4-2.6,5.9-3.9,10.5-3.9c4.6,0,8.1,1.3,10.5,3.9c2.4,2.6,3.6,6.3,3.6,11.2v5.1H417v-5.7c0-3.9-1.6-5.9-4.9-5.9s-4.9,2-4.9,5.9V84c0,3.9,1.6,5.8,4.9,5.8s4.9-1.9,4.9-5.8V72.2h-4.7v-8.6h13.6v19.6c0,4.9-1.2,8.6-3.6,11.2c-2.4,2.6-5.9,3.9-10.5,3.9C407.3,98.4,403.8,97.1,401.4,94.5z M510.1,37.5h9.4v51.4H535v8.6h-24.9V37.5z M455.8,46.1H446v-8.6h29.1v8.6h-9.9v51.4h-9.4V46.1z M432,37.5h9.4v60H432V37.5z M382,37.5h9.4v60H382V37.5z M484.8,77.6l4.1-29.7h0.2l4.2,29.7h-4.8l-1.1,8.1h7v-0.2l1.7,11.9h9.4l-9.8-60H483l-9.8,60h8.7l1.7-11.7L484.8,77.6z M372.2,41.3c-2.3-2.5-5.9-3.8-10.5-3.8h-13l8,49.4V46.1h4.8c1.5,0,2.7,0.5,3.6,1.4c0.8,0.9,1.2,2.4,1.2,4.5v31.2c0,2.1-0.4,3.5-1.2,4.5c-0.8,0.9-2,1.4-3.6,1.4H357l1.4,8.6h3.2c4.7,0,8.2-1.3,10.5-3.8c2.3-2.5,3.5-6.2,3.5-11.1V52.3C375.7,47.5,374.5,43.8,372.2,41.3z"/>
	<circle fill="#D60303" cx="67.5" cy="67.5" r="67.5"/>
	<path fill="#FFFFFF" d="M97.1,73.2l12.6,32.3h-6L94.6,82C95.9,79.4,96.8,76.3,97.1,73.2L97.1,73.2z M54.2,80.9l13.3-34.2l5.4,13.9c5.9,15.2-1.7,16-15,19.2C56.7,80.2,55.4,80.5,54.2,80.9L54.2,80.9z M77.8,57.9L67.5,31.4L47,83.9c-3.5,1.7-6.8,3.7-9.6,6l25.3-64.9h-6l-31.4,80.6h6c3.2-6,7.7-10.7,13.3-14c6.8-4.1,12.4-6,19.8-7.8c6.5-1.6,11.3-3.3,13.6-6.2C81.3,73.3,81.4,67,77.8,57.9L77.8,57.9z M72.3,24.9h6l12.9,33c3.4,8.7,2.1,20.7-4.3,27.2c-5.6,5.7-12.1,6.7-18.7,8.3c-11,2.7-17.9,5.7-23.5,12.1h-6c4.6-6.9,13.6-12,21.2-14.7c9-3.1,18.6-2.5,24.5-11.3c3.7-5.5,4.3-12.7,1.9-18.9L72.3,24.9L72.3,24.9z M84.9,91.3l5.5,14.2h6l-6.7-17.3C88.1,89.5,86.5,90.5,84.9,91.3L84.9,91.3z"/>
</svg>