<svg xmlns="http://www.w3.org/2000/svg" viewBox="0 0 400 135">
	<title>Aksara Digital</title>
	<path fill="#D60303" d="M51.3,78.4v19.1h-9.4v-60h9.4v23.1l12-23.1h9.4 M199.6,77.6L195.4,48h-0.2L191,77.7h4.8l1.1,8.1h-7v-0.2l-1.7,11.9h-9.4l9.8-60h12.8l9.8,60h-8.7l-1.7-11.7L199.6,77.6z M145,37.5h13.9c4.7,0,8.2,1.3,10.5,3.8s3.5,6.2,3.5,11.1v5.9c0,4.9-1.2,8.5-3.5,11.1c-2.3,2.5-5.9,3.8-10.5,3.8h-4.5v24.4H145V37.5z M158.9,64.5c1.5,0,2.7-0.4,3.5-1.3c0.8-0.9,1.2-2.3,1.2-4.4v-7.1c0-2.1-0.4-3.5-1.2-4.4s-1.9-1.3-3.5-1.3h-4.5v18.4L158.9,64.5L158.9,64.5z M175.8,97.5L169,73.1c-2.1,1.8-5,2.8-8.7,2.9l5.9,21.4L175.8,97.5L175.8,97.5z M128.4,77.6L124.3,48h-0.2l-4.2,29.7h4.8l1.1,8.1h-7v-0.2l-1.7,11.9h-9.4l9.8-60h12.8l9.8,60h-8.7l-1.7-11.7L128.4,77.6z M79.6,94.5c-2.3-2.6-3.5-6.3-3.5-11.2v-3.4H85V84c0,3.9,1.6,5.8,4.9,5.8c1.6,0,2.8-0.5,3.6-1.4s1.2-2.5,1.2-4.6c0-2.5-0.6-4.7-1.7-6.6c-1.1-1.9-3.3-4.2-6.3-6.9c-3.9-3.4-6.6-6.5-8.1-9.3s-2.3-5.9-2.3-9.4c0-4.7,1.2-8.4,3.6-11c2.4-2.6,5.9-3.9,10.5-3.9c4.5,0,7.9,1.3,10.2,3.9c2.3,2.6,3.5,6.3,3.5,11.2v2.5h-8.9v-3.1c0-2.1-0.4-3.6-1.2-4.5s-2-1.4-3.5-1.4c-3.1,0-4.7,1.9-4.7,5.7c0,2.2,0.6,4.2,1.8,6.1c1.2,1.9,3.3,4.2,6.4,6.9c3.9,3.4,6.7,6.5,8.1,9.3c1.5,2.8,2.2,6.1,2.2,9.9c0,4.9-1.2,8.7-3.6,11.3c-2.4,2.6-6,3.9-10.6,3.9C85.4,98.4,81.9,97.1,79.6,94.5z M56.7,74.6l6.5,22.9H73l-9.9-34.6L56.7,74.6z M25.8,77.6L21.7,48h-0.2l-4.2,29.7h4.8l1.1,8.1h-7v-0.2l-1.7,11.9H5.1l9.8-60h12.8l9.8,60h-8.7l-1.9-11.7L25.8,77.6z"/>
	<path fill="#777777" d="M261.3,94.5c-2.4-2.6-3.6-6.3-3.6-11.2V51.7c0-4.9,1.2-8.6,3.6-11.2s5.9-3.9,10.5-3.9s8.1,1.3,10.5,3.9c2.4,2.6,3.6,6.3,3.6,11.2v5.1h-9v-5.7c0-3.9-1.6-5.9-4.9-5.9s-4.9,2-4.9,5.9V84c0,3.9,1.6,5.8,4.9,5.8s4.9-1.9,4.9-5.8V72.2h-4.7v-8.6h13.6v19.6c0,4.9-1.2,8.6-3.6,11.2s-5.9,3.9-10.5,3.9C267.2,98.4,263.7,97.1,261.3,94.5z M370,37.5h9.4v51.4h15.5v8.6H370V37.5z M315.7,46.1h-9.8v-8.6H335v8.6h-9.9v51.4h-9.4L315.7,46.1L315.7,46.1z M291.9,37.5h9.4v60h-9.4V37.5z M241.9,37.5h9.4v60h-9.4V37.5z M344.7,77.6l4.1-29.7h0.2l4.2,29.7h-4.8l-1.1,8.1h7v-0.2l1.7,11.9h9.4l-9.8-60h-12.7l-9.8,60h8.7l1.7-11.7L344.7,77.6z M232.1,41.3c-2.3-2.5-5.9-3.8-10.5-3.8h-13l8,49.4V46.1h4.8c1.5,0,2.7,0.5,3.6,1.4c0.8,0.9,1.2,2.4,1.2,4.5v31.2c0,2.1-0.4,3.5-1.2,4.5c-0.8,0.9-2,1.4-3.6,1.4h-4.5l1.4,8.6h3.2c4.7,0,8.2-1.3,10.5-3.8s3.5-6.2,3.5-11.1V52.3C235.6,47.5,234.4,43.8,232.1,41.3z"/>
</svg>