<?xml version="1.0" encoding="utf-8"?>
<!-- Generator: Adobe Illustrator 24.0.1, SVG Export Plug-In . SVG Version: 6.00 Build 0)  -->
<svg version="1.1" id="Layer_1" xmlns="http://www.w3.org/2000/svg" xmlns:xlink="http://www.w3.org/1999/xlink" x="0px" y="0px"
	 viewBox="0 0 310 300" style="enable-background:new 0 0 310 300;" xml:space="preserve">
<style type="text/css">
	.st0{fill:#FFFFFF;}
	.st1{opacity:0.4;clip-path:url(#SVGID_2_);fill:#FDC933;enable-background:new    ;}
	.st2{fill:none;stroke:#1A2E35;stroke-width:0.9844;stroke-linecap:round;stroke-linejoin:round;stroke-miterlimit:10;}
	.st3{fill:#FDC933;}
	.st4{opacity:0.2;enable-background:new    ;}
	.st5{fill:#FDC933;stroke:#1A2E35;stroke-width:0.9844;stroke-linecap:round;stroke-linejoin:round;stroke-miterlimit:10;}
	.st6{fill:#1A2E35;}
	.st7{fill:#FFFFFF;stroke:#1A2E35;stroke-width:0.9844;stroke-linecap:round;stroke-linejoin:round;stroke-miterlimit:10;}
	.st8{opacity:0.2;}
	.st9{fill:none;stroke:#FFFFFF;stroke-width:0.9844;stroke-linecap:round;stroke-linejoin:round;stroke-miterlimit:10;}
	.st10{fill:#1A2E35;stroke:#1A2E35;stroke-width:0.9844;stroke-linecap:round;stroke-linejoin:round;stroke-miterlimit:10;}
	.st11{opacity:0.4;clip-path:url(#SVGID_4_);fill:#FDC933;enable-background:new    ;}
	.st12{fill:#5AE4A7;stroke:#1A2E35;stroke-width:0.9844;stroke-linecap:round;stroke-linejoin:round;stroke-miterlimit:10;}
	.st13{fill:#EFEFEF;stroke:#1A2E35;stroke-width:0.9844;stroke-linecap:round;stroke-linejoin:round;stroke-miterlimit:10;}
	.st14{fill:#010021;}
	.st15{opacity:0.8;fill:#51B74A;enable-background:new    ;}
	.st16{opacity:0.58;fill:#008CC1;enable-background:new    ;}
	.st17{fill:none;stroke:#000000;stroke-width:0.3931;stroke-miterlimit:10;}
</style>
<g>
	<g>
		<g>
			<g>
				<g>
					<path id="XMLID_4_" class="st0" d="M72.1,267.9c0,0-11,7.5-15.4,7c-0.5-0.1-1-0.2-1.3-0.5c-2.9-3-5.2-8.2-5.2-8.2
						s1.4-1.9,5.6,3.1l2.7-2.5l-5.6-5.6c0,0,3.1-2.5,8.4,0.7c-0.2-0.4-3.6-7.8-1-18l-12.9-12.5l11.4-10l0.9-0.8c0,0,0.7,0.7,1.9,1.8
						c1.1,1.1,2.7,2.5,4.4,4c4,3.5,8.9,7.4,11,7.4C81,233.8,72.1,267.9,72.1,267.9z"/>
				</g>
				<g>
					<defs>
						<path id="SVGID_1_" d="M72.1,267.9c0,0-11,7.5-15.4,7c-0.5-0.1-1-0.2-1.3-0.5c-2.9-3-5.2-8.2-5.2-8.2s1.4-1.9,5.6,3.1l2.7-2.5
							l-5.6-5.6c0,0,3.1-2.5,8.4,0.7c-0.2-0.4-3.6-7.8-1-18l-12.9-12.5l11.4-10l0.9-0.8c0,0,0.7,0.7,1.9,1.8c1.1,1.1,2.7,2.5,4.4,4
							c4,3.5,8.9,7.4,11,7.4C81,233.8,72.1,267.9,72.1,267.9z"/>
					</defs>
					<clipPath id="SVGID_2_">
						<use xlink:href="#SVGID_1_"  style="overflow:visible;"/>
					</clipPath>
					<path class="st1" d="M63.6,263.1c0,0-6.2,6.4-6.9,11.8c-0.5-0.1-1-0.2-1.3-0.5c-2.9-3-5.2-8.2-5.2-8.2s1.4-1.9,5.6,3.1l2.7-2.5
						l-5.6-5.6c0,0,3.1-2.5,8.4,0.7c-0.2-0.4-3.6-7.8-1-18l-12.9-12.5l11.4-10l2.8,1c1.1,1.1,2.7,2.5,4.4,4
						c-2.4,3.6-7.6,10.9-7.6,10.9l4.5,6.1C62.9,243.5,60.2,258.9,63.6,263.1z"/>
				</g>
				<g>
					<path id="XMLID_1_" class="st2" d="M72.1,267.9c0,0-11,7.5-15.4,7c-0.5-0.1-1-0.2-1.3-0.5c-2.9-3-5.2-8.2-5.2-8.2
						s1.4-1.9,5.6,3.1l2.7-2.5l-5.6-5.6c0,0,3.1-2.5,8.4,0.7c-0.2-0.4-3.6-7.8-1-18l-12.9-12.5l11.4-10l0.9-0.8c0,0,0.7,0.7,1.9,1.8
						c1.1,1.1,2.7,2.5,4.4,4c4,3.5,8.9,7.4,11,7.4C81,233.8,72.1,267.9,72.1,267.9z"/>
				</g>
			</g>
			<path class="st2" d="M58.5,266.8c0,0,1-3,2.9-4.9"/>
		</g>
		<path class="st3" d="M263,181.1c-1.6,2.4-3.7,4.6-6.2,6.7l0,0c-20.1,16.7-66.6,24.9-66.6,24.9s-1.6,2.3-3.9,5.7
			c-4.3,6-11.3,15.1-17.1,19.7l0,0c-2.4,1.9-4.6,3.1-6.3,2.8l8.7,32.2l3.9,14c0,0-40.1,17.5-108.6-2.5c0,0-0.8-8.9-0.2-10.9
			c0-0.1,0.1-0.2,0.1-0.3c0.6-1.5,2.7-3.4,2.7-3.4s-0.4-5.7-0.6-11.6c-0.2-4.5-0.2-9.2,0.1-11.2c0.5-3,2.6-10.1,3.7-13.6
			c0.4-1.2,0.6-2,0.6-2l-3.4-31.9l-1-9.2c0,0,0-0.2-0.1-0.5c0-0.1,0-0.1,0-0.2l-0.5-4.9l-17.6,5.4c0,0,0.9,2.1,2.2,5
			c2.3,5.3,5.7,13.4,6.5,16.6c0.1,0.3,0.1,0.5,0.2,0.8c1.6,4.7,7.8,8.9,7.8,8.9l-16.7,19.5l-4.9-3.4c0,0-0.7,0.6-2,1.3
			c-3.2,1.8-10.1,4.3-17.5,0.4c-2.7-1.4-5.5-3.8-8.2-7.3c-13.2-17-18.8-30.9-17-47.2c1.9-16.3,75.2-66.5,89.7-66l21.6,4.8
			c0.5-0.4,1.7-1.4,2.7-1.3c3.9,0.2,4,4.8,4,4.8l48.5,7.9c0,0,5-2.5,5.9-2.5c2.1,0.1,3.1,1.9,3.1,1.9s12.6-7.5,16.6-5.8
			C206.6,134.1,272.8,166.2,263,181.1z"/>
		<g>
			<path class="st4" d="M94.5,260.8c0,0-7.5,9.2-21,11.4c-2.6,0.4-4.8,0.8-6.8,1.2c0.6-1.5,2.7-3.4,2.7-3.4s-0.4-5.7-0.6-11.6
				C74.6,262.2,84.5,266.5,94.5,260.8z"/>
			<path class="st4" d="M72.8,233.6c0.4-1.2,0.6-2,0.6-2L70,199.7c5.1,7.3,23.3,32.2,35.8,34.9C118.9,237.4,83.9,242.3,72.8,233.6z"
				/>
			<path class="st4" d="M171.6,273.1c-13.7-1.6-33-5-35-12.2c-3-11.2,11.7-17.9,32.5-22.8c-2.4,1.9-4.6,3.1-6.3,2.8L171.6,273.1z"/>
			<path class="st4" d="M256.7,187.8c-20.1,16.7-66.6,24.9-66.6,24.9s-1.6,2.3-3.9,5.7c-3.9-9.2-9.6-28.2-3-51.5
				c0,0,3.6,19.4,18.4,24c0,0-11.4-8.5-7.4-28.9c0,0,3.9,24,29.1,30.6C235.7,195.9,247.7,192.3,256.7,187.8z"/>
			<path class="st4" d="M69,190l-0.6-5.2l-17.6,5.4c0,0,0.9,2.1,2.2,5c-6.7-0.7-19.5,5.6-21.8-1.3c-2.7-8.2,13.9-5.4,13.9-5.4
				l15.6-9.1c-3-12.6,4.6-22.1,4.6-22.1l1.4,8.8c0.7-16.7,7.2-25.9,7.2-25.9C68.5,153.5,68.6,186.1,69,190z"/>
			<path class="st4" d="M67.5,221.4l-16.7,19.5l-4.9-3.4c0,0-0.7,0.6-2,1.3c-3.2,1.8-10.1,4.3-17.5,0.4c5.4-7.5,16.6-18.5,29.9-22.7
				c0,0-5.5,8-8.9,15.2l3.4,3.4C50.9,234.9,59.4,225.1,67.5,221.4z"/>
			<path class="st4" d="M108.1,135.5c0,1.7-1.1,21.2,13.1,26.4c14.2,5.2,26.8-3.6,26.8-3.6s-21.8,21-35,9.8
				C99.7,156.9,108.1,135.5,108.1,135.5z"/>
		</g>
		<path class="st2" d="M66.9,284.5c0,0-0.8-8.9-0.2-10.8c0.5-1.6,2.8-3.7,2.8-3.7s-1.2-18.1-0.4-22.8c0.7-4,4.4-15.6,4.4-15.6
			l-5-46.8l-17.6,5.4c0,0,7.5,16.6,8.7,21.5s8.1,9.7,8.1,9.7L51,240.9l-4.9-3.4c0,0-14.6,11.4-27.7-5.6c-13.2-17-18.8-30.9-17-47.2
			c1.8-16.3,75.2-66.5,89.7-66l21.6,4.8c0.5-0.4,1.7-1.4,2.7-1.3c3.9,0.2,4,4.8,4,4.8l48.5,7.9c0,0,5-2.5,5.9-2.5
			c2.1,0.1,3.1,1.9,3.1,1.9s12.6-7.5,16.6-5.8c13.3,5.7,79.4,37.9,69.6,52.8c-13.9,21.2-72.8,31.6-72.8,31.6S170.7,242.4,163,241
			l12.6,46.2"/>
		<path class="st5" d="M211.7,184.4c22.2,14.7,40.2,12,54.2-6.9c0,0,11.7-15.1,10.9-31.3c-0.8-16.3-4.7-69.3-55.4-55.7
			c-8.3,2.2-27.8,28.3-29.4,35.4c-0.7,3.3-8.6,19.9-16.1,37.2"/>
		<path class="st6" d="M151.5,28.7c0,0,14.2-2.2,24,6.7c12.5,11.1,26.4,41.2,6.5,91c0,0-29.4-19.5-79.6-6.5c0,0,4.3-11.7-3.3-48.4
			C95.8,54.8,104.4,16.4,151.5,28.7z"/>
		<g>
			<path class="st7" d="M130,153.6c21,3.4,43.3-19.8,43.3-19.8s-11.4-1.4-12.4-6.8c-3.3-16.9,9.9-37.8,9.9-37.8s-50.9,1.4-42,12.9
				c1.9,2.4,3.2,4.7,4,6.9c3.1,7.6,0.9,13.3-0.7,14.7c-0.1,0.1-0.3,0.2-0.4,0.2c-3.1,1.4-15.7-0.7-15.7-0.7S110.9,150.5,130,153.6z"
				/>
			<path class="st2" d="M166.1,140.2c0,0-9.7,3.9-23.8,2.7l-6.4,3.1"/>
			<path class="st2" d="M129.5,145.5l-0.5-4.2c0,0-10.4-3.3-13.7-9.5"/>
			<path class="st6" d="M132.1,123.8c15.6,4.1,22.9-15.9,22.9-15.9s-12.5-3.7-22.2,1.2C135.9,116.7,133.7,122.4,132.1,123.8z"/>
		</g>
		<g>
			<path class="st7" d="M171.7,78.7c3.8-21.3-0.4-46.9-32.8-44.7c-23.2,1.5-23,26.9-21.4,34.5c2.6,12.7-1.1,17.8,2.9,28.5
				c2.9,7.7,9.5,16.3,17.3,19.5c4.8,2,24.2-11.7,25.7-17.9"/>
			<path class="st2" d="M130.9,72.5c-0.2,2.4-0.5,8.3-5.5,12.7c-3.3,2.8,4.2,5.7,4.2,5.7"/>
			<path class="st2" d="M125.6,64c0,0-7.2-3.5-12,2.3"/>
			<path class="st2" d="M137.6,63.6c0,0,6.9-2.5,15.3,0.6"/>
			<path class="st6" d="M145,73.6c0.2,2.1,1.6,3.6,3.1,3.4c1.5-0.2,2.5-2,2.3-4c-0.2-2.1-1.6-3.6-3.1-3.4S144.8,71.6,145,73.6z"/>
			<path class="st2" d="M130,97.6c9-1.1,16-5.8,16-5.8s0.7,8.9-6.8,10.8c-5.7,1.4-8-5.1-8-5.1"/>
			<path class="st6" d="M151,42.1c0,0-2.1,25.2,20.2,34.4l10.4-24.3l-15.8-17.5L142,27.8C106.5,30,91.1,52.1,110.9,111
				C111,111.1,105.5,41,151,42.1z"/>
			<path class="st7" d="M166.4,77.6c-0.3-2.8,6.9-10.1,9.3-5.4c4.1,7.9,1.1,14.8-3.2,17.5c-1.9,1.2-4.3,3.5-6.1,1.3"/>
			<path class="st6" d="M123.3,74.6c0.2,2.1,1.6,3.6,3.1,3.4c1.5-0.2,2.5-2,2.3-4c-0.2-2.1-1.6-3.6-3.1-3.4
				C124.1,70.7,123.1,72.5,123.3,74.6z"/>
			<g class="st8">
				<path class="st9" d="M107.8,70.4c-0.3,1.7-0.4,3.4-0.6,5.2"/>
				<path class="st9" d="M147.3,37.5c-18-0.5-34.7,11-38.7,29"/>
				<path class="st9" d="M144.1,32.4c0,0-26-6.1-35.7,11.1"/>
				<path class="st9" d="M165.2,62.4c1.6,2.2,3.4,4.2,5.6,5.9"/>
				<path class="st9" d="M154.9,35.7c1.4,8.1,4.1,16.4,8.2,23.5"/>
				<path class="st9" d="M181,113.9c-0.5,2.1-1,4.1-1.6,6.1"/>
				<path class="st9" d="M179.5,79.5c4.2,9.4,3.9,21,2.2,30.8"/>
				<path class="st9" d="M176.4,95.8c0,0,1.3,10.4-7.3,19.2"/>
				<path class="st9" d="M164.4,38.8c4.4,6,7.7,12.4,12.8,17.8C182.6,62.3,188,68.9,189,77"/>
				<path class="st9" d="M158.2,32.5c1.3,0.8,2.4,1.8,3.5,2.9"/>
			</g>
		</g>
		<path class="st10" d="M247,171.1c-0.5,0.1-1,0.2-1.6,0.3c-13.9,2-29.6-9.6-34.8-23.4c-4.2-11-0.5-23.4,1.5-28.7
			c0.6-1.7,1.1-2.6,1.1-2.6c8.4-12,57.3,11.5,57.8,24.4C271.6,154,261.4,168,247,171.1z"/>
		<g>
			<g>
				<path id="XMLID_3_" class="st0" d="M262.3,142.8c0,0-2.8,20.6-16.9,28.6c-13.9,2-29.6-9.6-34.8-23.4c-4.2-11-0.5-23.4,1.5-28.7
					l0,0C228.6,109.9,262.3,142.8,262.3,142.8z"/>
			</g>
			<g>
				<defs>
					<path id="SVGID_3_" d="M262.3,142.8c0,0-2.8,20.6-16.9,28.6c-13.9,2-29.6-9.6-34.8-23.4c-4.2-11-0.5-23.4,1.5-28.7l0,0
						C228.6,109.9,262.3,142.8,262.3,142.8z"/>
				</defs>
				<clipPath id="SVGID_4_">
					<use xlink:href="#SVGID_3_"  style="overflow:visible;"/>
				</clipPath>
				<path class="st11" d="M262.3,142.8c0,0-2.8,20.6-16.9,28.6c-13.9,2-29.6-9.6-34.8-23.4c-4.2-11-0.5-23.4,1.5-28.7l0,0
					C228.6,109.9,262.3,142.8,262.3,142.8z"/>
			</g>
			<g>
				<path id="XMLID_2_" class="st2" d="M262.3,142.8c0,0-2.8,20.6-16.9,28.6c-13.9,2-29.6-9.6-34.8-23.4c-4.2-11-0.5-23.4,1.5-28.7
					l0,0C228.6,109.9,262.3,142.8,262.3,142.8z"/>
			</g>
		</g>
		<path class="st2" d="M204.7,153.6c0,0,15.9,22.8,34.4,24.7c18.5,1.9,30.4-13.7,31.2-25.5"/>
		<path class="st7" d="M195.8,50.8c1.4-3.9,11.4-2.6,14.6,9.6c3.2,12.2,15.7,41.7,15.7,41.7s49.7-73.2,58.7-76
			c8.9-2.8,5.4,9.9-6.5,27.5c0,0,11.2-2,14.1,0s1.5,13.8,3.1,17.9c2.6,6.9-3.2,8.4-3.2,8.4s4.6,0,7.8,3c3.2,3,1.6,15.4,2.5,18.9
			s-5.2,6.5-5.2,6.5s14.7,8,11.4,10c-5.6,3.4-8.8-0.1-8.8-0.1s-22.5,28.3-39.5,34.6c-17,6.3-50.1-18.7-53.6-32.4
			c-3.6-13.6,0.7-12.8-2-35.5C201.9,62.2,195.8,50.8,195.8,50.8z"/>
		<path class="st2" d="M190.1,212.7c0,0-11.2-26-5.5-57.6"/>
		<path class="st2" d="M162.8,240.9c0,0-22.6,6.9-24.9,12.1c-2.3,5.2,10.1,0.8,10.1,0.8"/>
		<path class="st2" d="M176.8,134.1c0,0-20.8,20.6-34.8,26.2"/>
		<path class="st2" d="M108.5,128.6c0,0-3.8,27.9,10.4,33.1"/>
		<path class="st2" d="M68.4,184.8c0,0-0.1-36.5,7.1-47.8"/>
		<path class="st2" d="M65.7,147.6c0,0-2,22.7,2.5,30.1"/>
		<path class="st2" d="M50.8,190.2c0,0-15.8-5.5-19.1,1.3c-3.3,6.8,9.4,0.8,9.4,0.8"/>
		<path class="st2" d="M60.3,213.9c0,0-15.6,8.8-16.4,13.8"/>
		<path class="st2" d="M85.7,189.7c0,0,29.8,45,46.2,40.9"/>
		<path class="st2" d="M106.1,252.8c0,0-23.4,17.1-26.7,15.7"/>
		<path class="st4" d="M269.6,179.8c1.6-1.3,2.6-2.1,3-2.4C272.2,177.7,271.2,178.6,269.6,179.8z"/>
	</g>
	<g>
		<path class="st7" d="M268.3,5.9L202.8,23c-2.3,0.6-3.7,3-3.1,5.3l33.5,127.9c0.6,2.3,3,3.7,5.3,3.1l65.5-17.1
			c2.3-0.6,3.7-3,3.1-5.3L273.6,9C273,6.7,270.7,5.3,268.3,5.9z"/>
		<g>
			<path class="st12" d="M230.8,19.5c0.1,0.6-0.2,1.2-0.8,1.3c-0.6,0.1-1.2-0.2-1.3-0.8c-0.1-0.6,0.2-1.2,0.8-1.3
				S230.6,18.9,230.8,19.5z"/>
			<path class="st12" d="M244.3,16c0.1,0.4-0.1,0.7-0.5,0.8s-0.7-0.1-0.8-0.5c-0.1-0.4,0.1-0.7,0.5-0.8
				C243.8,15.4,244.2,15.6,244.3,16z"/>
			<path class="st12" d="M240.8,17.3l-7.9,2c-0.2,0-0.3-0.1-0.4-0.2V19c0-0.2,0.1-0.3,0.2-0.4l7.9-2c0.2,0,0.3,0.1,0.4,0.2v0.1
				C241,17.1,240.9,17.2,240.8,17.3z"/>
		</g>
		<path class="st13" d="M271.7,10.2L305,137.1c0.4,1.4-0.5,2.8-1.8,3.1l-64.7,16.9c-1.4,0.4-2.8-0.5-3.1-1.8L202.1,28.4
			c-0.4-1.4,0.5-2.8,1.8-3.1l13.3-3.5c0.9-0.2,1.8,0.1,2.3,0.9l1,1.4c0.5,0.7,1.4,1.1,2.3,0.9l29.2-7.6c0.9-0.2,1.5-1,1.6-1.9
			l0.2-1.7c0.1-0.9,0.7-1.6,1.6-1.9l13.3-3.5C269.9,8,271.3,8.8,271.7,10.2z"/>
		<g>
			<g>
				<path class="st14" d="M248.7,81.2l1.8-3.2l-1.8,0.5l-1.9,3.5l-0.7-2.9l-1.4,0.4l1.7,6.4l1.4-0.4l-0.5-1.8l0.6-1.1l2.6,2.2
					l1.7-0.4L248.7,81.2z"/>
				<path class="st14" d="M253.8,82.4c0.4,0.2,0.8,0.2,1.3,0.1c0.3-0.1,0.7-0.3,0.9-0.4c0.2-0.2,0.5-0.4,0.6-0.8l1,0.5
					c-0.1,0.4-0.5,0.8-0.8,1.1c-0.4,0.3-0.8,0.5-1.4,0.7c-0.5,0.1-0.9,0.2-1.3,0.1s-0.8-0.2-1.2-0.4s-0.7-0.5-1-0.8
					c-0.3-0.4-0.5-0.8-0.6-1.3c-0.1-0.5-0.2-0.9-0.1-1.4c0.1-0.4,0.2-0.9,0.4-1.2c0.2-0.4,0.5-0.7,0.8-1c0.3-0.3,0.7-0.5,1.2-0.6
					c0.5-0.1,1-0.2,1.4-0.1c0.4,0.1,0.8,0.2,1.1,0.5c0.3,0.2,0.6,0.6,0.9,1c0.2,0.4,0.4,0.8,0.5,1.2c0,0.1,0,0.1,0,0.2
					c0,0.1,0,0.1,0,0.2l-4.7,1.2C253.1,81.9,253.4,82.2,253.8,82.4z M255.8,79.6c-0.1-0.2-0.2-0.4-0.3-0.6c-0.1-0.2-0.3-0.3-0.4-0.5
					c-0.2-0.1-0.4-0.2-0.6-0.2c-0.2,0-0.4,0-0.7,0.1c-0.5,0.1-0.8,0.4-1,0.7c-0.2,0.4-0.3,0.8-0.2,1.4L255.8,79.6L255.8,79.6z"/>
				<path class="st14" d="M260.5,82.2l-1.4,0.4l-1.6-6.3l1.4-0.4l0.4,1.4c0.1-0.5,0.3-1,0.5-1.4c0.3-0.4,0.7-0.6,1.3-0.7l0.4,1.5
					l-0.1,0c-0.3,0.1-0.6,0.2-0.8,0.4s-0.4,0.4-0.6,0.6c-0.1,0.2-0.2,0.5-0.2,0.9c0,0.3,0,0.7,0.1,1.1L260.5,82.2L260.5,82.2z"/>
				<path class="st14" d="M261.9,75.1l1.2,4.5c0.1,0.2,0,0.4-0.1,0.5s-0.3,0.2-0.5,0.2c-0.1,0-0.3,0.1-0.4,0.1l0.3,1.3
					c0.1,0,0.2,0,0.4-0.1c0.1,0,0.2-0.1,0.4-0.1c0.6-0.2,1-0.4,1.3-0.7c0.2-0.3,0.3-0.7,0.2-1.2l-1.3-4.9L261.9,75.1z"/>
				<path class="st14" d="M271.9,77.2c-0.1,0.4-0.2,0.9-0.5,1.2c-0.2,0.3-0.5,0.7-0.9,1c-0.4,0.3-0.8,0.5-1.3,0.6
					c-0.5,0.1-0.9,0.2-1.4,0.1c-0.5,0-0.9-0.2-1.3-0.4c-0.4-0.2-0.7-0.5-1-0.8c-0.3-0.3-0.5-0.8-0.6-1.2c-0.1-0.4-0.2-0.9-0.1-1.4
					c0-0.5,0.2-0.9,0.4-1.3s0.5-0.7,0.9-1c0.4-0.3,0.8-0.5,1.3-0.6c0.5-0.1,1-0.2,1.4-0.1c0.5,0.1,0.9,0.2,1.3,0.4
					c0.4,0.2,0.7,0.5,1,0.8c0.3,0.3,0.5,0.8,0.6,1.2C271.9,76.4,271.9,76.8,271.9,77.2z M270,75.6c-0.1-0.2-0.3-0.4-0.5-0.5
					c-0.2-0.2-0.5-0.2-0.7-0.3s-0.5,0-0.8,0c-0.3,0.1-0.5,0.2-0.7,0.3c-0.2,0.2-0.3,0.4-0.5,0.6c-0.1,0.2-0.2,0.5-0.2,0.7
					c0,0.2,0,0.5,0.1,0.8c0.1,0.3,0.2,0.5,0.4,0.8c0.1,0.2,0.3,0.4,0.5,0.5c0.2,0.2,0.5,0.2,0.7,0.3c0.3,0.1,0.5,0,0.8,0
					c0.3-0.1,0.6-0.2,0.8-0.4s0.3-0.4,0.5-0.6c0.1-0.2,0.2-0.5,0.2-0.7c0-0.2,0-0.5-0.1-0.8C270.3,76,270.1,75.8,270,75.6z"/>
				<path class="st14" d="M279.1,75.4c-0.1,0.4-0.2,0.9-0.5,1.2c-0.2,0.3-0.5,0.7-0.9,1c-0.4,0.3-0.8,0.5-1.3,0.6
					c-0.5,0.1-0.9,0.2-1.4,0.1c-0.5,0-0.9-0.2-1.3-0.4c-0.4-0.2-0.7-0.5-1-0.8c-0.3-0.3-0.5-0.8-0.6-1.2c-0.1-0.4-0.2-0.9-0.1-1.4
					c0-0.5,0.2-0.9,0.4-1.3s0.5-0.7,0.9-1s0.8-0.5,1.3-0.6c0.5-0.1,1-0.2,1.4-0.1c0.5,0.1,0.9,0.2,1.3,0.4c0.4,0.2,0.7,0.5,1,0.8
					c0.3,0.3,0.5,0.8,0.6,1.2C279.2,74.5,279.2,74.9,279.1,75.4z M277.2,73.7c-0.1-0.2-0.3-0.4-0.5-0.5c-0.2-0.2-0.5-0.2-0.7-0.3
					s-0.5,0-0.8,0c-0.3,0.1-0.5,0.2-0.7,0.3c-0.2,0.2-0.3,0.4-0.5,0.6c-0.1,0.2-0.2,0.5-0.2,0.7c0,0.2,0,0.5,0.1,0.8
					c0.1,0.3,0.2,0.5,0.4,0.8c0.1,0.2,0.3,0.4,0.5,0.5c0.2,0.2,0.5,0.2,0.7,0.3c0.3,0.1,0.5,0,0.8,0c0.3-0.1,0.6-0.2,0.8-0.4
					c0.2-0.2,0.3-0.4,0.5-0.6c0.1-0.2,0.2-0.5,0.2-0.7c0-0.2,0-0.5-0.1-0.8C277.5,74.1,277.4,73.9,277.2,73.7z"/>
			</g>
			<g>
				<path class="st15" d="M237.6,78.2c-0.5,0.1-0.8,0.3-1.2,0.7l0,0l0,0l-0.2,0.2l0,0l-1.3,1.5l-0.1,0.1c-0.6-0.9-1.6-1.3-2.7-1
					c-1.3,0.3-2.1,1.7-1.8,3l1,3.7c0.3,1.3,1.7,2.1,3,1.8c0.4-0.1,0.8-0.3,1.1-0.6l0.3-0.4l0.7-0.8l3.4-3.9l0.4-0.5
					c0.4-0.6,0.5-1.3,0.3-2C240.3,78.6,238.9,77.9,237.6,78.2z"/>
				<path class="st15" d="M240.8,90.6c-0.5,0.1-0.9,0.1-1.3,0l0,0l0,0l-0.2-0.1l0,0l-1.9-0.7l-0.1,0c-0.1,1-0.8,2-1.9,2.2
					c-1.3,0.3-2.7-0.4-3-1.8l-1-3.7c-0.3-1.3,0.4-2.7,1.8-3c0.4-0.1,0.8-0.1,1.2,0l0.4,0.2l1,0.4l4.9,1.8l0.6,0.2l0,0
					c0.6,0.3,1.1,0.9,1.3,1.6C242.9,88.8,242.1,90.2,240.8,90.6z"/>
				<path class="st16" d="M237,89c0.3,1.3-0.5,2.6-1.7,3c-0.1,0-0.2,0-0.3,0.1c-1.2,0.2-2.4-0.6-2.7-1.8l-2-7.7
					c-0.3-1.2,0.4-2.5,1.5-2.9c0.1,0,0.2,0,0.2,0c1.3-0.3,2.6,0.5,3,1.7C235.1,81.5,237,89,237,89z"/>
				<circle class="st15" cx="228.1" cy="87.2" r="2.6"/>
			</g>
			<line class="st17" x1="240.5" y1="79" x2="240.5" y2="79"/>
		</g>
	</g>
</g>
</svg>
