<?xml version="1.0" encoding="utf-8"?>
<!-- Generator: Adobe Illustrator 24.0.1, SVG Export Plug-In . SVG Version: 6.00 Build 0)  -->
<svg version="1.1" id="Layer_1" xmlns="http://www.w3.org/2000/svg" xmlns:xlink="http://www.w3.org/1999/xlink" x="0px" y="0px"
	 viewBox="0 0 400 525" style="enable-background:new 0 0 400 525;" xml:space="preserve">
<style type="text/css">
	.st0{opacity:0.15;fill:#6D6D6D;enable-background:new    ;}
	.st1{fill:#FFFFFF;}
	.st2{opacity:0.4;fill:#FDC933;enable-background:new    ;}
	.st3{fill:none;stroke:#1A2E35;stroke-width:1.4268;stroke-linecap:round;stroke-linejoin:round;stroke-miterlimit:10;}
	.st4{fill:#1A2E35;}
	.st5{fill:#FFFFFF;stroke:#1A2E35;stroke-width:1.4268;stroke-linecap:round;stroke-linejoin:round;stroke-miterlimit:10;}
	.st6{clip-path:url(#SVGID_2_);}
	.st7{fill:#F7F7F7;}
	.st8{fill:none;stroke:#000000;stroke-width:0.4083;stroke-opacity:0.1;}
	.st9{fill-opacity:0.75;}
	.st10{clip-path:url(#SVGID_4_);}
	.st11{fill:#FF8311;}
	.st12{clip-path:url(#SVGID_6_);}
	.st13{fill:#FF7ACA;}
	.st14{fill:#39B8FF;}
	.st15{fill:#FF6767;}
	.st16{fill:#73C56E;}
	.st17{fill:#010021;fill-opacity:0.5;}
	.st18{fill:#010021;}
	.st19{fill:#259E91;}
	.st20{clip-path:url(#SVGID_8_);}
	.st21{opacity:0.8;fill:#FFFFFF;enable-background:new    ;}
	.st22{opacity:0.58;fill:#FFFFFF;enable-background:new    ;}
	.st23{fill:#DDDDDD;}
	.st24{clip-path:url(#SVGID_10_);}
	.st25{clip-path:url(#SVGID_12_);}
	.st26{fill:#555555;}
	.st27{fill:#259E91;stroke:#F7F7F7;stroke-width:0.2041;stroke-miterlimit:10;}
	.st28{fill:#FDC933;}
</style>
<path class="st0" d="M206.2,0.2c0.3,0,0.5,0,0.8,0C278.6,4,330.2,52.5,330.1,125.5c0,38.1,37.4,68.2,54.6,99.2
	c59.5,107-67.9,205.6-163.6,219.1c-86.4,12.2-178-57.1-207.8-135.4c-26.2-68.8-12-149.8,25.9-211.5c3.8-6.2,7.9-12.2,12.2-18
	C87.5,30.2,144.6-2.7,206.2,0.2z"/>
<g>
	<g>
		<path class="st1" d="M173,345.8c-0.5,18.6,8.7,17.1,8.7,17.1c0.6-1.5,1.9-3.7,3.5-6.1c4.8-7.4,12.2-17.8,9.4-23.9
			c-1.3-2.8-3.6-6.7-6.2-10.6c-4.9-7.6-10.6-15.2-10.6-15.2l24.6-4.1c0,0,17.5,7.2,31.3,8.1c0.4,0,0.7,0,1.1,0
			c12.6,0.2,10.6-9.6,10.6-12.8c0-1.4-3.4-3.8-7.4-6.3c-5.7-3.5-12.6-6.9-12.6-6.9l3.7-7.7c2.6,0.5,4.7,0.6,6.5,0.3
			c9.6-1,8.2-10.5,6.7-14.6c-0.4-1.2-2.6-3-5.7-5c-9.8-6.5-28.6-15.5-28.6-15.5h-27.6l-27.2,74.1C153.2,316.7,173.5,327.2,173,345.8
			z"/>
		<path class="st2" d="M173,345.8c-0.5,18.6,8.7,17.1,8.7,17.1c0.6-1.5,1.9-3.7,3.5-6.1c4.8-7.4,12.2-17.8,9.4-23.9
			c-1.3-2.8-3.6-6.7-6.2-10.6c-4.9-7.6-10.6-15.2-10.6-15.2l24.6-4.1c0,0,17.5,7.2,31.3,8.1c0.4,0,0.7,0,1.1,0
			c12.6,0.2,10.6-9.6,10.6-12.8c0-1.4-3.4-3.8-7.4-6.3c-5.7-3.5-12.6-6.9-12.6-6.9l3.7-7.7c2.6,0.5,4.7,0.6,6.5,0.3
			c9.6-1,8.2-10.5,6.7-14.6c-0.4-1.2-2.6-3-5.7-5c-9.8-6.5-28.6-15.5-28.6-15.5h-27.6l-27.2,74.1C153.2,316.7,173.5,327.2,173,345.8
			z"/>
		<path class="st2" d="M173,345.8c-0.5,18.6,8.7,17.1,8.7,17.1c0.6-1.5,1.9-3.7,3.5-6.1c-0.3-1.7-0.5-3.6-0.5-5.4
			c0.1-6.4,5.3-18.5,5.3-18.5l-5.3-8.4c0.8-0.8,2.1-1.5,3.8-2.2c-4.9-7.6-10.6-15.2-10.6-15.2l24.6-4.1c0,0,17.5,7.2,31.3,8.1
			c0.4,0,0.7,0,1.1,0c-0.8-6.9,1.9-15.6,3.2-19.1c-5.7-3.5-12.6-6.9-12.6-6.9l3.7-7.7c2.6,0.5,4.7,0.6,6.5,0.3
			c-1.3-6-0.1-14.4,1-19.6c-9.8-6.5-28.6-15.5-28.6-15.5h-27.6l-27.2,74.1C153.2,316.7,173.5,327.2,173,345.8z"/>
		<g>
			<path class="st3" d="M180.4,242.5H208c0,0,32.5,15.6,34.4,20.5c1.8,4.9,3.3,17.2-13.2,14.2l-3.7,7.7c0,0,20,9.9,20,13.2
				c0,3.3,2.2,13.6-11.6,12.8c-13.8-0.8-31.3-8.1-31.3-8.1l-24.6,4.1c0,0,13.1,17.6,16.7,25.8c3.7,8.2-10.6,23.9-12.9,30.1
				c0,0-9.2,1.5-8.7-17.1s-19.8-29.1-19.8-29.1"/>
			<path class="st3" d="M186.9,329.5c0,0-6.9-3.9-10.7,3.3"/>
		</g>
	</g>
	<g>
		<path class="st4" d="M275.4,366.1H130.7c-5.1,0-9.3-4.1-9.3-9.3V63.5c0-5.1,4.1-9.3,9.3-9.3h144.7c5.1,0,9.3,4.1,9.3,9.3v293.4
			C284.7,362,280.5,366.1,275.4,366.1z"/>
		<path class="st4" d="M279.6,65.7v289.7c0,3.3-2.6,5.9-5.9,5.9H132.4c-3.3,0-5.9-2.6-5.9-5.9V65.7c0-3.3,2.6-5.9,5.9-5.9h31.4
			c2.1,0,3.9,1.3,4.6,3.2l1.3,3.6c0.7,1.9,2.6,3.2,4.6,3.2h57.3c2.1,0,3.9-1.3,4.6-3.2l1.3-3.6c0.7-1.9,2.6-3.2,4.6-3.2h31.4
			C277,59.8,279.6,62.5,279.6,65.7z"/>
		<g>
			<path class="st5" d="M189.6,62.7c0,1.3-1.1,2.4-2.4,2.4c-1.3,0-2.4-1.1-2.4-2.4c0-1.3,1.1-2.4,2.4-2.4
				C188.5,60.3,189.6,61.4,189.6,62.7z"/>
			<path class="st5" d="M221.5,62.7c0,0.8-0.7,1.5-1.5,1.5s-1.5-0.7-1.5-1.5s0.7-1.5,1.5-1.5C220.8,61.2,221.5,61.9,221.5,62.7z"/>
			<path class="st5" d="M212.8,63.6h-18.3c-0.5,0-0.9-0.4-0.9-0.9l0,0c0-0.5,0.4-0.9,0.9-0.9h18.3c0.5,0,0.9,0.4,0.9,0.9l0,0
				C213.6,63.2,213.3,63.6,212.8,63.6z"/>
		</g>
	</g>
	<g>
		<g>
			<defs>
				<path id="SVGID_1_" d="M279.6,65.7v289.7c0,3.3-2.6,5.9-5.9,5.9H132.4c-3.3,0-5.9-2.6-5.9-5.9V65.7c0-3.3,2.6-5.9,5.9-5.9h31.4
					c2.1,0,3.9,1.3,4.6,3.2l1.3,3.6c0.7,1.9,2.6,3.2,4.6,3.2h57.3c2.1,0,3.9-1.3,4.6-3.2l1.3-3.6c0.7-1.9,2.6-3.2,4.6-3.2h31.4
					C277,59.8,279.6,62.5,279.6,65.7z"/>
			</defs>
			<clipPath id="SVGID_2_">
				<use xlink:href="#SVGID_1_"  style="overflow:visible;"/>
			</clipPath>
			<g class="st6">
				<rect x="126.5" y="59.8" class="st7" width="153.1" height="331.5"/>
				<g>
					<path class="st1" d="M144.9,360.3h116.4c3.4,0,6.1,2.7,6.1,6.1v24.5c0,3.4-2.7,6.1-6.1,6.1H144.9c-3.4,0-6.1-2.7-6.1-6.1v-24.5
						C138.7,363,141.5,360.3,144.9,360.3z"/>
					<path class="st8" d="M144.9,360.5h116.4c3.3,0,5.9,2.7,5.9,5.9v24.5c0,3.3-2.7,5.9-5.9,5.9H144.9c-3.3,0-5.9-2.7-5.9-5.9v-24.5
						C139,363.1,141.6,360.5,144.9,360.5z"/>
				</g>
				<path class="st9" d="M185.5,376.2v4.9h-1.2v-2.9l-1.1,2.9h-1l-1.1-2.9v2.9H180v-4.9h1.4l1.4,3.4l1.4-3.4H185.5z M190.2,377.2
					v3.9H189v-0.5c-0.1,0.2-0.3,0.3-0.5,0.4s-0.4,0.2-0.7,0.2s-0.6-0.1-0.8-0.2s-0.4-0.3-0.5-0.6s-0.2-0.5-0.2-0.9v-2.3h1.2v2.1
					c0,0.3,0.1,0.5,0.2,0.6c0.1,0.1,0.3,0.2,0.5,0.2s0.4-0.1,0.5-0.2s0.2-0.3,0.2-0.6v-2.1H190.2z M192.2,376v5.1H191V376H192.2z
					 M192.9,379.2c0-0.4,0.1-0.7,0.2-1c0.2-0.3,0.4-0.5,0.6-0.7c0.3-0.2,0.5-0.2,0.9-0.2c0.3,0,0.5,0.1,0.7,0.2s0.4,0.3,0.5,0.4
					v-0.5h1.2v3.9h-1.2v-0.5c-0.1,0.2-0.3,0.3-0.5,0.4s-0.4,0.2-0.7,0.2s-0.6-0.1-0.9-0.2c-0.3-0.2-0.5-0.4-0.6-0.7
					C192.9,379.9,192.9,379.6,192.9,379.2z M195.8,379.2c0-0.3-0.1-0.5-0.2-0.7c-0.2-0.2-0.4-0.3-0.6-0.3c-0.2,0-0.4,0.1-0.6,0.3
					c-0.2,0.2-0.2,0.4-0.2,0.7s0.1,0.5,0.2,0.7c0.2,0.2,0.4,0.3,0.6,0.3c0.2,0,0.4-0.1,0.6-0.3C195.7,379.7,195.8,379.5,195.8,379.2
					z M198.4,376.8c-0.2,0-0.4-0.1-0.5-0.2s-0.2-0.3-0.2-0.5s0.1-0.3,0.2-0.5c0.1-0.1,0.3-0.2,0.5-0.2s0.4,0.1,0.5,0.2
					s0.2,0.3,0.2,0.5s-0.1,0.3-0.2,0.5S198.6,376.8,198.4,376.8z M199,377.2v3.9h-1.2v-3.9H199z M202.5,380.2h1.6v0.9h-2.7v-4.9h1.2
					v4H202.5z M208.3,379.1c0,0.1,0,0.2,0,0.3h-2.7c0,0.2,0.1,0.4,0.2,0.6c0.1,0.1,0.3,0.2,0.5,0.2c0.3,0,0.5-0.1,0.6-0.4h1.3
					c-0.1,0.3-0.2,0.5-0.4,0.7s-0.4,0.4-0.6,0.5c-0.3,0.1-0.5,0.2-0.9,0.2s-0.7-0.1-1-0.2s-0.5-0.4-0.7-0.7
					c-0.2-0.3-0.2-0.7-0.2-1.1s0.1-0.8,0.2-1.1c0.2-0.3,0.4-0.5,0.7-0.7s0.6-0.2,1-0.2s0.7,0.1,1,0.2s0.5,0.4,0.7,0.7
					C208.2,378.4,208.3,378.7,208.3,379.1z M207.1,378.8c0-0.2-0.1-0.4-0.2-0.5s-0.3-0.2-0.5-0.2s-0.4,0.1-0.5,0.2s-0.2,0.3-0.2,0.5
					H207.1z M213.9,377.2c0.5,0,0.9,0.1,1.1,0.4c0.3,0.3,0.4,0.7,0.4,1.2v2.3h-1.2V379c0-0.2-0.1-0.4-0.2-0.6
					c-0.1-0.1-0.3-0.2-0.5-0.2s-0.4,0.1-0.5,0.2s-0.2,0.3-0.2,0.6v2.1h-1.2V379c0-0.2-0.1-0.4-0.2-0.6c-0.1-0.1-0.3-0.2-0.5-0.2
					s-0.4,0.1-0.5,0.2s-0.2,0.3-0.2,0.6v2.1H209v-3.9h1.2v0.5c0.1-0.2,0.3-0.3,0.5-0.4s0.4-0.1,0.7-0.1s0.6,0.1,0.8,0.2
					s0.4,0.3,0.5,0.5c0.1-0.2,0.3-0.4,0.5-0.5C213.3,377.3,213.6,377.2,213.9,377.2z M217.4,377.8c0.1-0.2,0.3-0.3,0.5-0.4
					s0.4-0.2,0.7-0.2s0.6,0.1,0.9,0.2c0.3,0.2,0.5,0.4,0.6,0.7c0.2,0.3,0.2,0.6,0.2,1s-0.1,0.7-0.2,1.1c-0.1,0.3-0.4,0.5-0.6,0.7
					c-0.3,0.2-0.5,0.2-0.9,0.2c-0.3,0-0.5-0.1-0.7-0.2s-0.4-0.3-0.5-0.4v0.5h-1.2v-5h1.2V377.8z M219.1,379.2c0-0.3-0.1-0.5-0.2-0.7
					c-0.2-0.2-0.4-0.3-0.6-0.3c-0.2,0-0.4,0.1-0.6,0.3c-0.2,0.2-0.2,0.4-0.2,0.7c0,0.3,0.1,0.5,0.2,0.7c0.2,0.2,0.4,0.3,0.6,0.3
					s0.4-0.1,0.6-0.3C219.1,379.7,219.1,379.5,219.1,379.2z M224.8,377.2v3.9h-1.2v-0.5c-0.1,0.2-0.3,0.3-0.5,0.4s-0.4,0.2-0.7,0.2
					s-0.6-0.1-0.8-0.2s-0.4-0.3-0.5-0.6c-0.1-0.2-0.2-0.5-0.2-0.9v-2.3h1.2v2.1c0,0.3,0.1,0.5,0.2,0.6c0.1,0.1,0.3,0.2,0.5,0.2
					s0.4-0.1,0.5-0.2s0.2-0.3,0.2-0.6v-2.1H224.8z M226.8,377.9c0.1-0.2,0.3-0.4,0.5-0.5s0.4-0.2,0.7-0.2v1.3h-0.3
					c-0.3,0-0.5,0.1-0.7,0.2c-0.1,0.1-0.2,0.3-0.2,0.7v1.8h-1.2v-3.9h1.2V377.9z"/>
				<g>
					<g>
						<defs>
							<rect id="SVGID_3_" x="149.8" y="367.2" width="22.5" height="22.5"/>
						</defs>
						<clipPath id="SVGID_4_">
							<use xlink:href="#SVGID_3_"  style="overflow:visible;"/>
						</clipPath>
						<g class="st10">
							<path class="st11" d="M171.8,389.7c0.2,0,0.4-0.2,0.4-0.4v-1.8c0-0.2-0.2-0.4-0.4-0.4h-1.3v-0.9c1-0.2,1.8-1.1,1.8-2.2v-0.4
								c0-0.2-0.2-0.4-0.4-0.4h-1.3c0-0.2-0.2-0.4-0.4-0.4h-3.5c-0.2,0-0.4,0.2-0.4,0.4v4h-5.7v-1.3c0-0.2-0.2-0.4-0.4-0.4h-0.7
								v-0.9h4.6c0.7,0,1.3-0.6,1.3-1.3v-7c0-0.7-0.6-1.3-1.3-1.3h-12.8c-0.7,0-1.3,0.6-1.3,1.3v7c0,0.7,0.6,1.3,1.3,1.3h4.6v0.9
								h-0.7c-0.2,0-0.4,0.2-0.4,0.4v1.3h-4.4c-0.2,0-0.4,0.2-0.4,0.4v1.8c0,0.2,0.2,0.4,0.4,0.4h21.4V389.7z M151.1,383.5
								c-0.2,0-0.4-0.2-0.4-0.4v-7c0-0.2,0.2-0.4,0.4-0.4h12.8c0.2,0,0.4,0.2,0.4,0.4v7c0,0.2-0.2,0.4-0.4,0.4h-4.6v-2.6
								c0-1-0.8-1.8-1.8-1.8s-1.8,0.8-1.8,1.8v2.6H151.1z M156.6,380.9c0-0.5,0.4-0.9,0.9-0.9s0.9,0.4,0.9,0.9v4.4h-1.8L156.6,380.9
								L156.6,380.9z M155.5,386.2h3.9v0.9h-3.9V386.2z M171.3,388.8h-20.7v-0.9h20.7V388.8z M167,387v-3.5h2.6v3.5H167z
								 M170.5,385.2V384h0.9C171.3,384.5,171,385,170.5,385.2z"/>
							<path class="st11" d="M170,378.9c0.3-0.3,0.2-0.9,0-1.3l-0.2-0.4c-0.1-0.2-0.4-0.3-0.6-0.2c-0.2,0.1-0.3,0.4-0.2,0.6l0.2,0.4
								c0.1,0.1,0.1,0.2,0,0.4l-0.5,0.6c-0.3,0.3-0.2,0.9,0,1.3l0.2,0.4c0.1,0.1,0.2,0.2,0.4,0.2c0.1,0,0.1,0,0.2-0.1
								c0.2-0.1,0.3-0.4,0.2-0.6l-0.2-0.4c-0.1-0.1-0.1-0.2,0-0.4L170,378.9z"/>
							<path class="st11" d="M166.8,381.5c0.1,0.2,0.4,0.3,0.6,0.2c0.2-0.1,0.3-0.4,0.2-0.6l-0.2-0.4c-0.1-0.1-0.1-0.2,0-0.4
								l0.5-0.6c0.3-0.3,0.2-0.9,0-1.3l-0.2-0.4c-0.1-0.2-0.4-0.3-0.6-0.2s-0.3,0.4-0.2,0.6l0.2,0.4c0.1,0.1,0.1,0.2,0,0.4l-0.5,0.6
								c-0.3,0.3-0.2,0.9,0,1.3L166.8,381.5z"/>
							<path class="st11" d="M154.4,381.8H154c-0.2,0-0.4,0.2-0.4,0.4c0,0.2,0.2,0.4,0.4,0.4h0.4c0.2,0,0.4-0.2,0.4-0.4
								C154.9,382,154.7,381.8,154.4,381.8z"/>
							<path class="st11" d="M152,382.6c0.2,0,0.4-0.2,0.4-0.4c0-0.2-0.2-0.4-0.4-0.4s-0.4,0.2-0.4,0.4
								C151.6,382.5,151.8,382.6,152,382.6z"/>
							<path class="st11" d="M157.7,369.6l-2.2-2.2c-0.2-0.2-0.5-0.2-0.7,0s-0.2,0.5,0,0.7l1.4,1.4h-5.9c-0.3,0-0.5,0.2-0.5,0.5
								s0.2,0.5,0.5,0.5h5.9l-1.4,1.4c-0.2,0.2-0.2,0.5,0,0.7s0.5,0.2,0.7,0l2.2-2.2C157.9,370.1,157.9,369.8,157.7,369.6z"/>
						</g>
					</g>
				</g>
				<g>
					<path class="st1" d="M144.9,314.2h116.4c3.4,0,6.1,2.7,6.1,6.1v24.5c0,3.4-2.7,6.1-6.1,6.1H144.9c-3.4,0-6.1-2.7-6.1-6.1v-24.5
						C138.7,316.9,141.5,314.2,144.9,314.2z"/>
					<path class="st8" d="M144.9,314.4h116.4c3.3,0,5.9,2.7,5.9,5.9v24.5c0,3.3-2.7,5.9-5.9,5.9H144.9c-3.3,0-5.9-2.7-5.9-5.9v-24.5
						C139,317,141.6,314.4,144.9,314.4z"/>
				</g>
				<path class="st9" d="M181.8,335c-0.4,0-0.7-0.1-1-0.2s-0.5-0.3-0.7-0.5s-0.3-0.5-0.3-0.8h1.3c0,0.2,0.1,0.3,0.2,0.4
					c0.1,0.1,0.2,0.1,0.4,0.1s0.3,0,0.4-0.1c0.1-0.1,0.2-0.2,0.2-0.3c0-0.1,0-0.2-0.1-0.3c-0.1-0.1-0.2-0.1-0.3-0.2
					s-0.3-0.1-0.5-0.2c-0.3-0.1-0.6-0.2-0.8-0.3c-0.2-0.1-0.4-0.2-0.5-0.4c-0.1-0.2-0.2-0.4-0.2-0.7c0-0.5,0.2-0.8,0.5-1.1
					c0.3-0.3,0.8-0.4,1.3-0.4s1,0.1,1.3,0.4s0.5,0.6,0.5,1.1h-1.3c0-0.2-0.1-0.3-0.2-0.4c-0.1-0.1-0.2-0.1-0.4-0.1
					c-0.1,0-0.3,0-0.3,0.1c-0.1,0.1-0.1,0.2-0.1,0.3c0,0.2,0.1,0.3,0.2,0.4c0.1,0.1,0.4,0.2,0.7,0.3c0.3,0.1,0.6,0.2,0.8,0.3
					c0.2,0.1,0.4,0.2,0.5,0.4c0.1,0.2,0.2,0.4,0.2,0.7c0,0.3-0.1,0.5-0.2,0.8c-0.1,0.2-0.3,0.4-0.6,0.5
					C182.5,335,182.1,335,181.8,335z M187.9,333c0,0.1,0,0.2,0,0.3h-2.7c0,0.2,0.1,0.4,0.2,0.6c0.1,0.1,0.3,0.2,0.5,0.2
					c0.3,0,0.5-0.1,0.6-0.4h1.3c-0.1,0.3-0.2,0.5-0.4,0.7s-0.4,0.4-0.6,0.5s-0.5,0.2-0.9,0.2s-0.7-0.1-1-0.2
					c-0.3-0.2-0.5-0.4-0.7-0.7c-0.2-0.3-0.2-0.7-0.2-1.1s0.1-0.8,0.2-1.1c0.2-0.3,0.4-0.5,0.7-0.7s0.6-0.2,1-0.2s0.7,0.1,1,0.2
					c0.3,0.2,0.5,0.4,0.7,0.7C187.8,332.2,187.9,332.6,187.9,333z M186.7,332.7c0-0.2-0.1-0.4-0.2-0.5c-0.1-0.1-0.3-0.2-0.5-0.2
					s-0.4,0.1-0.5,0.2s-0.2,0.3-0.2,0.5H186.7z M189.7,329.8v5.1h-1.2v-5.1H189.7z M194.2,333c0,0.1,0,0.2,0,0.3h-2.7
					c0,0.2,0.1,0.4,0.2,0.6c0.1,0.1,0.3,0.2,0.5,0.2c0.3,0,0.5-0.1,0.6-0.4h1.3c-0.1,0.3-0.2,0.5-0.4,0.7s-0.4,0.4-0.6,0.5
					c-0.3,0.1-0.5,0.2-0.9,0.2s-0.7-0.1-1-0.2c-0.3-0.2-0.5-0.4-0.7-0.7s-0.2-0.7-0.2-1.1s0.1-0.8,0.2-1.1c0.2-0.3,0.4-0.5,0.7-0.7
					s0.6-0.2,1-0.2s0.7,0.1,1,0.2c0.3,0.2,0.5,0.4,0.7,0.7C194.2,332.2,194.2,332.6,194.2,333z M193,332.7c0-0.2-0.1-0.4-0.2-0.5
					c-0.1-0.1-0.3-0.2-0.5-0.2s-0.4,0.1-0.5,0.2s-0.2,0.3-0.2,0.5H193z M196.5,335c-0.3,0-0.6-0.1-0.9-0.2c-0.3-0.1-0.5-0.3-0.6-0.5
					c-0.2-0.2-0.2-0.4-0.3-0.7h1.2c0,0.1,0.1,0.2,0.2,0.3c0.1,0.1,0.2,0.1,0.4,0.1c0.1,0,0.3,0,0.3-0.1c0.1-0.1,0.1-0.1,0.1-0.2
					s-0.1-0.2-0.2-0.2c-0.1-0.1-0.3-0.1-0.6-0.2s-0.5-0.1-0.7-0.2s-0.3-0.2-0.5-0.3c-0.1-0.2-0.2-0.4-0.2-0.6s0.1-0.4,0.2-0.6
					c0.1-0.2,0.3-0.3,0.5-0.4s0.5-0.2,0.9-0.2c0.5,0,0.9,0.1,1.1,0.4c0.3,0.2,0.4,0.6,0.5,1h-1.1c0-0.1-0.1-0.2-0.2-0.3
					c-0.1-0.1-0.2-0.1-0.4-0.1c-0.1,0-0.2,0-0.3,0.1s-0.1,0.1-0.1,0.2s0.1,0.2,0.2,0.2c0.1,0.1,0.3,0.1,0.6,0.2s0.5,0.1,0.7,0.2
					s0.3,0.2,0.5,0.3c0.1,0.2,0.2,0.4,0.2,0.6s-0.1,0.4-0.2,0.6c-0.1,0.2-0.3,0.3-0.5,0.4C197,335,196.8,335,196.5,335z M198.5,333
					c0-0.4,0.1-0.7,0.2-1c0.2-0.3,0.4-0.5,0.6-0.7c0.3-0.2,0.5-0.2,0.9-0.2c0.3,0,0.5,0.1,0.7,0.2s0.4,0.3,0.5,0.4v-0.5h1.2v3.9
					h-1.2v-0.5c-0.1,0.2-0.3,0.3-0.5,0.4s-0.4,0.2-0.7,0.2s-0.6-0.1-0.9-0.2c-0.3-0.2-0.5-0.4-0.6-0.7
					C198.6,333.8,198.5,333.4,198.5,333z M201.4,333c0-0.3-0.1-0.5-0.2-0.7c-0.2-0.2-0.4-0.3-0.6-0.3s-0.4,0.1-0.6,0.3
					c-0.2,0.2-0.2,0.4-0.2,0.7c0,0.3,0.1,0.5,0.2,0.7c0.2,0.2,0.4,0.3,0.6,0.3s0.4-0.1,0.6-0.3C201.3,333.6,201.4,333.3,201.4,333z
					 M204.1,330.7c-0.2,0-0.4-0.1-0.5-0.2s-0.2-0.3-0.2-0.5s0.1-0.3,0.2-0.5c0.1-0.1,0.3-0.2,0.5-0.2s0.4,0.1,0.5,0.2
					s0.2,0.3,0.2,0.5s-0.1,0.3-0.2,0.5C204.4,330.6,204.3,330.7,204.1,330.7z M204.6,331.1v3.9h-1.2v-3.9H204.6z M209.5,335l-1-1.8
					h-0.3v1.8H207v-4.9h2c0.4,0,0.7,0.1,1,0.2s0.5,0.3,0.6,0.6c0.1,0.2,0.2,0.5,0.2,0.8s-0.1,0.6-0.3,0.9s-0.4,0.4-0.8,0.5l1.1,1.9
					H209.5z M208.2,332.3h0.7c0.2,0,0.4-0.1,0.5-0.2s0.2-0.3,0.2-0.5s-0.1-0.3-0.2-0.4c-0.1-0.1-0.3-0.2-0.5-0.2h-0.7V332.3z
					 M215.2,333c0,0.1,0,0.2,0,0.3h-2.7c0,0.2,0.1,0.4,0.2,0.6c0.1,0.1,0.3,0.2,0.5,0.2c0.3,0,0.5-0.1,0.6-0.4h1.3
					c-0.1,0.3-0.2,0.5-0.4,0.7s-0.4,0.4-0.6,0.5c-0.3,0.1-0.5,0.2-0.9,0.2s-0.7-0.1-1-0.2c-0.3-0.2-0.5-0.4-0.7-0.7
					s-0.2-0.7-0.2-1.1s0.1-0.8,0.2-1.1c0.2-0.3,0.4-0.5,0.7-0.7s0.6-0.2,1-0.2s0.7,0.1,1,0.2c0.3,0.2,0.5,0.4,0.7,0.7
					C215.1,332.2,215.2,332.6,215.2,333z M213.9,332.7c0-0.2-0.1-0.4-0.2-0.5c-0.1-0.1-0.3-0.2-0.5-0.2s-0.4,0.1-0.5,0.2
					s-0.2,0.3-0.2,0.5H213.9z M218.2,331.1c0.4,0,0.8,0.1,1.1,0.4s0.4,0.7,0.4,1.2v2.3h-1.2v-2.1c0-0.3-0.1-0.5-0.2-0.6
					c-0.1-0.1-0.3-0.2-0.5-0.2s-0.4,0.1-0.5,0.2s-0.2,0.3-0.2,0.6v2.1h-1.2v-5.1h1.2v1.8c0.1-0.2,0.3-0.3,0.5-0.4
					C217.7,331.1,217.9,331.1,218.2,331.1z M220.2,333c0-0.4,0.1-0.7,0.2-1c0.2-0.3,0.4-0.5,0.6-0.7c0.3-0.2,0.5-0.2,0.9-0.2
					c0.3,0,0.5,0.1,0.7,0.2s0.4,0.3,0.5,0.4v-0.5h1.2v3.9h-1.2v-0.5c-0.1,0.2-0.3,0.3-0.5,0.4s-0.4,0.2-0.7,0.2s-0.6-0.1-0.9-0.2
					c-0.3-0.2-0.5-0.4-0.6-0.7C220.3,333.8,220.2,333.4,220.2,333z M223.1,333c0-0.3-0.1-0.5-0.2-0.7c-0.2-0.2-0.4-0.3-0.6-0.3
					c-0.2,0-0.4,0.1-0.6,0.3c-0.2,0.2-0.2,0.4-0.2,0.7c0,0.3,0.1,0.5,0.2,0.7c0.2,0.2,0.4,0.3,0.6,0.3c0.2,0,0.4-0.1,0.6-0.3
					C223,333.6,223.1,333.3,223.1,333z M227.3,334v1h-0.6c-0.4,0-0.8-0.1-1-0.3c-0.2-0.2-0.4-0.6-0.4-1v-1.5h-0.5v-1h0.5v-0.9h1.2
					v0.9h0.8v1h-0.8v1.6c0,0.1,0,0.2,0.1,0.2s0.1,0.1,0.3,0.1h0.4V334z"/>
				<g>
					<g>
						<defs>
							<rect id="SVGID_5_" x="148.5" y="320.3" width="24.5" height="24.5"/>
						</defs>
						<clipPath id="SVGID_6_">
							<use xlink:href="#SVGID_5_"  style="overflow:visible;"/>
						</clipPath>
						<g class="st12">
							<path class="st13" d="M170.6,332.9c-0.3,0-0.5,0.2-0.5,0.5v2.2h-18.8v-5.9c0-0.3-0.2-0.5-0.5-0.5s-0.5,0.2-0.5,0.5v13.9
								c0,0.3,0.2,0.5,0.5,0.5s0.5-0.2,0.5-0.5v-2.2h18.8v2.2c0,0.3,0.2,0.5,0.5,0.5s0.5-0.2,0.5-0.5v-10.1
								C171,333.1,170.8,332.9,170.6,332.9z M170.1,336.5v2.2h-18.8v-2.2H170.1z M151.3,340.4v-0.6h18.8v0.6H151.3z"/>
							<path class="st13" d="M152.2,335.1h5c0.3,0,0.5-0.2,0.5-0.5c0-1.4-1.1-2.5-2.5-2.5h-2.9c-0.3,0-0.5,0.2-0.5,0.5v2
								C151.7,334.9,152,335.1,152.2,335.1z M152.7,333.1h2.4c0.7,0,1.3,0.4,1.5,1.1h-3.9V333.1z"/>
							<path class="st13" d="M166,329.1c1.9,0,3.5-1.3,3.9-3.1c0.4-1.8-0.5-3.7-2.2-4.5s-3.7-0.3-4.9,1.2c-1.2,1.6-1.1,3.8,0.2,5.2
								C163.8,328.6,164.9,329.1,166,329.1z M163.6,323.2c0.9-1.2,2.6-1.5,3.9-0.8c1.3,0.7,1.9,2.3,1.4,3.7c-0.5,1.4-1.9,2.3-3.4,2
								c-1.5-0.2-2.6-1.5-2.6-3C162.9,324.4,163.2,323.7,163.6,323.2z"/>
							<path class="st13" d="M165.4,325.8l1,0.6c0.1,0.1,0.3,0.1,0.5,0s0.3-0.2,0.3-0.4c0-0.2-0.1-0.3-0.2-0.4l-0.8-0.5v-1.7
								c0-0.3-0.2-0.5-0.5-0.5s-0.5,0.2-0.5,0.5v2C165.2,325.5,165.3,325.7,165.4,325.8z"/>
							<path class="st13" d="M150.2,325.5h5.7c0.3,0,0.5-0.2,0.5-0.5s-0.2-0.5-0.5-0.5h-5.7l1.4-1.4c0.2-0.2,0.2-0.5,0-0.7
								s-0.5-0.2-0.7,0l-2.2,2.2c-0.2,0.2-0.2,0.5,0,0.7l2.2,2.2c0.2,0.2,0.5,0.2,0.7,0s0.2-0.5,0-0.7L150.2,325.5z"/>
						</g>
					</g>
				</g>
				<g>
					<path class="st1" d="M144.9,268h116.4c3.4,0,6.1,2.7,6.1,6.1v24.5c0,3.4-2.7,6.1-6.1,6.1H144.9c-3.4,0-6.1-2.7-6.1-6.1v-24.5
						C138.7,270.8,141.5,268,144.9,268z"/>
					<path class="st8" d="M144.9,268.2h116.4c3.3,0,5.9,2.7,5.9,5.9v24.5c0,3.3-2.7,5.9-5.9,5.9H144.9c-3.3,0-5.9-2.7-5.9-5.9v-24.5
						C139,270.9,141.6,268.2,144.9,268.2z"/>
				</g>
				<path class="st9" d="M182.5,288.8l-1-1.8h-0.3v1.8H180V284h2c0.4,0,0.7,0.1,1,0.2s0.5,0.3,0.6,0.6c0.1,0.2,0.2,0.5,0.2,0.8
					s-0.1,0.6-0.3,0.9s-0.4,0.4-0.8,0.5l1.1,1.9h-1.3V288.8z M181.2,286.2h0.7c0.2,0,0.4-0.1,0.5-0.2s0.2-0.3,0.2-0.5
					s-0.1-0.3-0.2-0.4c-0.1-0.1-0.3-0.2-0.5-0.2h-0.7V286.2z M188.2,286.8c0,0.1,0,0.2,0,0.3h-2.7c0,0.2,0.1,0.4,0.2,0.6
					c0.1,0.1,0.3,0.2,0.5,0.2c0.3,0,0.5-0.1,0.6-0.4h1.3c-0.1,0.3-0.2,0.5-0.4,0.7s-0.4,0.4-0.6,0.5c-0.3,0.1-0.5,0.2-0.9,0.2
					s-0.7-0.1-1-0.2s-0.5-0.4-0.7-0.7c-0.2-0.3-0.2-0.7-0.2-1.1s0.1-0.8,0.2-1.1c0.2-0.3,0.4-0.5,0.7-0.7s0.6-0.2,1-0.2
					s0.7,0.1,1,0.2c0.3,0.2,0.5,0.4,0.7,0.7S188.2,286.5,188.2,286.8z M187,286.5c0-0.2-0.1-0.4-0.2-0.5c-0.1-0.1-0.3-0.2-0.5-0.2
					s-0.4,0.1-0.5,0.2s-0.2,0.3-0.2,0.5H187z M191.2,284.9c0.4,0,0.8,0.1,1.1,0.4s0.4,0.7,0.4,1.2v2.3h-1.2v-2.1
					c0-0.3-0.1-0.5-0.2-0.6c-0.1-0.1-0.3-0.2-0.5-0.2s-0.4,0.1-0.5,0.2s-0.2,0.3-0.2,0.6v2.1h-1.2v-5.1h1.2v1.8
					c0.1-0.2,0.3-0.3,0.5-0.4C190.7,285,190.9,284.9,191.2,284.9z M193.3,286.9c0-0.4,0.1-0.7,0.2-1c0.2-0.3,0.4-0.5,0.6-0.7
					c0.3-0.2,0.5-0.2,0.9-0.2c0.3,0,0.5,0.1,0.7,0.2s0.4,0.3,0.5,0.4V285h1.2v3.9h-1.2v-0.5c-0.1,0.2-0.3,0.3-0.5,0.4
					s-0.4,0.2-0.7,0.2s-0.6-0.1-0.9-0.2c-0.3-0.2-0.5-0.4-0.6-0.7C193.3,287.6,193.3,287.3,193.3,286.9z M196.2,286.9
					c0-0.3-0.1-0.5-0.2-0.7c-0.2-0.2-0.4-0.3-0.6-0.3c-0.2,0-0.4,0.1-0.6,0.3c-0.2,0.2-0.2,0.4-0.2,0.7c0,0.3,0.1,0.5,0.2,0.7
					c0.2,0.2,0.4,0.3,0.6,0.3c0.2,0,0.4-0.1,0.6-0.3C196.1,287.4,196.2,287.2,196.2,286.9z M200.4,287.8v1h-0.6
					c-0.4,0-0.8-0.1-1-0.3c-0.2-0.2-0.4-0.6-0.4-1V286h-0.5v-1h0.5v-1h1.2v0.9h0.8v1h-0.8v1.6c0,0.1,0,0.2,0.1,0.2
					c0.1,0.1,0.1,0.1,0.3,0.1L200.4,287.8L200.4,287.8z"/>
				<path class="st14" d="M170.6,286.8c-0.3,0-0.5,0.2-0.5,0.5v2.2h-18.8v-5.9c0-0.3-0.2-0.5-0.5-0.5s-0.5,0.2-0.5,0.5v13.9
					c0,0.3,0.2,0.5,0.5,0.5s0.5-0.2,0.5-0.5v-2.2h18.8v2.2c0,0.3,0.2,0.5,0.5,0.5s0.5-0.2,0.5-0.5v-10.1
					C171,287,170.8,286.8,170.6,286.8z M170.1,290.4v2.2h-18.8v-2.2H170.1z M151.3,294.2v-0.6h18.8v0.6H151.3z"/>
				<path class="st14" d="M152.2,289h5c0.3,0,0.5-0.2,0.5-0.5c0-1.4-1.1-2.5-2.5-2.5h-2.9c-0.3,0-0.5,0.2-0.5,0.5v2
					C151.7,288.8,152,289,152.2,289z M152.7,287h2.4c0.7,0,1.3,0.4,1.5,1.1h-3.9V287z"/>
				<path class="st14" d="M166,283c1.9,0,3.5-1.3,3.9-3.1c0.4-1.8-0.5-3.7-2.2-4.5s-3.7-0.3-4.9,1.2c-1.2,1.6-1.1,3.8,0.2,5.2
					C163.8,282.5,164.9,283,166,283z M163.6,277c0.9-1.2,2.6-1.5,3.9-0.8c1.3,0.7,1.9,2.3,1.4,3.7c-0.5,1.4-1.9,2.3-3.4,2
					c-1.5-0.2-2.6-1.5-2.6-3C162.9,278.2,163.2,277.6,163.6,277z"/>
				<path class="st14" d="M166.5,279.2v-2c0-0.3-0.2-0.5-0.5-0.5s-0.5,0.2-0.5,0.5v1.7l-0.8,0.5c-0.1,0.1-0.2,0.3-0.2,0.4
					c0,0.2,0.1,0.3,0.3,0.4s0.3,0.1,0.5,0l1-0.6C166.4,279.6,166.5,279.4,166.5,279.2z"/>
				<path class="st14" d="M156.2,278.5l-2.2-2.2c-0.2-0.2-0.5-0.2-0.7,0s-0.2,0.5,0,0.7l1.4,1.4H149c-0.3,0-0.5,0.2-0.5,0.5
					s0.2,0.5,0.5,0.5h5.7l-1.4,1.4c-0.2,0.2-0.2,0.5,0,0.7s0.5,0.2,0.7,0l2.2-2.2C156.4,279,156.4,278.7,156.2,278.5z"/>
				<g>
					<path class="st1" d="M144.9,221.9h116.4c3.4,0,6.1,2.7,6.1,6.1v24.5c0,3.4-2.7,6.1-6.1,6.1H144.9c-3.4,0-6.1-2.7-6.1-6.1V228
						C138.7,224.6,141.5,221.9,144.9,221.9z"/>
					<path class="st8" d="M144.9,222.1h116.4c3.3,0,5.9,2.7,5.9,5.9v24.5c0,3.3-2.7,5.9-5.9,5.9H144.9c-3.3,0-5.9-2.7-5.9-5.9V228
						C139,224.7,141.6,222.1,144.9,222.1z"/>
				</g>
				<path class="st9" d="M183.7,239.4c0,0.3-0.1,0.5-0.2,0.8c-0.1,0.2-0.3,0.4-0.6,0.6s-0.6,0.2-1,0.2h-0.7v1.7H180v-4.9h1.9
					c0.4,0,0.7,0.1,1,0.2c0.3,0.1,0.5,0.3,0.6,0.6S183.7,239.1,183.7,239.4z M181.8,240c0.2,0,0.4-0.1,0.5-0.2
					c0.1-0.1,0.2-0.3,0.2-0.5s-0.1-0.3-0.2-0.5c-0.1-0.1-0.3-0.2-0.5-0.2h-0.6v1.2h0.6V240z M185.5,239.5c0.1-0.2,0.3-0.4,0.5-0.5
					s0.4-0.2,0.7-0.2v1.3h-0.3c-0.3,0-0.5,0.1-0.7,0.2c-0.1,0.1-0.2,0.3-0.2,0.7v1.8h-1.2v-3.9h1.2V239.5z M191,240.7
					c0,0.1,0,0.2,0,0.3h-2.7c0,0.2,0.1,0.4,0.2,0.6c0.1,0.1,0.3,0.2,0.5,0.2c0.3,0,0.5-0.1,0.6-0.4h1.3c-0.1,0.3-0.2,0.5-0.4,0.7
					s-0.4,0.4-0.6,0.5c-0.3,0.1-0.5,0.2-0.9,0.2s-0.7-0.1-1-0.2c-0.3-0.2-0.5-0.4-0.7-0.7s-0.2-0.7-0.2-1.1c0-0.4,0.1-0.8,0.2-1.1
					c0.2-0.3,0.4-0.5,0.7-0.7s0.6-0.2,1-0.2s0.7,0.1,1,0.2c0.3,0.2,0.5,0.4,0.7,0.7C190.9,240,191,240.3,191,240.7z M189.7,240.4
					c0-0.2-0.1-0.4-0.2-0.5s-0.3-0.2-0.5-0.2s-0.4,0.1-0.5,0.2c-0.1,0.1-0.2,0.3-0.2,0.5H189.7z M193.2,242.8
					c-0.3,0-0.6-0.1-0.9-0.2c-0.3-0.1-0.5-0.3-0.6-0.5c-0.2-0.2-0.2-0.4-0.3-0.7h1.2c0,0.1,0.1,0.2,0.2,0.3c0.1,0.1,0.2,0.1,0.4,0.1
					c0.1,0,0.3,0,0.3-0.1c0.1-0.1,0.1-0.1,0.1-0.2c0-0.1-0.1-0.2-0.2-0.2c-0.1-0.1-0.3-0.1-0.6-0.2c-0.3-0.1-0.5-0.1-0.7-0.2
					c-0.2-0.1-0.3-0.2-0.5-0.3c-0.1-0.2-0.2-0.4-0.2-0.6c0-0.2,0.1-0.4,0.2-0.6c0.1-0.2,0.3-0.3,0.5-0.4c0.2-0.1,0.5-0.2,0.9-0.2
					c0.5,0,0.9,0.1,1.1,0.4c0.3,0.2,0.4,0.6,0.5,1h-1.1c0-0.1-0.1-0.2-0.2-0.3c-0.1-0.1-0.2-0.1-0.4-0.1c-0.1,0-0.2,0-0.3,0.1
					s-0.1,0.1-0.1,0.2c0,0.1,0.1,0.2,0.2,0.2c0.1,0.1,0.3,0.1,0.6,0.2c0.3,0.1,0.5,0.1,0.7,0.2c0.2,0.1,0.3,0.2,0.5,0.3
					c0.1,0.2,0.2,0.4,0.2,0.6c0,0.2-0.1,0.4-0.2,0.6c-0.1,0.2-0.3,0.3-0.5,0.4C193.7,242.7,193.5,242.8,193.2,242.8z M199.1,240.7
					c0,0.1,0,0.2,0,0.3h-2.7c0,0.2,0.1,0.4,0.2,0.6c0.1,0.1,0.3,0.2,0.5,0.2c0.3,0,0.5-0.1,0.6-0.4h1.3c-0.1,0.3-0.2,0.5-0.4,0.7
					s-0.4,0.4-0.6,0.5s-0.5,0.2-0.9,0.2s-0.7-0.1-1-0.2c-0.3-0.2-0.5-0.4-0.7-0.7s-0.2-0.7-0.2-1.1c0-0.4,0.1-0.8,0.2-1.1
					c0.2-0.3,0.4-0.5,0.7-0.7s0.6-0.2,1-0.2s0.7,0.1,1,0.2s0.5,0.4,0.7,0.7C199,240,199.1,240.3,199.1,240.7z M197.9,240.4
					c0-0.2-0.1-0.4-0.2-0.5s-0.3-0.2-0.5-0.2s-0.4,0.1-0.5,0.2c-0.1,0.1-0.2,0.3-0.2,0.5H197.9z M202.1,238.8c0.5,0,0.8,0.1,1.1,0.4
					c0.3,0.3,0.4,0.7,0.4,1.2v2.3h-1.2v-2.1c0-0.3-0.1-0.5-0.2-0.6c-0.1-0.1-0.3-0.2-0.5-0.2s-0.4,0.1-0.5,0.2
					c-0.1,0.1-0.2,0.3-0.2,0.6v2.1h-1.2v-3.9h1.2v0.5c0.1-0.2,0.3-0.3,0.5-0.4C201.6,238.8,201.8,238.8,202.1,238.8z M206,242.8
					c-0.3,0-0.6-0.1-0.9-0.2c-0.3-0.1-0.5-0.3-0.6-0.5c-0.2-0.2-0.2-0.4-0.3-0.7h1.2c0,0.1,0.1,0.2,0.2,0.3c0.1,0.1,0.2,0.1,0.4,0.1
					c0.1,0,0.3,0,0.3-0.1c0.1-0.1,0.1-0.1,0.1-0.2c0-0.1-0.1-0.2-0.2-0.2c-0.1-0.1-0.3-0.1-0.6-0.2c-0.3-0.1-0.5-0.1-0.7-0.2
					c-0.2-0.1-0.3-0.2-0.5-0.3c-0.1-0.2-0.2-0.4-0.2-0.6c0-0.2,0.1-0.4,0.2-0.6c0.1-0.2,0.3-0.3,0.5-0.4c0.2-0.1,0.5-0.2,0.9-0.2
					c0.5,0,0.9,0.1,1.1,0.4c0.3,0.2,0.4,0.6,0.5,1h-1.1c0-0.1-0.1-0.2-0.2-0.3c-0.1-0.1-0.2-0.1-0.4-0.1c-0.1,0-0.2,0-0.3,0.1
					s-0.1,0.1-0.1,0.2c0,0.1,0.1,0.2,0.2,0.2c0.1,0.1,0.3,0.1,0.6,0.2c0.3,0.1,0.5,0.1,0.7,0.2c0.2,0.1,0.3,0.2,0.5,0.3
					c0.1,0.2,0.2,0.4,0.2,0.6c0,0.2-0.1,0.4-0.2,0.6c-0.1,0.2-0.3,0.3-0.5,0.4C206.6,242.7,206.3,242.8,206,242.8z M208.9,238.4
					c-0.2,0-0.4-0.1-0.5-0.2c-0.1-0.1-0.2-0.3-0.2-0.5s0.1-0.3,0.2-0.5c0.1-0.1,0.3-0.2,0.5-0.2s0.4,0.1,0.5,0.2
					c0.1,0.1,0.2,0.3,0.2,0.5s-0.1,0.3-0.2,0.5C209.2,238.4,209.1,238.4,208.9,238.4z M209.5,238.8v3.9h-1.2v-3.9H209.5z
					 M214.6,242.7l-1.6-2.2v2.2h-1.2v-4.9h1.2v2.1l1.6-2.1h1.4l-1.9,2.4l2,2.5H214.6z M220.3,240.7c0,0.1,0,0.2,0,0.3h-2.7
					c0,0.2,0.1,0.4,0.2,0.6c0.1,0.1,0.3,0.2,0.5,0.2c0.3,0,0.5-0.1,0.6-0.4h1.3c-0.1,0.3-0.2,0.5-0.4,0.7s-0.4,0.4-0.6,0.5
					s-0.5,0.2-0.9,0.2s-0.7-0.1-1-0.2c-0.3-0.2-0.5-0.4-0.7-0.7s-0.2-0.7-0.2-1.1c0-0.4,0.1-0.8,0.2-1.1c0.2-0.3,0.4-0.5,0.7-0.7
					s0.6-0.2,1-0.2s0.7,0.1,1,0.2s0.5,0.4,0.7,0.7C220.2,240,220.3,240.3,220.3,240.7z M219.1,240.4c0-0.2-0.1-0.4-0.2-0.5
					s-0.3-0.2-0.5-0.2s-0.4,0.1-0.5,0.2c-0.1,0.1-0.2,0.3-0.2,0.5H219.1z M222.1,237.6v5.1h-1.2v-5.1H222.1z M226.8,238.8v3.9h-1.2
					v-0.5c-0.1,0.2-0.3,0.3-0.5,0.4c-0.2,0.1-0.4,0.2-0.7,0.2s-0.6-0.1-0.8-0.2c-0.2-0.1-0.4-0.3-0.5-0.6c-0.1-0.2-0.2-0.5-0.2-0.9
					v-2.3h1.2v2.1c0,0.3,0.1,0.5,0.2,0.6c0.1,0.1,0.3,0.2,0.5,0.2s0.4-0.1,0.5-0.2s0.2-0.3,0.2-0.6v-2.1L226.8,238.8L226.8,238.8z
					 M227.4,240.8c0-0.4,0.1-0.7,0.2-1c0.2-0.3,0.4-0.5,0.6-0.7c0.3-0.2,0.5-0.2,0.9-0.2c0.3,0,0.5,0.1,0.7,0.2
					c0.2,0.1,0.4,0.3,0.5,0.4V239h1.2v3.9h-1.2v-0.5c-0.1,0.2-0.3,0.3-0.5,0.4c-0.2,0.1-0.4,0.2-0.7,0.2s-0.6-0.1-0.9-0.2
					c-0.3-0.2-0.5-0.4-0.6-0.7C227.5,241.5,227.4,241.2,227.4,240.8z M230.3,240.8c0-0.3-0.1-0.5-0.2-0.7c-0.2-0.2-0.4-0.3-0.6-0.3
					s-0.4,0.1-0.6,0.3c-0.2,0.2-0.2,0.4-0.2,0.7s0.1,0.5,0.2,0.7c0.2,0.2,0.4,0.3,0.6,0.3s0.4-0.1,0.6-0.3
					C230.2,241.3,230.3,241.1,230.3,240.8z M233.5,239.5c0.1-0.2,0.3-0.4,0.5-0.5s0.4-0.2,0.7-0.2v1.3h-0.3c-0.3,0-0.5,0.1-0.7,0.2
					c-0.1,0.1-0.2,0.3-0.2,0.7v1.8h-1.2v-3.9h1.2V239.5z"/>
				<path class="st15" d="M166.9,233.8c-0.1-0.2-0.2-0.2-0.4-0.2h-10.2c-0.3,0-0.5,0.2-0.5,0.5v4.2c0,0.3,0.2,0.5,0.5,0.5
					s0.5-0.2,0.5-0.5v-3.8h6.6l-4.5,1.3c-0.2,0.1-0.3,0.2-0.3,0.4v13.1h-1.8v-3.6c0-0.3-0.2-0.5-0.5-0.5s-0.5,0.2-0.5,0.5v4.1
					c0,0.3,0.2,0.5,0.5,0.5h2.3v1.8c0,0.1,0.1,0.3,0.2,0.4c0.1,0.1,0.3,0.1,0.4,0.1l7.5-2.2c0.2-0.1,0.3-0.2,0.3-0.4v-16
					C167,233.9,166.9,233.8,166.9,233.8z M166,249.4l-6.6,2v-14.8l6.6-2V249.4z"/>
				<path class="st15" d="M161.2,244c0.7,0,1.2-0.6,1.2-1.2c0-0.7-0.6-1.2-1.2-1.2c-0.7,0-1.2,0.6-1.2,1.2S160.5,244,161.2,244z
					 M161.2,242.4c0.2,0,0.3,0.1,0.3,0.3s-0.1,0.3-0.3,0.3s-0.3-0.1-0.3-0.3C160.9,242.6,161,242.4,161.2,242.4z"/>
				<path class="st15" d="M161.6,232.6c1.4,0,2.5-1.1,2.5-2.5s-1.1-2.5-2.5-2.5s-2.5,1.1-2.5,2.5c0,0.7,0.3,1.3,0.7,1.8
					C160.3,232.3,161,232.6,161.6,232.6z M161.6,228.4c0.9,0,1.6,0.7,1.6,1.6c0,0.9-0.7,1.6-1.6,1.6c-0.9,0-1.6-0.7-1.6-1.6
					C160,229.2,160.7,228.4,161.6,228.4z"/>
				<path class="st15" d="M162.4,230.3l-0.4-0.2v-0.9c0-0.2-0.2-0.4-0.4-0.4s-0.4,0.2-0.4,0.4v1.1c0,0.1,0.1,0.3,0.2,0.3l0.6,0.4
					c0.2,0.1,0.4,0.1,0.6-0.1C162.6,230.7,162.6,230.4,162.4,230.3z"/>
				<path class="st15" d="M152,242.3h5.5c0.3,0,0.5-0.2,0.5-0.5s-0.2-0.5-0.5-0.5H152l1.3-1.3c0.2-0.2,0.2-0.5,0-0.7s-0.5-0.2-0.7,0
					l-2.1,2.1c-0.2,0.2-0.2,0.5,0,0.7l2.1,2.1c0.2,0.2,0.5,0.2,0.7,0s0.2-0.5,0-0.7L152,242.3z"/>
				<g>
					<path class="st1" d="M144.9,175.7h116.4c3.4,0,6.1,2.7,6.1,6.1v24.5c0,3.4-2.7,6.1-6.1,6.1H144.9c-3.4,0-6.1-2.7-6.1-6.1v-24.5
						C138.7,178.5,141.5,175.7,144.9,175.7z"/>
					<path class="st8" d="M144.9,176h116.4c3.3,0,5.9,2.7,5.9,5.9v24.5c0,3.3-2.7,5.9-5.9,5.9H144.9c-3.3,0-5.9-2.7-5.9-5.9v-24.5
						C139,178.6,141.6,176,144.9,176z"/>
				</g>
				<path class="st9" d="M183.7,193.3c0,0.3-0.1,0.5-0.2,0.8c-0.1,0.2-0.3,0.4-0.6,0.6c-0.3,0.1-0.6,0.2-1,0.2h-0.7v1.7H180v-4.9
					h1.9c0.4,0,0.7,0.1,1,0.2c0.3,0.1,0.5,0.3,0.6,0.6S183.7,193,183.7,193.3z M181.8,193.9c0.2,0,0.4-0.1,0.5-0.2
					c0.1-0.1,0.2-0.3,0.2-0.5s-0.1-0.3-0.2-0.5c-0.1-0.1-0.3-0.2-0.5-0.2h-0.6v1.2h0.6V193.9z M185.5,193.3c0.1-0.2,0.3-0.4,0.5-0.5
					s0.4-0.2,0.7-0.2v1.3h-0.3c-0.3,0-0.5,0.1-0.7,0.2c-0.1,0.1-0.2,0.3-0.2,0.7v1.8h-1.2v-3.9h1.2V193.3z M191,194.6
					c0,0.1,0,0.2,0,0.3h-2.7c0,0.2,0.1,0.4,0.2,0.6c0.1,0.1,0.3,0.2,0.5,0.2c0.3,0,0.5-0.1,0.6-0.4h1.3c-0.1,0.3-0.2,0.5-0.4,0.7
					s-0.4,0.4-0.6,0.5c-0.3,0.1-0.5,0.2-0.9,0.2s-0.7-0.1-1-0.2c-0.3-0.2-0.5-0.4-0.7-0.7s-0.2-0.7-0.2-1.1c0-0.4,0.1-0.8,0.2-1.1
					c0.2-0.3,0.4-0.5,0.7-0.7s0.6-0.2,1-0.2s0.7,0.1,1,0.2c0.3,0.2,0.5,0.4,0.7,0.7C190.9,193.8,191,194.2,191,194.6z M189.7,194.3
					c0-0.2-0.1-0.4-0.2-0.5s-0.3-0.2-0.5-0.2s-0.4,0.1-0.5,0.2c-0.1,0.1-0.2,0.3-0.2,0.5H189.7z M193.2,196.6
					c-0.3,0-0.6-0.1-0.9-0.2c-0.3-0.1-0.5-0.3-0.6-0.5c-0.2-0.2-0.2-0.4-0.3-0.7h1.2c0,0.1,0.1,0.2,0.2,0.3c0.1,0.1,0.2,0.1,0.4,0.1
					c0.1,0,0.3,0,0.3-0.1c0.1-0.1,0.1-0.1,0.1-0.2c0-0.1-0.1-0.2-0.2-0.2c-0.1-0.1-0.3-0.1-0.6-0.2c-0.3-0.1-0.5-0.1-0.7-0.2
					c-0.2-0.1-0.3-0.2-0.5-0.3c-0.1-0.2-0.2-0.4-0.2-0.6c0-0.2,0.1-0.4,0.2-0.6c0.1-0.2,0.3-0.3,0.5-0.4c0.2-0.1,0.5-0.2,0.9-0.2
					c0.5,0,0.9,0.1,1.1,0.4c0.3,0.2,0.4,0.6,0.5,1h-1.1c0-0.1-0.1-0.2-0.2-0.3c-0.1-0.1-0.2-0.1-0.4-0.1c-0.1,0-0.2,0-0.3,0.1
					s-0.1,0.1-0.1,0.2c0,0.1,0.1,0.2,0.2,0.2c0.1,0.1,0.3,0.1,0.6,0.2c0.3,0.1,0.5,0.1,0.7,0.2c0.2,0.1,0.3,0.2,0.5,0.3
					c0.1,0.2,0.2,0.4,0.2,0.6c0,0.2-0.1,0.4-0.2,0.6c-0.1,0.2-0.3,0.3-0.5,0.4C193.7,196.6,193.5,196.6,193.2,196.6z M199.1,194.6
					c0,0.1,0,0.2,0,0.3h-2.7c0,0.2,0.1,0.4,0.2,0.6c0.1,0.1,0.3,0.2,0.5,0.2c0.3,0,0.5-0.1,0.6-0.4h1.3c-0.1,0.3-0.2,0.5-0.4,0.7
					s-0.4,0.4-0.6,0.5c-0.3,0.1-0.5,0.2-0.9,0.2s-0.7-0.1-1-0.2c-0.3-0.2-0.5-0.4-0.7-0.7s-0.2-0.7-0.2-1.1c0-0.4,0.1-0.8,0.2-1.1
					c0.2-0.3,0.4-0.5,0.7-0.7s0.6-0.2,1-0.2s0.7,0.1,1,0.2s0.5,0.4,0.7,0.7C199,193.8,199.1,194.2,199.1,194.6z M197.9,194.3
					c0-0.2-0.1-0.4-0.2-0.5s-0.3-0.2-0.5-0.2s-0.4,0.1-0.5,0.2c-0.1,0.1-0.2,0.3-0.2,0.5H197.9z M202.1,192.7c0.5,0,0.8,0.1,1.1,0.4
					c0.3,0.3,0.4,0.7,0.4,1.2v2.3h-1.2v-2.1c0-0.3-0.1-0.5-0.2-0.6c-0.1-0.1-0.3-0.2-0.5-0.2s-0.4,0.1-0.5,0.2
					c-0.1,0.1-0.2,0.3-0.2,0.6v2.1h-1.2v-3.9h1.2v0.5c0.1-0.2,0.3-0.3,0.5-0.4C201.6,192.7,201.8,192.7,202.1,192.7z M206,196.6
					c-0.3,0-0.6-0.1-0.9-0.2c-0.3-0.1-0.5-0.3-0.6-0.5c-0.2-0.2-0.2-0.4-0.3-0.7h1.2c0,0.1,0.1,0.2,0.2,0.3c0.1,0.1,0.2,0.1,0.4,0.1
					c0.1,0,0.3,0,0.3-0.1c0.1-0.1,0.1-0.1,0.1-0.2c0-0.1-0.1-0.2-0.2-0.2c-0.1-0.1-0.3-0.1-0.6-0.2c-0.3-0.1-0.5-0.1-0.7-0.2
					c-0.2-0.1-0.3-0.2-0.5-0.3c-0.1-0.2-0.2-0.4-0.2-0.6c0-0.2,0.1-0.4,0.2-0.6c0.1-0.2,0.3-0.3,0.5-0.4c0.2-0.1,0.5-0.2,0.9-0.2
					c0.5,0,0.9,0.1,1.1,0.4c0.3,0.2,0.4,0.6,0.5,1h-1.1c0-0.1-0.1-0.2-0.2-0.3c-0.1-0.1-0.2-0.1-0.4-0.1c-0.1,0-0.2,0-0.3,0.1
					s-0.1,0.1-0.1,0.2c0,0.1,0.1,0.2,0.2,0.2c0.1,0.1,0.3,0.1,0.6,0.2c0.3,0.1,0.5,0.1,0.7,0.2c0.2,0.1,0.3,0.2,0.5,0.3
					c0.1,0.2,0.2,0.4,0.2,0.6c0,0.2-0.1,0.4-0.2,0.6c-0.1,0.2-0.3,0.3-0.5,0.4C206.6,196.6,206.3,196.6,206,196.6z M208.9,192.3
					c-0.2,0-0.4-0.1-0.5-0.2c-0.1-0.1-0.2-0.3-0.2-0.5s0.1-0.3,0.2-0.5c0.1-0.1,0.3-0.2,0.5-0.2s0.4,0.1,0.5,0.2
					c0.1,0.1,0.2,0.3,0.2,0.5s-0.1,0.3-0.2,0.5C209.2,192.2,209.1,192.3,208.9,192.3z M209.5,192.7v3.9h-1.2v-3.9H209.5z
					 M217.3,191.7v4.9h-1.2v-2.9l-1.1,2.9h-1l-1.1-2.9v2.9h-1.2v-4.9h1.4l1.4,3.4l1.4-3.4H217.3z M217.9,194.6c0-0.4,0.1-0.7,0.2-1
					c0.2-0.3,0.4-0.5,0.6-0.7c0.3-0.2,0.5-0.2,0.9-0.2c0.3,0,0.5,0.1,0.7,0.2c0.2,0.1,0.4,0.3,0.5,0.4v-0.5h1.2v3.9h-1.2V196
					c-0.1,0.2-0.3,0.3-0.5,0.4c-0.2,0.1-0.4,0.2-0.7,0.2s-0.6-0.1-0.9-0.2c-0.3-0.2-0.5-0.4-0.6-0.7
					C218,195.4,217.9,195,217.9,194.6z M220.8,194.6c0-0.3-0.1-0.5-0.2-0.7c-0.2-0.2-0.4-0.3-0.6-0.3s-0.4,0.1-0.6,0.3
					c-0.2,0.2-0.2,0.4-0.2,0.7s0.1,0.5,0.2,0.7c0.2,0.2,0.4,0.3,0.6,0.3s0.4-0.1,0.6-0.3C220.7,195.2,220.8,194.9,220.8,194.6z
					 M224.5,196.6c-0.3,0-0.6-0.1-0.9-0.2c-0.3-0.1-0.5-0.3-0.6-0.5c-0.2-0.2-0.2-0.4-0.3-0.7h1.2c0,0.1,0.1,0.2,0.2,0.3
					c0.1,0.1,0.2,0.1,0.4,0.1c0.1,0,0.3,0,0.3-0.1c0.1-0.1,0.1-0.1,0.1-0.2c0-0.1-0.1-0.2-0.2-0.2c-0.1-0.1-0.3-0.1-0.6-0.2
					c-0.3-0.1-0.5-0.1-0.7-0.2c-0.2-0.1-0.3-0.2-0.5-0.3c-0.1-0.2-0.2-0.4-0.2-0.6c0-0.2,0.1-0.4,0.2-0.6c0.1-0.2,0.3-0.3,0.5-0.4
					c0.2-0.1,0.5-0.2,0.9-0.2c0.5,0,0.9,0.1,1.1,0.4c0.3,0.2,0.4,0.6,0.5,1h-1.1c0-0.1-0.1-0.2-0.2-0.3c-0.1-0.1-0.2-0.1-0.4-0.1
					c-0.1,0-0.2,0-0.3,0.1s-0.1,0.1-0.1,0.2c0,0.1,0.1,0.2,0.2,0.2c0.1,0.1,0.3,0.1,0.6,0.2c0.3,0.1,0.5,0.1,0.7,0.2
					c0.2,0.1,0.3,0.2,0.5,0.3c0.1,0.2,0.2,0.4,0.2,0.6c0,0.2-0.1,0.4-0.2,0.6c-0.1,0.2-0.3,0.3-0.5,0.4
					C225,196.6,224.8,196.6,224.5,196.6z M230.6,192.7v3.9h-1.2V196c-0.1,0.2-0.3,0.3-0.5,0.4c-0.2,0.1-0.4,0.2-0.7,0.2
					s-0.6-0.1-0.8-0.2c-0.2-0.1-0.4-0.3-0.5-0.6s-0.2-0.5-0.2-0.9v-2.3h1.2v2.1c0,0.3,0.1,0.5,0.2,0.6c0.1,0.1,0.3,0.2,0.5,0.2
					s0.4-0.1,0.5-0.2c0.1-0.1,0.2-0.3,0.2-0.6v-2.1h1.3V192.7z M233.8,196.6l-1.2-1.6v1.6h-1.2v-5.1h1.2v2.8l1.2-1.6h1.5l-1.6,1.9
					l1.6,1.9h-1.5V196.6z"/>
				<path class="st16" d="M166.9,187.6c-0.1-0.1-0.2-0.2-0.3-0.2h-0.1h-10.2c-0.3,0-0.5,0.2-0.5,0.5v4.2c0,0.3,0.2,0.5,0.5,0.5
					s0.5-0.2,0.5-0.5v-3.8h6.6l-4.5,1.3c-0.2,0.1-0.3,0.2-0.3,0.4v13.1h-1.8v-3.6c0-0.3-0.2-0.5-0.5-0.5s-0.5,0.2-0.5,0.5v4.1
					c0,0.3,0.2,0.5,0.5,0.5h2.3v1.8c0,0.1,0.1,0.3,0.2,0.4c0.1,0.1,0.3,0.1,0.4,0.1l7.5-2.2c0.2-0.1,0.3-0.2,0.3-0.4V188
					C167,187.8,166.9,187.7,166.9,187.6z M166,203.3l-6.6,2v-14.8l6.6-2V203.3z"/>
				<path class="st16" d="M161.2,197.8c0.7,0,1.2-0.6,1.2-1.2c0-0.7-0.6-1.2-1.2-1.2c-0.7,0-1.2,0.6-1.2,1.2
					C160,197.3,160.5,197.8,161.2,197.8z M161.2,196.3c0.2,0,0.3,0.1,0.3,0.3s-0.1,0.3-0.3,0.3s-0.3-0.1-0.3-0.3
					C160.9,196.4,161,196.3,161.2,196.3z"/>
				<path class="st16" d="M161.6,186.4c1.2,0,2.2-0.8,2.4-1.9c0.3-1.1-0.3-2.3-1.4-2.8c-1-0.5-2.3-0.2-3,0.7c-0.8,1-0.7,2.3,0.1,3.2
					C160.3,186.1,160.9,186.4,161.6,186.4z M160.3,182.9c0.5-0.6,1.4-0.8,2.1-0.4c0.7,0.4,1,1.2,0.8,2c-0.3,0.8-1,1.2-1.8,1.1
					c-0.8-0.1-1.4-0.8-1.4-1.6C160,183.6,160.1,183.2,160.3,182.9z"/>
				<path class="st16" d="M162.1,184.1V183c0-0.2-0.2-0.4-0.4-0.4s-0.4,0.2-0.4,0.4v0.9l-0.4,0.2c-0.2,0.1-0.2,0.4-0.1,0.6
					c0.1,0.2,0.4,0.2,0.6,0.1l0.6-0.4C162,184.4,162.1,184.3,162.1,184.1z"/>
				<path class="st16" d="M157.9,195.4l-2.1-2.1c-0.2-0.2-0.5-0.2-0.7,0s-0.2,0.5,0,0.7l1.3,1.3h-5.5c-0.3,0-0.5,0.2-0.5,0.5
					s0.2,0.5,0.5,0.5h5.5l-1.3,1.3c-0.2,0.2-0.2,0.5,0,0.7s0.5,0.2,0.7,0l2.1-2.1C158.1,195.9,158.1,195.6,157.9,195.4z"/>
				<path class="st17" d="M141.1,145.6h-1.5l-0.3,0.8h-0.5l1.2-3.4h0.5l1.2,3.4h-0.5L141.1,145.6z M141,145.2l-0.6-1.7l-0.6,1.7H141
					z M144.2,144.2c0.1-0.2,0.2-0.3,0.4-0.4c0.2-0.1,0.4-0.2,0.6-0.2c0.2,0,0.5,0.1,0.6,0.2c0.2,0.1,0.3,0.3,0.5,0.5
					c0.1,0.2,0.2,0.4,0.2,0.7s-0.1,0.5-0.2,0.7c-0.1,0.2-0.3,0.4-0.5,0.5s-0.4,0.2-0.6,0.2c-0.2,0-0.4-0.1-0.6-0.2
					c-0.2-0.1-0.3-0.2-0.4-0.4v1.8h-0.4v-4h0.4V144.2z M146,145c0-0.2,0-0.4-0.1-0.5c-0.1-0.2-0.2-0.3-0.3-0.3
					c-0.1-0.1-0.3-0.1-0.5-0.1s-0.3,0-0.5,0.1c-0.1,0.1-0.2,0.2-0.3,0.3c-0.1,0.2-0.1,0.3-0.1,0.5s0,0.4,0.1,0.5
					c0.1,0.2,0.2,0.3,0.3,0.3c0.1,0.1,0.3,0.1,0.5,0.1s0.3,0,0.5-0.1c0.1-0.1,0.3-0.2,0.3-0.3C146,145.4,146,145.2,146,145z
					 M149.5,144.9c0,0.1,0,0.2,0,0.3h-2.1c0,0.3,0.1,0.5,0.3,0.6s0.4,0.2,0.6,0.2c0.2,0,0.4,0,0.5-0.1s0.2-0.2,0.3-0.4h0.5
					c-0.1,0.3-0.2,0.5-0.4,0.6c-0.2,0.2-0.5,0.2-0.8,0.2s-0.5-0.1-0.7-0.2c-0.2-0.1-0.4-0.3-0.5-0.5s-0.2-0.5-0.2-0.7
					s0.1-0.5,0.2-0.7c0.1-0.2,0.3-0.4,0.5-0.5s0.4-0.2,0.7-0.2s0.5,0.1,0.7,0.2c0.2,0.1,0.3,0.3,0.5,0.5
					C149.4,144.4,149.5,144.7,149.5,144.9z M149,144.8c0-0.2,0-0.3-0.1-0.4c-0.1-0.1-0.2-0.2-0.3-0.3s-0.3-0.1-0.4-0.1
					c-0.2,0-0.4,0.1-0.6,0.2c-0.2,0.1-0.2,0.3-0.3,0.6H149z M150.5,144.1c0.1-0.2,0.2-0.3,0.3-0.4c0.1-0.1,0.3-0.1,0.5-0.1v0.5h-0.1
					c-0.5,0-0.7,0.3-0.7,0.8v1.5h-0.4v-2.7h0.4V144.1z M152.9,146.4c-0.2,0-0.4,0-0.6-0.1c-0.2-0.1-0.3-0.2-0.4-0.3
					c-0.1-0.1-0.1-0.3-0.2-0.4h0.5c0,0.1,0.1,0.2,0.2,0.3c0.1,0.1,0.3,0.1,0.4,0.1c0.2,0,0.3,0,0.4-0.1c0.1-0.1,0.1-0.2,0.1-0.3
					s-0.1-0.2-0.2-0.3c-0.1-0.1-0.3-0.1-0.5-0.2c-0.2-0.1-0.4-0.1-0.5-0.2c-0.1-0.1-0.2-0.1-0.3-0.2c-0.1-0.1-0.1-0.2-0.1-0.4
					c0-0.1,0-0.3,0.1-0.4c0.1-0.1,0.2-0.2,0.3-0.3c0.2-0.1,0.3-0.1,0.5-0.1c0.3,0,0.5,0.1,0.7,0.2c0.2,0.2,0.3,0.4,0.3,0.6h-0.4
					c0-0.1-0.1-0.3-0.2-0.3c-0.1-0.1-0.2-0.1-0.4-0.1s-0.3,0-0.4,0.1c-0.1,0.1-0.1,0.2-0.1,0.3s0,0.2,0.1,0.2
					c0.1,0.1,0.1,0.1,0.2,0.1c0.1,0,0.2,0.1,0.4,0.1c0.2,0.1,0.3,0.1,0.5,0.2c0.1,0,0.2,0.1,0.3,0.2c0.1,0.1,0.1,0.2,0.1,0.4
					c0,0.1,0,0.3-0.1,0.4c-0.1,0.1-0.2,0.2-0.3,0.3C153.2,146.4,153.1,146.4,152.9,146.4z M155.6,146.4c-0.3,0-0.5-0.1-0.7-0.2
					c-0.2-0.1-0.4-0.3-0.5-0.5s-0.2-0.5-0.2-0.7c0-0.3,0.1-0.5,0.2-0.7c0.1-0.2,0.3-0.4,0.5-0.5s0.4-0.2,0.7-0.2s0.5,0.1,0.7,0.2
					c0.2,0.1,0.4,0.3,0.5,0.5s0.2,0.5,0.2,0.7s-0.1,0.5-0.2,0.7c-0.1,0.2-0.3,0.4-0.5,0.5S155.9,146.4,155.6,146.4z M155.6,146
					c0.2,0,0.3,0,0.5-0.1c0.1-0.1,0.3-0.2,0.3-0.3c0.1-0.2,0.1-0.3,0.1-0.5s0-0.4-0.1-0.5s-0.2-0.3-0.3-0.3
					c-0.1-0.1-0.3-0.1-0.4-0.1c-0.2,0-0.3,0-0.5,0.1c-0.1,0.1-0.2,0.2-0.3,0.3s-0.1,0.3-0.1,0.5s0,0.4,0.1,0.6
					c0.1,0.2,0.2,0.3,0.3,0.3C155.3,146,155.5,146,155.6,146z M158.9,143.6c0.3,0,0.6,0.1,0.8,0.3s0.3,0.5,0.3,0.9v1.6h-0.4v-1.5
					c0-0.3-0.1-0.5-0.2-0.6c-0.1-0.1-0.3-0.2-0.5-0.2s-0.4,0.1-0.6,0.2c-0.1,0.1-0.2,0.4-0.2,0.6v1.5h-0.4v-2.7h0.4v0.4
					c0.1-0.1,0.2-0.2,0.4-0.3C158.6,143.7,158.7,143.6,158.9,143.6z M165.6,143.7l-0.8,2.7h-0.5l-0.6-2.1l-0.6,2.1h-0.5l-0.8-2.7
					h0.5l0.6,2.3l0.7-2.3h0.5l0.7,2.3l0.6-2.3H165.6z M167.4,143.6c0.2,0,0.4,0,0.5,0.1c0.2,0.1,0.3,0.2,0.4,0.4
					c0.1,0.2,0.1,0.4,0.1,0.6v1.6H168v-1.5c0-0.3-0.1-0.5-0.2-0.6c-0.1-0.1-0.3-0.2-0.5-0.2s-0.4,0.1-0.6,0.2
					c-0.1,0.1-0.2,0.4-0.2,0.6v1.5h-0.4v-3.6h0.4v1.3c0.1-0.1,0.2-0.2,0.4-0.3C167,143.7,167.2,143.6,167.4,143.6z M170.4,146.4
					c-0.3,0-0.5-0.1-0.7-0.2c-0.2-0.1-0.4-0.3-0.5-0.5s-0.2-0.5-0.2-0.7c0-0.3,0.1-0.5,0.2-0.7c0.1-0.2,0.3-0.4,0.5-0.5
					s0.4-0.2,0.7-0.2s0.5,0.1,0.7,0.2c0.2,0.1,0.4,0.3,0.5,0.5s0.2,0.5,0.2,0.7s-0.1,0.5-0.2,0.7c-0.1,0.2-0.3,0.4-0.5,0.5
					S170.6,146.4,170.4,146.4z M170.4,146c0.2,0,0.3,0,0.5-0.1c0.1-0.1,0.3-0.2,0.3-0.3c0.1-0.2,0.1-0.3,0.1-0.5s0-0.4-0.1-0.5
					s-0.2-0.3-0.3-0.3c-0.1-0.1-0.3-0.1-0.4-0.1c-0.2,0-0.3,0-0.5,0.1c-0.1,0.1-0.2,0.2-0.3,0.3c-0.1,0.2-0.1,0.3-0.1,0.5
					s0,0.4,0.1,0.6c0.1,0.2,0.2,0.3,0.3,0.3S170.2,146,170.4,146z M174.9,143.6c0.3,0,0.6,0.1,0.8,0.3s0.3,0.5,0.3,0.9v1.6h-0.4
					v-1.5c0-0.3-0.1-0.5-0.2-0.6c-0.1-0.1-0.3-0.2-0.5-0.2s-0.4,0.1-0.6,0.2c-0.1,0.1-0.2,0.4-0.2,0.6v1.5h-0.4v-2.7h0.4v0.4
					c0.1-0.1,0.2-0.2,0.4-0.3C174.6,143.7,174.8,143.6,174.9,143.6z M179.2,144.9c0,0.1,0,0.2,0,0.3h-2.1c0,0.3,0.1,0.5,0.3,0.6
					s0.4,0.2,0.6,0.2c0.2,0,0.4,0,0.5-0.1s0.2-0.2,0.3-0.4h0.5c-0.1,0.3-0.2,0.5-0.4,0.6c-0.2,0.2-0.5,0.2-0.8,0.2s-0.5-0.1-0.7-0.2
					c-0.2-0.1-0.4-0.3-0.5-0.5s-0.2-0.5-0.2-0.7s0.1-0.5,0.2-0.7s0.3-0.4,0.5-0.5s0.4-0.2,0.7-0.2s0.5,0.1,0.7,0.2
					c0.2,0.1,0.3,0.3,0.5,0.5C179.2,144.4,179.2,144.7,179.2,144.9z M178.8,144.8c0-0.2,0-0.3-0.1-0.4c-0.1-0.1-0.2-0.2-0.3-0.3
					s-0.3-0.1-0.4-0.1c-0.2,0-0.4,0.1-0.6,0.2c-0.2,0.1-0.2,0.3-0.3,0.6H178.8z M180.8,145.9l0.8-2.3h0.5l-1.1,2.7h-0.5l-1.1-2.7
					h0.5L180.8,145.9z M185,144.9c0,0.1,0,0.2,0,0.3h-2.1c0,0.3,0.1,0.5,0.3,0.6s0.4,0.2,0.6,0.2c0.2,0,0.4,0,0.5-0.1
					s0.2-0.2,0.3-0.4h0.5c-0.1,0.3-0.2,0.5-0.4,0.6c-0.2,0.2-0.5,0.2-0.8,0.2s-0.5-0.1-0.7-0.2c-0.2-0.1-0.4-0.3-0.5-0.5
					s-0.2-0.5-0.2-0.7s0.1-0.5,0.2-0.7c0.1-0.2,0.3-0.4,0.5-0.5s0.4-0.2,0.7-0.2s0.5,0.1,0.7,0.2c0.2,0.1,0.3,0.3,0.5,0.5
					C184.9,144.4,185,144.7,185,144.9z M184.5,144.8c0-0.2,0-0.3-0.1-0.4c-0.1-0.1-0.2-0.2-0.3-0.3s-0.3-0.1-0.4-0.1
					c-0.2,0-0.4,0.1-0.6,0.2c-0.2,0.1-0.2,0.3-0.3,0.6H184.5z M186,144.1c0.1-0.2,0.2-0.3,0.3-0.4c0.1-0.1,0.3-0.1,0.5-0.1v0.5h-0.1
					c-0.5,0-0.7,0.3-0.7,0.8v1.5h-0.4v-2.7h0.4V144.1z M192,143.6c0.2,0,0.4,0,0.6,0.1c0.2,0.1,0.3,0.2,0.4,0.4
					c0.1,0.2,0.1,0.4,0.1,0.6v1.6h-0.4v-1.5c0-0.3-0.1-0.5-0.2-0.6c-0.1-0.1-0.3-0.2-0.5-0.2s-0.4,0.1-0.6,0.2
					c-0.1,0.1-0.2,0.4-0.2,0.6v1.5h-0.4v-1.5c0-0.3-0.1-0.5-0.2-0.6c-0.1-0.1-0.3-0.2-0.5-0.2s-0.4,0.1-0.6,0.2
					c-0.1,0.1-0.2,0.4-0.2,0.6v1.5h-0.4v-2.7h0.4v0.4c0.1-0.1,0.2-0.2,0.4-0.3s0.3-0.1,0.5-0.1s0.4,0.1,0.6,0.2
					c0.2,0.1,0.3,0.2,0.4,0.4c0.1-0.2,0.2-0.3,0.4-0.4C191.5,143.7,191.7,143.6,192,143.6z M193.6,145c0-0.3,0.1-0.5,0.2-0.7
					c0.1-0.2,0.3-0.4,0.5-0.5s0.4-0.2,0.7-0.2c0.2,0,0.4,0.1,0.6,0.2c0.2,0.1,0.3,0.2,0.4,0.4v-0.5h0.5v2.7H196v-0.5
					c-0.1,0.2-0.2,0.3-0.4,0.4c-0.2,0.1-0.4,0.2-0.6,0.2c-0.2,0-0.5-0.1-0.6-0.2c-0.2-0.1-0.3-0.3-0.5-0.5
					C193.7,145.5,193.6,145.3,193.6,145z M195.9,145c0-0.2,0-0.4-0.1-0.5c-0.1-0.2-0.2-0.3-0.3-0.3c-0.1-0.1-0.3-0.1-0.5-0.1
					s-0.3,0-0.5,0.1s-0.2,0.2-0.3,0.3s-0.1,0.3-0.1,0.5s0,0.4,0.1,0.5c0.1,0.2,0.2,0.3,0.3,0.3c0.1,0.1,0.3,0.1,0.5,0.1
					s0.3,0,0.5-0.1c0.1-0.1,0.3-0.2,0.3-0.3C195.8,145.4,195.9,145.2,195.9,145z M196.9,145c0-0.3,0.1-0.5,0.2-0.7
					c0.1-0.2,0.3-0.4,0.5-0.5s0.4-0.2,0.7-0.2c0.2,0,0.4,0,0.6,0.1c0.2,0.1,0.3,0.2,0.4,0.4v-1.4h0.5v3.6h-0.5v-0.5
					c-0.1,0.2-0.2,0.3-0.4,0.4c-0.2,0.1-0.4,0.2-0.6,0.2c-0.2,0-0.5-0.1-0.7-0.2c-0.2-0.1-0.3-0.3-0.5-0.5
					C197,145.5,196.9,145.3,196.9,145z M199.2,145c0-0.2,0-0.4-0.1-0.5c-0.1-0.2-0.2-0.3-0.3-0.3c-0.1-0.1-0.3-0.1-0.5-0.1
					s-0.3,0-0.5,0.1c-0.1,0.1-0.2,0.2-0.3,0.3c-0.1,0.2-0.1,0.3-0.1,0.5s0,0.4,0.1,0.5c0.1,0.2,0.2,0.3,0.3,0.3
					c0.1,0.1,0.3,0.1,0.5,0.1s0.3,0,0.5-0.1c0.1-0.1,0.3-0.2,0.3-0.3C199.1,145.4,199.2,145.2,199.2,145z M202.8,144.9
					c0,0.1,0,0.2,0,0.3h-2.1c0,0.3,0.1,0.5,0.3,0.6s0.4,0.2,0.6,0.2c0.2,0,0.4,0,0.5-0.1s0.2-0.2,0.3-0.4h0.5
					c-0.1,0.3-0.2,0.5-0.4,0.6c-0.2,0.2-0.5,0.2-0.8,0.2s-0.5-0.1-0.7-0.2c-0.2-0.1-0.4-0.3-0.5-0.5s-0.2-0.5-0.2-0.7
					s0.1-0.5,0.2-0.7s0.3-0.4,0.5-0.5s0.4-0.2,0.7-0.2s0.5,0.1,0.7,0.2c0.2,0.1,0.3,0.3,0.5,0.5
					C202.8,144.4,202.8,144.7,202.8,144.9z M202.4,144.8c0-0.2,0-0.3-0.1-0.4c-0.1-0.1-0.2-0.2-0.3-0.3s-0.3-0.1-0.4-0.1
					c-0.2,0-0.4,0.1-0.6,0.2c-0.2,0.1-0.2,0.3-0.3,0.6H202.4z M204.6,145c0-0.3,0.1-0.5,0.2-0.7c0.1-0.2,0.3-0.4,0.5-0.5
					s0.4-0.2,0.7-0.2c0.2,0,0.4,0.1,0.6,0.2c0.2,0.1,0.3,0.2,0.4,0.4v-0.5h0.5v2.7H207v-0.5c-0.1,0.2-0.2,0.3-0.4,0.4
					c-0.2,0.1-0.4,0.2-0.6,0.2c-0.2,0-0.5-0.1-0.6-0.2c-0.2-0.1-0.3-0.3-0.5-0.5C204.6,145.5,204.6,145.3,204.6,145z M206.8,145
					c0-0.2,0-0.4-0.1-0.5c-0.1-0.2-0.2-0.3-0.3-0.3c-0.1-0.1-0.3-0.1-0.5-0.1s-0.3,0-0.5,0.1c-0.1,0.1-0.2,0.2-0.3,0.3
					c-0.1,0.2-0.1,0.3-0.1,0.5s0,0.4,0.1,0.5c0.1,0.2,0.2,0.3,0.3,0.3c0.1,0.1,0.3,0.1,0.5,0.1s0.3,0,0.5-0.1
					c0.1-0.1,0.3-0.2,0.3-0.3C206.8,145.4,206.8,145.2,206.8,145z M212.6,143.6c0.2,0,0.4,0,0.6,0.1c0.2,0.1,0.3,0.2,0.4,0.4
					s0.1,0.4,0.1,0.6v1.6h-0.4v-1.5c0-0.3-0.1-0.5-0.2-0.6c-0.1-0.1-0.3-0.2-0.5-0.2s-0.4,0.1-0.6,0.2c-0.1,0.1-0.2,0.4-0.2,0.6v1.5
					h-0.4v-1.5c0-0.3-0.1-0.5-0.2-0.6c-0.1-0.1-0.3-0.2-0.5-0.2s-0.4,0.1-0.6,0.2c-0.1,0.1-0.2,0.4-0.2,0.6v1.5h-0.4v-2.7h0.4v0.4
					c0.1-0.1,0.2-0.2,0.4-0.3s0.3-0.1,0.5-0.1s0.4,0.1,0.6,0.2c0.2,0.1,0.3,0.2,0.4,0.4c0.1-0.2,0.2-0.3,0.4-0.4
					C212.2,143.7,212.4,143.6,212.6,143.6z M214.6,143.2c-0.1,0-0.2,0-0.2-0.1s-0.1-0.1-0.1-0.2s0-0.2,0.1-0.2
					c0.1-0.1,0.1-0.1,0.2-0.1c0.1,0,0.2,0,0.2,0.1c0.1,0.1,0.1,0.1,0.1,0.2s0,0.2-0.1,0.2C214.8,143.2,214.7,143.2,214.6,143.2z
					 M214.8,143.7v2.7h-0.4v-2.7H214.8z M216.6,146.4c-0.2,0-0.4,0-0.6-0.1c-0.2-0.1-0.3-0.2-0.4-0.3c-0.1-0.1-0.1-0.3-0.2-0.4h0.5
					c0,0.1,0.1,0.2,0.2,0.3c0.1,0.1,0.3,0.1,0.4,0.1c0.2,0,0.3,0,0.4-0.1c0.1-0.1,0.1-0.2,0.1-0.3s-0.1-0.2-0.2-0.3
					c-0.1-0.1-0.3-0.1-0.5-0.2c-0.2-0.1-0.4-0.1-0.5-0.2c-0.1-0.1-0.2-0.1-0.3-0.2c-0.1-0.1-0.1-0.2-0.1-0.4c0-0.1,0-0.3,0.1-0.4
					c0.1-0.1,0.2-0.2,0.3-0.3c0.2-0.1,0.3-0.1,0.5-0.1c0.3,0,0.5,0.1,0.7,0.2c0.2,0.2,0.3,0.4,0.3,0.6h-0.4c0-0.1-0.1-0.3-0.2-0.3
					c-0.1-0.1-0.2-0.1-0.4-0.1s-0.3,0-0.4,0.1s-0.1,0.2-0.1,0.3s0,0.2,0.1,0.2c0.1,0.1,0.1,0.1,0.2,0.1c0.1,0,0.2,0.1,0.4,0.1
					c0.2,0.1,0.3,0.1,0.5,0.2c0.1,0,0.2,0.1,0.3,0.2c0.1,0.1,0.1,0.2,0.1,0.4c0,0.1,0,0.3-0.1,0.4c-0.1,0.1-0.2,0.2-0.3,0.3
					C216.9,146.4,216.8,146.4,216.6,146.4z M218.7,144v1.6c0,0.1,0,0.2,0.1,0.3s0.2,0.1,0.3,0.1h0.3v0.4H219c-0.2,0-0.4-0.1-0.6-0.2
					s-0.2-0.3-0.2-0.6V144h-0.3v-0.4h0.3V143h0.4v0.7h0.7v0.4L218.7,144L218.7,144z M219.8,145c0-0.3,0.1-0.5,0.2-0.7
					c0.1-0.2,0.3-0.4,0.5-0.5s0.4-0.2,0.7-0.2c0.2,0,0.4,0.1,0.6,0.2c0.2,0.1,0.3,0.2,0.4,0.4v-0.5h0.5v2.7h-0.5v-0.5
					c-0.1,0.2-0.2,0.3-0.4,0.4c-0.2,0.1-0.4,0.2-0.6,0.2c-0.2,0-0.5-0.1-0.6-0.2c-0.2-0.1-0.3-0.3-0.5-0.5S219.8,145.3,219.8,145z
					 M222.1,145c0-0.2,0-0.4-0.1-0.5s-0.2-0.3-0.3-0.3c-0.1-0.1-0.3-0.1-0.5-0.1s-0.3,0-0.5,0.1s-0.2,0.2-0.3,0.3s-0.1,0.3-0.1,0.5
					s0,0.4,0.1,0.5c0.1,0.2,0.2,0.3,0.3,0.3c0.1,0.1,0.3,0.1,0.5,0.1s0.3,0,0.5-0.1c0.1-0.1,0.3-0.2,0.3-0.3S222.1,145.2,222.1,145z
					 M224.8,146.4l-1.1-1.2v1.2h-0.4v-3.6h0.4v2.1l1-1.2h0.6L224,145l1.3,1.3L224.8,146.4L224.8,146.4z M228.2,144.9
					c0,0.1,0,0.2,0,0.3h-2.1c0,0.3,0.1,0.5,0.3,0.6s0.4,0.2,0.6,0.2c0.2,0,0.4,0,0.5-0.1s0.2-0.2,0.3-0.4h0.5
					c-0.1,0.3-0.2,0.5-0.4,0.6c-0.2,0.2-0.5,0.2-0.8,0.2s-0.5-0.1-0.7-0.2c-0.2-0.1-0.4-0.3-0.5-0.5s-0.2-0.5-0.2-0.7
					s0.1-0.5,0.2-0.7c0.1-0.2,0.3-0.4,0.5-0.5s0.4-0.2,0.7-0.2s0.5,0.1,0.7,0.2c0.2,0.1,0.3,0.3,0.5,0.5
					C228.2,144.4,228.2,144.7,228.2,144.9z M227.8,144.8c0-0.2,0-0.3-0.1-0.4c-0.1-0.1-0.2-0.2-0.3-0.3s-0.3-0.1-0.4-0.1
					c-0.2,0-0.4,0.1-0.6,0.2c-0.2,0.1-0.2,0.3-0.3,0.6H227.8z M231.4,143.6c0.3,0,0.6,0.1,0.8,0.3s0.3,0.5,0.3,0.9v1.6h-0.4v-1.5
					c0-0.3-0.1-0.5-0.2-0.6c-0.1-0.1-0.3-0.2-0.5-0.2s-0.4,0.1-0.6,0.2c-0.1,0.1-0.2,0.4-0.2,0.6v1.5h-0.4v-2.7h0.4v0.4
					c0.1-0.1,0.2-0.2,0.4-0.3C231.1,143.7,231.3,143.6,231.4,143.6z M235.7,144.9c0,0.1,0,0.2,0,0.3h-2.1c0,0.3,0.1,0.5,0.3,0.6
					s0.4,0.2,0.6,0.2c0.2,0,0.4,0,0.5-0.1s0.2-0.2,0.3-0.4h0.5c-0.1,0.3-0.2,0.5-0.4,0.6c-0.2,0.2-0.5,0.2-0.8,0.2s-0.5-0.1-0.7-0.2
					c-0.2-0.1-0.4-0.3-0.5-0.5s-0.2-0.5-0.2-0.7s0.1-0.5,0.2-0.7c0.1-0.2,0.3-0.4,0.5-0.5s0.4-0.2,0.7-0.2s0.5,0.1,0.7,0.2
					c0.2,0.1,0.3,0.3,0.5,0.5C235.7,144.4,235.7,144.7,235.7,144.9z M235.3,144.8c0-0.2,0-0.3-0.1-0.4c-0.1-0.1-0.2-0.2-0.3-0.3
					s-0.3-0.1-0.4-0.1c-0.2,0-0.4,0.1-0.6,0.2c-0.2,0.1-0.2,0.3-0.3,0.6H235.3z M237.3,145.9l0.8-2.3h0.5l-1.1,2.7H237l-1.1-2.7h0.5
					L237.3,145.9z M241.5,144.9c0,0.1,0,0.2,0,0.3h-2.1c0,0.3,0.1,0.5,0.3,0.6s0.4,0.2,0.6,0.2c0.2,0,0.4,0,0.5-0.1s0.2-0.2,0.3-0.4
					h0.5c-0.1,0.3-0.2,0.5-0.4,0.6c-0.2,0.2-0.5,0.2-0.8,0.2s-0.5-0.1-0.7-0.2c-0.2-0.1-0.4-0.3-0.5-0.5s-0.2-0.5-0.2-0.7
					s0.1-0.5,0.2-0.7s0.3-0.4,0.5-0.5s0.4-0.2,0.7-0.2s0.5,0.1,0.7,0.2c0.2,0.1,0.3,0.3,0.5,0.5
					C241.4,144.4,241.5,144.7,241.5,144.9z M241,144.8c0-0.2,0-0.3-0.1-0.4c-0.1-0.1-0.2-0.2-0.3-0.3s-0.3-0.1-0.4-0.1
					c-0.2,0-0.4,0.1-0.6,0.2c-0.2,0.1-0.2,0.3-0.3,0.6H241z M242.5,144.1c0.1-0.2,0.2-0.3,0.3-0.4c0.1-0.1,0.3-0.1,0.5-0.1v0.5h-0.1
					c-0.5,0-0.7,0.3-0.7,0.8v1.5h-0.4v-2.7h0.4V144.1z M245.8,144v1.6c0,0.1,0,0.2,0.1,0.3s0.2,0.1,0.3,0.1h0.3v0.4h-0.4
					c-0.2,0-0.4-0.1-0.6-0.2s-0.2-0.3-0.2-0.6V144H245v-0.4h0.3V143h0.4v0.7h0.7v0.4L245.8,144L245.8,144z M247.4,144.1
					c0.1-0.2,0.2-0.3,0.3-0.4c0.1-0.1,0.3-0.1,0.5-0.1v0.5h-0.1c-0.5,0-0.7,0.3-0.7,0.8v1.5H247v-2.7h0.4V144.1z M249.1,143.2
					c-0.1,0-0.2,0-0.2-0.1c-0.1-0.1-0.1-0.1-0.1-0.2s0-0.2,0.1-0.2c0.1-0.1,0.1-0.1,0.2-0.1c0.1,0,0.2,0,0.2,0.1
					c0.1,0.1,0.1,0.1,0.1,0.2s0,0.2-0.1,0.2C249.2,143.2,249.1,143.2,249.1,143.2z M249.3,143.7v2.7h-0.4v-2.7H249.3z M252.5,144.9
					c0,0.1,0,0.2,0,0.3h-2.1c0,0.3,0.1,0.5,0.3,0.6s0.4,0.2,0.6,0.2c0.2,0,0.4,0,0.5-0.1s0.2-0.2,0.3-0.4h0.5
					c-0.1,0.3-0.2,0.5-0.4,0.6c-0.2,0.2-0.5,0.2-0.8,0.2s-0.5-0.1-0.7-0.2c-0.2-0.1-0.4-0.3-0.5-0.5s-0.2-0.5-0.2-0.7
					s0.1-0.5,0.2-0.7c0.1-0.2,0.3-0.4,0.5-0.5s0.4-0.2,0.7-0.2s0.5,0.1,0.7,0.2c0.2,0.1,0.3,0.3,0.5,0.5
					C252.4,144.4,252.5,144.7,252.5,144.9z M252,144.8c0-0.2,0-0.3-0.1-0.4c-0.1-0.1-0.2-0.2-0.3-0.3s-0.3-0.1-0.4-0.1
					c-0.2,0-0.4,0.1-0.6,0.2c-0.2,0.1-0.2,0.3-0.3,0.6H252z M252.9,145c0-0.3,0.1-0.5,0.2-0.7c0.1-0.2,0.3-0.4,0.5-0.5
					s0.4-0.2,0.7-0.2c0.2,0,0.4,0,0.6,0.1c0.2,0.1,0.3,0.2,0.4,0.4v-1.4h0.5v3.6h-0.5v-0.5c-0.1,0.2-0.2,0.3-0.4,0.4
					c-0.2,0.1-0.4,0.2-0.6,0.2c-0.2,0-0.5-0.1-0.7-0.2c-0.2-0.1-0.3-0.3-0.5-0.5S252.9,145.3,252.9,145z M255.2,145
					c0-0.2,0-0.4-0.1-0.5s-0.2-0.3-0.3-0.3c-0.1-0.1-0.3-0.1-0.5-0.1s-0.3,0-0.5,0.1s-0.2,0.2-0.3,0.3c-0.1,0.2-0.1,0.3-0.1,0.5
					s0,0.4,0.1,0.5c0.1,0.2,0.2,0.3,0.3,0.3c0.1,0.1,0.3,0.1,0.5,0.1s0.3,0,0.5-0.1c0.1-0.1,0.3-0.2,0.3-0.3
					C255.1,145.4,255.2,145.2,255.2,145z M139,152.3c0-0.3,0.1-0.5,0.2-0.7c0.1-0.2,0.3-0.4,0.5-0.5s0.4-0.2,0.7-0.2
					c0.2,0,0.4,0.1,0.6,0.2c0.2,0.1,0.3,0.2,0.4,0.4V151h0.5v2.7h-0.5v-0.5c-0.1,0.2-0.2,0.3-0.4,0.4c-0.2,0.1-0.4,0.2-0.6,0.2
					c-0.2,0-0.5-0.1-0.6-0.2c-0.2-0.1-0.3-0.3-0.5-0.5C139,152.9,139,152.6,139,152.3z M141.2,152.4c0-0.2,0-0.4-0.1-0.5
					s-0.2-0.3-0.3-0.3c-0.1-0.1-0.3-0.1-0.5-0.1s-0.3,0-0.5,0.1s-0.2,0.2-0.3,0.3c-0.1,0.2-0.1,0.3-0.1,0.5s0,0.4,0.1,0.5
					c0.1,0.2,0.2,0.3,0.3,0.3c0.1,0.1,0.3,0.1,0.5,0.1s0.3,0,0.5-0.1c0.1-0.1,0.3-0.2,0.3-0.3C141.2,152.7,141.2,152.6,141.2,152.4z
					 M143.7,151c0.3,0,0.6,0.1,0.8,0.3s0.3,0.5,0.3,0.9v1.6h-0.4v-1.5c0-0.3-0.1-0.5-0.2-0.6c-0.1-0.1-0.3-0.2-0.5-0.2
					s-0.4,0.1-0.6,0.2c-0.1,0.1-0.2,0.4-0.2,0.6v1.5h-0.4V151h0.4v0.4c0.1-0.1,0.2-0.2,0.4-0.3C143.4,151,143.6,151,143.7,151z
					 M147.9,151l-1.6,3.9h-0.5l0.5-1.3l-1.1-2.7h0.5l0.8,2.2l0.8-2.2h0.6V151z M148.9,151.4v1.6c0,0.1,0,0.2,0.1,0.3
					s0.2,0.1,0.3,0.1h0.3v0.4h-0.4c-0.2,0-0.4-0.1-0.6-0.2s-0.2-0.3-0.2-0.6v-1.6h-0.3V151h0.3v-0.7h0.4v0.7h0.7v0.4H148.9z
					 M151.4,151c0.2,0,0.4,0,0.5,0.1c0.2,0.1,0.3,0.2,0.4,0.4c0.1,0.2,0.1,0.4,0.1,0.6v1.6H152v-1.5c0-0.3-0.1-0.5-0.2-0.6
					c-0.1-0.1-0.3-0.2-0.5-0.2s-0.4,0.1-0.6,0.2c-0.1,0.1-0.2,0.4-0.2,0.6v1.5h-0.4v-3.6h0.4v1.3c0.1-0.1,0.2-0.2,0.4-0.3
					C151.1,151,151.3,151,151.4,151z M153.5,150.6c-0.1,0-0.2,0-0.2-0.1s-0.1-0.1-0.1-0.2s0-0.2,0.1-0.2c0.1-0.1,0.1-0.1,0.2-0.1
					c0.1,0,0.2,0,0.2,0.1c0.1,0.1,0.1,0.1,0.1,0.2s0,0.2-0.1,0.2C153.6,150.6,153.6,150.6,153.5,150.6z M153.7,151v2.7h-0.4V151
					H153.7z M155.8,151c0.3,0,0.6,0.1,0.8,0.3s0.3,0.5,0.3,0.9v1.6h-0.4v-1.5c0-0.3-0.1-0.5-0.2-0.6c-0.1-0.1-0.3-0.2-0.5-0.2
					s-0.4,0.1-0.6,0.2c-0.1,0.1-0.2,0.4-0.2,0.6v1.5h-0.4V151h0.4v0.4c0.1-0.1,0.2-0.2,0.4-0.3C155.4,151,155.6,151,155.8,151z
					 M158.7,151c0.2,0,0.4,0.1,0.6,0.2c0.2,0.1,0.3,0.2,0.4,0.4V151h0.5v2.7c0,0.2-0.1,0.5-0.2,0.7c-0.1,0.2-0.3,0.3-0.5,0.5
					c-0.2,0.1-0.4,0.2-0.7,0.2c-0.4,0-0.6-0.1-0.9-0.2c-0.2-0.2-0.4-0.4-0.4-0.7h0.4c0,0.2,0.2,0.3,0.3,0.4c0.2,0.1,0.3,0.2,0.6,0.2
					c0.2,0,0.4-0.1,0.6-0.2c0.2-0.2,0.2-0.4,0.2-0.6v-0.6c-0.1,0.2-0.2,0.3-0.4,0.4c-0.2,0.1-0.4,0.2-0.6,0.2
					c-0.2,0-0.5-0.1-0.7-0.2c-0.2-0.1-0.3-0.3-0.5-0.5c-0.1-0.2-0.2-0.5-0.2-0.7c0-0.3,0.1-0.5,0.2-0.7c0.1-0.2,0.3-0.4,0.5-0.5
					C158.2,151,158.5,151,158.7,151z M159.7,152.4c0-0.2,0-0.4-0.1-0.5c-0.1-0.2-0.2-0.3-0.3-0.3c-0.1-0.1-0.3-0.1-0.5-0.1
					s-0.3,0-0.5,0.1c-0.1,0.1-0.2,0.2-0.3,0.3c-0.1,0.2-0.1,0.3-0.1,0.5s0,0.4,0.1,0.5c0.1,0.2,0.2,0.3,0.3,0.3
					c0.1,0.1,0.3,0.1,0.5,0.1s0.3,0,0.5-0.1c0.1-0.1,0.3-0.2,0.3-0.3C159.7,152.7,159.7,152.6,159.7,152.4z M163.5,151
					c0.3,0,0.6,0.1,0.8,0.3s0.3,0.5,0.3,0.9v1.6h-0.4v-1.5c0-0.3-0.1-0.5-0.2-0.6c-0.1-0.1-0.3-0.2-0.5-0.2s-0.4,0.1-0.6,0.2
					c-0.1,0.1-0.2,0.4-0.2,0.6v1.5h-0.4V151h0.4v0.4c0.1-0.1,0.2-0.2,0.4-0.3C163.2,151,163.3,151,163.5,151z M167.8,152.3
					c0,0.1,0,0.2,0,0.3h-2.1c0,0.3,0.1,0.5,0.3,0.6s0.4,0.2,0.6,0.2c0.2,0,0.4,0,0.5-0.1s0.2-0.2,0.3-0.4h0.5
					c-0.1,0.3-0.2,0.5-0.4,0.6c-0.2,0.2-0.5,0.2-0.8,0.2s-0.5-0.1-0.7-0.2c-0.2-0.1-0.4-0.3-0.5-0.5s-0.2-0.5-0.2-0.7
					s0.1-0.5,0.2-0.7c0.1-0.2,0.3-0.4,0.5-0.5s0.4-0.2,0.7-0.2s0.5,0.1,0.7,0.2c0.2,0.1,0.3,0.3,0.5,0.5
					C167.7,151.8,167.8,152,167.8,152.3z M167.3,152.2c0-0.2,0-0.3-0.1-0.4c-0.1-0.1-0.2-0.2-0.3-0.3s-0.3-0.1-0.4-0.1
					c-0.2,0-0.4,0.1-0.6,0.2c-0.2,0.1-0.2,0.3-0.3,0.6H167.3z M172,151l-0.8,2.7h-0.5l-0.6-2.1l-0.6,2.1H169l-0.8-2.7h0.5l0.6,2.3
					l0.7-2.3h0.5l0.7,2.3l0.6-2.3H172z M175.6,151.7v0.4h-2v-0.4H175.6z M179.7,152.9h-1.5l-0.3,0.8h-0.5l1.2-3.4h0.5l1.2,3.4H180
					L179.7,152.9z M179.6,152.6l-0.6-1.7l-0.6,1.7H179.6z M181.5,150.1v3.6H181v-3.6H181.5z M182.7,151.5c0.1-0.2,0.2-0.3,0.4-0.4
					c0.2-0.1,0.4-0.2,0.6-0.2c0.2,0,0.5,0.1,0.7,0.2s0.3,0.3,0.5,0.5c0.1,0.2,0.2,0.4,0.2,0.7s-0.1,0.5-0.2,0.7
					c-0.1,0.2-0.3,0.4-0.5,0.5s-0.4,0.2-0.6,0.2c-0.2,0-0.4-0.1-0.6-0.2c-0.2-0.1-0.3-0.2-0.4-0.4v0.5h-0.4V150h0.4L182.7,151.5
					L182.7,151.5z M184.5,152.3c0-0.2,0-0.4-0.1-0.5c-0.1-0.2-0.2-0.3-0.3-0.3c-0.1-0.1-0.3-0.1-0.5-0.1s-0.3,0-0.5,0.1
					c-0.1,0.1-0.2,0.2-0.3,0.3c-0.1,0.2-0.1,0.3-0.1,0.5s0,0.4,0.1,0.5c0.1,0.2,0.2,0.3,0.3,0.3c0.1,0.1,0.3,0.1,0.5,0.1
					s0.3,0,0.5-0.1c0.1-0.1,0.3-0.2,0.3-0.3S184.5,152.6,184.5,152.3z M188,152.3c0,0.1,0,0.2,0,0.3h-2.1c0,0.3,0.1,0.5,0.3,0.6
					s0.4,0.2,0.6,0.2c0.2,0,0.4,0,0.5-0.1s0.2-0.2,0.3-0.4h0.5c-0.1,0.3-0.2,0.5-0.4,0.6c-0.2,0.2-0.5,0.2-0.8,0.2s-0.5-0.1-0.7-0.2
					c-0.2-0.1-0.4-0.3-0.5-0.5s-0.2-0.5-0.2-0.7s0.1-0.5,0.2-0.7s0.3-0.4,0.5-0.5s0.4-0.2,0.7-0.2s0.5,0.1,0.7,0.2
					c0.2,0.1,0.3,0.3,0.5,0.5C187.9,151.8,188,152,188,152.3z M187.5,152.2c0-0.2,0-0.3-0.1-0.4c-0.1-0.1-0.2-0.2-0.3-0.3
					s-0.3-0.1-0.4-0.1c-0.2,0-0.4,0.1-0.6,0.2c-0.2,0.1-0.2,0.3-0.3,0.6H187.5z M189,151.5c0.1-0.2,0.2-0.3,0.3-0.4
					c0.1-0.1,0.3-0.1,0.5-0.1v0.5h-0.1c-0.5,0-0.7,0.3-0.7,0.8v1.5h-0.4V151h0.4V151.5z M190.9,151.4v1.6c0,0.1,0,0.2,0.1,0.3
					s0.2,0.1,0.3,0.1h0.3v0.4h-0.4c-0.2,0-0.4-0.1-0.6-0.2c-0.1-0.1-0.2-0.3-0.2-0.6v-1.6h-0.3V151h0.3v-0.7h0.4v0.7h0.7v0.4H190.9z
					 M193.9,150.6v1.1h1.2v0.4h-1.2v1.2h1.4v0.4h-1.8v-3.4h1.8v0.4L193.9,150.6L193.9,150.6z M196.2,150.6c-0.1,0-0.2,0-0.2-0.1
					s-0.1-0.1-0.1-0.2s0-0.2,0.1-0.2c0.1-0.1,0.1-0.1,0.2-0.1c0.1,0,0.2,0,0.2,0.1c0.1,0.1,0.1,0.1,0.1,0.2s0,0.2-0.1,0.2
					C196.4,150.6,196.3,150.6,196.2,150.6z M196.4,151v2.7H196V151H196.4z M198.5,151c0.3,0,0.6,0.1,0.8,0.3s0.3,0.5,0.3,0.9v1.6
					h-0.4v-1.5c0-0.3-0.1-0.5-0.2-0.6c-0.1-0.1-0.3-0.2-0.5-0.2s-0.4,0.1-0.6,0.2c-0.1,0.1-0.2,0.4-0.2,0.6v1.5h-0.4V151h0.4v0.4
					c0.1-0.1,0.2-0.2,0.4-0.3C198.2,151,198.3,151,198.5,151z M201.3,153.7c-0.2,0-0.4,0-0.6-0.1c-0.2-0.1-0.3-0.2-0.4-0.3
					c-0.1-0.1-0.1-0.3-0.2-0.4h0.5c0,0.1,0.1,0.2,0.2,0.3c0.1,0.1,0.3,0.1,0.4,0.1c0.2,0,0.3,0,0.4-0.1c0.1-0.1,0.1-0.2,0.1-0.3
					s-0.1-0.2-0.2-0.3c-0.1-0.1-0.3-0.1-0.5-0.2c-0.2-0.1-0.4-0.1-0.5-0.2c-0.1-0.1-0.2-0.1-0.3-0.2c-0.1-0.1-0.1-0.2-0.1-0.4
					c0-0.1,0-0.3,0.1-0.4c0.1-0.1,0.2-0.2,0.3-0.3c0.2-0.1,0.3-0.1,0.5-0.1c0.3,0,0.5,0.1,0.7,0.2c0.2,0.2,0.3,0.4,0.3,0.6h-0.4
					c0-0.1-0.1-0.3-0.2-0.3c-0.1-0.1-0.2-0.1-0.4-0.1s-0.3,0-0.4,0.1c-0.1,0.1-0.1,0.2-0.1,0.3s0,0.2,0.1,0.2
					c0.1,0.1,0.1,0.1,0.2,0.1c0.1,0,0.2,0.1,0.4,0.1c0.2,0.1,0.3,0.1,0.5,0.2c0.1,0,0.2,0.1,0.3,0.2c0.1,0.1,0.1,0.2,0.1,0.4
					c0,0.1,0,0.3-0.1,0.4c-0.1,0.1-0.2,0.2-0.3,0.3C201.6,153.7,201.5,153.7,201.3,153.7z M203.4,151.4v1.6c0,0.1,0,0.2,0.1,0.3
					s0.2,0.1,0.3,0.1h0.3v0.4h-0.4c-0.2,0-0.4-0.1-0.6-0.2s-0.2-0.3-0.2-0.6v-1.6h-0.3V151h0.3v-0.7h0.4v0.7h0.7v0.4H203.4z
					 M207.1,152.3c0,0.1,0,0.2,0,0.3H205c0,0.3,0.1,0.5,0.3,0.6s0.4,0.2,0.6,0.2c0.2,0,0.4,0,0.5-0.1s0.2-0.2,0.3-0.4h0.5
					c-0.1,0.3-0.2,0.5-0.4,0.6c-0.2,0.2-0.5,0.2-0.8,0.2s-0.5-0.1-0.7-0.2c-0.2-0.1-0.4-0.3-0.5-0.5s-0.2-0.5-0.2-0.7
					s0.1-0.5,0.2-0.7c0.1-0.2,0.3-0.4,0.5-0.5s0.4-0.2,0.7-0.2s0.5,0.1,0.7,0.2c0.2,0.1,0.3,0.3,0.5,0.5
					C207.1,151.8,207.1,152,207.1,152.3z M206.7,152.2c0-0.2,0-0.3-0.1-0.4c-0.1-0.1-0.2-0.2-0.3-0.3s-0.3-0.1-0.4-0.1
					c-0.2,0-0.4,0.1-0.6,0.2c-0.2,0.1-0.2,0.3-0.3,0.6H206.7z M207.9,150.6c-0.1,0-0.2,0-0.2-0.1c-0.1-0.1-0.1-0.1-0.1-0.2
					s0-0.2,0.1-0.2c0.1-0.1,0.1-0.1,0.2-0.1c0.1,0,0.2,0,0.2,0.1c0.1,0.1,0.1,0.1,0.1,0.2s0,0.2-0.1,0.2
					C208.1,150.6,208,150.6,207.9,150.6z M208.2,151v2.7h-0.4V151H208.2z M210.2,151c0.3,0,0.6,0.1,0.8,0.3s0.3,0.5,0.3,0.9v1.6
					h-0.4v-1.5c0-0.3-0.1-0.5-0.2-0.6c-0.1-0.1-0.3-0.2-0.5-0.2s-0.4,0.1-0.6,0.2c-0.1,0.1-0.2,0.4-0.2,0.6v1.5H209V151h0.4v0.4
					c0.1-0.1,0.2-0.2,0.4-0.3C209.9,151,210,151,210.2,151z"/>
				<path class="st18" d="M140.9,135c-0.3,0-0.6-0.1-0.9-0.2c-0.3-0.1-0.5-0.3-0.6-0.5s-0.2-0.5-0.2-0.7h0.8c0,0.2,0.1,0.4,0.2,0.5
					c0.1,0.1,0.4,0.2,0.6,0.2c0.3,0,0.5-0.1,0.6-0.2c0.2-0.1,0.2-0.3,0.2-0.5s0-0.3-0.1-0.4c-0.1-0.1-0.2-0.2-0.4-0.2
					c-0.1-0.1-0.3-0.1-0.6-0.2c-0.3-0.1-0.6-0.2-0.8-0.2c-0.2-0.1-0.4-0.2-0.5-0.4s-0.2-0.4-0.2-0.7s0.1-0.5,0.2-0.7
					c0.1-0.2,0.3-0.4,0.6-0.5c0.2-0.1,0.5-0.2,0.9-0.2c0.5,0,0.8,0.1,1.1,0.4c0.3,0.2,0.5,0.6,0.5,1h-0.9c0-0.2-0.1-0.3-0.2-0.5
					s-0.4-0.2-0.6-0.2c-0.2,0-0.4,0.1-0.6,0.2c-0.1,0.1-0.2,0.3-0.2,0.5c0,0.1,0,0.3,0.1,0.4c0.1,0.1,0.2,0.2,0.3,0.2
					c0.1,0.1,0.3,0.1,0.6,0.2c0.3,0.1,0.6,0.2,0.8,0.3s0.4,0.2,0.5,0.4s0.2,0.4,0.2,0.7c0,0.2-0.1,0.5-0.2,0.7
					c-0.1,0.2-0.3,0.4-0.6,0.5C141.5,134.9,141.2,135,140.9,135z M147,132.9c0,0.1,0,0.3,0,0.4h-3c0,0.3,0.1,0.6,0.3,0.7
					c0.2,0.2,0.5,0.3,0.7,0.3c0.4,0,0.7-0.2,0.9-0.5h0.9c-0.1,0.4-0.3,0.6-0.6,0.9c-0.3,0.2-0.7,0.3-1.1,0.3c-0.4,0-0.7-0.1-1-0.2
					c-0.3-0.2-0.5-0.4-0.7-0.7s-0.2-0.6-0.2-1s0.1-0.7,0.2-1c0.2-0.3,0.4-0.5,0.7-0.7s0.6-0.2,1-0.2s0.7,0.1,1,0.2
					c0.3,0.2,0.5,0.4,0.7,0.7C146.9,132.2,147,132.5,147,132.9z M146.1,132.7c0-0.3-0.1-0.5-0.3-0.7s-0.5-0.3-0.8-0.3
					s-0.5,0.1-0.7,0.3s-0.3,0.4-0.3,0.7H146.1z M148.5,129.8v5.1h-0.8v-5.1H148.5z M149.3,133c0-0.4,0.1-0.7,0.2-1
					c0.2-0.3,0.4-0.5,0.7-0.7s0.6-0.2,0.9-0.2c0.3,0,0.6,0.1,0.8,0.2c0.2,0.1,0.4,0.3,0.5,0.4v-0.6h0.8v3.8h-0.8v-0.6
					c-0.1,0.2-0.3,0.3-0.5,0.5c-0.2,0.1-0.5,0.2-0.8,0.2s-0.6-0.1-0.9-0.2c-0.3-0.2-0.5-0.4-0.7-0.7
					C149.4,133.7,149.3,133.4,149.3,133z M152.4,133c0-0.3-0.1-0.5-0.2-0.7c-0.1-0.2-0.2-0.3-0.4-0.4c-0.2-0.1-0.4-0.2-0.6-0.2
					c-0.2,0-0.4,0.1-0.6,0.2c-0.2,0.1-0.3,0.2-0.4,0.4c-0.1,0.2-0.2,0.4-0.2,0.7s0.1,0.5,0.2,0.7c0.1,0.2,0.3,0.4,0.4,0.5
					c0.2,0.1,0.4,0.2,0.6,0.2c0.2,0,0.4-0.1,0.6-0.2c0.2-0.1,0.3-0.2,0.4-0.4C152.4,133.5,152.4,133.3,152.4,133z M158.9,131
					c0.3,0,0.6,0.1,0.8,0.2c0.2,0.1,0.4,0.3,0.6,0.6c0.1,0.2,0.2,0.5,0.2,0.9v2.3h-0.8v-2.1c0-0.3-0.1-0.6-0.3-0.8s-0.4-0.3-0.7-0.3
					s-0.5,0.1-0.7,0.3s-0.3,0.4-0.3,0.8v2.1H157v-2.1c0-0.3-0.1-0.6-0.3-0.8s-0.4-0.3-0.7-0.3s-0.5,0.1-0.7,0.3s-0.3,0.4-0.3,0.8
					v2.1h-0.8v-3.8h0.8v0.4c0.1-0.2,0.3-0.3,0.5-0.4c0.2-0.1,0.4-0.1,0.6-0.1c0.3,0,0.6,0.1,0.8,0.2c0.2,0.1,0.4,0.3,0.6,0.6
					c0.1-0.2,0.3-0.4,0.5-0.5C158.4,131.1,158.6,131,158.9,131z M161.2,133c0-0.4,0.1-0.7,0.2-1c0.2-0.3,0.4-0.5,0.7-0.7
					s0.6-0.2,0.9-0.2c0.3,0,0.6,0.1,0.8,0.2c0.2,0.1,0.4,0.3,0.5,0.4v-0.6h0.8v3.8h-0.8v-0.6c-0.1,0.2-0.3,0.3-0.5,0.5
					c-0.2,0.1-0.5,0.2-0.8,0.2s-0.6-0.1-0.9-0.2c-0.3-0.2-0.5-0.4-0.7-0.7C161.3,133.7,161.2,133.4,161.2,133z M164.4,133
					c0-0.3-0.1-0.5-0.2-0.7c-0.1-0.2-0.2-0.3-0.4-0.4c-0.2-0.1-0.4-0.2-0.6-0.2c-0.2,0-0.4,0.1-0.6,0.2c-0.2,0.1-0.3,0.2-0.4,0.4
					c-0.1,0.2-0.2,0.4-0.2,0.7s0.1,0.5,0.2,0.7c0.1,0.2,0.3,0.4,0.4,0.5c0.2,0.1,0.4,0.2,0.6,0.2c0.2,0,0.4-0.1,0.6-0.2
					c0.2-0.1,0.3-0.2,0.4-0.4C164.3,133.5,164.4,133.3,164.4,133z M167.1,131.7v2.1c0,0.1,0,0.2,0.1,0.3s0.2,0.1,0.3,0.1h0.5v0.7
					h-0.6c-0.4,0-0.6-0.1-0.8-0.2c-0.2-0.2-0.3-0.4-0.3-0.8v-2.1h-0.5v-0.6h0.5v-1h0.8v1h0.9v0.6h-0.9V131.7z M170.3,133
					c0-0.4,0.1-0.7,0.2-1c0.2-0.3,0.4-0.5,0.7-0.7s0.6-0.2,0.9-0.2c0.2,0,0.5,0.1,0.7,0.2c0.2,0.1,0.4,0.2,0.6,0.4v-1.8h0.8v5.1
					h-0.8v-0.6c-0.1,0.2-0.3,0.3-0.5,0.5c-0.2,0.1-0.5,0.2-0.8,0.2s-0.6-0.1-0.9-0.2c-0.3-0.2-0.5-0.4-0.7-0.7
					C170.4,133.7,170.3,133.4,170.3,133z M173.4,133c0-0.3-0.1-0.5-0.2-0.7c-0.1-0.2-0.2-0.3-0.4-0.4c-0.2-0.1-0.4-0.2-0.6-0.2
					c-0.2,0-0.4,0.1-0.6,0.2c-0.2,0.1-0.3,0.2-0.4,0.4c-0.1,0.2-0.2,0.4-0.2,0.7s0.1,0.5,0.2,0.7c0.1,0.2,0.3,0.4,0.4,0.5
					c0.2,0.1,0.4,0.2,0.6,0.2c0.2,0,0.4-0.1,0.6-0.2c0.2-0.1,0.3-0.2,0.4-0.4C173.4,133.5,173.4,133.3,173.4,133z M175,133
					c0-0.4,0.1-0.7,0.2-1c0.2-0.3,0.4-0.5,0.7-0.7s0.6-0.2,0.9-0.2c0.3,0,0.6,0.1,0.8,0.2c0.2,0.1,0.4,0.3,0.5,0.4v-0.6h0.8v3.8
					h-0.8v-0.6c-0.1,0.2-0.3,0.3-0.5,0.5s-0.5,0.2-0.8,0.2s-0.6-0.1-0.9-0.2c-0.3-0.2-0.5-0.4-0.7-0.7
					C175.1,133.7,175,133.4,175,133z M178.1,133c0-0.3-0.1-0.5-0.2-0.7c-0.1-0.2-0.2-0.3-0.4-0.4c-0.2-0.1-0.4-0.2-0.6-0.2
					s-0.4,0.1-0.6,0.2c-0.2,0.1-0.3,0.2-0.4,0.4c-0.1,0.2-0.2,0.4-0.2,0.7s0.1,0.5,0.2,0.7c0.1,0.2,0.3,0.4,0.4,0.5
					c0.2,0.1,0.4,0.2,0.6,0.2c0.2,0,0.4-0.1,0.6-0.2s0.3-0.2,0.4-0.4C178.1,133.5,178.1,133.3,178.1,133z M180.9,131.7v2.1
					c0,0.1,0,0.2,0.1,0.3s0.2,0.1,0.3,0.1h0.5v0.7h-0.6c-0.4,0-0.6-0.1-0.8-0.2c-0.2-0.2-0.3-0.4-0.3-0.8v-2.1h-0.5v-0.6h0.5v-1h0.8
					v1h0.9v0.6h-0.9V131.7z M182.3,133c0-0.4,0.1-0.7,0.2-1c0.2-0.3,0.4-0.5,0.7-0.7s0.6-0.2,0.9-0.2c0.3,0,0.6,0.1,0.8,0.2
					c0.2,0.1,0.4,0.3,0.5,0.4v-0.6h0.8v3.8h-0.8v-0.6c-0.1,0.2-0.3,0.3-0.5,0.5c-0.2,0.1-0.5,0.2-0.8,0.2s-0.6-0.1-0.9-0.2
					c-0.3-0.2-0.5-0.4-0.7-0.7C182.4,133.7,182.3,133.4,182.3,133z M185.4,133c0-0.3-0.1-0.5-0.2-0.7c-0.1-0.2-0.2-0.3-0.4-0.4
					c-0.2-0.1-0.4-0.2-0.6-0.2c-0.2,0-0.4,0.1-0.6,0.2c-0.2,0.1-0.3,0.2-0.4,0.4c-0.1,0.2-0.2,0.4-0.2,0.7s0.1,0.5,0.2,0.7
					c0.1,0.2,0.3,0.4,0.4,0.5c0.2,0.1,0.4,0.2,0.6,0.2c0.2,0,0.4-0.1,0.6-0.2c0.2-0.1,0.3-0.2,0.4-0.4
					C185.4,133.5,185.4,133.3,185.4,133z M189.2,131c0.3,0,0.6,0.1,0.8,0.2c0.2,0.1,0.4,0.3,0.6,0.6c0.1,0.2,0.2,0.5,0.2,0.9v2.3
					H190v-2.1c0-0.3-0.1-0.6-0.3-0.8s-0.4-0.3-0.7-0.3s-0.5,0.1-0.7,0.3s-0.3,0.4-0.3,0.8v2.1h-0.8v-3.8h0.8v0.4
					c0.1-0.2,0.3-0.3,0.5-0.4C188.8,131.1,189,131,189.2,131z M193.3,131c0.3,0,0.6,0.1,0.8,0.2c0.2,0.1,0.4,0.3,0.5,0.4V131h0.8
					v3.9c0,0.4-0.1,0.7-0.2,0.9c-0.1,0.3-0.4,0.5-0.6,0.7c-0.3,0.2-0.6,0.2-1,0.2c-0.5,0-0.9-0.1-1.3-0.4c-0.3-0.2-0.5-0.6-0.6-1
					h0.8c0.1,0.2,0.2,0.4,0.4,0.5s0.4,0.2,0.7,0.2s0.6-0.1,0.8-0.3s0.3-0.5,0.3-0.8v-0.6c-0.1,0.2-0.3,0.3-0.5,0.5
					c-0.2,0.1-0.5,0.2-0.8,0.2s-0.6-0.1-0.9-0.2c-0.3-0.2-0.5-0.4-0.7-0.7s-0.2-0.6-0.2-1s0.1-0.7,0.2-1c0.2-0.3,0.4-0.5,0.7-0.7
					C192.7,131.1,193,131,193.3,131z M194.6,133c0-0.3-0.1-0.5-0.2-0.7c-0.1-0.2-0.2-0.3-0.4-0.4c-0.2-0.1-0.4-0.2-0.6-0.2
					c-0.2,0-0.4,0.1-0.6,0.2c-0.2,0.1-0.3,0.2-0.4,0.4c-0.1,0.2-0.2,0.4-0.2,0.7s0.1,0.5,0.2,0.7c0.1,0.2,0.3,0.4,0.4,0.5
					c0.2,0.1,0.4,0.2,0.6,0.2c0.2,0,0.4-0.1,0.6-0.2c0.2-0.1,0.3-0.2,0.4-0.4C194.6,133.5,194.6,133.3,194.6,133z M197.3,134
					l-0.8,1.9H196l0.5-1.9H197.3z M202.3,134.9l-1.1-1.9h-0.6v1.9h-0.8v-4.8h1.7c0.4,0,0.7,0.1,0.9,0.2c0.3,0.1,0.5,0.3,0.6,0.5
					s0.2,0.5,0.2,0.7c0,0.3-0.1,0.6-0.3,0.9c-0.2,0.3-0.5,0.4-0.8,0.5l1.2,2L202.3,134.9L202.3,134.9z M200.6,132.4h0.9
					c0.3,0,0.5-0.1,0.7-0.2c0.2-0.1,0.2-0.3,0.2-0.6s-0.1-0.4-0.2-0.6c-0.1-0.1-0.4-0.2-0.7-0.2h-0.9V132.4z M204.6,130.6
					c-0.1,0-0.3,0-0.4-0.1c-0.1-0.1-0.1-0.2-0.1-0.4s0-0.3,0.1-0.4c0.1-0.1,0.2-0.1,0.4-0.1c0.1,0,0.3,0,0.4,0.1
					c0.1,0.1,0.1,0.2,0.1,0.4s0,0.3-0.1,0.4S204.8,130.6,204.6,130.6z M205,131.1v3.8h-0.8v-3.8H205z M206.8,134.3h1.7v0.6h-2.7
					v-0.6l1.7-2.5h-1.7v-0.6h2.7v0.6L206.8,134.3z M209.1,133c0-0.4,0.1-0.7,0.2-1c0.2-0.3,0.4-0.5,0.7-0.7s0.6-0.2,0.9-0.2
					c0.3,0,0.6,0.1,0.8,0.2c0.2,0.1,0.4,0.3,0.5,0.4v-0.6h0.8v5.6h-0.8v-2.4c-0.1,0.2-0.3,0.3-0.5,0.4c-0.2,0.1-0.5,0.2-0.8,0.2
					s-0.6-0.1-0.9-0.2c-0.3-0.2-0.5-0.4-0.6-0.7C209.1,133.7,209.1,133.4,209.1,133z M212.2,133c0-0.3-0.1-0.5-0.2-0.7
					c-0.1-0.2-0.2-0.3-0.4-0.4c-0.2-0.1-0.4-0.2-0.6-0.2c-0.2,0-0.4,0.1-0.6,0.2c-0.2,0.1-0.3,0.2-0.4,0.4c-0.1,0.2-0.2,0.4-0.2,0.7
					s0.1,0.5,0.2,0.7c0.1,0.2,0.3,0.4,0.4,0.5c0.2,0.1,0.4,0.2,0.6,0.2c0.2,0,0.4-0.1,0.6-0.2c0.2-0.1,0.3-0.2,0.4-0.4
					C212.1,133.5,212.2,133.3,212.2,133z M214.4,130.6c-0.1,0-0.3,0-0.4-0.1s-0.1-0.2-0.1-0.4s0-0.3,0.1-0.4
					c0.1-0.1,0.2-0.1,0.4-0.1c0.1,0,0.3,0,0.4,0.1c0.1,0.1,0.1,0.2,0.1,0.4s0,0.3-0.1,0.4S214.6,130.6,214.4,130.6z M214.8,131.1
					v3.8H214v-3.8H214.8z M216.9,130.1l-0.1,3.4h-0.7l-0.1-3.4H216.9z M216.5,135c-0.1,0-0.3,0-0.4-0.1s-0.1-0.2-0.1-0.4
					c0-0.1,0-0.3,0.1-0.4s0.2-0.1,0.4-0.1c0.1,0,0.3,0,0.4,0.1s0.1,0.2,0.1,0.4c0,0.1,0,0.3-0.1,0.4S216.6,135,216.5,135z"/>
				<rect x="126.5" y="59.8" class="st19" width="153.1" height="49"/>
				<g>
					<g>
						<defs>
							<rect id="SVGID_7_" x="138.7" y="84.7" width="59" height="15.1"/>
						</defs>
						<clipPath id="SVGID_8_">
							<use xlink:href="#SVGID_7_"  style="overflow:visible;"/>
						</clipPath>
						<g class="st20">
							<path class="st1" d="M164.6,91.6l2.7-2.8h-1.9l-2.8,3v-3.1H161v6.9h1.6v-2l0.9-1l2,2.9h1.8L164.6,91.6z"/>
							<path class="st1" d="M169.3,94.1c0.4,0.3,0.8,0.4,1.3,0.4c0.4,0,0.7-0.1,1-0.2s0.6-0.3,0.8-0.6l0.9,0.8
								c-0.2,0.4-0.7,0.7-1.1,0.9c-0.4,0.2-1,0.3-1.6,0.3c-0.5,0-0.9-0.1-1.3-0.2s-0.8-0.4-1.1-0.7c-0.3-0.3-0.6-0.7-0.7-1.1
								c-0.2-0.4-0.3-0.9-0.3-1.4s0.1-0.9,0.2-1.4c0.2-0.4,0.4-0.8,0.7-1.1c0.3-0.3,0.7-0.6,1.1-0.8c0.4-0.2,0.9-0.3,1.3-0.3
								c0.5,0,1,0.1,1.4,0.3s0.7,0.4,1,0.8c0.3,0.3,0.5,0.7,0.6,1.2s0.2,0.9,0.2,1.4c0,0.1,0,0.1,0,0.2s0,0.1,0,0.2h-5.1
								C168.8,93.4,169,93.8,169.3,94.1z M172.1,91.8c0-0.2-0.1-0.5-0.2-0.7s-0.2-0.4-0.3-0.6c-0.2-0.2-0.3-0.3-0.5-0.4
								s-0.4-0.1-0.7-0.1c-0.5,0-0.9,0.2-1.2,0.5s-0.5,0.8-0.6,1.3L172.1,91.8L172.1,91.8z"/>
							<path class="st1" d="M176.1,95.6h-1.6v-6.8h1.6v1.5c0.2-0.5,0.5-0.9,0.9-1.2c0.4-0.3,0.9-0.4,1.5-0.4v1.6h-0.1
								c-0.3,0-0.7,0-0.9,0.2c-0.3,0.1-0.5,0.3-0.7,0.5s-0.4,0.5-0.5,0.9c-0.1,0.3-0.2,0.7-0.2,1.2V95.6L176.1,95.6z"/>
							<path class="st1" d="M179.3,88.9v4.8c0,0.2-0.1,0.4-0.2,0.5c-0.1,0.1-0.3,0.1-0.5,0.1c-0.1,0-0.3,0-0.4,0v1.4
								c0.1,0,0.2,0,0.4,0s0.2,0,0.4,0c0.7,0,1.1-0.1,1.5-0.4c0.3-0.2,0.5-0.7,0.5-1.2v-5.2C181,88.9,179.3,88.9,179.3,88.9z"/>
							<path class="st1" d="M188.8,93.6c-0.2,0.4-0.4,0.8-0.8,1.1c-0.3,0.3-0.7,0.6-1.1,0.8s-0.9,0.3-1.4,0.3s-1-0.1-1.4-0.3
								c-0.4-0.2-0.8-0.4-1.1-0.8s-0.6-0.7-0.7-1.1c-0.2-0.4-0.3-0.9-0.3-1.3s0.1-0.9,0.3-1.4c0.2-0.4,0.4-0.8,0.8-1.1
								s0.7-0.6,1.1-0.8c0.4-0.2,0.9-0.3,1.4-0.3s1,0.1,1.4,0.3c0.4,0.2,0.8,0.4,1.1,0.8s0.6,0.7,0.7,1.1c0.2,0.4,0.3,0.9,0.3,1.4
								C189.1,92.7,189,93.2,188.8,93.6z M187.4,91.4c-0.1-0.2-0.2-0.5-0.4-0.7s-0.4-0.4-0.7-0.5c-0.2-0.1-0.5-0.2-0.8-0.2
								s-0.6,0-0.8,0.2c-0.2,0.1-0.4,0.3-0.7,0.4c-0.2,0.2-0.3,0.4-0.4,0.7c-0.1,0.2-0.1,0.5-0.1,0.9c0,0.3,0,0.6,0.2,0.9
								c0.1,0.3,0.2,0.5,0.4,0.7s0.4,0.4,0.7,0.4c0.2,0.1,0.5,0.2,0.8,0.2s0.6,0,0.9-0.2c0.2-0.1,0.4-0.3,0.7-0.4
								c0.2-0.2,0.3-0.4,0.4-0.7c0.1-0.2,0.1-0.5,0.1-0.9C187.5,92,187.5,91.7,187.4,91.4z"/>
							<path class="st1" d="M196.6,93.6c-0.2,0.4-0.4,0.8-0.8,1.1c-0.3,0.3-0.7,0.6-1.1,0.8s-0.9,0.3-1.4,0.3s-1-0.1-1.4-0.3
								c-0.4-0.2-0.8-0.4-1.1-0.8s-0.6-0.7-0.7-1.1c-0.2-0.4-0.3-0.9-0.3-1.3s0.1-0.9,0.3-1.4c0.2-0.4,0.4-0.8,0.8-1.1
								s0.7-0.6,1.1-0.8c0.4-0.2,0.9-0.3,1.4-0.3s1,0.1,1.4,0.3c0.4,0.2,0.8,0.4,1.1,0.8s0.6,0.7,0.7,1.1c0.2,0.4,0.3,0.9,0.3,1.4
								C196.9,92.7,196.8,93.2,196.6,93.6z M195.2,91.4c-0.1-0.2-0.2-0.5-0.4-0.7s-0.4-0.4-0.7-0.5c-0.2-0.1-0.5-0.2-0.8-0.2
								s-0.6,0-0.8,0.2c-0.2,0.1-0.4,0.3-0.7,0.4c-0.2,0.2-0.3,0.4-0.4,0.7c-0.1,0.2-0.1,0.5-0.1,0.9c0,0.3,0,0.6,0.2,0.9
								c0.1,0.3,0.2,0.5,0.4,0.7s0.4,0.4,0.7,0.4c0.2,0.1,0.5,0.2,0.8,0.2s0.6,0,0.9-0.2c0.2-0.1,0.4-0.3,0.7-0.4
								c0.2-0.2,0.3-0.4,0.4-0.7c0.1-0.2,0.1-0.5,0.1-0.9C195.3,92,195.3,91.7,195.2,91.4z"/>
							<path class="st21" d="M154.1,85.6c-0.5,0-0.9,0.1-1.3,0.4l-0.2,0.2l-1.7,1.2l-0.1,0.1c-0.3-1-1.3-1.8-2.4-1.8
								c-1.4,0-2.6,1.1-2.6,2.6v4c0,1.4,1.1,2.6,2.6,2.6c0.4,0,0.9-0.1,1.2-0.3l0.4-0.3l0.9-0.6l4.5-3.1l0.6-0.4
								c0.5-0.5,0.9-1.1,0.9-1.9C156.8,86.8,155.6,85.6,154.1,85.6z"/>
							<path class="st21" d="M154.1,98.9c-0.5,0-0.9-0.1-1.3-0.4l-0.2-0.2l-1.7-1.2l-0.1-0.1c-0.3,1-1.3,1.8-2.4,1.8
								c-1.4,0-2.6-1.1-2.6-2.6v-4c0-1.4,1.1-2.6,2.6-2.6c0.4,0,0.9,0.1,1.2,0.3l0.4,0.3l0.9,0.6l4.5,3.1l0.6,0.4
								c0.5,0.5,0.9,1.1,0.9,1.9C156.7,97.7,155.5,98.9,154.1,98.9z"/>
							<path class="st22" d="M150.8,96.4c0,1.4-1.1,2.5-2.5,2.5c-0.1,0-0.2,0-0.3,0c-1.3-0.1-2.2-1.2-2.2-2.5v-8.2
								c0-1.3,1-2.4,2.3-2.5c0.1,0,0.2,0,0.2,0c1.4,0,2.5,1.1,2.5,2.5C150.8,88.3,150.8,96.3,150.8,96.4z"/>
							<path class="st21" d="M142.3,94.9c1.5,0,2.7-1.2,2.7-2.7s-1.2-2.7-2.7-2.7s-2.7,1.2-2.7,2.7
								C139.6,93.7,140.8,94.9,142.3,94.9z"/>
						</g>
					</g>
				</g>
				<g>
					<rect x="126.5" y="328" class="st23" width="153.1" height="33.5"/>
					<rect x="126.5" y="328.8" class="st7" width="153.1" height="32.7"/>
					<path class="st19" d="M222.3,342.3c0.3,0,0.4,0.2,0.4,0.5v2.7c0,0.1,0,0.2-0.1,0.3l-1.8,1.8c-0.2,0.2-0.4,0.2-0.6,0
						c-0.2-0.2-0.1-0.5,0.1-0.7l1.7-1.7v-2.5C222,342.5,222.1,342.3,222.3,342.3z M224.1,339.5h-3.6c-1,0-1.9,0.3-2.7,1V340
						c0-0.3-0.1-0.5-0.3-0.5c-0.3,0-0.3,0.2-0.3,0.5v1.5c0,0.3,0.2,0.4,0.4,0.4h1.4c0.3,0,0.5-0.1,0.5-0.3s-0.2-0.3-0.5-0.3h-0.8
						c0.6-0.6,1.5-1,2.3-1h3.6c1.8,0,3.4,1.7,3.4,3.4v3.6c0,1.8-1.7,3.4-3.4,3.4h-3.6c-1.8,0-3.4-1.7-3.4-3.4V345
						c0-0.3-0.1-0.5-0.3-0.5s-0.3,0.2-0.3,0.5v2.2c0,2.3,1.8,4.1,4.1,4.1h3.6c2.3,0,4.1-1.8,4.1-4.1v-3.6
						C228.2,341.3,226.3,339.5,224.1,339.5z"/>
					<path class="st19" d="M216.7,343.9c0.2,0,0.3-0.2,0.3-0.3c0-0.2-0.2-0.3-0.3-0.3c-0.2,0-0.3,0.2-0.3,0.3
						C216.3,343.7,216.5,343.9,216.7,343.9z"/>
					<g>
						<g>
							<defs>
								<rect id="SVGID_9_" x="180" y="338.6" width="13.1" height="13.1"/>
							</defs>
							<clipPath id="SVGID_10_">
								<use xlink:href="#SVGID_9_"  style="overflow:visible;"/>
							</clipPath>
							<g class="st24">
								<path class="st19" d="M186.5,351.7c1.7,0,3.3-0.6,4.6-1.9c2.5-2.5,2.5-6.7,0-9.2c-1.1-1.1-2.4-1.7-3.9-1.9
									c-1.4-0.2-2.9,0.2-4.1,0.9c-0.2,0.1-0.2,0.3-0.1,0.5c0.1,0.2,0.3,0.2,0.5,0.1c2.3-1.4,5.2-1,7.1,0.9c2.3,2.3,2.3,6,0,8.2
									c-2.3,2.3-6,2.3-8.2,0c-1.9-1.9-2.3-4.8-0.9-7.1c0.1-0.2,0.1-0.4-0.1-0.5c-0.2-0.1-0.4-0.1-0.5,0.1
									c-0.7,1.2-1.1,2.7-0.9,4.1c0.2,1.5,0.8,2.8,1.9,3.9C183.2,351.1,184.8,351.7,186.5,351.7z"/>
								<path class="st19" d="M191.3,345.5c0.2,0,0.4-0.2,0.4-0.4c0-0.2-0.2-0.4-0.4-0.4h-0.2c-0.2,0-0.4,0.2-0.4,0.4
									c0,0.2,0.2,0.4,0.4,0.4H191.3z"/>
								<path class="st19" d="M181.7,344.8c-0.2,0-0.4,0.2-0.4,0.4c0,0.2,0.2,0.4,0.4,0.4h0.2c0.2,0,0.4-0.2,0.4-0.4
									c0-0.2-0.2-0.4-0.4-0.4H181.7z"/>
								<path class="st19" d="M186.9,340.6v-0.2c0-0.2-0.2-0.4-0.4-0.4s-0.4,0.2-0.4,0.4v0.2c0,0.2,0.2,0.4,0.4,0.4
									S186.9,340.8,186.9,340.6z"/>
								<path class="st19" d="M186.2,349.8v0.2c0,0.2,0.2,0.4,0.4,0.4s0.4-0.2,0.4-0.4v-0.2c0-0.2-0.2-0.4-0.4-0.4
									C186.3,349.4,186.2,349.6,186.2,349.8z"/>
								<path class="st19" d="M184.8,342.9c-0.1-0.1-0.4-0.1-0.5,0s-0.1,0.4,0,0.5l1.2,1.2c-0.1,0.2-0.1,0.4-0.1,0.6
									c0,0.7,0.5,1.2,1.2,1.2s1.2-0.5,1.2-1.2c0-0.2-0.1-0.4-0.1-0.6l2.4-2.4c0.1-0.1,0.1-0.4,0-0.5s-0.4-0.1-0.5,0l-2.4,2.4
									c-0.2-0.1-0.4-0.1-0.6-0.1s-0.4,0.1-0.6,0.1L184.8,342.9z M187,345.2c0,0.3-0.2,0.5-0.5,0.5s-0.5-0.2-0.5-0.5
									s0.2-0.5,0.5-0.5S187,344.9,187,345.2z"/>
								<path class="st19" d="M182.1,341.2c0.2,0,0.4-0.2,0.4-0.4c0-0.2-0.2-0.4-0.4-0.4s-0.4,0.2-0.4,0.4
									C181.8,341,181.9,341.2,182.1,341.2z"/>
							</g>
						</g>
					</g>
					<g>
						<g>
							<defs>
								<rect id="SVGID_11_" x="142.4" y="338.6" width="13.1" height="13.1"/>
							</defs>
							<clipPath id="SVGID_12_">
								<use xlink:href="#SVGID_11_"  style="overflow:visible;"/>
							</clipPath>
							<g class="st25">
								<path class="st26" d="M155.3,344l-6.2-4.5c-0.1-0.1-0.3-0.1-0.4,0l-6.2,4.5c-0.2,0.1-0.2,0.3-0.1,0.5
									c0.1,0.2,0.3,0.2,0.5,0.1l6-4.4l6,4.4c0.1,0,0.1,0.1,0.2,0.1c0.1,0,0.2,0,0.3-0.1C155.5,344.3,155.5,344.1,155.3,344z"/>
								<path class="st26" d="M153.7,344.6c-0.2,0-0.3,0.2-0.3,0.3v5.4h-2.7v-2.9c0-0.9-0.8-1.7-1.7-1.7s-1.7,0.8-1.7,1.7v2.9h-2.7
									v-5.4c0-0.2-0.2-0.3-0.3-0.3c-0.2,0-0.3,0.2-0.3,0.3v5.7c0,0.2,0.2,0.3,0.3,0.3h3.4c0.2,0,0.3-0.1,0.3-0.3l0,0v-3.3
									c0-0.6,0.5-1,1-1c0.6,0,1,0.5,1,1v3.3l0,0c0,0.2,0.2,0.3,0.3,0.3h3.4c0.2,0,0.3-0.2,0.3-0.3v-5.7
									C154,344.7,153.9,344.6,153.7,344.6z"/>
							</g>
						</g>
					</g>
					<path class="st27" d="M262.3,346.8c-0.4-0.4-0.9-0.7-1.5-0.9c-0.2-0.1-0.5,0-0.6,0.2s0,0.5,0.2,0.6c0.5,0.2,0.9,0.5,1.2,0.8
						c0.4,0.4,0.6,0.9,0.6,1.4v0.9c0,0.3-0.2,0.5-0.5,0.5h-9.4c-0.3,0-0.5-0.2-0.5-0.5V349c0-0.6,0.2-1.1,0.6-1.4
						c0.5-0.4,1.9-1.4,4.5-1.4c2,0,3.5-1.6,3.5-3.5s-1.6-3.5-3.5-3.5c-2,0-3.5,1.6-3.5,3.5c0,1.1,0.5,2.2,1.4,2.8
						c-1.5,0.3-2.5,1-3,1.4c-0.6,0.5-1,1.3-1,2.2v0.9c0,0.8,0.6,1.4,1.4,1.4h9.4c0.8,0,1.4-0.6,1.4-1.4v-1
						C262.9,347.7,262.8,347.3,262.3,346.8z M254.6,342.6c0-1.4,1.2-2.6,2.6-2.6c1.4,0,2.6,1.2,2.6,2.6s-1.2,2.6-2.6,2.6
						C255.7,345.2,254.6,344,254.6,342.6z"/>
				</g>
			</g>
		</g>
	</g>
	<path class="st3" d="M109.1,219.6c0,0,9.2,2.8,12.4,10.8"/>
	<g>
		<path class="st1" d="M67.4,473c1-17.8,1.7-35.9,2.6-50.6c1.8-30.3,3.2-50.6,6-71.4c2.8-20.7,2.3-52,3.7-62.9
			c1.4-10.9,5.5-13.2,8.7-26.2s6.2-38.8,11.5-42.4c5.3-3.6,21.6-10.5,21.6-10.5v73.2c9.7,14.9,21.2,18.5,21.2,18.5
			c7.4-21.3,6.4-29.8,13.8-37.6c7.4-7.8,12.7-18,24.2-13.8c5.5,2,8.4,4.1,5.7,22.8c-2.8,18.7-8.3,24.5-8.3,24.5
			c-0.9,6.4,0.5,24.9,2.8,34.4s-6.4,34.7-10.6,50.8c-4.1,16.1-26.2,48.7-26.2,48.7s-0.9,18,0.9,36.8c0.2,1.7,0.4,3.6,0.6,5.5
			l1.5,50.1l-79.7-1.5C67.4,521.4,67.4,473,67.4,473z"/>
		<g>
			<path class="st2" d="M184.7,255c-0.4-1.6-0.4-2.6,0-3.3c-1.1-1-2.5-1.6-4-2.2c-11.6-4.3-16.9,6-24.2,13.8
				c-0.7,0.7-1.3,1.5-1.8,2.2c6.7-2.5,15.4-2.5,18.9,2.4C177.9,274,186.9,262.9,184.7,255z"/>
			<path class="st2" d="M134.8,455.1l-3.6,13.6c0,0,5.1-5,12.8-17.2c-0.4-11.9,0.1-20.8,0.1-20.8s22.1-32.6,26.2-48.7
				c4.1-16.1,12.9-41.3,10.6-50.8c-2.3-9.5-3.7-28-2.8-34.4c0,0,1.2-1.2,2.7-4.4c-1-1-2.2-1.8-3.5-2c0,0-5.9,14-4.5,32.4
				s-1.7,19.9-7.8,43.9c-6.1,23.9-16.2,51-21,55.9C139.3,427.3,137.2,449.2,134.8,455.1z"/>
			<path class="st2" d="M126.1,293.9c0,0-7.3,1.1-10.2,2.8c0,0,14.2,3.7,15.1,7.6s4,8,9.3,3.2c0,0,0.3-3,0.8-7.4
				c-3.4-1.5-12.1-6.3-19.7-17.9V209c0,0-8,3.4-14.7,6.6c4.9,0.7,10,2.2,11.9,5.5c0,0-1.5,6.1-8.3,9.2c-5.2,2.3,0,41.8,0,41.8
				s-8.6,2.1-11.3,10.1c0,0,14.1,1.4,19.9,5.9C124.9,292.7,126.1,293.9,126.1,293.9z"/>
			<path class="st2" d="M70,422.5c-0.7,11.8-1.3,26-2,40.4c1.8-27.4,7.3-74.4,7.3-74.4s4.9,17.4,5.3,15.5c1.1-5.4-2.3-36.2-2-47.2
				c0.1-5-0.2-17.7-0.7-30.1c-0.4,8.5-1,17.1-1.9,24.4C73.2,371.8,71.8,392.1,70,422.5z"/>
		</g>
		<g>
			<path class="st3" d="M67.4,525v-52c1-17.8,1.7-35.9,2.6-50.6c1.8-30.3,3.2-50.6,6-71.4c2.8-20.7,2.3-52,3.7-62.9
				c1.4-10.9,5.5-13.2,8.7-26.2s6.2-38.8,11.5-42.4c5.3-3.6,21.6-10.5,21.6-10.5v73.2c9.7,14.9,21.2,18.5,21.2,18.5
				c7.4-21.3,6.4-29.8,13.8-37.6c7.4-7.8,12.7-18,24.2-13.8c5.5,2,8.4,4.1,5.7,22.8c-2.8,18.7-8.3,24.5-8.3,24.5
				c-0.9,6.4,0.5,24.9,2.8,34.4s-6.4,34.7-10.6,50.8c-4.1,16.1-26.2,48.7-26.2,48.7s-0.9,18,0.9,36.8c0.2,1.7,0.4,3.6,0.6,5.5
				c0,0,0.7,32.3,4.3,52"/>
			<path class="st3" d="M142.6,300.8c0,0-2.3,10.3-6.9,12.6c-4.6,2.3-11.2,0-11.2,0"/>
			<path class="st3" d="M121.5,282.3c0,0-4.6-10.2-19.3-1.4"/>
			<path class="st3" d="M121.5,241c0,0-0.9-5.4-8.5-6.8"/>
			<path class="st3" d="M144,430.7c-8.7,11.1-7.1,21.7-10.4,27.2c-3.4,5.5-2.9,25.3-2.9,25.3"/>
			<path class="st3" d="M80.5,324.4c0,0,0,21.7,0,38.5s3.2,32.9,3.2,32.9"/>
			<path class="st3" d="M178.1,296.8c0,0,0-6.6-1.8-8.5"/>
			<path class="st3" d="M173,276.1c0,0-4.1-13.7-16-7.7"/>
			<path class="st3" d="M136.2,297.4c-8.9,0.2-17.9-3.7-23.2,1"/>
		</g>
	</g>
	<g>
		<path class="st4" d="M66.9,509.9h-3.2v-54.6h3.2c1.1,0,2,0.9,2,2V508C68.9,509.1,68,509.9,66.9,509.9z"/>
		<path class="st4" d="M63.7,462.5c0,0,42.2-11,82.7,1.5c1.3,0.4,2.2,1.6,2.2,3v25.9c0,1-0.9,1.7-1.8,1.5
			c-8.7-1.6-46.9-7.6-80.9,0.3L63.7,462.5z"/>
		<path class="st28" d="M65.5,462v-5.8c0-1.9-1.6-3.5-3.5-3.5h-4.7c-1.2,0-2.3,0.7-2.9,1.7l-4.2,7.6v44.6l4.1,5
			c0.6,0.8,1.5,1.2,2.5,1.2H62c1.9,0,3.5-1.6,3.5-3.5V462z"/>
		<path class="st28" d="M62.5,459.1l9.6-1.8c1.1-0.2,2.2,0.7,2.2,1.8v5.6l-3.2,2.4v18.1h3.2v9.4c0,1.1-0.8,2-1.8,2.2l-9.1,1.9
			c-1.4,0.3-2.7-0.8-2.7-2.2v-35.2C60.7,460.2,61.5,459.3,62.5,459.1z"/>
		<path class="st3" d="M62.9,496.2l7.8-1.8c0.6-0.1,1-0.7,1-1.3v-5.9"/>
		<polyline class="st3" points="68.5,484.8 68.5,465.5 71.7,463.1 71.7,459.5 		"/>
		<line class="st3" x1="55.8" y1="456.2" x2="55.8" y2="507.8"/>
		<path class="st1" d="M93.9,476.3L93.9,476.3c-0.8,0-1.4-0.6-1.4-1.4v-3.1c0-0.8,0.6-1.4,1.4-1.4l0,0c0.8,0,1.4,0.6,1.4,1.4v3.1
			C95.3,475.7,94.7,476.3,93.9,476.3z"/>
		<path class="st1" d="M115.6,476.9L115.6,476.9c-0.8,0-1.4-0.6-1.4-1.4v-3.1c0-0.8,0.6-1.4,1.4-1.4l0,0c0.8,0,1.4,0.6,1.4,1.4v3.1
			C117,476.3,116.4,476.9,115.6,476.9z"/>
		<path class="st1" d="M134.9,479.3L134.9,479.3c-0.8,0-1.4-0.6-1.4-1.4v-3.1c0-0.8,0.6-1.4,1.4-1.4l0,0c0.8,0,1.4,0.6,1.4,1.4v3.1
			C136.4,478.7,135.7,479.3,134.9,479.3z"/>
	</g>
</g>
</svg>
