<?xml version="1.0" encoding="utf-8"?>
<!-- Generator: Adobe Illustrator 24.0.1, SVG Export Plug-In . SVG Version: 6.00 Build 0)  -->
<svg version="1.1" id="Layer_1" xmlns="http://www.w3.org/2000/svg" xmlns:xlink="http://www.w3.org/1999/xlink" x="0px" y="0px"
	 viewBox="0 0 300 300" style="enable-background:new 0 0 300 300;" xml:space="preserve">
<style type="text/css">
	.st0{opacity:0.15;fill:#6D6D6D;enable-background:new    ;}
	.st1{fill:#FFFFFF;}
	.st2{opacity:0.4;clip-path:url(#SVGID_2_);fill:#FDC933;enable-background:new    ;}
	.st3{fill:none;stroke:#1A2E35;stroke-width:0.9002;stroke-linecap:round;stroke-linejoin:round;stroke-miterlimit:10;}
	.st4{fill:#FDC933;}
	.st5{opacity:0.2;enable-background:new    ;}
	.st6{fill:#FDC933;stroke:#1A2E35;stroke-width:0.9002;stroke-linecap:round;stroke-linejoin:round;stroke-miterlimit:10;}
	.st7{fill:#1A2E35;}
	.st8{fill:#FFFFFF;stroke:#1A2E35;stroke-width:0.9002;stroke-linecap:round;stroke-linejoin:round;stroke-miterlimit:10;}
	.st9{opacity:0.2;}
	.st10{fill:none;stroke:#FFFFFF;stroke-width:0.9002;stroke-linecap:round;stroke-linejoin:round;stroke-miterlimit:10;}
	.st11{fill:#1A2E35;stroke:#1A2E35;stroke-width:0.9002;stroke-linecap:round;stroke-linejoin:round;stroke-miterlimit:10;}
	.st12{opacity:0.4;clip-path:url(#SVGID_4_);fill:#FDC933;enable-background:new    ;}
	.st13{fill:#5AE4A7;stroke:#1A2E35;stroke-width:0.9002;stroke-linecap:round;stroke-linejoin:round;stroke-miterlimit:10;}
	.st14{fill:#EFEFEF;stroke:#1A2E35;stroke-width:0.9002;stroke-linecap:round;stroke-linejoin:round;stroke-miterlimit:10;}
	.st15{fill:#010021;}
	.st16{opacity:0.8;fill:#51B74A;enable-background:new    ;}
	.st17{opacity:0.58;fill:#008CC1;enable-background:new    ;}
	.st18{fill:none;stroke:#000000;stroke-width:0.3595;stroke-miterlimit:10;}
</style>
<path class="st0" d="M161.6,0.1c0.2,0,0.3,0,0.5,0c48.3,2.6,83,35.2,83,84.4c0,25.7,25.2,46,36.8,66.8
	C322,223.5,236.2,290,171.7,299.1c-58.2,8.2-120-38.5-140-91.2C14,161.4,23.6,106.9,49.1,65.3c2.6-4.2,5.3-8.2,8.2-12.1
	C81.7,20.3,120.1-1.8,161.6,0.1z"/>
<g>
	<g>
		<g>
			<g>
				<path id="XMLID_4_" class="st1" d="M73,260.4c0,0-10.1,6.9-14.1,6.4c-0.5-0.1-0.9-0.2-1.2-0.5c-2.7-2.7-4.8-7.5-4.8-7.5
					s1.3-1.7,5.1,2.8l2.5-2.3l-5.1-5.1c0,0,2.8-2.3,7.7,0.6c-0.2-0.4-3.3-7.1-0.9-16.5L50.4,227l10.4-9.1l0.8-0.7
					c0,0,0.6,0.6,1.7,1.6c1,1,2.5,2.3,4,3.7c3.7,3.2,8.1,6.8,10.1,6.8C81.2,229.2,73,260.4,73,260.4z"/>
			</g>
			<g>
				<g>
					<defs>
						<path id="SVGID_1_" d="M73,260.4c0,0-10.1,6.9-14.1,6.4c-0.5-0.1-0.9-0.2-1.2-0.5c-2.7-2.7-4.8-7.5-4.8-7.5s1.3-1.7,5.1,2.8
							l2.5-2.3l-5.1-5.1c0,0,2.8-2.3,7.7,0.6c-0.2-0.4-3.3-7.1-0.9-16.5L50.4,227l10.4-9.1l0.8-0.7c0,0,0.6,0.6,1.7,1.6
							c1,1,2.5,2.3,4,3.7c3.7,3.2,8.1,6.8,10.1,6.8C81.2,229.2,73,260.4,73,260.4z"/>
					</defs>
					<clipPath id="SVGID_2_">
						<use xlink:href="#SVGID_1_"  style="overflow:visible;"/>
					</clipPath>
					<path class="st2" d="M65.2,256c0,0-5.7,5.9-6.3,10.8c-0.5-0.1-0.9-0.2-1.2-0.5c-2.7-2.7-4.8-7.5-4.8-7.5s1.3-1.7,5.1,2.8
						l2.5-2.3l-5.1-5.1c0,0,2.8-2.3,7.7,0.6c-0.2-0.4-3.3-7.1-0.9-16.5L50.4,227l10.4-9.1l2.6,0.9c1,1,2.5,2.3,4,3.7
						c-2.2,3.3-6.9,10-6.9,10l4.1,5.6C64.6,238.1,62.1,252.1,65.2,256z"/>
				</g>
			</g>
			<g>
				<path id="XMLID_1_" class="st3" d="M73,260.4c0,0-10.1,6.9-14.1,6.4c-0.5-0.1-0.9-0.2-1.2-0.5c-2.7-2.7-4.8-7.5-4.8-7.5
					s1.3-1.7,5.1,2.8l2.5-2.3l-5.1-5.1c0,0,2.8-2.3,7.7,0.6c-0.2-0.4-3.3-7.1-0.9-16.5L50.4,227l10.4-9.1l0.8-0.7
					c0,0,0.6,0.6,1.7,1.6c1,1,2.5,2.3,4,3.7c3.7,3.2,8.1,6.8,10.1,6.8C81.2,229.2,73,260.4,73,260.4z"/>
			</g>
		</g>
		<path class="st3" d="M60.6,259.4c0,0,0.9-2.7,2.7-4.5"/>
	</g>
	<path class="st4" d="M247.6,181c-1.5,2.2-3.4,4.2-5.7,6.1l0,0c-18.4,15.3-60.9,22.8-60.9,22.8s-1.5,2.1-3.6,5.2
		c-3.9,5.5-10.3,13.8-15.6,18l0,0c-2.2,1.7-4.2,2.8-5.8,2.6l8,29.4l3.6,12.8c0,0-36.7,16-99.3-2.3c0,0-0.7-8.1-0.2-10
		c0-0.1,0.1-0.2,0.1-0.3c0.5-1.4,2.5-3.1,2.5-3.1s-0.4-5.2-0.5-10.6c-0.2-4.1-0.2-8.4,0.1-10.2c0.5-2.7,2.4-9.2,3.4-12.4
		c0.4-1.1,0.5-1.8,0.5-1.8L71,198l-0.9-8.4c0,0,0-0.2-0.1-0.5c0-0.1,0-0.1,0-0.2l-0.5-4.5l-16.1,4.9c0,0,0.8,1.9,2,4.6
		c2.1,4.8,5.2,12.3,5.9,15.2c0.1,0.3,0.1,0.5,0.2,0.7c1.5,4.3,7.1,8.1,7.1,8.1l-15.3,17.8l-4.5-3.1c0,0-0.6,0.5-1.8,1.2
		c-2.9,1.6-9.2,3.9-16,0.4c-2.5-1.3-5-3.5-7.5-6.7c-12.1-15.5-17.2-28.3-15.5-43.2c1.7-14.9,68.8-60.8,82-60.4l19.8,4.4
		c0.5-0.4,1.6-1.3,2.5-1.2c3.6,0.2,3.7,4.4,3.7,4.4l44.3,7.2c0,0,4.6-2.3,5.4-2.3c1.9,0.1,2.8,1.7,2.8,1.7s11.5-6.9,15.2-5.3
		C196,138,256.5,167.4,247.6,181z"/>
	<g>
		<path class="st5" d="M93.5,253.9c0,0-6.9,8.4-19.2,10.4c-2.4,0.4-4.4,0.7-6.2,1.1c0.5-1.4,2.5-3.1,2.5-3.1s-0.4-5.2-0.5-10.6
			C75.3,255.2,84.4,259.1,93.5,253.9z"/>
		<path class="st5" d="M73.7,229c0.4-1.1,0.5-1.8,0.5-1.8L71.1,198c4.7,6.7,21.3,29.4,32.7,31.9C115.8,232.5,83.8,237,73.7,229z"/>
		<path class="st5" d="M164,265.1c-12.5-1.5-30.2-4.6-32-11.2c-2.7-10.2,10.7-16.4,29.7-20.8c-2.2,1.7-4.2,2.8-5.8,2.6L164,265.1z"
			/>
		<path class="st5" d="M241.8,187.1c-18.4,15.3-60.9,22.8-60.9,22.8s-1.5,2.1-3.6,5.2c-3.6-8.4-8.8-25.8-2.7-47.1
			c0,0,3.3,17.7,16.8,21.9c0,0-10.4-7.8-6.8-26.4c0,0,3.6,21.9,26.6,28C222.6,194.5,233.6,191.2,241.8,187.1z"/>
		<path class="st5" d="M70.2,189.1l-0.5-4.8l-16.1,4.9c0,0,0.8,1.9,2,4.6c-6.1-0.6-17.8,5.1-19.9-1.2c-2.5-7.5,12.7-4.9,12.7-4.9
			l14.3-8.3c-2.7-11.5,4.2-20.2,4.2-20.2l1.3,8c0.6-15.3,6.6-23.7,6.6-23.7C69.7,155.8,69.8,185.6,70.2,189.1z"/>
		<path class="st5" d="M68.8,217.8l-15.3,17.8l-4.5-3.1c0,0-0.6,0.5-1.8,1.2c-2.9,1.6-9.2,3.9-16,0.4c4.9-6.9,15.2-16.9,27.3-20.8
			c0,0-5,7.3-8.1,13.9l3.1,3.1C53.6,230.2,61.4,221.2,68.8,217.8z"/>
		<path class="st5" d="M105.9,139.3c0,1.6-1,19.4,12,24.1s24.5-3.3,24.5-3.3s-19.9,19.2-32,9C98.3,158.9,105.9,139.3,105.9,139.3z"
			/>
	</g>
	<path class="st3" d="M68.3,275.5c0,0-0.7-8.1-0.2-9.9c0.5-1.5,2.6-3.4,2.6-3.4s-1.1-16.6-0.4-20.8c0.6-3.7,4-14.3,4-14.3l-4.6-42.8
		l-16.1,4.9c0,0,6.9,15.2,8,19.7c1.1,4.5,7.4,8.9,7.4,8.9l-15.3,17.8l-4.5-3.1c0,0-13.4,10.4-25.3-5.1
		c-12.1-15.5-17.2-28.3-15.5-43.2s68.8-60.8,82-60.4l19.8,4.4c0.5-0.4,1.6-1.3,2.5-1.2c3.6,0.2,3.7,4.4,3.7,4.4l44.3,7.2
		c0,0,4.6-2.3,5.4-2.3c1.9,0.1,2.8,1.7,2.8,1.7s11.5-6.9,15.2-5.3c12.2,5.2,72.6,34.7,63.6,48.3c-12.7,19.4-66.6,28.9-66.6,28.9
		s-17.9,27-25,25.7l11.5,42.2"/>
	<path class="st6" d="M200.7,184c20.3,13.4,36.8,11,49.6-6.3c0,0,10.7-13.8,10-28.6c-0.7-14.9-4.3-63.4-50.7-50.9
		c-7.6,2-25.4,25.9-26.9,32.4c-0.6,3-7.9,18.2-14.7,34"/>
	<path class="st7" d="M145.6,41.6c0,0,13-2,21.9,6.1c11.4,10.2,24.1,37.7,5.9,83.2c0,0-26.9-17.8-72.8-5.9c0,0,3.9-10.7-3-44.3
		C94.7,65.5,102.6,30.4,145.6,41.6z"/>
	<g>
		<path class="st8" d="M126,155.9c19.2,3.1,39.6-18.1,39.6-18.1s-10.4-1.3-11.3-6.2c-3-15.5,9.1-34.6,9.1-34.6s-46.5,1.3-38.4,11.8
			c1.7,2.2,2.9,4.3,3.7,6.3c2.8,6.9,0.8,12.2-0.6,13.4c-0.1,0.1-0.3,0.2-0.4,0.2c-2.8,1.3-14.4-0.6-14.4-0.6S108.5,153,126,155.9z"
			/>
		<path class="st3" d="M159,143.6c0,0-8.9,3.6-21.8,2.5l-5.9,2.8"/>
		<path class="st3" d="M125.5,148.4l-0.5-3.8c0,0-9.5-3-12.5-8.7"/>
		<path class="st7" d="M127.9,128.6c14.3,3.7,20.9-14.5,20.9-14.5s-11.4-3.4-20.3,1.1C131.4,122.1,129.3,127.3,127.9,128.6z"/>
	</g>
	<g>
		<path class="st8" d="M164.1,87.4c3.5-19.5-0.4-42.9-30-40.9c-21.2,1.4-21,24.6-19.6,31.5c2.4,11.6-1,16.3,2.7,26.1
			c2.7,7,8.7,14.9,15.8,17.8c4.4,1.8,22.1-10.7,23.5-16.4"/>
		<path class="st3" d="M126.8,81.7c-0.2,2.2-0.5,7.6-5,11.6c-3,2.6,3.8,5.2,3.8,5.2"/>
		<path class="st3" d="M121.9,73.9c0,0-6.6-3.2-11,2.1"/>
		<path class="st3" d="M132.9,73.6c0,0,6.3-2.3,14,0.5"/>
		<path class="st7" d="M139.7,82.7c0.2,1.9,1.5,3.3,2.8,3.1c1.4-0.2,2.3-1.8,2.1-3.7c-0.2-1.9-1.5-3.3-2.8-3.1
			C140.4,79.2,139.5,80.9,139.7,82.7z"/>
		<path class="st3" d="M126,104.6c8.2-1,14.6-5.3,14.6-5.3s0.6,8.1-6.2,9.9c-5.2,1.3-7.3-4.7-7.3-4.7"/>
		<path class="st7" d="M145.2,53.9c0,0-1.9,23,18.5,31.5l9.5-22.2l-14.4-16l-21.8-6.3c-32.5,2-46.5,22.2-28.4,76.1
			C108.6,117,103.6,52.9,145.2,53.9z"/>
		<path class="st8" d="M159.2,86.4c-0.3-2.6,6.3-9.2,8.5-4.9c3.7,7.2,1,13.5-2.9,16c-1.7,1.1-3.9,3.2-5.6,1.2"/>
		<path class="st7" d="M119.8,83.6c0.2,1.9,1.5,3.3,2.8,3.1c1.4-0.2,2.3-1.8,2.1-3.7c-0.2-1.9-1.5-3.3-2.8-3.1
			C120.6,80,119.7,81.7,119.8,83.6z"/>
		<g class="st9">
			<path class="st10" d="M105.7,79.8c-0.3,1.6-0.4,3.1-0.5,4.8"/>
			<path class="st10" d="M141.8,49.7c-16.5-0.5-31.7,10.1-35.4,26.5"/>
			<path class="st10" d="M138.9,45c0,0-23.8-5.6-32.6,10.2"/>
			<path class="st10" d="M158.2,72.5c1.5,2,3.1,3.8,5.1,5.4"/>
			<path class="st10" d="M148.7,48c1.3,7.4,3.7,15,7.5,21.5"/>
			<path class="st10" d="M172.6,119.5c-0.5,1.9-0.9,3.7-1.5,5.6"/>
			<path class="st10" d="M171.2,88.1c3.8,8.6,3.6,19.2,2,28.2"/>
			<path class="st10" d="M168.4,103c0,0,1.2,9.5-6.7,17.6"/>
			<path class="st10" d="M157.4,50.9c4,5.5,7,11.3,11.7,16.3c4.9,5.2,9.9,11.2,10.8,18.7"/>
			<path class="st10" d="M151.8,45.1c1.2,0.7,2.2,1.6,3.2,2.7"/>
		</g>
	</g>
	<path class="st11" d="M233,171.9c-0.5,0.1-0.9,0.2-1.5,0.3c-12.7,1.8-27.1-8.8-31.8-21.4c-3.8-10.1-0.5-21.4,1.4-26.2
		c0.5-1.6,1-2.4,1-2.4c7.7-11,52.4,10.5,52.9,22.3C255.4,156.2,246.1,169,233,171.9z"/>
	<g>
		<g>
			<path id="XMLID_3_" class="st1" d="M246.9,146c0,0-2.6,18.8-15.5,26.2c-12.7,1.8-27.1-8.8-31.8-21.4c-3.8-10.1-0.5-21.4,1.4-26.2
				l0,0C216.1,115.9,246.9,146,246.9,146z"/>
		</g>
		<g>
			<g>
				<defs>
					<path id="SVGID_3_" d="M246.9,146c0,0-2.6,18.8-15.5,26.2c-12.7,1.8-27.1-8.8-31.8-21.4c-3.8-10.1-0.5-21.4,1.4-26.2l0,0
						C216.1,115.9,246.9,146,246.9,146z"/>
				</defs>
				<clipPath id="SVGID_4_">
					<use xlink:href="#SVGID_3_"  style="overflow:visible;"/>
				</clipPath>
				<path class="st12" d="M246.9,146c0,0-2.6,18.8-15.5,26.2c-12.7,1.8-27.1-8.8-31.8-21.4c-3.8-10.1-0.5-21.4,1.4-26.2l0,0
					C216.1,115.9,246.9,146,246.9,146z"/>
			</g>
		</g>
		<g>
			<path id="XMLID_2_" class="st3" d="M246.9,146c0,0-2.6,18.8-15.5,26.2c-12.7,1.8-27.1-8.8-31.8-21.4c-3.8-10.1-0.5-21.4,1.4-26.2
				l0,0C216.1,115.9,246.9,146,246.9,146z"/>
		</g>
	</g>
	<path class="st3" d="M194.3,155.9c0,0,14.5,20.8,31.5,22.6s27.8-12.5,28.5-23.3"/>
	<path class="st8" d="M186.1,61.9c1.3-3.6,10.4-2.4,13.4,8.8c2.9,11.2,14.4,38.1,14.4,38.1s45.4-66.9,53.7-69.5
		c8.1-2.6,4.9,9.1-5.9,25.1c0,0,10.2-1.8,12.9,0c2.7,1.8,1.4,12.6,2.8,16.4c2.4,6.3-2.9,7.7-2.9,7.7s4.2,0,7.1,2.7
		c2.9,2.7,1.5,14.1,2.3,17.3c0.8,3.2-4.8,5.9-4.8,5.9s13.4,7.3,10.4,9.1c-5.1,3.1-8-0.1-8-0.1s-20.6,25.9-36.1,31.6
		s-45.8-17.1-49-29.6c-3.3-12.4,0.6-11.7-1.8-32.5C191.7,72.3,186.1,61.9,186.1,61.9z"/>
	<path class="st3" d="M180.9,209.9c0,0-10.2-23.8-5-52.7"/>
	<path class="st3" d="M156,235.7c0,0-20.7,6.3-22.8,11.1c-2.1,4.8,9.2,0.7,9.2,0.7"/>
	<path class="st3" d="M168.8,138c0,0-19,18.8-31.8,24"/>
	<path class="st3" d="M106.3,133c0,0-3.5,25.5,9.5,30.3"/>
	<path class="st3" d="M69.6,184.4c0,0-0.1-33.4,6.5-43.7"/>
	<path class="st3" d="M67.2,150.4c0,0-1.8,20.8,2.3,27.5"/>
	<path class="st3" d="M53.5,189.3c0,0-14.4-5-17.5,1.2c-3,6.2,8.6,0.7,8.6,0.7"/>
	<path class="st3" d="M62.2,211c0,0-14.3,8-15,12.6"/>
	<path class="st3" d="M85.5,188.9c0,0,27.2,41.1,42.2,37.4"/>
	<path class="st3" d="M104.1,246.6c0,0-21.4,15.6-24.4,14.4"/>
	<path class="st5" d="M253.6,179.8c1.5-1.2,2.4-1.9,2.7-2.2C256,177.9,255.1,178.7,253.6,179.8z"/>
</g>
<g>
	<path class="st8" d="M252.4,20.8l-59.9,15.6c-2.1,0.5-3.4,2.7-2.8,4.8l30.6,117c0.5,2.1,2.7,3.4,4.8,2.8l59.9-15.6
		c2.1-0.5,3.4-2.7,2.8-4.8l-30.6-117C256.7,21.5,254.6,20.2,252.4,20.8z"/>
	<g>
		<path class="st13" d="M218.1,33.2c0.1,0.5-0.2,1.1-0.7,1.2c-0.5,0.1-1.1-0.2-1.2-0.7c-0.1-0.5,0.2-1.1,0.7-1.2
			C217.5,32.4,218,32.7,218.1,33.2z"/>
		<path class="st13" d="M230.5,30c0.1,0.4-0.1,0.6-0.5,0.7c-0.4,0.1-0.6-0.1-0.7-0.5c-0.1-0.4,0.1-0.6,0.5-0.7
			C230,29.5,230.4,29.7,230.5,30z"/>
		<path class="st13" d="M227.3,31.2l-7.2,1.8c-0.2,0-0.3-0.1-0.4-0.2v-0.1c0-0.2,0.1-0.3,0.2-0.4l7.2-1.8c0.2,0,0.3,0.1,0.4,0.2v0.1
			C227.5,31,227.4,31.1,227.3,31.2z"/>
	</g>
	<path class="st14" d="M255.5,24.7l30.5,116c0.4,1.3-0.5,2.6-1.6,2.8l-59.2,15.5c-1.3,0.4-2.6-0.5-2.8-1.6l-30.5-116
		c-0.4-1.3,0.5-2.6,1.6-2.8l12.2-3.2c0.8-0.2,1.6,0.1,2.1,0.8l0.9,1.3c0.5,0.6,1.3,1,2.1,0.8l26.7-6.9c0.8-0.2,1.4-0.9,1.5-1.7
		l0.2-1.6c0.1-0.8,0.6-1.5,1.5-1.7l12.2-3.2C253.9,22.7,255.2,23.4,255.5,24.7z"/>
	<g>
		<g>
			<path class="st15" d="M234.5,89.6l1.6-2.9l-1.6,0.5l-1.7,3.2l-0.6-2.7l-1.3,0.4l1.6,5.9l1.3-0.4l-0.5-1.6l0.5-1l2.4,2l1.6-0.4
				L234.5,89.6z"/>
			<path class="st15" d="M239.2,90.7c0.4,0.2,0.7,0.2,1.2,0.1c0.3-0.1,0.6-0.3,0.8-0.4c0.2-0.2,0.5-0.4,0.5-0.7l0.9,0.5
				c-0.1,0.4-0.5,0.7-0.7,1c-0.4,0.3-0.7,0.5-1.3,0.6c-0.5,0.1-0.8,0.2-1.2,0.1s-0.7-0.2-1.1-0.4c-0.4-0.2-0.6-0.5-0.9-0.7
				c-0.3-0.4-0.5-0.7-0.5-1.2c-0.1-0.5-0.2-0.8-0.1-1.3c0.1-0.4,0.2-0.8,0.4-1.1c0.2-0.4,0.5-0.6,0.7-0.9c0.3-0.3,0.6-0.5,1.1-0.5
				c0.5-0.1,0.9-0.2,1.3-0.1c0.4,0.1,0.7,0.2,1,0.5c0.3,0.2,0.5,0.5,0.8,0.9c0.2,0.4,0.4,0.7,0.5,1.1c0,0.1,0,0.1,0,0.2
				c0,0.1,0,0.1,0,0.2l-4.3,1.1C238.5,90.3,238.8,90.6,239.2,90.7z M241,88.2c-0.1-0.2-0.2-0.4-0.3-0.5c-0.1-0.2-0.3-0.3-0.4-0.5
				c-0.2-0.1-0.4-0.2-0.5-0.2s-0.4,0-0.6,0.1c-0.5,0.1-0.7,0.4-0.9,0.6c-0.2,0.4-0.3,0.7-0.2,1.3L241,88.2L241,88.2z"/>
			<path class="st15" d="M245.3,90.6l-1.3,0.4l-1.5-5.8l1.3-0.4l0.4,1.3c0.1-0.5,0.3-0.9,0.5-1.3c0.3-0.4,0.6-0.5,1.2-0.6l0.4,1.4
				h-0.1c-0.3,0.1-0.5,0.2-0.7,0.4c-0.2,0.2-0.4,0.4-0.5,0.5c-0.1,0.2-0.2,0.5-0.2,0.8c0,0.3,0,0.6,0.1,1L245.3,90.6L245.3,90.6z"/>
			<path class="st15" d="M246.6,84.1l1.1,4.1c0.1,0.2,0,0.4-0.1,0.5s-0.3,0.2-0.5,0.2c-0.1,0-0.3,0.1-0.4,0.1l0.3,1.2
				c0.1,0,0.2,0,0.4-0.1c0.1,0,0.2-0.1,0.4-0.1c0.5-0.2,0.9-0.4,1.2-0.6c0.2-0.3,0.3-0.6,0.2-1.1l-1.2-4.5L246.6,84.1z"/>
			<path class="st15" d="M255.7,86c-0.1,0.4-0.2,0.8-0.5,1.1c-0.2,0.3-0.5,0.6-0.8,0.9c-0.4,0.3-0.7,0.5-1.2,0.5
				c-0.5,0.1-0.8,0.2-1.3,0.1c-0.5,0-0.8-0.2-1.2-0.4c-0.4-0.2-0.6-0.5-0.9-0.7c-0.3-0.3-0.5-0.7-0.5-1.1c-0.1-0.4-0.2-0.8-0.1-1.3
				c0-0.5,0.2-0.8,0.4-1.2c0.2-0.4,0.5-0.6,0.8-0.9c0.4-0.3,0.7-0.5,1.2-0.5c0.5-0.1,0.9-0.2,1.3-0.1c0.5,0.1,0.8,0.2,1.2,0.4
				c0.4,0.2,0.6,0.5,0.9,0.7c0.3,0.3,0.5,0.7,0.5,1.1C255.7,85.3,255.7,85.6,255.7,86z M254,84.5c-0.1-0.2-0.3-0.4-0.5-0.5
				c-0.2-0.2-0.5-0.2-0.6-0.3c-0.2-0.1-0.5,0-0.7,0c-0.3,0.1-0.5,0.2-0.6,0.3c-0.2,0.2-0.3,0.4-0.5,0.5c-0.1,0.2-0.2,0.5-0.2,0.6
				c0,0.2,0,0.5,0.1,0.7c0.1,0.3,0.2,0.5,0.4,0.7c0.1,0.2,0.3,0.4,0.5,0.5c0.2,0.2,0.5,0.2,0.6,0.3c0.3,0.1,0.5,0,0.7,0
				c0.3-0.1,0.5-0.2,0.7-0.4c0.2-0.2,0.3-0.4,0.5-0.5c0.1-0.2,0.2-0.5,0.2-0.6c0-0.2,0-0.5-0.1-0.7C254.3,84.9,254.1,84.7,254,84.5z
				"/>
			<path class="st15" d="M262.3,84.3c-0.1,0.4-0.2,0.8-0.5,1.1c-0.2,0.3-0.5,0.6-0.8,0.9c-0.4,0.3-0.7,0.5-1.2,0.5
				c-0.5,0.1-0.8,0.2-1.3,0.1c-0.5,0-0.8-0.2-1.2-0.4c-0.4-0.2-0.6-0.5-0.9-0.7c-0.3-0.3-0.5-0.7-0.5-1.1c-0.1-0.4-0.2-0.8-0.1-1.3
				c0-0.5,0.2-0.8,0.4-1.2s0.5-0.6,0.8-0.9c0.4-0.3,0.7-0.5,1.2-0.5c0.5-0.1,0.9-0.2,1.3-0.1c0.5,0.1,0.8,0.2,1.2,0.4
				c0.4,0.2,0.6,0.5,0.9,0.7c0.3,0.3,0.5,0.7,0.5,1.1C262.4,83.5,262.4,83.9,262.3,84.3z M260.6,82.8c-0.1-0.2-0.3-0.4-0.5-0.5
				c-0.2-0.2-0.5-0.2-0.6-0.3s-0.5,0-0.7,0c-0.3,0.1-0.5,0.2-0.6,0.3c-0.2,0.2-0.3,0.4-0.5,0.5c-0.1,0.2-0.2,0.5-0.2,0.6
				c0,0.2,0,0.5,0.1,0.7c0.1,0.3,0.2,0.5,0.4,0.7c0.1,0.2,0.3,0.4,0.5,0.5c0.2,0.2,0.5,0.2,0.6,0.3c0.3,0.1,0.5,0,0.7,0
				c0.3-0.1,0.5-0.2,0.7-0.4c0.2-0.2,0.3-0.4,0.5-0.5c0.1-0.2,0.2-0.5,0.2-0.6c0-0.2,0-0.5-0.1-0.7C260.8,83.2,260.7,83,260.6,82.8z
				"/>
		</g>
		<g>
			<path class="st16" d="M224.4,86.9c-0.5,0.1-0.7,0.3-1.1,0.6l0,0l0,0l-0.2,0.2l0,0l-1.2,1.4l-0.1,0.1c-0.5-0.8-1.5-1.2-2.5-0.9
				c-1.2,0.3-1.9,1.6-1.6,2.7l0.9,3.4c0.3,1.2,1.6,1.9,2.7,1.6c0.4-0.1,0.7-0.3,1-0.5l0.3-0.4l0.6-0.7l3.1-3.6l0.4-0.5
				c0.4-0.5,0.5-1.2,0.3-1.8C226.8,87.3,225.5,86.6,224.4,86.9z"/>
			<path class="st16" d="M227.3,98.2c-0.5,0.1-0.8,0.1-1.2,0l0,0l0,0l-0.2-0.1l0,0l-1.7-0.6h-0.1c-0.1,0.9-0.7,1.8-1.7,2
				c-1.2,0.3-2.5-0.4-2.7-1.6l-0.9-3.4c-0.3-1.2,0.4-2.5,1.6-2.7c0.4-0.1,0.7-0.1,1.1,0l0.4,0.2l0.9,0.4l4.5,1.6l0.5,0.2l0,0
				c0.5,0.3,1,0.8,1.2,1.5C229.2,96.6,228.5,97.9,227.3,98.2z"/>
			<path class="st17" d="M223.8,96.8c0.3,1.2-0.5,2.4-1.6,2.7c-0.1,0-0.2,0-0.3,0.1c-1.1,0.2-2.2-0.5-2.5-1.6l-1.8-7
				c-0.3-1.1,0.4-2.3,1.4-2.7c0.1,0,0.2,0,0.2,0c1.2-0.3,2.4,0.5,2.7,1.6C222.1,89.9,223.8,96.8,223.8,96.8z"/>
			<circle class="st16" cx="215.7" cy="95.1" r="2.4"/>
		</g>
		<line class="st18" x1="227" y1="87.6" x2="227" y2="87.6"/>
	</g>
</g>
</svg>
