<?xml version="1.0" encoding="utf-8"?>
<!-- Generator: Adobe Illustrator 24.0.1, SVG Export Plug-In . SVG Version: 6.00 Build 0)  -->
<svg version="1.1" id="Layer_1" xmlns="http://www.w3.org/2000/svg" xmlns:xlink="http://www.w3.org/1999/xlink" x="0px" y="0px"
	 viewBox="0 0 400 550" style="enable-background:new 0 0 400 550;" xml:space="preserve">
<style type="text/css">
	.st0{opacity:0.15;fill:#6D6D6D;}
	.st1{opacity:0.4;clip-path:url(#XMLID_2_);fill:#FDC933;}
	.st2{fill:none;stroke:#1A2E35;stroke-width:0.9844;stroke-linecap:round;stroke-linejoin:round;stroke-miterlimit:10;}
	.st3{fill:#FDC933;}
	.st4{opacity:0.2;}
	.st5{fill:#FDC933;stroke:#1A2E35;stroke-width:0.9844;stroke-linecap:round;stroke-linejoin:round;stroke-miterlimit:10;}
	.st6{fill:#1A2E35;}
	.st7{fill:#FFFFFF;stroke:#1A2E35;stroke-width:0.9844;stroke-linecap:round;stroke-linejoin:round;stroke-miterlimit:10;}
	.st8{fill:none;stroke:#FFFFFF;stroke-width:0.9844;stroke-linecap:round;stroke-linejoin:round;stroke-miterlimit:10;}
	.st9{fill:#1A2E35;stroke:#1A2E35;stroke-width:0.9844;stroke-linecap:round;stroke-linejoin:round;stroke-miterlimit:10;}
	.st10{opacity:0.4;clip-path:url(#XMLID_5_);fill:#FDC933;}
	.st11{fill:#5AE4A7;stroke:#1A2E35;stroke-width:0.9844;stroke-linecap:round;stroke-linejoin:round;stroke-miterlimit:10;}
	.st12{fill:#259E91;stroke:#1A2E35;stroke-width:0.9844;stroke-linecap:round;stroke-linejoin:round;stroke-miterlimit:10;}
	.st13{fill:#FFFFFF;}
	.st14{opacity:0.8;fill:#FFFFFF;enable-background:new    ;}
	.st15{opacity:0.58;fill:#FFFFFF;enable-background:new    ;}
	.st16{fill:none;}
	.st17{fill:#674EA7;}
	.st18{fill:#3D85C6;}
	.st19{fill:#A61C00;}
	.st20{fill:#5DAA1A;}
	.st21{fill:#F16E31;}
</style>
<g>
	<path class="st0" d="M16.3,214c34.9-34.9,64.4-5.6,76.8-52.4C121.2,55.8,237.7,56.9,253,132.1c27.6,135.5,147.8,49.4,146.9,146.5
		c-1,103.6-77.1,184.3-213.8,192.4C63.7,478.1-41.5,271.7,16.3,214z"/>
	<g>
		<g>
			<g>
				<defs>
					<path id="XMLID_4_" d="M131,443.7c0,0-11,7.5-15.4,7c-0.5-0.1-1-0.2-1.3-0.5c-2.9-3-5.2-8.2-5.2-8.2s1.4-1.9,5.6,3.1l2.7-2.5
						l-5.6-5.6c0,0,3.1-2.5,8.4,0.7c-0.2-0.4-3.6-7.8-1-18l-12.9-12.5l11.4-10l0.9-0.8c0,0,0.7,0.7,1.9,1.8c1.1,1.1,2.7,2.5,4.4,4
						c4,3.5,8.9,7.4,11,7.4C139.9,409.6,131,443.7,131,443.7z"/>
				</defs>
				<use xlink:href="#XMLID_4_"  style="overflow:visible;fill:#FFFFFF;"/>
				<clipPath id="XMLID_2_">
					<use xlink:href="#XMLID_4_"  style="overflow:visible;"/>
				</clipPath>
				<path class="st1" d="M122.5,438.9c0,0-6.2,6.4-6.9,11.8c-0.5-0.1-1-0.2-1.3-0.5c-2.9-3-5.2-8.2-5.2-8.2s1.4-1.9,5.6,3.1l2.7-2.5
					l-5.6-5.6c0,0,3.1-2.5,8.4,0.7c-0.2-0.4-3.6-7.8-1-18l-12.9-12.5l11.4-10l2.8,1c1.1,1.1,2.7,2.5,4.4,4
					c-2.4,3.6-7.6,10.9-7.6,10.9l4.5,6.1C121.8,419.3,119.1,434.7,122.5,438.9z"/>
				
					<use xlink:href="#XMLID_4_"  style="overflow:visible;fill:none;stroke:#1A2E35;stroke-width:0.9844;stroke-linecap:round;stroke-linejoin:round;stroke-miterlimit:10;"/>
			</g>
			<path class="st2" d="M117.4,442.6c0,0,1-3,2.9-4.9"/>
		</g>
		<path class="st3" d="M321.9,356.9c-1.6,2.4-3.7,4.6-6.2,6.7c0,0,0,0,0,0c-20.1,16.7-66.6,24.9-66.6,24.9s-1.6,2.3-3.9,5.7
			c-4.3,6-11.3,15.1-17.1,19.7l0,0c-2.4,1.9-4.6,3.1-6.3,2.8l8.7,32.2l3.9,14c0,0-40.1,17.5-108.6-2.5c0,0-0.8-8.9-0.2-10.9
			c0-0.1,0.1-0.2,0.1-0.3c0.6-1.5,2.7-3.4,2.7-3.4s-0.4-5.7-0.6-11.6c-0.2-4.5-0.2-9.2,0.1-11.2c0.5-3,2.6-10.1,3.7-13.6
			c0.4-1.2,0.6-2,0.6-2l-3.4-31.9l-1-9.2c0,0,0-0.2-0.1-0.5c0-0.1,0-0.1,0-0.2l-0.5-4.9l-17.6,5.4c0,0,0.9,2.1,2.2,5
			c2.3,5.3,5.7,13.4,6.5,16.6c0.1,0.3,0.1,0.5,0.2,0.8c1.6,4.7,7.8,8.9,7.8,8.9l-16.7,19.5l-4.9-3.4c0,0-0.7,0.6-2,1.3
			c-3.2,1.8-10.1,4.3-17.5,0.4c-2.7-1.4-5.5-3.8-8.2-7.3c-13.2-17-18.8-30.9-17-47.2c1.9-16.3,75.2-66.5,89.7-66l21.6,4.8
			c0.5-0.4,1.7-1.4,2.7-1.3c3.9,0.2,4,4.8,4,4.8l48.5,7.9c0,0,5-2.5,5.9-2.5c2.1,0.1,3.1,1.9,3.1,1.9s12.6-7.5,16.6-5.8
			C265.5,309.9,331.7,342,321.9,356.9z"/>
		<g>
			<path class="st4" d="M153.4,436.6c0,0-7.5,9.2-21,11.4c-2.6,0.4-4.8,0.8-6.8,1.2c0.6-1.5,2.7-3.4,2.7-3.4s-0.4-5.7-0.6-11.6
				C133.5,438,143.4,442.3,153.4,436.6z"/>
			<path class="st4" d="M131.7,409.4c0.4-1.2,0.6-2,0.6-2l-3.4-31.9c5.1,7.3,23.3,32.2,35.8,34.9
				C177.8,413.2,142.8,418.1,131.7,409.4z"/>
			<path class="st4" d="M230.5,448.9c-13.7-1.6-33-5-35-12.2c-3-11.2,11.7-17.9,32.5-22.8c-2.4,1.9-4.6,3.1-6.3,2.8L230.5,448.9z"/>
			<path class="st4" d="M315.6,363.6c-20.1,16.7-66.6,24.9-66.6,24.9s-1.6,2.3-3.9,5.7c-3.9-9.2-9.6-28.2-3-51.5
				c0,0,3.6,19.4,18.4,24c0,0-11.4-8.5-7.4-28.9c0,0,3.9,24,29.1,30.6C294.6,371.7,306.6,368.1,315.6,363.6z"/>
			<path class="st4" d="M127.9,365.8l-0.6-5.2l-17.6,5.4c0,0,0.9,2.1,2.2,5c-6.7-0.7-19.5,5.6-21.8-1.3c-2.7-8.2,13.9-5.4,13.9-5.4
				l15.6-9.1c-3-12.6,4.6-22.1,4.6-22.1l1.4,8.8c0.7-16.7,7.2-25.9,7.2-25.9C127.4,329.3,127.5,361.9,127.9,365.8z"/>
			<path class="st4" d="M126.4,397.2l-16.7,19.5l-4.9-3.4c0,0-0.7,0.6-2,1.3c-3.2,1.8-10.1,4.3-17.5,0.4
				c5.4-7.5,16.6-18.5,29.9-22.7c0,0-5.5,8-8.9,15.2l3.4,3.4C109.8,410.7,118.3,400.9,126.4,397.2z"/>
			<path class="st4" d="M167,311.3c0,1.7-1.1,21.2,13.1,26.4c14.2,5.2,26.8-3.6,26.8-3.6s-21.8,21-35,9.8
				C158.6,332.7,167,311.3,167,311.3z"/>
		</g>
		<path class="st2" d="M125.8,460.3c0,0-0.8-8.9-0.2-10.8c0.5-1.6,2.8-3.7,2.8-3.7s-1.2-18.1-0.4-22.8c0.7-4,4.4-15.6,4.4-15.6
			l-5-46.8l-17.6,5.4c0,0,7.5,16.6,8.7,21.5c1.2,4.9,8.1,9.7,8.1,9.7l-16.7,19.5l-4.9-3.4c0,0-14.6,11.4-27.7-5.6
			c-13.2-17-18.8-30.9-17-47.2c1.8-16.3,75.2-66.5,89.7-66l21.6,4.8c0.5-0.4,1.7-1.4,2.7-1.3c3.9,0.2,4,4.8,4,4.8l48.5,7.9
			c0,0,5-2.5,5.9-2.5c2.1,0.1,3.1,1.9,3.1,1.9s12.6-7.5,16.6-5.8c13.3,5.7,79.4,37.9,69.6,52.8c-13.9,21.2-72.8,31.6-72.8,31.6
			s-19.6,29.5-27.3,28.1l12.6,46.2"/>
		<path class="st5" d="M270.6,360.2c22.2,14.7,40.2,12,54.2-6.9c0,0,11.7-15.1,10.9-31.3c-0.8-16.3-4.7-69.3-55.4-55.7
			c-8.3,2.2-27.8,28.3-29.4,35.4c-0.7,3.3-8.6,19.9-16.1,37.2"/>
		<path class="st6" d="M210.4,204.5c0,0,14.2-2.2,24,6.7c12.5,11.1,26.4,41.2,6.5,91c0,0-29.4-19.5-79.6-6.5c0,0,4.3-11.7-3.3-48.4
			C154.7,230.6,163.3,192.2,210.4,204.5z"/>
		<g>
			<path class="st7" d="M188.9,329.4c21,3.4,43.3-19.8,43.3-19.8s-11.4-1.4-12.4-6.8c-3.3-16.9,9.9-37.8,9.9-37.8s-50.9,1.4-42,12.9
				c1.9,2.4,3.2,4.7,4,6.9c3.1,7.6,0.9,13.3-0.7,14.7c-0.1,0.1-0.3,0.2-0.4,0.2c-3.1,1.4-15.7-0.7-15.7-0.7S169.8,326.3,188.9,329.4
				z"/>
			<path class="st2" d="M225,316c0,0-9.7,3.9-23.8,2.7l-6.4,3.1"/>
			<path class="st2" d="M188.4,321.3l-0.5-4.2c0,0-10.4-3.3-13.7-9.5"/>
			<path class="st6" d="M191,299.6c15.6,4.1,22.9-15.9,22.9-15.9s-12.5-3.7-22.2,1.2C194.8,292.5,192.6,298.2,191,299.6z"/>
		</g>
		<g>
			<path class="st7" d="M230.6,254.5c3.8-21.3-0.4-46.9-32.8-44.7c-23.2,1.5-23,26.9-21.4,34.5c2.6,12.7-1.1,17.8,2.9,28.5
				c2.9,7.7,9.5,16.3,17.3,19.5c4.8,2,24.2-11.7,25.7-17.9"/>
			<path class="st2" d="M189.8,248.3c-0.2,2.4-0.5,8.3-5.5,12.7c-3.3,2.8,4.2,5.7,4.2,5.7"/>
			<path class="st2" d="M184.5,239.8c0,0-7.2-3.5-12,2.3"/>
			<path class="st2" d="M196.5,239.4c0,0,6.9-2.5,15.3,0.6"/>
			<path class="st6" d="M203.9,249.4c0.2,2.1,1.6,3.6,3.1,3.4c1.5-0.2,2.5-2,2.3-4c-0.2-2.1-1.6-3.6-3.1-3.4
				C204.7,245.6,203.7,247.4,203.9,249.4z"/>
			<path class="st2" d="M188.9,273.4c9-1.1,16-5.8,16-5.8s0.7,8.9-6.8,10.8c-5.7,1.4-8-5.1-8-5.1"/>
			<path class="st6" d="M209.9,217.9c0,0-2.1,25.2,20.2,34.4l10.4-24.3l-15.8-17.5l-23.8-6.9c-35.5,2.2-50.9,24.3-31.1,83.2
				C169.9,286.9,164.4,216.8,209.9,217.9z"/>
			<path class="st7" d="M225.3,253.4c-0.3-2.8,6.9-10.1,9.3-5.4c4.1,7.9,1.1,14.8-3.2,17.5c-1.9,1.2-4.3,3.5-6.1,1.3"/>
			<path class="st6" d="M182.2,250.4c0.2,2.1,1.6,3.6,3.1,3.4c1.5-0.2,2.5-2,2.3-4c-0.2-2.1-1.6-3.6-3.1-3.4
				C183,246.5,182,248.3,182.2,250.4z"/>
			<g class="st4">
				<path class="st8" d="M166.7,246.2c-0.3,1.7-0.4,3.4-0.6,5.2"/>
				<path class="st8" d="M206.2,213.3c-18-0.5-34.7,11-38.7,29"/>
				<path class="st8" d="M203,208.2c0,0-26-6.1-35.7,11.1"/>
				<path class="st8" d="M224.1,238.2c1.6,2.2,3.4,4.2,5.6,5.9"/>
				<path class="st8" d="M213.8,211.5c1.4,8.1,4.1,16.4,8.2,23.5"/>
				<path class="st8" d="M239.9,289.7c-0.5,2.1-1,4.1-1.6,6.1"/>
				<path class="st8" d="M238.4,255.3c4.2,9.4,3.9,21,2.2,30.8"/>
				<path class="st8" d="M235.3,271.6c0,0,1.3,10.4-7.3,19.2"/>
				<path class="st8" d="M223.3,214.6c4.4,6,7.7,12.4,12.8,17.8c5.4,5.7,10.8,12.3,11.8,20.4"/>
				<path class="st8" d="M217.1,208.3c1.3,0.8,2.4,1.8,3.5,2.9"/>
			</g>
		</g>
		<path class="st9" d="M305.9,346.9c-0.5,0.1-1,0.2-1.6,0.3c-13.9,2-29.6-9.6-34.8-23.4c-4.2-11-0.5-23.4,1.5-28.7
			c0.6-1.7,1.1-2.6,1.1-2.6c8.4-12,57.3,11.5,57.8,24.4C330.5,329.8,320.3,343.8,305.9,346.9z"/>
		<g>
			<defs>
				<path id="XMLID_3_" d="M321.2,318.6c0,0-2.8,20.6-16.9,28.6c-13.9,2-29.6-9.6-34.8-23.4c-4.2-11-0.5-23.4,1.5-28.7c0,0,0,0,0,0
					C287.5,285.7,321.2,318.6,321.2,318.6z"/>
			</defs>
			<use xlink:href="#XMLID_3_"  style="overflow:visible;fill:#FFFFFF;"/>
			<clipPath id="XMLID_5_">
				<use xlink:href="#XMLID_3_"  style="overflow:visible;"/>
			</clipPath>
			<path class="st10" d="M321.2,318.6c0,0-2.8,20.6-16.9,28.6c-13.9,2-29.6-9.6-34.8-23.4c-4.2-11-0.5-23.4,1.5-28.7c0,0,0,0,0,0
				C287.5,285.7,321.2,318.6,321.2,318.6z"/>
			
				<use xlink:href="#XMLID_3_"  style="overflow:visible;fill:none;stroke:#1A2E35;stroke-width:0.9844;stroke-linecap:round;stroke-linejoin:round;stroke-miterlimit:10;"/>
		</g>
		<path class="st2" d="M263.6,329.4c0,0,15.9,22.8,34.4,24.7c18.5,1.9,30.4-13.7,31.2-25.5"/>
		<path class="st7" d="M254.7,226.6c1.4-3.9,11.4-2.6,14.6,9.6c3.2,12.2,15.7,41.7,15.7,41.7s49.7-73.2,58.7-76
			c8.9-2.8,5.4,9.9-6.5,27.5c0,0,11.2-2,14.1,0c2.9,2,1.5,13.8,3.1,17.9c2.6,6.9-3.2,8.4-3.2,8.4s4.6,0,7.8,3
			c3.2,3,1.6,15.4,2.5,18.9c0.9,3.5-5.2,6.5-5.2,6.5s14.7,8,11.4,10c-5.6,3.4-8.8-0.1-8.8-0.1s-22.5,28.3-39.5,34.6
			c-17,6.3-50.1-18.7-53.6-32.4c-3.6-13.6,0.7-12.8-2-35.5C260.8,238,254.7,226.6,254.7,226.6z"/>
		<path class="st2" d="M249,388.5c0,0-11.2-26-5.5-57.6"/>
		<path class="st2" d="M221.7,416.7c0,0-22.6,6.9-24.9,12.1c-2.3,5.2,10.1,0.8,10.1,0.8"/>
		<path class="st2" d="M235.7,309.9c0,0-20.8,20.6-34.8,26.2"/>
		<path class="st2" d="M167.4,304.4c0,0-3.8,27.9,10.4,33.1"/>
		<path class="st2" d="M127.3,360.6c0,0-0.1-36.5,7.1-47.8"/>
		<path class="st2" d="M124.6,323.4c0,0-2,22.7,2.5,30.1"/>
		<path class="st2" d="M109.7,366c0,0-15.8-5.5-19.1,1.3c-3.3,6.8,9.4,0.8,9.4,0.8"/>
		<path class="st2" d="M119.2,389.7c0,0-15.6,8.8-16.4,13.8"/>
		<path class="st2" d="M144.6,365.5c0,0,29.8,45,46.2,40.9"/>
		<path class="st2" d="M165,428.6c0,0-23.4,17.1-26.7,15.7"/>
		<path class="st4" d="M328.5,355.6c1.6-1.3,2.6-2.1,3-2.4C331.1,353.5,330.1,354.4,328.5,355.6z"/>
	</g>
	<g>
		<path class="st7" d="M327.2,181.7l-65.5,17.1c-2.3,0.6-3.7,3-3.1,5.3L292.1,332c0.6,2.3,3,3.7,5.3,3.1l65.5-17.1
			c2.3-0.6,3.7-3,3.1-5.3l-33.5-127.9C331.9,182.5,329.6,181.1,327.2,181.7z"/>
		<g>
			<path class="st11" d="M289.7,195.3c0.1,0.6-0.2,1.2-0.8,1.3c-0.6,0.1-1.2-0.2-1.3-0.8c-0.1-0.6,0.2-1.2,0.8-1.3
				C289,194.4,289.5,194.7,289.7,195.3z"/>
			<path class="st11" d="M303.2,191.8c0.1,0.4-0.1,0.7-0.5,0.8c-0.4,0.1-0.7-0.1-0.8-0.5c-0.1-0.4,0.1-0.7,0.5-0.8
				C302.7,191.2,303.1,191.4,303.2,191.8z"/>
			<path class="st11" d="M299.7,193.1l-7.9,2c-0.2,0-0.3-0.1-0.4-0.2l0-0.1c0-0.2,0.1-0.3,0.2-0.4l7.9-2c0.2,0,0.3,0.1,0.4,0.2
				l0,0.1C299.9,192.9,299.8,193,299.7,193.1z"/>
		</g>
		<path class="st12" d="M330.6,186l33.3,126.9c0.4,1.4-0.5,2.8-1.8,3.1l-64.7,16.9c-1.4,0.4-2.8-0.5-3.1-1.8l-33.3-126.9
			c-0.4-1.4,0.5-2.8,1.8-3.1l13.3-3.5c0.9-0.2,1.8,0.1,2.3,0.9l1,1.4c0.5,0.7,1.4,1.1,2.3,0.9l29.2-7.6c0.9-0.2,1.5-1,1.6-1.9
			l0.2-1.7c0.1-0.9,0.7-1.6,1.6-1.9l13.3-3.5C328.8,183.8,330.2,184.6,330.6,186z"/>
		<g>
			<g>
				<path class="st13" d="M307.7,257l1.8-3.2l-1.8,0.5l-1.9,3.5l-0.7-2.9l-1.4,0.4l1.7,6.4l1.4-0.4l-0.5-1.8l0.6-1.1l2.6,2.3
					l1.7-0.4L307.7,257z"/>
				<path class="st13" d="M312.8,258.2c0.4,0.2,0.8,0.2,1.3,0.1c0.3-0.1,0.7-0.3,0.9-0.4c0.2-0.2,0.5-0.4,0.6-0.8l1,0.5
					c-0.1,0.4-0.5,0.8-0.8,1.1c-0.4,0.3-0.8,0.5-1.4,0.7c-0.5,0.1-0.9,0.1-1.3,0.1c-0.4-0.1-0.8-0.2-1.2-0.4c-0.4-0.2-0.7-0.5-1-0.9
					c-0.3-0.4-0.5-0.8-0.6-1.3c-0.1-0.5-0.1-0.9-0.1-1.4c0.1-0.4,0.2-0.9,0.4-1.2c0.2-0.4,0.5-0.7,0.8-1c0.3-0.3,0.7-0.5,1.2-0.6
					c0.5-0.1,1-0.2,1.4-0.1c0.4,0.1,0.8,0.2,1.1,0.5s0.6,0.6,0.9,1c0.2,0.4,0.4,0.8,0.5,1.2c0,0.1,0,0.1,0,0.2c0,0.1,0,0.1,0,0.2
					l-4.7,1.2C312.1,257.6,312.4,258,312.8,258.2z M314.8,255.3c-0.1-0.2-0.2-0.4-0.3-0.6c-0.1-0.2-0.3-0.3-0.4-0.5
					c-0.2-0.1-0.4-0.2-0.6-0.2c-0.2,0-0.4,0-0.7,0.1c-0.5,0.1-0.8,0.4-1,0.7s-0.3,0.8-0.2,1.4L314.8,255.3L314.8,255.3z"/>
				<path class="st13" d="M319.5,258l-1.4,0.4l-1.6-6.3l1.4-0.4l0.4,1.4c0.1-0.5,0.3-1,0.5-1.4c0.3-0.4,0.7-0.6,1.3-0.7l0.4,1.5
					l-0.1,0c-0.3,0.1-0.6,0.2-0.8,0.4c-0.2,0.2-0.4,0.4-0.6,0.6s-0.2,0.5-0.3,0.9c0,0.3,0,0.7,0.1,1.1L319.5,258L319.5,258z"/>
				<path class="st13" d="M320.9,250.9l1.2,4.5c0.1,0.2,0,0.4-0.1,0.5c-0.1,0.1-0.3,0.2-0.5,0.2c-0.1,0-0.3,0.1-0.4,0.1l0.3,1.3
					c0.1,0,0.2,0,0.4-0.1s0.2-0.1,0.4-0.1c0.6-0.2,1-0.4,1.3-0.7s0.3-0.7,0.2-1.2l-1.3-4.9L320.9,250.9z"/>
				<path class="st13" d="M330.9,253c-0.1,0.4-0.2,0.9-0.5,1.2c-0.2,0.3-0.5,0.7-0.9,1c-0.4,0.3-0.8,0.5-1.3,0.6
					c-0.5,0.1-0.9,0.2-1.4,0.1c-0.5,0-0.9-0.2-1.3-0.4c-0.4-0.2-0.7-0.5-1-0.9c-0.3-0.3-0.5-0.8-0.6-1.2c-0.1-0.4-0.1-0.9-0.1-1.4
					c0-0.5,0.2-0.9,0.4-1.3s0.5-0.7,0.9-1c0.4-0.3,0.8-0.5,1.3-0.6c0.5-0.1,1-0.2,1.4-0.1c0.5,0.1,0.9,0.2,1.3,0.4
					c0.4,0.2,0.7,0.5,1,0.9c0.3,0.3,0.5,0.8,0.6,1.2C330.9,252.2,331,252.6,330.9,253z M329,251.3c-0.1-0.2-0.3-0.4-0.5-0.6
					c-0.2-0.2-0.5-0.2-0.7-0.3c-0.3-0.1-0.5,0-0.8,0c-0.3,0.1-0.5,0.2-0.7,0.3s-0.4,0.4-0.5,0.6c-0.1,0.2-0.2,0.5-0.2,0.7
					c0,0.2,0,0.5,0.1,0.8c0.1,0.3,0.2,0.5,0.4,0.8c0.1,0.2,0.3,0.4,0.5,0.6c0.2,0.2,0.5,0.2,0.7,0.3c0.3,0.1,0.5,0,0.8,0
					c0.3-0.1,0.6-0.2,0.8-0.4c0.2-0.2,0.4-0.4,0.5-0.6c0.1-0.2,0.2-0.5,0.2-0.7c0-0.2,0-0.5-0.1-0.8
					C329.3,251.8,329.2,251.5,329,251.3z"/>
				<path class="st13" d="M338.2,251.1c-0.1,0.4-0.2,0.9-0.5,1.2c-0.2,0.3-0.5,0.7-0.9,1c-0.4,0.3-0.8,0.5-1.3,0.6
					c-0.5,0.1-0.9,0.2-1.4,0.1c-0.5,0-0.9-0.2-1.3-0.4c-0.4-0.2-0.7-0.5-1-0.9c-0.3-0.3-0.5-0.8-0.6-1.2s-0.1-0.9-0.1-1.4
					c0-0.5,0.2-0.9,0.4-1.3s0.5-0.7,0.9-1c0.4-0.3,0.8-0.5,1.3-0.6c0.5-0.1,1-0.2,1.4-0.1c0.5,0.1,0.9,0.2,1.3,0.4
					c0.4,0.2,0.7,0.5,1,0.9c0.3,0.3,0.5,0.8,0.6,1.2C338.2,250.3,338.3,250.7,338.2,251.1z M336.3,249.5c-0.1-0.2-0.3-0.4-0.5-0.6
					c-0.2-0.2-0.5-0.2-0.7-0.3c-0.3-0.1-0.5,0-0.8,0s-0.5,0.2-0.7,0.3c-0.2,0.2-0.4,0.4-0.5,0.6c-0.1,0.2-0.2,0.5-0.2,0.7
					c0,0.2,0,0.5,0.1,0.8c0.1,0.3,0.2,0.5,0.4,0.8c0.1,0.2,0.3,0.4,0.5,0.6c0.2,0.2,0.5,0.2,0.7,0.3c0.3,0.1,0.5,0,0.8,0
					c0.3-0.1,0.6-0.2,0.8-0.4c0.2-0.2,0.4-0.4,0.5-0.6c0.1-0.2,0.2-0.5,0.2-0.7c0-0.2,0-0.5-0.1-0.8
					C336.6,249.9,336.4,249.7,336.3,249.5z"/>
			</g>
			<g>
				<path class="st14" d="M296.6,253.9c-0.5,0.1-0.8,0.3-1.2,0.7l0,0l0,0l-0.2,0.2l0,0l-1.3,1.5l-0.1,0.1c-0.6-0.9-1.6-1.3-2.7-1.1
					c-1.3,0.3-2.1,1.7-1.8,3l1,3.7c0.3,1.3,1.7,2.1,3,1.8c0.4-0.1,0.8-0.3,1.1-0.6l0.3-0.4l0.7-0.8l3.4-3.9l0.4-0.5
					c0.4-0.6,0.5-1.3,0.3-2C299.3,254.4,297.9,253.6,296.6,253.9z"/>
				<path class="st14" d="M299.7,266.3c-0.5,0.1-0.9,0.1-1.3,0l0,0l0,0l-0.2-0.1l0,0l-1.9-0.7l-0.1,0c-0.1,1-0.8,2-1.9,2.2
					c-1.3,0.3-2.7-0.4-3-1.8l-1-3.7c-0.3-1.3,0.4-2.7,1.8-3c0.4-0.1,0.8-0.1,1.2,0l0.5,0.2l1,0.4l4.9,1.8l0.6,0.2l0,0
					c0.6,0.3,1.1,0.9,1.3,1.6C301.9,264.6,301.1,266,299.7,266.3z"/>
				<path class="st15" d="M296,264.8c0.3,1.3-0.5,2.6-1.8,3c-0.1,0-0.2,0-0.3,0.1c-1.2,0.2-2.4-0.6-2.7-1.8l-2-7.7
					c-0.3-1.2,0.4-2.5,1.5-2.9c0.1,0,0.2,0,0.2,0c1.3-0.3,2.6,0.5,3,1.8C294,257.2,296,264.7,296,264.8z"/>
				<circle class="st14" cx="287.1" cy="263" r="2.6"/>
			</g>
			<line class="st16" x1="299.5" y1="254.7" x2="299.5" y2="254.7"/>
		</g>
	</g>
</g>
<g>
	<path class="st17" d="M328,378.8l-33.5,46.4l0.1,0.1c-9.4,12.4-14,28.4-11.3,45c5.2,32,35.3,53.8,67.3,48.6
		c32-5.2,53.8-35.3,48.6-67.3c-2.7-16.6-12-30.4-24.9-39.1l0.1-0.1L328,378.8z"/>
	<path class="st18" d="M250.1,403.3l-69,4.8l0,0.1c-18.8,0.8-37.2,9-50.5,24.3c-25.7,29.5-22.6,74.3,6.9,100.1
		c29.5,25.7,74.3,22.6,100.1-6.9c13.3-15.3,18.9-34.6,17.1-53.3l0.1,0L250.1,403.3z"/>
	<path class="st19" d="M164.8,228l-40.6-45.3l-0.1,0.1c-10.7-12.6-26.4-20.9-44.1-21.9c-34.4-1.9-63.8,24.5-65.7,59
		c-1.9,34.4,24.5,63.8,59,65.7c17.8,1,34.2-5.7,46.2-17l0.1,0.1L164.8,228z"/>
	<path class="st20" d="M322.9,158.6l50.5-39.7l-0.1-0.1c14-10.4,23.9-26.3,26.1-45c4.4-36.1-21.4-69-57.6-73.3
		c-36.1-4.4-69,21.4-73.3,57.6c-2.3,18.7,3.6,36.5,14.7,49.9l-0.1,0.1L322.9,158.6z"/>
	<path class="st21" d="M236.7,169.9l5.7-76.1l-0.1,0c2.1-20.6-3.9-42-18.5-59C195.5,2,146.1-1.7,113.3,26.5
		c-32.8,28.2-36.5,77.6-8.3,110.4c14.6,17,34.9,26.1,55.6,27.1l0,0.1L236.7,169.9z"/>
</g>
<path class="st13" d="M314.9,41.2c0.2-0.1,0.3-0.2,0.5-0.2c0.2,0,0.5,0.1,0.6,0.2s0.3,0.4,0.3,0.6c0,0.1,0,0.2-0.1,0.4l-3.4,9.3
	c-0.1,0.2-0.2,0.4-0.4,0.5s-0.4,0.2-0.6,0.2s-0.4-0.1-0.6-0.2c-0.2-0.1-0.3-0.3-0.4-0.5l-2.6-7.3l-2.6,7.3c-0.1,0.2-0.2,0.4-0.4,0.5
	s-0.4,0.2-0.6,0.2s-0.4-0.1-0.6-0.2s-0.3-0.3-0.4-0.5l-3.4-9.3c-0.1-0.2-0.1-0.3-0.1-0.4c0-0.3,0.1-0.5,0.3-0.6s0.4-0.2,0.7-0.2
	c0.2,0,0.4,0.1,0.6,0.2s0.3,0.3,0.4,0.5l2.7,7.6l2.7-7.6c0.1-0.2,0.2-0.4,0.4-0.5c0.2-0.1,0.3-0.2,0.5-0.2s0.4,0.1,0.6,0.2
	s0.3,0.3,0.4,0.5l2.7,7.7l2.7-7.7C314.7,41.5,314.8,41.3,314.9,41.2z M313.2,445c-0.2-0.2-0.2-0.4-0.2-0.7v-8.9
	c0-0.3,0.1-0.5,0.3-0.7c0.2-0.2,0.4-0.3,0.7-0.3c0.3,0,0.5,0.1,0.7,0.3c0.2,0.2,0.3,0.4,0.3,0.7v8.2h4.2c0.6,0,0.9,0.3,0.9,0.8
	s-0.3,0.8-0.9,0.8h-5.3C313.6,445.2,313.4,445.1,313.2,445z M327.4,443.4c0.1,0.1,0.2,0.3,0.2,0.5c0,0.3-0.2,0.6-0.6,0.8
	c-0.3,0.2-0.7,0.3-1.2,0.5c-0.4,0.1-0.8,0.2-1.2,0.2c-1.2,0-2.1-0.3-2.8-1c-0.7-0.7-1-1.6-1-2.8c0-0.8,0.2-1.4,0.5-2
	c0.3-0.6,0.7-1,1.3-1.4c0.5-0.3,1.2-0.5,1.9-0.5c0.7,0,1.2,0.1,1.7,0.4c0.5,0.3,0.9,0.7,1.1,1.2c0.3,0.5,0.4,1.2,0.4,1.9
	c0,0.4-0.2,0.7-0.6,0.7h-4.5c0.1,0.7,0.3,1.2,0.6,1.5c0.3,0.3,0.8,0.5,1.5,0.5c0.3,0,0.6,0,0.9-0.1c0.2-0.1,0.5-0.2,0.8-0.3
	c0.3-0.2,0.5-0.2,0.7-0.2C327.2,443.2,327.3,443.2,327.4,443.4z M323.2,439.4c-0.3,0.3-0.5,0.8-0.6,1.4h3.4c0-0.6-0.2-1.1-0.5-1.4
	s-0.7-0.5-1.2-0.5C323.9,439,323.5,439.1,323.2,439.4z M334.7,438.4c0.5,0.5,0.7,1.3,0.7,2.3v3.7c0,0.3-0.1,0.5-0.2,0.6
	s-0.4,0.2-0.7,0.2c-0.3,0-0.5-0.1-0.6-0.2c-0.2-0.2-0.2-0.4-0.2-0.6v-0.3c-0.2,0.4-0.4,0.7-0.8,0.9c-0.4,0.2-0.8,0.3-1.3,0.3
	c-0.5,0-0.9-0.1-1.3-0.3c-0.4-0.2-0.7-0.5-1-0.8c-0.2-0.4-0.3-0.7-0.3-1.2c0-0.5,0.1-1,0.4-1.3s0.7-0.5,1.4-0.7
	c0.6-0.1,1.5-0.2,2.6-0.2h0.4v-0.3c0-0.5-0.1-0.9-0.3-1.1s-0.6-0.3-1-0.3c-0.3,0-0.6,0-0.9,0.1c-0.3,0.1-0.7,0.2-1.1,0.4
	c-0.3,0.1-0.5,0.2-0.6,0.2c-0.2,0-0.3-0.1-0.4-0.2c-0.1-0.1-0.2-0.3-0.2-0.5c0-0.2,0-0.3,0.1-0.4c0.1-0.1,0.2-0.2,0.4-0.4
	c0.4-0.2,0.8-0.3,1.3-0.5c0.5-0.1,1-0.2,1.4-0.2C333.4,437.6,334.2,437.9,334.7,438.4z M333.2,443.5c0.3-0.3,0.5-0.8,0.5-1.3v-0.3
	h-0.3c-0.7,0-1.2,0-1.6,0.1s-0.6,0.2-0.8,0.3s-0.2,0.4-0.2,0.6c0,0.3,0.1,0.6,0.3,0.8c0.2,0.2,0.5,0.3,0.8,0.3
	C332.4,444,332.8,443.8,333.2,443.5z M342.8,437.8c0.1-0.1,0.3-0.1,0.4-0.1c0.2,0,0.4,0.1,0.6,0.2c0.2,0.2,0.3,0.4,0.3,0.6
	c0,0.1,0,0.2-0.1,0.4l-2.8,5.8c-0.1,0.2-0.2,0.3-0.4,0.4s-0.4,0.2-0.6,0.2c-0.2,0-0.4,0-0.6-0.2c-0.2-0.1-0.3-0.2-0.4-0.4l-2.8-5.8
	c-0.1-0.1-0.1-0.2-0.1-0.3c0-0.2,0.1-0.4,0.3-0.6c0.2-0.2,0.4-0.2,0.7-0.2c0.4,0,0.6,0.2,0.8,0.5l2.1,4.7l2.1-4.7
	C342.6,438,342.7,437.9,342.8,437.8z M351.4,443.4c0.1,0.1,0.2,0.3,0.2,0.5c0,0.3-0.2,0.6-0.6,0.8c-0.3,0.2-0.7,0.3-1.2,0.5
	c-0.4,0.1-0.8,0.2-1.2,0.2c-1.2,0-2.1-0.3-2.8-1c-0.7-0.7-1-1.6-1-2.8c0-0.8,0.2-1.4,0.5-2c0.3-0.6,0.7-1,1.3-1.4
	c0.5-0.3,1.2-0.5,1.9-0.5c0.7,0,1.2,0.1,1.7,0.4c0.5,0.3,0.9,0.7,1.1,1.2c0.3,0.5,0.4,1.2,0.4,1.9c0,0.4-0.2,0.7-0.6,0.7h-4.5
	c0.1,0.7,0.3,1.2,0.6,1.5c0.3,0.3,0.8,0.5,1.5,0.5c0.3,0,0.6,0,0.9-0.1c0.2-0.1,0.5-0.2,0.8-0.3c0.3-0.2,0.5-0.2,0.7-0.2
	C351.2,443.2,351.3,443.2,351.4,443.4z M347.2,439.4c-0.3,0.3-0.5,0.8-0.6,1.4h3.4c0-0.6-0.2-1.1-0.5-1.4s-0.7-0.5-1.2-0.5
	C347.9,439,347.5,439.1,347.2,439.4z M357.4,441.7c-0.1-0.1-0.2-0.3-0.2-0.5c0-0.2,0.1-0.4,0.2-0.6c0.1-0.1,0.4-0.2,0.7-0.2h3.1
	c0.3,0,0.5,0.1,0.7,0.2c0.1,0.1,0.2,0.3,0.2,0.6c0,0.2-0.1,0.4-0.2,0.5c-0.1,0.1-0.4,0.2-0.7,0.2H358
	C357.7,441.9,357.5,441.8,357.4,441.7z M315.8,463.1c-0.2-0.2-0.3-0.4-0.3-0.7v-8.2h-2.8c-0.6,0-0.9-0.3-0.9-0.8
	c0-0.5,0.3-0.8,0.9-0.8h7.5c0.6,0,0.9,0.3,0.9,0.8c0,0.5-0.3,0.8-0.9,0.8h-2.8v8.2c0,0.3-0.1,0.5-0.3,0.7c-0.2,0.2-0.4,0.3-0.7,0.3
	C316.2,463.4,315.9,463.3,315.8,463.1z M322.2,454.2c-0.2-0.2-0.3-0.4-0.3-0.7c0-0.3,0.1-0.5,0.3-0.7c0.2-0.2,0.5-0.3,0.8-0.3
	c0.3,0,0.6,0.1,0.8,0.3c0.2,0.2,0.3,0.4,0.3,0.7c0,0.3-0.1,0.5-0.3,0.7c-0.2,0.2-0.5,0.3-0.8,0.3S322.4,454.4,322.2,454.2z
	 M322.4,463.2c-0.2-0.2-0.3-0.4-0.3-0.7v-5.8c0-0.3,0.1-0.5,0.3-0.7c0.2-0.2,0.4-0.2,0.7-0.2c0.3,0,0.5,0.1,0.7,0.2
	c0.2,0.2,0.3,0.4,0.3,0.7v5.8c0,0.3-0.1,0.5-0.3,0.7c-0.2,0.2-0.4,0.2-0.7,0.2C322.8,463.4,322.5,463.3,322.4,463.2z M336.6,456.5
	c0.4,0.5,0.6,1.3,0.6,2.3v3.7c0,0.3-0.1,0.5-0.3,0.7c-0.2,0.2-0.4,0.2-0.7,0.2c-0.3,0-0.5-0.1-0.7-0.2c-0.2-0.2-0.3-0.4-0.3-0.7
	v-3.7c0-0.6-0.1-0.9-0.3-1.2c-0.2-0.2-0.5-0.4-0.9-0.4c-0.5,0-0.9,0.2-1.2,0.5c-0.3,0.3-0.4,0.8-0.4,1.4v3.4c0,0.3-0.1,0.5-0.3,0.7
	c-0.2,0.2-0.4,0.2-0.7,0.2c-0.3,0-0.5-0.1-0.7-0.2s-0.3-0.4-0.3-0.7v-3.7c0-0.6-0.1-0.9-0.3-1.2c-0.2-0.2-0.5-0.4-0.9-0.4
	c-0.5,0-0.9,0.2-1.2,0.5s-0.4,0.8-0.4,1.4v3.4c0,0.3-0.1,0.5-0.3,0.7c-0.2,0.2-0.4,0.2-0.7,0.2c-0.3,0-0.5-0.1-0.7-0.2
	c-0.2-0.2-0.3-0.4-0.3-0.7v-5.8c0-0.3,0.1-0.5,0.3-0.6c0.2-0.2,0.4-0.2,0.7-0.2c0.3,0,0.5,0.1,0.6,0.2c0.2,0.1,0.2,0.4,0.2,0.6v0.4
	c0.2-0.4,0.5-0.7,0.9-0.9c0.4-0.2,0.8-0.3,1.3-0.3c1.1,0,1.8,0.5,2.2,1.4c0.2-0.4,0.5-0.8,1-1c0.4-0.3,0.9-0.4,1.5-0.4
	C335.5,455.8,336.1,456,336.6,456.5z M345.4,461.5c0.1,0.1,0.2,0.3,0.2,0.5c0,0.3-0.2,0.6-0.6,0.8c-0.3,0.2-0.7,0.3-1.2,0.5
	c-0.4,0.1-0.8,0.2-1.2,0.2c-1.2,0-2.1-0.3-2.8-1c-0.7-0.7-1-1.6-1-2.8c0-0.8,0.2-1.4,0.5-2c0.3-0.6,0.7-1,1.3-1.4
	c0.5-0.3,1.2-0.5,1.9-0.5c0.7,0,1.2,0.1,1.7,0.4c0.5,0.3,0.9,0.7,1.1,1.2c0.3,0.5,0.4,1.2,0.4,1.9c0,0.4-0.2,0.7-0.6,0.7h-4.5
	c0.1,0.7,0.3,1.2,0.6,1.5c0.3,0.3,0.8,0.5,1.5,0.5c0.3,0,0.6,0,0.9-0.1c0.2-0.1,0.5-0.2,0.8-0.3c0.3-0.2,0.5-0.2,0.7-0.2
	C345.1,461.3,345.3,461.4,345.4,461.5z M341.1,457.6c-0.3,0.3-0.5,0.8-0.6,1.4h3.4c0-0.6-0.2-1.1-0.5-1.4s-0.7-0.5-1.2-0.5
	C341.8,457.1,341.4,457.3,341.1,457.6z M353.5,462.8c-0.8-0.4-1.3-1.1-1.8-1.9s-0.6-1.8-0.6-2.9s0.2-2.1,0.6-2.9
	c0.4-0.8,1-1.5,1.8-1.9s1.7-0.7,2.7-0.7c1,0,1.9,0.2,2.7,0.7s1.3,1.1,1.8,1.9c0.4,0.8,0.6,1.8,0.6,2.9s-0.2,2.1-0.6,2.9
	s-1,1.5-1.8,1.9c-0.8,0.4-1.7,0.7-2.7,0.7C355.1,463.5,354.2,463.2,353.5,462.8z M358.4,460.9c0.5-0.7,0.8-1.6,0.8-2.9
	c0-1.3-0.3-2.2-0.8-2.9s-1.3-1-2.3-1c-1,0-1.8,0.3-2.3,1s-0.8,1.6-0.8,2.9c0,1.3,0.3,2.2,0.8,2.9s1.3,1,2.3,1
	C357.1,461.9,357.9,461.6,358.4,460.9z M365.7,454.5c-0.2,0.3-0.3,0.6-0.3,1.1v0.3h1.3c0.6,0,0.8,0.2,0.8,0.7s-0.3,0.7-0.8,0.7h-1.3
	v5.2c0,0.3-0.1,0.5-0.3,0.7c-0.2,0.2-0.4,0.2-0.7,0.2c-0.3,0-0.5-0.1-0.7-0.2c-0.2-0.2-0.3-0.4-0.3-0.7v-5.2h-0.8
	c-0.6,0-0.8-0.2-0.8-0.7s0.3-0.7,0.8-0.7h0.8v-0.1c0-0.9,0.2-1.7,0.7-2.2c0.5-0.5,1.2-0.8,2.1-0.9l0.4,0c0.4,0,0.7,0,0.9,0.1
	c0.2,0.1,0.2,0.3,0.2,0.5c0,0.4-0.2,0.7-0.7,0.7l-0.4,0C366.3,454.1,365.9,454.3,365.7,454.5z M371,454.5c-0.2,0.3-0.3,0.6-0.3,1.1
	v0.3h1.3c0.6,0,0.8,0.2,0.8,0.7s-0.3,0.7-0.8,0.7h-1.3v5.2c0,0.3-0.1,0.5-0.3,0.7c-0.2,0.2-0.4,0.2-0.7,0.2c-0.3,0-0.5-0.1-0.7-0.2
	c-0.2-0.2-0.3-0.4-0.3-0.7v-5.2H368c-0.6,0-0.8-0.2-0.8-0.7s0.3-0.7,0.8-0.7h0.8v-0.1c0-0.9,0.2-1.7,0.7-2.2
	c0.5-0.5,1.2-0.8,2.1-0.9l0.4,0c0.4,0,0.7,0,0.9,0.1c0.2,0.1,0.2,0.3,0.2,0.5c0,0.4-0.2,0.7-0.7,0.7l-0.4,0
	C371.6,454.1,371.2,454.3,371,454.5z M150.2,457.8c-0.2-0.2-0.3-0.4-0.3-0.8v-9.9c0-0.3,0.1-0.6,0.3-0.8c0.2-0.2,0.4-0.3,0.8-0.3
	h6.1c0.3,0,0.6,0.1,0.8,0.2c0.2,0.1,0.3,0.4,0.3,0.6c0,0.3-0.1,0.5-0.3,0.7c-0.2,0.2-0.4,0.2-0.8,0.2h-5v3.3h4.7
	c0.3,0,0.6,0.1,0.8,0.2c0.2,0.1,0.3,0.4,0.3,0.6c0,0.3-0.1,0.5-0.3,0.6c-0.2,0.1-0.4,0.2-0.8,0.2H152v3.5h5c0.3,0,0.6,0.1,0.8,0.2
	c0.2,0.2,0.3,0.4,0.3,0.7c0,0.3-0.1,0.5-0.3,0.6c-0.2,0.1-0.4,0.2-0.8,0.2h-6.1C150.6,458.1,150.4,458,150.2,457.8z M171.7,450.4
	c0.5,0.5,0.7,1.4,0.7,2.6v4.2c0,0.3-0.1,0.6-0.3,0.8c-0.2,0.2-0.5,0.3-0.8,0.3c-0.3,0-0.6-0.1-0.8-0.3c-0.2-0.2-0.3-0.4-0.3-0.8V453
	c0-0.6-0.1-1.1-0.3-1.3c-0.2-0.3-0.6-0.4-1-0.4c-0.6,0-1,0.2-1.3,0.6c-0.3,0.4-0.5,0.9-0.5,1.6v3.8c0,0.3-0.1,0.6-0.3,0.8
	c-0.2,0.2-0.5,0.3-0.8,0.3c-0.3,0-0.6-0.1-0.8-0.3c-0.2-0.2-0.3-0.4-0.3-0.8V453c0-0.6-0.1-1.1-0.3-1.3s-0.6-0.4-1-0.4
	c-0.6,0-1,0.2-1.3,0.6c-0.3,0.4-0.5,0.9-0.5,1.6v3.8c0,0.3-0.1,0.6-0.3,0.8c-0.2,0.2-0.5,0.3-0.8,0.3c-0.3,0-0.6-0.1-0.8-0.3
	c-0.2-0.2-0.3-0.4-0.3-0.8v-6.6c0-0.3,0.1-0.6,0.3-0.7s0.5-0.3,0.8-0.3c0.3,0,0.5,0.1,0.7,0.2c0.2,0.2,0.3,0.4,0.3,0.7v0.4
	c0.3-0.5,0.6-0.8,1-1c0.4-0.2,0.9-0.4,1.5-0.4c1.2,0,2.1,0.5,2.5,1.6c0.2-0.5,0.6-0.9,1.1-1.1s1-0.4,1.6-0.4
	C170.5,449.6,171.2,449.9,171.7,450.4z M181.2,450.1c0.6,0.4,1,0.9,1.3,1.5c0.3,0.7,0.5,1.4,0.5,2.3s-0.2,1.6-0.5,2.3
	c-0.3,0.6-0.7,1.1-1.3,1.5c-0.6,0.4-1.2,0.5-1.9,0.5c-0.6,0-1.1-0.1-1.6-0.4s-0.8-0.6-1.1-1v3.5c0,0.3-0.1,0.5-0.3,0.7
	s-0.4,0.3-0.8,0.3s-0.6-0.1-0.8-0.3c-0.2-0.2-0.3-0.4-0.3-0.7v-9.6c0-0.3,0.1-0.5,0.3-0.7c0.2-0.2,0.4-0.3,0.8-0.3
	c0.3,0,0.6,0.1,0.8,0.3c0.2,0.2,0.3,0.4,0.3,0.7v0.4c0.2-0.5,0.6-0.8,1.1-1.1s1-0.4,1.6-0.4C180,449.6,180.7,449.8,181.2,450.1z
	 M180.3,455.9c0.4-0.5,0.6-1.1,0.6-1.9c0-0.9-0.2-1.5-0.6-2c-0.4-0.5-0.9-0.7-1.6-0.7c-0.7,0-1.2,0.2-1.6,0.7
	c-0.4,0.5-0.6,1.1-0.6,2c0,0.9,0.2,1.5,0.6,2c0.4,0.5,0.9,0.7,1.6,0.7C179.4,456.6,180,456.4,180.3,455.9z M185.1,457.9
	c-0.2-0.2-0.3-0.4-0.3-0.8V447c0-0.3,0.1-0.6,0.3-0.7s0.5-0.3,0.8-0.3c0.3,0,0.6,0.1,0.8,0.3c0.2,0.2,0.3,0.4,0.3,0.7v10.1
	c0,0.3-0.1,0.6-0.3,0.8c-0.2,0.2-0.5,0.3-0.8,0.3C185.5,458.2,185.3,458.1,185.1,457.9z M190.6,457.7c-0.6-0.4-1.1-0.9-1.5-1.5
	s-0.5-1.4-0.5-2.3s0.2-1.6,0.5-2.3c0.4-0.7,0.8-1.2,1.5-1.5c0.6-0.4,1.4-0.5,2.2-0.5s1.6,0.2,2.2,0.5s1.1,0.9,1.5,1.5
	c0.3,0.7,0.5,1.4,0.5,2.3s-0.2,1.6-0.5,2.3s-0.8,1.2-1.5,1.5c-0.6,0.4-1.4,0.5-2.2,0.5S191.3,458.1,190.6,457.7z M194.4,455.9
	c0.4-0.5,0.5-1.1,0.5-2c0-0.9-0.2-1.5-0.5-2s-0.9-0.7-1.6-0.7s-1.2,0.2-1.6,0.7c-0.4,0.5-0.6,1.1-0.6,2c0,0.9,0.2,1.6,0.5,2
	s0.9,0.7,1.6,0.7C193.6,456.6,194.1,456.4,194.4,455.9z M204.9,449.8c0.2-0.1,0.3-0.1,0.5-0.1c0.3,0,0.5,0.1,0.7,0.3
	c0.2,0.2,0.3,0.4,0.3,0.7c0,0.1,0,0.3-0.1,0.4l-4.6,9.7c-0.2,0.4-0.5,0.6-0.9,0.6c-0.3,0-0.5-0.1-0.7-0.2c-0.2-0.2-0.3-0.4-0.3-0.6
	c0-0.1,0-0.3,0.1-0.4l1.2-2.4l-3.2-6.6c-0.1-0.1-0.1-0.2-0.1-0.4c0-0.3,0.1-0.5,0.3-0.7c0.2-0.2,0.5-0.3,0.8-0.3
	c0.2,0,0.4,0,0.5,0.1c0.2,0.1,0.3,0.2,0.4,0.5l2.4,5.3l2.4-5.2C204.6,450,204.7,449.9,204.9,449.8z M214.6,456
	c0.1,0.1,0.2,0.3,0.2,0.6c0,0.4-0.2,0.6-0.6,0.9c-0.4,0.2-0.8,0.4-1.3,0.5s-1,0.2-1.4,0.2c-1.3,0-2.4-0.4-3.2-1.2
	c-0.8-0.8-1.2-1.8-1.2-3.2c0-0.8,0.2-1.6,0.5-2.3c0.3-0.7,0.8-1.2,1.4-1.5c0.6-0.4,1.3-0.5,2.1-0.5c0.7,0,1.4,0.2,2,0.5
	c0.6,0.3,1,0.8,1.3,1.4c0.3,0.6,0.5,1.3,0.5,2.1c0,0.5-0.2,0.7-0.6,0.7h-5c0.1,0.8,0.3,1.4,0.7,1.7s0.9,0.6,1.6,0.6
	c0.4,0,0.7,0,1-0.1s0.6-0.2,0.9-0.4c0.3-0.2,0.6-0.3,0.7-0.3C214.3,455.8,214.5,455.9,214.6,456z M209.8,451.6
	c-0.3,0.4-0.6,0.9-0.6,1.6h3.8c0-0.7-0.2-1.2-0.5-1.6c-0.3-0.4-0.8-0.5-1.3-0.5C210.6,451.1,210.1,451.3,209.8,451.6z M223.6,456
	c0.1,0.1,0.2,0.3,0.2,0.6c0,0.4-0.2,0.6-0.6,0.9c-0.4,0.2-0.8,0.4-1.3,0.5s-1,0.2-1.4,0.2c-1.3,0-2.4-0.4-3.2-1.2
	c-0.8-0.8-1.2-1.8-1.2-3.2c0-0.8,0.2-1.6,0.5-2.3s0.8-1.2,1.4-1.5c0.6-0.4,1.3-0.5,2.1-0.5c0.7,0,1.4,0.2,2,0.5
	c0.6,0.3,1,0.8,1.3,1.4c0.3,0.6,0.5,1.3,0.5,2.1c0,0.5-0.2,0.7-0.6,0.7h-5c0.1,0.8,0.3,1.4,0.7,1.7s0.9,0.6,1.6,0.6
	c0.4,0,0.7,0,1-0.1c0.3-0.1,0.6-0.2,0.9-0.4c0.3-0.2,0.6-0.3,0.7-0.3C223.3,455.8,223.5,455.9,223.6,456z M218.8,451.6
	c-0.3,0.4-0.6,0.9-0.6,1.6h3.8c0-0.7-0.2-1.2-0.5-1.6c-0.3-0.4-0.8-0.5-1.3-0.5C219.6,451.1,219.2,451.3,218.8,451.6z M150.2,478.2
	c-0.2-0.2-0.3-0.4-0.3-0.8v-9.9c0-0.3,0.1-0.6,0.3-0.8c0.2-0.2,0.4-0.3,0.8-0.3h3.4c2,0,3.5,0.5,4.6,1.6s1.6,2.5,1.6,4.4
	c0,1.9-0.5,3.4-1.6,4.4c-1.1,1-2.6,1.6-4.6,1.6h-3.4C150.6,478.5,150.4,478.4,150.2,478.2z M154.2,476.7c2.8,0,4.1-1.4,4.1-4.2
	c0-2.8-1.4-4.2-4.1-4.2h-2.1v8.4H154.2z M168.7,470.8c0.6,0.6,0.8,1.4,0.8,2.6v4.1c0,0.3-0.1,0.5-0.3,0.7c-0.2,0.2-0.4,0.3-0.7,0.3
	c-0.3,0-0.5-0.1-0.7-0.3s-0.3-0.4-0.3-0.7v-0.4c-0.2,0.4-0.5,0.8-0.9,1c-0.4,0.2-0.9,0.4-1.4,0.4c-0.6,0-1.1-0.1-1.5-0.3
	c-0.5-0.2-0.8-0.5-1.1-0.9s-0.4-0.8-0.4-1.3c0-0.6,0.2-1.1,0.5-1.4c0.3-0.4,0.8-0.6,1.5-0.8c0.7-0.2,1.7-0.2,2.9-0.2h0.4v-0.4
	c0-0.6-0.1-1-0.4-1.2c-0.2-0.3-0.6-0.4-1.2-0.4c-0.3,0-0.7,0-1,0.1c-0.3,0.1-0.7,0.2-1.2,0.4c-0.3,0.1-0.5,0.2-0.6,0.2
	c-0.2,0-0.4-0.1-0.5-0.2s-0.2-0.3-0.2-0.6c0-0.2,0-0.4,0.1-0.5c0.1-0.1,0.3-0.3,0.5-0.4c0.4-0.2,0.9-0.4,1.4-0.5
	c0.5-0.1,1.1-0.2,1.6-0.2C167.3,470,168.1,470.3,168.7,470.8z M167,476.5c0.4-0.4,0.5-0.9,0.5-1.5v-0.4h-0.3c-0.8,0-1.3,0-1.8,0.1
	c-0.4,0.1-0.7,0.2-0.9,0.4s-0.3,0.4-0.3,0.7c0,0.4,0.1,0.7,0.4,0.9c0.3,0.2,0.6,0.3,0.9,0.3C166.2,477.1,166.6,476.9,167,476.5z
	 M176.9,477.8c0,0.3-0.1,0.5-0.3,0.6c-0.2,0.1-0.5,0.2-0.9,0.2l-0.5,0c-1.9-0.1-2.9-1.2-2.9-3.1v-3.7h-0.9c-0.3,0-0.5-0.1-0.7-0.2
	s-0.2-0.3-0.2-0.6s0.1-0.5,0.2-0.6c0.2-0.1,0.4-0.2,0.7-0.2h0.9v-1.6c0-0.3,0.1-0.5,0.3-0.7c0.2-0.2,0.5-0.3,0.8-0.3
	c0.3,0,0.6,0.1,0.8,0.3c0.2,0.2,0.3,0.4,0.3,0.7v1.6h1.4c0.3,0,0.5,0.1,0.7,0.2c0.2,0.1,0.2,0.3,0.2,0.6s-0.1,0.5-0.2,0.6
	c-0.2,0.1-0.4,0.2-0.7,0.2h-1.4v3.9c0,0.8,0.4,1.3,1.2,1.3l0.5,0C176.6,477.1,176.9,477.3,176.9,477.8z M184.2,470.8
	c0.6,0.6,0.8,1.4,0.8,2.6v4.1c0,0.3-0.1,0.5-0.3,0.7c-0.2,0.2-0.4,0.3-0.7,0.3c-0.3,0-0.5-0.1-0.7-0.3s-0.3-0.4-0.3-0.7v-0.4
	c-0.2,0.4-0.5,0.8-0.9,1c-0.4,0.2-0.9,0.4-1.4,0.4c-0.6,0-1.1-0.1-1.5-0.3c-0.5-0.2-0.8-0.5-1.1-0.9s-0.4-0.8-0.4-1.3
	c0-0.6,0.2-1.1,0.5-1.4c0.3-0.4,0.8-0.6,1.5-0.8c0.7-0.2,1.7-0.2,2.9-0.2h0.4v-0.4c0-0.6-0.1-1-0.4-1.2c-0.2-0.3-0.6-0.4-1.2-0.4
	c-0.3,0-0.7,0-1,0.1c-0.3,0.1-0.7,0.2-1.2,0.4c-0.3,0.1-0.5,0.2-0.6,0.2c-0.2,0-0.4-0.1-0.5-0.2s-0.2-0.3-0.2-0.6
	c0-0.2,0-0.4,0.1-0.5c0.1-0.1,0.3-0.3,0.5-0.4c0.4-0.2,0.9-0.4,1.4-0.5c0.5-0.1,1.1-0.2,1.6-0.2C182.7,470,183.6,470.3,184.2,470.8z
	 M182.4,476.5c0.4-0.4,0.5-0.9,0.5-1.5v-0.4h-0.3c-0.8,0-1.3,0-1.8,0.1c-0.4,0.1-0.7,0.2-0.9,0.4s-0.3,0.4-0.3,0.7
	c0,0.4,0.1,0.7,0.4,0.9c0.3,0.2,0.6,0.3,0.9,0.3C181.6,477.1,182.1,476.9,182.4,476.5z M193.9,470.5c0.6,0.4,1,0.9,1.3,1.5
	c0.3,0.6,0.5,1.4,0.5,2.3s-0.2,1.6-0.5,2.3c-0.3,0.7-0.7,1.2-1.3,1.5c-0.6,0.4-1.2,0.5-1.9,0.5c-0.6,0-1.1-0.1-1.6-0.4
	s-0.8-0.6-1.1-1.1v0.4c0,0.3-0.1,0.5-0.3,0.7c-0.2,0.2-0.4,0.3-0.8,0.3c-0.3,0-0.6-0.1-0.8-0.3c-0.2-0.2-0.3-0.4-0.3-0.7v-10.2
	c0-0.3,0.1-0.5,0.3-0.7c0.2-0.2,0.5-0.3,0.8-0.3s0.6,0.1,0.8,0.3s0.3,0.4,0.3,0.7v4c0.2-0.5,0.6-0.8,1.1-1c0.5-0.2,1-0.4,1.6-0.4
	C192.7,470,193.3,470.2,193.9,470.5z M192.9,476.3c0.4-0.5,0.6-1.1,0.6-2c0-0.9-0.2-1.5-0.6-2c-0.4-0.5-0.9-0.7-1.6-0.7
	c-0.7,0-1.2,0.2-1.6,0.7c-0.4,0.5-0.6,1.1-0.6,2c0,0.9,0.2,1.5,0.6,2c0.4,0.5,0.9,0.7,1.6,0.7C192,477,192.6,476.8,192.9,476.3z
	 M203.6,470.8c0.6,0.6,0.8,1.4,0.8,2.6v4.1c0,0.3-0.1,0.5-0.3,0.7c-0.2,0.2-0.4,0.3-0.7,0.3c-0.3,0-0.5-0.1-0.7-0.3
	c-0.2-0.2-0.3-0.4-0.3-0.7v-0.4c-0.2,0.4-0.5,0.8-0.9,1c-0.4,0.2-0.9,0.4-1.4,0.4c-0.6,0-1.1-0.1-1.5-0.3c-0.5-0.2-0.8-0.5-1.1-0.9
	s-0.4-0.8-0.4-1.3c0-0.6,0.2-1.1,0.5-1.4c0.3-0.4,0.8-0.6,1.5-0.8c0.7-0.2,1.7-0.2,2.9-0.2h0.4v-0.4c0-0.6-0.1-1-0.4-1.2
	c-0.2-0.3-0.6-0.4-1.2-0.4c-0.3,0-0.7,0-1,0.1c-0.3,0.1-0.7,0.2-1.2,0.4c-0.3,0.1-0.5,0.2-0.6,0.2c-0.2,0-0.4-0.1-0.5-0.2
	s-0.2-0.3-0.2-0.6c0-0.2,0-0.4,0.1-0.5c0.1-0.1,0.3-0.3,0.5-0.4c0.4-0.2,0.9-0.4,1.4-0.5c0.5-0.1,1.1-0.2,1.6-0.2
	C202.1,470,203,470.3,203.6,470.8z M201.8,476.5c0.4-0.4,0.5-0.9,0.5-1.5v-0.4h-0.3c-0.8,0-1.3,0-1.8,0.1c-0.4,0.1-0.7,0.2-0.9,0.4
	s-0.3,0.4-0.3,0.7c0,0.4,0.1,0.7,0.4,0.9c0.3,0.2,0.6,0.3,0.9,0.3C201,477.1,201.5,476.9,201.8,476.5z M206.6,477.9
	c-0.4-0.2-0.5-0.5-0.5-0.9c0-0.2,0.1-0.4,0.2-0.6s0.3-0.2,0.5-0.2c0.2,0,0.5,0.1,0.8,0.3c0.4,0.2,0.7,0.3,1,0.4
	c0.3,0.1,0.7,0.1,1.1,0.1c0.5,0,0.8-0.1,1.1-0.2c0.3-0.2,0.4-0.4,0.4-0.7c0-0.2-0.1-0.3-0.2-0.5c-0.1-0.1-0.3-0.2-0.6-0.3
	c-0.3-0.1-0.7-0.2-1.3-0.3c-1-0.2-1.7-0.5-2.2-0.9s-0.7-0.9-0.7-1.5c0-0.5,0.1-0.9,0.4-1.4c0.3-0.4,0.7-0.7,1.2-0.9
	c0.5-0.2,1.1-0.3,1.8-0.3c0.5,0,0.9,0.1,1.4,0.2c0.4,0.1,0.8,0.3,1.2,0.5c0.4,0.2,0.5,0.5,0.5,0.9c0,0.2-0.1,0.4-0.2,0.6
	c-0.1,0.2-0.3,0.2-0.5,0.2c-0.1,0-0.2,0-0.4-0.1s-0.3-0.1-0.5-0.2c-0.3-0.2-0.6-0.3-0.9-0.4c-0.2-0.1-0.5-0.1-0.9-0.1
	c-0.4,0-0.8,0.1-1,0.3c-0.2,0.2-0.4,0.4-0.4,0.7c0,0.3,0.1,0.5,0.4,0.6c0.2,0.1,0.7,0.3,1.4,0.4c0.8,0.2,1.4,0.3,1.8,0.5
	s0.7,0.5,0.9,0.8c0.2,0.3,0.3,0.7,0.3,1.2c0,0.8-0.3,1.4-1,1.9c-0.6,0.5-1.5,0.7-2.6,0.7C208.3,478.6,207.3,478.4,206.6,477.9z
	 M221.8,476.4c0.1,0.1,0.2,0.3,0.2,0.6c0,0.4-0.2,0.6-0.6,0.9c-0.4,0.2-0.8,0.4-1.3,0.5c-0.5,0.1-1,0.2-1.4,0.2
	c-1.3,0-2.4-0.4-3.2-1.2c-0.8-0.8-1.2-1.8-1.2-3.2c0-0.9,0.2-1.6,0.5-2.3c0.3-0.7,0.8-1.2,1.4-1.5c0.6-0.4,1.3-0.5,2.1-0.5
	c0.7,0,1.4,0.2,2,0.5c0.6,0.3,1,0.8,1.3,1.4c0.3,0.6,0.5,1.3,0.5,2.1c0,0.5-0.2,0.7-0.6,0.7h-5c0.1,0.8,0.3,1.4,0.7,1.7
	s0.9,0.6,1.6,0.6c0.4,0,0.7,0,1-0.1s0.6-0.2,0.9-0.4c0.3-0.2,0.6-0.3,0.7-0.3C221.6,476.2,221.7,476.3,221.8,476.4z M217,472
	c-0.3,0.4-0.6,0.9-0.6,1.6h3.8c0-0.7-0.2-1.2-0.5-1.6c-0.3-0.4-0.8-0.5-1.3-0.5C217.9,471.5,217.4,471.7,217,472z M48.1,222
	c-0.9-0.5-1.5-1.2-2-2.1c-0.5-0.9-0.7-2-0.7-3.3s0.2-2.3,0.7-3.3s1.1-1.6,2-2.1c0.9-0.5,1.9-0.7,3-0.7s2.2,0.2,3,0.7
	c0.9,0.5,1.5,1.2,2,2.1s0.7,2,0.7,3.3s-0.2,2.3-0.7,3.3s-1.1,1.6-2,2.1c-0.9,0.5-1.9,0.7-3,0.7C49.9,222.8,48.9,222.5,48.1,222z
	 M53.7,219.9c0.6-0.8,0.9-1.8,0.9-3.3c0-1.4-0.3-2.5-0.9-3.3s-1.5-1.1-2.6-1.1c-1.1,0-2,0.4-2.6,1.1c-0.6,0.8-0.9,1.8-0.9,3.3
	c0,1.4,0.3,2.5,0.9,3.3c0.6,0.8,1.5,1.1,2.6,1.1C52.2,221,53.1,220.6,53.7,219.9z M65,214.3c0.2-0.1,0.3-0.2,0.5-0.2
	c0.3,0,0.5,0.1,0.7,0.3c0.2,0.2,0.3,0.4,0.3,0.7c0,0.1,0,0.3-0.1,0.4l-3.1,6.6c-0.1,0.2-0.2,0.4-0.4,0.5s-0.4,0.2-0.6,0.2
	c-0.2,0-0.4-0.1-0.6-0.2c-0.2-0.1-0.3-0.3-0.5-0.5l-3.2-6.6c-0.1-0.1-0.1-0.2-0.1-0.4c0-0.3,0.1-0.5,0.3-0.7s0.5-0.3,0.8-0.3
	c0.4,0,0.7,0.2,0.9,0.6l2.4,5.3l2.4-5.2C64.7,214.5,64.8,214.4,65,214.3z M74.7,220.5c0.1,0.1,0.2,0.3,0.2,0.6
	c0,0.4-0.2,0.6-0.6,0.9c-0.4,0.2-0.8,0.4-1.3,0.5c-0.5,0.1-1,0.2-1.4,0.2c-1.3,0-2.4-0.4-3.2-1.2c-0.8-0.8-1.2-1.8-1.2-3.2
	c0-0.9,0.2-1.6,0.5-2.3c0.3-0.7,0.8-1.2,1.4-1.5c0.6-0.4,1.3-0.5,2.1-0.5c0.7,0,1.4,0.2,2,0.5s1,0.8,1.3,1.4s0.5,1.3,0.5,2.1
	c0,0.5-0.2,0.7-0.6,0.7h-5c0.1,0.8,0.3,1.4,0.7,1.7s0.9,0.6,1.6,0.6c0.4,0,0.7,0,1-0.1c0.3-0.1,0.6-0.2,0.9-0.4
	c0.3-0.2,0.6-0.3,0.7-0.3C74.4,220.3,74.5,220.4,74.7,220.5z M69.9,216.1c-0.3,0.4-0.6,0.9-0.6,1.6h3.8c0-0.7-0.2-1.2-0.5-1.6
	s-0.8-0.5-1.3-0.5C70.7,215.6,70.2,215.8,69.9,216.1z M82,214.3c0.2,0.1,0.3,0.4,0.3,0.7c0,0.3-0.1,0.5-0.2,0.7
	c-0.1,0.1-0.4,0.2-0.8,0.3l-0.5,0.1c-0.7,0.1-1.2,0.3-1.5,0.7c-0.3,0.4-0.5,0.9-0.5,1.4v3.6c0,0.3-0.1,0.6-0.3,0.8
	c-0.2,0.2-0.5,0.3-0.8,0.3c-0.3,0-0.6-0.1-0.8-0.3c-0.2-0.2-0.3-0.4-0.3-0.8v-6.6c0-0.3,0.1-0.6,0.3-0.7s0.4-0.3,0.7-0.3
	c0.3,0,0.5,0.1,0.7,0.2c0.2,0.2,0.3,0.4,0.3,0.7v0.7c0.2-0.5,0.5-0.9,1-1.2c0.4-0.3,0.9-0.4,1.4-0.5l0.2,0
	C81.6,214.1,81.8,214.2,82,214.3z M89.1,221.9c0,0.3-0.1,0.5-0.3,0.6c-0.2,0.1-0.5,0.2-0.9,0.2l-0.5,0c-1.9-0.1-2.9-1.2-2.9-3.1
	v-3.7h-0.9c-0.3,0-0.5-0.1-0.7-0.2c-0.2-0.1-0.2-0.3-0.2-0.6c0-0.3,0.1-0.5,0.2-0.6c0.2-0.1,0.4-0.2,0.7-0.2h0.9v-1.6
	c0-0.3,0.1-0.5,0.3-0.7c0.2-0.2,0.5-0.3,0.8-0.3c0.3,0,0.6,0.1,0.8,0.3c0.2,0.2,0.3,0.4,0.3,0.7v1.6h1.4c0.3,0,0.5,0.1,0.7,0.2
	c0.2,0.1,0.2,0.3,0.2,0.6c0,0.3-0.1,0.5-0.2,0.6c-0.2,0.1-0.4,0.2-0.7,0.2h-1.4v3.9c0,0.8,0.4,1.3,1.2,1.3l0.5,0
	C88.8,221.2,89.1,221.4,89.1,221.9z M90.3,212.3c-0.2-0.2-0.3-0.5-0.3-0.8c0-0.3,0.1-0.6,0.3-0.8c0.2-0.2,0.5-0.3,0.9-0.3
	c0.4,0,0.7,0.1,0.9,0.3c0.2,0.2,0.3,0.5,0.3,0.8c0,0.3-0.1,0.6-0.3,0.8c-0.2,0.2-0.5,0.3-0.9,0.3C90.9,212.6,90.6,212.5,90.3,212.3z
	 M90.5,222.4c-0.2-0.2-0.3-0.4-0.3-0.8v-6.6c0-0.3,0.1-0.6,0.3-0.7s0.5-0.3,0.8-0.3c0.3,0,0.6,0.1,0.8,0.3c0.2,0.2,0.3,0.4,0.3,0.7
	v6.6c0,0.3-0.1,0.6-0.3,0.8c-0.2,0.2-0.5,0.3-0.8,0.3C90.9,222.7,90.7,222.6,90.5,222.4z M106.5,214.9c0.5,0.5,0.7,1.4,0.7,2.6v4.2
	c0,0.3-0.1,0.6-0.3,0.8c-0.2,0.2-0.5,0.3-0.8,0.3c-0.3,0-0.6-0.1-0.8-0.3c-0.2-0.2-0.3-0.4-0.3-0.8v-4.2c0-0.6-0.1-1.1-0.3-1.3
	c-0.2-0.3-0.6-0.4-1-0.4c-0.6,0-1,0.2-1.3,0.6c-0.3,0.4-0.5,0.9-0.5,1.6v3.8c0,0.3-0.1,0.6-0.3,0.8c-0.2,0.2-0.5,0.3-0.8,0.3
	c-0.3,0-0.6-0.1-0.8-0.3c-0.2-0.2-0.3-0.4-0.3-0.8v-4.2c0-0.6-0.1-1.1-0.3-1.3c-0.2-0.3-0.6-0.4-1-0.4c-0.6,0-1,0.2-1.3,0.6
	c-0.3,0.4-0.5,0.9-0.5,1.6v3.8c0,0.3-0.1,0.6-0.3,0.8c-0.2,0.2-0.5,0.3-0.8,0.3c-0.3,0-0.6-0.1-0.8-0.3c-0.2-0.2-0.3-0.4-0.3-0.8
	v-6.6c0-0.3,0.1-0.6,0.3-0.7s0.5-0.3,0.8-0.3c0.3,0,0.5,0.1,0.7,0.2c0.2,0.2,0.3,0.4,0.3,0.7v0.4c0.3-0.5,0.6-0.8,1-1
	c0.4-0.2,0.9-0.4,1.5-0.4c1.2,0,2.1,0.5,2.5,1.6c0.2-0.5,0.6-0.9,1.1-1.1s1-0.4,1.6-0.4C105.3,214.1,106,214.4,106.5,214.9z
	 M116.4,220.5c0.1,0.1,0.2,0.3,0.2,0.6c0,0.4-0.2,0.6-0.6,0.9c-0.4,0.2-0.8,0.4-1.3,0.5c-0.5,0.1-1,0.2-1.4,0.2
	c-1.3,0-2.4-0.4-3.2-1.2c-0.8-0.8-1.2-1.8-1.2-3.2c0-0.9,0.2-1.6,0.5-2.3c0.3-0.7,0.8-1.2,1.4-1.5c0.6-0.4,1.3-0.5,2.1-0.5
	c0.7,0,1.4,0.2,2,0.5s1,0.8,1.3,1.4s0.5,1.3,0.5,2.1c0,0.5-0.2,0.7-0.6,0.7h-5c0.1,0.8,0.3,1.4,0.7,1.7s0.9,0.6,1.6,0.6
	c0.4,0,0.7,0,1-0.1c0.3-0.1,0.6-0.2,0.9-0.4c0.3-0.2,0.6-0.3,0.7-0.3C116.1,220.3,116.3,220.4,116.4,220.5z M111.6,216.1
	c-0.3,0.4-0.6,0.9-0.6,1.6h3.8c0-0.7-0.2-1.2-0.5-1.6s-0.8-0.5-1.3-0.5C112.4,215.6,112,215.8,111.6,216.1z M318.5,51.8
	c-0.6-0.3-1-0.8-1.4-1.4c-0.3-0.6-0.5-1.3-0.5-2.1c0-0.8,0.2-1.5,0.5-2.1c0.3-0.6,0.8-1.1,1.4-1.4c0.6-0.3,1.3-0.5,2.1-0.5
	s1.5,0.2,2.1,0.5c0.6,0.3,1,0.8,1.4,1.4c0.3,0.6,0.5,1.3,0.5,2.1c0,0.8-0.2,1.5-0.5,2.1s-0.8,1.1-1.4,1.4c-0.6,0.3-1.3,0.5-2.1,0.5
	S319.1,52.1,318.5,51.8z M322,50.1c0.3-0.4,0.5-1,0.5-1.8c0-0.8-0.2-1.4-0.5-1.8s-0.8-0.6-1.4-0.6s-1.1,0.2-1.4,0.6s-0.5,1-0.5,1.8
	c0,0.8,0.2,1.4,0.5,1.8s0.8,0.6,1.4,0.6C321.1,50.7,321.6,50.5,322,50.1z M330.9,44.5c0.2,0.1,0.2,0.3,0.2,0.6
	c0,0.3-0.1,0.5-0.2,0.6c-0.1,0.1-0.4,0.2-0.7,0.3l-0.5,0c-0.6,0.1-1.1,0.3-1.3,0.6c-0.3,0.4-0.4,0.8-0.4,1.3v3.3
	c0,0.3-0.1,0.5-0.3,0.7c-0.2,0.2-0.4,0.2-0.7,0.2c-0.3,0-0.5-0.1-0.7-0.2s-0.3-0.4-0.3-0.7v-6c0-0.3,0.1-0.5,0.3-0.7
	c0.2-0.2,0.4-0.2,0.7-0.2s0.5,0.1,0.7,0.2c0.2,0.2,0.2,0.4,0.2,0.6v0.6c0.2-0.5,0.5-0.8,0.9-1.1c0.4-0.2,0.8-0.4,1.3-0.4l0.2,0
	C330.5,44.3,330.8,44.4,330.9,44.5z M339.1,51.3c0,0.2-0.1,0.5-0.3,0.6c-0.2,0.2-0.4,0.3-0.6,0.3s-0.4-0.1-0.6-0.3l-3.7-3.3v2.7
	c0,0.3-0.1,0.5-0.3,0.7c-0.2,0.2-0.4,0.2-0.7,0.2c-0.3,0-0.5-0.1-0.7-0.2c-0.2-0.2-0.3-0.4-0.3-0.7V42c0-0.3,0.1-0.5,0.3-0.7
	c0.2-0.2,0.4-0.2,0.7-0.2c0.3,0,0.5,0.1,0.7,0.2c0.2,0.2,0.3,0.4,0.3,0.7v5.9l3.3-3.2c0.2-0.2,0.4-0.3,0.6-0.3s0.4,0.1,0.6,0.3
	c0.2,0.2,0.3,0.4,0.3,0.6s-0.1,0.5-0.3,0.7l-2.5,2.3l2.7,2.4C339,50.8,339.1,51,339.1,51.3z M340.5,42.7c-0.2-0.2-0.3-0.4-0.3-0.8
	s0.1-0.6,0.3-0.7c0.2-0.2,0.5-0.3,0.8-0.3c0.3,0,0.6,0.1,0.8,0.3c0.2,0.2,0.3,0.4,0.3,0.7s-0.1,0.6-0.3,0.8
	c-0.2,0.2-0.5,0.3-0.8,0.3S340.7,42.9,340.5,42.7z M340.6,52c-0.2-0.2-0.3-0.4-0.3-0.7v-6c0-0.3,0.1-0.5,0.3-0.7
	c0.2-0.2,0.4-0.2,0.7-0.2c0.3,0,0.5,0.1,0.7,0.2c0.2,0.2,0.3,0.4,0.3,0.7v6c0,0.3-0.1,0.5-0.3,0.7c-0.2,0.2-0.4,0.2-0.7,0.2
	C341,52.2,340.8,52.1,340.6,52z M350.8,45.1c0.4,0.5,0.7,1.3,0.7,2.4v3.8c0,0.3-0.1,0.5-0.3,0.7c-0.2,0.2-0.4,0.2-0.7,0.2
	s-0.5-0.1-0.7-0.2c-0.2-0.2-0.3-0.4-0.3-0.7v-3.7c0-0.6-0.1-1-0.3-1.3s-0.6-0.4-1.1-0.4c-0.6,0-1,0.2-1.3,0.5s-0.5,0.8-0.5,1.4v3.5
	c0,0.3-0.1,0.5-0.3,0.7c-0.2,0.2-0.4,0.2-0.7,0.2s-0.5-0.1-0.7-0.2c-0.2-0.2-0.3-0.4-0.3-0.7v-6c0-0.3,0.1-0.5,0.3-0.7
	s0.4-0.2,0.7-0.2c0.3,0,0.5,0.1,0.7,0.2c0.2,0.2,0.3,0.4,0.3,0.6v0.4c0.3-0.4,0.6-0.8,1-1c0.4-0.2,0.9-0.3,1.5-0.3
	C349.7,44.3,350.3,44.6,350.8,45.1z M360.6,44.6c0.2,0.2,0.3,0.4,0.3,0.7v6.2c0,1.2-0.3,2.1-1,2.7c-0.7,0.6-1.6,0.9-2.9,0.9
	c-1.1,0-2.1-0.2-2.8-0.6c-0.4-0.2-0.6-0.5-0.6-0.8c0-0.2,0.1-0.4,0.2-0.5s0.3-0.2,0.4-0.2c0.1,0,0.2,0,0.3,0.1
	c0.1,0,0.3,0.1,0.4,0.2c0.4,0.2,0.7,0.3,1,0.4c0.3,0.1,0.6,0.1,1,0.1c1.4,0,2-0.7,2-2v-1c-0.2,0.4-0.6,0.8-1,1
	c-0.4,0.2-0.9,0.4-1.5,0.4c-0.7,0-1.3-0.2-1.8-0.5s-0.9-0.8-1.2-1.3c-0.3-0.6-0.4-1.2-0.4-2s0.1-1.4,0.4-2c0.3-0.6,0.7-1,1.2-1.3
	c0.5-0.3,1.1-0.5,1.8-0.5c0.6,0,1.1,0.1,1.5,0.4c0.4,0.2,0.8,0.6,1,1v-0.4c0-0.3,0.1-0.5,0.3-0.7c0.2-0.2,0.4-0.2,0.7-0.2
	C360.2,44.3,360.4,44.4,360.6,44.6z M358.4,49.8c0.3-0.4,0.5-1,0.5-1.7c0-0.7-0.2-1.3-0.5-1.7s-0.8-0.6-1.5-0.6
	c-0.6,0-1.1,0.2-1.5,0.6s-0.5,1-0.5,1.7c0,0.7,0.2,1.3,0.5,1.7c0.4,0.4,0.8,0.6,1.5,0.6C357.6,50.4,358.1,50.2,358.4,49.8z
	 M302.3,70.7c-0.7-0.2-1.3-0.5-1.7-0.9c-0.2-0.2-0.4-0.4-0.4-0.7c0-0.2,0.1-0.4,0.2-0.6c0.1-0.2,0.3-0.2,0.5-0.2
	c0.2,0,0.4,0.1,0.6,0.2c0.4,0.3,0.9,0.6,1.4,0.7c0.5,0.1,1,0.2,1.6,0.2c0.8,0,1.3-0.1,1.7-0.4c0.4-0.3,0.6-0.7,0.6-1.2
	c0-0.4-0.2-0.7-0.6-0.9c-0.4-0.2-1-0.4-1.9-0.6c-0.9-0.2-1.7-0.4-2.2-0.7c-0.6-0.3-1-0.6-1.3-1s-0.4-0.9-0.4-1.5
	c0-0.6,0.2-1.2,0.5-1.7c0.4-0.5,0.9-0.9,1.5-1.2s1.4-0.4,2.2-0.4c1.5,0,2.7,0.4,3.6,1.2c0.1,0.1,0.2,0.2,0.3,0.3
	c0.1,0.1,0.1,0.2,0.1,0.4c0,0.2-0.1,0.4-0.2,0.6c-0.1,0.2-0.3,0.2-0.5,0.2c-0.1,0-0.2,0-0.3,0c-0.1,0-0.2-0.1-0.4-0.2
	c-0.4-0.3-0.8-0.5-1.2-0.7s-0.9-0.2-1.5-0.2c-0.7,0-1.3,0.1-1.7,0.4s-0.6,0.7-0.6,1.2c0,0.4,0.2,0.8,0.5,1c0.4,0.2,1,0.4,1.9,0.6
	c0.9,0.2,1.7,0.4,2.3,0.7c0.6,0.3,1,0.6,1.3,1s0.5,0.9,0.5,1.5c0,0.6-0.2,1.2-0.5,1.7c-0.4,0.5-0.9,0.9-1.5,1.2s-1.4,0.4-2.2,0.4
	C303.8,71,303,70.9,302.3,70.7z M312,70.5c-0.6-0.3-1-0.8-1.3-1.4c-0.3-0.6-0.5-1.3-0.5-2.1c0-0.8,0.2-1.5,0.5-2.1
	c0.3-0.6,0.8-1.1,1.4-1.4c0.6-0.3,1.3-0.5,2-0.5c0.4,0,0.8,0.1,1.2,0.2c0.4,0.1,0.8,0.3,1.1,0.5c0.3,0.2,0.5,0.5,0.5,0.8
	c0,0.2-0.1,0.4-0.2,0.6s-0.3,0.2-0.4,0.2c-0.1,0-0.2,0-0.4-0.1c-0.1-0.1-0.2-0.1-0.4-0.2c-0.2-0.1-0.4-0.2-0.7-0.3
	c-0.2-0.1-0.4-0.1-0.7-0.1c-0.6,0-1.1,0.2-1.5,0.6c-0.3,0.4-0.5,1-0.5,1.8c0,0.8,0.2,1.4,0.5,1.8c0.3,0.4,0.8,0.6,1.5,0.6
	c0.3,0,0.5,0,0.7-0.1c0.2-0.1,0.4-0.2,0.7-0.3c0.2-0.1,0.3-0.2,0.4-0.2s0.2-0.1,0.3-0.1c0.2,0,0.3,0.1,0.4,0.2
	c0.1,0.1,0.2,0.3,0.2,0.5c0,0.2,0,0.3-0.1,0.5c-0.1,0.1-0.2,0.2-0.4,0.4c-0.3,0.2-0.7,0.4-1.1,0.5S314.4,71,314,71
	C313.2,71,312.5,70.8,312,70.5z M325.3,66.2V70c0,0.3-0.1,0.5-0.3,0.7c-0.2,0.2-0.4,0.2-0.7,0.2s-0.5-0.1-0.7-0.2
	c-0.2-0.2-0.3-0.4-0.3-0.7v-3.8c0-0.6-0.1-1-0.3-1.2c-0.2-0.3-0.6-0.4-1.1-0.4c-0.6,0-1,0.2-1.3,0.5s-0.5,0.8-0.5,1.4V70
	c0,0.3-0.1,0.5-0.3,0.7c-0.2,0.2-0.4,0.2-0.7,0.2s-0.5-0.1-0.7-0.2c-0.2-0.2-0.3-0.4-0.3-0.7v-9.3c0-0.3,0.1-0.5,0.3-0.7
	s0.4-0.2,0.7-0.2s0.5,0.1,0.7,0.2c0.2,0.2,0.3,0.4,0.3,0.6v3.6c0.3-0.4,0.6-0.7,1-0.9s0.9-0.3,1.5-0.3
	C324.4,63,325.3,64.1,325.3,66.2z M333.8,69c0.1,0.1,0.2,0.3,0.2,0.5c0,0.3-0.2,0.6-0.6,0.8c-0.4,0.2-0.8,0.4-1.2,0.5
	s-0.9,0.2-1.3,0.2c-1.2,0-2.2-0.4-2.9-1.1s-1.1-1.7-1.1-2.9c0-0.8,0.2-1.5,0.5-2.1c0.3-0.6,0.8-1.1,1.3-1.4c0.6-0.3,1.2-0.5,1.9-0.5
	c0.7,0,1.3,0.2,1.8,0.5c0.5,0.3,0.9,0.7,1.2,1.3s0.4,1.2,0.4,2c0,0.4-0.2,0.7-0.6,0.7h-4.6c0.1,0.7,0.3,1.2,0.6,1.6
	c0.3,0.3,0.8,0.5,1.5,0.5c0.3,0,0.6,0,0.9-0.1c0.3-0.1,0.5-0.2,0.9-0.3c0.3-0.2,0.5-0.2,0.7-0.2C333.5,68.8,333.7,68.8,333.8,69z
	 M329.4,64.9c-0.3,0.3-0.5,0.8-0.6,1.4h3.5c0-0.6-0.2-1.1-0.5-1.4c-0.3-0.3-0.7-0.5-1.2-0.5C330.1,64.4,329.7,64.6,329.4,64.9z
	 M342.7,60c0.2,0.2,0.3,0.4,0.3,0.7V70c0,0.3-0.1,0.5-0.3,0.7c-0.2,0.2-0.4,0.2-0.7,0.2c-0.3,0-0.5-0.1-0.7-0.2
	c-0.2-0.2-0.3-0.4-0.3-0.7v-0.4c-0.2,0.4-0.6,0.8-1,1c-0.4,0.2-0.9,0.4-1.5,0.4c-0.7,0-1.2-0.2-1.8-0.5s-0.9-0.8-1.2-1.4
	c-0.3-0.6-0.4-1.3-0.4-2.1s0.1-1.5,0.4-2.1c0.3-0.6,0.7-1.1,1.2-1.4c0.5-0.3,1.1-0.5,1.8-0.5c0.6,0,1,0.1,1.5,0.3
	c0.4,0.2,0.8,0.6,1,1v-3.7c0-0.3,0.1-0.5,0.3-0.6s0.4-0.2,0.7-0.2C342.3,59.8,342.5,59.9,342.7,60z M340.5,68.8
	c0.3-0.4,0.5-1,0.5-1.8s-0.2-1.4-0.5-1.8c-0.3-0.4-0.8-0.6-1.4-0.6c-0.6,0-1.1,0.2-1.5,0.6c-0.3,0.4-0.5,1-0.5,1.8
	c0,0.8,0.2,1.4,0.5,1.8c0.3,0.4,0.8,0.7,1.4,0.7C339.7,69.5,340.2,69.3,340.5,68.8z M351.7,63.3c0.2,0.2,0.3,0.4,0.3,0.7V70
	c0,0.3-0.1,0.5-0.3,0.7c-0.2,0.2-0.4,0.2-0.7,0.2c-0.3,0-0.5-0.1-0.7-0.2c-0.2-0.2-0.2-0.4-0.2-0.6v-0.4c-0.2,0.4-0.6,0.7-1,1
	c-0.4,0.2-0.9,0.3-1.4,0.3c-1.9,0-2.8-1.1-2.8-3.2V64c0-0.3,0.1-0.5,0.3-0.7s0.4-0.2,0.7-0.2c0.3,0,0.5,0.1,0.7,0.2s0.3,0.4,0.3,0.7
	v3.9c0,0.5,0.1,0.9,0.3,1.2c0.2,0.3,0.6,0.4,1,0.4c0.5,0,1-0.2,1.3-0.5c0.3-0.4,0.5-0.8,0.5-1.4V64c0-0.3,0.1-0.5,0.3-0.7
	s0.4-0.2,0.7-0.2C351.3,63.1,351.5,63.2,351.7,63.3z M354.3,70.7c-0.2-0.2-0.3-0.4-0.3-0.7v-9.3c0-0.3,0.1-0.5,0.3-0.7
	c0.2-0.2,0.4-0.2,0.7-0.2c0.3,0,0.5,0.1,0.7,0.2c0.2,0.2,0.3,0.4,0.3,0.7V70c0,0.3-0.1,0.5-0.3,0.7c-0.2,0.2-0.4,0.2-0.7,0.2
	C354.7,71,354.5,70.9,354.3,70.7z M364.4,69c0.1,0.1,0.2,0.3,0.2,0.5c0,0.3-0.2,0.6-0.6,0.8c-0.4,0.2-0.8,0.4-1.2,0.5
	S362,71,361.6,71c-1.2,0-2.2-0.4-2.9-1.1s-1.1-1.7-1.1-2.9c0-0.8,0.2-1.5,0.5-2.1c0.3-0.6,0.8-1.1,1.3-1.4c0.6-0.3,1.2-0.5,1.9-0.5
	c0.7,0,1.3,0.2,1.8,0.5c0.5,0.3,0.9,0.7,1.2,1.3s0.4,1.2,0.4,2c0,0.4-0.2,0.7-0.6,0.7h-4.6c0.1,0.7,0.3,1.2,0.6,1.6
	c0.3,0.3,0.8,0.5,1.5,0.5c0.3,0,0.6,0,0.9-0.1c0.3-0.1,0.5-0.2,0.9-0.3c0.3-0.2,0.5-0.2,0.7-0.2C364.2,68.8,364.3,68.8,364.4,69z
	 M360,64.9c-0.3,0.3-0.5,0.8-0.6,1.4h3.5c0-0.6-0.2-1.1-0.5-1.4c-0.3-0.3-0.7-0.5-1.2-0.5C360.8,64.4,360.4,64.6,360,64.9z
	 M128.6,81.5c0,0.3-0.1,0.6-0.4,0.8c-0.2,0.2-0.5,0.3-0.8,0.3c-0.2,0-0.4-0.1-0.6-0.2c-0.2-0.1-0.3-0.3-0.4-0.5l-1.2-2.6h-6.9
	l-1.2,2.6c-0.1,0.2-0.2,0.4-0.4,0.5c-0.2,0.1-0.4,0.2-0.6,0.2c-0.3,0-0.6-0.1-0.8-0.3c-0.2-0.2-0.4-0.5-0.4-0.8c0-0.2,0-0.3,0.1-0.5
	l5.4-11.7c0.1-0.3,0.3-0.5,0.5-0.6c0.2-0.1,0.5-0.2,0.8-0.2c0.3,0,0.5,0.1,0.8,0.2c0.2,0.1,0.4,0.3,0.5,0.6l5.5,11.7
	C128.6,81.2,128.6,81.4,128.6,81.5z M119.1,77.3h5.2l-2.6-5.9L119.1,77.3z M136,81.7c0,0.3-0.1,0.6-0.4,0.7
	c-0.3,0.2-0.6,0.2-1.1,0.2l-0.5,0c-2.2-0.2-3.3-1.3-3.3-3.6v-4.3h-1c-0.4,0-0.6-0.1-0.8-0.2c-0.2-0.2-0.3-0.4-0.3-0.7
	c0-0.3,0.1-0.5,0.3-0.7s0.5-0.2,0.8-0.2h1v-1.8c0-0.4,0.1-0.6,0.3-0.8s0.5-0.3,0.9-0.3c0.4,0,0.7,0.1,0.9,0.3
	c0.2,0.2,0.3,0.5,0.3,0.8v1.8h1.7c0.4,0,0.6,0.1,0.8,0.2s0.3,0.4,0.3,0.7c0,0.3-0.1,0.5-0.3,0.7c-0.2,0.2-0.5,0.2-0.8,0.2h-1.7v4.5
	c0,1,0.4,1.5,1.3,1.6l0.5,0C135.7,80.9,136,81.2,136,81.7z M143.2,81.7c0,0.3-0.1,0.6-0.4,0.7c-0.3,0.2-0.6,0.2-1.1,0.2l-0.5,0
	c-2.2-0.2-3.3-1.3-3.3-3.6v-4.3h-1c-0.4,0-0.6-0.1-0.8-0.2c-0.2-0.2-0.3-0.4-0.3-0.7c0-0.3,0.1-0.5,0.3-0.7s0.5-0.2,0.8-0.2h1v-1.8
	c0-0.4,0.1-0.6,0.3-0.8s0.5-0.3,0.9-0.3c0.4,0,0.7,0.1,0.9,0.3c0.2,0.2,0.3,0.5,0.3,0.8v1.8h1.7c0.4,0,0.6,0.1,0.8,0.2
	s0.3,0.4,0.3,0.7c0,0.3-0.1,0.5-0.3,0.7c-0.2,0.2-0.5,0.2-0.8,0.2h-1.7v4.5c0,1,0.4,1.5,1.3,1.6l0.5,0
	C142.8,80.9,143.2,81.2,143.2,81.7z M152.6,80.1c0.1,0.2,0.2,0.4,0.2,0.7c0,0.4-0.2,0.7-0.7,1c-0.4,0.2-1,0.5-1.5,0.6
	c-0.6,0.2-1.1,0.2-1.6,0.2c-1.6,0-2.8-0.4-3.7-1.3c-0.9-0.9-1.4-2.1-1.4-3.7c0-1,0.2-1.9,0.6-2.6c0.4-0.8,1-1.4,1.7-1.8
	c0.7-0.4,1.5-0.6,2.4-0.6c0.9,0,1.6,0.2,2.3,0.6c0.6,0.4,1.1,0.9,1.5,1.6s0.5,1.5,0.5,2.5c0,0.6-0.2,0.8-0.8,0.8h-5.8
	c0.1,0.9,0.3,1.6,0.8,2s1.1,0.6,1.9,0.6c0.4,0,0.8-0.1,1.1-0.2s0.7-0.2,1.1-0.4c0.4-0.2,0.7-0.3,0.9-0.3
	C152.3,79.9,152.5,80,152.6,80.1z M147.1,75c-0.4,0.4-0.6,1-0.7,1.8h4.5c0-0.8-0.2-1.4-0.6-1.8c-0.4-0.4-0.9-0.6-1.5-0.6
	C148,74.4,147.5,74.6,147.1,75z M163.1,73.6c0.6,0.7,0.8,1.7,0.8,3v4.9c0,0.4-0.1,0.7-0.3,0.9c-0.2,0.2-0.5,0.3-0.9,0.3
	c-0.4,0-0.7-0.1-0.9-0.3c-0.2-0.2-0.3-0.5-0.3-0.9v-4.7c0-0.7-0.1-1.3-0.4-1.6c-0.3-0.3-0.7-0.5-1.3-0.5c-0.7,0-1.3,0.2-1.7,0.7
	c-0.4,0.4-0.6,1-0.6,1.8v4.4c0,0.4-0.1,0.7-0.3,0.9c-0.2,0.2-0.5,0.3-0.9,0.3c-0.4,0-0.7-0.1-0.9-0.3c-0.2-0.2-0.3-0.5-0.3-0.9v-7.6
	c0-0.3,0.1-0.6,0.3-0.8c0.2-0.2,0.5-0.3,0.9-0.3c0.3,0,0.6,0.1,0.8,0.3c0.2,0.2,0.3,0.5,0.3,0.8v0.5c0.3-0.5,0.8-1,1.3-1.2
	c0.6-0.3,1.2-0.4,1.9-0.4C161.7,72.6,162.6,73,163.1,73.6z M175.4,68.8c0.2,0.2,0.4,0.5,0.4,0.8v11.8c0,0.4-0.1,0.6-0.3,0.8
	c-0.2,0.2-0.5,0.3-0.9,0.3s-0.7-0.1-0.9-0.3c-0.2-0.2-0.3-0.5-0.3-0.8V81c-0.3,0.5-0.7,1-1.3,1.3c-0.5,0.3-1.2,0.5-1.9,0.5
	c-0.8,0-1.6-0.2-2.2-0.6c-0.7-0.4-1.2-1-1.5-1.8c-0.4-0.8-0.5-1.7-0.5-2.7c0-1,0.2-1.9,0.5-2.6c0.4-0.8,0.9-1.3,1.5-1.7
	s1.4-0.6,2.2-0.6c0.7,0,1.3,0.1,1.9,0.4c0.5,0.3,1,0.7,1.2,1.2v-4.7c0-0.3,0.1-0.6,0.3-0.8c0.2-0.2,0.5-0.3,0.9-0.3
	S175.2,68.6,175.4,68.8z M172.7,80c0.4-0.5,0.6-1.3,0.6-2.3c0-1-0.2-1.8-0.6-2.3c-0.4-0.5-1-0.8-1.8-0.8c-0.8,0-1.4,0.3-1.8,0.8
	c-0.4,0.5-0.7,1.3-0.7,2.3c0,1,0.2,1.8,0.7,2.3c0.4,0.6,1,0.8,1.8,0.8C171.7,80.8,172.3,80.5,172.7,80z M185.5,73.6
	c0.7,0.7,1,1.7,1,3v4.8c0,0.4-0.1,0.6-0.3,0.8s-0.5,0.3-0.9,0.3c-0.3,0-0.6-0.1-0.8-0.3c-0.2-0.2-0.3-0.5-0.3-0.8v-0.4
	c-0.2,0.5-0.6,0.9-1.1,1.2c-0.5,0.3-1,0.4-1.7,0.4c-0.6,0-1.2-0.1-1.8-0.4c-0.5-0.3-0.9-0.6-1.2-1.1s-0.5-1-0.5-1.5
	c0-0.7,0.2-1.3,0.5-1.7s1-0.7,1.8-0.9c0.8-0.2,1.9-0.3,3.4-0.3h0.5v-0.5c0-0.6-0.1-1.1-0.4-1.4s-0.7-0.4-1.3-0.4
	c-0.4,0-0.8,0.1-1.2,0.2c-0.4,0.1-0.9,0.3-1.4,0.5c-0.3,0.2-0.6,0.3-0.7,0.3c-0.2,0-0.4-0.1-0.6-0.3c-0.2-0.2-0.2-0.4-0.2-0.7
	c0-0.2,0.1-0.4,0.2-0.6s0.3-0.3,0.6-0.5c0.5-0.2,1-0.4,1.6-0.6s1.3-0.2,1.9-0.2C183.9,72.6,184.9,73,185.5,73.6z M183.5,80.3
	c0.4-0.4,0.6-1,0.6-1.7v-0.4h-0.4c-0.9,0-1.6,0-2.1,0.1c-0.5,0.1-0.8,0.2-1,0.4s-0.3,0.5-0.3,0.8c0,0.4,0.1,0.8,0.4,1
	c0.3,0.3,0.7,0.4,1.1,0.4C182.6,80.9,183.1,80.7,183.5,80.3z M197.2,73.6c0.6,0.7,0.8,1.7,0.8,3v4.9c0,0.4-0.1,0.7-0.3,0.9
	c-0.2,0.2-0.5,0.3-0.9,0.3c-0.4,0-0.7-0.1-0.9-0.3c-0.2-0.2-0.3-0.5-0.3-0.9v-4.7c0-0.7-0.1-1.3-0.4-1.6c-0.3-0.3-0.7-0.5-1.3-0.5
	c-0.7,0-1.3,0.2-1.7,0.7c-0.4,0.4-0.6,1-0.6,1.8v4.4c0,0.4-0.1,0.7-0.3,0.9c-0.2,0.2-0.5,0.3-0.9,0.3c-0.4,0-0.7-0.1-0.9-0.3
	c-0.2-0.2-0.3-0.5-0.3-0.9v-7.6c0-0.3,0.1-0.6,0.3-0.8c0.2-0.2,0.5-0.3,0.9-0.3c0.3,0,0.6,0.1,0.8,0.3c0.2,0.2,0.3,0.5,0.3,0.8v0.5
	c0.3-0.5,0.8-1,1.3-1.2c0.6-0.3,1.2-0.4,1.9-0.4C195.7,72.6,196.6,73,197.2,73.6z M202.3,82.1c-0.7-0.4-1.3-1-1.7-1.7
	c-0.4-0.8-0.6-1.6-0.6-2.6c0-1,0.2-1.9,0.6-2.7c0.4-0.8,1-1.4,1.7-1.8c0.8-0.4,1.6-0.6,2.6-0.6c0.5,0,1,0.1,1.5,0.2s1,0.3,1.4,0.6
	c0.4,0.3,0.6,0.6,0.6,1c0,0.3-0.1,0.5-0.2,0.7c-0.1,0.2-0.3,0.3-0.5,0.3c-0.1,0-0.3,0-0.5-0.1c-0.2-0.1-0.3-0.1-0.5-0.2
	c-0.3-0.2-0.6-0.3-0.8-0.4c-0.3-0.1-0.6-0.1-0.9-0.1c-0.8,0-1.4,0.3-1.9,0.8c-0.4,0.5-0.7,1.3-0.7,2.3c0,1,0.2,1.7,0.7,2.3
	c0.4,0.5,1.1,0.8,1.9,0.8c0.3,0,0.6,0,0.9-0.1c0.3-0.1,0.5-0.2,0.9-0.4c0.2-0.1,0.4-0.2,0.5-0.3c0.1-0.1,0.3-0.1,0.4-0.1
	c0.2,0,0.4,0.1,0.5,0.3c0.1,0.2,0.2,0.4,0.2,0.7c0,0.2,0,0.4-0.1,0.6c-0.1,0.2-0.3,0.3-0.5,0.4c-0.4,0.3-0.9,0.5-1.4,0.6
	c-0.5,0.2-1.1,0.2-1.7,0.2C203.8,82.7,203,82.5,202.3,82.1z M218.3,80.1c0.1,0.2,0.2,0.4,0.2,0.7c0,0.4-0.2,0.7-0.7,1
	c-0.4,0.2-1,0.5-1.5,0.6c-0.6,0.2-1.1,0.2-1.6,0.2c-1.6,0-2.8-0.4-3.7-1.3c-0.9-0.9-1.4-2.1-1.4-3.7c0-1,0.2-1.9,0.6-2.6
	c0.4-0.8,1-1.4,1.7-1.8c0.7-0.4,1.5-0.6,2.4-0.6c0.9,0,1.6,0.2,2.3,0.6c0.6,0.4,1.1,0.9,1.5,1.6c0.4,0.7,0.5,1.5,0.5,2.5
	c0,0.6-0.2,0.8-0.8,0.8h-5.8c0.1,0.9,0.3,1.6,0.8,2c0.4,0.4,1.1,0.6,1.9,0.6c0.4,0,0.8-0.1,1.1-0.2s0.7-0.2,1.1-0.4
	c0.4-0.2,0.7-0.3,0.9-0.3C218,79.9,218.2,80,218.3,80.1z M212.8,75c-0.4,0.4-0.6,1-0.7,1.8h4.5c0-0.8-0.2-1.4-0.6-1.8
	s-0.9-0.6-1.5-0.6C213.7,74.4,213.2,74.6,212.8,75z"/>
<path class="st3" d="M125.2,100.6c0,0.2-0.1,0.4-0.3,0.6c-0.2,0.2-0.4,0.2-0.6,0.2c-0.2,0-0.3,0-0.5-0.1c-0.1-0.1-0.3-0.2-0.3-0.4
	l-0.9-2h-5.3l-0.9,2c-0.1,0.2-0.2,0.3-0.3,0.4c-0.1,0.1-0.3,0.1-0.5,0.1c-0.2,0-0.4-0.1-0.6-0.2c-0.2-0.2-0.3-0.4-0.3-0.6
	c0-0.1,0-0.3,0.1-0.4l4.2-8.9c0.1-0.2,0.2-0.4,0.4-0.5c0.2-0.1,0.4-0.2,0.6-0.2c0.2,0,0.4,0.1,0.6,0.2c0.2,0.1,0.3,0.3,0.4,0.5
	l4.2,8.9C125.2,100.4,125.2,100.5,125.2,100.6z M118,97.4h4l-2-4.5L118,97.4z M312.9,478.5c-0.1-0.1-0.2-0.3-0.2-0.5v-6.8
	c0-0.2,0.1-0.4,0.2-0.5s0.3-0.2,0.5-0.2c0.2,0,0.4,0.1,0.5,0.2s0.2,0.3,0.2,0.5v6.8c0,0.2-0.1,0.4-0.2,0.5s-0.3,0.2-0.5,0.2
	C313.2,478.7,313.1,478.6,312.9,478.5z M320.7,478.1c0,0.2-0.1,0.3-0.2,0.4c-0.1,0.1-0.3,0.1-0.5,0.1h-3.9c-0.2,0-0.4-0.1-0.5-0.2
	s-0.2-0.3-0.2-0.4c0-0.2,0.1-0.3,0.2-0.5l3-3.4h-2.6c-0.2,0-0.4,0-0.5-0.1c-0.1-0.1-0.2-0.2-0.2-0.4s0.1-0.3,0.2-0.4
	c0.1-0.1,0.3-0.1,0.5-0.1h3.7c0.2,0,0.4,0.1,0.5,0.2c0.1,0.1,0.2,0.3,0.2,0.4c0,0.2-0.1,0.4-0.2,0.5l-3,3.4h2.7
	C320.5,477.5,320.7,477.7,320.7,478.1z M321.8,471.6c-0.2-0.1-0.2-0.3-0.2-0.6c0-0.2,0.1-0.4,0.2-0.6s0.4-0.2,0.6-0.2
	c0.3,0,0.5,0.1,0.6,0.2c0.2,0.1,0.2,0.3,0.2,0.6c0,0.2-0.1,0.4-0.2,0.6c-0.2,0.1-0.4,0.2-0.6,0.2C322.2,471.8,322,471.8,321.8,471.6
	z M321.9,478.5c-0.1-0.1-0.2-0.3-0.2-0.5v-4.5c0-0.2,0.1-0.4,0.2-0.5s0.3-0.2,0.5-0.2s0.4,0.1,0.5,0.2s0.2,0.3,0.2,0.5v4.5
	c0,0.2-0.1,0.4-0.2,0.5c-0.1,0.1-0.3,0.2-0.5,0.2S322.1,478.6,321.9,478.5z M329.5,473.4c0.3,0.4,0.5,1,0.5,1.7v2.8
	c0,0.2-0.1,0.4-0.2,0.5s-0.3,0.2-0.5,0.2s-0.4-0.1-0.5-0.2c-0.1-0.1-0.2-0.3-0.2-0.5v-2.8c0-0.4-0.1-0.8-0.2-1s-0.4-0.3-0.8-0.3
	c-0.4,0-0.7,0.1-1,0.4c-0.3,0.3-0.4,0.6-0.4,1.1v2.6c0,0.2-0.1,0.4-0.2,0.5s-0.3,0.2-0.5,0.2c-0.2,0-0.4-0.1-0.5-0.2
	c-0.1-0.1-0.2-0.3-0.2-0.5v-4.5c0-0.2,0.1-0.4,0.2-0.5s0.3-0.2,0.5-0.2c0.2,0,0.4,0.1,0.5,0.2c0.1,0.1,0.2,0.3,0.2,0.5v0.3
	c0.2-0.3,0.5-0.6,0.8-0.7c0.3-0.2,0.7-0.3,1.1-0.3C328.6,472.8,329.1,473,329.5,473.4z M341.2,478c0,0.2-0.1,0.3-0.2,0.5
	s-0.3,0.2-0.5,0.2c-0.2,0-0.4-0.1-0.5-0.2l-3.8-3.6v3.1c0,0.2-0.1,0.4-0.2,0.5s-0.3,0.2-0.5,0.2c-0.2,0-0.4-0.1-0.5-0.2
	s-0.2-0.3-0.2-0.5v-6.8c0-0.2,0.1-0.4,0.2-0.5s0.3-0.2,0.5-0.2c0.2,0,0.4,0.1,0.5,0.2s0.2,0.3,0.2,0.5v3l3.7-3.5
	c0.1-0.1,0.3-0.2,0.5-0.2c0.2,0,0.3,0.1,0.5,0.2s0.2,0.3,0.2,0.5c0,0.2-0.1,0.3-0.2,0.5l-3.1,2.8l3.3,3.1
	C341.2,477.6,341.2,477.8,341.2,478z M346.9,477.2c0.1,0.1,0.1,0.2,0.1,0.4c0,0.2-0.1,0.4-0.4,0.6c-0.3,0.1-0.6,0.3-0.9,0.4
	c-0.3,0.1-0.6,0.1-0.9,0.1c-0.9,0-1.6-0.3-2.2-0.8c-0.5-0.5-0.8-1.2-0.8-2.1c0-0.6,0.1-1.1,0.3-1.5c0.2-0.4,0.6-0.8,1-1
	c0.4-0.2,0.9-0.4,1.4-0.4c0.5,0,1,0.1,1.3,0.3c0.4,0.2,0.7,0.5,0.9,0.9s0.3,0.9,0.3,1.4c0,0.3-0.1,0.5-0.4,0.5h-3.4
	c0,0.5,0.2,0.9,0.5,1.2c0.3,0.3,0.6,0.4,1.1,0.4c0.2,0,0.5,0,0.7-0.1s0.4-0.1,0.6-0.3c0.2-0.1,0.4-0.2,0.5-0.2
	C346.7,477.1,346.8,477.1,346.9,477.2z M343.7,474.2c-0.2,0.2-0.4,0.6-0.4,1.1h2.6c0-0.5-0.1-0.8-0.3-1.1c-0.2-0.2-0.5-0.4-0.9-0.4
	C344.2,473.8,343.9,474,343.7,474.2z M351.9,473c0.1,0.1,0.2,0.2,0.2,0.5c0,0.2,0,0.4-0.2,0.5c-0.1,0.1-0.3,0.2-0.5,0.2l-0.3,0
	c-0.5,0-0.8,0.2-1,0.5c-0.2,0.3-0.3,0.6-0.3,1v2.4c0,0.2-0.1,0.4-0.2,0.5c-0.1,0.1-0.3,0.2-0.5,0.2s-0.4-0.1-0.5-0.2
	c-0.1-0.1-0.2-0.3-0.2-0.5v-4.5c0-0.2,0.1-0.4,0.2-0.5s0.3-0.2,0.5-0.2s0.4,0.1,0.5,0.2s0.2,0.3,0.2,0.5v0.5
	c0.1-0.3,0.4-0.6,0.7-0.8c0.3-0.2,0.6-0.3,1-0.3l0.2,0C351.6,472.8,351.8,472.9,351.9,473z M351.2,480.6c-0.2-0.1-0.2-0.2-0.2-0.4
	c0-0.3,0.2-0.5,0.6-0.5l0.3,0c0.3,0,0.5-0.1,0.6-0.2s0.2-0.4,0.2-0.7v-5.2c0-0.2,0.1-0.4,0.2-0.5s0.3-0.2,0.5-0.2s0.4,0.1,0.5,0.2
	s0.2,0.3,0.2,0.5v5.1c0,1.3-0.6,2-1.9,2.1l-0.3,0C351.6,480.7,351.4,480.7,351.2,480.6z M352.8,471.6c-0.2-0.1-0.2-0.3-0.2-0.6
	c0-0.2,0.1-0.4,0.2-0.6s0.4-0.2,0.6-0.2c0.3,0,0.5,0.1,0.6,0.2s0.2,0.3,0.2,0.6c0,0.2-0.1,0.4-0.2,0.6c-0.2,0.1-0.4,0.2-0.6,0.2
	S352.9,471.8,352.8,471.6z M359.8,473.4c0.4,0.4,0.6,1,0.6,1.8v2.8c0,0.2-0.1,0.4-0.2,0.5c-0.1,0.1-0.3,0.2-0.5,0.2
	c-0.2,0-0.4-0.1-0.5-0.2s-0.2-0.3-0.2-0.5v-0.3c-0.1,0.3-0.3,0.5-0.6,0.7c-0.3,0.2-0.6,0.3-1,0.3c-0.4,0-0.7-0.1-1-0.2
	c-0.3-0.2-0.6-0.4-0.7-0.6c-0.2-0.3-0.3-0.6-0.3-0.9c0-0.4,0.1-0.7,0.3-1c0.2-0.2,0.6-0.4,1-0.5c0.5-0.1,1.1-0.2,2-0.2h0.3V475
	c0-0.4-0.1-0.7-0.2-0.8c-0.2-0.2-0.4-0.3-0.8-0.3c-0.2,0-0.5,0-0.7,0.1c-0.2,0.1-0.5,0.2-0.8,0.3c-0.2,0.1-0.3,0.2-0.4,0.2
	c-0.1,0-0.3,0-0.3-0.2c-0.1-0.1-0.1-0.2-0.1-0.4c0-0.1,0-0.2,0.1-0.3s0.2-0.2,0.3-0.3c0.3-0.1,0.6-0.3,1-0.3
	c0.4-0.1,0.7-0.1,1.1-0.1C358.9,472.8,359.4,473,359.8,473.4z M358.7,477.3c0.2-0.3,0.4-0.6,0.4-1V476h-0.2c-0.5,0-0.9,0-1.2,0.1
	c-0.3,0-0.5,0.1-0.6,0.2c-0.1,0.1-0.2,0.3-0.2,0.5c0,0.2,0.1,0.4,0.3,0.6c0.2,0.2,0.4,0.2,0.6,0.2
	C358.1,477.7,358.4,477.5,358.7,477.3z M149.8,496.4c-0.1-0.1-0.2-0.3-0.2-0.6v-7.6c0-0.3,0.1-0.4,0.2-0.6s0.3-0.2,0.6-0.2h2.6
	c1.5,0,2.7,0.4,3.5,1.2s1.2,1.9,1.2,3.4c0,1.5-0.4,2.6-1.2,3.4c-0.8,0.8-2,1.2-3.5,1.2h-2.6C150.1,496.6,149.9,496.5,149.8,496.4z
	 M152.9,495.2c2.1,0,3.2-1.1,3.2-3.2c0-2.1-1.1-3.2-3.2-3.2h-1.6v6.4H152.9z M164,490.7c0.4,0.4,0.6,1.1,0.6,2v3.2
	c0,0.2-0.1,0.4-0.2,0.6s-0.3,0.2-0.6,0.2c-0.2,0-0.4-0.1-0.6-0.2s-0.2-0.3-0.2-0.5v-0.3c-0.1,0.3-0.4,0.6-0.7,0.8
	c-0.3,0.2-0.7,0.3-1.1,0.3c-0.4,0-0.8-0.1-1.2-0.3s-0.6-0.4-0.8-0.7s-0.3-0.6-0.3-1c0-0.5,0.1-0.8,0.4-1.1c0.2-0.3,0.6-0.5,1.2-0.6
	c0.5-0.1,1.3-0.2,2.2-0.2h0.3v-0.3c0-0.4-0.1-0.7-0.3-0.9c-0.2-0.2-0.5-0.3-0.9-0.3c-0.3,0-0.5,0-0.8,0.1c-0.3,0.1-0.6,0.2-0.9,0.3
	c-0.2,0.1-0.4,0.2-0.5,0.2c-0.2,0-0.3-0.1-0.4-0.2c-0.1-0.1-0.1-0.3-0.1-0.4c0-0.1,0-0.3,0.1-0.4s0.2-0.2,0.4-0.3
	c0.3-0.2,0.7-0.3,1.1-0.4s0.8-0.1,1.2-0.1C162.9,490.1,163.5,490.3,164,490.7z M162.7,495.1c0.3-0.3,0.4-0.7,0.4-1.1v-0.3h-0.2
	c-0.6,0-1,0-1.4,0.1c-0.3,0.1-0.6,0.1-0.7,0.3c-0.1,0.1-0.2,0.3-0.2,0.5c0,0.3,0.1,0.5,0.3,0.7s0.4,0.3,0.7,0.3
	C162,495.5,162.4,495.4,162.7,495.1z M170.2,496c0,0.2-0.1,0.4-0.3,0.5c-0.2,0.1-0.4,0.2-0.7,0.1l-0.4,0c-1.5-0.1-2.2-0.9-2.2-2.3
	v-2.8h-0.6c-0.2,0-0.4-0.1-0.5-0.2c-0.1-0.1-0.2-0.3-0.2-0.5s0.1-0.4,0.2-0.5c0.1-0.1,0.3-0.2,0.5-0.2h0.6V489
	c0-0.2,0.1-0.4,0.2-0.6s0.3-0.2,0.6-0.2c0.2,0,0.4,0.1,0.6,0.2s0.2,0.3,0.2,0.6v1.2h1.1c0.2,0,0.4,0.1,0.5,0.2
	c0.1,0.1,0.2,0.3,0.2,0.5s-0.1,0.4-0.2,0.5c-0.1,0.1-0.3,0.2-0.5,0.2h-1.1v3c0,0.6,0.3,1,0.9,1l0.4,0
	C170,495.5,170.2,495.7,170.2,496z M175.8,490.7c0.4,0.4,0.6,1.1,0.6,2v3.2c0,0.2-0.1,0.4-0.2,0.6s-0.3,0.2-0.6,0.2
	c-0.2,0-0.4-0.1-0.6-0.2s-0.2-0.3-0.2-0.5v-0.3c-0.1,0.3-0.4,0.6-0.7,0.8c-0.3,0.2-0.7,0.3-1.1,0.3c-0.4,0-0.8-0.1-1.2-0.3
	s-0.6-0.4-0.8-0.7s-0.3-0.6-0.3-1c0-0.5,0.1-0.8,0.4-1.1c0.2-0.3,0.6-0.5,1.2-0.6c0.5-0.1,1.3-0.2,2.2-0.2h0.3v-0.3
	c0-0.4-0.1-0.7-0.3-0.9c-0.2-0.2-0.5-0.3-0.9-0.3c-0.3,0-0.5,0-0.8,0.1c-0.3,0.1-0.6,0.2-0.9,0.3c-0.2,0.1-0.4,0.2-0.5,0.2
	c-0.2,0-0.3-0.1-0.4-0.2c-0.1-0.1-0.1-0.3-0.1-0.4c0-0.1,0-0.3,0.1-0.4s0.2-0.2,0.4-0.3c0.3-0.2,0.7-0.3,1.1-0.4s0.8-0.1,1.2-0.1
	C174.7,490.1,175.4,490.3,175.8,490.7z M174.5,495.1c0.3-0.3,0.4-0.7,0.4-1.1v-0.3h-0.2c-0.6,0-1,0-1.4,0.1
	c-0.3,0.1-0.6,0.1-0.7,0.3c-0.1,0.1-0.2,0.3-0.2,0.5c0,0.3,0.1,0.5,0.3,0.7s0.4,0.3,0.7,0.3C173.8,495.5,174.2,495.4,174.5,495.1z
	 M183.2,490.5c0.4,0.3,0.8,0.7,1,1.1c0.2,0.5,0.4,1.1,0.4,1.7c0,0.7-0.1,1.2-0.4,1.7c-0.2,0.5-0.6,0.9-1,1.2
	c-0.4,0.3-0.9,0.4-1.5,0.4c-0.5,0-0.9-0.1-1.2-0.3c-0.4-0.2-0.6-0.5-0.8-0.8v0.3c0,0.2-0.1,0.4-0.2,0.6c-0.1,0.1-0.3,0.2-0.6,0.2
	c-0.2,0-0.4-0.1-0.6-0.2s-0.2-0.3-0.2-0.6v-7.8c0-0.2,0.1-0.4,0.2-0.5c0.2-0.1,0.3-0.2,0.6-0.2s0.4,0.1,0.6,0.2s0.2,0.3,0.2,0.5v3.1
	c0.2-0.3,0.5-0.6,0.8-0.8c0.4-0.2,0.8-0.3,1.2-0.3C182.3,490.1,182.8,490.2,183.2,490.5z M182.5,494.9c0.3-0.4,0.4-0.9,0.4-1.5
	c0-0.7-0.1-1.1-0.4-1.5s-0.7-0.5-1.2-0.5s-0.9,0.2-1.2,0.5c-0.3,0.4-0.4,0.9-0.4,1.5c0,0.7,0.1,1.2,0.4,1.5c0.3,0.4,0.7,0.5,1.2,0.5
	C181.8,495.4,182.2,495.2,182.5,494.9z M190.6,490.7c0.4,0.4,0.6,1.1,0.6,2v3.2c0,0.2-0.1,0.4-0.2,0.6s-0.3,0.2-0.6,0.2
	c-0.2,0-0.4-0.1-0.6-0.2s-0.2-0.3-0.2-0.5v-0.3c-0.1,0.3-0.4,0.6-0.7,0.8c-0.3,0.2-0.7,0.3-1.1,0.3c-0.4,0-0.8-0.1-1.2-0.3
	s-0.6-0.4-0.8-0.7s-0.3-0.6-0.3-1c0-0.5,0.1-0.8,0.4-1.1c0.2-0.3,0.6-0.5,1.2-0.6c0.5-0.1,1.3-0.2,2.2-0.2h0.3v-0.3
	c0-0.4-0.1-0.7-0.3-0.9c-0.2-0.2-0.5-0.3-0.9-0.3c-0.3,0-0.5,0-0.8,0.1c-0.3,0.1-0.6,0.2-0.9,0.3c-0.2,0.1-0.4,0.2-0.5,0.2
	c-0.2,0-0.3-0.1-0.4-0.2c-0.1-0.1-0.1-0.3-0.1-0.4c0-0.1,0-0.3,0.1-0.4s0.2-0.2,0.4-0.3c0.3-0.2,0.7-0.3,1.1-0.4s0.8-0.1,1.2-0.1
	C189.5,490.1,190.2,490.3,190.6,490.7z M189.3,495.1c0.3-0.3,0.4-0.7,0.4-1.1v-0.3h-0.2c-0.6,0-1,0-1.4,0.1
	c-0.3,0.1-0.6,0.1-0.7,0.3c-0.1,0.1-0.2,0.3-0.2,0.5c0,0.3,0.1,0.5,0.3,0.7s0.4,0.3,0.7,0.3C188.7,495.5,189,495.4,189.3,495.1z
	 M192.9,496.1c-0.3-0.2-0.4-0.4-0.4-0.7c0-0.2,0-0.3,0.1-0.4s0.2-0.2,0.4-0.2c0.1,0,0.4,0.1,0.6,0.2c0.3,0.1,0.5,0.2,0.8,0.3
	c0.2,0.1,0.5,0.1,0.9,0.1c0.4,0,0.6-0.1,0.9-0.2c0.2-0.1,0.3-0.3,0.3-0.5c0-0.1,0-0.3-0.1-0.4c-0.1-0.1-0.2-0.2-0.4-0.2
	c-0.2-0.1-0.5-0.2-1-0.3c-0.8-0.2-1.3-0.4-1.7-0.7s-0.5-0.7-0.5-1.2c0-0.4,0.1-0.7,0.3-1c0.2-0.3,0.5-0.5,0.9-0.7
	c0.4-0.2,0.8-0.3,1.3-0.3c0.4,0,0.7,0,1.1,0.1s0.6,0.2,0.9,0.4c0.3,0.2,0.4,0.4,0.4,0.7c0,0.2,0,0.3-0.1,0.4
	c-0.1,0.1-0.2,0.2-0.4,0.2c-0.1,0-0.2,0-0.3-0.1c-0.1,0-0.2-0.1-0.3-0.2c-0.3-0.1-0.5-0.2-0.6-0.3c-0.2-0.1-0.4-0.1-0.7-0.1
	c-0.3,0-0.6,0.1-0.8,0.2c-0.2,0.1-0.3,0.3-0.3,0.5c0,0.2,0.1,0.4,0.3,0.5c0.2,0.1,0.6,0.2,1.1,0.3c0.6,0.1,1,0.3,1.4,0.4
	c0.3,0.2,0.6,0.4,0.7,0.6s0.2,0.5,0.2,0.9c0,0.6-0.2,1.1-0.7,1.4c-0.5,0.4-1.1,0.5-2,0.5C194.3,496.7,193.5,496.5,192.9,496.1z
	 M204.6,495c0.1,0.1,0.1,0.3,0.1,0.5c0,0.3-0.2,0.5-0.5,0.7c-0.3,0.2-0.6,0.3-1,0.4c-0.4,0.1-0.7,0.1-1.1,0.1c-1,0-1.8-0.3-2.4-0.9
	c-0.6-0.6-0.9-1.4-0.9-2.4c0-0.7,0.1-1.2,0.4-1.7c0.3-0.5,0.6-0.9,1.1-1.2c0.5-0.3,1-0.4,1.6-0.4c0.6,0,1.1,0.1,1.5,0.4
	c0.4,0.3,0.8,0.6,1,1.1c0.2,0.5,0.4,1,0.4,1.6c0,0.4-0.2,0.6-0.5,0.6h-3.8c0.1,0.6,0.2,1,0.5,1.3c0.3,0.3,0.7,0.4,1.2,0.4
	c0.3,0,0.5,0,0.7-0.1c0.2-0.1,0.5-0.2,0.7-0.3c0.3-0.1,0.5-0.2,0.6-0.2C204.4,494.8,204.5,494.9,204.6,495z M200.9,491.6
	c-0.3,0.3-0.4,0.7-0.5,1.2h2.9c0-0.5-0.1-0.9-0.4-1.2c-0.2-0.3-0.6-0.4-1-0.4C201.6,491.2,201.2,491.3,200.9,491.6z M157,511.5
	c0,0.2-0.1,0.4-0.2,0.5c-0.2,0.2-0.3,0.2-0.5,0.2c-0.2,0-0.4-0.1-0.6-0.3l-4.3-4.1v3.5c0,0.3-0.1,0.5-0.2,0.6
	c-0.2,0.2-0.4,0.2-0.6,0.2c-0.3,0-0.5-0.1-0.6-0.2c-0.2-0.2-0.2-0.4-0.2-0.6v-7.6c0-0.3,0.1-0.5,0.2-0.6c0.2-0.2,0.4-0.2,0.6-0.2
	c0.3,0,0.5,0.1,0.6,0.2c0.2,0.2,0.2,0.4,0.2,0.6v3.3l4.2-3.9c0.2-0.2,0.3-0.2,0.5-0.2c0.2,0,0.4,0.1,0.5,0.2
	c0.2,0.2,0.2,0.3,0.2,0.5s-0.1,0.4-0.3,0.5l-3.5,3.2l3.7,3.5C156.9,511.1,157,511.3,157,511.5z M162.7,506.3c0.4,0.4,0.6,1.1,0.6,2
	v3.2c0,0.2-0.1,0.4-0.2,0.6c-0.1,0.1-0.3,0.2-0.6,0.2c-0.2,0-0.4-0.1-0.6-0.2s-0.2-0.3-0.2-0.5v-0.3c-0.1,0.3-0.4,0.6-0.7,0.8
	c-0.3,0.2-0.7,0.3-1.1,0.3c-0.4,0-0.8-0.1-1.2-0.3c-0.3-0.2-0.6-0.4-0.8-0.7c-0.2-0.3-0.3-0.6-0.3-1c0-0.5,0.1-0.8,0.4-1.1
	c0.2-0.3,0.6-0.5,1.2-0.6c0.5-0.1,1.3-0.2,2.2-0.2h0.3v-0.3c0-0.4-0.1-0.7-0.3-0.9s-0.5-0.3-0.9-0.3c-0.3,0-0.5,0-0.8,0.1
	c-0.3,0.1-0.6,0.2-0.9,0.3c-0.2,0.1-0.4,0.2-0.5,0.2c-0.2,0-0.3-0.1-0.4-0.2s-0.1-0.3-0.1-0.4c0-0.1,0-0.3,0.1-0.4s0.2-0.2,0.4-0.3
	c0.3-0.2,0.7-0.3,1.1-0.4c0.4-0.1,0.8-0.1,1.2-0.1C161.7,505.7,162.3,505.9,162.7,506.3z M161.4,510.7c0.3-0.3,0.4-0.7,0.4-1.1v-0.3
	h-0.2c-0.6,0-1,0-1.4,0.1c-0.3,0.1-0.6,0.1-0.7,0.3s-0.2,0.3-0.2,0.5c0,0.3,0.1,0.5,0.3,0.7s0.4,0.3,0.7,0.3
	C160.8,511.1,161.2,511,161.4,510.7z M169.1,505.8c0.1,0.1,0.2,0.3,0.2,0.5c0,0.2-0.1,0.4-0.2,0.5c-0.1,0.1-0.3,0.2-0.6,0.2l-0.4,0
	c-0.5,0.1-0.9,0.2-1.1,0.5c-0.2,0.3-0.4,0.7-0.4,1.1v2.7c0,0.3-0.1,0.4-0.2,0.6c-0.2,0.1-0.4,0.2-0.6,0.2s-0.4-0.1-0.6-0.2
	c-0.2-0.1-0.2-0.3-0.2-0.6v-5c0-0.2,0.1-0.4,0.2-0.6c0.2-0.1,0.3-0.2,0.6-0.2c0.2,0,0.4,0.1,0.5,0.2c0.1,0.1,0.2,0.3,0.2,0.5v0.5
	c0.2-0.4,0.4-0.7,0.7-0.9s0.7-0.3,1.1-0.4l0.2,0C168.8,505.7,169,505.7,169.1,505.8z M175.1,505.8c0.1-0.1,0.2-0.1,0.4-0.1
	c0.2,0,0.4,0.1,0.5,0.2c0.2,0.1,0.2,0.3,0.2,0.5c0,0.1,0,0.2-0.1,0.3l-3.5,7.4c-0.1,0.3-0.4,0.4-0.7,0.4c-0.2,0-0.4-0.1-0.5-0.2
	c-0.2-0.1-0.2-0.3-0.2-0.5c0-0.1,0-0.2,0.1-0.3l0.9-1.9l-2.4-5c0-0.1-0.1-0.2-0.1-0.3c0-0.2,0.1-0.4,0.3-0.5
	c0.2-0.1,0.4-0.2,0.6-0.2c0.1,0,0.3,0,0.4,0.1c0.1,0.1,0.2,0.2,0.3,0.3l1.8,4l1.8-4C174.9,506,175,505.9,175.1,505.8z M181.9,506.3
	c0.4,0.4,0.6,1.1,0.6,2v3.2c0,0.2-0.1,0.4-0.2,0.6c-0.1,0.1-0.3,0.2-0.6,0.2c-0.2,0-0.4-0.1-0.6-0.2s-0.2-0.3-0.2-0.5v-0.3
	c-0.1,0.3-0.4,0.6-0.7,0.8c-0.3,0.2-0.7,0.3-1.1,0.3c-0.4,0-0.8-0.1-1.2-0.3c-0.3-0.2-0.6-0.4-0.8-0.7c-0.2-0.3-0.3-0.6-0.3-1
	c0-0.5,0.1-0.8,0.4-1.1c0.2-0.3,0.6-0.5,1.2-0.6c0.5-0.1,1.3-0.2,2.2-0.2h0.3v-0.3c0-0.4-0.1-0.7-0.3-0.9s-0.5-0.3-0.9-0.3
	c-0.3,0-0.5,0-0.8,0.1c-0.3,0.1-0.6,0.2-0.9,0.3c-0.2,0.1-0.4,0.2-0.5,0.2c-0.2,0-0.3-0.1-0.4-0.2s-0.1-0.3-0.1-0.4
	c0-0.1,0-0.3,0.1-0.4s0.2-0.2,0.4-0.3c0.3-0.2,0.7-0.3,1.1-0.4c0.4-0.1,0.8-0.1,1.2-0.1C180.8,505.7,181.5,505.9,181.9,506.3z
	 M180.6,510.7c0.3-0.3,0.4-0.7,0.4-1.1v-0.3h-0.2c-0.6,0-1,0-1.4,0.1c-0.3,0.1-0.6,0.1-0.7,0.3s-0.2,0.3-0.2,0.5
	c0,0.3,0.1,0.5,0.3,0.7s0.4,0.3,0.7,0.3C179.9,511.1,180.3,511,180.6,510.7z M193,505.8c0.1-0.1,0.2-0.1,0.4-0.1
	c0.2,0,0.4,0.1,0.5,0.2c0.2,0.1,0.2,0.3,0.2,0.5c0,0.1,0,0.2-0.1,0.3l-2.1,5c-0.1,0.2-0.2,0.3-0.3,0.4c-0.1,0.1-0.3,0.1-0.5,0.1
	c-0.2,0-0.3,0-0.5-0.1c-0.1-0.1-0.2-0.2-0.3-0.4l-1.5-3.7l-1.5,3.7c-0.1,0.2-0.2,0.3-0.3,0.4c-0.1,0.1-0.3,0.1-0.5,0.1
	c-0.2,0-0.3,0-0.5-0.1c-0.1-0.1-0.3-0.2-0.3-0.4l-2.1-5c0-0.1-0.1-0.2-0.1-0.3c0-0.2,0.1-0.4,0.3-0.5c0.2-0.1,0.4-0.2,0.6-0.2
	c0.1,0,0.3,0,0.4,0.1c0.1,0.1,0.2,0.2,0.3,0.4l1.5,4l1.6-3.9c0.1-0.2,0.2-0.3,0.3-0.4c0.1-0.1,0.3-0.1,0.4-0.1c0.2,0,0.3,0,0.4,0.1
	c0.1,0.1,0.2,0.2,0.3,0.4l1.6,3.9l1.5-4C192.8,506,192.9,505.9,193,505.8z M199.9,506.3c0.4,0.4,0.6,1.1,0.6,2v3.2
	c0,0.2-0.1,0.4-0.2,0.6c-0.1,0.1-0.3,0.2-0.6,0.2c-0.2,0-0.4-0.1-0.6-0.2s-0.2-0.3-0.2-0.5v-0.3c-0.1,0.3-0.4,0.6-0.7,0.8
	c-0.3,0.2-0.7,0.3-1.1,0.3c-0.4,0-0.8-0.1-1.2-0.3c-0.3-0.2-0.6-0.4-0.8-0.7c-0.2-0.3-0.3-0.6-0.3-1c0-0.5,0.1-0.8,0.4-1.1
	c0.2-0.3,0.6-0.5,1.2-0.6c0.5-0.1,1.3-0.2,2.2-0.2h0.3v-0.3c0-0.4-0.1-0.7-0.3-0.9s-0.5-0.3-0.9-0.3c-0.3,0-0.5,0-0.8,0.1
	c-0.3,0.1-0.6,0.2-0.9,0.3c-0.2,0.1-0.4,0.2-0.5,0.2c-0.2,0-0.3-0.1-0.4-0.2s-0.1-0.3-0.1-0.4c0-0.1,0-0.3,0.1-0.4s0.2-0.2,0.4-0.3
	c0.3-0.2,0.7-0.3,1.1-0.4c0.4-0.1,0.8-0.1,1.2-0.1C198.9,505.7,199.5,505.9,199.9,506.3z M198.6,510.7c0.3-0.3,0.4-0.7,0.4-1.1v-0.3
	h-0.2c-0.6,0-1,0-1.4,0.1c-0.3,0.1-0.6,0.1-0.7,0.3s-0.2,0.3-0.2,0.5c0,0.3,0.1,0.5,0.3,0.7s0.4,0.3,0.7,0.3
	C198,511.1,198.4,511,198.6,510.7z M207.6,506.3c0.4,0.4,0.6,1.1,0.6,2v3.2c0,0.2-0.1,0.4-0.2,0.6c-0.1,0.1-0.3,0.2-0.6,0.2
	c-0.3,0-0.5-0.1-0.6-0.2s-0.2-0.3-0.2-0.6v-3.1c0-0.5-0.1-0.9-0.3-1.1c-0.2-0.2-0.5-0.3-0.9-0.3c-0.5,0-0.8,0.1-1.1,0.4
	c-0.3,0.3-0.4,0.7-0.4,1.2v2.9c0,0.2-0.1,0.4-0.2,0.6s-0.3,0.2-0.6,0.2c-0.3,0-0.4-0.1-0.6-0.2c-0.1-0.1-0.2-0.3-0.2-0.6v-5
	c0-0.2,0.1-0.4,0.2-0.5s0.3-0.2,0.6-0.2c0.2,0,0.4,0.1,0.6,0.2c0.1,0.1,0.2,0.3,0.2,0.5v0.4c0.2-0.4,0.5-0.6,0.9-0.8
	s0.8-0.3,1.2-0.3C206.7,505.7,207.3,505.9,207.6,506.3z M45.7,238.7c-0.1-0.1-0.2-0.3-0.2-0.6v-7.6c0-0.3,0.1-0.5,0.2-0.6
	c0.2-0.2,0.4-0.2,0.6-0.2c0.3,0,0.5,0.1,0.6,0.2c0.2,0.2,0.2,0.4,0.2,0.6v7h3.7c0.5,0,0.8,0.2,0.8,0.7s-0.3,0.7-0.8,0.7h-4.5
	C46,238.9,45.8,238.8,45.7,238.7z M57.9,237.3c0.1,0.1,0.1,0.3,0.1,0.5c0,0.3-0.2,0.5-0.5,0.7c-0.3,0.2-0.6,0.3-1,0.4
	c-0.4,0.1-0.7,0.1-1.1,0.1c-1,0-1.8-0.3-2.4-0.9c-0.6-0.6-0.9-1.4-0.9-2.4c0-0.6,0.1-1.2,0.4-1.7c0.3-0.5,0.6-0.9,1.1-1.2
	c0.5-0.3,1-0.4,1.6-0.4c0.6,0,1.1,0.1,1.5,0.4c0.4,0.3,0.8,0.6,1,1.1c0.2,0.5,0.4,1,0.4,1.6c0,0.4-0.2,0.6-0.5,0.6h-3.8
	c0.1,0.6,0.2,1,0.5,1.3s0.7,0.4,1.2,0.4c0.3,0,0.5,0,0.7-0.1s0.5-0.2,0.7-0.3c0.3-0.1,0.5-0.2,0.6-0.2
	C57.7,237.1,57.8,237.2,57.9,237.3z M54.2,233.9c-0.3,0.3-0.4,0.7-0.5,1.2h2.9c0-0.5-0.1-0.9-0.4-1.2c-0.2-0.3-0.6-0.4-1-0.4
	C54.8,233.5,54.5,233.6,54.2,233.9z M68.5,233c0.4,0.4,0.6,1.1,0.6,2v3.2c0,0.3-0.1,0.4-0.2,0.6c-0.2,0.1-0.3,0.2-0.6,0.2
	c-0.2,0-0.4-0.1-0.6-0.2c-0.2-0.1-0.2-0.3-0.2-0.6V235c0-0.5-0.1-0.8-0.3-1s-0.4-0.3-0.8-0.3c-0.4,0-0.8,0.1-1,0.4
	c-0.3,0.3-0.4,0.7-0.4,1.2v2.9c0,0.3-0.1,0.4-0.2,0.6c-0.2,0.1-0.3,0.2-0.6,0.2c-0.2,0-0.4-0.1-0.6-0.2c-0.2-0.1-0.2-0.3-0.2-0.6
	V235c0-0.5-0.1-0.8-0.3-1s-0.4-0.3-0.8-0.3c-0.4,0-0.8,0.1-1,0.4c-0.2,0.3-0.4,0.7-0.4,1.2v2.9c0,0.3-0.1,0.4-0.2,0.6
	c-0.2,0.1-0.4,0.2-0.6,0.2s-0.4-0.1-0.6-0.2c-0.2-0.1-0.2-0.3-0.2-0.6v-5c0-0.2,0.1-0.4,0.2-0.6c0.2-0.1,0.4-0.2,0.6-0.2
	c0.2,0,0.4,0.1,0.6,0.2c0.1,0.1,0.2,0.3,0.2,0.5v0.3c0.2-0.3,0.5-0.6,0.8-0.8c0.3-0.2,0.7-0.3,1.2-0.3c1,0,1.6,0.4,1.9,1.2
	c0.2-0.4,0.5-0.7,0.8-0.9c0.4-0.2,0.8-0.3,1.3-0.3C67.6,232.4,68.2,232.6,68.5,233z M75.9,232.8c0.4,0.3,0.8,0.6,1,1.1
	c0.2,0.5,0.4,1.1,0.4,1.7s-0.1,1.2-0.4,1.7c-0.2,0.5-0.6,0.9-1,1.2c-0.4,0.3-0.9,0.4-1.5,0.4c-0.5,0-0.9-0.1-1.2-0.3
	c-0.4-0.2-0.6-0.5-0.8-0.8v0.3c0,0.2-0.1,0.4-0.2,0.6c-0.1,0.1-0.3,0.2-0.6,0.2c-0.2,0-0.4-0.1-0.6-0.2s-0.2-0.3-0.2-0.6v-7.8
	c0-0.2,0.1-0.4,0.2-0.5c0.2-0.1,0.3-0.2,0.6-0.2s0.4,0.1,0.6,0.2c0.1,0.1,0.2,0.3,0.2,0.5v3.1c0.2-0.3,0.5-0.6,0.8-0.8
	c0.4-0.2,0.8-0.3,1.2-0.3C74.9,232.4,75.4,232.5,75.9,232.8z M75.2,237.2c0.3-0.4,0.4-0.9,0.4-1.5c0-0.7-0.1-1.1-0.4-1.5
	s-0.7-0.5-1.2-0.5s-0.9,0.2-1.2,0.5c-0.3,0.4-0.4,0.9-0.4,1.5s0.1,1.2,0.4,1.5c0.3,0.4,0.7,0.5,1.2,0.5
	C74.5,237.7,74.9,237.5,75.2,237.2z M84.2,232.6c0.1,0.1,0.2,0.3,0.2,0.6v5c0,0.2-0.1,0.4-0.2,0.5c-0.2,0.1-0.3,0.2-0.6,0.2
	c-0.2,0-0.4-0.1-0.6-0.2c-0.1-0.1-0.2-0.3-0.2-0.5v-0.3c-0.2,0.3-0.5,0.6-0.8,0.8c-0.3,0.2-0.7,0.3-1.1,0.3c-1.6,0-2.3-0.9-2.3-2.6
	v-3.2c0-0.2,0.1-0.4,0.2-0.6s0.3-0.2,0.6-0.2c0.3,0,0.5,0.1,0.6,0.2s0.2,0.3,0.2,0.6v3.2c0,0.5,0.1,0.8,0.3,1
	c0.2,0.2,0.5,0.3,0.9,0.3c0.5,0,0.8-0.1,1.1-0.4c0.3-0.3,0.4-0.7,0.4-1.2v-2.9c0-0.2,0.1-0.4,0.2-0.6s0.3-0.2,0.6-0.2
	C83.8,232.4,84,232.4,84.2,232.6z M90.2,232.5c0.1,0.1,0.2,0.3,0.2,0.5c0,0.2-0.1,0.4-0.2,0.5c-0.1,0.1-0.3,0.2-0.6,0.2l-0.4,0
	c-0.5,0.1-0.9,0.2-1.1,0.5c-0.2,0.3-0.4,0.7-0.4,1.1v2.7c0,0.3-0.1,0.4-0.2,0.6c-0.2,0.1-0.4,0.2-0.6,0.2s-0.4-0.1-0.6-0.2
	c-0.2-0.1-0.2-0.3-0.2-0.6v-5c0-0.2,0.1-0.4,0.2-0.6c0.2-0.1,0.3-0.2,0.6-0.2c0.2,0,0.4,0.1,0.5,0.2s0.2,0.3,0.2,0.5v0.5
	c0.2-0.4,0.4-0.7,0.7-0.9s0.7-0.3,1.1-0.4l0.2,0C89.9,232.4,90,232.4,90.2,232.5z M299.4,88.2c0-0.2,0-0.3,0.1-0.4
	c0.1-0.1,0.3-0.2,0.5-0.2l0.4,0c0.3,0,0.6-0.1,0.7-0.3s0.2-0.5,0.2-0.9V81c0-0.2,0.1-0.4,0.2-0.6c0.1-0.1,0.3-0.2,0.6-0.2
	c0.2,0,0.4,0.1,0.6,0.2c0.1,0.1,0.2,0.3,0.2,0.6v5.3c0,1.5-0.7,2.3-2.2,2.4l-0.4,0C299.7,88.8,299.4,88.6,299.4,88.2z M309,83.4
	c0.4,0.4,0.6,1,0.6,1.8v2.9c0,0.2-0.1,0.4-0.2,0.5c-0.1,0.1-0.3,0.2-0.5,0.2c-0.2,0-0.4-0.1-0.5-0.2c-0.1-0.1-0.2-0.3-0.2-0.5v-0.3
	c-0.1,0.3-0.3,0.6-0.6,0.7c-0.3,0.2-0.6,0.3-1,0.3c-0.4,0-0.7-0.1-1.1-0.2c-0.3-0.2-0.6-0.4-0.8-0.7s-0.3-0.6-0.3-0.9
	c0-0.4,0.1-0.8,0.3-1c0.2-0.2,0.6-0.4,1.1-0.5c0.5-0.1,1.2-0.2,2-0.2h0.3V85c0-0.4-0.1-0.7-0.3-0.9c-0.2-0.2-0.4-0.3-0.8-0.3
	c-0.2,0-0.5,0-0.7,0.1c-0.2,0.1-0.5,0.2-0.8,0.3c-0.2,0.1-0.4,0.2-0.5,0.2c-0.1,0-0.3-0.1-0.4-0.2c-0.1-0.1-0.1-0.2-0.1-0.4
	c0-0.1,0-0.3,0.1-0.4s0.2-0.2,0.3-0.3c0.3-0.2,0.6-0.3,1-0.4c0.4-0.1,0.8-0.1,1.1-0.1C308,82.8,308.6,83,309,83.4z M307.8,87.4
	c0.2-0.3,0.4-0.6,0.4-1v-0.3h-0.2c-0.5,0-0.9,0-1.2,0.1c-0.3,0-0.5,0.1-0.6,0.3c-0.1,0.1-0.2,0.3-0.2,0.5c0,0.3,0.1,0.5,0.3,0.6
	c0.2,0.2,0.4,0.2,0.7,0.2C307.2,87.8,307.5,87.6,307.8,87.4z M316.5,80.5c0.1,0.1,0.2,0.3,0.2,0.5v7.1c0,0.2-0.1,0.4-0.2,0.5
	c-0.1,0.1-0.3,0.2-0.5,0.2s-0.4-0.1-0.5-0.2c-0.1-0.1-0.2-0.3-0.2-0.5v-0.3c-0.2,0.3-0.4,0.6-0.8,0.8c-0.3,0.2-0.7,0.3-1.1,0.3
	c-0.5,0-0.9-0.1-1.3-0.4c-0.4-0.3-0.7-0.6-0.9-1.1s-0.3-1-0.3-1.6s0.1-1.1,0.3-1.6c0.2-0.5,0.5-0.8,0.9-1.1s0.8-0.4,1.3-0.4
	c0.4,0,0.8,0.1,1.1,0.3c0.3,0.2,0.6,0.4,0.8,0.7v-2.8c0-0.2,0.1-0.4,0.2-0.5c0.1-0.1,0.3-0.2,0.5-0.2
	C316.2,80.3,316.4,80.3,316.5,80.5z M314.9,87.2c0.3-0.3,0.4-0.8,0.4-1.4s-0.1-1.1-0.4-1.4s-0.6-0.5-1.1-0.5c-0.5,0-0.8,0.2-1.1,0.5
	c-0.3,0.3-0.4,0.8-0.4,1.4c0,0.6,0.1,1.1,0.4,1.4c0.3,0.3,0.6,0.5,1.1,0.5C314.2,87.7,314.6,87.5,314.9,87.2z M326.4,82.9
	c0.1-0.1,0.2-0.1,0.4-0.1c0.2,0,0.3,0.1,0.5,0.2s0.2,0.3,0.2,0.5c0,0.1,0,0.2-0.1,0.3l-2,4.6c-0.1,0.2-0.2,0.3-0.3,0.3
	c-0.1,0.1-0.3,0.1-0.4,0.1c-0.2,0-0.3,0-0.4-0.1c-0.1-0.1-0.2-0.2-0.3-0.3l-1.4-3.4l-1.4,3.4c-0.1,0.2-0.2,0.3-0.3,0.3
	c-0.1,0.1-0.3,0.1-0.4,0.1c-0.2,0-0.3,0-0.4-0.1c-0.1-0.1-0.2-0.2-0.3-0.3l-2-4.6c0-0.1-0.1-0.2-0.1-0.3c0-0.2,0.1-0.3,0.2-0.5
	s0.3-0.2,0.5-0.2c0.1,0,0.3,0,0.4,0.1c0.1,0.1,0.2,0.2,0.3,0.3l1.4,3.6l1.4-3.6c0.1-0.2,0.2-0.3,0.3-0.3c0.1-0.1,0.3-0.1,0.4-0.1
	c0.1,0,0.3,0,0.4,0.1c0.1,0.1,0.2,0.2,0.3,0.3l1.5,3.6l1.4-3.6C326.2,83.1,326.3,83,326.4,82.9z M332.7,83.4c0.4,0.4,0.6,1,0.6,1.8
	v2.9c0,0.2-0.1,0.4-0.2,0.5c-0.1,0.1-0.3,0.2-0.5,0.2c-0.2,0-0.4-0.1-0.5-0.2c-0.1-0.1-0.2-0.3-0.2-0.5v-0.3
	c-0.1,0.3-0.3,0.6-0.6,0.7c-0.3,0.2-0.6,0.3-1,0.3c-0.4,0-0.7-0.1-1.1-0.2c-0.3-0.2-0.6-0.4-0.8-0.7s-0.3-0.6-0.3-0.9
	c0-0.4,0.1-0.8,0.3-1c0.2-0.2,0.6-0.4,1.1-0.5c0.5-0.1,1.2-0.2,2-0.2h0.3V85c0-0.4-0.1-0.7-0.3-0.9c-0.2-0.2-0.4-0.3-0.8-0.3
	c-0.2,0-0.5,0-0.7,0.1c-0.2,0.1-0.5,0.2-0.8,0.3c-0.2,0.1-0.4,0.2-0.5,0.2c-0.1,0-0.3-0.1-0.4-0.2c-0.1-0.1-0.1-0.2-0.1-0.4
	c0-0.1,0-0.3,0.1-0.4s0.2-0.2,0.3-0.3c0.3-0.2,0.6-0.3,1-0.4c0.4-0.1,0.8-0.1,1.1-0.1C331.7,82.8,332.3,83,332.7,83.4z M331.5,87.4
	c0.2-0.3,0.4-0.6,0.4-1v-0.3h-0.2c-0.5,0-0.9,0-1.2,0.1c-0.3,0-0.5,0.1-0.6,0.3c-0.1,0.1-0.2,0.3-0.2,0.5c0,0.3,0.1,0.5,0.3,0.6
	c0.2,0.2,0.4,0.2,0.7,0.2C331,87.8,331.3,87.6,331.5,87.4z M335.1,88.6c-0.1-0.1-0.2-0.3-0.2-0.5V81c0-0.2,0.1-0.4,0.2-0.5
	c0.1-0.1,0.3-0.2,0.5-0.2s0.4,0.1,0.5,0.2c0.1,0.1,0.2,0.3,0.2,0.5v7.1c0,0.2-0.1,0.4-0.2,0.5c-0.1,0.1-0.3,0.2-0.5,0.2
	S335.2,88.8,335.1,88.6z M348,88.1c0,0.2-0.1,0.3-0.2,0.5c-0.1,0.1-0.3,0.2-0.5,0.2c-0.2,0-0.4-0.1-0.5-0.3l-4-3.7V88
	c0,0.2-0.1,0.4-0.2,0.6c-0.1,0.1-0.3,0.2-0.6,0.2c-0.2,0-0.4-0.1-0.6-0.2c-0.1-0.1-0.2-0.3-0.2-0.6v-7c0-0.2,0.1-0.4,0.2-0.6
	c0.1-0.1,0.3-0.2,0.6-0.2c0.2,0,0.4,0.1,0.6,0.2c0.1,0.1,0.2,0.3,0.2,0.6v3.1l3.8-3.6c0.1-0.1,0.3-0.2,0.5-0.2
	c0.2,0,0.3,0.1,0.5,0.2c0.1,0.1,0.2,0.3,0.2,0.5s-0.1,0.4-0.2,0.5l-3.2,2.9l3.4,3.2C347.9,87.7,348,87.9,348,88.1z M353.9,87.3
	c0.1,0.1,0.1,0.2,0.1,0.4c0,0.2-0.1,0.5-0.4,0.6c-0.3,0.2-0.6,0.3-0.9,0.4c-0.3,0.1-0.7,0.1-1,0.1c-0.9,0-1.7-0.3-2.2-0.8
	s-0.8-1.3-0.8-2.2c0-0.6,0.1-1.1,0.4-1.6s0.6-0.8,1-1.1s0.9-0.4,1.5-0.4c0.5,0,1,0.1,1.4,0.3c0.4,0.2,0.7,0.6,0.9,1
	c0.2,0.4,0.3,0.9,0.3,1.5c0,0.3-0.2,0.5-0.5,0.5h-3.5c0,0.5,0.2,1,0.5,1.2c0.3,0.3,0.6,0.4,1.1,0.4c0.3,0,0.5,0,0.7-0.1
	c0.2-0.1,0.4-0.2,0.7-0.3c0.2-0.1,0.4-0.2,0.5-0.2C353.7,87.1,353.8,87.2,353.9,87.3z M350.5,84.2c-0.2,0.3-0.4,0.6-0.4,1.1h2.7
	c0-0.5-0.1-0.9-0.4-1.1s-0.5-0.4-0.9-0.4C351.1,83.8,350.7,83.9,350.5,84.2z M359,82.9c0.1,0.1,0.2,0.3,0.2,0.5
	c0,0.2-0.1,0.4-0.2,0.5s-0.3,0.2-0.6,0.2l-0.4,0c-0.5,0-0.8,0.2-1,0.5c-0.2,0.3-0.3,0.6-0.3,1v2.5c0,0.2-0.1,0.4-0.2,0.5
	c-0.1,0.1-0.3,0.2-0.5,0.2s-0.4-0.1-0.5-0.2c-0.1-0.1-0.2-0.3-0.2-0.5v-4.6c0-0.2,0.1-0.4,0.2-0.5c0.1-0.1,0.3-0.2,0.5-0.2
	c0.2,0,0.4,0.1,0.5,0.2c0.1,0.1,0.2,0.3,0.2,0.5v0.5c0.2-0.4,0.4-0.6,0.7-0.8c0.3-0.2,0.6-0.3,1-0.3l0.2,0
	C358.7,82.8,358.9,82.8,359,82.9z M358.3,90.8c-0.2-0.1-0.2-0.2-0.2-0.4c0-0.3,0.2-0.5,0.6-0.5l0.3,0c0.3,0,0.5-0.1,0.6-0.3
	c0.1-0.2,0.2-0.4,0.2-0.7v-5.4c0-0.2,0.1-0.4,0.2-0.5c0.1-0.1,0.3-0.2,0.5-0.2s0.4,0.1,0.5,0.2c0.1,0.1,0.2,0.3,0.2,0.5v5.3
	c0,1.3-0.7,2.1-2,2.1l-0.3,0C358.7,90.9,358.5,90.9,358.3,90.8z M359.9,81.5c-0.2-0.1-0.2-0.3-0.2-0.6c0-0.2,0.1-0.4,0.2-0.6
	c0.2-0.1,0.4-0.2,0.6-0.2c0.3,0,0.5,0.1,0.6,0.2c0.2,0.1,0.2,0.3,0.2,0.6c0,0.2-0.1,0.4-0.2,0.6c-0.2,0.1-0.4,0.2-0.6,0.2
	C360.3,81.7,360.1,81.7,359.9,81.5z M367.2,83.4c0.4,0.4,0.6,1,0.6,1.8v2.9c0,0.2-0.1,0.4-0.2,0.5c-0.1,0.1-0.3,0.2-0.5,0.2
	c-0.2,0-0.4-0.1-0.5-0.2c-0.1-0.1-0.2-0.3-0.2-0.5v-0.3c-0.1,0.3-0.3,0.6-0.6,0.7c-0.3,0.2-0.6,0.3-1,0.3c-0.4,0-0.7-0.1-1.1-0.2
	c-0.3-0.2-0.6-0.4-0.8-0.7s-0.3-0.6-0.3-0.9c0-0.4,0.1-0.8,0.3-1c0.2-0.2,0.6-0.4,1.1-0.5c0.5-0.1,1.2-0.2,2-0.2h0.3V85
	c0-0.4-0.1-0.7-0.3-0.9c-0.2-0.2-0.4-0.3-0.8-0.3c-0.2,0-0.5,0-0.7,0.1c-0.2,0.1-0.5,0.2-0.8,0.3c-0.2,0.1-0.4,0.2-0.5,0.2
	c-0.1,0-0.3-0.1-0.4-0.2c-0.1-0.1-0.1-0.2-0.1-0.4c0-0.1,0-0.3,0.1-0.4s0.2-0.2,0.3-0.3c0.3-0.2,0.6-0.3,1-0.4
	c0.4-0.1,0.8-0.1,1.1-0.1C366.2,82.8,366.8,83,367.2,83.4z M366,87.4c0.2-0.3,0.4-0.6,0.4-1v-0.3h-0.2c-0.5,0-0.9,0-1.2,0.1
	c-0.3,0-0.5,0.1-0.6,0.3c-0.1,0.1-0.2,0.3-0.2,0.5c0,0.3,0.1,0.5,0.3,0.6c0.2,0.2,0.4,0.2,0.7,0.2C365.4,87.8,365.7,87.6,366,87.4z
	 M132.5,94.3c0.5,0.3,0.9,0.8,1.2,1.3c0.3,0.6,0.4,1.2,0.4,2c0,0.8-0.1,1.4-0.4,2c-0.3,0.6-0.7,1-1.2,1.4c-0.5,0.3-1.1,0.5-1.7,0.5
	c-0.5,0-1-0.1-1.4-0.3c-0.4-0.2-0.7-0.6-1-1v0.4c0,0.3-0.1,0.5-0.3,0.6c-0.2,0.2-0.4,0.2-0.7,0.2c-0.3,0-0.5-0.1-0.7-0.2
	c-0.2-0.2-0.2-0.4-0.2-0.6v-9c0-0.3,0.1-0.5,0.3-0.6c0.2-0.2,0.4-0.2,0.7-0.2s0.5,0.1,0.7,0.2c0.2,0.2,0.3,0.4,0.3,0.6v3.6
	c0.2-0.4,0.5-0.7,1-0.9c0.4-0.2,0.9-0.3,1.4-0.3C131.4,93.9,132,94,132.5,94.3z M131.7,99.4c0.3-0.4,0.5-1,0.5-1.8
	c0-0.8-0.2-1.3-0.5-1.7c-0.3-0.4-0.8-0.6-1.4-0.6s-1.1,0.2-1.4,0.6c-0.3,0.4-0.5,1-0.5,1.8c0,0.8,0.2,1.4,0.5,1.8
	c0.3,0.4,0.8,0.6,1.4,0.6C130.9,100.1,131.3,99.9,131.7,99.4z M135.6,100.9c-0.3-0.2-0.5-0.5-0.5-0.8c0-0.2,0.1-0.4,0.2-0.5
	c0.1-0.1,0.2-0.2,0.4-0.2c0.2,0,0.4,0.1,0.7,0.2c0.3,0.2,0.6,0.3,0.9,0.3c0.3,0.1,0.6,0.1,1,0.1c0.4,0,0.8-0.1,1-0.2
	c0.2-0.1,0.4-0.3,0.4-0.6c0-0.2,0-0.3-0.1-0.4s-0.3-0.2-0.5-0.3c-0.2-0.1-0.6-0.2-1.1-0.3c-0.9-0.2-1.5-0.4-1.9-0.8
	c-0.4-0.3-0.6-0.8-0.6-1.4c0-0.4,0.1-0.8,0.4-1.2c0.3-0.4,0.6-0.6,1.1-0.8c0.5-0.2,1-0.3,1.6-0.3c0.4,0,0.8,0.1,1.2,0.2
	c0.4,0.1,0.7,0.3,1.1,0.5c0.3,0.2,0.5,0.5,0.5,0.8c0,0.2-0.1,0.4-0.2,0.5c-0.1,0.1-0.2,0.2-0.4,0.2c-0.1,0-0.2,0-0.3-0.1
	c-0.1,0-0.2-0.1-0.4-0.2c-0.3-0.2-0.5-0.3-0.8-0.3c-0.2-0.1-0.5-0.1-0.8-0.1c-0.4,0-0.7,0.1-0.9,0.2s-0.3,0.4-0.3,0.6
	c0,0.3,0.1,0.4,0.3,0.6c0.2,0.1,0.6,0.3,1.3,0.4c0.7,0.1,1.2,0.3,1.6,0.5c0.4,0.2,0.7,0.4,0.8,0.7s0.2,0.6,0.2,1
	c0,0.7-0.3,1.2-0.9,1.6c-0.6,0.4-1.3,0.6-2.3,0.6C137.2,101.5,136.3,101.3,135.6,100.9z M149.2,99.6c0.1,0.1,0.2,0.3,0.2,0.5
	c0,0.3-0.2,0.6-0.6,0.8c-0.3,0.2-0.7,0.3-1.2,0.5c-0.4,0.1-0.8,0.2-1.2,0.2c-1.2,0-2.1-0.3-2.8-1c-0.7-0.7-1-1.6-1-2.8
	c0-0.8,0.2-1.4,0.5-2s0.7-1,1.3-1.4c0.5-0.3,1.2-0.5,1.9-0.5c0.7,0,1.2,0.1,1.7,0.4c0.5,0.3,0.9,0.7,1.1,1.2s0.4,1.2,0.4,1.9
	c0,0.4-0.2,0.6-0.6,0.6h-4.5c0.1,0.7,0.3,1.2,0.6,1.5c0.3,0.3,0.8,0.5,1.4,0.5c0.3,0,0.6,0,0.9-0.1c0.2-0.1,0.5-0.2,0.8-0.3
	c0.3-0.2,0.5-0.2,0.7-0.2C148.9,99.4,149.1,99.5,149.2,99.6z M144.9,95.7c-0.3,0.3-0.5,0.8-0.6,1.4h3.4c0-0.6-0.2-1.1-0.5-1.4
	c-0.3-0.3-0.7-0.5-1.2-0.5C145.6,95.2,145.2,95.3,144.9,95.7z M157.2,94.6c0.4,0.5,0.6,1.3,0.6,2.3v3.7c0,0.3-0.1,0.5-0.2,0.7
	s-0.4,0.2-0.7,0.2c-0.3,0-0.5-0.1-0.7-0.2c-0.2-0.2-0.3-0.4-0.3-0.7V97c0-0.6-0.1-1-0.3-1.3c-0.2-0.3-0.6-0.4-1-0.4
	c-0.5,0-1,0.2-1.3,0.5c-0.3,0.3-0.5,0.8-0.5,1.4v3.4c0,0.3-0.1,0.5-0.3,0.7c-0.2,0.2-0.4,0.2-0.7,0.2c-0.3,0-0.5-0.1-0.7-0.2
	c-0.2-0.2-0.2-0.4-0.2-0.7v-5.8c0-0.3,0.1-0.5,0.3-0.6c0.2-0.2,0.4-0.2,0.7-0.2c0.3,0,0.5,0.1,0.6,0.2c0.2,0.2,0.2,0.4,0.2,0.6v0.4
	c0.3-0.4,0.6-0.7,1-1c0.4-0.2,0.9-0.3,1.4-0.3C156.1,93.9,156.8,94.1,157.2,94.6z M159.8,100.9c-0.3-0.2-0.5-0.5-0.5-0.8
	c0-0.2,0.1-0.4,0.2-0.5c0.1-0.1,0.2-0.2,0.4-0.2c0.2,0,0.4,0.1,0.7,0.2c0.3,0.2,0.6,0.3,0.9,0.3c0.3,0.1,0.6,0.1,1,0.1
	c0.4,0,0.8-0.1,1-0.2c0.2-0.1,0.4-0.3,0.4-0.6c0-0.2,0-0.3-0.1-0.4s-0.3-0.2-0.5-0.3c-0.2-0.1-0.6-0.2-1.1-0.3
	c-0.9-0.2-1.5-0.4-1.9-0.8c-0.4-0.3-0.6-0.8-0.6-1.4c0-0.4,0.1-0.8,0.4-1.2c0.3-0.4,0.6-0.6,1.1-0.8c0.5-0.2,1-0.3,1.6-0.3
	c0.4,0,0.8,0.1,1.2,0.2c0.4,0.1,0.7,0.3,1.1,0.5c0.3,0.2,0.5,0.5,0.5,0.8c0,0.2-0.1,0.4-0.2,0.5c-0.1,0.1-0.2,0.2-0.4,0.2
	c-0.1,0-0.2,0-0.3-0.1c-0.1,0-0.2-0.1-0.4-0.2c-0.3-0.2-0.5-0.3-0.8-0.3c-0.2-0.1-0.5-0.1-0.8-0.1c-0.4,0-0.7,0.1-0.9,0.2
	s-0.3,0.4-0.3,0.6c0,0.3,0.1,0.4,0.3,0.6c0.2,0.1,0.6,0.3,1.3,0.4c0.7,0.1,1.2,0.3,1.6,0.5c0.4,0.2,0.7,0.4,0.8,0.7s0.2,0.6,0.2,1
	c0,0.7-0.3,1.2-0.9,1.6c-0.6,0.4-1.3,0.6-2.3,0.6C161.3,101.5,160.5,101.3,159.8,100.9z M167.2,92.3c-0.2-0.2-0.3-0.4-0.3-0.7
	s0.1-0.5,0.3-0.7c0.2-0.2,0.5-0.3,0.8-0.3c0.3,0,0.6,0.1,0.8,0.3c0.2,0.2,0.3,0.4,0.3,0.7s-0.1,0.5-0.3,0.7s-0.5,0.3-0.8,0.3
	C167.7,92.5,167.4,92.4,167.2,92.3z M167.3,101.3c-0.2-0.2-0.3-0.4-0.3-0.7v-5.8c0-0.3,0.1-0.5,0.3-0.7c0.2-0.2,0.4-0.2,0.7-0.2
	c0.3,0,0.5,0.1,0.7,0.2s0.3,0.4,0.3,0.7v5.8c0,0.3-0.1,0.5-0.3,0.7c-0.2,0.2-0.4,0.2-0.7,0.2C167.7,101.5,167.5,101.4,167.3,101.3z"
	/>
</svg>
