<?xml version="1.0" encoding="utf-8"?>
<!-- Generator: Adobe Illustrator 24.0.1, SVG Export Plug-In . SVG Version: 6.00 Build 0)  -->
<svg version="1.1" id="Layer_1" xmlns="http://www.w3.org/2000/svg" xmlns:xlink="http://www.w3.org/1999/xlink" x="0px" y="0px"
	 viewBox="0 0 400 525" style="enable-background:new 0 0 400 525;" xml:space="preserve">
<style type="text/css">
	.st0{opacity:0.15;fill:#6D6D6D;enable-background:new    ;}
	.st1{fill:#FFFFFF;}
	.st2{opacity:0.4;fill:#FDC933;enable-background:new    ;}
	.st3{fill:none;stroke:#1A2E35;stroke-width:1.4268;stroke-linecap:round;stroke-linejoin:round;stroke-miterlimit:10;}
	.st4{fill:#1A2E35;}
	.st5{fill:#FFFFFF;stroke:#1A2E35;stroke-width:1.4268;stroke-linecap:round;stroke-linejoin:round;stroke-miterlimit:10;}
	.st6{clip-path:url(#SVGID_2_);}
	.st7{fill:#F7F7F7;}
	.st8{fill:none;stroke:#000000;stroke-width:0.4079;stroke-opacity:0.1;}
	.st9{fill:#010021;fill-opacity:0.5;}
	.st10{fill:#010021;}
	.st11{fill-opacity:0.75;}
	.st12{fill:#259E91;}
	.st13{fill:#FFFFFF;stroke:#259E91;stroke-width:0.6047;stroke-miterlimit:10;}
	.st14{clip-path:url(#SVGID_4_);}
	.st15{opacity:0.8;fill:#FFFFFF;enable-background:new    ;}
	.st16{opacity:0.58;fill:#FFFFFF;enable-background:new    ;}
	.st17{fill:#DDDDDD;}
	.st18{clip-path:url(#SVGID_6_);}
	.st19{clip-path:url(#SVGID_8_);}
	.st20{fill:#555555;}
	.st21{fill:#259E91;stroke:#F7F7F7;stroke-width:0.2041;stroke-miterlimit:10;}
	.st22{fill:#FDC933;}
</style>
<path class="st0" d="M206.2,0.2c0.3,0,0.5,0,0.8,0C278.6,4,330.2,52.5,330.1,125.5c0,38.1,37.4,68.2,54.6,99.2
	c59.5,107-67.9,205.6-163.6,219.1c-86.4,12.2-178-57.1-207.8-135.4c-26.2-68.8-12-149.8,25.9-211.5c3.8-6.2,7.9-12.2,12.2-18
	C87.5,30.2,144.6-2.7,206.2,0.2z"/>
<g>
	<g>
		<path class="st1" d="M173,345.8c-0.5,18.6,8.7,17.1,8.7,17.1c0.6-1.5,1.9-3.7,3.5-6.1c4.8-7.4,12.2-17.8,9.4-23.9
			c-1.3-2.8-3.6-6.7-6.2-10.6c-4.9-7.6-10.6-15.2-10.6-15.2l24.6-4.1c0,0,17.5,7.2,31.3,8.1c0.4,0,0.7,0,1.1,0
			c12.6,0.2,10.6-9.6,10.6-12.8c0-1.4-3.4-3.8-7.4-6.3c-5.7-3.5-12.6-6.9-12.6-6.9l3.7-7.7c2.6,0.5,4.7,0.6,6.5,0.3
			c9.6-1,8.2-10.5,6.7-14.6c-0.4-1.2-2.6-3-5.7-5c-9.8-6.5-28.6-15.5-28.6-15.5h-27.6l-27.2,74.1C153.2,316.7,173.5,327.2,173,345.8
			z"/>
		<path class="st2" d="M173,345.8c-0.5,18.6,8.7,17.1,8.7,17.1c0.6-1.5,1.9-3.7,3.5-6.1c4.8-7.4,12.2-17.8,9.4-23.9
			c-1.3-2.8-3.6-6.7-6.2-10.6c-4.9-7.6-10.6-15.2-10.6-15.2l24.6-4.1c0,0,17.5,7.2,31.3,8.1c0.4,0,0.7,0,1.1,0
			c12.6,0.2,10.6-9.6,10.6-12.8c0-1.4-3.4-3.8-7.4-6.3c-5.7-3.5-12.6-6.9-12.6-6.9l3.7-7.7c2.6,0.5,4.7,0.6,6.5,0.3
			c9.6-1,8.2-10.5,6.7-14.6c-0.4-1.2-2.6-3-5.7-5c-9.8-6.5-28.6-15.5-28.6-15.5h-27.6l-27.2,74.1C153.2,316.7,173.5,327.2,173,345.8
			z"/>
		<path class="st2" d="M173,345.8c-0.5,18.6,8.7,17.1,8.7,17.1c0.6-1.5,1.9-3.7,3.5-6.1c-0.3-1.7-0.5-3.6-0.5-5.4
			c0.1-6.4,5.3-18.5,5.3-18.5l-5.3-8.4c0.8-0.8,2.1-1.5,3.8-2.2c-4.9-7.6-10.6-15.2-10.6-15.2l24.6-4.1c0,0,17.5,7.2,31.3,8.1
			c0.4,0,0.7,0,1.1,0c-0.8-6.9,1.9-15.6,3.2-19.1c-5.7-3.5-12.6-6.9-12.6-6.9l3.7-7.7c2.6,0.5,4.7,0.6,6.5,0.3
			c-1.3-6-0.1-14.4,1-19.6c-9.8-6.5-28.6-15.5-28.6-15.5h-27.6l-27.2,74.1C153.2,316.7,173.5,327.2,173,345.8z"/>
		<g>
			<path class="st3" d="M180.4,242.5H208c0,0,32.5,15.6,34.4,20.5c1.8,4.9,3.3,17.2-13.2,14.2l-3.7,7.7c0,0,20,9.9,20,13.2
				c0,3.3,2.2,13.6-11.6,12.8c-13.8-0.8-31.3-8.1-31.3-8.1l-24.6,4.1c0,0,13.1,17.6,16.7,25.8c3.7,8.2-10.6,23.9-12.9,30.1
				c0,0-9.2,1.5-8.7-17.1s-19.8-29.1-19.8-29.1"/>
			<path class="st3" d="M186.9,329.5c0,0-6.9-3.9-10.7,3.3"/>
		</g>
	</g>
	<g>
		<path class="st4" d="M275.4,366.1H130.7c-5.1,0-9.3-4.1-9.3-9.3V63.5c0-5.1,4.1-9.3,9.3-9.3h144.7c5.1,0,9.3,4.1,9.3,9.3v293.4
			C284.7,362,280.5,366.1,275.4,366.1z"/>
		<path class="st4" d="M279.6,65.7v289.7c0,3.3-2.6,5.9-5.9,5.9H132.4c-3.3,0-5.9-2.6-5.9-5.9V65.7c0-3.3,2.6-5.9,5.9-5.9h31.4
			c2.1,0,3.9,1.3,4.6,3.2l1.3,3.6c0.7,1.9,2.6,3.2,4.6,3.2h57.3c2.1,0,3.9-1.3,4.6-3.2l1.3-3.6c0.7-1.9,2.6-3.2,4.6-3.2h31.4
			C277,59.8,279.6,62.5,279.6,65.7z"/>
		<g>
			<path class="st5" d="M189.6,62.7c0,1.3-1.1,2.4-2.4,2.4c-1.3,0-2.4-1.1-2.4-2.4c0-1.3,1.1-2.4,2.4-2.4
				C188.5,60.3,189.6,61.4,189.6,62.7z"/>
			<path class="st5" d="M221.5,62.7c0,0.8-0.7,1.5-1.5,1.5s-1.5-0.7-1.5-1.5s0.7-1.5,1.5-1.5C220.8,61.2,221.5,61.9,221.5,62.7z"/>
			<path class="st5" d="M212.8,63.6h-18.3c-0.5,0-0.9-0.4-0.9-0.9l0,0c0-0.5,0.4-0.9,0.9-0.9h18.3c0.5,0,0.9,0.4,0.9,0.9l0,0
				C213.6,63.2,213.3,63.6,212.8,63.6z"/>
		</g>
	</g>
	<g>
		<g>
			<defs>
				<path id="SVGID_1_" d="M279.6,65.7v289.7c0,3.3-2.6,5.9-5.9,5.9H132.4c-3.3,0-5.9-2.6-5.9-5.9V65.7c0-3.3,2.6-5.9,5.9-5.9h31.4
					c2.1,0,3.9,1.3,4.6,3.2l1.3,3.6c0.7,1.9,2.6,3.2,4.6,3.2h57.3c2.1,0,3.9-1.3,4.6-3.2l1.3-3.6c0.7-1.9,2.6-3.2,4.6-3.2h31.4
					C277,59.8,279.6,62.5,279.6,65.7z"/>
			</defs>
			<clipPath id="SVGID_2_">
				<use xlink:href="#SVGID_1_"  style="overflow:visible;"/>
			</clipPath>
			<g class="st6">
				<rect x="126.5" y="59.8" class="st7" width="153.1" height="301.5"/>
				<g>
					<g>
						<path class="st1" d="M145,341.3h116.2c3.4,0,6.1,2.7,6.1,6.1v25.7c0,3.4-2.7,6.1-6.1,6.1H145c-3.4,0-6.1-2.7-6.1-6.1v-25.7
							C138.9,344,141.7,341.3,145,341.3z"/>
						<path class="st8" d="M145,341.5h116.2c3.3,0,5.9,2.6,5.9,5.9v25.7c0,3.3-2.6,5.9-5.9,5.9H145c-3.3,0-5.9-2.6-5.9-5.9v-25.7
							C139.1,344.1,141.8,341.5,145,341.5z"/>
					</g>
					<path class="st9" d="M235.4,363v-0.4h0.9v3.5h-0.5V363H235.4z M240.2,364.4c0.1,0,0.2,0.1,0.3,0.2c0.1,0.1,0.2,0.2,0.2,0.3
						c0.1,0.1,0.1,0.2,0.1,0.4c0,0.2,0,0.3-0.1,0.5c-0.1,0.1-0.2,0.2-0.4,0.3c-0.2,0.1-0.4,0.1-0.6,0.1h-1.3v-3.4h1.2
						c0.2,0,0.4,0,0.6,0.1c0.2,0.1,0.3,0.2,0.4,0.3c0.1,0.1,0.1,0.3,0.1,0.4c0,0.2-0.1,0.4-0.2,0.5
						C240.5,364.2,240.4,364.3,240.2,364.4z M238.9,364.2h0.7c0.2,0,0.4,0,0.5-0.1c0.1-0.1,0.2-0.2,0.2-0.4s-0.1-0.3-0.2-0.4
						c-0.1-0.1-0.3-0.1-0.5-0.1h-0.7V364.2z M239.7,365.8c0.2,0,0.4-0.1,0.5-0.2c0.1-0.1,0.2-0.2,0.2-0.4c0-0.2-0.1-0.3-0.2-0.4
						c-0.1-0.1-0.3-0.2-0.5-0.2h-0.8v1.2H239.7z M243.9,363.5v2.7h-0.4v-0.4c-0.1,0.1-0.2,0.2-0.4,0.3c-0.2,0.1-0.3,0.1-0.5,0.1
						c-0.2,0-0.4,0-0.6-0.1c-0.2-0.1-0.3-0.2-0.4-0.4c-0.1-0.2-0.1-0.4-0.1-0.6v-1.6h0.4v1.5c0,0.3,0.1,0.5,0.2,0.6
						c0.1,0.1,0.3,0.2,0.5,0.2c0.2,0,0.4-0.1,0.6-0.2c0.1-0.1,0.2-0.4,0.2-0.6v-1.5H243.9z M245.1,362.5v3.6h-0.4v-3.6H245.1z
						 M245.7,364.8c0-0.3,0.1-0.5,0.2-0.7c0.1-0.2,0.3-0.4,0.5-0.5c0.2-0.1,0.4-0.2,0.7-0.2c0.2,0,0.4,0.1,0.6,0.2
						c0.2,0.1,0.3,0.2,0.4,0.4v-0.5h0.5v2.7h-0.5v-0.5c-0.1,0.2-0.2,0.3-0.4,0.4c-0.2,0.1-0.4,0.2-0.6,0.2c-0.2,0-0.5-0.1-0.6-0.2
						s-0.3-0.3-0.5-0.5C245.7,365.3,245.7,365.1,245.7,364.8z M247.9,364.8c0-0.2,0-0.4-0.1-0.5c-0.1-0.2-0.2-0.3-0.3-0.3
						c-0.1-0.1-0.3-0.1-0.5-0.1c-0.2,0-0.3,0-0.5,0.1c-0.1,0.1-0.2,0.2-0.3,0.3c-0.1,0.2-0.1,0.3-0.1,0.5c0,0.2,0,0.4,0.1,0.5
						c0.1,0.2,0.2,0.3,0.3,0.3c0.1,0.1,0.3,0.1,0.5,0.1c0.2,0,0.3,0,0.5-0.1c0.1-0.1,0.3-0.2,0.3-0.3
						C247.9,365.2,247.9,365,247.9,364.8z M250.5,363.4c0.3,0,0.6,0.1,0.8,0.3c0.2,0.2,0.3,0.5,0.3,0.9v1.6h-0.4v-1.5
						c0-0.3-0.1-0.5-0.2-0.6c-0.1-0.1-0.3-0.2-0.5-0.2c-0.2,0-0.4,0.1-0.6,0.2c-0.1,0.1-0.2,0.4-0.2,0.6v1.5h-0.4v-2.7h0.4v0.4
						c0.1-0.1,0.2-0.2,0.4-0.3C250.1,363.4,250.3,363.4,250.5,363.4z"/>
					<path class="st10" d="M152.6,363v-0.4h0.9v3.5H153V363H152.6z M156.7,362.7c0.4,0,0.7,0.1,1,0.2c0.3,0.1,0.5,0.3,0.6,0.6
						c0.1,0.3,0.2,0.6,0.2,0.9c0,0.3-0.1,0.7-0.2,0.9c-0.1,0.3-0.4,0.5-0.6,0.6c-0.3,0.1-0.6,0.2-1,0.2h-1.1v-3.4H156.7z
						 M156.7,365.8c0.4,0,0.8-0.1,1-0.3c0.2-0.2,0.3-0.6,0.3-1c0-0.4-0.1-0.8-0.4-1c-0.2-0.2-0.6-0.4-1-0.4h-0.6v2.7H156.7z
						 M161.5,364.7c0,0.1,0,0.2,0,0.3h-2.1c0,0.3,0.1,0.5,0.3,0.6c0.2,0.1,0.4,0.2,0.6,0.2c0.2,0,0.4,0,0.5-0.1
						c0.1-0.1,0.2-0.2,0.3-0.4h0.5c-0.1,0.3-0.2,0.5-0.4,0.6c-0.2,0.2-0.5,0.2-0.8,0.2c-0.3,0-0.5-0.1-0.7-0.2
						c-0.2-0.1-0.4-0.3-0.5-0.5c-0.1-0.2-0.2-0.5-0.2-0.7c0-0.3,0.1-0.5,0.2-0.7s0.3-0.4,0.5-0.5c0.2-0.1,0.4-0.2,0.7-0.2
						c0.3,0,0.5,0.1,0.7,0.2c0.2,0.1,0.3,0.3,0.5,0.5C161.5,364.2,161.5,364.4,161.5,364.7z M161.1,364.6c0-0.2,0-0.3-0.1-0.4
						c-0.1-0.1-0.2-0.2-0.3-0.3c-0.1-0.1-0.3-0.1-0.4-0.1c-0.2,0-0.4,0.1-0.6,0.2c-0.2,0.1-0.2,0.3-0.3,0.6H161.1z M163.1,366.2
						c-0.2,0-0.4,0-0.6-0.1c-0.2-0.1-0.3-0.2-0.4-0.3c-0.1-0.1-0.1-0.3-0.2-0.4h0.5c0,0.1,0.1,0.2,0.2,0.3c0.1,0.1,0.3,0.1,0.4,0.1
						c0.2,0,0.3,0,0.4-0.1s0.1-0.2,0.1-0.3c0-0.1-0.1-0.2-0.2-0.3c-0.1-0.1-0.3-0.1-0.5-0.2c-0.2-0.1-0.4-0.1-0.5-0.2
						c-0.1-0.1-0.2-0.1-0.3-0.2c-0.1-0.1-0.1-0.2-0.1-0.4c0-0.1,0-0.3,0.1-0.4c0.1-0.1,0.2-0.2,0.3-0.3c0.2-0.1,0.3-0.1,0.5-0.1
						c0.3,0,0.5,0.1,0.7,0.2c0.2,0.2,0.3,0.4,0.3,0.6h-0.4c0-0.1-0.1-0.3-0.2-0.3c-0.1-0.1-0.2-0.1-0.4-0.1c-0.2,0-0.3,0-0.4,0.1
						s-0.1,0.2-0.1,0.3c0,0.1,0,0.2,0.1,0.2c0.1,0.1,0.1,0.1,0.2,0.1c0.1,0,0.2,0.1,0.4,0.1c0.2,0.1,0.3,0.1,0.5,0.2
						c0.1,0,0.2,0.1,0.3,0.2c0.1,0.1,0.1,0.2,0.1,0.4c0,0.1,0,0.3-0.1,0.4s-0.2,0.2-0.3,0.3C163.4,366.1,163.3,366.2,163.1,366.2z
						 M167.1,364.7c0,0.1,0,0.2,0,0.3H165c0,0.3,0.1,0.5,0.3,0.6c0.2,0.1,0.4,0.2,0.6,0.2c0.2,0,0.4,0,0.5-0.1
						c0.1-0.1,0.2-0.2,0.3-0.4h0.5c-0.1,0.3-0.2,0.5-0.4,0.6c-0.2,0.2-0.5,0.2-0.8,0.2c-0.3,0-0.5-0.1-0.7-0.2
						c-0.2-0.1-0.4-0.3-0.5-0.5c-0.1-0.2-0.2-0.5-0.2-0.7c0-0.3,0.1-0.5,0.2-0.7s0.3-0.4,0.5-0.5c0.2-0.1,0.4-0.2,0.7-0.2
						c0.3,0,0.5,0.1,0.7,0.2c0.2,0.1,0.3,0.3,0.5,0.5C167.1,364.2,167.1,364.4,167.1,364.7z M166.7,364.6c0-0.2,0-0.3-0.1-0.4
						c-0.1-0.1-0.2-0.2-0.3-0.3c-0.1-0.1-0.3-0.1-0.4-0.1c-0.2,0-0.4,0.1-0.6,0.2c-0.2,0.1-0.2,0.3-0.3,0.6H166.7z M170.9,363.4
						c0.2,0,0.4,0,0.6,0.1c0.2,0.1,0.3,0.2,0.4,0.4c0.1,0.2,0.1,0.4,0.1,0.6v1.6h-0.4v-1.5c0-0.3-0.1-0.5-0.2-0.6
						c-0.1-0.1-0.3-0.2-0.5-0.2c-0.2,0-0.4,0.1-0.6,0.2c-0.1,0.1-0.2,0.4-0.2,0.6v1.5h-0.4v-1.5c0-0.3-0.1-0.5-0.2-0.6
						c-0.1-0.1-0.3-0.2-0.5-0.2c-0.2,0-0.4,0.1-0.6,0.2c-0.1,0.1-0.2,0.4-0.2,0.6v1.5h-0.4v-2.7h0.4v0.4c0.1-0.1,0.2-0.2,0.4-0.3
						c0.2-0.1,0.3-0.1,0.5-0.1c0.2,0,0.4,0.1,0.6,0.2s0.3,0.2,0.4,0.4c0.1-0.2,0.2-0.3,0.4-0.4C170.5,363.5,170.7,363.4,170.9,363.4
						z M173.2,364c0.1-0.2,0.2-0.3,0.4-0.4c0.2-0.1,0.4-0.2,0.6-0.2c0.2,0,0.5,0.1,0.7,0.2c0.2,0.1,0.3,0.3,0.5,0.5
						c0.1,0.2,0.2,0.4,0.2,0.7c0,0.3-0.1,0.5-0.2,0.7c-0.1,0.2-0.3,0.4-0.5,0.5c-0.2,0.1-0.4,0.2-0.6,0.2c-0.2,0-0.4-0.1-0.6-0.2
						c-0.2-0.1-0.3-0.2-0.4-0.4v0.5h-0.4v-3.6h0.4V364z M175,364.8c0-0.2,0-0.4-0.1-0.5c-0.1-0.2-0.2-0.3-0.3-0.3
						c-0.1-0.1-0.3-0.1-0.5-0.1c-0.2,0-0.3,0-0.5,0.1c-0.1,0.1-0.2,0.2-0.3,0.3c-0.1,0.2-0.1,0.3-0.1,0.5c0,0.2,0,0.4,0.1,0.5
						c0.1,0.2,0.2,0.3,0.3,0.3c0.1,0.1,0.3,0.1,0.5,0.1c0.2,0,0.3,0,0.5-0.1c0.1-0.1,0.3-0.2,0.3-0.3C175,365.2,175,365,175,364.8z
						 M178.5,364.7c0,0.1,0,0.2,0,0.3h-2.1c0,0.3,0.1,0.5,0.3,0.6c0.2,0.1,0.4,0.2,0.6,0.2c0.2,0,0.4,0,0.5-0.1
						c0.1-0.1,0.2-0.2,0.3-0.4h0.5c-0.1,0.3-0.2,0.5-0.4,0.6c-0.2,0.2-0.5,0.2-0.8,0.2c-0.3,0-0.5-0.1-0.7-0.2
						c-0.2-0.1-0.4-0.3-0.5-0.5c-0.1-0.2-0.2-0.5-0.2-0.7c0-0.3,0.1-0.5,0.2-0.7s0.3-0.4,0.5-0.5c0.2-0.1,0.4-0.2,0.7-0.2
						c0.3,0,0.5,0.1,0.7,0.2c0.2,0.1,0.3,0.3,0.5,0.5C178.5,364.2,178.5,364.4,178.5,364.7z M178.1,364.6c0-0.2,0-0.3-0.1-0.4
						c-0.1-0.1-0.2-0.2-0.3-0.3c-0.1-0.1-0.3-0.1-0.4-0.1c-0.2,0-0.4,0.1-0.6,0.2c-0.2,0.1-0.2,0.3-0.3,0.6H178.1z M179.5,363.9
						c0.1-0.2,0.2-0.3,0.3-0.4c0.1-0.1,0.3-0.1,0.5-0.1v0.5h-0.1c-0.5,0-0.7,0.3-0.7,0.8v1.5h-0.4v-2.7h0.4V363.9z M182.1,365.8
						c0.4-0.3,0.7-0.6,1-0.8c0.2-0.2,0.4-0.4,0.6-0.7c0.2-0.2,0.2-0.5,0.2-0.7c0-0.2-0.1-0.4-0.2-0.5c-0.1-0.1-0.3-0.2-0.5-0.2
						c-0.2,0-0.4,0.1-0.5,0.2c-0.1,0.1-0.2,0.3-0.2,0.6h-0.4c0-0.4,0.1-0.6,0.3-0.8c0.2-0.2,0.5-0.3,0.8-0.3c0.3,0,0.6,0.1,0.8,0.3
						c0.2,0.2,0.3,0.4,0.3,0.8c0,0.3-0.1,0.5-0.2,0.8c-0.2,0.3-0.3,0.5-0.5,0.7c-0.2,0.2-0.5,0.4-0.8,0.7h1.7v0.4h-2.4V365.8z
						 M185,364.3c0-0.6,0.1-1,0.3-1.3c0.2-0.3,0.5-0.5,1-0.5c0.5,0,0.8,0.2,1,0.5c0.2,0.3,0.3,0.8,0.3,1.3c0,0.6-0.1,1-0.3,1.3
						c-0.2,0.3-0.5,0.5-1,0.5c-0.5,0-0.8-0.2-1-0.5C185.1,365.3,185,364.9,185,364.3z M187,364.3c0-0.3,0-0.5-0.1-0.7
						c0-0.2-0.1-0.4-0.2-0.5c-0.1-0.1-0.3-0.2-0.5-0.2c-0.2,0-0.4,0.1-0.5,0.2c-0.1,0.1-0.2,0.3-0.2,0.5c0,0.2-0.1,0.4-0.1,0.7
						c0,0.3,0,0.5,0.1,0.7c0,0.2,0.1,0.4,0.2,0.5c0.1,0.1,0.3,0.2,0.5,0.2c0.2,0,0.4-0.1,0.5-0.2c0.1-0.1,0.2-0.3,0.2-0.5
						C187,364.9,187,364.6,187,364.3z M188,365.8c0.4-0.3,0.7-0.6,1-0.8c0.2-0.2,0.4-0.4,0.6-0.7c0.2-0.2,0.2-0.5,0.2-0.7
						c0-0.2-0.1-0.4-0.2-0.5c-0.1-0.1-0.3-0.2-0.5-0.2c-0.2,0-0.4,0.1-0.5,0.2c-0.1,0.1-0.2,0.3-0.2,0.6H188c0-0.4,0.1-0.6,0.3-0.8
						c0.2-0.2,0.5-0.3,0.8-0.3c0.3,0,0.6,0.1,0.8,0.3c0.2,0.2,0.3,0.4,0.3,0.8c0,0.3-0.1,0.5-0.2,0.8c-0.2,0.3-0.3,0.5-0.5,0.7
						c-0.2,0.2-0.5,0.4-0.8,0.7h1.7v0.4H188V365.8z M190.9,364.3c0-0.6,0.1-1,0.3-1.3c0.2-0.3,0.5-0.5,1-0.5c0.5,0,0.8,0.2,1,0.5
						c0.2,0.3,0.3,0.8,0.3,1.3c0,0.6-0.1,1-0.3,1.3c-0.2,0.3-0.5,0.5-1,0.5c-0.5,0-0.8-0.2-1-0.5C191,365.3,190.9,364.9,190.9,364.3
						z M192.9,364.3c0-0.3,0-0.5-0.1-0.7c0-0.2-0.1-0.4-0.2-0.5c-0.1-0.1-0.3-0.2-0.5-0.2c-0.2,0-0.4,0.1-0.5,0.2
						c-0.1,0.1-0.2,0.3-0.2,0.5c0,0.2-0.1,0.4-0.1,0.7c0,0.3,0,0.5,0.1,0.7c0,0.2,0.1,0.4,0.2,0.5c0.1,0.1,0.3,0.2,0.5,0.2
						c0.2,0,0.4-0.1,0.5-0.2c0.1-0.1,0.2-0.3,0.2-0.5C192.9,364.9,192.9,364.6,192.9,364.3z M197.2,364.2v0.4h-2v-0.4H197.2z
						 M200.4,366.2c-0.2,0-0.4,0-0.6-0.1c-0.2-0.1-0.3-0.2-0.4-0.3c-0.1-0.1-0.2-0.3-0.2-0.5h0.5c0,0.2,0.1,0.3,0.2,0.4
						c0.1,0.1,0.3,0.2,0.5,0.2c0.2,0,0.4-0.1,0.5-0.2c0.1-0.1,0.2-0.2,0.2-0.4c0-0.1,0-0.2-0.1-0.3s-0.2-0.1-0.3-0.2
						s-0.3-0.1-0.4-0.1c-0.2-0.1-0.4-0.1-0.5-0.2c-0.1-0.1-0.2-0.2-0.3-0.3c-0.1-0.1-0.1-0.3-0.1-0.5c0-0.2,0-0.4,0.1-0.5
						c0.1-0.1,0.2-0.3,0.4-0.3c0.2-0.1,0.4-0.1,0.6-0.1c0.3,0,0.6,0.1,0.8,0.2c0.2,0.2,0.3,0.4,0.3,0.6H201c0-0.1-0.1-0.2-0.2-0.3
						c-0.1-0.1-0.3-0.2-0.5-0.2c-0.2,0-0.3,0-0.5,0.1c-0.1,0.1-0.2,0.2-0.2,0.4c0,0.1,0,0.2,0.1,0.3c0.1,0.1,0.2,0.1,0.3,0.2
						c0.1,0,0.2,0.1,0.4,0.1c0.2,0.1,0.4,0.1,0.5,0.2c0.1,0.1,0.3,0.2,0.4,0.3c0.1,0.1,0.1,0.3,0.1,0.5c0,0.2,0,0.3-0.1,0.5
						c-0.1,0.1-0.2,0.3-0.4,0.4S200.6,366.2,200.4,366.2z M204.6,364.7c0,0.1,0,0.2,0,0.3h-2.1c0,0.3,0.1,0.5,0.3,0.6
						c0.2,0.1,0.4,0.2,0.6,0.2c0.2,0,0.4,0,0.5-0.1c0.1-0.1,0.2-0.2,0.3-0.4h0.5c-0.1,0.3-0.2,0.5-0.4,0.6c-0.2,0.2-0.5,0.2-0.8,0.2
						c-0.3,0-0.5-0.1-0.7-0.2c-0.2-0.1-0.4-0.3-0.5-0.5c-0.1-0.2-0.2-0.5-0.2-0.7c0-0.3,0.1-0.5,0.2-0.7s0.3-0.4,0.5-0.5
						c0.2-0.1,0.4-0.2,0.7-0.2c0.3,0,0.5,0.1,0.7,0.2c0.2,0.1,0.3,0.3,0.5,0.5C204.6,364.2,204.6,364.4,204.6,364.7z M204.2,364.6
						c0-0.2,0-0.3-0.1-0.4c-0.1-0.1-0.2-0.2-0.3-0.3c-0.1-0.1-0.3-0.1-0.4-0.1c-0.2,0-0.4,0.1-0.6,0.2c-0.2,0.1-0.2,0.3-0.3,0.6
						H204.2z M206.7,366.1l-1.1-1.2v1.2h-0.4v-3.6h0.4v2.1l1-1.2h0.6l-1.3,1.3l1.3,1.3H206.7z M207.6,364.8c0-0.3,0.1-0.5,0.2-0.7
						c0.1-0.2,0.3-0.4,0.5-0.5c0.2-0.1,0.4-0.2,0.7-0.2c0.2,0,0.4,0.1,0.6,0.2c0.2,0.1,0.3,0.2,0.4,0.4v-0.5h0.5v2.7h-0.5v-0.5
						c-0.1,0.2-0.2,0.3-0.4,0.4c-0.2,0.1-0.4,0.2-0.6,0.2c-0.2,0-0.5-0.1-0.6-0.2c-0.2-0.1-0.3-0.3-0.5-0.5
						C207.6,365.3,207.6,365.1,207.6,364.8z M209.8,364.8c0-0.2,0-0.4-0.1-0.5c-0.1-0.2-0.2-0.3-0.3-0.3c-0.1-0.1-0.3-0.1-0.5-0.1
						c-0.2,0-0.3,0-0.5,0.1c-0.1,0.1-0.2,0.2-0.3,0.3c-0.1,0.2-0.1,0.3-0.1,0.5c0,0.2,0,0.4,0.1,0.5c0.1,0.2,0.2,0.3,0.3,0.3
						c0.1,0.1,0.3,0.1,0.5,0.1c0.2,0,0.3,0,0.5-0.1c0.1-0.1,0.3-0.2,0.3-0.3C209.8,365.2,209.8,365,209.8,364.8z M211.5,363.9
						c0.1-0.2,0.2-0.3,0.3-0.4c0.1-0.1,0.3-0.1,0.5-0.1v0.5h-0.1c-0.5,0-0.7,0.3-0.7,0.8v1.5H211v-2.7h0.4V363.9z M212.7,364.8
						c0-0.3,0.1-0.5,0.2-0.7c0.1-0.2,0.3-0.4,0.5-0.5c0.2-0.1,0.4-0.2,0.7-0.2c0.2,0,0.4,0.1,0.6,0.2c0.2,0.1,0.3,0.2,0.4,0.4v-0.5
						h0.5v2.7H215v-0.5c-0.1,0.2-0.2,0.3-0.4,0.4c-0.2,0.1-0.4,0.2-0.6,0.2c-0.2,0-0.5-0.1-0.6-0.2c-0.2-0.1-0.3-0.3-0.5-0.5
						C212.8,365.3,212.7,365.1,212.7,364.8z M215,364.8c0-0.2,0-0.4-0.1-0.5c-0.1-0.2-0.2-0.3-0.3-0.3c-0.1-0.1-0.3-0.1-0.5-0.1
						c-0.2,0-0.3,0-0.5,0.1c-0.1,0.1-0.2,0.2-0.3,0.3c-0.1,0.2-0.1,0.3-0.1,0.5c0,0.2,0,0.4,0.1,0.5c0.1,0.2,0.2,0.3,0.3,0.3
						c0.1,0.1,0.3,0.1,0.5,0.1c0.2,0,0.3,0,0.5-0.1c0.1-0.1,0.3-0.2,0.3-0.3C214.9,365.2,215,365,215,364.8z M217.5,363.4
						c0.3,0,0.6,0.1,0.8,0.3c0.2,0.2,0.3,0.5,0.3,0.9v1.6h-0.4v-1.5c0-0.3-0.1-0.5-0.2-0.6c-0.1-0.1-0.3-0.2-0.5-0.2
						c-0.2,0-0.4,0.1-0.6,0.2c-0.1,0.1-0.2,0.4-0.2,0.6v1.5h-0.4v-2.7h0.4v0.4c0.1-0.1,0.2-0.2,0.4-0.3
						C217.1,363.4,217.3,363.4,217.5,363.4z M220.4,363.4c0.2,0,0.4,0.1,0.6,0.2c0.2,0.1,0.3,0.2,0.4,0.4v-0.5h0.5v2.7
						c0,0.2-0.1,0.5-0.2,0.7c-0.1,0.2-0.3,0.3-0.5,0.5c-0.2,0.1-0.4,0.2-0.7,0.2c-0.4,0-0.6-0.1-0.9-0.2c-0.2-0.2-0.4-0.4-0.4-0.7
						h0.4c0,0.2,0.2,0.3,0.3,0.4c0.2,0.1,0.3,0.2,0.6,0.2c0.2,0,0.4-0.1,0.6-0.2c0.2-0.2,0.2-0.4,0.2-0.6v-0.6
						c-0.1,0.2-0.2,0.3-0.4,0.4c-0.2,0.1-0.4,0.2-0.6,0.2c-0.2,0-0.5-0.1-0.7-0.2c-0.2-0.1-0.3-0.3-0.5-0.5
						c-0.1-0.2-0.2-0.5-0.2-0.7c0-0.3,0.1-0.5,0.2-0.7c0.1-0.2,0.3-0.4,0.5-0.5C220,363.5,220.2,363.4,220.4,363.4z M221.4,364.8
						c0-0.2,0-0.4-0.1-0.5c-0.1-0.2-0.2-0.3-0.3-0.3c-0.1-0.1-0.3-0.1-0.5-0.1s-0.3,0-0.5,0.1c-0.1,0.1-0.2,0.2-0.3,0.3
						c-0.1,0.2-0.1,0.3-0.1,0.5c0,0.2,0,0.4,0.1,0.5c0.1,0.2,0.2,0.3,0.3,0.3c0.1,0.1,0.3,0.1,0.5,0.1s0.3,0,0.5-0.1
						c0.1-0.1,0.3-0.2,0.3-0.3C221.4,365.2,221.4,365,221.4,364.8z"/>
					<path class="st9" d="M156.2,353.4v3.4h-0.4v-2.5l-1.1,2.5h-0.3l-1.1-2.5v2.5h-0.4v-3.4h0.5l1.3,2.8l1.3-2.8H156.2z
						 M156.8,355.4c0-0.3,0.1-0.5,0.2-0.7c0.1-0.2,0.3-0.4,0.5-0.5c0.2-0.1,0.4-0.2,0.7-0.2c0.2,0,0.4,0.1,0.6,0.2
						c0.2,0.1,0.3,0.2,0.4,0.4v-0.5h0.5v2.7h-0.5v-0.5c-0.1,0.2-0.2,0.3-0.4,0.4c-0.2,0.1-0.4,0.2-0.6,0.2c-0.2,0-0.5-0.1-0.6-0.2
						c-0.2-0.1-0.3-0.3-0.5-0.5S156.8,355.7,156.8,355.4z M159.1,355.4c0-0.2,0-0.4-0.1-0.5c-0.1-0.2-0.2-0.3-0.3-0.3
						c-0.1-0.1-0.3-0.1-0.5-0.1c-0.2,0-0.3,0-0.5,0.1c-0.1,0.1-0.2,0.2-0.3,0.3c-0.1,0.2-0.1,0.3-0.1,0.5c0,0.2,0,0.4,0.1,0.5
						c0.1,0.2,0.2,0.3,0.3,0.3c0.1,0.1,0.3,0.1,0.5,0.1c0.2,0,0.3,0,0.5-0.1c0.1-0.1,0.3-0.2,0.3-0.3
						C159,355.8,159.1,355.6,159.1,355.4z M161.2,356.8c-0.2,0-0.4,0-0.6-0.1c-0.2-0.1-0.3-0.2-0.4-0.3c-0.1-0.1-0.1-0.3-0.2-0.4
						h0.5c0,0.1,0.1,0.2,0.2,0.3c0.1,0.1,0.3,0.1,0.4,0.1c0.2,0,0.3,0,0.4-0.1c0.1-0.1,0.1-0.2,0.1-0.3c0-0.1-0.1-0.2-0.2-0.3
						c-0.1-0.1-0.3-0.1-0.5-0.2c-0.2-0.1-0.4-0.1-0.5-0.2c-0.1-0.1-0.2-0.1-0.3-0.2c-0.1-0.1-0.1-0.2-0.1-0.4c0-0.1,0-0.3,0.1-0.4
						c0.1-0.1,0.2-0.2,0.3-0.3c0.2-0.1,0.3-0.1,0.5-0.1c0.3,0,0.5,0.1,0.7,0.2c0.2,0.2,0.3,0.4,0.3,0.6h-0.4c0-0.1-0.1-0.3-0.2-0.3
						c-0.1-0.1-0.2-0.1-0.4-0.1c-0.2,0-0.3,0-0.4,0.1c-0.1,0.1-0.1,0.2-0.1,0.3c0,0.1,0,0.2,0.1,0.2c0.1,0.1,0.1,0.1,0.2,0.1
						c0.1,0,0.2,0.1,0.4,0.1c0.2,0.1,0.3,0.1,0.5,0.2c0.1,0,0.2,0.1,0.3,0.2c0.1,0.1,0.1,0.2,0.1,0.4c0,0.1,0,0.3-0.1,0.4
						c-0.1,0.1-0.2,0.2-0.3,0.3C161.6,356.8,161.4,356.8,161.2,356.8z M162.7,355.4c0-0.3,0.1-0.5,0.2-0.7c0.1-0.2,0.3-0.4,0.5-0.5
						c0.2-0.1,0.4-0.2,0.7-0.2c0.2,0,0.4,0.1,0.6,0.2c0.2,0.1,0.3,0.2,0.4,0.4v-0.5h0.5v2.7h-0.5v-0.5c-0.1,0.2-0.2,0.3-0.4,0.4
						c-0.2,0.1-0.4,0.2-0.6,0.2c-0.2,0-0.5-0.1-0.6-0.2c-0.2-0.1-0.3-0.3-0.5-0.5C162.7,355.9,162.7,355.7,162.7,355.4z
						 M164.9,355.4c0-0.2,0-0.4-0.1-0.5s-0.2-0.3-0.3-0.3c-0.1-0.1-0.3-0.1-0.5-0.1s-0.3,0-0.5,0.1c-0.1,0.1-0.2,0.2-0.3,0.3
						c-0.1,0.2-0.1,0.3-0.1,0.5c0,0.2,0,0.4,0.1,0.5c0.1,0.2,0.2,0.3,0.3,0.3c0.1,0.1,0.3,0.1,0.5,0.1s0.3,0,0.5-0.1
						c0.1-0.1,0.3-0.2,0.3-0.3C164.9,355.8,164.9,355.6,164.9,355.4z M169.3,356.8l-1.4-1.6v1.6h-0.4v-3.4h0.4v1.6l1.4-1.6h0.6
						l-1.5,1.7l1.6,1.7H169.3z M172.8,355.3c0,0.1,0,0.2,0,0.3h-2.1c0,0.3,0.1,0.5,0.3,0.6c0.2,0.1,0.4,0.2,0.6,0.2
						c0.2,0,0.4,0,0.5-0.1c0.1-0.1,0.2-0.2,0.3-0.4h0.5c-0.1,0.3-0.2,0.5-0.4,0.6c-0.2,0.2-0.5,0.2-0.8,0.2c-0.3,0-0.5-0.1-0.7-0.2
						c-0.2-0.1-0.4-0.3-0.5-0.5c-0.1-0.2-0.2-0.5-0.2-0.7c0-0.3,0.1-0.5,0.2-0.7c0.1-0.2,0.3-0.4,0.5-0.5c0.2-0.1,0.4-0.2,0.7-0.2
						c0.3,0,0.5,0.1,0.7,0.2s0.3,0.3,0.5,0.5C172.8,354.8,172.8,355.1,172.8,355.3z M172.4,355.2c0-0.2,0-0.3-0.1-0.4
						c-0.1-0.1-0.2-0.2-0.3-0.3c-0.1-0.1-0.3-0.1-0.4-0.1c-0.2,0-0.4,0.1-0.6,0.2c-0.2,0.1-0.2,0.3-0.3,0.6H172.4z M173.9,354.5
						c0.1-0.2,0.2-0.3,0.3-0.4c0.1-0.1,0.3-0.1,0.5-0.1v0.5h-0.1c-0.5,0-0.7,0.3-0.7,0.8v1.5h-0.4v-2.7h0.4V354.5z M175.5,353.6
						c-0.1,0-0.2,0-0.2-0.1c-0.1-0.1-0.1-0.1-0.1-0.2c0-0.1,0-0.2,0.1-0.2c0.1-0.1,0.1-0.1,0.2-0.1c0.1,0,0.2,0,0.2,0.1
						c0.1,0.1,0.1,0.1,0.1,0.2c0,0.1,0,0.2-0.1,0.2C175.6,353.6,175.6,353.6,175.5,353.6z M175.7,357.3c0,0.2-0.1,0.4-0.2,0.5
						c-0.1,0.1-0.3,0.2-0.5,0.2h-0.3v-0.4h0.2c0.1,0,0.2,0,0.3-0.1c0.1,0,0.1-0.1,0.1-0.2v-3.3h0.4V357.3z M176.3,355.4
						c0-0.3,0.1-0.5,0.2-0.7c0.1-0.2,0.3-0.4,0.5-0.5c0.2-0.1,0.4-0.2,0.7-0.2c0.2,0,0.4,0.1,0.6,0.2c0.2,0.1,0.3,0.2,0.4,0.4v-0.5
						h0.5v2.7h-0.5v-0.5c-0.1,0.2-0.2,0.3-0.4,0.4c-0.2,0.1-0.4,0.2-0.6,0.2c-0.2,0-0.5-0.1-0.6-0.2c-0.2-0.1-0.3-0.3-0.5-0.5
						C176.3,355.9,176.3,355.7,176.3,355.4z M178.6,355.4c0-0.2,0-0.4-0.1-0.5s-0.2-0.3-0.3-0.3c-0.1-0.1-0.3-0.1-0.5-0.1
						c-0.2,0-0.3,0-0.5,0.1c-0.1,0.1-0.2,0.2-0.3,0.3c-0.1,0.2-0.1,0.3-0.1,0.5c0,0.2,0,0.4,0.1,0.5c0.1,0.2,0.2,0.3,0.3,0.3
						c0.1,0.1,0.3,0.1,0.5,0.1c0.2,0,0.3,0,0.5-0.1c0.1-0.1,0.3-0.2,0.3-0.3C178.5,355.8,178.6,355.6,178.6,355.4z"/>
					<g>
						<path class="st1" d="M145,278.8h116.2c3.4,0,6.1,2.7,6.1,6.1v38.7c0,3.4-2.7,6.1-6.1,6.1H145c-3.4,0-6.1-2.7-6.1-6.1V285
							C138.9,281.6,141.7,278.8,145,278.8z"/>
						<path class="st8" d="M145,279.1h116.2c3.3,0,5.9,2.6,5.9,5.9v38.7c0,3.3-2.6,5.9-5.9,5.9H145c-3.3,0-5.9-2.6-5.9-5.9V285
							C139.1,281.7,141.8,279.1,145,279.1z"/>
					</g>
					<path class="st10" d="M154.6,303.7l-1.4-1.6v1.6h-0.4v-3.4h0.4v1.6l1.4-1.6h0.6l-1.5,1.7l1.6,1.7H154.6z M155.5,302.4
						c0-0.3,0.1-0.5,0.2-0.7c0.1-0.2,0.3-0.4,0.5-0.5c0.2-0.1,0.4-0.2,0.7-0.2c0.2,0,0.4,0.1,0.6,0.2c0.2,0.1,0.3,0.2,0.4,0.4V301
						h0.5v2.7h-0.5v-0.5c-0.1,0.2-0.2,0.3-0.4,0.4c-0.2,0.1-0.4,0.2-0.6,0.2c-0.2,0-0.5-0.1-0.6-0.2c-0.2-0.1-0.3-0.3-0.5-0.5
						C155.6,302.9,155.5,302.6,155.5,302.4z M157.8,302.4c0-0.2,0-0.4-0.1-0.5c-0.1-0.2-0.2-0.3-0.3-0.3c-0.1-0.1-0.3-0.1-0.5-0.1
						c-0.2,0-0.3,0-0.5,0.1c-0.1,0.1-0.2,0.2-0.3,0.3s-0.1,0.3-0.1,0.5c0,0.2,0,0.4,0.1,0.5c0.1,0.2,0.2,0.3,0.3,0.3
						c0.1,0.1,0.3,0.1,0.5,0.1c0.2,0,0.3,0,0.5-0.1c0.1-0.1,0.3-0.2,0.3-0.3C157.7,302.8,157.8,302.6,157.8,302.4z M160.3,301
						c0.3,0,0.6,0.1,0.8,0.3c0.2,0.2,0.3,0.5,0.3,0.9v1.6H161v-1.5c0-0.3-0.1-0.5-0.2-0.6c-0.1-0.1-0.3-0.2-0.5-0.2
						c-0.2,0-0.4,0.1-0.6,0.2c-0.1,0.1-0.2,0.4-0.2,0.6v1.5H159V301h0.4v0.4c0.1-0.1,0.2-0.2,0.4-0.3C159.9,301,160.1,301,160.3,301
						z M162.7,301.4v1.6c0,0.1,0,0.2,0.1,0.3c0.1,0.1,0.2,0.1,0.3,0.1h0.3v0.4H163c-0.2,0-0.4-0.1-0.6-0.2c-0.1-0.1-0.2-0.3-0.2-0.6
						v-1.6h-0.3V301h0.3v-0.7h0.4v0.7h0.7v0.4H162.7z M165.1,303.8c-0.3,0-0.5-0.1-0.7-0.2c-0.2-0.1-0.4-0.3-0.5-0.5
						c-0.1-0.2-0.2-0.5-0.2-0.7c0-0.3,0.1-0.5,0.2-0.7c0.1-0.2,0.3-0.4,0.5-0.5c0.2-0.1,0.4-0.2,0.7-0.2s0.5,0.1,0.7,0.2
						c0.2,0.1,0.4,0.3,0.5,0.5c0.1,0.2,0.2,0.5,0.2,0.7c0,0.3-0.1,0.5-0.2,0.7c-0.1,0.2-0.3,0.4-0.5,0.5
						C165.6,303.7,165.3,303.8,165.1,303.8z M165.1,303.4c0.2,0,0.3,0,0.5-0.1c0.1-0.1,0.3-0.2,0.3-0.3c0.1-0.2,0.1-0.3,0.1-0.5
						c0-0.2,0-0.4-0.1-0.5c-0.1-0.2-0.2-0.3-0.3-0.3c-0.1-0.1-0.3-0.1-0.4-0.1c-0.2,0-0.3,0-0.5,0.1c-0.1,0.1-0.2,0.2-0.3,0.3
						c-0.1,0.2-0.1,0.3-0.1,0.5c0,0.2,0,0.4,0.1,0.6c0.1,0.2,0.2,0.3,0.3,0.3C164.8,303.3,164.9,303.4,165.1,303.4z M167.5,301.5
						c0.1-0.2,0.2-0.3,0.3-0.4c0.1-0.1,0.3-0.1,0.5-0.1v0.5h-0.1c-0.5,0-0.7,0.3-0.7,0.8v1.5H167V301h0.4V301.5z M171.9,300.3v2.5
						c0,0.3-0.1,0.5-0.3,0.7c-0.2,0.2-0.4,0.2-0.7,0.2c-0.3,0-0.5-0.1-0.7-0.3c-0.2-0.2-0.3-0.4-0.3-0.7h0.4c0,0.2,0,0.3,0.1,0.4
						c0.1,0.1,0.2,0.2,0.4,0.2c0.2,0,0.3,0,0.4-0.1c0.1-0.1,0.1-0.2,0.1-0.4v-2.5H171.9z M173.9,303.8c-0.3,0-0.5-0.1-0.7-0.2
						c-0.2-0.1-0.4-0.3-0.5-0.5c-0.1-0.2-0.2-0.5-0.2-0.7c0-0.3,0.1-0.5,0.2-0.7c0.1-0.2,0.3-0.4,0.5-0.5c0.2-0.1,0.4-0.2,0.7-0.2
						c0.3,0,0.5,0.1,0.7,0.2c0.2,0.1,0.4,0.3,0.5,0.5c0.1,0.2,0.2,0.5,0.2,0.7c0,0.3-0.1,0.5-0.2,0.7c-0.1,0.2-0.3,0.4-0.5,0.5
						C174.4,303.7,174.2,303.8,173.9,303.8z M173.9,303.4c0.2,0,0.3,0,0.5-0.1c0.1-0.1,0.3-0.2,0.3-0.3c0.1-0.2,0.1-0.3,0.1-0.5
						c0-0.2,0-0.4-0.1-0.5c-0.1-0.2-0.2-0.3-0.3-0.3c-0.1-0.1-0.3-0.1-0.4-0.1c-0.2,0-0.3,0-0.5,0.1c-0.1,0.1-0.2,0.2-0.3,0.3
						c-0.1,0.2-0.1,0.3-0.1,0.5c0,0.2,0,0.4,0.1,0.6c0.1,0.2,0.2,0.3,0.3,0.3C173.6,303.3,173.8,303.4,173.9,303.4z M177,301
						c0.2,0,0.4,0.1,0.6,0.2c0.2,0.1,0.3,0.2,0.4,0.4V301h0.5v2.7c0,0.2-0.1,0.5-0.2,0.7c-0.1,0.2-0.3,0.3-0.5,0.5
						c-0.2,0.1-0.4,0.2-0.7,0.2c-0.4,0-0.6-0.1-0.9-0.2c-0.2-0.2-0.4-0.4-0.4-0.7h0.4c0,0.2,0.2,0.3,0.3,0.4
						c0.2,0.1,0.3,0.2,0.6,0.2c0.2,0,0.4-0.1,0.6-0.2c0.2-0.2,0.2-0.4,0.2-0.6v-0.6c-0.1,0.2-0.2,0.3-0.4,0.4s-0.4,0.2-0.6,0.2
						c-0.2,0-0.5-0.1-0.7-0.2c-0.2-0.1-0.3-0.3-0.5-0.5c-0.1-0.2-0.2-0.5-0.2-0.7c0-0.3,0.1-0.5,0.2-0.7c0.1-0.2,0.3-0.4,0.5-0.5
						C176.5,301.1,176.8,301,177,301z M178,302.4c0-0.2,0-0.4-0.1-0.5c-0.1-0.2-0.2-0.3-0.3-0.3c-0.1-0.1-0.3-0.1-0.5-0.1
						c-0.2,0-0.3,0-0.5,0.1c-0.1,0.1-0.2,0.2-0.3,0.3c-0.1,0.2-0.1,0.3-0.1,0.5c0,0.2,0,0.4,0.1,0.5c0.1,0.2,0.2,0.3,0.3,0.3
						c0.1,0.1,0.3,0.1,0.5,0.1c0.2,0,0.3,0,0.5-0.1c0.1-0.1,0.3-0.2,0.3-0.3C178,302.8,178,302.6,178,302.4z M179.4,300.6
						c-0.1,0-0.2,0-0.2-0.1c-0.1-0.1-0.1-0.1-0.1-0.2s0-0.2,0.1-0.2c0.1-0.1,0.1-0.1,0.2-0.1c0.1,0,0.2,0,0.2,0.1
						c0.1,0.1,0.1,0.1,0.1,0.2s0,0.2-0.1,0.2C179.6,300.6,179.5,300.6,179.4,300.6z M179.7,304.3c0,0.2-0.1,0.4-0.2,0.5
						c-0.1,0.1-0.3,0.2-0.5,0.2h-0.3v-0.4h0.2c0.1,0,0.2,0,0.3-0.1c0.1,0,0.1-0.1,0.1-0.2V301h0.4V304.3z M180.2,302.4
						c0-0.3,0.1-0.5,0.2-0.7c0.1-0.2,0.3-0.4,0.5-0.5c0.2-0.1,0.4-0.2,0.7-0.2c0.2,0,0.4,0.1,0.6,0.2c0.2,0.1,0.3,0.2,0.4,0.4V301
						h0.5v2.7h-0.5v-0.5c-0.1,0.2-0.2,0.3-0.4,0.4c-0.2,0.1-0.4,0.2-0.6,0.2c-0.2,0-0.5-0.1-0.6-0.2c-0.2-0.1-0.3-0.3-0.5-0.5
						C180.3,302.9,180.2,302.6,180.2,302.4z M182.5,302.4c0-0.2,0-0.4-0.1-0.5c-0.1-0.2-0.2-0.3-0.3-0.3c-0.1-0.1-0.3-0.1-0.5-0.1
						c-0.2,0-0.3,0-0.5,0.1c-0.1,0.1-0.2,0.2-0.3,0.3s-0.1,0.3-0.1,0.5c0,0.2,0,0.4,0.1,0.5c0.1,0.2,0.2,0.3,0.3,0.3
						c0.1,0.1,0.3,0.1,0.5,0.1c0.2,0,0.3,0,0.5-0.1c0.1-0.1,0.3-0.2,0.3-0.3C182.5,302.8,182.5,302.6,182.5,302.4z M154.5,307.7v2.5
						c0,0.3-0.1,0.5-0.3,0.7c-0.2,0.2-0.4,0.2-0.7,0.2c-0.3,0-0.5-0.1-0.7-0.3c-0.2-0.2-0.3-0.4-0.3-0.7h0.4c0,0.2,0,0.3,0.1,0.4
						c0.1,0.1,0.2,0.2,0.4,0.2s0.3,0,0.4-0.1c0.1-0.1,0.1-0.2,0.1-0.4v-2.5H154.5z M155.8,307.4v3.6h-0.4v-3.6H155.8z M156.7,311.1
						c-0.1,0-0.2,0-0.2-0.1c-0.1-0.1-0.1-0.1-0.1-0.2c0-0.1,0-0.2,0.1-0.2c0.1-0.1,0.1-0.1,0.2-0.1c0.1,0,0.2,0,0.2,0.1
						c0.1,0.1,0.1,0.1,0.1,0.2c0,0.1,0,0.2-0.1,0.2C156.8,311.1,156.8,311.1,156.7,311.1z M161.2,308.7c0,0.3-0.1,0.5-0.3,0.7
						c-0.2,0.2-0.5,0.3-0.9,0.3h-0.7v1.4h-0.4v-3.4h1.1c0.4,0,0.7,0.1,0.9,0.3C161.1,308.1,161.2,308.4,161.2,308.7z M160,309.3
						c0.2,0,0.4-0.1,0.5-0.2c0.1-0.1,0.2-0.3,0.2-0.5c0-0.4-0.2-0.6-0.7-0.6h-0.7v1.3H160z M164.2,309.6c0,0.1,0,0.2,0,0.3H162
						c0,0.3,0.1,0.5,0.3,0.6c0.2,0.1,0.4,0.2,0.6,0.2c0.2,0,0.4,0,0.5-0.1c0.1-0.1,0.2-0.2,0.3-0.4h0.5c-0.1,0.3-0.2,0.5-0.4,0.6
						c-0.2,0.2-0.5,0.2-0.8,0.2c-0.3,0-0.5-0.1-0.7-0.2c-0.2-0.1-0.4-0.3-0.5-0.5c-0.1-0.2-0.2-0.5-0.2-0.7c0-0.3,0.1-0.5,0.2-0.7
						c0.1-0.2,0.3-0.4,0.5-0.5c0.2-0.1,0.4-0.2,0.7-0.2c0.3,0,0.5,0.1,0.7,0.2s0.3,0.3,0.5,0.5C164.1,309.2,164.2,309.4,164.2,309.6
						z M163.7,309.5c0-0.2,0-0.3-0.1-0.4c-0.1-0.1-0.2-0.2-0.3-0.3c-0.1-0.1-0.3-0.1-0.4-0.1c-0.2,0-0.4,0.1-0.6,0.2
						c-0.2,0.1-0.2,0.3-0.3,0.6H163.7z M165.2,308.8c0.1-0.2,0.2-0.3,0.3-0.4c0.1-0.1,0.3-0.1,0.5-0.1v0.5h-0.1
						c-0.5,0-0.7,0.3-0.7,0.8v1.5h-0.4v-2.7h0.4V308.8z M166.8,308c-0.1,0-0.2,0-0.2-0.1c-0.1-0.1-0.1-0.1-0.1-0.2s0-0.2,0.1-0.2
						c0.1-0.1,0.1-0.1,0.2-0.1c0.1,0,0.2,0,0.2,0.1c0.1,0.1,0.1,0.1,0.1,0.2s0,0.2-0.1,0.2C167,307.9,166.9,308,166.8,308z
						 M167,308.4v2.7h-0.4v-2.7H167z M169.1,308.3c0.3,0,0.6,0.1,0.8,0.3c0.2,0.2,0.3,0.5,0.3,0.9v1.6h-0.4v-1.5
						c0-0.3-0.1-0.5-0.2-0.6c-0.1-0.1-0.3-0.2-0.5-0.2c-0.2,0-0.4,0.1-0.6,0.2c-0.1,0.1-0.2,0.4-0.2,0.6v1.5h-0.4v-2.7h0.4v0.4
						c0.1-0.1,0.2-0.2,0.4-0.3C168.7,308.4,168.9,308.3,169.1,308.3z M171.5,308.8v1.6c0,0.1,0,0.2,0.1,0.3c0.1,0.1,0.2,0.1,0.3,0.1
						h0.3v0.4h-0.4c-0.2,0-0.4-0.1-0.6-0.2c-0.1-0.1-0.2-0.3-0.2-0.6v-1.6h-0.3v-0.4h0.3v-0.7h0.4v0.7h0.7v0.4H171.5z M172.9,308
						c-0.1,0-0.2,0-0.2-0.1c-0.1-0.1-0.1-0.1-0.1-0.2s0-0.2,0.1-0.2c0.1-0.1,0.1-0.1,0.2-0.1c0.1,0,0.2,0,0.2,0.1
						c0.1,0.1,0.1,0.1,0.1,0.2s0,0.2-0.1,0.2C173.1,307.9,173,308,172.9,308z M173.1,308.4v2.7h-0.4v-2.7H173.1z M174.9,311.1
						c-0.2,0-0.4,0-0.6-0.1c-0.2-0.1-0.3-0.2-0.4-0.3c-0.1-0.1-0.1-0.3-0.2-0.4h0.5c0,0.1,0.1,0.2,0.2,0.3c0.1,0.1,0.3,0.1,0.4,0.1
						c0.2,0,0.3,0,0.4-0.1c0.1-0.1,0.1-0.2,0.1-0.3c0-0.1-0.1-0.2-0.2-0.3c-0.1-0.1-0.3-0.1-0.5-0.2c-0.2-0.1-0.4-0.1-0.5-0.2
						c-0.1-0.1-0.2-0.1-0.3-0.2c-0.1-0.1-0.1-0.2-0.1-0.4c0-0.1,0-0.3,0.1-0.4c0.1-0.1,0.2-0.2,0.3-0.3c0.2-0.1,0.3-0.1,0.5-0.1
						c0.3,0,0.5,0.1,0.7,0.2c0.2,0.2,0.3,0.4,0.3,0.6h-0.4c0-0.1-0.1-0.3-0.2-0.3c-0.1-0.1-0.2-0.1-0.4-0.1c-0.2,0-0.3,0-0.4,0.1
						c-0.1,0.1-0.1,0.2-0.1,0.3c0,0.1,0,0.2,0.1,0.2c0.1,0.1,0.1,0.1,0.2,0.1c0.1,0,0.2,0.1,0.4,0.1c0.2,0.1,0.3,0.1,0.5,0.2
						c0.1,0,0.2,0.1,0.3,0.2c0.1,0.1,0.1,0.2,0.1,0.4c0,0.1,0,0.3-0.1,0.4c-0.1,0.1-0.2,0.2-0.3,0.3
						C175.2,311.1,175,311.1,174.9,311.1z M179.6,311.1l-1.4-1.6v1.6h-0.4v-3.4h0.4v1.6l1.4-1.6h0.6l-1.5,1.7l1.6,1.7H179.6z
						 M183.1,309.6c0,0.1,0,0.2,0,0.3H181c0,0.3,0.1,0.5,0.3,0.6c0.2,0.1,0.4,0.2,0.6,0.2c0.2,0,0.4,0,0.5-0.1
						c0.1-0.1,0.2-0.2,0.3-0.4h0.5c-0.1,0.3-0.2,0.5-0.4,0.6c-0.2,0.2-0.5,0.2-0.8,0.2c-0.3,0-0.5-0.1-0.7-0.2
						c-0.2-0.1-0.4-0.3-0.5-0.5c-0.1-0.2-0.2-0.5-0.2-0.7c0-0.3,0.1-0.5,0.2-0.7c0.1-0.2,0.3-0.4,0.5-0.5c0.2-0.1,0.4-0.2,0.7-0.2
						c0.3,0,0.5,0.1,0.7,0.2s0.3,0.3,0.5,0.5C183.1,309.2,183.1,309.4,183.1,309.6z M182.7,309.5c0-0.2,0-0.3-0.1-0.4
						c-0.1-0.1-0.2-0.2-0.3-0.3c-0.1-0.1-0.3-0.1-0.4-0.1c-0.2,0-0.4,0.1-0.6,0.2c-0.2,0.1-0.2,0.3-0.3,0.6H182.7z M187,308.3
						c0.2,0,0.4,0,0.6,0.1c0.2,0.1,0.3,0.2,0.4,0.4c0.1,0.2,0.1,0.4,0.1,0.6v1.6h-0.4v-1.5c0-0.3-0.1-0.5-0.2-0.6
						c-0.1-0.1-0.3-0.2-0.5-0.2c-0.2,0-0.4,0.1-0.6,0.2c-0.1,0.1-0.2,0.4-0.2,0.6v1.5h-0.4v-1.5c0-0.3-0.1-0.5-0.2-0.6
						c-0.1-0.1-0.3-0.2-0.5-0.2c-0.2,0-0.4,0.1-0.6,0.2c-0.1,0.1-0.2,0.4-0.2,0.6v1.5h-0.4v-2.7h0.4v0.4c0.1-0.1,0.2-0.2,0.4-0.3
						c0.2-0.1,0.3-0.1,0.5-0.1c0.2,0,0.4,0.1,0.6,0.2c0.2,0.1,0.3,0.2,0.4,0.4c0.1-0.2,0.2-0.3,0.4-0.4S186.7,308.3,187,308.3z
						 M191.2,309.6c0,0.1,0,0.2,0,0.3h-2.1c0,0.3,0.1,0.5,0.3,0.6c0.2,0.1,0.4,0.2,0.6,0.2c0.2,0,0.4,0,0.5-0.1
						c0.1-0.1,0.2-0.2,0.3-0.4h0.5c-0.1,0.3-0.2,0.5-0.4,0.6c-0.2,0.2-0.5,0.2-0.8,0.2c-0.3,0-0.5-0.1-0.7-0.2
						c-0.2-0.1-0.4-0.3-0.5-0.5c-0.1-0.2-0.2-0.5-0.2-0.7c0-0.3,0.1-0.5,0.2-0.7c0.1-0.2,0.3-0.4,0.5-0.5c0.2-0.1,0.4-0.2,0.7-0.2
						c0.3,0,0.5,0.1,0.7,0.2c0.2,0.1,0.3,0.3,0.5,0.5C191.2,309.2,191.2,309.4,191.2,309.6z M190.8,309.5c0-0.2,0-0.3-0.1-0.4
						c-0.1-0.1-0.2-0.2-0.3-0.3c-0.1-0.1-0.3-0.1-0.4-0.1c-0.2,0-0.4,0.1-0.6,0.2c-0.2,0.1-0.2,0.3-0.3,0.6H190.8z M192.3,308.8
						c0.1-0.2,0.2-0.3,0.3-0.4c0.1-0.1,0.3-0.1,0.5-0.1v0.5H193c-0.5,0-0.7,0.3-0.7,0.8v1.5h-0.4v-2.7h0.4V308.8z M193.5,309.7
						c0-0.3,0.1-0.5,0.2-0.7c0.1-0.2,0.3-0.4,0.5-0.5c0.2-0.1,0.4-0.2,0.7-0.2c0.2,0,0.4,0,0.6,0.1c0.2,0.1,0.3,0.2,0.4,0.4v-1.4
						h0.5v3.6h-0.5v-0.5c-0.1,0.2-0.2,0.3-0.4,0.4c-0.2,0.1-0.4,0.2-0.6,0.2c-0.2,0-0.5-0.1-0.7-0.2c-0.2-0.1-0.3-0.3-0.5-0.5
						C193.5,310.2,193.5,310,193.5,309.7z M195.7,309.7c0-0.2,0-0.4-0.1-0.5c-0.1-0.2-0.2-0.3-0.3-0.3c-0.1-0.1-0.3-0.1-0.5-0.1
						c-0.2,0-0.3,0-0.5,0.1c-0.1,0.1-0.2,0.2-0.3,0.3c-0.1,0.2-0.1,0.3-0.1,0.5c0,0.2,0,0.4,0.1,0.5c0.1,0.2,0.2,0.3,0.3,0.3
						c0.1,0.1,0.3,0.1,0.5,0.1c0.2,0,0.3,0,0.5-0.1c0.1-0.1,0.3-0.2,0.3-0.3C195.7,310.1,195.7,309.9,195.7,309.7z M199.4,309.6
						c0,0.1,0,0.2,0,0.3h-2.1c0,0.3,0.1,0.5,0.3,0.6c0.2,0.1,0.4,0.2,0.6,0.2c0.2,0,0.4,0,0.5-0.1c0.1-0.1,0.2-0.2,0.3-0.4h0.5
						c-0.1,0.3-0.2,0.5-0.4,0.6c-0.2,0.2-0.5,0.2-0.8,0.2c-0.3,0-0.5-0.1-0.7-0.2c-0.2-0.1-0.4-0.3-0.5-0.5
						c-0.1-0.2-0.2-0.5-0.2-0.7c0-0.3,0.1-0.5,0.2-0.7c0.1-0.2,0.3-0.4,0.5-0.5c0.2-0.1,0.4-0.2,0.7-0.2c0.3,0,0.5,0.1,0.7,0.2
						s0.3,0.3,0.5,0.5C199.3,309.2,199.4,309.4,199.4,309.6z M198.9,309.5c0-0.2,0-0.3-0.1-0.4c-0.1-0.1-0.2-0.2-0.3-0.3
						c-0.1-0.1-0.3-0.1-0.4-0.1c-0.2,0-0.4,0.1-0.6,0.2c-0.2,0.1-0.2,0.3-0.3,0.6H198.9z M201.5,311.1l-1.1-1.2v1.2H200v-3.6h0.4
						v2.1l1-1.2h0.6l-1.3,1.3l1.3,1.3H201.5z M202.3,309.7c0-0.3,0.1-0.5,0.2-0.7c0.1-0.2,0.3-0.4,0.5-0.5c0.2-0.1,0.4-0.2,0.7-0.2
						c0.2,0,0.4,0.1,0.6,0.2c0.2,0.1,0.3,0.2,0.4,0.4v-0.5h0.5v2.7h-0.5v-0.5c-0.1,0.2-0.2,0.3-0.4,0.4c-0.2,0.1-0.4,0.2-0.6,0.2
						c-0.2,0-0.5-0.1-0.6-0.2c-0.2-0.1-0.3-0.3-0.5-0.5C202.4,310.2,202.3,310,202.3,309.7z M204.6,309.7c0-0.2,0-0.4-0.1-0.5
						c-0.1-0.2-0.2-0.3-0.3-0.3c-0.1-0.1-0.3-0.1-0.5-0.1c-0.2,0-0.3,0-0.5,0.1s-0.2,0.2-0.3,0.3c-0.1,0.2-0.1,0.3-0.1,0.5
						c0,0.2,0,0.4,0.1,0.5c0.1,0.2,0.2,0.3,0.3,0.3c0.1,0.1,0.3,0.1,0.5,0.1c0.2,0,0.3,0,0.5-0.1c0.1-0.1,0.3-0.2,0.3-0.3
						C204.6,310.1,204.6,309.9,204.6,309.7z M205.6,309.7c0-0.3,0.1-0.5,0.2-0.7c0.1-0.2,0.3-0.4,0.5-0.5c0.2-0.1,0.4-0.2,0.7-0.2
						c0.2,0,0.4,0.1,0.6,0.2c0.2,0.1,0.3,0.2,0.4,0.4v-0.5h0.5v2.7h-0.5v-0.5c-0.1,0.2-0.2,0.3-0.4,0.4c-0.2,0.1-0.4,0.2-0.6,0.2
						c-0.2,0-0.5-0.1-0.6-0.2c-0.2-0.1-0.3-0.3-0.5-0.5C205.7,310.2,205.6,310,205.6,309.7z M207.9,309.7c0-0.2,0-0.4-0.1-0.5
						c-0.1-0.2-0.2-0.3-0.3-0.3c-0.1-0.1-0.3-0.1-0.5-0.1c-0.2,0-0.3,0-0.5,0.1s-0.2,0.2-0.3,0.3c-0.1,0.2-0.1,0.3-0.1,0.5
						c0,0.2,0,0.4,0.1,0.5c0.1,0.2,0.2,0.3,0.3,0.3c0.1,0.1,0.3,0.1,0.5,0.1c0.2,0,0.3,0,0.5-0.1c0.1-0.1,0.3-0.2,0.3-0.3
						C207.9,310.1,207.9,309.9,207.9,309.7z M210.4,308.3c0.3,0,0.6,0.1,0.8,0.3c0.2,0.2,0.3,0.5,0.3,0.9v1.6h-0.4v-1.5
						c0-0.3-0.1-0.5-0.2-0.6c-0.1-0.1-0.3-0.2-0.5-0.2c-0.2,0-0.4,0.1-0.6,0.2c-0.1,0.1-0.2,0.4-0.2,0.6v1.5h-0.4v-2.7h0.4v0.4
						c0.1-0.1,0.2-0.2,0.4-0.3C210.1,308.4,210.2,308.3,210.4,308.3z M216.2,311.1h-0.4l-1.8-2.7v2.7h-0.4v-3.4h0.4l1.8,2.7v-2.7
						h0.4V311.1z M218.2,311.1c-0.3,0-0.5-0.1-0.7-0.2c-0.2-0.1-0.4-0.3-0.5-0.5c-0.1-0.2-0.2-0.5-0.2-0.7c0-0.3,0.1-0.5,0.2-0.7
						c0.1-0.2,0.3-0.4,0.5-0.5c0.2-0.1,0.4-0.2,0.7-0.2c0.3,0,0.5,0.1,0.7,0.2c0.2,0.1,0.4,0.3,0.5,0.5c0.1,0.2,0.2,0.5,0.2,0.7
						c0,0.3-0.1,0.5-0.2,0.7c-0.1,0.2-0.3,0.4-0.5,0.5C218.6,311.1,218.4,311.1,218.2,311.1z M218.2,310.7c0.2,0,0.3,0,0.5-0.1
						c0.1-0.1,0.3-0.2,0.3-0.3c0.1-0.2,0.1-0.3,0.1-0.5c0-0.2,0-0.4-0.1-0.5s-0.2-0.3-0.3-0.3c-0.1-0.1-0.3-0.1-0.4-0.1
						c-0.2,0-0.3,0-0.5,0.1c-0.1,0.1-0.2,0.2-0.3,0.3s-0.1,0.3-0.1,0.5c0,0.2,0,0.4,0.1,0.6c0.1,0.2,0.2,0.3,0.3,0.3
						C217.9,310.7,218,310.7,218.2,310.7z M220.3,311.1c-0.1,0-0.2,0-0.2-0.1c-0.1-0.1-0.1-0.1-0.1-0.2c0-0.1,0-0.2,0.1-0.2
						c0.1-0.1,0.1-0.1,0.2-0.1c0.1,0,0.2,0,0.2,0.1c0.1,0.1,0.1,0.1,0.1,0.2c0,0.1,0,0.2-0.1,0.2
						C220.4,311.1,220.3,311.1,220.3,311.1z M222.4,308.4c0-0.3,0.1-0.5,0.3-0.7c0.2-0.2,0.5-0.3,0.8-0.3c0.2,0,0.4,0,0.6,0.1
						c0.2,0.1,0.3,0.2,0.4,0.3c0.1,0.1,0.1,0.3,0.1,0.5c0,0.2-0.1,0.4-0.2,0.5c-0.1,0.1-0.3,0.2-0.5,0.3v0c0.2,0.1,0.4,0.2,0.5,0.3
						c0.1,0.2,0.2,0.4,0.2,0.6c0,0.2,0,0.4-0.1,0.5c-0.1,0.1-0.2,0.3-0.4,0.3c-0.2,0.1-0.4,0.1-0.6,0.1c-0.3,0-0.6-0.1-0.9-0.3
						c-0.2-0.2-0.3-0.4-0.4-0.8h0.4c0,0.2,0.1,0.4,0.2,0.5c0.1,0.1,0.3,0.2,0.5,0.2c0.2,0,0.4-0.1,0.5-0.2c0.1-0.1,0.2-0.3,0.2-0.5
						c0-0.2-0.1-0.4-0.2-0.5c-0.2-0.1-0.4-0.2-0.7-0.2h-0.1V309h0.1c0.3,0,0.5-0.1,0.7-0.1c0.2-0.1,0.2-0.2,0.2-0.5
						c0-0.2-0.1-0.3-0.2-0.4c-0.1-0.1-0.3-0.2-0.5-0.2c-0.2,0-0.4,0.1-0.5,0.2c-0.1,0.1-0.2,0.2-0.2,0.4H222.4z M225.3,308.4
						c0-0.3,0.1-0.5,0.3-0.7c0.2-0.2,0.5-0.3,0.8-0.3c0.2,0,0.4,0,0.6,0.1c0.2,0.1,0.3,0.2,0.4,0.3c0.1,0.1,0.1,0.3,0.1,0.5
						c0,0.2-0.1,0.4-0.2,0.5c-0.1,0.1-0.3,0.2-0.5,0.3v0c0.2,0.1,0.4,0.2,0.5,0.3c0.1,0.2,0.2,0.4,0.2,0.6c0,0.2,0,0.4-0.1,0.5
						c-0.1,0.1-0.2,0.3-0.4,0.3c-0.2,0.1-0.4,0.1-0.6,0.1c-0.3,0-0.6-0.1-0.9-0.3c-0.2-0.2-0.3-0.4-0.4-0.8h0.4
						c0,0.2,0.1,0.4,0.2,0.5c0.1,0.1,0.3,0.2,0.5,0.2c0.2,0,0.4-0.1,0.5-0.2c0.1-0.1,0.2-0.3,0.2-0.5c0-0.2-0.1-0.4-0.2-0.5
						c-0.2-0.1-0.4-0.2-0.7-0.2H226V309h0.1c0.3,0,0.5-0.1,0.7-0.1c0.2-0.1,0.2-0.2,0.2-0.5c0-0.2-0.1-0.3-0.2-0.4
						c-0.1-0.1-0.3-0.2-0.5-0.2c-0.2,0-0.4,0.1-0.5,0.2c-0.1,0.1-0.2,0.2-0.2,0.4H225.3z M153.2,315v2.2c0,0.3,0.1,0.5,0.2,0.7
						c0.2,0.1,0.4,0.2,0.6,0.2c0.3,0,0.5-0.1,0.6-0.2c0.2-0.1,0.2-0.4,0.2-0.7V315h0.4v2.2c0,0.3-0.1,0.5-0.2,0.7
						c-0.1,0.2-0.3,0.3-0.5,0.4c-0.2,0.1-0.4,0.1-0.7,0.1s-0.5,0-0.7-0.1c-0.2-0.1-0.3-0.2-0.5-0.4c-0.1-0.2-0.2-0.4-0.2-0.7V315
						H153.2z M159.3,315.7c0.2,0,0.4,0,0.6,0.1c0.2,0.1,0.3,0.2,0.4,0.4c0.1,0.2,0.1,0.4,0.1,0.6v1.6h-0.4v-1.5
						c0-0.3-0.1-0.5-0.2-0.6c-0.1-0.1-0.3-0.2-0.5-0.2c-0.2,0-0.4,0.1-0.6,0.2c-0.1,0.1-0.2,0.4-0.2,0.6v1.5H158v-1.5
						c0-0.3-0.1-0.5-0.2-0.6c-0.1-0.1-0.3-0.2-0.5-0.2c-0.2,0-0.4,0.1-0.6,0.2c-0.1,0.1-0.2,0.4-0.2,0.6v1.5h-0.4v-2.7h0.4v0.4
						c0.1-0.1,0.2-0.2,0.4-0.3c0.2-0.1,0.3-0.1,0.5-0.1c0.2,0,0.4,0.1,0.6,0.2c0.2,0.1,0.3,0.2,0.4,0.4c0.1-0.2,0.2-0.3,0.4-0.4
						S159.1,315.7,159.3,315.7z M161.5,316.2c0.1-0.2,0.2-0.3,0.4-0.4c0.2-0.1,0.4-0.2,0.6-0.2c0.2,0,0.5,0.1,0.7,0.2
						c0.2,0.1,0.3,0.3,0.5,0.5c0.1,0.2,0.2,0.4,0.2,0.7c0,0.3-0.1,0.5-0.2,0.7c-0.1,0.2-0.3,0.4-0.5,0.5c-0.2,0.1-0.4,0.2-0.6,0.2
						c-0.2,0-0.4-0.1-0.6-0.2c-0.2-0.1-0.3-0.2-0.4-0.4v0.5h-0.4v-3.6h0.4V316.2z M163.4,317.1c0-0.2,0-0.4-0.1-0.5
						c-0.1-0.2-0.2-0.3-0.3-0.3c-0.1-0.1-0.3-0.1-0.5-0.1c-0.2,0-0.3,0-0.5,0.1c-0.1,0.1-0.2,0.2-0.3,0.3c-0.1,0.2-0.1,0.3-0.1,0.5
						c0,0.2,0,0.4,0.1,0.5c0.1,0.2,0.2,0.3,0.3,0.3c0.1,0.1,0.3,0.1,0.5,0.1c0.2,0,0.3,0,0.5-0.1c0.1-0.1,0.3-0.2,0.3-0.3
						C163.3,317.4,163.4,317.3,163.4,317.1z M166.8,315.7v2.7h-0.4V318c-0.1,0.1-0.2,0.2-0.4,0.3c-0.2,0.1-0.3,0.1-0.5,0.1
						c-0.2,0-0.4,0-0.6-0.1c-0.2-0.1-0.3-0.2-0.4-0.4c-0.1-0.2-0.1-0.4-0.1-0.6v-1.6h0.4v1.5c0,0.3,0.1,0.5,0.2,0.6
						c0.1,0.1,0.3,0.2,0.5,0.2c0.2,0,0.4-0.1,0.6-0.2c0.1-0.1,0.2-0.4,0.2-0.6v-1.5H166.8z M168,314.8v3.6h-0.4v-3.6H168z
						 M170.1,315.7c0.2,0,0.4,0,0.5,0.1c0.2,0.1,0.3,0.2,0.4,0.4c0.1,0.2,0.1,0.4,0.1,0.6v1.6h-0.4v-1.5c0-0.3-0.1-0.5-0.2-0.6
						c-0.1-0.1-0.3-0.2-0.5-0.2c-0.2,0-0.4,0.1-0.6,0.2c-0.1,0.1-0.2,0.4-0.2,0.6v1.5h-0.4v-3.6h0.4v1.3c0.1-0.1,0.2-0.2,0.4-0.3
						C169.7,315.7,169.9,315.7,170.1,315.7z M171.7,317.1c0-0.3,0.1-0.5,0.2-0.7c0.1-0.2,0.3-0.4,0.5-0.5c0.2-0.1,0.4-0.2,0.7-0.2
						c0.2,0,0.4,0.1,0.6,0.2c0.2,0.1,0.3,0.2,0.4,0.4v-0.5h0.5v2.7H174v-0.5c-0.1,0.2-0.2,0.3-0.4,0.4c-0.2,0.1-0.4,0.2-0.6,0.2
						c-0.2,0-0.5-0.1-0.6-0.2s-0.3-0.3-0.5-0.5C171.8,317.6,171.7,317.3,171.7,317.1z M174,317.1c0-0.2,0-0.4-0.1-0.5
						c-0.1-0.2-0.2-0.3-0.3-0.3c-0.1-0.1-0.3-0.1-0.5-0.1c-0.2,0-0.3,0-0.5,0.1c-0.1,0.1-0.2,0.2-0.3,0.3c-0.1,0.2-0.1,0.3-0.1,0.5
						c0,0.2,0,0.4,0.1,0.5c0.1,0.2,0.2,0.3,0.3,0.3c0.1,0.1,0.3,0.1,0.5,0.1c0.2,0,0.3,0,0.5-0.1c0.1-0.1,0.3-0.2,0.3-0.3
						C173.9,317.4,174,317.3,174,317.1z M175.6,316.2c0.1-0.2,0.2-0.3,0.3-0.4c0.1-0.1,0.3-0.1,0.5-0.1v0.5h-0.1
						c-0.5,0-0.7,0.3-0.7,0.8v1.5h-0.4v-2.7h0.4V316.2z M177.2,315.3c-0.1,0-0.2,0-0.2-0.1c-0.1-0.1-0.1-0.1-0.1-0.2s0-0.2,0.1-0.2
						c0.1-0.1,0.1-0.1,0.2-0.1c0.1,0,0.2,0,0.2,0.1c0.1,0.1,0.1,0.1,0.1,0.2s0,0.2-0.1,0.2C177.4,315.3,177.3,315.3,177.2,315.3z
						 M177.5,319c0,0.2-0.1,0.4-0.2,0.5c-0.1,0.1-0.3,0.2-0.5,0.2h-0.3v-0.4h0.2c0.1,0,0.2,0,0.3-0.1c0.1,0,0.1-0.1,0.1-0.2v-3.3
						h0.4V319z M179.4,318.5c-0.3,0-0.5-0.1-0.7-0.2c-0.2-0.1-0.4-0.3-0.5-0.5c-0.1-0.2-0.2-0.5-0.2-0.7c0-0.3,0.1-0.5,0.2-0.7
						c0.1-0.2,0.3-0.4,0.5-0.5c0.2-0.1,0.4-0.2,0.7-0.2s0.5,0.1,0.7,0.2c0.2,0.1,0.4,0.3,0.5,0.5c0.1,0.2,0.2,0.5,0.2,0.7
						c0,0.3-0.1,0.5-0.2,0.7c-0.1,0.2-0.3,0.4-0.5,0.5C179.9,318.4,179.6,318.5,179.4,318.5z M179.4,318.1c0.2,0,0.3,0,0.5-0.1
						c0.1-0.1,0.3-0.2,0.3-0.3c0.1-0.2,0.1-0.3,0.1-0.5s0-0.4-0.1-0.5s-0.2-0.3-0.3-0.3c-0.1-0.1-0.3-0.1-0.4-0.1
						c-0.2,0-0.3,0-0.5,0.1c-0.1,0.1-0.2,0.2-0.3,0.3s-0.1,0.3-0.1,0.5c0,0.2,0,0.4,0.1,0.6c0.1,0.2,0.2,0.3,0.3,0.3
						C179.1,318,179.2,318.1,179.4,318.1z M185,315l-1.1,2.1v1.3h-0.4v-1.3l-1.1-2.1h0.5l0.8,1.7l0.8-1.7H185z M186.7,318.5
						c-0.3,0-0.5-0.1-0.7-0.2c-0.2-0.1-0.4-0.3-0.5-0.5c-0.1-0.2-0.2-0.5-0.2-0.7c0-0.3,0.1-0.5,0.2-0.7c0.1-0.2,0.3-0.4,0.5-0.5
						c0.2-0.1,0.4-0.2,0.7-0.2c0.3,0,0.5,0.1,0.7,0.2c0.2,0.1,0.4,0.3,0.5,0.5c0.1,0.2,0.2,0.5,0.2,0.7c0,0.3-0.1,0.5-0.2,0.7
						c-0.1,0.2-0.3,0.4-0.5,0.5C187.2,318.4,186.9,318.5,186.7,318.5z M186.7,318.1c0.2,0,0.3,0,0.5-0.1c0.1-0.1,0.3-0.2,0.3-0.3
						c0.1-0.2,0.1-0.3,0.1-0.5s0-0.4-0.1-0.5s-0.2-0.3-0.3-0.3c-0.1-0.1-0.3-0.1-0.4-0.1c-0.2,0-0.3,0-0.5,0.1
						c-0.1,0.1-0.2,0.2-0.3,0.3s-0.1,0.3-0.1,0.5c0,0.2,0,0.4,0.1,0.6c0.1,0.2,0.2,0.3,0.3,0.3C186.4,318,186.5,318.1,186.7,318.1z
						 M189.8,315.7c0.2,0,0.4,0.1,0.6,0.2c0.2,0.1,0.3,0.2,0.4,0.4v-0.5h0.5v2.7c0,0.2-0.1,0.5-0.2,0.7c-0.1,0.2-0.3,0.3-0.5,0.5
						c-0.2,0.1-0.4,0.2-0.7,0.2c-0.4,0-0.6-0.1-0.9-0.2c-0.2-0.2-0.4-0.4-0.4-0.7h0.4c0,0.2,0.2,0.3,0.3,0.4
						c0.2,0.1,0.3,0.2,0.6,0.2c0.2,0,0.4-0.1,0.6-0.2c0.2-0.2,0.2-0.4,0.2-0.6v-0.6c-0.1,0.2-0.2,0.3-0.4,0.4
						c-0.2,0.1-0.4,0.2-0.6,0.2c-0.2,0-0.5-0.1-0.7-0.2c-0.2-0.1-0.3-0.3-0.5-0.5c-0.1-0.2-0.2-0.5-0.2-0.7c0-0.3,0.1-0.5,0.2-0.7
						c0.1-0.2,0.3-0.4,0.5-0.5C189.3,315.7,189.5,315.7,189.8,315.7z M190.7,317.1c0-0.2,0-0.4-0.1-0.5c-0.1-0.2-0.2-0.3-0.3-0.3
						c-0.1-0.1-0.3-0.1-0.5-0.1s-0.3,0-0.5,0.1c-0.1,0.1-0.2,0.2-0.3,0.3c-0.1,0.2-0.1,0.3-0.1,0.5c0,0.2,0,0.4,0.1,0.5
						c0.1,0.2,0.2,0.3,0.3,0.3c0.1,0.1,0.3,0.1,0.5,0.1s0.3,0,0.5-0.1c0.1-0.1,0.3-0.2,0.3-0.3C190.7,317.4,190.7,317.3,190.7,317.1
						z M194.3,315.7l-1.6,3.9h-0.5l0.5-1.3l-1.1-2.7h0.5l0.8,2.2l0.8-2.2H194.3z M194.5,317.1c0-0.3,0.1-0.5,0.2-0.7
						c0.1-0.2,0.3-0.4,0.5-0.5c0.2-0.1,0.4-0.2,0.7-0.2c0.2,0,0.4,0.1,0.6,0.2c0.2,0.1,0.3,0.2,0.4,0.4v-0.5h0.5v2.7h-0.5v-0.5
						c-0.1,0.2-0.2,0.3-0.4,0.4c-0.2,0.1-0.4,0.2-0.6,0.2c-0.2,0-0.5-0.1-0.6-0.2c-0.2-0.1-0.3-0.3-0.5-0.5
						C194.6,317.6,194.5,317.3,194.5,317.1z M196.8,317.1c0-0.2,0-0.4-0.1-0.5c-0.1-0.2-0.2-0.3-0.3-0.3c-0.1-0.1-0.3-0.1-0.5-0.1
						s-0.3,0-0.5,0.1c-0.1,0.1-0.2,0.2-0.3,0.3c-0.1,0.2-0.1,0.3-0.1,0.5c0,0.2,0,0.4,0.1,0.5c0.1,0.2,0.2,0.3,0.3,0.3
						c0.1,0.1,0.3,0.1,0.5,0.1s0.3,0,0.5-0.1c0.1-0.1,0.3-0.2,0.3-0.3C196.8,317.4,196.8,317.3,196.8,317.1z M199.5,318.4l-1.1-1.2
						v1.2H198v-3.6h0.4v2.1l1-1.2h0.6l-1.3,1.3l1.3,1.3H199.5z M200.4,317.1c0-0.3,0.1-0.5,0.2-0.7c0.1-0.2,0.3-0.4,0.5-0.5
						c0.2-0.1,0.4-0.2,0.7-0.2c0.2,0,0.4,0.1,0.6,0.2c0.2,0.1,0.3,0.2,0.4,0.4v-0.5h0.5v2.7h-0.5v-0.5c-0.1,0.2-0.2,0.3-0.4,0.4
						c-0.2,0.1-0.4,0.2-0.6,0.2c-0.2,0-0.5-0.1-0.6-0.2s-0.3-0.3-0.5-0.5C200.4,317.6,200.4,317.3,200.4,317.1z M202.6,317.1
						c0-0.2,0-0.4-0.1-0.5c-0.1-0.2-0.2-0.3-0.3-0.3c-0.1-0.1-0.3-0.1-0.5-0.1c-0.2,0-0.3,0-0.5,0.1c-0.1,0.1-0.2,0.2-0.3,0.3
						c-0.1,0.2-0.1,0.3-0.1,0.5c0,0.2,0,0.4,0.1,0.5c0.1,0.2,0.2,0.3,0.3,0.3c0.1,0.1,0.3,0.1,0.5,0.1c0.2,0,0.3,0,0.5-0.1
						c0.1-0.1,0.3-0.2,0.3-0.3C202.6,317.4,202.6,317.3,202.6,317.1z M204.3,316.2c0.1-0.2,0.2-0.3,0.3-0.4c0.1-0.1,0.3-0.1,0.5-0.1
						v0.5H205c-0.5,0-0.7,0.3-0.7,0.8v1.5h-0.4v-2.7h0.4V316.2z M206.2,316.1v1.6c0,0.1,0,0.2,0.1,0.3c0.1,0.1,0.2,0.1,0.3,0.1h0.3
						v0.4h-0.4c-0.2,0-0.4-0.1-0.6-0.2c-0.1-0.1-0.2-0.3-0.2-0.6v-1.6h-0.3v-0.4h0.3v-0.7h0.4v0.7h0.7v0.4H206.2z M207.3,317.1
						c0-0.3,0.1-0.5,0.2-0.7c0.1-0.2,0.3-0.4,0.5-0.5c0.2-0.1,0.4-0.2,0.7-0.2c0.2,0,0.4,0.1,0.6,0.2c0.2,0.1,0.3,0.2,0.4,0.4v-0.5
						h0.5v2.7h-0.5v-0.5c-0.1,0.2-0.2,0.3-0.4,0.4c-0.2,0.1-0.4,0.2-0.6,0.2c-0.2,0-0.5-0.1-0.6-0.2c-0.2-0.1-0.3-0.3-0.5-0.5
						C207.3,317.6,207.3,317.3,207.3,317.1z M209.6,317.1c0-0.2,0-0.4-0.1-0.5c-0.1-0.2-0.2-0.3-0.3-0.3c-0.1-0.1-0.3-0.1-0.5-0.1
						c-0.2,0-0.3,0-0.5,0.1c-0.1,0.1-0.2,0.2-0.3,0.3c-0.1,0.2-0.1,0.3-0.1,0.5c0,0.2,0,0.4,0.1,0.5c0.1,0.2,0.2,0.3,0.3,0.3
						c0.1,0.1,0.3,0.1,0.5,0.1c0.2,0,0.3,0,0.5-0.1c0.1-0.1,0.3-0.2,0.3-0.3C209.5,317.4,209.6,317.3,209.6,317.1z"/>
					<path class="st9" d="M155.3,291.9c-0.1-0.2-0.2-0.4-0.4-0.5c-0.2-0.1-0.4-0.2-0.6-0.2s-0.5,0.1-0.6,0.2
						c-0.2,0.1-0.3,0.3-0.5,0.5c-0.1,0.2-0.2,0.4-0.2,0.7s0.1,0.5,0.2,0.7c0.1,0.2,0.3,0.4,0.5,0.5c0.2,0.1,0.4,0.2,0.6,0.2
						c0.3,0,0.6-0.1,0.8-0.3c0.2-0.2,0.3-0.5,0.4-0.8h-1.4v-0.4h1.8v0.3c0,0.3-0.1,0.5-0.3,0.8c-0.2,0.2-0.3,0.4-0.6,0.6
						c-0.2,0.1-0.5,0.2-0.8,0.2c-0.3,0-0.6-0.1-0.9-0.2c-0.3-0.2-0.5-0.4-0.6-0.6c-0.2-0.3-0.2-0.6-0.2-0.9c0-0.3,0.1-0.6,0.2-0.9
						c0.2-0.3,0.4-0.5,0.6-0.6c0.3-0.2,0.5-0.2,0.9-0.2c0.4,0,0.7,0.1,1,0.3c0.3,0.2,0.5,0.4,0.6,0.8H155.3z M157,292.1
						c0.1-0.2,0.2-0.3,0.3-0.4c0.1-0.1,0.3-0.1,0.5-0.1v0.5h-0.1c-0.5,0-0.7,0.3-0.7,0.8v1.5h-0.4v-2.7h0.4V292.1z M160.8,291.7v2.7
						h-0.4V294c-0.1,0.1-0.2,0.2-0.4,0.3c-0.2,0.1-0.3,0.1-0.5,0.1c-0.2,0-0.4,0-0.6-0.1c-0.2-0.1-0.3-0.2-0.4-0.4
						c-0.1-0.2-0.1-0.4-0.1-0.6v-1.6h0.4v1.5c0,0.3,0.1,0.5,0.2,0.6c0.1,0.1,0.3,0.2,0.5,0.2c0.2,0,0.4-0.1,0.6-0.2
						c0.1-0.1,0.2-0.4,0.2-0.6v-1.5H160.8z M162,292.2c0.1-0.2,0.2-0.3,0.4-0.4c0.2-0.1,0.4-0.2,0.6-0.2c0.2,0,0.5,0.1,0.6,0.2
						c0.2,0.1,0.3,0.3,0.5,0.5c0.1,0.2,0.2,0.4,0.2,0.7c0,0.3-0.1,0.5-0.2,0.7c-0.1,0.2-0.3,0.4-0.5,0.5c-0.2,0.1-0.4,0.2-0.6,0.2
						c-0.2,0-0.4-0.1-0.6-0.2c-0.2-0.1-0.3-0.2-0.4-0.4v1.8h-0.4v-4h0.4V292.2z M163.8,293c0-0.2,0-0.4-0.1-0.5
						c-0.1-0.2-0.2-0.3-0.3-0.3c-0.1-0.1-0.3-0.1-0.5-0.1c-0.2,0-0.3,0-0.5,0.1c-0.1,0.1-0.2,0.2-0.3,0.3c-0.1,0.2-0.1,0.3-0.1,0.5
						c0,0.2,0,0.4,0.1,0.5c0.1,0.2,0.2,0.3,0.3,0.3c0.1,0.1,0.3,0.1,0.5,0.1c0.2,0,0.3,0,0.5-0.1c0.1-0.1,0.3-0.2,0.3-0.3
						C163.7,293.4,163.8,293.2,163.8,293z"/>
					<g>
						<path class="st1" d="M145,182.2h116.2c3.4,0,6.1,2.7,6.1,6.1v71c0,3.4-2.7,6.1-6.1,6.1H145c-3.4,0-6.1-2.7-6.1-6.1v-71
							C138.9,185,141.7,182.2,145,182.2z"/>
						<path class="st8" d="M145,182.4h116.2c3.3,0,5.9,2.6,5.9,5.9v71c0,3.3-2.6,5.9-5.9,5.9H145c-3.3,0-5.9-2.6-5.9-5.9v-71
							C139.1,185.1,141.8,182.4,145,182.4z"/>
					</g>
					<path class="st9" d="M155,212c0,0.3-0.1,0.5-0.3,0.7c-0.2,0.2-0.5,0.3-0.9,0.3h-0.7v1.4h-0.4V211h1.1c0.4,0,0.7,0.1,0.9,0.3
						C154.9,211.5,155,211.7,155,212z M153.9,212.6c0.2,0,0.4-0.1,0.5-0.2c0.1-0.1,0.2-0.3,0.2-0.5c0-0.4-0.2-0.6-0.7-0.6h-0.7v1.3
						H153.9z M158,213c0,0.1,0,0.2,0,0.3h-2.1c0,0.3,0.1,0.5,0.3,0.6c0.2,0.1,0.4,0.2,0.6,0.2c0.2,0,0.4,0,0.5-0.1
						c0.1-0.1,0.2-0.2,0.3-0.4h0.5c-0.1,0.3-0.2,0.5-0.4,0.6c-0.2,0.2-0.5,0.2-0.8,0.2c-0.3,0-0.5-0.1-0.7-0.2
						c-0.2-0.1-0.4-0.3-0.5-0.5c-0.1-0.2-0.2-0.5-0.2-0.7c0-0.3,0.1-0.5,0.2-0.7c0.1-0.2,0.3-0.4,0.5-0.5c0.2-0.1,0.4-0.2,0.7-0.2
						c0.3,0,0.5,0.1,0.7,0.2s0.3,0.3,0.5,0.5C158,212.5,158,212.8,158,213z M157.6,212.9c0-0.2,0-0.3-0.1-0.4
						c-0.1-0.1-0.2-0.2-0.3-0.3c-0.1-0.1-0.3-0.1-0.4-0.1c-0.2,0-0.4,0.1-0.6,0.2c-0.2,0.1-0.2,0.3-0.3,0.6H157.6z M159.1,212.2
						c0.1-0.2,0.2-0.3,0.3-0.4c0.1-0.1,0.3-0.1,0.5-0.1v0.5h-0.1c-0.5,0-0.7,0.3-0.7,0.8v1.5h-0.4v-2.7h0.4V212.2z M162.9,213
						c0,0.1,0,0.2,0,0.3h-2.1c0,0.3,0.1,0.5,0.3,0.6c0.2,0.1,0.4,0.2,0.6,0.2c0.2,0,0.4,0,0.5-0.1c0.1-0.1,0.2-0.2,0.3-0.4h0.5
						c-0.1,0.3-0.2,0.5-0.4,0.6c-0.2,0.2-0.5,0.2-0.8,0.2c-0.3,0-0.5-0.1-0.7-0.2c-0.2-0.1-0.4-0.3-0.5-0.5
						c-0.1-0.2-0.2-0.5-0.2-0.7c0-0.3,0.1-0.5,0.2-0.7c0.1-0.2,0.3-0.4,0.5-0.5c0.2-0.1,0.4-0.2,0.7-0.2c0.3,0,0.5,0.1,0.7,0.2
						s0.3,0.3,0.5,0.5C162.8,212.5,162.9,212.8,162.9,213z M162.4,212.9c0-0.2,0-0.3-0.1-0.4c-0.1-0.1-0.2-0.2-0.3-0.3
						c-0.1-0.1-0.3-0.1-0.4-0.1c-0.2,0-0.4,0.1-0.6,0.2c-0.2,0.1-0.2,0.3-0.3,0.6H162.4z M166.7,211.7c0.2,0,0.4,0,0.6,0.1
						c0.2,0.1,0.3,0.2,0.4,0.4s0.1,0.4,0.1,0.6v1.6h-0.4v-1.5c0-0.3-0.1-0.5-0.2-0.6c-0.1-0.1-0.3-0.2-0.5-0.2
						c-0.2,0-0.4,0.1-0.6,0.2c-0.1,0.1-0.2,0.4-0.2,0.6v1.5h-0.4v-1.5c0-0.3-0.1-0.5-0.2-0.6c-0.1-0.1-0.3-0.2-0.5-0.2
						c-0.2,0-0.4,0.1-0.6,0.2c-0.1,0.1-0.2,0.4-0.2,0.6v1.5h-0.4v-2.7h0.4v0.4c0.1-0.1,0.2-0.2,0.4-0.3c0.2-0.1,0.3-0.1,0.5-0.1
						c0.2,0,0.4,0.1,0.6,0.2c0.2,0.1,0.3,0.2,0.4,0.4c0.1-0.2,0.2-0.3,0.4-0.4C166.3,211.8,166.5,211.7,166.7,211.7z M169,212.3
						c0.1-0.2,0.2-0.3,0.4-0.4c0.2-0.1,0.4-0.2,0.6-0.2c0.2,0,0.5,0.1,0.6,0.2c0.2,0.1,0.3,0.3,0.5,0.5c0.1,0.2,0.2,0.4,0.2,0.7
						c0,0.3-0.1,0.5-0.2,0.7c-0.1,0.2-0.3,0.4-0.5,0.5c-0.2,0.1-0.4,0.2-0.6,0.2c-0.2,0-0.4-0.1-0.6-0.2c-0.2-0.1-0.3-0.2-0.4-0.4
						v1.8h-0.4v-4h0.4V212.3z M170.8,213.1c0-0.2,0-0.4-0.1-0.5c-0.1-0.2-0.2-0.3-0.3-0.3c-0.1-0.1-0.3-0.1-0.5-0.1
						c-0.2,0-0.3,0-0.5,0.1c-0.1,0.1-0.2,0.2-0.3,0.3c-0.1,0.2-0.1,0.3-0.1,0.5c0,0.2,0,0.4,0.1,0.5c0.1,0.2,0.2,0.3,0.3,0.3
						c0.1,0.1,0.3,0.1,0.5,0.1c0.2,0,0.3,0,0.5-0.1c0.1-0.1,0.3-0.2,0.3-0.3C170.8,213.5,170.8,213.3,170.8,213.1z M174.2,211.8v2.7
						h-0.4V214c-0.1,0.1-0.2,0.2-0.4,0.3c-0.2,0.1-0.3,0.1-0.5,0.1c-0.2,0-0.4,0-0.6-0.1c-0.2-0.1-0.3-0.2-0.4-0.4
						c-0.1-0.2-0.1-0.4-0.1-0.6v-1.6h0.4v1.5c0,0.3,0.1,0.5,0.2,0.6c0.1,0.1,0.3,0.2,0.5,0.2c0.2,0,0.4-0.1,0.6-0.2
						c0.1-0.1,0.2-0.4,0.2-0.6v-1.5H174.2z M174.8,213.1c0-0.3,0.1-0.5,0.2-0.7c0.1-0.2,0.3-0.4,0.5-0.5c0.2-0.1,0.4-0.2,0.7-0.2
						c0.2,0,0.4,0.1,0.6,0.2c0.2,0.1,0.3,0.2,0.4,0.4v-0.5h0.5v2.7h-0.5v-0.5c-0.1,0.2-0.2,0.3-0.4,0.4c-0.2,0.1-0.4,0.2-0.6,0.2
						c-0.2,0-0.5-0.1-0.6-0.2c-0.2-0.1-0.3-0.3-0.5-0.5C174.9,213.6,174.8,213.4,174.8,213.1z M177.1,213.1c0-0.2,0-0.4-0.1-0.5
						c-0.1-0.2-0.2-0.3-0.3-0.3c-0.1-0.1-0.3-0.1-0.5-0.1c-0.2,0-0.3,0-0.5,0.1s-0.2,0.2-0.3,0.3c-0.1,0.2-0.1,0.3-0.1,0.5
						c0,0.2,0,0.4,0.1,0.5c0.1,0.2,0.2,0.3,0.3,0.3c0.1,0.1,0.3,0.1,0.5,0.1c0.2,0,0.3,0,0.5-0.1c0.1-0.1,0.3-0.2,0.3-0.3
						C177,213.5,177.1,213.3,177.1,213.1z M179.6,211.7c0.3,0,0.6,0.1,0.8,0.3c0.2,0.2,0.3,0.5,0.3,0.9v1.6h-0.4v-1.5
						c0-0.3-0.1-0.5-0.2-0.6c-0.1-0.1-0.3-0.2-0.5-0.2c-0.2,0-0.4,0.1-0.6,0.2c-0.1,0.1-0.2,0.4-0.2,0.6v1.5h-0.4v-2.7h0.4v0.4
						c0.1-0.1,0.2-0.2,0.4-0.3C179.2,211.7,179.4,211.7,179.6,211.7z M153.2,223.6c0.1-0.2,0.2-0.3,0.3-0.4c0.1-0.1,0.3-0.1,0.5-0.1
						v0.5h-0.1c-0.5,0-0.7,0.3-0.7,0.8v1.5h-0.4v-2.7h0.4V223.6z M154.8,222.7c-0.1,0-0.2,0-0.2-0.1c-0.1-0.1-0.1-0.1-0.1-0.2
						s0-0.2,0.1-0.2c0.1-0.1,0.1-0.1,0.2-0.1c0.1,0,0.2,0,0.2,0.1c0.1,0.1,0.1,0.1,0.1,0.2s0,0.2-0.1,0.2
						C155,222.7,154.9,222.7,154.8,222.7z M155,223.2v2.7h-0.4v-2.7H155z M156.1,225.5h1.3v0.4h-1.8v-0.4l1.3-2h-1.3v-0.4h1.8v0.4
						L156.1,225.5z M157.8,224.5c0-0.3,0.1-0.5,0.2-0.7c0.1-0.2,0.3-0.4,0.5-0.5c0.2-0.1,0.4-0.2,0.7-0.2c0.2,0,0.4,0.1,0.6,0.2
						c0.2,0.1,0.3,0.2,0.4,0.4v-0.5h0.5v4h-0.5v-1.8c-0.1,0.2-0.2,0.3-0.4,0.4c-0.2,0.1-0.4,0.2-0.6,0.2c-0.2,0-0.4-0.1-0.6-0.2
						c-0.2-0.1-0.3-0.3-0.5-0.5C157.9,225,157.8,224.8,157.8,224.5z M160.1,224.5c0-0.2,0-0.4-0.1-0.5c-0.1-0.2-0.2-0.3-0.3-0.3
						c-0.1-0.1-0.3-0.1-0.5-0.1s-0.3,0-0.5,0.1c-0.1,0.1-0.2,0.2-0.3,0.3c-0.1,0.2-0.1,0.3-0.1,0.5c0,0.2,0,0.4,0.1,0.5
						c0.1,0.2,0.2,0.3,0.3,0.3c0.1,0.1,0.3,0.1,0.5,0.1s0.3,0,0.5-0.1c0.1-0.1,0.3-0.2,0.3-0.3C160.1,224.9,160.1,224.7,160.1,224.5
						z M161.5,222.7c-0.1,0-0.2,0-0.2-0.1c-0.1-0.1-0.1-0.1-0.1-0.2s0-0.2,0.1-0.2s0.1-0.1,0.2-0.1c0.1,0,0.2,0,0.2,0.1
						c0.1,0.1,0.1,0.1,0.1,0.2s0,0.2-0.1,0.2C161.7,222.7,161.6,222.7,161.5,222.7z M161.8,223.2v2.7h-0.4v-2.7H161.8z M163,223.7
						c0.1-0.2,0.2-0.3,0.4-0.4c0.2-0.1,0.4-0.2,0.6-0.2c0.2,0,0.5,0.1,0.6,0.2c0.2,0.1,0.3,0.3,0.5,0.5c0.1,0.2,0.2,0.4,0.2,0.7
						c0,0.3-0.1,0.5-0.2,0.7c-0.1,0.2-0.3,0.4-0.5,0.5c-0.2,0.1-0.4,0.2-0.6,0.2c-0.2,0-0.4-0.1-0.6-0.2c-0.2-0.1-0.3-0.2-0.4-0.4
						v1.8h-0.4v-4h0.4V223.7z M164.8,224.5c0-0.2,0-0.4-0.1-0.5c-0.1-0.2-0.2-0.3-0.3-0.3c-0.1-0.1-0.3-0.1-0.5-0.1
						c-0.2,0-0.3,0-0.5,0.1c-0.1,0.1-0.2,0.2-0.3,0.3c-0.1,0.2-0.1,0.3-0.1,0.5c0,0.2,0,0.4,0.1,0.5c0.1,0.2,0.2,0.3,0.3,0.3
						c0.1,0.1,0.3,0.1,0.5,0.1c0.2,0,0.3,0,0.5-0.1c0.1-0.1,0.3-0.2,0.3-0.3C164.7,224.9,164.8,224.7,164.8,224.5z M168.2,223.2v2.7
						h-0.4v-0.4c-0.1,0.1-0.2,0.2-0.4,0.3c-0.2,0.1-0.3,0.1-0.5,0.1c-0.2,0-0.4,0-0.6-0.1c-0.2-0.1-0.3-0.2-0.4-0.4
						c-0.1-0.2-0.1-0.4-0.1-0.6v-1.6h0.4v1.5c0,0.3,0.1,0.5,0.2,0.6c0.1,0.1,0.3,0.2,0.5,0.2c0.2,0,0.4-0.1,0.6-0.2
						c0.1-0.1,0.2-0.4,0.2-0.6v-1.5H168.2z M169.5,223.5v1.6c0,0.1,0,0.2,0.1,0.3c0.1,0.1,0.2,0.1,0.3,0.1h0.3v0.4h-0.4
						c-0.2,0-0.4-0.1-0.6-0.2s-0.2-0.3-0.2-0.6v-1.6h-0.3v-0.4h0.3v-0.7h0.4v0.7h0.7v0.4H169.5z M171.2,223.6
						c0.1-0.2,0.2-0.3,0.3-0.4c0.1-0.1,0.3-0.1,0.5-0.1v0.5h-0.1c-0.5,0-0.7,0.3-0.7,0.8v1.5h-0.4v-2.7h0.4V223.6z M172.8,222.7
						c-0.1,0-0.2,0-0.2-0.1c-0.1-0.1-0.1-0.1-0.1-0.2s0-0.2,0.1-0.2c0.1-0.1,0.1-0.1,0.2-0.1c0.1,0,0.2,0,0.2,0.1
						c0.1,0.1,0.1,0.1,0.1,0.2s0,0.2-0.1,0.2C173,222.7,172.9,222.7,172.8,222.7z M173,223.2v2.7h-0.4v-2.7H173z M176.2,222.7
						c0.4,0,0.7,0.1,0.9,0.2c0.3,0.1,0.5,0.3,0.6,0.6c0.1,0.2,0.2,0.5,0.2,0.9c0,0.3,0,0.5-0.1,0.7c-0.1,0.2-0.2,0.4-0.4,0.6
						c-0.2,0.1-0.3,0.2-0.6,0.2c-0.2,0-0.3,0-0.4-0.1s-0.1-0.2-0.2-0.3c-0.1,0.1-0.2,0.3-0.4,0.3c-0.2,0.1-0.3,0.1-0.5,0.1
						c-0.2,0-0.4-0.1-0.6-0.2c-0.1-0.2-0.2-0.4-0.2-0.6c0-0.2,0.1-0.5,0.2-0.7c0.1-0.2,0.2-0.4,0.4-0.5c0.2-0.1,0.4-0.2,0.6-0.2
						c0.3,0,0.5,0.1,0.6,0.4l0.1-0.3h0.4l-0.2,1.4c0,0.1,0,0.1,0,0.2c0,0.2,0.1,0.3,0.3,0.3c0.1,0,0.2-0.1,0.3-0.2
						c0.1-0.1,0.2-0.3,0.2-0.5c0-0.2,0.1-0.4,0.1-0.6c0-0.4-0.1-0.8-0.4-1c-0.3-0.2-0.6-0.4-1.1-0.4c-0.4,0-0.7,0.1-1.1,0.3
						c-0.3,0.2-0.6,0.4-0.7,0.8c-0.2,0.3-0.3,0.7-0.3,1.1c0,0.4,0.1,0.8,0.4,1c0.3,0.2,0.6,0.4,1.1,0.4c0.3,0,0.6-0.1,0.8-0.2
						l0.1,0.3c-0.3,0.1-0.6,0.2-1,0.2c-0.3,0-0.7-0.1-0.9-0.2c-0.3-0.1-0.5-0.3-0.6-0.6c-0.1-0.2-0.2-0.5-0.2-0.9
						c0-0.5,0.1-0.9,0.3-1.3c0.2-0.4,0.5-0.7,0.9-0.9C175.3,222.8,175.8,222.7,176.2,222.7z M175.7,225.5c0.1,0,0.3,0,0.4-0.1
						c0.1-0.1,0.2-0.2,0.3-0.4c0.1-0.2,0.1-0.3,0.1-0.5c0-0.2,0-0.3-0.1-0.4c-0.1-0.1-0.2-0.2-0.4-0.2c-0.2,0-0.3,0-0.4,0.1
						c-0.1,0.1-0.2,0.2-0.3,0.4c-0.1,0.2-0.1,0.3-0.1,0.5c0,0.2,0,0.3,0.1,0.4C175.4,225.5,175.5,225.5,175.7,225.5z M180.2,225.9
						l-1.1-1.2v1.2h-0.4v-3.6h0.4v2.1l1-1.2h0.6l-1.3,1.3l1.3,1.3H180.2z M183.7,224.4c0,0.1,0,0.2,0,0.3h-2.1
						c0,0.3,0.1,0.5,0.3,0.6c0.2,0.1,0.4,0.2,0.6,0.2c0.2,0,0.4,0,0.5-0.1c0.1-0.1,0.2-0.2,0.3-0.4h0.5c-0.1,0.3-0.2,0.5-0.4,0.6
						c-0.2,0.2-0.5,0.2-0.8,0.2c-0.3,0-0.5-0.1-0.7-0.2c-0.2-0.1-0.4-0.3-0.5-0.5c-0.1-0.2-0.2-0.5-0.2-0.7c0-0.3,0.1-0.5,0.2-0.7
						c0.1-0.2,0.3-0.4,0.5-0.5c0.2-0.1,0.4-0.2,0.7-0.2c0.3,0,0.5,0.1,0.7,0.2s0.3,0.3,0.5,0.5C183.6,224,183.7,224.2,183.7,224.4z
						 M183.2,224.3c0-0.2,0-0.3-0.1-0.4c-0.1-0.1-0.2-0.2-0.3-0.3c-0.1-0.1-0.3-0.1-0.4-0.1c-0.2,0-0.4,0.1-0.6,0.2
						c-0.2,0.1-0.2,0.3-0.3,0.6H183.2z M184.7,223.6c0.1-0.2,0.2-0.3,0.3-0.4c0.1-0.1,0.3-0.1,0.5-0.1v0.5h-0.1
						c-0.5,0-0.7,0.3-0.7,0.8v1.5h-0.4v-2.7h0.4V223.6z M186.4,222.7c-0.1,0-0.2,0-0.2-0.1c-0.1-0.1-0.1-0.1-0.1-0.2s0-0.2,0.1-0.2
						c0.1-0.1,0.1-0.1,0.2-0.1s0.2,0,0.2,0.1c0.1,0.1,0.1,0.1,0.1,0.2s0,0.2-0.1,0.2C186.5,222.7,186.4,222.7,186.4,222.7z
						 M186.6,226.4c0,0.2-0.1,0.4-0.2,0.5c-0.1,0.1-0.3,0.2-0.5,0.2h-0.3v-0.4h0.2c0.1,0,0.2,0,0.3-0.1c0.1,0,0.1-0.1,0.1-0.2v-3.3
						h0.4V226.4z M188.5,225.9c-0.3,0-0.5-0.1-0.7-0.2c-0.2-0.1-0.4-0.3-0.5-0.5c-0.1-0.2-0.2-0.5-0.2-0.7c0-0.3,0.1-0.5,0.2-0.7
						c0.1-0.2,0.3-0.4,0.5-0.5c0.2-0.1,0.4-0.2,0.7-0.2s0.5,0.1,0.7,0.2c0.2,0.1,0.4,0.3,0.5,0.5c0.1,0.2,0.2,0.5,0.2,0.7
						c0,0.3-0.1,0.5-0.2,0.7c-0.1,0.2-0.3,0.4-0.5,0.5C189,225.8,188.8,225.9,188.5,225.9z M188.5,225.5c0.2,0,0.3,0,0.5-0.1
						c0.1-0.1,0.3-0.2,0.3-0.3c0.1-0.2,0.1-0.3,0.1-0.5s0-0.4-0.1-0.5c-0.1-0.2-0.2-0.3-0.3-0.3c-0.1-0.1-0.3-0.1-0.4-0.1
						c-0.2,0-0.3,0-0.5,0.1c-0.1,0.1-0.2,0.2-0.3,0.3c-0.1,0.2-0.1,0.3-0.1,0.5c0,0.2,0,0.4,0.1,0.6c0.1,0.2,0.2,0.3,0.3,0.3
						C188.2,225.5,188.3,225.5,188.5,225.5z M191.6,225.9c-0.3,0-0.5-0.1-0.7-0.2c-0.2-0.1-0.4-0.3-0.5-0.5
						c-0.1-0.2-0.2-0.5-0.2-0.7c0-0.3,0.1-0.5,0.2-0.7c0.1-0.2,0.3-0.4,0.5-0.5c0.2-0.1,0.4-0.2,0.7-0.2s0.5,0.1,0.7,0.2
						c0.2,0.1,0.4,0.3,0.5,0.5c0.1,0.2,0.2,0.5,0.2,0.7c0,0.3-0.1,0.5-0.2,0.7c-0.1,0.2-0.3,0.4-0.5,0.5
						C192.1,225.8,191.9,225.9,191.6,225.9z M191.6,225.5c0.2,0,0.3,0,0.5-0.1c0.1-0.1,0.3-0.2,0.3-0.3c0.1-0.2,0.1-0.3,0.1-0.5
						s0-0.4-0.1-0.5c-0.1-0.2-0.2-0.3-0.3-0.3c-0.1-0.1-0.3-0.1-0.4-0.1c-0.2,0-0.3,0-0.5,0.1c-0.1,0.1-0.2,0.2-0.3,0.3
						c-0.1,0.2-0.1,0.3-0.1,0.5c0,0.2,0,0.4,0.1,0.6c0.1,0.2,0.2,0.3,0.3,0.3C191.3,225.5,191.5,225.5,191.6,225.5z M193.7,225.9
						c-0.1,0-0.2,0-0.2-0.1c-0.1-0.1-0.1-0.1-0.1-0.2c0-0.1,0-0.2,0.1-0.2c0.1-0.1,0.1-0.1,0.2-0.1c0.1,0,0.2,0,0.2,0.1
						c0.1,0.1,0.1,0.1,0.1,0.2c0,0.1,0,0.2-0.1,0.2C193.9,225.9,193.8,225.9,193.7,225.9z M194.4,224.5c0-0.3,0.1-0.5,0.2-0.7
						c0.1-0.2,0.3-0.4,0.5-0.5c0.2-0.1,0.4-0.2,0.7-0.2c0.3,0,0.6,0.1,0.8,0.2c0.2,0.2,0.4,0.4,0.4,0.7h-0.5c0-0.2-0.1-0.3-0.3-0.4
						c-0.1-0.1-0.3-0.1-0.5-0.1c-0.3,0-0.5,0.1-0.6,0.3c-0.2,0.2-0.2,0.4-0.2,0.7c0,0.3,0.1,0.6,0.2,0.7c0.2,0.2,0.4,0.3,0.6,0.3
						c0.2,0,0.4,0,0.5-0.1s0.2-0.2,0.3-0.4h0.5c-0.1,0.3-0.2,0.5-0.4,0.7c-0.2,0.2-0.5,0.2-0.8,0.2c-0.3,0-0.5-0.1-0.7-0.2
						c-0.2-0.1-0.3-0.3-0.5-0.5C194.5,225,194.4,224.8,194.4,224.5z M198.8,225.9c-0.3,0-0.5-0.1-0.7-0.2c-0.2-0.1-0.4-0.3-0.5-0.5
						c-0.1-0.2-0.2-0.5-0.2-0.7c0-0.3,0.1-0.5,0.2-0.7c0.1-0.2,0.3-0.4,0.5-0.5c0.2-0.1,0.4-0.2,0.7-0.2c0.3,0,0.5,0.1,0.7,0.2
						c0.2,0.1,0.4,0.3,0.5,0.5c0.1,0.2,0.2,0.5,0.2,0.7c0,0.3-0.1,0.5-0.2,0.7c-0.1,0.2-0.3,0.4-0.5,0.5S199,225.9,198.8,225.9z
						 M198.8,225.5c0.2,0,0.3,0,0.5-0.1c0.1-0.1,0.3-0.2,0.3-0.3c0.1-0.2,0.1-0.3,0.1-0.5s0-0.4-0.1-0.5c-0.1-0.2-0.2-0.3-0.3-0.3
						c-0.1-0.1-0.3-0.1-0.4-0.1c-0.2,0-0.3,0-0.5,0.1c-0.1,0.1-0.2,0.2-0.3,0.3c-0.1,0.2-0.1,0.3-0.1,0.5c0,0.2,0,0.4,0.1,0.6
						c0.1,0.2,0.2,0.3,0.3,0.3C198.5,225.5,198.6,225.5,198.8,225.5z M203.9,223.1c0.2,0,0.4,0,0.6,0.1c0.2,0.1,0.3,0.2,0.4,0.4
						c0.1,0.2,0.1,0.4,0.1,0.6v1.6h-0.4v-1.5c0-0.3-0.1-0.5-0.2-0.6c-0.1-0.1-0.3-0.2-0.5-0.2c-0.2,0-0.4,0.1-0.6,0.2
						c-0.1,0.1-0.2,0.4-0.2,0.6v1.5h-0.4v-1.5c0-0.3-0.1-0.5-0.2-0.6c-0.1-0.1-0.3-0.2-0.5-0.2c-0.2,0-0.4,0.1-0.6,0.2
						c-0.1,0.1-0.2,0.4-0.2,0.6v1.5h-0.4v-2.7h0.4v0.4c0.1-0.1,0.2-0.2,0.4-0.3c0.2-0.1,0.3-0.1,0.5-0.1c0.2,0,0.4,0.1,0.6,0.2
						c0.2,0.1,0.3,0.2,0.4,0.4c0.1-0.2,0.2-0.3,0.4-0.4C203.5,223.2,203.7,223.1,203.9,223.1z M152.7,235.5c0-0.6,0.1-1,0.3-1.3
						c0.2-0.3,0.5-0.5,1-0.5c0.5,0,0.8,0.2,1,0.5c0.2,0.3,0.3,0.8,0.3,1.3c0,0.6-0.1,1-0.3,1.3c-0.2,0.3-0.5,0.5-1,0.5
						c-0.5,0-0.8-0.2-1-0.5C152.8,236.5,152.7,236,152.7,235.5z M154.7,235.5c0-0.3,0-0.5-0.1-0.7c0-0.2-0.1-0.4-0.2-0.5
						c-0.1-0.1-0.3-0.2-0.5-0.2c-0.2,0-0.4,0.1-0.5,0.2c-0.1,0.1-0.2,0.3-0.2,0.5c0,0.2-0.1,0.4-0.1,0.7c0,0.3,0,0.5,0.1,0.7
						c0,0.2,0.1,0.4,0.2,0.5c0.1,0.1,0.3,0.2,0.5,0.2c0.2,0,0.4-0.1,0.5-0.2c0.1-0.1,0.2-0.3,0.2-0.5
						C154.7,236,154.7,235.8,154.7,235.5z M156.4,235.4c-0.2-0.1-0.3-0.2-0.4-0.3c-0.1-0.1-0.1-0.3-0.1-0.5c0-0.2,0-0.3,0.1-0.5
						c0.1-0.1,0.2-0.3,0.4-0.3c0.2-0.1,0.4-0.1,0.6-0.1c0.2,0,0.5,0,0.6,0.1c0.2,0.1,0.3,0.2,0.4,0.3c0.1,0.1,0.1,0.3,0.1,0.5
						c0,0.2-0.1,0.4-0.2,0.5c-0.1,0.1-0.2,0.2-0.4,0.3c0.2,0.1,0.4,0.2,0.5,0.3c0.1,0.2,0.2,0.3,0.2,0.6c0,0.2-0.1,0.4-0.2,0.6
						c-0.1,0.2-0.3,0.3-0.4,0.4c-0.2,0.1-0.4,0.1-0.7,0.1c-0.2,0-0.5,0-0.7-0.1c-0.2-0.1-0.3-0.2-0.4-0.4c-0.1-0.2-0.2-0.3-0.2-0.6
						c0-0.2,0.1-0.4,0.2-0.6C156,235.6,156.2,235.5,156.4,235.4z M157.7,234.7c0-0.2-0.1-0.4-0.2-0.5c-0.1-0.1-0.3-0.2-0.5-0.2
						c-0.2,0-0.4,0.1-0.5,0.2c-0.1,0.1-0.2,0.3-0.2,0.5c0,0.2,0.1,0.3,0.2,0.4c0.1,0.1,0.3,0.2,0.5,0.2c0.2,0,0.4-0.1,0.5-0.2
						C157.7,235,157.7,234.9,157.7,234.7z M157,235.6c-0.2,0-0.4,0.1-0.6,0.2c-0.2,0.1-0.2,0.3-0.2,0.5c0,0.2,0.1,0.4,0.2,0.5
						c0.2,0.1,0.4,0.2,0.6,0.2c0.3,0,0.5-0.1,0.6-0.2c0.1-0.1,0.2-0.3,0.2-0.5c0-0.2-0.1-0.4-0.2-0.5
						C157.4,235.7,157.2,235.6,157,235.6z M158.7,234.1v-0.4h0.9v3.5h-0.5v-3.1H158.7z M160.4,236.9c0.4-0.3,0.7-0.6,1-0.8
						c0.2-0.2,0.4-0.4,0.6-0.7c0.2-0.2,0.2-0.5,0.2-0.7c0-0.2-0.1-0.4-0.2-0.5c-0.1-0.1-0.3-0.2-0.5-0.2c-0.2,0-0.4,0.1-0.5,0.2
						c-0.1,0.1-0.2,0.3-0.2,0.6h-0.4c0-0.4,0.1-0.6,0.3-0.8c0.2-0.2,0.5-0.3,0.8-0.3c0.3,0,0.6,0.1,0.8,0.3c0.2,0.2,0.3,0.4,0.3,0.8
						c0,0.3-0.1,0.5-0.2,0.8c-0.2,0.3-0.3,0.5-0.5,0.7c-0.2,0.2-0.5,0.4-0.8,0.7h1.7v0.4h-2.4V236.9z M164.5,234.6
						c0-0.3,0.1-0.5,0.3-0.7c0.2-0.2,0.5-0.3,0.8-0.3c0.2,0,0.4,0,0.6,0.1c0.2,0.1,0.3,0.2,0.4,0.3c0.1,0.1,0.1,0.3,0.1,0.5
						c0,0.2-0.1,0.4-0.2,0.5c-0.1,0.1-0.3,0.2-0.5,0.3v0c0.2,0.1,0.4,0.2,0.5,0.3c0.1,0.2,0.2,0.4,0.2,0.6c0,0.2,0,0.4-0.1,0.5
						c-0.1,0.1-0.2,0.3-0.4,0.3s-0.4,0.1-0.6,0.1c-0.3,0-0.6-0.1-0.9-0.3c-0.2-0.2-0.3-0.4-0.4-0.8h0.4c0,0.2,0.1,0.4,0.2,0.5
						c0.1,0.1,0.3,0.2,0.5,0.2c0.2,0,0.4-0.1,0.5-0.2c0.1-0.1,0.2-0.3,0.2-0.5c0-0.2-0.1-0.4-0.2-0.5c-0.2-0.1-0.4-0.2-0.7-0.2h-0.1
						v-0.4h0.1c0.3,0,0.5-0.1,0.7-0.1c0.2-0.1,0.2-0.2,0.2-0.5c0-0.2-0.1-0.3-0.2-0.4c-0.1-0.1-0.3-0.2-0.5-0.2
						c-0.2,0-0.4,0.1-0.5,0.2c-0.1,0.1-0.2,0.2-0.2,0.4H164.5z M167.3,236.5v-0.3l1.7-2.4h0.5v2.3h0.5v0.4h-0.5v0.8h-0.4v-0.8H167.3
						z M169.1,234.2l-1.3,1.9h1.3V234.2z M172.7,234.1H171v1.1c0.1-0.1,0.2-0.2,0.3-0.3c0.1-0.1,0.3-0.1,0.5-0.1
						c0.3,0,0.5,0.1,0.7,0.2c0.2,0.1,0.3,0.3,0.4,0.4c0.1,0.2,0.1,0.4,0.1,0.6c0,0.2,0,0.4-0.1,0.6c-0.1,0.2-0.2,0.3-0.4,0.4
						c-0.2,0.1-0.4,0.2-0.7,0.2c-0.3,0-0.6-0.1-0.8-0.3c-0.2-0.2-0.3-0.4-0.4-0.7h0.4c0,0.2,0.1,0.3,0.3,0.4s0.3,0.2,0.5,0.2
						c0.3,0,0.5-0.1,0.6-0.2c0.1-0.2,0.2-0.4,0.2-0.6s-0.1-0.5-0.2-0.6c-0.1-0.1-0.3-0.2-0.6-0.2c-0.2,0-0.3,0-0.5,0.1
						c-0.1,0.1-0.2,0.2-0.3,0.3h-0.4v-2h2.1V234.1z M175.5,234.6c-0.1-0.4-0.3-0.5-0.7-0.5c-0.3,0-0.5,0.1-0.7,0.3
						c-0.1,0.2-0.2,0.6-0.2,1.1c0.1-0.2,0.2-0.3,0.4-0.4c0.2-0.1,0.4-0.1,0.6-0.1c0.3,0,0.6,0.1,0.8,0.3c0.2,0.2,0.3,0.5,0.3,0.9
						c0,0.2,0,0.4-0.1,0.6c-0.1,0.2-0.2,0.3-0.4,0.4c-0.2,0.1-0.4,0.2-0.6,0.2c-0.3,0-0.6-0.1-0.8-0.2c-0.2-0.2-0.3-0.4-0.4-0.6
						c-0.1-0.3-0.1-0.6-0.1-1c0-1.2,0.4-1.8,1.3-1.8c0.3,0,0.6,0.1,0.8,0.3c0.2,0.2,0.3,0.4,0.3,0.7H175.5z M174.9,235.3
						c-0.1,0-0.3,0-0.4,0.1c-0.1,0.1-0.2,0.1-0.3,0.3c-0.1,0.1-0.1,0.3-0.1,0.4c0,0.2,0.1,0.5,0.2,0.6c0.1,0.2,0.3,0.2,0.6,0.2
						c0.2,0,0.4-0.1,0.5-0.2c0.1-0.1,0.2-0.3,0.2-0.6c0-0.3-0.1-0.5-0.2-0.6C175.3,235.4,175.1,235.3,174.9,235.3z M180.2,234.1
						l-1.4,3.2h-0.5l1.4-3.1h-1.9v-0.4h2.3V234.1z M181.3,235.4c-0.2-0.1-0.3-0.2-0.4-0.3c-0.1-0.1-0.1-0.3-0.1-0.5
						c0-0.2,0-0.3,0.1-0.5c0.1-0.1,0.2-0.3,0.4-0.3c0.2-0.1,0.4-0.1,0.6-0.1c0.2,0,0.5,0,0.6,0.1c0.2,0.1,0.3,0.2,0.4,0.3
						c0.1,0.1,0.1,0.3,0.1,0.5c0,0.2-0.1,0.4-0.2,0.5c-0.1,0.1-0.2,0.2-0.4,0.3c0.2,0.1,0.4,0.2,0.5,0.3c0.1,0.2,0.2,0.3,0.2,0.6
						c0,0.2-0.1,0.4-0.2,0.6c-0.1,0.2-0.3,0.3-0.4,0.4c-0.2,0.1-0.4,0.1-0.7,0.1c-0.2,0-0.5,0-0.7-0.1c-0.2-0.1-0.3-0.2-0.4-0.4
						c-0.1-0.2-0.2-0.3-0.2-0.6c0-0.2,0.1-0.4,0.2-0.6S181.1,235.5,181.3,235.4z M182.6,234.7c0-0.2-0.1-0.4-0.2-0.5
						c-0.1-0.1-0.3-0.2-0.5-0.2c-0.2,0-0.4,0.1-0.5,0.2c-0.1,0.1-0.2,0.3-0.2,0.5c0,0.2,0.1,0.3,0.2,0.4c0.1,0.1,0.3,0.2,0.5,0.2
						c0.2,0,0.4-0.1,0.5-0.2C182.6,235,182.6,234.9,182.6,234.7z M181.9,235.6c-0.2,0-0.4,0.1-0.6,0.2c-0.2,0.1-0.2,0.3-0.2,0.5
						c0,0.2,0.1,0.4,0.2,0.5c0.2,0.1,0.4,0.2,0.6,0.2c0.3,0,0.5-0.1,0.6-0.2c0.1-0.1,0.2-0.3,0.2-0.5c0-0.2-0.1-0.4-0.2-0.5
						C182.3,235.7,182.1,235.6,181.9,235.6z M184.3,236.3c0,0.2,0.1,0.3,0.2,0.4c0.1,0.1,0.3,0.2,0.5,0.2c0.3,0,0.5-0.1,0.6-0.3
						c0.1-0.2,0.2-0.6,0.2-1.1c-0.1,0.1-0.2,0.3-0.3,0.3c-0.2,0.1-0.3,0.1-0.5,0.1c-0.2,0-0.4,0-0.6-0.1c-0.2-0.1-0.3-0.2-0.4-0.4
						c-0.1-0.2-0.1-0.4-0.1-0.6c0-0.3,0.1-0.6,0.3-0.8c0.2-0.2,0.5-0.3,0.9-0.3c0.5,0,0.8,0.1,1,0.4c0.2,0.3,0.3,0.7,0.3,1.3
						c0,0.4,0,0.8-0.1,1c-0.1,0.3-0.2,0.5-0.4,0.6c-0.2,0.1-0.4,0.2-0.7,0.2c-0.3,0-0.6-0.1-0.8-0.3c-0.2-0.2-0.3-0.4-0.3-0.7H184.3
						z M185,235.6c0.2,0,0.4-0.1,0.5-0.2c0.1-0.1,0.2-0.3,0.2-0.6c0-0.2-0.1-0.4-0.2-0.6c-0.1-0.2-0.3-0.2-0.6-0.2
						c-0.2,0-0.4,0.1-0.5,0.2c-0.1,0.1-0.2,0.3-0.2,0.6c0,0.2,0.1,0.4,0.2,0.6C184.5,235.5,184.7,235.6,185,235.6z M186.8,235.5
						c0-0.6,0.1-1,0.3-1.3c0.2-0.3,0.5-0.5,1-0.5c0.5,0,0.8,0.2,1,0.5c0.2,0.3,0.3,0.8,0.3,1.3c0,0.6-0.1,1-0.3,1.3
						c-0.2,0.3-0.5,0.5-1,0.5c-0.5,0-0.8-0.2-1-0.5C186.9,236.5,186.8,236,186.8,235.5z M188.8,235.5c0-0.3,0-0.5-0.1-0.7
						c0-0.2-0.1-0.4-0.2-0.5c-0.1-0.1-0.3-0.2-0.5-0.2c-0.2,0-0.4,0.1-0.5,0.2c-0.1,0.1-0.2,0.3-0.2,0.5c0,0.2-0.1,0.4-0.1,0.7
						c0,0.3,0,0.5,0.1,0.7c0,0.2,0.1,0.4,0.2,0.5c0.1,0.1,0.3,0.2,0.5,0.2c0.2,0,0.4-0.1,0.5-0.2c0.1-0.1,0.2-0.3,0.2-0.5
						C188.8,236,188.8,235.8,188.8,235.5z M154.5,245.3v2.5c0,0.3-0.1,0.5-0.3,0.7c-0.2,0.2-0.4,0.2-0.7,0.2c-0.3,0-0.5-0.1-0.7-0.3
						c-0.2-0.2-0.3-0.4-0.3-0.7h0.4c0,0.2,0,0.3,0.1,0.4c0.1,0.1,0.2,0.2,0.4,0.2s0.3,0,0.4-0.1c0.1-0.1,0.1-0.2,0.1-0.4v-2.5H154.5
						z M155.8,245.1v3.6h-0.4v-3.6H155.8z M156.7,248.7c-0.1,0-0.2,0-0.2-0.1c-0.1-0.1-0.1-0.1-0.1-0.2s0-0.2,0.1-0.2
						c0.1-0.1,0.1-0.1,0.2-0.1c0.1,0,0.2,0,0.2,0.1c0.1,0.1,0.1,0.1,0.1,0.2s0,0.2-0.1,0.2C156.8,248.7,156.8,248.7,156.7,248.7z
						 M161.7,245.3l-1.3,3.4h-0.5l-1.3-3.4h0.5l1.1,2.9l1.1-2.9H161.7z M164.6,247.3c0,0.1,0,0.2,0,0.3h-2.1c0,0.3,0.1,0.5,0.3,0.6
						c0.2,0.1,0.4,0.2,0.6,0.2c0.2,0,0.4,0,0.5-0.1c0.1-0.1,0.2-0.2,0.3-0.4h0.5c-0.1,0.3-0.2,0.5-0.4,0.6c-0.2,0.2-0.5,0.2-0.8,0.2
						c-0.3,0-0.5-0.1-0.7-0.2c-0.2-0.1-0.4-0.3-0.5-0.5c-0.1-0.2-0.2-0.5-0.2-0.7c0-0.3,0.1-0.5,0.2-0.7c0.1-0.2,0.3-0.4,0.5-0.5
						c0.2-0.1,0.4-0.2,0.7-0.2c0.3,0,0.5,0.1,0.7,0.2s0.3,0.3,0.5,0.5C164.6,246.8,164.6,247,164.6,247.3z M164.2,247.2
						c0-0.2,0-0.3-0.1-0.4c-0.1-0.1-0.2-0.2-0.3-0.3c-0.1-0.1-0.3-0.1-0.4-0.1c-0.2,0-0.4,0.1-0.6,0.2c-0.2,0.1-0.2,0.3-0.3,0.6
						H164.2z M165.8,246.4v1.6c0,0.1,0,0.2,0.1,0.3c0.1,0.1,0.2,0.1,0.3,0.1h0.3v0.4h-0.4c-0.2,0-0.4-0.1-0.6-0.2s-0.2-0.3-0.2-0.6
						v-1.6H165V246h0.3v-0.7h0.4v0.7h0.7v0.4H165.8z M169.5,247.3c0,0.1,0,0.2,0,0.3h-2.1c0,0.3,0.1,0.5,0.3,0.6
						c0.2,0.1,0.4,0.2,0.6,0.2c0.2,0,0.4,0,0.5-0.1c0.1-0.1,0.2-0.2,0.3-0.4h0.5c-0.1,0.3-0.2,0.5-0.4,0.6c-0.2,0.2-0.5,0.2-0.8,0.2
						c-0.3,0-0.5-0.1-0.7-0.2c-0.2-0.1-0.4-0.3-0.5-0.5c-0.1-0.2-0.2-0.5-0.2-0.7c0-0.3,0.1-0.5,0.2-0.7c0.1-0.2,0.3-0.4,0.5-0.5
						c0.2-0.1,0.4-0.2,0.7-0.2c0.3,0,0.5,0.1,0.7,0.2c0.2,0.1,0.3,0.3,0.5,0.5C169.4,246.8,169.5,247,169.5,247.3z M169,247.2
						c0-0.2,0-0.3-0.1-0.4c-0.1-0.1-0.2-0.2-0.3-0.3c-0.1-0.1-0.3-0.1-0.4-0.1c-0.2,0-0.4,0.1-0.6,0.2c-0.2,0.1-0.2,0.3-0.3,0.6H169
						z M170.5,246.5c0.1-0.2,0.2-0.3,0.3-0.4c0.1-0.1,0.3-0.1,0.5-0.1v0.5h-0.1c-0.5,0-0.7,0.3-0.7,0.8v1.5H170V246h0.4V246.5z
						 M171.7,247.4c0-0.3,0.1-0.5,0.2-0.7c0.1-0.2,0.3-0.4,0.5-0.5c0.2-0.1,0.4-0.2,0.7-0.2c0.2,0,0.4,0.1,0.6,0.2
						c0.2,0.1,0.3,0.2,0.4,0.4V246h0.5v2.7H174v-0.5c-0.1,0.2-0.2,0.3-0.4,0.4c-0.2,0.1-0.4,0.2-0.6,0.2c-0.2,0-0.5-0.1-0.6-0.2
						c-0.2-0.1-0.3-0.3-0.5-0.5S171.7,247.6,171.7,247.4z M174,247.4c0-0.2,0-0.4-0.1-0.5s-0.2-0.3-0.3-0.3
						c-0.1-0.1-0.3-0.1-0.5-0.1c-0.2,0-0.3,0-0.5,0.1c-0.1,0.1-0.2,0.2-0.3,0.3c-0.1,0.2-0.1,0.3-0.1,0.5c0,0.2,0,0.4,0.1,0.5
						c0.1,0.2,0.2,0.3,0.3,0.3c0.1,0.1,0.3,0.1,0.5,0.1c0.2,0,0.3,0,0.5-0.1c0.1-0.1,0.3-0.2,0.3-0.3
						C173.9,247.7,174,247.6,174,247.4z M176.5,246c0.3,0,0.6,0.1,0.8,0.3c0.2,0.2,0.3,0.5,0.3,0.9v1.6h-0.4v-1.5
						c0-0.3-0.1-0.5-0.2-0.6c-0.1-0.1-0.3-0.2-0.5-0.2c-0.2,0-0.4,0.1-0.6,0.2c-0.1,0.1-0.2,0.4-0.2,0.6v1.5h-0.4V246h0.4v0.4
						c0.1-0.1,0.2-0.2,0.4-0.3C176.1,246,176.3,246,176.5,246z M182.3,248.7h-0.4l-1.8-2.7v2.7h-0.4v-3.4h0.4l1.8,2.7v-2.7h0.4
						V248.7z M184.2,248.7c-0.3,0-0.5-0.1-0.7-0.2c-0.2-0.1-0.4-0.3-0.5-0.5c-0.1-0.2-0.2-0.5-0.2-0.7c0-0.3,0.1-0.5,0.2-0.7
						c0.1-0.2,0.3-0.4,0.5-0.5c0.2-0.1,0.4-0.2,0.7-0.2c0.3,0,0.5,0.1,0.7,0.2c0.2,0.1,0.4,0.3,0.5,0.5c0.1,0.2,0.2,0.5,0.2,0.7
						c0,0.3-0.1,0.5-0.2,0.7c-0.1,0.2-0.3,0.4-0.5,0.5C184.7,248.7,184.5,248.7,184.2,248.7z M184.2,248.4c0.2,0,0.3,0,0.5-0.1
						c0.1-0.1,0.3-0.2,0.3-0.3c0.1-0.2,0.1-0.3,0.1-0.5s0-0.4-0.1-0.5s-0.2-0.3-0.3-0.3c-0.1-0.1-0.3-0.1-0.4-0.1
						c-0.2,0-0.3,0-0.5,0.1c-0.1,0.1-0.2,0.2-0.3,0.3s-0.1,0.3-0.1,0.5c0,0.2,0,0.4,0.1,0.6c0.1,0.2,0.2,0.3,0.3,0.3
						C183.9,248.3,184.1,248.4,184.2,248.4z M186.3,248.7c-0.1,0-0.2,0-0.2-0.1s-0.1-0.1-0.1-0.2s0-0.2,0.1-0.2
						c0.1-0.1,0.1-0.1,0.2-0.1c0.1,0,0.2,0,0.2,0.1c0.1,0.1,0.1,0.1,0.1,0.2s0,0.2-0.1,0.2C186.5,248.7,186.4,248.7,186.3,248.7z
						 M188.3,245.6v-0.4h0.9v3.5h-0.5v-3.1H188.3z M190,246.9c0-0.6,0.1-1,0.3-1.3c0.2-0.3,0.5-0.5,1-0.5c0.5,0,0.8,0.2,1,0.5
						c0.2,0.3,0.3,0.8,0.3,1.3c0,0.6-0.1,1-0.3,1.3c-0.2,0.3-0.5,0.5-1,0.5c-0.5,0-0.8-0.2-1-0.5C190.1,247.9,190,247.5,190,246.9z
						 M192,246.9c0-0.3,0-0.5-0.1-0.7c0-0.2-0.1-0.4-0.2-0.5c-0.1-0.1-0.3-0.2-0.5-0.2c-0.2,0-0.4,0.1-0.5,0.2
						c-0.1,0.1-0.2,0.3-0.2,0.5c0,0.2-0.1,0.4-0.1,0.7c0,0.3,0,0.5,0.1,0.7c0,0.2,0.1,0.4,0.2,0.5c0.1,0.1,0.3,0.2,0.5,0.2
						c0.2,0,0.4-0.1,0.5-0.2c0.1-0.1,0.2-0.3,0.2-0.5C192,247.4,192,247.2,192,246.9z M194.9,245.3v2.2c0,0.3,0.1,0.5,0.2,0.7
						c0.2,0.1,0.4,0.2,0.6,0.2c0.3,0,0.5-0.1,0.6-0.2c0.2-0.1,0.2-0.4,0.2-0.7v-2.2h0.4v2.2c0,0.3-0.1,0.5-0.2,0.7
						c-0.1,0.2-0.3,0.3-0.5,0.4c-0.2,0.1-0.4,0.1-0.7,0.1s-0.5,0-0.7-0.1c-0.2-0.1-0.3-0.2-0.5-0.4c-0.1-0.2-0.2-0.4-0.2-0.7v-2.2
						H194.9z M201,246c0.2,0,0.4,0,0.6,0.1c0.2,0.1,0.3,0.2,0.4,0.4c0.1,0.2,0.1,0.4,0.1,0.6v1.6h-0.4v-1.5c0-0.3-0.1-0.5-0.2-0.6
						c-0.1-0.1-0.3-0.2-0.5-0.2c-0.2,0-0.4,0.1-0.6,0.2c-0.1,0.1-0.2,0.4-0.2,0.6v1.5h-0.4v-1.5c0-0.3-0.1-0.5-0.2-0.6
						c-0.1-0.1-0.3-0.2-0.5-0.2c-0.2,0-0.4,0.1-0.6,0.2c-0.1,0.1-0.2,0.4-0.2,0.6v1.5h-0.4V246h0.4v0.4c0.1-0.1,0.2-0.2,0.4-0.3
						c0.2-0.1,0.3-0.1,0.5-0.1c0.2,0,0.4,0.1,0.6,0.2c0.2,0.1,0.3,0.2,0.4,0.4c0.1-0.2,0.2-0.3,0.4-0.4C200.6,246,200.8,246,201,246
						z M203.3,246.5c0.1-0.2,0.2-0.3,0.4-0.4c0.2-0.1,0.4-0.2,0.6-0.2c0.2,0,0.5,0.1,0.7,0.2c0.2,0.1,0.3,0.3,0.5,0.5
						c0.1,0.2,0.2,0.4,0.2,0.7c0,0.3-0.1,0.5-0.2,0.7s-0.3,0.4-0.5,0.5c-0.2,0.1-0.4,0.2-0.6,0.2c-0.2,0-0.4-0.1-0.6-0.2
						c-0.2-0.1-0.3-0.2-0.4-0.4v0.5h-0.4v-3.6h0.4V246.5z M205.1,247.4c0-0.2,0-0.4-0.1-0.5c-0.1-0.2-0.2-0.3-0.3-0.3
						c-0.1-0.1-0.3-0.1-0.5-0.1c-0.2,0-0.3,0-0.5,0.1c-0.1,0.1-0.2,0.2-0.3,0.3c-0.1,0.2-0.1,0.3-0.1,0.5c0,0.2,0,0.4,0.1,0.5
						c0.1,0.2,0.2,0.3,0.3,0.3c0.1,0.1,0.3,0.1,0.5,0.1c0.2,0,0.3,0,0.5-0.1c0.1-0.1,0.3-0.2,0.3-0.3
						C205,247.7,205.1,247.6,205.1,247.4z M208.5,246v2.7h-0.4v-0.4c-0.1,0.1-0.2,0.2-0.4,0.3c-0.2,0.1-0.3,0.1-0.5,0.1
						c-0.2,0-0.4,0-0.6-0.1c-0.2-0.1-0.3-0.2-0.4-0.4c-0.1-0.2-0.1-0.4-0.1-0.6V246h0.4v1.5c0,0.3,0.1,0.5,0.2,0.6
						c0.1,0.1,0.3,0.2,0.5,0.2c0.2,0,0.4-0.1,0.6-0.2c0.1-0.1,0.2-0.4,0.2-0.6V246H208.5z M209.7,245.1v3.6h-0.4v-3.6H209.7z
						 M211.8,246c0.2,0,0.4,0,0.5,0.1c0.2,0.1,0.3,0.2,0.4,0.4c0.1,0.2,0.1,0.4,0.1,0.6v1.6h-0.4v-1.5c0-0.3-0.1-0.5-0.2-0.6
						c-0.1-0.1-0.3-0.2-0.5-0.2c-0.2,0-0.4,0.1-0.6,0.2c-0.1,0.1-0.2,0.4-0.2,0.6v1.5h-0.4v-3.6h0.4v1.3c0.1-0.1,0.2-0.2,0.4-0.3
						C211.4,246,211.6,246,211.8,246z M213.4,247.4c0-0.3,0.1-0.5,0.2-0.7c0.1-0.2,0.3-0.4,0.5-0.5c0.2-0.1,0.4-0.2,0.7-0.2
						c0.2,0,0.4,0.1,0.6,0.2c0.2,0.1,0.3,0.2,0.4,0.4V246h0.5v2.7h-0.5v-0.5c-0.1,0.2-0.2,0.3-0.4,0.4c-0.2,0.1-0.4,0.2-0.6,0.2
						c-0.2,0-0.5-0.1-0.6-0.2c-0.2-0.1-0.3-0.3-0.5-0.5S213.4,247.6,213.4,247.4z M215.7,247.4c0-0.2,0-0.4-0.1-0.5
						c-0.1-0.2-0.2-0.3-0.3-0.3c-0.1-0.1-0.3-0.1-0.5-0.1c-0.2,0-0.3,0-0.5,0.1c-0.1,0.1-0.2,0.2-0.3,0.3c-0.1,0.2-0.1,0.3-0.1,0.5
						c0,0.2,0,0.4,0.1,0.5c0.1,0.2,0.2,0.3,0.3,0.3c0.1,0.1,0.3,0.1,0.5,0.1c0.2,0,0.3,0,0.5-0.1c0.1-0.1,0.3-0.2,0.3-0.3
						C215.7,247.7,215.7,247.6,215.7,247.4z M217.3,246.5c0.1-0.2,0.2-0.3,0.3-0.4c0.1-0.1,0.3-0.1,0.5-0.1v0.5h-0.1
						c-0.5,0-0.7,0.3-0.7,0.8v1.5h-0.4V246h0.4V246.5z M219,245.6c-0.1,0-0.2,0-0.2-0.1c-0.1-0.1-0.1-0.1-0.1-0.2
						c0-0.1,0-0.2,0.1-0.2c0.1-0.1,0.1-0.1,0.2-0.1s0.2,0,0.2,0.1c0.1,0.1,0.1,0.1,0.1,0.2c0,0.1,0,0.2-0.1,0.2
						C219.1,245.6,219,245.6,219,245.6z M219.2,249.3c0,0.2-0.1,0.4-0.2,0.5c-0.1,0.1-0.3,0.2-0.5,0.2h-0.3v-0.4h0.2
						c0.1,0,0.2,0,0.3-0.1c0.1,0,0.1-0.1,0.1-0.2V246h0.4V249.3z M221.1,248.7c-0.3,0-0.5-0.1-0.7-0.2c-0.2-0.1-0.4-0.3-0.5-0.5
						c-0.1-0.2-0.2-0.5-0.2-0.7c0-0.3,0.1-0.5,0.2-0.7c0.1-0.2,0.3-0.4,0.5-0.5c0.2-0.1,0.4-0.2,0.7-0.2s0.5,0.1,0.7,0.2
						c0.2,0.1,0.4,0.3,0.5,0.5c0.1,0.2,0.2,0.5,0.2,0.7c0,0.3-0.1,0.5-0.2,0.7c-0.1,0.2-0.3,0.4-0.5,0.5
						C221.6,248.7,221.4,248.7,221.1,248.7z M221.1,248.4c0.2,0,0.3,0,0.5-0.1c0.1-0.1,0.3-0.2,0.3-0.3c0.1-0.2,0.1-0.3,0.1-0.5
						s0-0.4-0.1-0.5c-0.1-0.2-0.2-0.3-0.3-0.3c-0.1-0.1-0.3-0.1-0.4-0.1c-0.2,0-0.3,0-0.5,0.1c-0.1,0.1-0.2,0.2-0.3,0.3
						c-0.1,0.2-0.1,0.3-0.1,0.5c0,0.2,0,0.4,0.1,0.6c0.1,0.2,0.2,0.3,0.3,0.3C220.8,248.3,220.9,248.4,221.1,248.4z M226.8,245.3
						l-1.1,2.1v1.3h-0.4v-1.3l-1.1-2.1h0.5l0.8,1.7l0.8-1.7H226.8z M228.4,248.7c-0.3,0-0.5-0.1-0.7-0.2c-0.2-0.1-0.4-0.3-0.5-0.5
						c-0.1-0.2-0.2-0.5-0.2-0.7c0-0.3,0.1-0.5,0.2-0.7c0.1-0.2,0.3-0.4,0.5-0.5c0.2-0.1,0.4-0.2,0.7-0.2c0.3,0,0.5,0.1,0.7,0.2
						c0.2,0.1,0.4,0.3,0.5,0.5c0.1,0.2,0.2,0.5,0.2,0.7c0,0.3-0.1,0.5-0.2,0.7c-0.1,0.2-0.3,0.4-0.5,0.5S228.7,248.7,228.4,248.7z
						 M228.4,248.4c0.2,0,0.3,0,0.5-0.1c0.1-0.1,0.3-0.2,0.3-0.3c0.1-0.2,0.1-0.3,0.1-0.5s0-0.4-0.1-0.5s-0.2-0.3-0.3-0.3
						c-0.1-0.1-0.3-0.1-0.4-0.1c-0.2,0-0.3,0-0.5,0.1c-0.1,0.1-0.2,0.2-0.3,0.3c-0.1,0.2-0.1,0.3-0.1,0.5c0,0.2,0,0.4,0.1,0.6
						c0.1,0.2,0.2,0.3,0.3,0.3C228.1,248.3,228.2,248.4,228.4,248.4z M231.5,246c0.2,0,0.4,0.1,0.6,0.2c0.2,0.1,0.3,0.2,0.4,0.4V246
						h0.5v2.7c0,0.2-0.1,0.5-0.2,0.7c-0.1,0.2-0.3,0.3-0.5,0.5c-0.2,0.1-0.4,0.2-0.7,0.2c-0.4,0-0.6-0.1-0.9-0.2
						c-0.2-0.2-0.4-0.4-0.4-0.7h0.4c0,0.2,0.2,0.3,0.3,0.4c0.2,0.1,0.3,0.2,0.6,0.2c0.2,0,0.4-0.1,0.6-0.2c0.2-0.2,0.2-0.4,0.2-0.6
						v-0.6c-0.1,0.2-0.2,0.3-0.4,0.4c-0.2,0.1-0.4,0.2-0.6,0.2c-0.2,0-0.5-0.1-0.7-0.2c-0.2-0.1-0.3-0.3-0.5-0.5s-0.2-0.5-0.2-0.7
						c0-0.3,0.1-0.5,0.2-0.7c0.1-0.2,0.3-0.4,0.5-0.5C231,246,231.2,246,231.5,246z M232.5,247.4c0-0.2,0-0.4-0.1-0.5
						c-0.1-0.2-0.2-0.3-0.3-0.3c-0.1-0.1-0.3-0.1-0.5-0.1c-0.2,0-0.3,0-0.5,0.1c-0.1,0.1-0.2,0.2-0.3,0.3c-0.1,0.2-0.1,0.3-0.1,0.5
						c0,0.2,0,0.4,0.1,0.5c0.1,0.2,0.2,0.3,0.3,0.3c0.1,0.1,0.3,0.1,0.5,0.1c0.2,0,0.3,0,0.5-0.1c0.1-0.1,0.3-0.2,0.3-0.3
						C232.4,247.7,232.5,247.6,232.5,247.4z M236,246l-1.6,3.9h-0.5l0.5-1.3l-1.1-2.7h0.5l0.8,2.2l0.8-2.2H236z M236.3,247.4
						c0-0.3,0.1-0.5,0.2-0.7c0.1-0.2,0.3-0.4,0.5-0.5c0.2-0.1,0.4-0.2,0.7-0.2c0.2,0,0.4,0.1,0.6,0.2c0.2,0.1,0.3,0.2,0.4,0.4V246
						h0.5v2.7h-0.5v-0.5c-0.1,0.2-0.2,0.3-0.4,0.4c-0.2,0.1-0.4,0.2-0.6,0.2c-0.2,0-0.5-0.1-0.6-0.2c-0.2-0.1-0.3-0.3-0.5-0.5
						S236.3,247.6,236.3,247.4z M238.5,247.4c0-0.2,0-0.4-0.1-0.5c-0.1-0.2-0.2-0.3-0.3-0.3c-0.1-0.1-0.3-0.1-0.5-0.1
						c-0.2,0-0.3,0-0.5,0.1c-0.1,0.1-0.2,0.2-0.3,0.3c-0.1,0.2-0.1,0.3-0.1,0.5c0,0.2,0,0.4,0.1,0.5c0.1,0.2,0.2,0.3,0.3,0.3
						c0.1,0.1,0.3,0.1,0.5,0.1c0.2,0,0.3,0,0.5-0.1c0.1-0.1,0.3-0.2,0.3-0.3C238.5,247.7,238.5,247.6,238.5,247.4z M241.2,248.7
						l-1.1-1.2v1.2h-0.4v-3.6h0.4v2.1l1-1.2h0.6l-1.3,1.3l1.3,1.3H241.2z M242.1,247.4c0-0.3,0.1-0.5,0.2-0.7
						c0.1-0.2,0.3-0.4,0.5-0.5c0.2-0.1,0.4-0.2,0.7-0.2c0.2,0,0.4,0.1,0.6,0.2c0.2,0.1,0.3,0.2,0.4,0.4V246h0.5v2.7h-0.5v-0.5
						c-0.1,0.2-0.2,0.3-0.4,0.4c-0.2,0.1-0.4,0.2-0.6,0.2c-0.2,0-0.5-0.1-0.6-0.2c-0.2-0.1-0.3-0.3-0.5-0.5S242.1,247.6,242.1,247.4
						z M244.4,247.4c0-0.2,0-0.4-0.1-0.5c-0.1-0.2-0.2-0.3-0.3-0.3c-0.1-0.1-0.3-0.1-0.5-0.1c-0.2,0-0.3,0-0.5,0.1
						c-0.1,0.1-0.2,0.2-0.3,0.3c-0.1,0.2-0.1,0.3-0.1,0.5c0,0.2,0,0.4,0.1,0.5c0.1,0.2,0.2,0.3,0.3,0.3c0.1,0.1,0.3,0.1,0.5,0.1
						c0.2,0,0.3,0,0.5-0.1c0.1-0.1,0.3-0.2,0.3-0.3C244.3,247.7,244.4,247.6,244.4,247.4z M246,246.5c0.1-0.2,0.2-0.3,0.3-0.4
						c0.1-0.1,0.3-0.1,0.5-0.1v0.5h-0.1c-0.5,0-0.7,0.3-0.7,0.8v1.5h-0.4V246h0.4V246.5z M247.9,246.4v1.6c0,0.1,0,0.2,0.1,0.3
						c0.1,0.1,0.2,0.1,0.3,0.1h0.3v0.4h-0.4c-0.2,0-0.4-0.1-0.6-0.2c-0.1-0.1-0.2-0.3-0.2-0.6v-1.6h-0.3V246h0.3v-0.7h0.4v0.7h0.7
						v0.4H247.9z M249,247.4c0-0.3,0.1-0.5,0.2-0.7c0.1-0.2,0.3-0.4,0.5-0.5c0.2-0.1,0.4-0.2,0.7-0.2c0.2,0,0.4,0.1,0.6,0.2
						c0.2,0.1,0.3,0.2,0.4,0.4V246h0.5v2.7h-0.5v-0.5c-0.1,0.2-0.2,0.3-0.4,0.4c-0.2,0.1-0.4,0.2-0.6,0.2c-0.2,0-0.5-0.1-0.6-0.2
						c-0.2-0.1-0.3-0.3-0.5-0.5S249,247.6,249,247.4z M251.3,247.4c0-0.2,0-0.4-0.1-0.5c-0.1-0.2-0.2-0.3-0.3-0.3
						c-0.1-0.1-0.3-0.1-0.5-0.1c-0.2,0-0.3,0-0.5,0.1c-0.1,0.1-0.2,0.2-0.3,0.3c-0.1,0.2-0.1,0.3-0.1,0.5c0,0.2,0,0.4,0.1,0.5
						c0.1,0.2,0.2,0.3,0.3,0.3c0.1,0.1,0.3,0.1,0.5,0.1c0.2,0,0.3,0,0.5-0.1c0.1-0.1,0.3-0.2,0.3-0.3
						C251.2,247.7,251.3,247.6,251.3,247.4z"/>
					<path class="st11" d="M154.8,201.4l-0.8-1.5h-0.2v1.5h-1v-4h1.6c0.3,0,0.6,0.1,0.8,0.2c0.2,0.1,0.4,0.3,0.5,0.5
						c0.1,0.2,0.2,0.4,0.2,0.6c0,0.3-0.1,0.5-0.2,0.7c-0.1,0.2-0.4,0.4-0.7,0.4l0.9,1.6H154.8z M153.7,199.2h0.6
						c0.2,0,0.3,0,0.4-0.1c0.1-0.1,0.1-0.2,0.1-0.4c0-0.2,0-0.3-0.1-0.4c-0.1-0.1-0.2-0.1-0.4-0.1h-0.6V199.2z M156.9,197.9
						c-0.2,0-0.3,0-0.4-0.1c-0.1-0.1-0.2-0.2-0.2-0.4c0-0.2,0.1-0.3,0.2-0.4c0.1-0.1,0.3-0.2,0.4-0.2c0.2,0,0.3,0.1,0.4,0.2
						c0.1,0.1,0.2,0.2,0.2,0.4c0,0.1-0.1,0.3-0.2,0.4C157.3,197.8,157.1,197.9,156.9,197.9z M157.4,198.2v3.2h-1v-3.2H157.4z
						 M159.1,200.6h1.4v0.8H158v-0.8l1.3-1.6H158v-0.8h2.4v0.8L159.1,200.6z M160.8,199.8c0-0.3,0.1-0.6,0.2-0.8
						c0.1-0.2,0.3-0.4,0.5-0.6c0.2-0.1,0.5-0.2,0.7-0.2c0.2,0,0.4,0,0.5,0.1c0.2,0.1,0.3,0.2,0.4,0.3v-0.4h1v4.7h-1V201
						c-0.1,0.1-0.2,0.2-0.4,0.3c-0.2,0.1-0.3,0.1-0.5,0.1c-0.3,0-0.5-0.1-0.7-0.2c-0.2-0.1-0.4-0.3-0.5-0.6
						C160.8,200.4,160.8,200.1,160.8,199.8z M163.2,199.8c0-0.2,0-0.3-0.1-0.4c-0.1-0.1-0.2-0.2-0.3-0.3c-0.1-0.1-0.2-0.1-0.3-0.1
						c-0.1,0-0.2,0-0.3,0.1c-0.1,0.1-0.2,0.1-0.3,0.3s-0.1,0.3-0.1,0.4c0,0.2,0,0.3,0.1,0.4c0.1,0.1,0.2,0.2,0.3,0.3
						c0.1,0.1,0.2,0.1,0.3,0.1c0.1,0,0.2,0,0.3-0.1c0.1-0.1,0.2-0.2,0.3-0.3C163.1,200.1,163.2,200,163.2,199.8z M165.3,197.9
						c-0.2,0-0.3,0-0.4-0.1c-0.1-0.1-0.2-0.2-0.2-0.4c0-0.2,0.1-0.3,0.2-0.4c0.1-0.1,0.3-0.2,0.4-0.2c0.2,0,0.3,0.1,0.4,0.2
						c0.1,0.1,0.2,0.2,0.2,0.4c0,0.1-0.1,0.3-0.2,0.4C165.6,197.8,165.5,197.9,165.3,197.9z M165.8,198.2v3.2h-1v-3.2H165.8z
						 M170.8,198.7c0,0.2-0.1,0.4-0.2,0.6c-0.1,0.2-0.3,0.3-0.5,0.5c-0.2,0.1-0.5,0.2-0.8,0.2h-0.6v1.4h-1v-4h1.6
						c0.3,0,0.6,0.1,0.8,0.2c0.2,0.1,0.4,0.3,0.5,0.5C170.7,198.2,170.8,198.4,170.8,198.7z M169.2,199.2c0.2,0,0.3,0,0.4-0.1
						c0.1-0.1,0.1-0.2,0.1-0.4c0-0.2,0-0.3-0.1-0.4c-0.1-0.1-0.2-0.1-0.4-0.1h-0.5v1H169.2z M174.5,198.2v3.2h-1V201
						c-0.1,0.1-0.2,0.3-0.4,0.3c-0.2,0.1-0.4,0.1-0.6,0.1c-0.2,0-0.5-0.1-0.6-0.2c-0.2-0.1-0.3-0.3-0.4-0.5
						c-0.1-0.2-0.2-0.4-0.2-0.7v-1.9h1v1.7c0,0.2,0.1,0.4,0.2,0.5c0.1,0.1,0.3,0.2,0.4,0.2c0.2,0,0.3-0.1,0.5-0.2
						c0.1-0.1,0.2-0.3,0.2-0.5v-1.7H174.5z M176.9,200.6v0.8h-0.5c-0.4,0-0.6-0.1-0.8-0.3c-0.2-0.2-0.3-0.5-0.3-0.9V199h-0.4v-0.8
						h0.4v-0.8h1v0.8h0.6v0.8h-0.6v1.3c0,0.1,0,0.2,0.1,0.2c0,0,0.1,0.1,0.2,0.1H176.9z M178.4,198.7c0.1-0.2,0.3-0.3,0.4-0.4
						c0.2-0.1,0.4-0.2,0.6-0.2v1h-0.3c-0.2,0-0.4,0.1-0.5,0.2c-0.1,0.1-0.2,0.3-0.2,0.5v1.5h-1v-3.2h1V198.7z M180.4,197.9
						c-0.2,0-0.3,0-0.4-0.1c-0.1-0.1-0.2-0.2-0.2-0.4c0-0.2,0.1-0.3,0.2-0.4c0.1-0.1,0.3-0.2,0.4-0.2c0.2,0,0.3,0.1,0.4,0.2
						c0.1,0.1,0.2,0.2,0.2,0.4c0,0.1-0.1,0.3-0.2,0.4C180.7,197.8,180.6,197.9,180.4,197.9z M180.9,198.2v3.2h-1v-3.2H180.9z
						 M186.4,201.4h-1l-1.6-2.5v2.5h-1v-4h1l1.6,2.5v-2.5h1V201.4z M187.6,201.4c-0.2,0-0.3,0-0.4-0.1c-0.1-0.1-0.2-0.2-0.2-0.4
						c0-0.2,0.1-0.3,0.2-0.4c0.1-0.1,0.3-0.2,0.4-0.2c0.2,0,0.3,0.1,0.4,0.2c0.1,0.1,0.2,0.2,0.2,0.4c0,0.1-0.1,0.3-0.2,0.4
						C187.9,201.4,187.7,201.4,187.6,201.4z"/>
					<path class="st10" d="M143.5,155.8l-0.3,1.2h0.9v0.7h-1.1l-0.3,1.3H142l0.3-1.3H141l-0.3,1.3h-0.8l0.3-1.3h-1.1V157h1.2
						l0.3-1.2h-1.1v-0.7h1.2l0.3-1.3h0.8l-0.3,1.3h1.4l0.3-1.3h0.8l-0.3,1.3h0.9v0.7H143.5z M142.7,155.8h-1.4l-0.3,1.2h1.4
						L142.7,155.8z M145.4,156.4c0-0.8,0.1-1.4,0.4-1.9c0.3-0.5,0.7-0.7,1.4-0.7c0.7,0,1.1,0.2,1.4,0.7c0.3,0.4,0.4,1.1,0.4,1.9
						c0,0.8-0.1,1.4-0.4,1.9c-0.3,0.5-0.7,0.7-1.4,0.7c-0.7,0-1.1-0.2-1.4-0.7C145.5,157.8,145.4,157.2,145.4,156.4z M148.2,156.4
						c0-0.4,0-0.7-0.1-0.9c0-0.3-0.1-0.5-0.3-0.6c-0.1-0.2-0.4-0.2-0.7-0.2s-0.5,0.1-0.7,0.2c-0.1,0.2-0.2,0.4-0.3,0.6
						c0,0.3-0.1,0.6-0.1,0.9c0,0.4,0,0.7,0.1,1c0,0.3,0.1,0.5,0.3,0.6c0.2,0.2,0.4,0.2,0.7,0.2s0.5-0.1,0.7-0.2
						c0.2-0.2,0.3-0.4,0.3-0.6S148.2,156.8,148.2,156.4z M149.8,156.4c0-0.8,0.1-1.4,0.4-1.9c0.3-0.5,0.7-0.7,1.4-0.7
						c0.7,0,1.1,0.2,1.4,0.7c0.3,0.4,0.4,1.1,0.4,1.9c0,0.8-0.1,1.4-0.4,1.9c-0.3,0.5-0.7,0.7-1.4,0.7c-0.7,0-1.1-0.2-1.4-0.7
						C150,157.8,149.8,157.2,149.8,156.4z M152.6,156.4c0-0.4,0-0.7-0.1-0.9c0-0.3-0.1-0.5-0.3-0.6c-0.1-0.2-0.4-0.2-0.7-0.2
						s-0.5,0.1-0.7,0.2c-0.1,0.2-0.2,0.4-0.3,0.6c0,0.3-0.1,0.6-0.1,0.9c0,0.4,0,0.7,0.1,1c0,0.3,0.1,0.5,0.3,0.6
						c0.2,0.2,0.4,0.2,0.7,0.2s0.5-0.1,0.7-0.2c0.2-0.2,0.3-0.4,0.3-0.6C152.6,157.1,152.6,156.8,152.6,156.4z M154.7,157.9
						c0.4-0.4,0.8-0.7,1-0.9c0.3-0.2,0.5-0.5,0.6-0.8c0.2-0.3,0.3-0.5,0.3-0.8c0-0.3-0.1-0.5-0.2-0.7c-0.1-0.2-0.3-0.2-0.6-0.2
						c-0.3,0-0.5,0.1-0.6,0.3c-0.1,0.2-0.2,0.4-0.2,0.7h-0.8c0-0.5,0.2-0.9,0.5-1.2c0.3-0.3,0.7-0.4,1.2-0.4c0.5,0,0.9,0.1,1.2,0.4
						c0.3,0.3,0.4,0.6,0.4,1.1c0,0.3-0.1,0.7-0.3,1c-0.2,0.3-0.4,0.6-0.6,0.8c-0.2,0.2-0.5,0.5-0.9,0.8l-0.3,0.3h2.2v0.7h-3.4v-0.6
						L154.7,157.9z M158.2,154.6v-0.7h1.4v5.1h-0.8v-4.3H158.2z"/>
					<path class="st9" d="M141.5,148.4h-0.4l-1.5-2.3v2.3h-0.4v-2.8h0.4l1.5,2.3v-2.3h0.4V148.4z M143.1,148.4c-0.2,0-0.4,0-0.6-0.1
						c-0.2-0.1-0.3-0.2-0.4-0.4c-0.1-0.2-0.1-0.4-0.1-0.6c0-0.2,0-0.4,0.1-0.6c0.1-0.2,0.2-0.3,0.4-0.4c0.2-0.1,0.4-0.1,0.6-0.1
						c0.2,0,0.4,0,0.6,0.1c0.2,0.1,0.3,0.2,0.4,0.4c0.1,0.2,0.2,0.4,0.2,0.6c0,0.2-0.1,0.4-0.2,0.6c-0.1,0.2-0.2,0.3-0.4,0.4
						C143.5,148.4,143.3,148.4,143.1,148.4z M143.1,148.1c0.1,0,0.3,0,0.4-0.1c0.1-0.1,0.2-0.2,0.3-0.3c0.1-0.1,0.1-0.3,0.1-0.5
						c0-0.2,0-0.3-0.1-0.5c-0.1-0.1-0.2-0.2-0.3-0.3c-0.1-0.1-0.2-0.1-0.4-0.1c-0.1,0-0.3,0-0.4,0.1c-0.1,0.1-0.2,0.2-0.3,0.3
						c-0.1,0.1-0.1,0.3-0.1,0.5c0,0.2,0,0.3,0.1,0.5c0.1,0.1,0.2,0.2,0.3,0.3C142.8,148,142.9,148.1,143.1,148.1z M147.4,146.1
						c0.2,0,0.3,0,0.5,0.1c0.1,0.1,0.2,0.2,0.3,0.3c0.1,0.1,0.1,0.3,0.1,0.5v1.3h-0.4v-1.3c0-0.2-0.1-0.4-0.2-0.5
						c-0.1-0.1-0.3-0.2-0.4-0.2c-0.2,0-0.3,0.1-0.5,0.2c-0.1,0.1-0.2,0.3-0.2,0.5v1.2h-0.4v-1.3c0-0.2-0.1-0.4-0.2-0.5
						c-0.1-0.1-0.3-0.2-0.4-0.2c-0.2,0-0.3,0.1-0.5,0.2c-0.1,0.1-0.2,0.3-0.2,0.5v1.2h-0.4v-2.2h0.4v0.3c0.1-0.1,0.2-0.2,0.3-0.3
						c0.1-0.1,0.3-0.1,0.4-0.1c0.2,0,0.4,0,0.5,0.1c0.1,0.1,0.3,0.2,0.3,0.4c0.1-0.2,0.2-0.3,0.3-0.4
						C147.1,146.1,147.2,146.1,147.4,146.1z M149.9,148.4c-0.2,0-0.4,0-0.6-0.1c-0.2-0.1-0.3-0.2-0.4-0.4c-0.1-0.2-0.1-0.4-0.1-0.6
						c0-0.2,0-0.4,0.1-0.6c0.1-0.2,0.2-0.3,0.4-0.4c0.2-0.1,0.4-0.1,0.6-0.1s0.4,0,0.6,0.1c0.2,0.1,0.3,0.2,0.4,0.4
						c0.1,0.2,0.2,0.4,0.2,0.6c0,0.2-0.1,0.4-0.2,0.6c-0.1,0.2-0.2,0.3-0.4,0.4C150.3,148.4,150.1,148.4,149.9,148.4z M149.9,148.1
						c0.1,0,0.3,0,0.4-0.1c0.1-0.1,0.2-0.2,0.3-0.3c0.1-0.1,0.1-0.3,0.1-0.5c0-0.2,0-0.3-0.1-0.5c-0.1-0.1-0.2-0.2-0.3-0.3
						c-0.1-0.1-0.2-0.1-0.4-0.1c-0.1,0-0.3,0-0.4,0.1c-0.1,0.1-0.2,0.2-0.3,0.3c-0.1,0.1-0.1,0.3-0.1,0.5c0,0.2,0,0.3,0.1,0.5
						c0.1,0.1,0.2,0.2,0.3,0.3C149.6,148,149.8,148.1,149.9,148.1z M151.9,146.5c0.1-0.1,0.2-0.2,0.3-0.3c0.1-0.1,0.3-0.1,0.4-0.1
						v0.4h-0.1c-0.4,0-0.6,0.2-0.6,0.7v1.2h-0.4v-2.2h0.4V146.5z M154.5,145.5v2.8h-0.4v-2.8H154.5z M156.2,146.1
						c0.3,0,0.5,0.1,0.7,0.2c0.2,0.2,0.3,0.4,0.3,0.7v1.3h-0.4v-1.3c0-0.2-0.1-0.4-0.2-0.5c-0.1-0.1-0.3-0.2-0.5-0.2
						c-0.2,0-0.4,0.1-0.5,0.2c-0.1,0.1-0.2,0.3-0.2,0.5v1.2h-0.4v-2.2h0.4v0.3c0.1-0.1,0.2-0.2,0.3-0.3
						C155.9,146.1,156.1,146.1,156.2,146.1z M157.6,147.2c0-0.2,0-0.4,0.1-0.6c0.1-0.2,0.2-0.3,0.4-0.4c0.2-0.1,0.3-0.1,0.5-0.1
						c0.2,0,0.3,0,0.5,0.1c0.1,0.1,0.3,0.2,0.3,0.3v-1.2h0.4v3h-0.4v-0.4c-0.1,0.1-0.2,0.2-0.3,0.3c-0.1,0.1-0.3,0.1-0.5,0.1
						c-0.2,0-0.4,0-0.5-0.1c-0.2-0.1-0.3-0.2-0.4-0.4C157.6,147.7,157.6,147.5,157.6,147.2z M159.5,147.2c0-0.2,0-0.3-0.1-0.4
						c-0.1-0.1-0.2-0.2-0.3-0.3c-0.1-0.1-0.2-0.1-0.4-0.1c-0.1,0-0.3,0-0.4,0.1c-0.1,0.1-0.2,0.2-0.3,0.3c-0.1,0.1-0.1,0.3-0.1,0.4
						c0,0.2,0,0.3,0.1,0.4c0.1,0.1,0.2,0.2,0.3,0.3c0.1,0.1,0.2,0.1,0.4,0.1c0.1,0,0.3,0,0.4-0.1c0.1-0.1,0.2-0.2,0.3-0.3
						C159.5,147.6,159.5,147.4,159.5,147.2z M162.5,146.1v2.2h-0.4V148c-0.1,0.1-0.2,0.2-0.3,0.3c-0.1,0.1-0.3,0.1-0.4,0.1
						c-0.2,0-0.3,0-0.5-0.1c-0.1-0.1-0.2-0.2-0.3-0.3c-0.1-0.1-0.1-0.3-0.1-0.5v-1.3h0.4v1.3c0,0.2,0.1,0.4,0.2,0.5
						c0.1,0.1,0.3,0.2,0.5,0.2c0.2,0,0.4-0.1,0.5-0.2c0.1-0.1,0.2-0.3,0.2-0.5v-1.2H162.5z M164.4,148.4l-0.9-1v1h-0.4v-3h0.4v1.8
						l0.9-1h0.5l-1.1,1.1l1.1,1.1H164.4z M167.8,148.4l-1.2-1.3v1.3h-0.4v-2.8h0.4v1.3l1.2-1.3h0.5l-1.3,1.4l1.3,1.4H167.8z
						 M168.6,147.2c0-0.2,0-0.4,0.1-0.6c0.1-0.2,0.2-0.3,0.4-0.4c0.2-0.1,0.3-0.1,0.5-0.1c0.2,0,0.4,0,0.5,0.1s0.3,0.2,0.3,0.3v-0.4
						h0.4v2.2h-0.4v-0.4c-0.1,0.1-0.2,0.2-0.3,0.3c-0.1,0.1-0.3,0.1-0.5,0.1c-0.2,0-0.4,0-0.5-0.1c-0.2-0.1-0.3-0.2-0.4-0.4
						C168.6,147.7,168.6,147.5,168.6,147.2z M170.5,147.2c0-0.2,0-0.3-0.1-0.4c-0.1-0.1-0.2-0.2-0.3-0.3c-0.1-0.1-0.2-0.1-0.4-0.1
						c-0.1,0-0.3,0-0.4,0.1c-0.1,0.1-0.2,0.2-0.3,0.3c-0.1,0.1-0.1,0.3-0.1,0.4c0,0.2,0,0.3,0.1,0.4c0.1,0.1,0.2,0.2,0.3,0.3
						c0.1,0.1,0.2,0.1,0.4,0.1c0.1,0,0.3,0,0.4-0.1c0.1-0.1,0.2-0.2,0.3-0.3C170.5,147.6,170.5,147.4,170.5,147.2z M171.9,146.5
						c0.1-0.1,0.2-0.2,0.3-0.3c0.1-0.1,0.3-0.1,0.4-0.1v0.4h-0.1c-0.4,0-0.6,0.2-0.6,0.7v1.2h-0.4v-2.2h0.4V146.5z M174.9,146.1
						l-1.3,3.3h-0.4l0.4-1.1l-0.9-2.2h0.4l0.7,1.8l0.7-1.8H174.9z M175.2,147.2c0-0.2,0-0.4,0.1-0.6c0.1-0.2,0.2-0.3,0.4-0.4
						c0.2-0.1,0.3-0.1,0.5-0.1c0.2,0,0.4,0,0.5,0.1c0.1,0.1,0.3,0.2,0.3,0.3v-0.4h0.4v2.2h-0.4v-0.4c-0.1,0.1-0.2,0.2-0.3,0.3
						c-0.1,0.1-0.3,0.1-0.5,0.1c-0.2,0-0.4,0-0.5-0.1c-0.2-0.1-0.3-0.2-0.4-0.4C175.2,147.7,175.2,147.5,175.2,147.2z M177.1,147.2
						c0-0.2,0-0.3-0.1-0.4c-0.1-0.1-0.2-0.2-0.3-0.3c-0.1-0.1-0.2-0.1-0.4-0.1s-0.3,0-0.4,0.1c-0.1,0.1-0.2,0.2-0.3,0.3
						c-0.1,0.1-0.1,0.3-0.1,0.4c0,0.2,0,0.3,0.1,0.4c0.1,0.1,0.2,0.2,0.3,0.3c0.1,0.1,0.2,0.1,0.4,0.1s0.3,0,0.4-0.1
						c0.1-0.1,0.2-0.2,0.3-0.3C177,147.6,177.1,147.4,177.1,147.2z M181,146.1l-0.7,2.2H180l-0.5-1.8l-0.5,1.8h-0.4l-0.7-2.2h0.4
						l0.5,1.9l0.6-1.9h0.4l0.5,1.9l0.5-1.9H181z M181.3,147.2c0-0.2,0-0.4,0.1-0.6c0.1-0.2,0.2-0.3,0.4-0.4c0.2-0.1,0.3-0.1,0.5-0.1
						c0.2,0,0.4,0,0.5,0.1s0.3,0.2,0.3,0.3v-0.4h0.4v2.2h-0.4v-0.4c-0.1,0.1-0.2,0.2-0.3,0.3c-0.1,0.1-0.3,0.1-0.5,0.1
						c-0.2,0-0.4,0-0.5-0.1c-0.2-0.1-0.3-0.2-0.4-0.4C181.3,147.7,181.3,147.5,181.3,147.2z M183.2,147.2c0-0.2,0-0.3-0.1-0.4
						c-0.1-0.1-0.2-0.2-0.3-0.3c-0.1-0.1-0.2-0.1-0.4-0.1c-0.1,0-0.3,0-0.4,0.1c-0.1,0.1-0.2,0.2-0.3,0.3c-0.1,0.1-0.1,0.3-0.1,0.4
						c0,0.2,0,0.3,0.1,0.4c0.1,0.1,0.2,0.2,0.3,0.3c0.1,0.1,0.2,0.1,0.4,0.1c0.1,0,0.3,0,0.4-0.1c0.1-0.1,0.2-0.2,0.3-0.3
						C183.1,147.6,183.2,147.4,183.2,147.2z M185.3,146.1c0.3,0,0.5,0.1,0.7,0.2c0.2,0.2,0.3,0.4,0.3,0.7v1.3h-0.4v-1.3
						c0-0.2-0.1-0.4-0.2-0.5c-0.1-0.1-0.3-0.2-0.5-0.2c-0.2,0-0.4,0.1-0.5,0.2c-0.1,0.1-0.2,0.3-0.2,0.5v1.2h-0.4v-2.2h0.4v0.3
						c0.1-0.1,0.2-0.2,0.3-0.3C185,146.1,185.1,146.1,185.3,146.1z"/>
					<path class="st12" d="M216.8,377.5c0.2,0,0.3-0.2,0.3-0.3c0-0.2-0.2-0.3-0.3-0.3c-0.2,0-0.3,0.2-0.3,0.3
						C216.4,377.3,216.6,377.5,216.8,377.5z"/>
					<circle class="st12" cx="229.1" cy="160.2" r="30.6"/>
					<path class="st13" d="M244.7,162.3c-1.3-1.1-2.7-2.1-4.4-2.7c-0.6-0.3-1.5,0-1.8,0.6c-0.3,0.6,0,1.5,0.6,1.8
						c1.5,0.6,2.7,1.5,3.6,2.4c1.2,1.2,1.8,2.7,1.8,4.1v2.7c0,0.9-0.6,1.5-1.5,1.5h-27.8c-0.9,0-1.5-0.6-1.5-1.5v-2.4
						c0-1.8,0.6-3.3,1.8-4.1c1.5-1.2,5.6-4.1,13.3-4.1c5.9,0,10.4-4.7,10.4-10.4s-4.7-10.4-10.4-10.4c-5.9,0-10.4,4.7-10.4,10.4
						c0,3.3,1.5,6.5,4.1,8.3c-4.4,0.9-7.4,3-8.9,4.1c-1.8,1.5-3,3.9-3,6.5v2.7c0,2.4,1.8,4.1,4.1,4.1h27.8c2.4,0,4.8-1.8,4.8-4.1v-3
						C247.5,165.2,246.1,163.4,244.7,162.3z M221.9,149.9c0-4.1,3.6-7.7,7.7-7.7c4.1,0,7.7,3.6,7.7,7.7c0,4.1-3.6,7.7-7.7,7.7
						C225.2,157.6,221.9,154,221.9,149.9z"/>
				</g>
				<rect x="126.5" y="59.8" class="st12" width="153.1" height="49"/>
				<g>
					<g>
						<defs>
							<rect id="SVGID_3_" x="138.7" y="84.7" width="59" height="15.1"/>
						</defs>
						<clipPath id="SVGID_4_">
							<use xlink:href="#SVGID_3_"  style="overflow:visible;"/>
						</clipPath>
						<g class="st14">
							<path class="st1" d="M164.6,91.6l2.7-2.8h-1.9l-2.8,3v-3.1H161v6.9h1.6v-2l0.9-1l2,2.9h1.8L164.6,91.6z"/>
							<path class="st1" d="M169.3,94.1c0.4,0.3,0.8,0.4,1.3,0.4c0.4,0,0.7-0.1,1-0.2s0.6-0.3,0.8-0.6l0.9,0.8
								c-0.2,0.4-0.7,0.7-1.1,0.9c-0.4,0.2-1,0.3-1.6,0.3c-0.5,0-0.9-0.1-1.3-0.2s-0.8-0.4-1.1-0.7c-0.3-0.3-0.6-0.7-0.7-1.1
								c-0.2-0.4-0.3-0.9-0.3-1.4s0.1-0.9,0.2-1.4c0.2-0.4,0.4-0.8,0.7-1.1c0.3-0.3,0.7-0.6,1.1-0.8c0.4-0.2,0.9-0.3,1.3-0.3
								c0.5,0,1,0.1,1.4,0.3s0.7,0.4,1,0.8c0.3,0.3,0.5,0.7,0.6,1.2s0.2,0.9,0.2,1.4c0,0.1,0,0.1,0,0.2s0,0.1,0,0.2h-5.1
								C168.8,93.4,169,93.8,169.3,94.1z M172.1,91.8c0-0.2-0.1-0.5-0.2-0.7s-0.2-0.4-0.3-0.6c-0.2-0.2-0.3-0.3-0.5-0.4
								s-0.4-0.1-0.7-0.1c-0.5,0-0.9,0.2-1.2,0.5s-0.5,0.8-0.6,1.3L172.1,91.8L172.1,91.8z"/>
							<path class="st1" d="M176.1,95.6h-1.6v-6.8h1.6v1.5c0.2-0.5,0.5-0.9,0.9-1.2c0.4-0.3,0.9-0.4,1.5-0.4v1.6h-0.1
								c-0.3,0-0.7,0-0.9,0.2c-0.3,0.1-0.5,0.3-0.7,0.5s-0.4,0.5-0.5,0.9c-0.1,0.3-0.2,0.7-0.2,1.2V95.6L176.1,95.6z"/>
							<path class="st1" d="M179.3,88.9v4.8c0,0.2-0.1,0.4-0.2,0.5c-0.1,0.1-0.3,0.1-0.5,0.1c-0.1,0-0.3,0-0.4,0v1.4
								c0.1,0,0.2,0,0.4,0s0.2,0,0.4,0c0.7,0,1.1-0.1,1.5-0.4c0.3-0.2,0.5-0.7,0.5-1.2v-5.2C181,88.9,179.3,88.9,179.3,88.9z"/>
							<path class="st1" d="M188.8,93.6c-0.2,0.4-0.4,0.8-0.8,1.1c-0.3,0.3-0.7,0.6-1.1,0.8s-0.9,0.3-1.4,0.3s-1-0.1-1.4-0.3
								c-0.4-0.2-0.8-0.4-1.1-0.8s-0.6-0.7-0.7-1.1c-0.2-0.4-0.3-0.9-0.3-1.3s0.1-0.9,0.3-1.4c0.2-0.4,0.4-0.8,0.8-1.1
								s0.7-0.6,1.1-0.8c0.4-0.2,0.9-0.3,1.4-0.3s1,0.1,1.4,0.3c0.4,0.2,0.8,0.4,1.1,0.8s0.6,0.7,0.7,1.1c0.2,0.4,0.3,0.9,0.3,1.4
								C189.1,92.7,189,93.2,188.8,93.6z M187.4,91.4c-0.1-0.2-0.2-0.5-0.4-0.7s-0.4-0.4-0.7-0.5c-0.2-0.1-0.5-0.2-0.8-0.2
								s-0.6,0-0.8,0.2c-0.2,0.1-0.4,0.3-0.7,0.4c-0.2,0.2-0.3,0.4-0.4,0.7c-0.1,0.2-0.1,0.5-0.1,0.9c0,0.3,0,0.6,0.2,0.9
								c0.1,0.3,0.2,0.5,0.4,0.7s0.4,0.4,0.7,0.4c0.2,0.1,0.5,0.2,0.8,0.2s0.6,0,0.9-0.2c0.2-0.1,0.4-0.3,0.7-0.4
								c0.2-0.2,0.3-0.4,0.4-0.7c0.1-0.2,0.1-0.5,0.1-0.9C187.5,92,187.5,91.7,187.4,91.4z"/>
							<path class="st1" d="M196.6,93.6c-0.2,0.4-0.4,0.8-0.8,1.1c-0.3,0.3-0.7,0.6-1.1,0.8s-0.9,0.3-1.4,0.3s-1-0.1-1.4-0.3
								c-0.4-0.2-0.8-0.4-1.1-0.8s-0.6-0.7-0.7-1.1c-0.2-0.4-0.3-0.9-0.3-1.3s0.1-0.9,0.3-1.4c0.2-0.4,0.4-0.8,0.8-1.1
								s0.7-0.6,1.1-0.8c0.4-0.2,0.9-0.3,1.4-0.3s1,0.1,1.4,0.3c0.4,0.2,0.8,0.4,1.1,0.8s0.6,0.7,0.7,1.1c0.2,0.4,0.3,0.9,0.3,1.4
								C196.9,92.7,196.8,93.2,196.6,93.6z M195.2,91.4c-0.1-0.2-0.2-0.5-0.4-0.7s-0.4-0.4-0.7-0.5c-0.2-0.1-0.5-0.2-0.8-0.2
								s-0.6,0-0.8,0.2c-0.2,0.1-0.4,0.3-0.7,0.4c-0.2,0.2-0.3,0.4-0.4,0.7c-0.1,0.2-0.1,0.5-0.1,0.9c0,0.3,0,0.6,0.2,0.9
								c0.1,0.3,0.2,0.5,0.4,0.7s0.4,0.4,0.7,0.4c0.2,0.1,0.5,0.2,0.8,0.2s0.6,0,0.9-0.2c0.2-0.1,0.4-0.3,0.7-0.4
								c0.2-0.2,0.3-0.4,0.4-0.7c0.1-0.2,0.1-0.5,0.1-0.9C195.3,92,195.3,91.7,195.2,91.4z"/>
							<path class="st15" d="M154.1,85.6c-0.5,0-0.9,0.1-1.3,0.4l-0.2,0.2l-1.7,1.2l-0.1,0.1c-0.3-1-1.3-1.8-2.4-1.8
								c-1.4,0-2.6,1.1-2.6,2.6v4c0,1.4,1.1,2.6,2.6,2.6c0.4,0,0.9-0.1,1.2-0.3l0.4-0.3l0.9-0.6l4.5-3.1l0.6-0.4
								c0.5-0.5,0.9-1.1,0.9-1.9C156.8,86.8,155.6,85.6,154.1,85.6z"/>
							<path class="st15" d="M154.1,98.9c-0.5,0-0.9-0.1-1.3-0.4l-0.2-0.2l-1.7-1.2l-0.1-0.1c-0.3,1-1.3,1.8-2.4,1.8
								c-1.4,0-2.6-1.1-2.6-2.6v-4c0-1.4,1.1-2.6,2.6-2.6c0.4,0,0.9,0.1,1.2,0.3l0.4,0.3l0.9,0.6l4.5,3.1l0.6,0.4
								c0.5,0.5,0.9,1.1,0.9,1.9C156.7,97.7,155.5,98.9,154.1,98.9z"/>
							<path class="st16" d="M150.8,96.4c0,1.4-1.1,2.5-2.5,2.5c-0.1,0-0.2,0-0.3,0c-1.3-0.1-2.2-1.2-2.2-2.5v-8.2
								c0-1.3,1-2.4,2.3-2.5c0.1,0,0.2,0,0.2,0c1.4,0,2.5,1.1,2.5,2.5C150.8,88.3,150.8,96.3,150.8,96.4z"/>
							<path class="st15" d="M142.3,94.9c1.5,0,2.7-1.2,2.7-2.7s-1.2-2.7-2.7-2.7s-2.7,1.2-2.7,2.7
								C139.6,93.7,140.8,94.9,142.3,94.9z"/>
						</g>
					</g>
				</g>
				<g>
					<rect x="126.5" y="328" class="st17" width="153.1" height="33.5"/>
					<rect x="126.5" y="328.8" class="st7" width="153.1" height="32.7"/>
					<path class="st12" d="M222.3,342.3c0.3,0,0.4,0.2,0.4,0.5v2.7c0,0.1,0,0.2-0.1,0.3l-1.8,1.8c-0.2,0.2-0.4,0.2-0.6,0
						c-0.2-0.2-0.1-0.5,0.1-0.7l1.7-1.7v-2.5C222,342.5,222.1,342.3,222.3,342.3z M224.1,339.5h-3.6c-1,0-1.9,0.3-2.7,1V340
						c0-0.3-0.1-0.5-0.3-0.5c-0.3,0-0.3,0.2-0.3,0.5v1.5c0,0.3,0.2,0.4,0.4,0.4h1.4c0.3,0,0.5-0.1,0.5-0.3s-0.2-0.3-0.5-0.3h-0.8
						c0.6-0.6,1.5-1,2.3-1h3.6c1.8,0,3.4,1.7,3.4,3.4v3.6c0,1.8-1.7,3.4-3.4,3.4h-3.6c-1.8,0-3.4-1.7-3.4-3.4V345
						c0-0.3-0.1-0.5-0.3-0.5s-0.3,0.2-0.3,0.5v2.2c0,2.3,1.8,4.1,4.1,4.1h3.6c2.3,0,4.1-1.8,4.1-4.1v-3.6
						C228.2,341.3,226.3,339.5,224.1,339.5z"/>
					<path class="st12" d="M216.7,343.9c0.2,0,0.3-0.2,0.3-0.3c0-0.2-0.2-0.3-0.3-0.3c-0.2,0-0.3,0.2-0.3,0.3
						C216.3,343.7,216.5,343.9,216.7,343.9z"/>
					<g>
						<g>
							<defs>
								<rect id="SVGID_5_" x="180" y="338.6" width="13.1" height="13.1"/>
							</defs>
							<clipPath id="SVGID_6_">
								<use xlink:href="#SVGID_5_"  style="overflow:visible;"/>
							</clipPath>
							<g class="st18">
								<path class="st12" d="M186.5,351.7c1.7,0,3.3-0.6,4.6-1.9c2.5-2.5,2.5-6.7,0-9.2c-1.1-1.1-2.4-1.7-3.9-1.9
									c-1.4-0.2-2.9,0.2-4.1,0.9c-0.2,0.1-0.2,0.3-0.1,0.5c0.1,0.2,0.3,0.2,0.5,0.1c2.3-1.4,5.2-1,7.1,0.9c2.3,2.3,2.3,6,0,8.2
									c-2.3,2.3-6,2.3-8.2,0c-1.9-1.9-2.3-4.8-0.9-7.1c0.1-0.2,0.1-0.4-0.1-0.5c-0.2-0.1-0.4-0.1-0.5,0.1
									c-0.7,1.2-1.1,2.7-0.9,4.1c0.2,1.5,0.8,2.8,1.9,3.9C183.2,351.1,184.8,351.7,186.5,351.7z"/>
								<path class="st12" d="M191.3,345.5c0.2,0,0.4-0.2,0.4-0.4c0-0.2-0.2-0.4-0.4-0.4h-0.2c-0.2,0-0.4,0.2-0.4,0.4
									c0,0.2,0.2,0.4,0.4,0.4H191.3z"/>
								<path class="st12" d="M181.7,344.8c-0.2,0-0.4,0.2-0.4,0.4c0,0.2,0.2,0.4,0.4,0.4h0.2c0.2,0,0.4-0.2,0.4-0.4
									c0-0.2-0.2-0.4-0.4-0.4H181.7z"/>
								<path class="st12" d="M186.9,340.6v-0.2c0-0.2-0.2-0.4-0.4-0.4s-0.4,0.2-0.4,0.4v0.2c0,0.2,0.2,0.4,0.4,0.4
									S186.9,340.8,186.9,340.6z"/>
								<path class="st12" d="M186.2,349.8v0.2c0,0.2,0.2,0.4,0.4,0.4s0.4-0.2,0.4-0.4v-0.2c0-0.2-0.2-0.4-0.4-0.4
									C186.3,349.4,186.2,349.6,186.2,349.8z"/>
								<path class="st12" d="M184.8,342.9c-0.1-0.1-0.4-0.1-0.5,0s-0.1,0.4,0,0.5l1.2,1.2c-0.1,0.2-0.1,0.4-0.1,0.6
									c0,0.7,0.5,1.2,1.2,1.2s1.2-0.5,1.2-1.2c0-0.2-0.1-0.4-0.1-0.6l2.4-2.4c0.1-0.1,0.1-0.4,0-0.5s-0.4-0.1-0.5,0l-2.4,2.4
									c-0.2-0.1-0.4-0.1-0.6-0.1s-0.4,0.1-0.6,0.1L184.8,342.9z M187,345.2c0,0.3-0.2,0.5-0.5,0.5s-0.5-0.2-0.5-0.5
									s0.2-0.5,0.5-0.5S187,344.9,187,345.2z"/>
								<path class="st12" d="M182.1,341.2c0.2,0,0.4-0.2,0.4-0.4c0-0.2-0.2-0.4-0.4-0.4s-0.4,0.2-0.4,0.4
									C181.8,341,181.9,341.2,182.1,341.2z"/>
							</g>
						</g>
					</g>
					<g>
						<g>
							<defs>
								<rect id="SVGID_7_" x="142.4" y="338.6" width="13.1" height="13.1"/>
							</defs>
							<clipPath id="SVGID_8_">
								<use xlink:href="#SVGID_7_"  style="overflow:visible;"/>
							</clipPath>
							<g class="st19">
								<path class="st20" d="M155.3,344l-6.2-4.5c-0.1-0.1-0.3-0.1-0.4,0l-6.2,4.5c-0.2,0.1-0.2,0.3-0.1,0.5
									c0.1,0.2,0.3,0.2,0.5,0.1l6-4.4l6,4.4c0.1,0,0.1,0.1,0.2,0.1c0.1,0,0.2,0,0.3-0.1C155.5,344.3,155.5,344.1,155.3,344z"/>
								<path class="st20" d="M153.7,344.6c-0.2,0-0.3,0.2-0.3,0.3v5.4h-2.7v-2.9c0-0.9-0.8-1.7-1.7-1.7s-1.7,0.8-1.7,1.7v2.9h-2.7
									v-5.4c0-0.2-0.2-0.3-0.3-0.3c-0.2,0-0.3,0.2-0.3,0.3v5.7c0,0.2,0.2,0.3,0.3,0.3h3.4c0.2,0,0.3-0.1,0.3-0.3l0,0v-3.3
									c0-0.6,0.5-1,1-1c0.6,0,1,0.5,1,1v3.3l0,0c0,0.2,0.2,0.3,0.3,0.3h3.4c0.2,0,0.3-0.2,0.3-0.3v-5.7
									C154,344.7,153.9,344.6,153.7,344.6z"/>
							</g>
						</g>
					</g>
					<path class="st21" d="M262.3,346.8c-0.4-0.4-0.9-0.7-1.5-0.9c-0.2-0.1-0.5,0-0.6,0.2s0,0.5,0.2,0.6c0.5,0.2,0.9,0.5,1.2,0.8
						c0.4,0.4,0.6,0.9,0.6,1.4v0.9c0,0.3-0.2,0.5-0.5,0.5h-9.4c-0.3,0-0.5-0.2-0.5-0.5V349c0-0.6,0.2-1.1,0.6-1.4
						c0.5-0.4,1.9-1.4,4.5-1.4c2,0,3.5-1.6,3.5-3.5s-1.6-3.5-3.5-3.5c-2,0-3.5,1.6-3.5,3.5c0,1.1,0.5,2.2,1.4,2.8
						c-1.5,0.3-2.5,1-3,1.4c-0.6,0.5-1,1.3-1,2.2v0.9c0,0.8,0.6,1.4,1.4,1.4h9.4c0.8,0,1.4-0.6,1.4-1.4v-1
						C263,347.9,262.7,347.2,262.3,346.8z M254.6,342.6c0-1.4,1.2-2.6,2.6-2.6c1.4,0,2.6,1.2,2.6,2.6s-1.2,2.6-2.6,2.6
						C255.7,345.2,254.6,344,254.6,342.6z"/>
				</g>
			</g>
		</g>
	</g>
	<path class="st3" d="M109.1,219.6c0,0,9.2,2.8,12.4,10.8"/>
	<g>
		<path class="st1" d="M67.4,473c1-17.8,1.7-35.9,2.6-50.6c1.8-30.3,3.2-50.6,6-71.4c2.8-20.7,2.3-52,3.7-62.9
			c1.4-10.9,5.5-13.2,8.7-26.2s6.2-38.8,11.5-42.4c5.3-3.6,21.6-10.5,21.6-10.5v73.2c9.7,14.9,21.2,18.5,21.2,18.5
			c7.4-21.3,6.4-29.8,13.8-37.6c7.4-7.8,12.7-18,24.2-13.8c5.5,2,8.4,4.1,5.7,22.8c-2.8,18.7-8.3,24.5-8.3,24.5
			c-0.9,6.4,0.5,24.9,2.8,34.4s-6.4,34.7-10.6,50.8c-4.1,16.1-26.2,48.7-26.2,48.7s-0.9,18,0.9,36.8c0.2,1.7,0.4,3.6,0.6,5.5
			l1.5,50.1l-79.7-1.5C67.4,521.4,67.4,473,67.4,473z"/>
		<g>
			<path class="st2" d="M184.7,255c-0.4-1.6-0.4-2.6,0-3.3c-1.1-1-2.5-1.6-4-2.2c-11.6-4.3-16.9,6-24.2,13.8
				c-0.7,0.7-1.3,1.5-1.8,2.2c6.7-2.5,15.4-2.5,18.9,2.4C177.9,274,186.9,262.9,184.7,255z"/>
			<path class="st2" d="M134.8,455.1l-3.6,13.6c0,0,5.1-5,12.8-17.2c-0.4-11.9,0.1-20.8,0.1-20.8s22.1-32.6,26.2-48.7
				c4.1-16.1,12.9-41.3,10.6-50.8c-2.3-9.5-3.7-28-2.8-34.4c0,0,1.2-1.2,2.7-4.4c-1-1-2.2-1.8-3.5-2c0,0-5.9,14-4.5,32.4
				s-1.7,19.9-7.8,43.9c-6.1,23.9-16.2,51-21,55.9C139.3,427.3,137.2,449.2,134.8,455.1z"/>
			<path class="st2" d="M126.1,293.9c0,0-7.3,1.1-10.2,2.8c0,0,14.2,3.7,15.1,7.6s4,8,9.3,3.2c0,0,0.3-3,0.8-7.4
				c-3.4-1.5-12.1-6.3-19.7-17.9V209c0,0-8,3.4-14.7,6.6c4.9,0.7,10,2.2,11.9,5.5c0,0-1.5,6.1-8.3,9.2c-5.2,2.3,0,41.8,0,41.8
				s-8.6,2.1-11.3,10.1c0,0,14.1,1.4,19.9,5.9C124.9,292.7,126.1,293.9,126.1,293.9z"/>
			<path class="st2" d="M70,422.5c-0.7,11.8-1.3,26-2,40.4c1.8-27.4,7.3-74.4,7.3-74.4s4.9,17.4,5.3,15.5c1.1-5.4-2.3-36.2-2-47.2
				c0.1-5-0.2-17.7-0.7-30.1c-0.4,8.5-1,17.1-1.9,24.4C73.2,371.8,71.8,392.1,70,422.5z"/>
		</g>
		<g>
			<path class="st3" d="M67.4,525v-52c1-17.8,1.7-35.9,2.6-50.6c1.8-30.3,3.2-50.6,6-71.4c2.8-20.7,2.3-52,3.7-62.9
				c1.4-10.9,5.5-13.2,8.7-26.2s6.2-38.8,11.5-42.4c5.3-3.6,21.6-10.5,21.6-10.5v73.2c9.7,14.9,21.2,18.5,21.2,18.5
				c7.4-21.3,6.4-29.8,13.8-37.6c7.4-7.8,12.7-18,24.2-13.8c5.5,2,8.4,4.1,5.7,22.8c-2.8,18.7-8.3,24.5-8.3,24.5
				c-0.9,6.4,0.5,24.9,2.8,34.4s-6.4,34.7-10.6,50.8c-4.1,16.1-26.2,48.7-26.2,48.7s-0.9,18,0.9,36.8c0.2,1.7,0.4,3.6,0.6,5.5
				c0,0,0.7,32.3,4.3,52"/>
			<path class="st3" d="M142.6,300.8c0,0-2.3,10.3-6.9,12.6c-4.6,2.3-11.2,0-11.2,0"/>
			<path class="st3" d="M121.5,282.3c0,0-4.6-10.2-19.3-1.4"/>
			<path class="st3" d="M121.5,241c0,0-0.9-5.4-8.5-6.8"/>
			<path class="st3" d="M144,430.7c-8.7,11.1-7.1,21.7-10.4,27.2c-3.4,5.5-2.9,25.3-2.9,25.3"/>
			<path class="st3" d="M80.5,324.4c0,0,0,21.7,0,38.5s3.2,32.9,3.2,32.9"/>
			<path class="st3" d="M178.1,296.8c0,0,0-6.6-1.8-8.5"/>
			<path class="st3" d="M173,276.1c0,0-4.1-13.7-16-7.7"/>
			<path class="st3" d="M136.2,297.4c-8.9,0.2-17.9-3.7-23.2,1"/>
		</g>
	</g>
	<g>
		<path class="st4" d="M66.9,509.9h-3.2v-54.6h3.2c1.1,0,2,0.9,2,2V508C68.9,509.1,68,509.9,66.9,509.9z"/>
		<path class="st4" d="M63.7,462.5c0,0,42.2-11,82.7,1.5c1.3,0.4,2.2,1.6,2.2,3v25.9c0,1-0.9,1.7-1.8,1.5
			c-8.7-1.6-46.9-7.6-80.9,0.3L63.7,462.5z"/>
		<path class="st22" d="M65.5,462v-5.8c0-1.9-1.6-3.5-3.5-3.5h-4.7c-1.2,0-2.3,0.7-2.9,1.7l-4.2,7.6v44.6l4.1,5
			c0.6,0.8,1.5,1.2,2.5,1.2H62c1.9,0,3.5-1.6,3.5-3.5V462z"/>
		<path class="st22" d="M62.5,459.1l9.6-1.8c1.1-0.2,2.2,0.7,2.2,1.8v5.6l-3.2,2.4v18.1h3.2v9.4c0,1.1-0.8,2-1.8,2.2l-9.1,1.9
			c-1.4,0.3-2.7-0.8-2.7-2.2v-35.2C60.7,460.2,61.5,459.3,62.5,459.1z"/>
		<path class="st3" d="M62.9,496.2l7.8-1.8c0.6-0.1,1-0.7,1-1.3v-5.9"/>
		<polyline class="st3" points="68.5,484.8 68.5,465.5 71.7,463.1 71.7,459.5 		"/>
		<line class="st3" x1="55.8" y1="456.2" x2="55.8" y2="507.8"/>
		<path class="st1" d="M93.9,476.3L93.9,476.3c-0.8,0-1.4-0.6-1.4-1.4v-3.1c0-0.8,0.6-1.4,1.4-1.4l0,0c0.8,0,1.4,0.6,1.4,1.4v3.1
			C95.3,475.7,94.7,476.3,93.9,476.3z"/>
		<path class="st1" d="M115.6,476.9L115.6,476.9c-0.8,0-1.4-0.6-1.4-1.4v-3.1c0-0.8,0.6-1.4,1.4-1.4l0,0c0.8,0,1.4,0.6,1.4,1.4v3.1
			C117,476.3,116.4,476.9,115.6,476.9z"/>
		<path class="st1" d="M134.9,479.3L134.9,479.3c-0.8,0-1.4-0.6-1.4-1.4v-3.1c0-0.8,0.6-1.4,1.4-1.4l0,0c0.8,0,1.4,0.6,1.4,1.4v3.1
			C136.4,478.7,135.7,479.3,134.9,479.3z"/>
	</g>
</g>
</svg>
