<svg xmlns="http://www.w3.org/2000/svg" viewBox="0 0 36 20" fill="#1ec7d0">
	<title>Degiam</title>
	<!-- <text transform="matrix(1 0 0 1 1.2356 13.611)" style="font-family:'ShorelinesScriptBold';font-size:8.287px;">degiam</text> -->
	<path d="M5.4,4.1c0.3,0,0.5,0.2,0.5,0.5c0,0,0,0,0,0.1c0,0.6-0.1,1-0.1,1.2c0-0.1,0-0.1,0-0.1c0,0.5-0.3,1.7-0.9,3.5 c-0.2,0.5-0.4,0.7-0.4,0.8v0C4.7,10.7,5.1,11,5.8,11H6c1.1,0,2.1-0.5,3-1.4c0.1-0.2,0.3-0.4,0.4-0.4h0c0.1,0,0.2,0.1,0.3,0.2 c-0.1,0.3-0.5,0.8-1.4,1.4c-0.9,0.4-1.5,0.6-2,0.6c-0.1,0-0.2,0-0.4,0c-0.2,0-0.6-0.1-1-0.3c-0.1-0.1-0.3-0.2-0.5-0.4 c0,0,0,0.1-0.1,0.2c-0.4,0.5-0.9,0.9-1.5,1C2.5,12,2.3,12,2.1,12c-0.8,0-1.3-0.4-1.6-1.1c0-0.1,0-0.1,0-0.2v-0.2 c0-0.5,0.3-1,0.8-1.5c0.3-0.3,0.8-0.5,1.4-0.5l0.4,0c0.2,0,0.4,0.1,0.8,0.2C3.7,9,3.6,9,3.6,8.7c0,0,0-0.1,0-0.2 c0-0.8,0.2-1.6,0.5-2.5L4.6,5C4.8,4.6,5,4.4,5.2,4.2C5.3,4.2,5.4,4.1,5.4,4.1z M1,10.6c0,0.5,0.2,0.8,0.7,1c0.1,0,0.2,0,0.2,0 c0.6,0,1.2-0.4,1.7-1c0.1-0.2,0.1-0.3,0.1-0.3C3.8,10,3.7,9.6,3.6,9.2c0,0-0.1,0-0.3,0C3.2,9.1,3.1,9,2.9,9c-0.8,0-1.5,0.4-1.8,1.3 C1.1,10.4,1,10.5,1,10.6z M4.2,8C4.2,7.9,4.2,7.9,4.2,8c0,0,0,0.3,0,0.7c0.1,0.6,0.1,0.9,0.1,0.9c0,0,0.1-0.1,0.1-0.2 c0.2-0.4,0.5-1.5,1-3.2l0.1-1.4c0,0,0-0.1,0-0.1c-0.1,0-0.3,0.5-0.7,1.4C4.4,6.7,4.2,7.4,4.2,8z M11,8L11,8c0.5,0.1,0.7,0.2,0.7,0.4 c-0.1,0.3-0.4,0.7-0.9,1.1c-0.1,0.1-0.6,0.2-1.3,0.4c0,0,0,0,0,0v0c0.1,0.4,0.3,0.6,0.5,0.8c0.2,0.1,0.5,0.2,0.9,0.2H11 c1.1,0,2.1-0.5,3-1.4c0.2-0.2,0.3-0.3,0.4-0.4h0c0.1,0,0.2,0.1,0.3,0.3c-0.1,0.3-0.5,0.8-1.4,1.4c-0.9,0.4-1.5,0.6-2,0.6 c-0.1,0-0.2,0-0.4,0c-0.2,0-0.6-0.1-1.1-0.3c-0.3-0.2-0.5-0.5-0.7-0.8c-0.1,0-0.1-0.2-0.2-0.5c0-0.2,0.2-0.5,0.5-1 c0.5-0.4,0.8-0.7,1.1-0.7C10.7,8,10.9,8,11,8z M9.6,9.4C9.6,9.4,9.6,9.4,9.6,9.4L9.6,9.4c0.1,0,0.4-0.1,0.8-0.3 c0.4-0.3,0.6-0.5,0.6-0.6c0,0,0,0,0,0h0c-0.5,0.1-0.9,0.4-1.2,0.7C9.7,9.2,9.6,9.3,9.6,9.4z M15.5,8.5c0.4,0,0.7,0.2,0.9,0.6 c0.3,0.6,0.5,1,0.8,1.4l0.1,0c0,0,0.1-0.1,0.4-0.4c0.4-0.4,0.9-0.7,1.4-0.8c0.1,0,0.2,0,0.3-0.1c0.2,0,0.3,0.1,0.3,0.3 c0,0.1-0.3,0.3-0.8,0.4c-0.2,0.1-0.6,0.3-1,0.8c-0.1,0.2-0.2,0.3-0.2,0.3v0c0,0.1,0.1,0.3,0.3,0.6c0,0.1,0.2,0.5,0.7,1.4 c0.1,0.3,0.2,0.6,0.3,1c0.2,0.5,0.2,1,0.2,1.5c0,0.9-0.1,1.5-0.2,1.8c-0.1,0.5-0.2,0.9-0.3,1.1c-0.2,0.3-0.4,0.6-0.7,1 c-0.3,0.2-0.6,0.3-1,0.3c-0.5,0-1-0.2-1.3-0.6c-0.1-0.1-0.4-0.5-0.7-1.2c-0.1-0.4-0.2-0.8-0.2-1.2c0-0.2,0.1-0.7,0.2-1.3 c0,0,0.1-0.2,0.1-0.6c0.4-1.2,0.8-2.2,1.3-3c0.4-0.6,0.5-0.8,0.5-0.9v0c0-0.2-0.2-0.4-0.5-0.8h0.1l-0.2,0.5 c-0.3,0.6-0.5,0.9-0.6,0.9c-0.2,0.1-0.4,0.2-0.6,0.2h-0.1c-0.4,0-0.8-0.2-1-0.7c-0.1-0.1-0.1-0.2-0.1-0.3v-0.1c0-0.7,0.3-1.4,1-1.9 C15,8.5,15.3,8.5,15.5,8.5z M14.3,10.5L14.3,10.5c0,0.4,0.1,0.6,0.3,0.7c0.1,0,0.2,0.1,0.3,0.1h0c0.3,0,0.6-0.3,0.8-0.9 c0-0.1,0.1-0.3,0.2-0.7c0-0.5-0.1-0.7-0.2-0.7c0,0,0,0-0.1,0h-0.1c-0.3,0-0.6,0.2-0.9,0.7C14.4,9.9,14.3,10.2,14.3,10.5z M15.3,16.6 c0,0.7,0.3,1.5,0.8,2.2c0.2,0.3,0.5,0.4,0.9,0.4c0.6,0,1-0.5,1.3-1.5c0.2-0.6,0.3-1.2,0.3-2c0-1.3-0.4-2.7-1.3-4.2 c0-0.1-0.1-0.1-0.1-0.1c-0.1,0-0.3,0.4-0.6,1.1c-0.4,0.7-0.6,1.4-0.9,2.1C15.4,15.5,15.3,16.2,15.3,16.6z M19.4,9.2L19.4,9.2 c0.2,0,0.3,0.2,0.3,0.3v0.1c-0.1,0.4-0.3,0.7-0.4,0.8c-0.2,0.3-0.3,0.6-0.3,0.8c0,0.1,0.1,0.2,0.3,0.2c0.5,0,1.2-0.4,2.1-1.2 c0.1-0.1,0.1-0.1,0.3-0.2c0.2-0.2,0.4-0.4,0.7-0.7h0.2c0.2,0,0.2,0.1,0.2,0.2l0,0c0,0.1-0.1,0.3-0.4,0.5c-0.1,0.2-0.3,0.3-0.5,0.5 c-1,0.9-1.8,1.4-2.5,1.4c-0.5,0-0.8-0.2-0.8-0.7c0-0.2,0.1-0.5,0.2-0.9c0.3-0.7,0.5-1.1,0.5-1.1C19.2,9.2,19.3,9.2,19.4,9.2z  M20.6,7.3c0.1,0,0.2,0.1,0.2,0.3c0,0.2-0.1,0.4-0.4,0.5c0,0-0.1,0-0.3,0.1c-0.2,0-0.4-0.2-0.4-0.3c0-0.2,0.2-0.4,0.6-0.5 C20.4,7.3,20.5,7.3,20.6,7.3z M24.1,8.1l0.2,0c0.3,0,0.5,0.1,0.7,0.4c0,0.1,0.1,0.4,0.2,0.9c0.2,0.5,0.6,0.7,1.1,0.7 c0.5,0,1-0.3,1.6-0.9c0.1,0,0.2,0,0.3,0c0.1,0.1,0.2,0.1,0.2,0.2c0,0.1-0.1,0.3-0.4,0.5c-0.3,0.3-0.8,0.5-1.3,0.7 c-0.1,0-0.2,0-0.3,0h-0.1c-0.7,0-1.2-0.3-1.6-1l0,0c0,0-0.1,0.2-0.3,0.5C24,10.7,23.6,11,23.1,11h0c-0.4,0-0.6-0.2-0.8-0.6 c0-0.1-0.1-0.2-0.1-0.3c0-0.5,0.2-0.9,0.7-1.4C23.2,8.3,23.6,8.1,24.1,8.1z M22.7,10c0,0.3,0.1,0.4,0.4,0.5h0.1 c0.4,0,0.8-0.4,1.2-1.2c0.1-0.3,0.2-0.5,0.2-0.6V8.6c0,0-0.1,0-0.3,0c-0.6,0-1,0.3-1.3,0.8C22.8,9.6,22.7,9.8,22.7,10z M28.3,9 c0.1,0,0.2,0.1,0.2,0.2v0c0,0-0.1,0.3-0.3,0.7C28,10.2,28,10.4,28,10.4v-0.1c0,0,0-0.1,0.3-0.3c0.3-0.2,0.5-0.2,0.6-0.2H29 c0.4,0,0.6,0.2,0.7,0.7c0,0,0,0,0,0h0c0,0,0.1-0.1,0.2-0.4c0.3-0.2,0.5-0.3,0.7-0.3c0.3,0,0.6,0.2,0.8,0.6c0.1,0.2,0.2,0.3,0.4,0.5 c0.3,0.2,0.6,0.4,0.8,0.4h0c0.5,0,0.9-0.2,1.3-0.6c0.4-0.3,0.6-0.6,0.7-0.8c0.2-0.3,0.4-0.5,0.5-0.5h0c0.1,0,0.2,0.1,0.3,0.2 c-0.1,0.3-0.4,0.8-0.9,1.2c-0.7,0.6-1.3,1-1.7,1h-0.2c-0.5,0-1-0.3-1.5-0.8c-0.3-0.4-0.4-0.6-0.5-0.6h0c-0.2,0-0.4,0.3-0.6,0.8 c-0.2,0.4-0.3,0.6-0.4,0.6l-0.1,0c-0.2,0-0.3-0.3-0.4-0.8c-0.1-0.4-0.1-0.6-0.2-0.6c0,0,0,0,0,0h0c-0.3,0-0.7,0.5-1.5,1.6 c-0.1,0.2-0.3,0.2-0.3,0.2h0c-0.2,0-0.3-0.1-0.3-0.3c0.3-0.8,0.6-1.6,1-2.4C28,9.1,28.1,9,28.3,9z"/>
</svg>