<svg xmlns="http://www.w3.org/2000/svg" viewBox="0 0 100 100" width="300" height="300">
	<linearGradient id="gradient" gradientUnits="userSpaceOnUse" x1="3.365130e-09" y1="100" x2="100" y2="3.366893e-09">
		<stop offset="0" style="stop-color:#0853c3"/>
		<stop offset="1" style="stop-color:#0d6efd"/>
	</linearGradient>
	<rect fill="url(#gradient)" x="0" width="100" height="100"/>
	<path fill="#fff" d="M58.3,36.7v10L55,43.3l-3.3,3.3v-10H45v26.7h16.7V36.7H58.3 M35,41.7v-3.3h3.3v-1.7c0-1.9,1.5-3.3,3.3-3.3h20 c1.7,0,3.3,1.6,3.3,3.3v26.7c0,1.7-1.6,3.3-3.3,3.3h-20c-1.8,0-3.3-1.6-3.3-3.3v-1.7H35v-3.3h3.3v-6.7H35v-3.3h3.3v-6.7H35 M38.3,38.3v3.3h3.3v-3.3H38.3 M38.3,61.7h3.3v-3.3h-3.3V61.7 M38.3,51.7h3.3v-3.3h-3.3V51.7z"/>
</svg>