<svg xmlns="http://www.w3.org/2000/svg" viewBox="0 0 400 100">
	<title>BPOM Logotype</title>
	<path fill="#004282" d="M27.1,48.3h4.5c2.2,0,3.9-0.5,5.1-1.6c1.2-1.1,1.9-2.5,1.9-4.4c0-1.8-0.6-3.2-1.8-4.2s-2.9-1.5-5.2-1.5h-4.5 V48.3L27.1,48.3z M27.1,29h3.6c2.1,0,3.8-0.5,5-1.4s1.8-2.2,1.8-3.9s-0.6-2.9-1.7-3.7c-1.1-0.8-2.9-1.2-5.3-1.2h-3.3V29 C27.2,29,27.1,29,27.1,29z M17.2,56.5V11h14c5.3,0,9.3,1,12,2.9s4.1,4.8,4.1,8.6c0,2.3-0.6,4.3-1.9,5.9c-1.2,1.6-3.1,2.9-5.6,3.8 c2.8,0.6,4.9,1.9,6.5,3.9s2.4,4.3,2.4,7.2c0,4.4-1.6,7.7-4.8,9.9c-3.2,2.2-8,3.3-14.3,3.3L17.2,56.5L17.2,56.5z M65.5,42.1h11.9 l-5.9-14.2L65.5,42.1L65.5,42.1z M48.5,56.5L71.7,9.6h0.7l22.7,46.9H83.7l-2.9-6.6H62.3l-2.9,6.6H48.5L48.5,56.5z M108.2,46.7h2.4 c4.7,0,8.5-1.1,11.1-3.4c2.7-2.3,4-5.5,4-9.5c0-4.1-1.3-7.2-4-9.6c-2.7-2.3-6.4-3.5-11.1-3.5h-2.4V46.7L108.2,46.7z M97.5,56.5V11 h12.1c8.5,0,15.1,2,19.9,6.1c4.8,4.1,7.2,9.6,7.2,16.6c0,4.2-1,8-2.9,11.2c-1.9,3.3-4.7,6-8.4,8.1c-2.1,1.2-4.4,2.1-6.8,2.6 c-2.5,0.5-5.5,0.8-9.1,0.8h-12V56.5z M153.2,42.1h11.9l-5.8-14.3L153.2,42.1L153.2,42.1z M136.2,56.5l23.2-46.9h0.7l22.7,46.9h-11.4 l-2.9-6.6h-18.4l-2.9,6.6H136.2L136.2,56.5z M185.2,56.5V9.6h1l28.3,26.5v-25h10v47.2h-0.9l-28.4-26.5v24.8L185.2,56.5L185.2,56.5z" />
	<path fill="#00A651" d="M257.9,19.4h-1.5v12.1h2c2.7,0,4.8-0.5,6.3-1.6c1.4-1.1,2.2-2.6,2.2-4.6c0-2.1-0.7-3.6-2.1-4.5 C263.3,19.9,261,19.4,257.9,19.4L257.9,19.4z M245.6,56.5V11h11.7c3.6,0,6.5,0.3,8.6,0.8s4,1.4,5.6,2.6c1.7,1.2,3,2.8,3.9,4.6 c0.9,1.9,1.4,3.8,1.4,5.9c0,4.6-1.6,8.2-4.9,10.9s-7.7,4-13.3,4c-0.6,0-1,0-1.3,0s-0.6,0-0.8-0.1v16.6h-10.9L245.6,56.5L245.6,56.5z  M290.9,33.8c0,3.9,1.2,7.3,3.5,9.9c2.3,2.7,5.2,4,8.5,4c3.4,0,6.3-1.3,8.6-4c2.3-2.7,3.4-6,3.4-10s-1.1-7.3-3.4-10s-5.2-4-8.6-4 s-6.2,1.3-8.5,4C292,26.4,290.9,29.8,290.9,33.8L290.9,33.8z M279.7,33.8c0-3.4,0.6-6.5,1.7-9.4c1.2-2.9,2.9-5.6,5.1-7.9 c2.1-2.2,4.6-3.9,7.4-5.1c2.8-1.2,5.8-1.8,8.9-1.8s6.1,0.6,8.9,1.8s5.3,2.9,7.5,5.1c2.2,2.2,3.9,4.8,5,7.8c1.1,2.9,1.7,6.1,1.7,9.5 c0,2.8-0.4,5.5-1.2,8c-0.8,2.5-2,4.8-3.6,6.9c-2.2,2.9-4.9,5.2-8.2,6.9c-3.2,1.6-6.7,2.5-10.3,2.5c-3.1,0-6-0.6-8.8-1.8 c-2.8-1.2-5.3-2.9-7.5-5.1c-2.3-2.3-4-4.9-5.1-7.9C280.3,40.3,279.7,37.1,279.7,33.8L279.7,33.8z M329,56.5l9.4-46.9h0.8l17.1,29.6 l16.2-29.6h0.8l9.5,46.9h-10.3l-3.9-20.8l-12.2,22.4h-0.7l-13.1-22.7l-4,21.1H329L329,56.5z"/>
	<path fill="#231F20" d="M47.8,78.8C47.7,78.8,47.7,78.9,47.8,78.8c0.7,0.5,1.3,0.8,1.7,1.4c0.4,0.6,0.6,1.3,0.6,2.1 c0,1.2-0.4,2.1-1.2,2.9s-1.8,1.1-3.1,1.1h-5c-0.1,0-0.2-0.1-0.2-0.2V72c0-0.1,0.1-0.2,0.2-0.2h4.9c1.3,0,2.4,0.4,3.1,1 c0.7,0.7,1.2,1.6,1.2,2.7c0,0.7-0.2,1.4-0.6,1.9C49,78.2,48.4,78.5,47.8,78.8L47.8,78.8z M42.1,73.2C41.9,73.2,41.9,73.2,42.1,73.2 l-0.1,5c0,0,0,0.1,0.1,0.1h3.5c0.8,0,1.6-0.2,2-0.7s0.7-1.1,0.7-1.8c0-0.8-0.2-1.4-0.7-1.9s-1.2-0.7-2-0.7H42.1L42.1,73.2z M45.6,85 c0.8,0,1.6-0.2,2-0.7s0.7-1.2,0.7-2s-0.2-1.6-0.8-2c-0.6-0.5-1.2-0.7-2.1-0.7h-3.6c0,0-0.1,0-0.1,0.1v5.4c0,0,0,0.1,0.1,0.1h3.8 L45.6,85L45.6,85z M56.9,75.7c1.2,0,2.1,0.4,2.9,1c0.7,0.6,1,1.4,1,2.5v6.9c0,0.1-0.1,0.2-0.2,0.2h-1.1c-0.1,0-0.2-0.1-0.2-0.2v-0.8 c0,0,0,0,0-0.1c0,0,0,0-0.1,0c-0.4,0.4-0.8,0.7-1.3,1c-0.6,0.2-1.2,0.4-1.8,0.4c-1,0-1.8-0.2-2.5-0.7s-1-1.2-1-2.3 c0-1.1,0.4-1.8,1.1-2.4c0.7-0.6,1.8-1,3.1-1h2.4c0,0,0.1,0,0.1-0.1v-0.8c0-0.7-0.2-1.3-0.6-1.7c-0.4-0.4-1-0.6-1.8-0.6 c-0.7,0-1.2,0.1-1.6,0.4c-0.4,0.2-0.7,0.6-0.7,1.1c0,0.1-0.1,0.2-0.2,0.2l-1.1-0.1c-0.1,0-0.2-0.1-0.2-0.1c0.1-0.7,0.5-1.4,1.2-1.9 S55.8,75.7,56.9,75.7L56.9,75.7z M56.3,85.2c0.8,0,1.6-0.2,2.1-0.6c0.6-0.4,0.8-1,0.8-1.7v-1.6c0,0,0-0.1-0.1-0.1H57 c-1,0-1.7,0.2-2.1,0.6c-0.6,0.4-0.8,0.8-0.8,1.6c0,0.6,0.2,1.1,0.6,1.3C55.1,85.1,55.5,85.2,56.3,85.2L56.3,85.2z M70.5,72.1 c0-0.1,0.1-0.2,0.2-0.2h1.1c0.1,0,0.2,0.1,0.2,0.2v14.1c0,0.1-0.1,0.2-0.2,0.2h-1.1c-0.1,0-0.2-0.1-0.2-0.2v-0.8l0,0c0,0,0,0-0.1,0 c-0.4,0.4-0.7,0.7-1.1,1c-0.5,0.2-1,0.4-1.6,0.4c-1,0-1.8-0.2-2.4-0.7s-1.1-1.2-1.3-2c-0.2-0.6-0.2-1.6-0.2-2.6c0-1.2,0.1-2,0.2-2.5 c0.2-0.8,0.7-1.6,1.3-2c0.7-0.5,1.4-0.7,2.5-0.7c0.5,0,1.1,0.1,1.4,0.4c0.5,0.2,0.8,0.5,1.2,1c0,0,0,0,0.1,0l0,0v-5.3h0V72.1z  M70.1,83.7c0.1-0.2,0.2-0.6,0.2-1s0.1-0.8,0.1-1.6c0-0.7,0-1.2-0.1-1.6c0-0.4-0.1-0.7-0.2-1c-0.1-0.5-0.5-0.8-0.8-1.1 c-0.4-0.2-0.8-0.5-1.3-0.5c-0.6,0-1.1,0.1-1.4,0.4c-0.4,0.2-0.7,0.6-0.8,1.1c-0.1,0.4-0.2,0.6-0.4,1.1c-0.1,0.4-0.1,1-0.1,1.6 s0,1.2,0.1,1.6c0,0.4,0.1,0.7,0.2,1c0.1,0.5,0.5,0.8,0.8,1.2c0.5,0.2,1,0.5,1.6,0.5s1-0.1,1.4-0.5C69.6,84.5,69.9,84.1,70.1,83.7 L70.1,83.7z M79.1,75.7c1.2,0,2.1,0.4,2.9,1c0.7,0.6,1,1.4,1,2.5v6.9c0,0.1-0.1,0.2-0.2,0.2h-1.2c-0.1,0-0.2-0.1-0.2-0.2v-0.8 c0,0,0,0,0-0.1c0,0,0,0-0.1,0c-0.4,0.4-0.8,0.7-1.3,1c-0.6,0.2-1.2,0.4-1.8,0.4c-1,0-1.8-0.2-2.5-0.7s-1-1.2-1-2.3 c0-1.1,0.4-1.8,1.1-2.4c0.7-0.6,1.8-1,3.1-1h2.4c0,0,0.1,0,0.1-0.1v-0.8c0-0.7-0.2-1.3-0.6-1.7c-0.4-0.4-1-0.6-1.8-0.6 c-0.7,0-1.2,0.1-1.6,0.4c-0.4,0.2-0.7,0.6-0.7,1.1c0,0.1-0.1,0.2-0.2,0.2l-1.1-0.1c-0.1,0-0.2-0.1-0.2-0.1c0.1-0.7,0.5-1.4,1.2-1.9 C77,75.9,78,75.7,79.1,75.7L79.1,75.7z M78.5,85.2c0.8,0,1.6-0.2,2.1-0.6c0.6-0.4,0.8-1,0.8-1.7v-1.6c0,0,0-0.1-0.1-0.1h-2.1 c-1,0-1.7,0.2-2.1,0.6c-0.6,0.4-0.8,0.8-0.8,1.6c0,0.6,0.2,1.1,0.6,1.3C77.3,85.1,77.7,85.2,78.5,85.2L78.5,85.2z M90.5,75.8 c1.1,0,2,0.4,2.6,1s1,1.6,1,2.6v6.8c0,0.1-0.1,0.2-0.2,0.2h-1.1c-0.1,0-0.2-0.1-0.2-0.2v-6.6c0-0.7-0.2-1.4-0.7-1.9S90.8,77,90.1,77 s-1.3,0.2-1.8,0.7s-0.7,1.1-0.7,1.8v6.6c0,0.1-0.1,0.2-0.2,0.2h-1.1c-0.1,0-0.2-0.1-0.2-0.2v-10c0-0.1,0.1-0.2,0.2-0.2h1.1 c0.1,0,0.2,0.1,0.2,0.2v0.8c0,0,0,0,0,0.1l0,0C88.4,76.1,89.2,75.8,90.5,75.8L90.5,75.8z M107.3,71.8c1.2,0,2.1,0.4,2.9,1.1 s1.1,1.7,1.1,3c0,1.2-0.4,2.1-1.1,2.9c-0.7,0.7-1.8,1.1-3,1.1h-4.1c0,0-0.1,0-0.1,0.1v6.2c0,0.1-0.1,0.2-0.2,0.2h-1.1 c-0.1,0-0.2-0.1-0.2-0.2V72.1c0-0.1,0.1-0.2,0.2-0.2L107.3,71.8L107.3,71.8z M107.2,78.6c0.8,0,1.4-0.2,2-0.7c0.5-0.5,0.7-1.2,0.7-2 s-0.2-1.6-0.7-2c-0.5-0.5-1.2-0.7-2-0.7h-3.9c0,0-0.1,0-0.1,0.1v5.4c0,0,0,0.1,0.1,0.1h3.9V78.6z M121.7,79.4c0,0.4,0.1,0.8,0.1,1.4 v0.7c0,0.1-0.1,0.2-0.2,0.2h-6.7c0,0-0.1,0-0.1,0.1c0,0.7,0.1,1.2,0.1,1.4c0.1,0.6,0.5,1.1,1,1.4c0.5,0.4,1.1,0.5,1.9,0.5 c0.6,0,1.1-0.1,1.6-0.4c0.5-0.2,0.8-0.6,1.1-1.1c0.1-0.1,0.1-0.1,0.2-0.1l0.8,0.5c0.1,0.1,0.1,0.1,0.1,0.2c-0.4,0.7-0.8,1.2-1.6,1.6 c-0.7,0.4-1.4,0.6-2.4,0.6s-1.8-0.2-2.5-0.7s-1.2-1.1-1.4-1.9c-0.2-0.7-0.4-1.6-0.4-2.9c0-0.6,0-1.1,0-1.4s0.1-0.7,0.1-1 c0.2-0.8,0.7-1.6,1.4-2.1s1.6-0.8,2.6-0.8c1.2,0,2.3,0.4,2.9,1C121.1,77.3,121.6,78.2,121.7,79.4L121.7,79.4z M117.5,77 c-0.7,0-1.2,0.1-1.7,0.5s-0.7,0.8-0.8,1.4c-0.1,0.2-0.1,0.7-0.1,1.4c0,0,0,0.1,0.1,0.1h5.4c0,0,0.1,0,0.1-0.1c0-0.6-0.1-1.1-0.1-1.3 c-0.1-0.6-0.5-1.1-1-1.4C118.8,77.2,118.2,77,117.5,77L117.5,77z M129.2,75.8c1.1,0,2,0.4,2.6,1s1,1.6,1,2.6v6.8 c0,0.1-0.1,0.2-0.2,0.2h-1.1c-0.1,0-0.2-0.1-0.2-0.2v-6.6c0-0.7-0.2-1.4-0.7-1.9s-1.1-0.7-1.8-0.7s-1.3,0.2-1.8,0.7 s-0.7,1.1-0.7,1.8v6.6c0,0.1-0.1,0.2-0.2,0.2H125c-0.1,0-0.2-0.1-0.2-0.2v-10c0-0.1,0.1-0.2,0.2-0.2h1.1c0.1,0,0.2,0.1,0.2,0.2v0.8 c0,0,0,0,0,0.1l0,0C127,76.1,127.9,75.8,129.2,75.8L129.2,75.8z M142.6,76.1c0-0.1,0.1-0.2,0.2-0.2h1.1c0.1,0,0.2,0.1,0.2,0.2V86 c0,1.6-0.5,2.6-1.3,3.3c-0.8,0.7-2.1,1.1-3.7,1.1c-0.4,0-0.6,0-0.7,0s-0.2-0.1-0.2-0.2v-1c0-0.1,0-0.1,0.1-0.1h0.1h0.6 c1.3,0,2.1-0.2,2.7-0.7c0.6-0.5,0.8-1.3,0.8-2.4v-0.7l0,0c0,0,0,0-0.1,0c-0.6,0.8-1.6,1.2-2.7,1.2c-0.8,0-1.7-0.2-2.4-0.7 s-1.2-1.2-1.4-2c-0.1-0.6-0.2-1.4-0.2-2.5c0-0.6,0-1.1,0-1.6c0-0.4,0.1-0.8,0.2-1.1c0.2-0.8,0.7-1.4,1.3-2c0.6-0.5,1.4-0.7,2.4-0.7 c1.2,0,2.1,0.4,2.7,1.2c0,0,0,0,0.1,0c0,0,0,0,0-0.1v-0.8h0.2V76.1z M142.6,83.2c0-0.2,0.1-0.5,0.1-0.7c0-0.4,0-0.7,0-1.3 c0-0.7,0-1.2,0-1.4s0-0.5-0.1-0.7c-0.1-0.6-0.4-1.1-0.8-1.4c-0.5-0.4-1-0.6-1.7-0.6c-0.6,0-1.2,0.2-1.7,0.6s-0.7,0.8-1,1.4 c-0.1,0.5-0.2,1.1-0.2,2c0,1,0.1,1.7,0.2,2c0.1,0.6,0.5,1.1,1,1.4c0.5,0.4,1.1,0.6,1.7,0.6c0.7,0,1.2-0.2,1.7-0.6 C142.1,84.3,142.4,83.8,142.6,83.2L142.6,83.2z M151,75.7c1.2,0,2.1,0.4,2.9,1c0.7,0.6,1,1.4,1,2.5v6.9c0,0.1-0.1,0.2-0.2,0.2h-1.1 c-0.1,0-0.2-0.1-0.2-0.2v-0.8c0,0,0,0,0-0.1c0,0,0,0-0.1,0c-0.4,0.4-0.8,0.7-1.3,1c-0.6,0.2-1.2,0.4-1.8,0.4c-1,0-1.8-0.2-2.5-0.7 s-1-1.2-1-2.3c0-1.1,0.4-1.8,1.1-2.4c0.7-0.6,1.8-1,3.1-1h2.4c0,0,0.1,0,0.1-0.1v-0.8c0-0.7-0.2-1.3-0.6-1.7c-0.4-0.4-1-0.6-1.8-0.6 c-0.7,0-1.2,0.1-1.6,0.4c-0.4,0.2-0.7,0.6-0.7,1.1c0,0.1-0.1,0.2-0.2,0.2l-1.1-0.1c-0.1,0-0.2-0.1-0.2-0.1c0.1-0.7,0.5-1.4,1.2-1.9 C149,75.9,150,75.7,151,75.7L151,75.7z M150.4,85.2c0.8,0,1.6-0.2,2.1-0.6c0.6-0.4,0.8-1,0.8-1.7v-1.6c0,0,0-0.1-0.1-0.1h-2.1 c-1,0-1.7,0.2-2.1,0.6c-0.6,0.4-0.8,0.8-0.8,1.6c0,0.6,0.2,1.1,0.6,1.3C149.3,85.1,149.7,85.2,150.4,85.2L150.4,85.2z M160.2,86.3 c-0.1,0-0.2,0-0.2-0.1l-3-10v-0.1c0-0.1,0.1-0.1,0.2-0.1h1.1c0.1,0,0.2,0.1,0.2,0.2l2.1,8.1l0,0l0,0l2.3-8.1c0-0.1,0.1-0.2,0.2-0.2 h1c0.1,0,0.2,0,0.2,0.1l2.3,8.1c0,0,0,0,0.1,0c0,0,0,0,0.1,0l2.3-8.1c0-0.1,0.1-0.2,0.2-0.2h1.1c0.1,0,0.1,0,0.1,0.1v0.1l-3,10 c0,0.1-0.1,0.1-0.2,0.1h-1.1c-0.1,0-0.2,0-0.2-0.1l-2.3-7.8l0,0l0,0l-2.1,7.8c0,0.1-0.1,0.1-0.2,0.1L160.2,86.3L160.2,86.3 L160.2,86.3z M176.5,75.7c1.2,0,2.1,0.4,2.9,1c0.7,0.6,1,1.4,1,2.5v6.9c0,0.1-0.1,0.2-0.2,0.2h-1c-0.1,0-0.2-0.1-0.2-0.2v-0.8 c0,0,0,0,0-0.1c0,0,0,0-0.1,0c-0.4,0.4-0.8,0.7-1.3,1c-0.6,0.2-1.2,0.4-1.8,0.4c-1,0-1.8-0.2-2.5-0.7s-1-1.2-1-2.3 c0-1.1,0.4-1.8,1.1-2.4s1.8-1,3.1-1h2.4c0,0,0.1,0,0.1-0.1v-0.8c0-0.7-0.2-1.3-0.6-1.7c-0.4-0.4-1-0.6-1.8-0.6 c-0.7,0-1.2,0.1-1.6,0.4c-0.4,0.2-0.7,0.6-0.7,1.1c0,0.1-0.1,0.2-0.2,0.2l-1.1-0.1c-0.1,0-0.2-0.1-0.2-0.1c0.1-0.7,0.5-1.4,1.2-1.9 C174.6,75.9,175.4,75.7,176.5,75.7L176.5,75.7z M175.9,85.2c0.8,0,1.6-0.2,2.1-0.6c0.6-0.4,0.8-1,0.8-1.7v-1.6c0,0,0-0.1-0.1-0.1h-2 c-1,0-1.7,0.2-2.1,0.6c-0.6,0.4-0.8,0.8-0.8,1.6c0,0.6,0.2,1.1,0.6,1.3C174.7,85.1,175.3,85.2,175.9,85.2L175.9,85.2z M187.1,86.4 c-0.7,0-1.4-0.1-2-0.4c-0.6-0.2-1.1-0.6-1.4-1c-0.4-0.4-0.5-0.8-0.5-1.4v-0.2c0-0.1,0.1-0.2,0.2-0.2h1c0.1,0,0.2,0.1,0.2,0.2v0.1 c0,0.5,0.2,0.8,0.7,1.2c0.5,0.4,1.1,0.5,1.8,0.5c0.7,0,1.3-0.1,1.8-0.5s0.7-0.7,0.7-1.2c0-0.4-0.1-0.6-0.4-0.8 c-0.2-0.2-0.5-0.4-0.8-0.5c-0.4-0.1-0.8-0.2-1.4-0.5c-0.7-0.2-1.4-0.5-1.9-0.7s-1-0.5-1.2-1c-0.4-0.4-0.5-0.8-0.5-1.6 c0-0.8,0.4-1.6,1.1-2.1s1.6-0.8,2.7-0.8c0.7,0,1.4,0.1,2,0.4c0.6,0.2,1.1,0.6,1.3,1.1c0.4,0.5,0.5,1,0.5,1.4v0.1 c0,0.1-0.1,0.2-0.2,0.2h-1c-0.1,0-0.2-0.1-0.2-0.2v-0.1c0-0.5-0.2-0.8-0.7-1.2c-0.5-0.4-1.1-0.5-1.8-0.5c-0.7,0-1.3,0.1-1.7,0.5 c-0.5,0.2-0.6,0.7-0.6,1.2s0.2,0.8,0.6,1.1c0.4,0.2,1.1,0.5,1.9,0.7s1.4,0.5,1.9,0.7s1,0.5,1.3,1c0.4,0.4,0.5,1,0.5,1.6 c0,0.8-0.4,1.6-1.1,2.1C189.1,86.2,188.2,86.4,187.1,86.4L187.1,86.4z M202.6,86.5c-1,0-1.8-0.2-2.6-0.6c-0.7-0.4-1.3-1-1.7-1.7 c-0.4-0.7-0.6-1.6-0.6-2.5v-5.3c0-1,0.2-1.8,0.6-2.5s1-1.3,1.7-1.7c0.7-0.4,1.6-0.6,2.6-0.6s1.8,0.2,2.6,0.6c0.7,0.4,1.3,1,1.8,1.7 c0.4,0.7,0.6,1.6,0.6,2.5v5.3c0,1-0.2,1.8-0.6,2.5s-1,1.3-1.8,1.7C204.5,86.3,203.6,86.5,202.6,86.5L202.6,86.5z M202.6,85.2 c1.1,0,1.9-0.4,2.5-1s1-1.4,1-2.5v-5.3c0-1.1-0.4-1.9-1-2.5s-1.4-1-2.5-1s-1.9,0.4-2.5,1s-1,1.4-1,2.5v5.3c0,1.1,0.4,1.9,1,2.5 C200.8,84.9,201.7,85.2,202.6,85.2L202.6,85.2z M219,78.5c0.1,0.6,0.2,1.4,0.2,2.5s-0.1,2-0.2,2.6c-0.2,0.8-0.7,1.6-1.3,2 c-0.6,0.5-1.4,0.7-2.4,0.7c-0.6,0-1.1-0.1-1.6-0.4c-0.5-0.2-0.8-0.5-1.2-1c0,0,0,0-0.1,0l0,0v0.8c0,0.1-0.1,0.2-0.2,0.2h-1.1 c-0.1,0-0.2-0.1-0.2-0.2V71.6c0-0.1,0.1-0.2,0.2-0.2h1.1c0.1,0,0.2,0.1,0.2,0.2v4.9l0,0c0,0,0,0,0.1,0c0.4-0.4,0.7-0.7,1.2-1 c0.5-0.2,1-0.4,1.6-0.4c1,0,1.8,0.2,2.5,0.7C218.2,77,218.7,77.7,219,78.5L219,78.5z M217.4,83.5c0.1-0.2,0.2-0.6,0.2-1 s0.1-0.8,0.1-1.6c0-0.7,0-1.2-0.1-1.6s-0.2-0.7-0.4-1.1c-0.1-0.5-0.5-0.8-0.8-1.1c-0.4-0.2-0.8-0.4-1.4-0.4c-0.5,0-1,0.1-1.3,0.5 c-0.4,0.2-0.6,0.7-0.8,1.1c-0.1,0.2-0.2,0.6-0.4,1c-0.1,0.4-0.1,0.8-0.1,1.6c0,0.7,0,1.2,0.1,1.6s0.1,0.7,0.2,1 c0.1,0.5,0.5,0.8,0.8,1.2c0.4,0.2,0.8,0.5,1.4,0.5s1.1-0.1,1.6-0.5C216.9,84.5,217.2,84.1,217.4,83.5L217.4,83.5z M226,75.7 c1.2,0,2.1,0.4,2.9,1c0.7,0.6,1,1.4,1,2.5v6.9c0,0.1-0.1,0.2-0.2,0.2h-1.1c-0.1,0-0.2-0.1-0.2-0.2v-0.8c0,0,0,0,0-0.1c0,0,0,0-0.1,0 c-0.4,0.4-0.8,0.7-1.3,1c-0.6,0.2-1.2,0.4-1.8,0.4c-1,0-1.8-0.2-2.5-0.7s-1-1.2-1-2.3c0-1.1,0.4-1.8,1.1-2.4s1.8-1,3.1-1h2.4 c0,0,0.1,0,0.1-0.1v-0.8c0-0.7-0.2-1.3-0.6-1.7c-0.4-0.4-1-0.6-1.8-0.6c-0.7,0-1.2,0.1-1.6,0.4c-0.4,0.2-0.7,0.6-0.7,1.1 c0,0.1-0.1,0.2-0.2,0.2l-1.1-0.1c-0.1,0-0.2-0.1-0.2-0.1c0.1-0.7,0.5-1.4,1.2-1.9C224,75.9,224.9,75.7,226,75.7L226,75.7z  M225.4,85.2c0.8,0,1.6-0.2,2.1-0.6c0.6-0.4,0.8-1,0.8-1.7v-1.6c0,0,0-0.1-0.1-0.1h-2.1c-1,0-1.7,0.2-2.1,0.6 c-0.6,0.4-0.8,0.8-0.8,1.6c0,0.6,0.2,1.1,0.6,1.3C224.2,85.1,224.7,85.2,225.4,85.2L225.4,85.2z M237.7,76.9c0,0.1-0.1,0.2-0.2,0.2 h-2.4c0,0-0.1,0-0.1,0.1v6.1c0,0.7,0.1,1.1,0.5,1.4c0.2,0.2,0.7,0.4,1.4,0.4h0.5c0.1,0,0.2,0.1,0.2,0.2v0.8c0,0.1-0.1,0.2-0.2,0.2 s-0.5,0-0.7,0c-1,0-1.8-0.2-2.3-0.6s-0.7-1.1-0.7-2v-6.6c0,0,0-0.1-0.1-0.1h-1.3c-0.1,0-0.2-0.1-0.2-0.2V76c0-0.1,0.1-0.2,0.2-0.2 h1.3c0,0,0.1,0,0.1-0.1v-2.4c0-0.1,0.1-0.2,0.2-0.2h1c0.1,0,0.2,0.1,0.2,0.2v2.4c0,0,0,0.1,0.1,0.1h2.4c0.1,0,0.2,0.1,0.2,0.2v0.8 L237.7,76.9L237.7,76.9z M251.3,72.1c0-0.1,0.1-0.2,0.2-0.2h1.1c0.1,0,0.2,0.1,0.2,0.2v14.1c0,0.1-0.1,0.2-0.2,0.2h-1 c-0.1,0-0.2-0.1-0.2-0.2v-0.8l0,0c0,0,0,0-0.1,0c-0.4,0.4-0.7,0.7-1.1,1c-0.5,0.2-1,0.4-1.6,0.4c-1,0-1.8-0.2-2.4-0.7 s-1.1-1.2-1.3-2c-0.2-0.6-0.2-1.6-0.2-2.6c0-1.2,0.1-2,0.2-2.5c0.2-0.8,0.7-1.6,1.3-2c0.7-0.5,1.4-0.7,2.5-0.7 c0.5,0,1.1,0.1,1.4,0.4c0.5,0.2,0.8,0.5,1.2,1c0,0,0,0,0.1,0l0,0v-5.3h-0.1V72.1z M251,83.7c0.1-0.2,0.2-0.6,0.2-1s0.1-0.8,0.1-1.6 c0-0.7,0-1.2-0.1-1.6c0-0.4-0.1-0.7-0.2-1c-0.1-0.5-0.5-0.8-0.8-1.1c-0.4-0.2-0.8-0.5-1.3-0.5c-0.6,0-1.1,0.1-1.4,0.4 c-0.4,0.2-0.7,0.6-0.8,1.1c-0.1,0.4-0.2,0.6-0.4,1.1c-0.1,0.4-0.1,1-0.1,1.6s0,1.2,0.1,1.6c0,0.4,0.1,0.7,0.2,1 c0.1,0.5,0.5,0.8,0.8,1.2c0.5,0.2,1,0.5,1.6,0.5s1-0.1,1.4-0.5C250.6,84.5,250.8,84.1,251,83.7L251,83.7z M259.9,75.7 c1.2,0,2.1,0.4,2.9,1c0.7,0.6,1,1.4,1,2.5v6.9c0,0.1-0.1,0.2-0.2,0.2h-1.1c-0.1,0-0.2-0.1-0.2-0.2v-0.8c0,0,0,0,0-0.1c0,0,0,0-0.1,0 c-0.4,0.4-0.8,0.7-1.3,1c-0.6,0.2-1.2,0.4-1.8,0.4c-1,0-1.8-0.2-2.5-0.7c-0.7-0.5-1-1.2-1-2.3c0-1.1,0.4-1.8,1.1-2.4 c0.7-0.6,1.8-1,3.1-1h2.4c0,0,0.1,0,0.1-0.1v-0.8c0-0.7-0.2-1.3-0.6-1.7c-0.4-0.4-1-0.6-1.8-0.6c-0.7,0-1.2,0.1-1.6,0.4 c-0.4,0.2-0.7,0.6-0.7,1.1c0,0.1-0.1,0.2-0.2,0.2l-1.1-0.1c-0.1,0-0.2-0.1-0.2-0.1c0.1-0.7,0.5-1.4,1.2-1.9 C258,75.9,258.8,75.7,259.9,75.7L259.9,75.7z M259.4,85.2c0.8,0,1.6-0.2,2.1-0.6c0.6-0.4,0.8-1,0.8-1.7v-1.6c0,0,0-0.1-0.1-0.1h-2.1 c-1,0-1.7,0.2-2.1,0.6c-0.6,0.4-0.8,0.8-0.8,1.6c0,0.6,0.2,1.1,0.6,1.3C258.1,85.1,258.7,85.2,259.4,85.2L259.4,85.2z M271.5,75.8 c1.1,0,2,0.4,2.6,1c0.6,0.6,1,1.6,1,2.6v6.8c0,0.1-0.1,0.2-0.2,0.2h-1.1c-0.1,0-0.2-0.1-0.2-0.2v-6.6c0-0.7-0.2-1.4-0.7-1.9 s-1.1-0.7-1.8-0.7c-0.7,0-1.3,0.2-1.8,0.7s-0.7,1.1-0.7,1.8v6.6c0,0.1-0.1,0.2-0.2,0.2h-1.1c-0.1,0-0.2-0.1-0.2-0.2v-10 c0-0.1,0.1-0.2,0.2-0.2h1.1c0.1,0,0.2,0.1,0.2,0.2v0.8c0,0,0,0,0,0.1l0,0C269.2,76.1,270.2,75.8,271.5,75.8L271.5,75.8z M292.3,72 c0.1-0.1,0.1-0.1,0.2-0.1h1.1c0.1,0,0.2,0.1,0.2,0.2v14.1c0,0.1-0.1,0.2-0.2,0.2h-1.1c-0.1,0-0.2-0.1-0.2-0.2V74.7v-0.1 c0,0,0,0-0.1,0l-3.3,5.1c-0.1,0.1-0.1,0.1-0.2,0.1h-0.5c-0.1,0-0.1,0-0.2-0.1l-3.3-5.1c0,0,0,0-0.1,0c0,0,0,0,0,0.1v11.5 c0,0.1-0.1,0.2-0.2,0.2h-1.1c-0.1,0-0.2-0.1-0.2-0.2V72.1c0-0.1,0.1-0.2,0.2-0.2h1.1c0.1,0,0.2,0,0.2,0.1l3.8,5.8c0,0,0,0,0.1,0 c0,0,0,0,0.1,0L292.3,72L292.3,72z M301.1,75.7c1.2,0,2.1,0.4,2.9,1c0.7,0.6,1,1.4,1,2.5v6.9c0,0.1-0.1,0.2-0.2,0.2h-1.2 c-0.1,0-0.2-0.1-0.2-0.2v-0.8c0,0,0,0,0-0.1c0,0,0,0-0.1,0c-0.4,0.4-0.8,0.7-1.3,1c-0.6,0.2-1.2,0.4-1.8,0.4c-1,0-1.8-0.2-2.5-0.7 s-1-1.2-1-2.3c0-1.1,0.4-1.8,1.1-2.4s1.8-1,3.1-1h2.4c0,0,0.1,0,0.1-0.1v-0.8c0-0.7-0.2-1.3-0.6-1.7c-0.4-0.4-1-0.6-1.8-0.6 c-0.7,0-1.2,0.1-1.6,0.4c-0.4,0.2-0.7,0.6-0.7,1.1c0,0.1-0.1,0.2-0.2,0.2l-1.1-0.1c-0.1,0-0.2-0.1-0.2-0.1c0.1-0.7,0.5-1.4,1.2-1.9 C299.2,75.9,300,75.7,301.1,75.7L301.1,75.7z M300.5,85.2c0.8,0,1.6-0.2,2.1-0.6c0.6-0.4,0.8-1,0.8-1.7v-1.6c0,0,0-0.1-0.1-0.1h-2.1 c-1,0-1.7,0.2-2.1,0.6c-0.6,0.4-0.8,0.8-0.8,1.6c0,0.6,0.2,1.1,0.6,1.3C299.3,85.1,299.9,85.2,300.5,85.2L300.5,85.2z M308.5,86.3 c-0.1,0-0.2-0.1-0.2-0.2V72c0-0.1,0.1-0.2,0.2-0.2h1.1c0.1,0,0.2,0.1,0.2,0.2v8.5c0,0,0,0,0,0.1c0,0,0,0,0.1,0l4.4-4.5 c0.1-0.1,0.1-0.1,0.2-0.1h1.2c0.1,0,0.1,0,0.1,0.1v0.1l-2.6,3v0.1l3.1,6.9v0.1c0,0.1-0.1,0.1-0.2,0.1H315c-0.1,0-0.2,0-0.2-0.1 l-2.6-6c0,0-0.1-0.1-0.1,0l-2.3,2.4v0.1v3.5c0,0.1-0.1,0.2-0.2,0.2h-1.1V86.3z M322.2,75.7c1.2,0,2.1,0.4,2.9,1c0.7,0.6,1,1.4,1,2.5 v6.9c0,0.1-0.1,0.2-0.2,0.2h-1.1c-0.1,0-0.2-0.1-0.2-0.2v-0.8c0,0,0,0,0-0.1c0,0,0,0-0.1,0c-0.4,0.4-0.8,0.7-1.3,1 c-0.6,0.2-1.2,0.4-1.8,0.4c-1,0-1.8-0.2-2.5-0.7s-1-1.2-1-2.3c0-1.1,0.4-1.8,1.1-2.4s1.8-1,3.1-1h2.4c0,0,0.1,0,0.1-0.1v-0.8 c0-0.7-0.2-1.3-0.6-1.7c-0.4-0.4-1-0.6-1.8-0.6c-0.7,0-1.2,0.1-1.6,0.4c-0.4,0.2-0.7,0.6-0.7,1.1c0,0.1-0.1,0.2-0.2,0.2l-1.1-0.1 c-0.1,0-0.2-0.1-0.2-0.1c0.1-0.7,0.5-1.4,1.2-1.9C320.2,75.9,321.2,75.7,322.2,75.7L322.2,75.7z M321.6,85.2c0.8,0,1.6-0.2,2.1-0.6 c0.6-0.4,0.8-1,0.8-1.7v-1.6c0,0,0-0.1-0.1-0.1h-2.1c-1,0-1.7,0.2-2.1,0.6c-0.6,0.4-0.8,0.8-0.8,1.6c0,0.6,0.2,1.1,0.6,1.3 C320.4,85.1,320.9,85.2,321.6,85.2L321.6,85.2z M333.7,75.8c1.1,0,2,0.4,2.6,1c0.6,0.6,1,1.6,1,2.6v6.8c0,0.1-0.1,0.2-0.2,0.2H336 c-0.1,0-0.2-0.1-0.2-0.2v-6.6c0-0.7-0.2-1.4-0.7-1.9S334,77,333.3,77c-0.7,0-1.3,0.2-1.8,0.7s-0.7,1.1-0.7,1.8v6.6 c0,0.1-0.1,0.2-0.2,0.2h-1c-0.1,0-0.2-0.1-0.2-0.2v-10c0-0.1,0.1-0.2,0.2-0.2h1.1c0.1,0,0.2,0.1,0.2,0.2v0.8c0,0,0,0,0,0.1l0,0 C331.5,76.1,332.4,75.8,333.7,75.8L333.7,75.8z M344.3,75.7c1.2,0,2.1,0.4,2.9,1c0.7,0.6,1,1.4,1,2.5v6.9c0,0.1-0.1,0.2-0.2,0.2 h-1.1c-0.1,0-0.2-0.1-0.2-0.2v-0.8c0,0,0,0,0-0.1c0,0,0,0-0.1,0c-0.4,0.4-0.8,0.7-1.3,1c-0.6,0.2-1.2,0.4-1.8,0.4 c-1,0-1.8-0.2-2.5-0.7s-1-1.2-1-2.3c0-1.1,0.4-1.8,1.1-2.4s1.8-1,3.1-1h2.4c0,0,0.1,0,0.1-0.1v-0.8c0-0.7-0.2-1.3-0.6-1.7 c-0.4-0.4-1-0.6-1.8-0.6c-0.7,0-1.2,0.1-1.6,0.4c-0.4,0.2-0.7,0.6-0.7,1.1c0,0.1-0.1,0.2-0.2,0.2l-1.1-0.1c-0.1,0-0.2-0.1-0.2-0.1 c0.1-0.7,0.5-1.4,1.2-1.9C342.3,75.9,343.2,75.7,344.3,75.7L344.3,75.7z M343.7,85.2c0.8,0,1.6-0.2,2.1-0.6c0.6-0.4,0.8-1,0.8-1.7 v-1.6c0,0,0-0.1-0.1-0.1h-2.1c-1,0-1.7,0.2-2.1,0.6c-0.6,0.4-0.8,0.8-0.8,1.6c0,0.6,0.2,1.1,0.6,1.3C342.5,85.1,343,85.2,343.7,85.2 L343.7,85.2z M355.8,75.8c1.1,0,2,0.4,2.6,1c0.6,0.6,1,1.6,1,2.6v6.8c0,0.1-0.1,0.2-0.2,0.2h-1.1c-0.1,0-0.2-0.1-0.2-0.2v-6.6 c0-0.7-0.2-1.4-0.7-1.9s-1.1-0.7-1.8-0.7c-0.7,0-1.3,0.2-1.8,0.7s-0.7,1.1-0.7,1.8v6.6c0,0.1-0.1,0.2-0.2,0.2h-1.1 c-0.1,0-0.2-0.1-0.2-0.2v-10c0-0.1,0.1-0.2,0.2-0.2h1.1c0.1,0,0.2,0.1,0.2,0.2v0.8c0,0,0,0,0,0.1l0,0 C353.6,76.1,354.5,75.8,355.8,75.8L355.8,75.8z"/>
</svg>