<svg xmlns="http://www.w3.org/2000/svg" viewBox="0 0 24 24">
	<title>Adobe Illustrator</title>
	<path fill="#271402" d="M5.5,2h12.9c2,0,3.5,1.6,3.5,3.6v12.7c0,2-1.6,3.6-3.5,3.6H5.5c-2,0-3.5-1.6-3.5-3.6V5.6C2,3.6,3.6,2,5.5,2z" />
	<path fill="#FA782C" d="M12,14.4H8.9l-0.6,2c0,0.1-0.1,0.1-0.2,0.1H6.6c-0.1,0-0.1-0.1-0.1-0.2l2.7-7.7c0-0.1,0-0.2,0.1-0.3 c0-0.2,0.1-0.4,0.1-0.5c0,0,0-0.1,0.1-0.1h2.2c0.1,0,0.1,0,0.1,0.1l3,8.6c0,0.1,0,0.1-0.1,0.1h-1.7c-0.1,0-0.1,0-0.1-0.1L12,14.4z  M9.4,12.7h2.1c-0.1-0.2-0.1-0.4-0.2-0.6c-0.1-0.2-0.2-0.5-0.2-0.7c-0.1-0.3-0.2-0.5-0.2-0.8c-0.1-0.3-0.2-0.5-0.2-0.7 c-0.1-0.2-0.1-0.4-0.2-0.6h0c-0.1,0.4-0.2,0.7-0.3,1.1c-0.1,0.4-0.2,0.8-0.4,1.2C9.7,12,9.5,12.4,9.4,12.7z M16.5,9.1 c-0.3,0-0.5-0.1-0.7-0.3c-0.2-0.2-0.3-0.5-0.3-0.8c0-0.3,0.1-0.6,0.3-0.7C16,7.1,16.2,7,16.5,7c0.3,0,0.6,0.1,0.8,0.3 c0.2,0.2,0.3,0.5,0.3,0.7c0,0.3-0.1,0.6-0.3,0.8C17.1,9,16.8,9.1,16.5,9.1L16.5,9.1z M15.6,16.4V9.9c0-0.1,0-0.1,0.1-0.1h1.7 c0.1,0,0.1,0,0.1,0.1v6.4c0,0.1,0,0.1-0.1,0.1h-1.6C15.6,16.5,15.6,16.4,15.6,16.4z" />
</svg>