<?xml version="1.0" encoding="utf-8"?>
<!-- Generator: Adobe Illustrator 24.0.1, SVG Export Plug-In . SVG Version: 6.00 Build 0)  -->
<svg version="1.1" id="Layer_1" xmlns="http://www.w3.org/2000/svg" xmlns:xlink="http://www.w3.org/1999/xlink" x="0px" y="0px"
	 viewBox="0 0 24 24" style="enable-background:new 0 0 24 24;" xml:space="preserve">
<style type="text/css">
	.st0{fill:#EEEEEE;}
	.st1{fill:#2196F3;}
	.st2{fill:#D7DEE0;}
	.st3{fill:#333333;}
</style>
<title>Vue</title>
<path class="st0" d="M18.9,2.5h-5.6c-1.5,2.7-3.1,7.5-3.1,11.1h3.6c-0.6,1.4-0.6,5.2-0.3,7.9h5.2c1.8,0,3.3-1.5,3.3-3.4V5.9
	C22,4.1,20.7,2.6,18.9,2.5z"/>
<path class="st1" d="M5.3,21.5h8.3c-0.4-2.7-0.3-6.5,0.2-7.9h-3.6c0-3.6,1.7-8.4,3.1-11.1H5.1C3.4,2.6,2,4.1,2,5.9V18
	C2,19.9,3.4,21.5,5.3,21.5z"/>
<path class="st2" d="M14,22.8c-0.1,0-0.2,0-0.3-0.1c-1-1-1.3-6.3-0.7-8.6h-2.9c-0.2,0-0.4-0.2-0.4-0.4c0-3.7,2.4-10.8,4-12.4
	c0.2-0.2,0.4-0.2,0.6,0c0.2,0.2,0.2,0.4,0,0.6l0,0c-1.4,1.4-3.6,7.9-3.8,11.4h3c0.2,0,0.4,0.2,0.4,0.4c0,0.1,0,0.1,0,0.2
	c-0.8,1.6-0.4,7.5,0.3,8.2c0.2,0.2,0.2,0.4,0,0.6C14.2,22.7,14.1,22.8,14,22.8L14,22.8L14,22.8z"/>
<path class="st3" d="M12,17.4c-2.3,0-4-0.6-5.6-1.6c-0.2-0.1-0.3-0.3-0.3-0.5C6.2,15.1,6.4,15,6.7,15l0,0c1.6,1.1,3.2,1.6,5.3,1.6
	c2.3,0,3.7-0.5,5.3-1.5c0.2-0.1,0.5,0,0.5,0.3c0.1,0.2,0,0.5-0.3,0.5l0,0C16,16.8,14.3,17.4,12,17.4z"/>
<g>
	<path class="st3" d="M7.1,9.7c-0.2,0-0.4-0.2-0.4-0.4V7.5c0-0.2,0.2-0.4,0.4-0.4s0.4,0.2,0.4,0.4v1.7C7.6,9.5,7.4,9.7,7.1,9.7z"/>
	<path class="st3" d="M16.9,9.7c-0.2,0-0.4-0.2-0.4-0.4V7.5c0-0.2,0.2-0.4,0.4-0.4c0.2,0,0.4,0.2,0.4,0.4v1.7
		C17.3,9.5,17.1,9.7,16.9,9.7z"/>
</g>
</svg>
