<svg xmlns="http://www.w3.org/2000/svg" viewBox="0 0 24 24">
	<title>Adobe Photoshop</title>
	<path fill="#031E24" d="M5.5,2h12.9c2,0,3.5,1.6,3.5,3.6v12.7c0,2-1.6,3.6-3.5,3.6H5.5c-2,0-3.5-1.6-3.5-3.6V5.6C2,3.6,3.6,2,5.5,2z" />
	<path fill="#39E7FF" d="M6,16.2V7.6c0-0.1,0-0.1,0.1-0.1c0.1,0,0.3,0,0.5,0c0.2,0,0.4,0,0.6,0c0.2,0,0.5,0,0.7,0c0.3,0,0.5,0,0.8,0 c0.7,0,1.2,0.1,1.7,0.3c0.4,0.1,0.8,0.4,1.1,0.7C11.7,8.7,12,9,12.1,9.4c0.1,0.3,0.2,0.7,0.2,1.1c0,0.7-0.2,1.3-0.5,1.8 c-0.3,0.5-0.8,0.8-1.3,1c-0.6,0.2-1.2,0.3-1.9,0.3c-0.2,0-0.3,0-0.4,0c-0.1,0-0.2,0-0.4,0v2.7c0,0.1,0,0.1-0.1,0.1H6.1 C6,16.3,6,16.3,6,16.2L6,16.2z M7.8,9.2V12c0.1,0,0.2,0,0.3,0h0.4c0.3,0,0.7,0,1-0.1c0.3-0.1,0.5-0.2,0.7-0.4 c0.2-0.2,0.3-0.5,0.3-0.9c0-0.3-0.1-0.5-0.2-0.7c-0.1-0.2-0.3-0.4-0.6-0.5C9.4,9.2,9,9.1,8.7,9.1c-0.2,0-0.4,0-0.6,0 C8,9.1,7.9,9.1,7.8,9.2L7.8,9.2z M17.5,11.5c-0.2-0.1-0.5-0.2-0.8-0.3c-0.3-0.1-0.6-0.1-0.9-0.1c-0.2,0-0.3,0-0.5,0.1 c-0.1,0-0.2,0.1-0.3,0.2c0,0.1-0.1,0.2-0.1,0.2c0,0.1,0,0.1,0.1,0.2c0.1,0.1,0.2,0.2,0.3,0.2c0.2,0.1,0.4,0.2,0.6,0.3 c0.4,0.2,0.9,0.4,1.3,0.6c0.3,0.2,0.5,0.4,0.7,0.7c0.1,0.3,0.2,0.6,0.2,0.9c0,0.4-0.1,0.8-0.3,1.1c-0.2,0.3-0.6,0.6-0.9,0.7 c-0.4,0.2-0.9,0.3-1.5,0.3c-0.4,0-0.8,0-1.1-0.1c-0.3-0.1-0.6-0.1-0.8-0.3c-0.1,0-0.1-0.1-0.1-0.2v-1.4c0,0,0-0.1,0-0.1 s0.1,0,0.1,0c0.3,0.2,0.7,0.3,1,0.4c0.3,0.1,0.6,0.1,1,0.1c0.3,0,0.5,0,0.7-0.1c0.1-0.1,0.2-0.2,0.2-0.3c0-0.1-0.1-0.2-0.2-0.3 s-0.4-0.2-0.8-0.4c-0.4-0.1-0.8-0.3-1.2-0.6c-0.3-0.2-0.5-0.4-0.6-0.7c-0.1-0.3-0.2-0.6-0.2-0.9c0-0.4,0.1-0.7,0.3-1 c0.2-0.3,0.5-0.6,0.9-0.8c0.4-0.2,0.9-0.3,1.5-0.3c0.3,0,0.7,0,1,0.1c0.2,0,0.5,0.1,0.7,0.2c0,0,0.1,0,0.1,0.1c0,0,0,0.1,0,0.1v1.4 c0,0,0,0.1,0,0.1C17.6,11.5,17.5,11.5,17.5,11.5L17.5,11.5z" />
</svg>