<svg xmlns="http://www.w3.org/2000/svg" viewBox="0 0 24 24">
	<title>Adobe Premiere Pro</title>
	<path fill="#2C0131" d="M5.5,2h12.9c2,0,3.5,1.6,3.5,3.6v12.7c0,2-1.6,3.6-3.5,3.6H5.5c-2,0-3.5-1.6-3.5-3.6V5.6C2,3.6,3.6,2,5.5,2z" />
	<path fill="#F987FF" d="M6.3,16.4V7.8c0-0.1,0-0.1,0.1-0.1c0.1,0,0.3,0,0.5,0c0.2,0,0.4,0,0.6,0c0.2,0,0.5,0,0.7,0c0.3,0,0.5,0,0.8,0 c0.7,0,1.2,0.1,1.7,0.3c0.4,0.1,0.8,0.4,1.1,0.7c0.3,0.3,0.5,0.6,0.6,0.9c0.1,0.4,0.2,0.7,0.2,1.1c0,0.7-0.2,1.3-0.5,1.8 c-0.3,0.5-0.8,0.8-1.3,1c-0.6,0.2-1.2,0.3-1.9,0.3c-0.2,0-0.3,0-0.4,0c-0.1,0-0.2,0-0.4,0v2.7c0,0.1,0,0.1-0.1,0.1H6.4 C6.3,16.5,6.3,16.5,6.3,16.4L6.3,16.4z M8.1,9.3v2.8c0.1,0,0.2,0,0.3,0h0.4c0.3,0,0.7-0.1,1-0.2c0.3-0.1,0.5-0.2,0.7-0.4 c0.2-0.2,0.3-0.5,0.3-0.9c0-0.3-0.1-0.5-0.2-0.7c-0.1-0.2-0.3-0.4-0.6-0.5C9.7,9.4,9.3,9.3,9,9.3c-0.2,0-0.4,0-0.6,0 C8.2,9.3,8.1,9.3,8.1,9.3L8.1,9.3z M13.7,9.8h1.5c0.1,0,0.1,0.1,0.2,0.1c0,0.1,0,0.1,0.1,0.2c0,0.1,0,0.2,0,0.3c0,0.1,0,0.2,0,0.3 c0.2-0.3,0.6-0.5,0.9-0.7c0.4-0.2,0.8-0.3,1.3-0.3c0.1,0,0.1,0,0.1,0.1v1.7c0,0.1,0,0.1-0.1,0.1c-0.3,0-0.6,0-0.9,0.1 c-0.2,0-0.5,0.1-0.7,0.2c-0.2,0.1-0.3,0.2-0.4,0.3v4.2c0,0.1,0,0.1-0.1,0.1h-1.6c-0.1,0-0.1,0-0.1-0.1v-4.7c0-0.2,0-0.4,0-0.6 c0-0.2,0-0.4,0-0.7C13.7,10.3,13.7,10.1,13.7,9.8C13.6,9.9,13.7,9.8,13.7,9.8C13.7,9.8,13.7,9.8,13.7,9.8L13.7,9.8z" />
</svg>